G04 #@! TF.GenerationSoftware,KiCad,Pcbnew,(5.1.5)-3*
G04 #@! TF.CreationDate,2020-04-24T14:35:50-04:00*
G04 #@! TF.ProjectId,CR2025_Nordic,43523230-3235-45f4-9e6f-726469632e6b,rev?*
G04 #@! TF.SameCoordinates,Original*
G04 #@! TF.FileFunction,Copper,L1,Top*
G04 #@! TF.FilePolarity,Positive*
%FSLAX46Y46*%
G04 Gerber Fmt 4.6, Leading zero omitted, Abs format (unit mm)*
G04 Created by KiCad (PCBNEW (5.1.5)-3) date 2020-04-24 14:35:50*
%MOMM*%
%LPD*%
G04 APERTURE LIST*
%ADD10R,0.599999X0.499999*%
%ADD11C,0.100000*%
%ADD12R,3.810000X3.910000*%
%ADD13R,1.020000X0.610000*%
%ADD14R,1.270000X0.610000*%
%ADD15R,1.900000X2.100000*%
%ADD16R,2.100000X1.900000*%
%ADD17O,2.100000X1.900000*%
%ADD18R,1.524000X0.558800*%
%ADD19R,1.700000X1.700000*%
%ADD20R,1.100000X1.100000*%
%ADD21C,4.400000*%
%ADD22R,0.650000X1.060000*%
%ADD23R,0.550000X1.240000*%
%ADD24R,1.220000X0.650000*%
%ADD25R,0.900000X0.800000*%
%ADD26C,0.500000*%
%ADD27C,0.800000*%
%ADD28C,0.250000*%
%ADD29C,0.500000*%
%ADD30C,0.254000*%
G04 APERTURE END LIST*
D10*
X141990699Y-76555600D03*
X140990701Y-76555600D03*
G04 #@! TA.AperFunction,SMDPad,CuDef*
D11*
G36*
X145041279Y-78418544D02*
G01*
X145064334Y-78421963D01*
X145086943Y-78427627D01*
X145108887Y-78435479D01*
X145129957Y-78445444D01*
X145149948Y-78457426D01*
X145168668Y-78471310D01*
X145185938Y-78486962D01*
X145201590Y-78504232D01*
X145215474Y-78522952D01*
X145227456Y-78542943D01*
X145237421Y-78564013D01*
X145245273Y-78585957D01*
X145250937Y-78608566D01*
X145254356Y-78631621D01*
X145255500Y-78654900D01*
X145255500Y-79129900D01*
X145254356Y-79153179D01*
X145250937Y-79176234D01*
X145245273Y-79198843D01*
X145237421Y-79220787D01*
X145227456Y-79241857D01*
X145215474Y-79261848D01*
X145201590Y-79280568D01*
X145185938Y-79297838D01*
X145168668Y-79313490D01*
X145149948Y-79327374D01*
X145129957Y-79339356D01*
X145108887Y-79349321D01*
X145086943Y-79357173D01*
X145064334Y-79362837D01*
X145041279Y-79366256D01*
X145018000Y-79367400D01*
X144443000Y-79367400D01*
X144419721Y-79366256D01*
X144396666Y-79362837D01*
X144374057Y-79357173D01*
X144352113Y-79349321D01*
X144331043Y-79339356D01*
X144311052Y-79327374D01*
X144292332Y-79313490D01*
X144275062Y-79297838D01*
X144259410Y-79280568D01*
X144245526Y-79261848D01*
X144233544Y-79241857D01*
X144223579Y-79220787D01*
X144215727Y-79198843D01*
X144210063Y-79176234D01*
X144206644Y-79153179D01*
X144205500Y-79129900D01*
X144205500Y-78654900D01*
X144206644Y-78631621D01*
X144210063Y-78608566D01*
X144215727Y-78585957D01*
X144223579Y-78564013D01*
X144233544Y-78542943D01*
X144245526Y-78522952D01*
X144259410Y-78504232D01*
X144275062Y-78486962D01*
X144292332Y-78471310D01*
X144311052Y-78457426D01*
X144331043Y-78445444D01*
X144352113Y-78435479D01*
X144374057Y-78427627D01*
X144396666Y-78421963D01*
X144419721Y-78418544D01*
X144443000Y-78417400D01*
X145018000Y-78417400D01*
X145041279Y-78418544D01*
G37*
G04 #@! TD.AperFunction*
G04 #@! TA.AperFunction,SMDPad,CuDef*
G36*
X146791279Y-78418544D02*
G01*
X146814334Y-78421963D01*
X146836943Y-78427627D01*
X146858887Y-78435479D01*
X146879957Y-78445444D01*
X146899948Y-78457426D01*
X146918668Y-78471310D01*
X146935938Y-78486962D01*
X146951590Y-78504232D01*
X146965474Y-78522952D01*
X146977456Y-78542943D01*
X146987421Y-78564013D01*
X146995273Y-78585957D01*
X147000937Y-78608566D01*
X147004356Y-78631621D01*
X147005500Y-78654900D01*
X147005500Y-79129900D01*
X147004356Y-79153179D01*
X147000937Y-79176234D01*
X146995273Y-79198843D01*
X146987421Y-79220787D01*
X146977456Y-79241857D01*
X146965474Y-79261848D01*
X146951590Y-79280568D01*
X146935938Y-79297838D01*
X146918668Y-79313490D01*
X146899948Y-79327374D01*
X146879957Y-79339356D01*
X146858887Y-79349321D01*
X146836943Y-79357173D01*
X146814334Y-79362837D01*
X146791279Y-79366256D01*
X146768000Y-79367400D01*
X146193000Y-79367400D01*
X146169721Y-79366256D01*
X146146666Y-79362837D01*
X146124057Y-79357173D01*
X146102113Y-79349321D01*
X146081043Y-79339356D01*
X146061052Y-79327374D01*
X146042332Y-79313490D01*
X146025062Y-79297838D01*
X146009410Y-79280568D01*
X145995526Y-79261848D01*
X145983544Y-79241857D01*
X145973579Y-79220787D01*
X145965727Y-79198843D01*
X145960063Y-79176234D01*
X145956644Y-79153179D01*
X145955500Y-79129900D01*
X145955500Y-78654900D01*
X145956644Y-78631621D01*
X145960063Y-78608566D01*
X145965727Y-78585957D01*
X145973579Y-78564013D01*
X145983544Y-78542943D01*
X145995526Y-78522952D01*
X146009410Y-78504232D01*
X146025062Y-78486962D01*
X146042332Y-78471310D01*
X146061052Y-78457426D01*
X146081043Y-78445444D01*
X146102113Y-78435479D01*
X146124057Y-78427627D01*
X146146666Y-78421963D01*
X146169721Y-78418544D01*
X146193000Y-78417400D01*
X146768000Y-78417400D01*
X146791279Y-78418544D01*
G37*
G04 #@! TD.AperFunction*
G04 #@! TA.AperFunction,SMDPad,CuDef*
G36*
X147093700Y-83553202D02*
G01*
X147118234Y-83553202D01*
X147167065Y-83558012D01*
X147215190Y-83567584D01*
X147262145Y-83581828D01*
X147307478Y-83600605D01*
X147350751Y-83623736D01*
X147391550Y-83650996D01*
X147429479Y-83682124D01*
X147464176Y-83716821D01*
X147495304Y-83754750D01*
X147522564Y-83795549D01*
X147545695Y-83838822D01*
X147564472Y-83884155D01*
X147578716Y-83931110D01*
X147588288Y-83979235D01*
X147593098Y-84028066D01*
X147593098Y-84052600D01*
X147593700Y-84052600D01*
X147593700Y-84552600D01*
X147593098Y-84552600D01*
X147593098Y-84577134D01*
X147588288Y-84625965D01*
X147578716Y-84674090D01*
X147564472Y-84721045D01*
X147545695Y-84766378D01*
X147522564Y-84809651D01*
X147495304Y-84850450D01*
X147464176Y-84888379D01*
X147429479Y-84923076D01*
X147391550Y-84954204D01*
X147350751Y-84981464D01*
X147307478Y-85004595D01*
X147262145Y-85023372D01*
X147215190Y-85037616D01*
X147167065Y-85047188D01*
X147118234Y-85051998D01*
X147093700Y-85051998D01*
X147093700Y-85052600D01*
X146593700Y-85052600D01*
X146593700Y-83552600D01*
X147093700Y-83552600D01*
X147093700Y-83553202D01*
G37*
G04 #@! TD.AperFunction*
G04 #@! TA.AperFunction,SMDPad,CuDef*
G36*
X146293700Y-85052600D02*
G01*
X145793700Y-85052600D01*
X145793700Y-85051998D01*
X145769166Y-85051998D01*
X145720335Y-85047188D01*
X145672210Y-85037616D01*
X145625255Y-85023372D01*
X145579922Y-85004595D01*
X145536649Y-84981464D01*
X145495850Y-84954204D01*
X145457921Y-84923076D01*
X145423224Y-84888379D01*
X145392096Y-84850450D01*
X145364836Y-84809651D01*
X145341705Y-84766378D01*
X145322928Y-84721045D01*
X145308684Y-84674090D01*
X145299112Y-84625965D01*
X145294302Y-84577134D01*
X145294302Y-84552600D01*
X145293700Y-84552600D01*
X145293700Y-84052600D01*
X145294302Y-84052600D01*
X145294302Y-84028066D01*
X145299112Y-83979235D01*
X145308684Y-83931110D01*
X145322928Y-83884155D01*
X145341705Y-83838822D01*
X145364836Y-83795549D01*
X145392096Y-83754750D01*
X145423224Y-83716821D01*
X145457921Y-83682124D01*
X145495850Y-83650996D01*
X145536649Y-83623736D01*
X145579922Y-83600605D01*
X145625255Y-83581828D01*
X145672210Y-83567584D01*
X145720335Y-83558012D01*
X145769166Y-83553202D01*
X145793700Y-83553202D01*
X145793700Y-83552600D01*
X146293700Y-83552600D01*
X146293700Y-85052600D01*
G37*
G04 #@! TD.AperFunction*
G04 #@! TA.AperFunction,SMDPad,CuDef*
G36*
X146088198Y-88013300D02*
G01*
X146088198Y-88037834D01*
X146083388Y-88086665D01*
X146073816Y-88134790D01*
X146059572Y-88181745D01*
X146040795Y-88227078D01*
X146017664Y-88270351D01*
X145990404Y-88311150D01*
X145959276Y-88349079D01*
X145924579Y-88383776D01*
X145886650Y-88414904D01*
X145845851Y-88442164D01*
X145802578Y-88465295D01*
X145757245Y-88484072D01*
X145710290Y-88498316D01*
X145662165Y-88507888D01*
X145613334Y-88512698D01*
X145588800Y-88512698D01*
X145588800Y-88513300D01*
X145088800Y-88513300D01*
X145088800Y-88512698D01*
X145064266Y-88512698D01*
X145015435Y-88507888D01*
X144967310Y-88498316D01*
X144920355Y-88484072D01*
X144875022Y-88465295D01*
X144831749Y-88442164D01*
X144790950Y-88414904D01*
X144753021Y-88383776D01*
X144718324Y-88349079D01*
X144687196Y-88311150D01*
X144659936Y-88270351D01*
X144636805Y-88227078D01*
X144618028Y-88181745D01*
X144603784Y-88134790D01*
X144594212Y-88086665D01*
X144589402Y-88037834D01*
X144589402Y-88013300D01*
X144588800Y-88013300D01*
X144588800Y-87513300D01*
X146088800Y-87513300D01*
X146088800Y-88013300D01*
X146088198Y-88013300D01*
G37*
G04 #@! TD.AperFunction*
G04 #@! TA.AperFunction,SMDPad,CuDef*
G36*
X144588800Y-87213300D02*
G01*
X144588800Y-86713300D01*
X144589402Y-86713300D01*
X144589402Y-86688766D01*
X144594212Y-86639935D01*
X144603784Y-86591810D01*
X144618028Y-86544855D01*
X144636805Y-86499522D01*
X144659936Y-86456249D01*
X144687196Y-86415450D01*
X144718324Y-86377521D01*
X144753021Y-86342824D01*
X144790950Y-86311696D01*
X144831749Y-86284436D01*
X144875022Y-86261305D01*
X144920355Y-86242528D01*
X144967310Y-86228284D01*
X145015435Y-86218712D01*
X145064266Y-86213902D01*
X145088800Y-86213902D01*
X145088800Y-86213300D01*
X145588800Y-86213300D01*
X145588800Y-86213902D01*
X145613334Y-86213902D01*
X145662165Y-86218712D01*
X145710290Y-86228284D01*
X145757245Y-86242528D01*
X145802578Y-86261305D01*
X145845851Y-86284436D01*
X145886650Y-86311696D01*
X145924579Y-86342824D01*
X145959276Y-86377521D01*
X145990404Y-86415450D01*
X146017664Y-86456249D01*
X146040795Y-86499522D01*
X146059572Y-86544855D01*
X146073816Y-86591810D01*
X146083388Y-86639935D01*
X146088198Y-86688766D01*
X146088198Y-86713300D01*
X146088800Y-86713300D01*
X146088800Y-87213300D01*
X144588800Y-87213300D01*
G37*
G04 #@! TD.AperFunction*
G04 #@! TA.AperFunction,SMDPad,CuDef*
G36*
X152689800Y-86347398D02*
G01*
X152665266Y-86347398D01*
X152616435Y-86342588D01*
X152568310Y-86333016D01*
X152521355Y-86318772D01*
X152476022Y-86299995D01*
X152432749Y-86276864D01*
X152391950Y-86249604D01*
X152354021Y-86218476D01*
X152319324Y-86183779D01*
X152288196Y-86145850D01*
X152260936Y-86105051D01*
X152237805Y-86061778D01*
X152219028Y-86016445D01*
X152204784Y-85969490D01*
X152195212Y-85921365D01*
X152190402Y-85872534D01*
X152190402Y-85848000D01*
X152189800Y-85848000D01*
X152189800Y-85348000D01*
X152190402Y-85348000D01*
X152190402Y-85323466D01*
X152195212Y-85274635D01*
X152204784Y-85226510D01*
X152219028Y-85179555D01*
X152237805Y-85134222D01*
X152260936Y-85090949D01*
X152288196Y-85050150D01*
X152319324Y-85012221D01*
X152354021Y-84977524D01*
X152391950Y-84946396D01*
X152432749Y-84919136D01*
X152476022Y-84896005D01*
X152521355Y-84877228D01*
X152568310Y-84862984D01*
X152616435Y-84853412D01*
X152665266Y-84848602D01*
X152689800Y-84848602D01*
X152689800Y-84848000D01*
X153189800Y-84848000D01*
X153189800Y-86348000D01*
X152689800Y-86348000D01*
X152689800Y-86347398D01*
G37*
G04 #@! TD.AperFunction*
G04 #@! TA.AperFunction,SMDPad,CuDef*
G36*
X153489800Y-84848000D02*
G01*
X153989800Y-84848000D01*
X153989800Y-84848602D01*
X154014334Y-84848602D01*
X154063165Y-84853412D01*
X154111290Y-84862984D01*
X154158245Y-84877228D01*
X154203578Y-84896005D01*
X154246851Y-84919136D01*
X154287650Y-84946396D01*
X154325579Y-84977524D01*
X154360276Y-85012221D01*
X154391404Y-85050150D01*
X154418664Y-85090949D01*
X154441795Y-85134222D01*
X154460572Y-85179555D01*
X154474816Y-85226510D01*
X154484388Y-85274635D01*
X154489198Y-85323466D01*
X154489198Y-85348000D01*
X154489800Y-85348000D01*
X154489800Y-85848000D01*
X154489198Y-85848000D01*
X154489198Y-85872534D01*
X154484388Y-85921365D01*
X154474816Y-85969490D01*
X154460572Y-86016445D01*
X154441795Y-86061778D01*
X154418664Y-86105051D01*
X154391404Y-86145850D01*
X154360276Y-86183779D01*
X154325579Y-86218476D01*
X154287650Y-86249604D01*
X154246851Y-86276864D01*
X154203578Y-86299995D01*
X154158245Y-86318772D01*
X154111290Y-86333016D01*
X154063165Y-86342588D01*
X154014334Y-86347398D01*
X153989800Y-86347398D01*
X153989800Y-86348000D01*
X153489800Y-86348000D01*
X153489800Y-84848000D01*
G37*
G04 #@! TD.AperFunction*
D12*
X150994500Y-90030300D03*
D13*
X153099500Y-88125300D03*
X153099500Y-89395300D03*
X153099500Y-90665300D03*
X153099500Y-91935300D03*
D14*
X147634500Y-91935300D03*
X147634500Y-90665300D03*
X147634500Y-89395300D03*
X147634500Y-88125300D03*
D15*
X139973800Y-74043700D03*
X128853800Y-74043700D03*
D16*
X126796800Y-79133700D03*
D17*
X142006800Y-79133700D03*
X126796800Y-81673700D03*
X142006800Y-81673700D03*
X126796800Y-84213700D03*
X142006800Y-84213700D03*
X126796800Y-86753700D03*
X142006800Y-86753700D03*
X126796800Y-89293700D03*
X142006800Y-89293700D03*
X126796800Y-91833700D03*
X142006800Y-91833700D03*
X126796800Y-94373700D03*
X142006800Y-94373700D03*
X126796800Y-96913700D03*
X142006800Y-96913700D03*
X126796800Y-99453700D03*
X142006800Y-99453700D03*
X126796800Y-101993700D03*
X142006800Y-101993700D03*
D18*
X138344900Y-86295000D03*
X138344900Y-87565000D03*
X138344900Y-88835000D03*
X138344900Y-90105000D03*
X131055100Y-90105000D03*
X131055100Y-88835000D03*
X131055100Y-87565000D03*
X131055100Y-86295000D03*
G04 #@! TA.AperFunction,SMDPad,CuDef*
D11*
G36*
X149260800Y-85051998D02*
G01*
X149236266Y-85051998D01*
X149187435Y-85047188D01*
X149139310Y-85037616D01*
X149092355Y-85023372D01*
X149047022Y-85004595D01*
X149003749Y-84981464D01*
X148962950Y-84954204D01*
X148925021Y-84923076D01*
X148890324Y-84888379D01*
X148859196Y-84850450D01*
X148831936Y-84809651D01*
X148808805Y-84766378D01*
X148790028Y-84721045D01*
X148775784Y-84674090D01*
X148766212Y-84625965D01*
X148761402Y-84577134D01*
X148761402Y-84552600D01*
X148760800Y-84552600D01*
X148760800Y-84052600D01*
X148761402Y-84052600D01*
X148761402Y-84028066D01*
X148766212Y-83979235D01*
X148775784Y-83931110D01*
X148790028Y-83884155D01*
X148808805Y-83838822D01*
X148831936Y-83795549D01*
X148859196Y-83754750D01*
X148890324Y-83716821D01*
X148925021Y-83682124D01*
X148962950Y-83650996D01*
X149003749Y-83623736D01*
X149047022Y-83600605D01*
X149092355Y-83581828D01*
X149139310Y-83567584D01*
X149187435Y-83558012D01*
X149236266Y-83553202D01*
X149260800Y-83553202D01*
X149260800Y-83552600D01*
X149760800Y-83552600D01*
X149760800Y-85052600D01*
X149260800Y-85052600D01*
X149260800Y-85051998D01*
G37*
G04 #@! TD.AperFunction*
G04 #@! TA.AperFunction,SMDPad,CuDef*
G36*
X150060800Y-83552600D02*
G01*
X150560800Y-83552600D01*
X150560800Y-83553202D01*
X150585334Y-83553202D01*
X150634165Y-83558012D01*
X150682290Y-83567584D01*
X150729245Y-83581828D01*
X150774578Y-83600605D01*
X150817851Y-83623736D01*
X150858650Y-83650996D01*
X150896579Y-83682124D01*
X150931276Y-83716821D01*
X150962404Y-83754750D01*
X150989664Y-83795549D01*
X151012795Y-83838822D01*
X151031572Y-83884155D01*
X151045816Y-83931110D01*
X151055388Y-83979235D01*
X151060198Y-84028066D01*
X151060198Y-84052600D01*
X151060800Y-84052600D01*
X151060800Y-84552600D01*
X151060198Y-84552600D01*
X151060198Y-84577134D01*
X151055388Y-84625965D01*
X151045816Y-84674090D01*
X151031572Y-84721045D01*
X151012795Y-84766378D01*
X150989664Y-84809651D01*
X150962404Y-84850450D01*
X150931276Y-84888379D01*
X150896579Y-84923076D01*
X150858650Y-84954204D01*
X150817851Y-84981464D01*
X150774578Y-85004595D01*
X150729245Y-85023372D01*
X150682290Y-85037616D01*
X150634165Y-85047188D01*
X150585334Y-85051998D01*
X150560800Y-85051998D01*
X150560800Y-85052600D01*
X150060800Y-85052600D01*
X150060800Y-83552600D01*
G37*
G04 #@! TD.AperFunction*
D19*
X130454400Y-94246700D03*
D20*
X157724300Y-83045300D03*
X154924300Y-83045300D03*
G04 #@! TA.AperFunction,SMDPad,CuDef*
D11*
G36*
X151936879Y-75855244D02*
G01*
X151959934Y-75858663D01*
X151982543Y-75864327D01*
X152004487Y-75872179D01*
X152025557Y-75882144D01*
X152045548Y-75894126D01*
X152064268Y-75908010D01*
X152081538Y-75923662D01*
X152097190Y-75940932D01*
X152111074Y-75959652D01*
X152123056Y-75979643D01*
X152133021Y-76000713D01*
X152140873Y-76022657D01*
X152146537Y-76045266D01*
X152149956Y-76068321D01*
X152151100Y-76091600D01*
X152151100Y-76666600D01*
X152149956Y-76689879D01*
X152146537Y-76712934D01*
X152140873Y-76735543D01*
X152133021Y-76757487D01*
X152123056Y-76778557D01*
X152111074Y-76798548D01*
X152097190Y-76817268D01*
X152081538Y-76834538D01*
X152064268Y-76850190D01*
X152045548Y-76864074D01*
X152025557Y-76876056D01*
X152004487Y-76886021D01*
X151982543Y-76893873D01*
X151959934Y-76899537D01*
X151936879Y-76902956D01*
X151913600Y-76904100D01*
X151438600Y-76904100D01*
X151415321Y-76902956D01*
X151392266Y-76899537D01*
X151369657Y-76893873D01*
X151347713Y-76886021D01*
X151326643Y-76876056D01*
X151306652Y-76864074D01*
X151287932Y-76850190D01*
X151270662Y-76834538D01*
X151255010Y-76817268D01*
X151241126Y-76798548D01*
X151229144Y-76778557D01*
X151219179Y-76757487D01*
X151211327Y-76735543D01*
X151205663Y-76712934D01*
X151202244Y-76689879D01*
X151201100Y-76666600D01*
X151201100Y-76091600D01*
X151202244Y-76068321D01*
X151205663Y-76045266D01*
X151211327Y-76022657D01*
X151219179Y-76000713D01*
X151229144Y-75979643D01*
X151241126Y-75959652D01*
X151255010Y-75940932D01*
X151270662Y-75923662D01*
X151287932Y-75908010D01*
X151306652Y-75894126D01*
X151326643Y-75882144D01*
X151347713Y-75872179D01*
X151369657Y-75864327D01*
X151392266Y-75858663D01*
X151415321Y-75855244D01*
X151438600Y-75854100D01*
X151913600Y-75854100D01*
X151936879Y-75855244D01*
G37*
G04 #@! TD.AperFunction*
G04 #@! TA.AperFunction,SMDPad,CuDef*
G36*
X151936879Y-77605244D02*
G01*
X151959934Y-77608663D01*
X151982543Y-77614327D01*
X152004487Y-77622179D01*
X152025557Y-77632144D01*
X152045548Y-77644126D01*
X152064268Y-77658010D01*
X152081538Y-77673662D01*
X152097190Y-77690932D01*
X152111074Y-77709652D01*
X152123056Y-77729643D01*
X152133021Y-77750713D01*
X152140873Y-77772657D01*
X152146537Y-77795266D01*
X152149956Y-77818321D01*
X152151100Y-77841600D01*
X152151100Y-78416600D01*
X152149956Y-78439879D01*
X152146537Y-78462934D01*
X152140873Y-78485543D01*
X152133021Y-78507487D01*
X152123056Y-78528557D01*
X152111074Y-78548548D01*
X152097190Y-78567268D01*
X152081538Y-78584538D01*
X152064268Y-78600190D01*
X152045548Y-78614074D01*
X152025557Y-78626056D01*
X152004487Y-78636021D01*
X151982543Y-78643873D01*
X151959934Y-78649537D01*
X151936879Y-78652956D01*
X151913600Y-78654100D01*
X151438600Y-78654100D01*
X151415321Y-78652956D01*
X151392266Y-78649537D01*
X151369657Y-78643873D01*
X151347713Y-78636021D01*
X151326643Y-78626056D01*
X151306652Y-78614074D01*
X151287932Y-78600190D01*
X151270662Y-78584538D01*
X151255010Y-78567268D01*
X151241126Y-78548548D01*
X151229144Y-78528557D01*
X151219179Y-78507487D01*
X151211327Y-78485543D01*
X151205663Y-78462934D01*
X151202244Y-78439879D01*
X151201100Y-78416600D01*
X151201100Y-77841600D01*
X151202244Y-77818321D01*
X151205663Y-77795266D01*
X151211327Y-77772657D01*
X151219179Y-77750713D01*
X151229144Y-77729643D01*
X151241126Y-77709652D01*
X151255010Y-77690932D01*
X151270662Y-77673662D01*
X151287932Y-77658010D01*
X151306652Y-77644126D01*
X151326643Y-77632144D01*
X151347713Y-77622179D01*
X151369657Y-77614327D01*
X151392266Y-77608663D01*
X151415321Y-77605244D01*
X151438600Y-77604100D01*
X151913600Y-77604100D01*
X151936879Y-77605244D01*
G37*
G04 #@! TD.AperFunction*
G04 #@! TA.AperFunction,SMDPad,CuDef*
G36*
X157985779Y-75026144D02*
G01*
X158008834Y-75029563D01*
X158031443Y-75035227D01*
X158053387Y-75043079D01*
X158074457Y-75053044D01*
X158094448Y-75065026D01*
X158113168Y-75078910D01*
X158130438Y-75094562D01*
X158146090Y-75111832D01*
X158159974Y-75130552D01*
X158171956Y-75150543D01*
X158181921Y-75171613D01*
X158189773Y-75193557D01*
X158195437Y-75216166D01*
X158198856Y-75239221D01*
X158200000Y-75262500D01*
X158200000Y-75737500D01*
X158198856Y-75760779D01*
X158195437Y-75783834D01*
X158189773Y-75806443D01*
X158181921Y-75828387D01*
X158171956Y-75849457D01*
X158159974Y-75869448D01*
X158146090Y-75888168D01*
X158130438Y-75905438D01*
X158113168Y-75921090D01*
X158094448Y-75934974D01*
X158074457Y-75946956D01*
X158053387Y-75956921D01*
X158031443Y-75964773D01*
X158008834Y-75970437D01*
X157985779Y-75973856D01*
X157962500Y-75975000D01*
X157387500Y-75975000D01*
X157364221Y-75973856D01*
X157341166Y-75970437D01*
X157318557Y-75964773D01*
X157296613Y-75956921D01*
X157275543Y-75946956D01*
X157255552Y-75934974D01*
X157236832Y-75921090D01*
X157219562Y-75905438D01*
X157203910Y-75888168D01*
X157190026Y-75869448D01*
X157178044Y-75849457D01*
X157168079Y-75828387D01*
X157160227Y-75806443D01*
X157154563Y-75783834D01*
X157151144Y-75760779D01*
X157150000Y-75737500D01*
X157150000Y-75262500D01*
X157151144Y-75239221D01*
X157154563Y-75216166D01*
X157160227Y-75193557D01*
X157168079Y-75171613D01*
X157178044Y-75150543D01*
X157190026Y-75130552D01*
X157203910Y-75111832D01*
X157219562Y-75094562D01*
X157236832Y-75078910D01*
X157255552Y-75065026D01*
X157275543Y-75053044D01*
X157296613Y-75043079D01*
X157318557Y-75035227D01*
X157341166Y-75029563D01*
X157364221Y-75026144D01*
X157387500Y-75025000D01*
X157962500Y-75025000D01*
X157985779Y-75026144D01*
G37*
G04 #@! TD.AperFunction*
G04 #@! TA.AperFunction,SMDPad,CuDef*
G36*
X156235779Y-75026144D02*
G01*
X156258834Y-75029563D01*
X156281443Y-75035227D01*
X156303387Y-75043079D01*
X156324457Y-75053044D01*
X156344448Y-75065026D01*
X156363168Y-75078910D01*
X156380438Y-75094562D01*
X156396090Y-75111832D01*
X156409974Y-75130552D01*
X156421956Y-75150543D01*
X156431921Y-75171613D01*
X156439773Y-75193557D01*
X156445437Y-75216166D01*
X156448856Y-75239221D01*
X156450000Y-75262500D01*
X156450000Y-75737500D01*
X156448856Y-75760779D01*
X156445437Y-75783834D01*
X156439773Y-75806443D01*
X156431921Y-75828387D01*
X156421956Y-75849457D01*
X156409974Y-75869448D01*
X156396090Y-75888168D01*
X156380438Y-75905438D01*
X156363168Y-75921090D01*
X156344448Y-75934974D01*
X156324457Y-75946956D01*
X156303387Y-75956921D01*
X156281443Y-75964773D01*
X156258834Y-75970437D01*
X156235779Y-75973856D01*
X156212500Y-75975000D01*
X155637500Y-75975000D01*
X155614221Y-75973856D01*
X155591166Y-75970437D01*
X155568557Y-75964773D01*
X155546613Y-75956921D01*
X155525543Y-75946956D01*
X155505552Y-75934974D01*
X155486832Y-75921090D01*
X155469562Y-75905438D01*
X155453910Y-75888168D01*
X155440026Y-75869448D01*
X155428044Y-75849457D01*
X155418079Y-75828387D01*
X155410227Y-75806443D01*
X155404563Y-75783834D01*
X155401144Y-75760779D01*
X155400000Y-75737500D01*
X155400000Y-75262500D01*
X155401144Y-75239221D01*
X155404563Y-75216166D01*
X155410227Y-75193557D01*
X155418079Y-75171613D01*
X155428044Y-75150543D01*
X155440026Y-75130552D01*
X155453910Y-75111832D01*
X155469562Y-75094562D01*
X155486832Y-75078910D01*
X155505552Y-75065026D01*
X155525543Y-75053044D01*
X155546613Y-75043079D01*
X155568557Y-75035227D01*
X155591166Y-75029563D01*
X155614221Y-75026144D01*
X155637500Y-75025000D01*
X156212500Y-75025000D01*
X156235779Y-75026144D01*
G37*
G04 #@! TD.AperFunction*
D21*
X162000000Y-75700000D03*
G04 #@! TA.AperFunction,SMDPad,CuDef*
D11*
G36*
X133395379Y-94445944D02*
G01*
X133418434Y-94449363D01*
X133441043Y-94455027D01*
X133462987Y-94462879D01*
X133484057Y-94472844D01*
X133504048Y-94484826D01*
X133522768Y-94498710D01*
X133540038Y-94514362D01*
X133555690Y-94531632D01*
X133569574Y-94550352D01*
X133581556Y-94570343D01*
X133591521Y-94591413D01*
X133599373Y-94613357D01*
X133605037Y-94635966D01*
X133608456Y-94659021D01*
X133609600Y-94682300D01*
X133609600Y-95157300D01*
X133608456Y-95180579D01*
X133605037Y-95203634D01*
X133599373Y-95226243D01*
X133591521Y-95248187D01*
X133581556Y-95269257D01*
X133569574Y-95289248D01*
X133555690Y-95307968D01*
X133540038Y-95325238D01*
X133522768Y-95340890D01*
X133504048Y-95354774D01*
X133484057Y-95366756D01*
X133462987Y-95376721D01*
X133441043Y-95384573D01*
X133418434Y-95390237D01*
X133395379Y-95393656D01*
X133372100Y-95394800D01*
X132797100Y-95394800D01*
X132773821Y-95393656D01*
X132750766Y-95390237D01*
X132728157Y-95384573D01*
X132706213Y-95376721D01*
X132685143Y-95366756D01*
X132665152Y-95354774D01*
X132646432Y-95340890D01*
X132629162Y-95325238D01*
X132613510Y-95307968D01*
X132599626Y-95289248D01*
X132587644Y-95269257D01*
X132577679Y-95248187D01*
X132569827Y-95226243D01*
X132564163Y-95203634D01*
X132560744Y-95180579D01*
X132559600Y-95157300D01*
X132559600Y-94682300D01*
X132560744Y-94659021D01*
X132564163Y-94635966D01*
X132569827Y-94613357D01*
X132577679Y-94591413D01*
X132587644Y-94570343D01*
X132599626Y-94550352D01*
X132613510Y-94531632D01*
X132629162Y-94514362D01*
X132646432Y-94498710D01*
X132665152Y-94484826D01*
X132685143Y-94472844D01*
X132706213Y-94462879D01*
X132728157Y-94455027D01*
X132750766Y-94449363D01*
X132773821Y-94445944D01*
X132797100Y-94444800D01*
X133372100Y-94444800D01*
X133395379Y-94445944D01*
G37*
G04 #@! TD.AperFunction*
G04 #@! TA.AperFunction,SMDPad,CuDef*
G36*
X135145379Y-94445944D02*
G01*
X135168434Y-94449363D01*
X135191043Y-94455027D01*
X135212987Y-94462879D01*
X135234057Y-94472844D01*
X135254048Y-94484826D01*
X135272768Y-94498710D01*
X135290038Y-94514362D01*
X135305690Y-94531632D01*
X135319574Y-94550352D01*
X135331556Y-94570343D01*
X135341521Y-94591413D01*
X135349373Y-94613357D01*
X135355037Y-94635966D01*
X135358456Y-94659021D01*
X135359600Y-94682300D01*
X135359600Y-95157300D01*
X135358456Y-95180579D01*
X135355037Y-95203634D01*
X135349373Y-95226243D01*
X135341521Y-95248187D01*
X135331556Y-95269257D01*
X135319574Y-95289248D01*
X135305690Y-95307968D01*
X135290038Y-95325238D01*
X135272768Y-95340890D01*
X135254048Y-95354774D01*
X135234057Y-95366756D01*
X135212987Y-95376721D01*
X135191043Y-95384573D01*
X135168434Y-95390237D01*
X135145379Y-95393656D01*
X135122100Y-95394800D01*
X134547100Y-95394800D01*
X134523821Y-95393656D01*
X134500766Y-95390237D01*
X134478157Y-95384573D01*
X134456213Y-95376721D01*
X134435143Y-95366756D01*
X134415152Y-95354774D01*
X134396432Y-95340890D01*
X134379162Y-95325238D01*
X134363510Y-95307968D01*
X134349626Y-95289248D01*
X134337644Y-95269257D01*
X134327679Y-95248187D01*
X134319827Y-95226243D01*
X134314163Y-95203634D01*
X134310744Y-95180579D01*
X134309600Y-95157300D01*
X134309600Y-94682300D01*
X134310744Y-94659021D01*
X134314163Y-94635966D01*
X134319827Y-94613357D01*
X134327679Y-94591413D01*
X134337644Y-94570343D01*
X134349626Y-94550352D01*
X134363510Y-94531632D01*
X134379162Y-94514362D01*
X134396432Y-94498710D01*
X134415152Y-94484826D01*
X134435143Y-94472844D01*
X134456213Y-94462879D01*
X134478157Y-94455027D01*
X134500766Y-94449363D01*
X134523821Y-94445944D01*
X134547100Y-94444800D01*
X135122100Y-94444800D01*
X135145379Y-94445944D01*
G37*
G04 #@! TD.AperFunction*
G04 #@! TA.AperFunction,SMDPad,CuDef*
G36*
X134309779Y-92896544D02*
G01*
X134332834Y-92899963D01*
X134355443Y-92905627D01*
X134377387Y-92913479D01*
X134398457Y-92923444D01*
X134418448Y-92935426D01*
X134437168Y-92949310D01*
X134454438Y-92964962D01*
X134470090Y-92982232D01*
X134483974Y-93000952D01*
X134495956Y-93020943D01*
X134505921Y-93042013D01*
X134513773Y-93063957D01*
X134519437Y-93086566D01*
X134522856Y-93109621D01*
X134524000Y-93132900D01*
X134524000Y-93607900D01*
X134522856Y-93631179D01*
X134519437Y-93654234D01*
X134513773Y-93676843D01*
X134505921Y-93698787D01*
X134495956Y-93719857D01*
X134483974Y-93739848D01*
X134470090Y-93758568D01*
X134454438Y-93775838D01*
X134437168Y-93791490D01*
X134418448Y-93805374D01*
X134398457Y-93817356D01*
X134377387Y-93827321D01*
X134355443Y-93835173D01*
X134332834Y-93840837D01*
X134309779Y-93844256D01*
X134286500Y-93845400D01*
X133711500Y-93845400D01*
X133688221Y-93844256D01*
X133665166Y-93840837D01*
X133642557Y-93835173D01*
X133620613Y-93827321D01*
X133599543Y-93817356D01*
X133579552Y-93805374D01*
X133560832Y-93791490D01*
X133543562Y-93775838D01*
X133527910Y-93758568D01*
X133514026Y-93739848D01*
X133502044Y-93719857D01*
X133492079Y-93698787D01*
X133484227Y-93676843D01*
X133478563Y-93654234D01*
X133475144Y-93631179D01*
X133474000Y-93607900D01*
X133474000Y-93132900D01*
X133475144Y-93109621D01*
X133478563Y-93086566D01*
X133484227Y-93063957D01*
X133492079Y-93042013D01*
X133502044Y-93020943D01*
X133514026Y-93000952D01*
X133527910Y-92982232D01*
X133543562Y-92964962D01*
X133560832Y-92949310D01*
X133579552Y-92935426D01*
X133599543Y-92923444D01*
X133620613Y-92913479D01*
X133642557Y-92905627D01*
X133665166Y-92899963D01*
X133688221Y-92896544D01*
X133711500Y-92895400D01*
X134286500Y-92895400D01*
X134309779Y-92896544D01*
G37*
G04 #@! TD.AperFunction*
G04 #@! TA.AperFunction,SMDPad,CuDef*
G36*
X136059779Y-92896544D02*
G01*
X136082834Y-92899963D01*
X136105443Y-92905627D01*
X136127387Y-92913479D01*
X136148457Y-92923444D01*
X136168448Y-92935426D01*
X136187168Y-92949310D01*
X136204438Y-92964962D01*
X136220090Y-92982232D01*
X136233974Y-93000952D01*
X136245956Y-93020943D01*
X136255921Y-93042013D01*
X136263773Y-93063957D01*
X136269437Y-93086566D01*
X136272856Y-93109621D01*
X136274000Y-93132900D01*
X136274000Y-93607900D01*
X136272856Y-93631179D01*
X136269437Y-93654234D01*
X136263773Y-93676843D01*
X136255921Y-93698787D01*
X136245956Y-93719857D01*
X136233974Y-93739848D01*
X136220090Y-93758568D01*
X136204438Y-93775838D01*
X136187168Y-93791490D01*
X136168448Y-93805374D01*
X136148457Y-93817356D01*
X136127387Y-93827321D01*
X136105443Y-93835173D01*
X136082834Y-93840837D01*
X136059779Y-93844256D01*
X136036500Y-93845400D01*
X135461500Y-93845400D01*
X135438221Y-93844256D01*
X135415166Y-93840837D01*
X135392557Y-93835173D01*
X135370613Y-93827321D01*
X135349543Y-93817356D01*
X135329552Y-93805374D01*
X135310832Y-93791490D01*
X135293562Y-93775838D01*
X135277910Y-93758568D01*
X135264026Y-93739848D01*
X135252044Y-93719857D01*
X135242079Y-93698787D01*
X135234227Y-93676843D01*
X135228563Y-93654234D01*
X135225144Y-93631179D01*
X135224000Y-93607900D01*
X135224000Y-93132900D01*
X135225144Y-93109621D01*
X135228563Y-93086566D01*
X135234227Y-93063957D01*
X135242079Y-93042013D01*
X135252044Y-93020943D01*
X135264026Y-93000952D01*
X135277910Y-92982232D01*
X135293562Y-92964962D01*
X135310832Y-92949310D01*
X135329552Y-92935426D01*
X135349543Y-92923444D01*
X135370613Y-92913479D01*
X135392557Y-92905627D01*
X135415166Y-92899963D01*
X135438221Y-92896544D01*
X135461500Y-92895400D01*
X136036500Y-92895400D01*
X136059779Y-92896544D01*
G37*
G04 #@! TD.AperFunction*
G04 #@! TA.AperFunction,SMDPad,CuDef*
G36*
X130059703Y-96350722D02*
G01*
X130074264Y-96352882D01*
X130088543Y-96356459D01*
X130102403Y-96361418D01*
X130115710Y-96367712D01*
X130128336Y-96375280D01*
X130140159Y-96384048D01*
X130151066Y-96393934D01*
X130160952Y-96404841D01*
X130169720Y-96416664D01*
X130177288Y-96429290D01*
X130183582Y-96442597D01*
X130188541Y-96456457D01*
X130192118Y-96470736D01*
X130194278Y-96485297D01*
X130195000Y-96500000D01*
X130195000Y-98150000D01*
X130194278Y-98164703D01*
X130192118Y-98179264D01*
X130188541Y-98193543D01*
X130183582Y-98207403D01*
X130177288Y-98220710D01*
X130169720Y-98233336D01*
X130160952Y-98245159D01*
X130151066Y-98256066D01*
X130140159Y-98265952D01*
X130128336Y-98274720D01*
X130115710Y-98282288D01*
X130102403Y-98288582D01*
X130088543Y-98293541D01*
X130074264Y-98297118D01*
X130059703Y-98299278D01*
X130045000Y-98300000D01*
X129745000Y-98300000D01*
X129730297Y-98299278D01*
X129715736Y-98297118D01*
X129701457Y-98293541D01*
X129687597Y-98288582D01*
X129674290Y-98282288D01*
X129661664Y-98274720D01*
X129649841Y-98265952D01*
X129638934Y-98256066D01*
X129629048Y-98245159D01*
X129620280Y-98233336D01*
X129612712Y-98220710D01*
X129606418Y-98207403D01*
X129601459Y-98193543D01*
X129597882Y-98179264D01*
X129595722Y-98164703D01*
X129595000Y-98150000D01*
X129595000Y-96500000D01*
X129595722Y-96485297D01*
X129597882Y-96470736D01*
X129601459Y-96456457D01*
X129606418Y-96442597D01*
X129612712Y-96429290D01*
X129620280Y-96416664D01*
X129629048Y-96404841D01*
X129638934Y-96393934D01*
X129649841Y-96384048D01*
X129661664Y-96375280D01*
X129674290Y-96367712D01*
X129687597Y-96361418D01*
X129701457Y-96356459D01*
X129715736Y-96352882D01*
X129730297Y-96350722D01*
X129745000Y-96350000D01*
X130045000Y-96350000D01*
X130059703Y-96350722D01*
G37*
G04 #@! TD.AperFunction*
G04 #@! TA.AperFunction,SMDPad,CuDef*
G36*
X131329703Y-96350722D02*
G01*
X131344264Y-96352882D01*
X131358543Y-96356459D01*
X131372403Y-96361418D01*
X131385710Y-96367712D01*
X131398336Y-96375280D01*
X131410159Y-96384048D01*
X131421066Y-96393934D01*
X131430952Y-96404841D01*
X131439720Y-96416664D01*
X131447288Y-96429290D01*
X131453582Y-96442597D01*
X131458541Y-96456457D01*
X131462118Y-96470736D01*
X131464278Y-96485297D01*
X131465000Y-96500000D01*
X131465000Y-98150000D01*
X131464278Y-98164703D01*
X131462118Y-98179264D01*
X131458541Y-98193543D01*
X131453582Y-98207403D01*
X131447288Y-98220710D01*
X131439720Y-98233336D01*
X131430952Y-98245159D01*
X131421066Y-98256066D01*
X131410159Y-98265952D01*
X131398336Y-98274720D01*
X131385710Y-98282288D01*
X131372403Y-98288582D01*
X131358543Y-98293541D01*
X131344264Y-98297118D01*
X131329703Y-98299278D01*
X131315000Y-98300000D01*
X131015000Y-98300000D01*
X131000297Y-98299278D01*
X130985736Y-98297118D01*
X130971457Y-98293541D01*
X130957597Y-98288582D01*
X130944290Y-98282288D01*
X130931664Y-98274720D01*
X130919841Y-98265952D01*
X130908934Y-98256066D01*
X130899048Y-98245159D01*
X130890280Y-98233336D01*
X130882712Y-98220710D01*
X130876418Y-98207403D01*
X130871459Y-98193543D01*
X130867882Y-98179264D01*
X130865722Y-98164703D01*
X130865000Y-98150000D01*
X130865000Y-96500000D01*
X130865722Y-96485297D01*
X130867882Y-96470736D01*
X130871459Y-96456457D01*
X130876418Y-96442597D01*
X130882712Y-96429290D01*
X130890280Y-96416664D01*
X130899048Y-96404841D01*
X130908934Y-96393934D01*
X130919841Y-96384048D01*
X130931664Y-96375280D01*
X130944290Y-96367712D01*
X130957597Y-96361418D01*
X130971457Y-96356459D01*
X130985736Y-96352882D01*
X131000297Y-96350722D01*
X131015000Y-96350000D01*
X131315000Y-96350000D01*
X131329703Y-96350722D01*
G37*
G04 #@! TD.AperFunction*
G04 #@! TA.AperFunction,SMDPad,CuDef*
G36*
X132599703Y-96350722D02*
G01*
X132614264Y-96352882D01*
X132628543Y-96356459D01*
X132642403Y-96361418D01*
X132655710Y-96367712D01*
X132668336Y-96375280D01*
X132680159Y-96384048D01*
X132691066Y-96393934D01*
X132700952Y-96404841D01*
X132709720Y-96416664D01*
X132717288Y-96429290D01*
X132723582Y-96442597D01*
X132728541Y-96456457D01*
X132732118Y-96470736D01*
X132734278Y-96485297D01*
X132735000Y-96500000D01*
X132735000Y-98150000D01*
X132734278Y-98164703D01*
X132732118Y-98179264D01*
X132728541Y-98193543D01*
X132723582Y-98207403D01*
X132717288Y-98220710D01*
X132709720Y-98233336D01*
X132700952Y-98245159D01*
X132691066Y-98256066D01*
X132680159Y-98265952D01*
X132668336Y-98274720D01*
X132655710Y-98282288D01*
X132642403Y-98288582D01*
X132628543Y-98293541D01*
X132614264Y-98297118D01*
X132599703Y-98299278D01*
X132585000Y-98300000D01*
X132285000Y-98300000D01*
X132270297Y-98299278D01*
X132255736Y-98297118D01*
X132241457Y-98293541D01*
X132227597Y-98288582D01*
X132214290Y-98282288D01*
X132201664Y-98274720D01*
X132189841Y-98265952D01*
X132178934Y-98256066D01*
X132169048Y-98245159D01*
X132160280Y-98233336D01*
X132152712Y-98220710D01*
X132146418Y-98207403D01*
X132141459Y-98193543D01*
X132137882Y-98179264D01*
X132135722Y-98164703D01*
X132135000Y-98150000D01*
X132135000Y-96500000D01*
X132135722Y-96485297D01*
X132137882Y-96470736D01*
X132141459Y-96456457D01*
X132146418Y-96442597D01*
X132152712Y-96429290D01*
X132160280Y-96416664D01*
X132169048Y-96404841D01*
X132178934Y-96393934D01*
X132189841Y-96384048D01*
X132201664Y-96375280D01*
X132214290Y-96367712D01*
X132227597Y-96361418D01*
X132241457Y-96356459D01*
X132255736Y-96352882D01*
X132270297Y-96350722D01*
X132285000Y-96350000D01*
X132585000Y-96350000D01*
X132599703Y-96350722D01*
G37*
G04 #@! TD.AperFunction*
G04 #@! TA.AperFunction,SMDPad,CuDef*
G36*
X133869703Y-96350722D02*
G01*
X133884264Y-96352882D01*
X133898543Y-96356459D01*
X133912403Y-96361418D01*
X133925710Y-96367712D01*
X133938336Y-96375280D01*
X133950159Y-96384048D01*
X133961066Y-96393934D01*
X133970952Y-96404841D01*
X133979720Y-96416664D01*
X133987288Y-96429290D01*
X133993582Y-96442597D01*
X133998541Y-96456457D01*
X134002118Y-96470736D01*
X134004278Y-96485297D01*
X134005000Y-96500000D01*
X134005000Y-98150000D01*
X134004278Y-98164703D01*
X134002118Y-98179264D01*
X133998541Y-98193543D01*
X133993582Y-98207403D01*
X133987288Y-98220710D01*
X133979720Y-98233336D01*
X133970952Y-98245159D01*
X133961066Y-98256066D01*
X133950159Y-98265952D01*
X133938336Y-98274720D01*
X133925710Y-98282288D01*
X133912403Y-98288582D01*
X133898543Y-98293541D01*
X133884264Y-98297118D01*
X133869703Y-98299278D01*
X133855000Y-98300000D01*
X133555000Y-98300000D01*
X133540297Y-98299278D01*
X133525736Y-98297118D01*
X133511457Y-98293541D01*
X133497597Y-98288582D01*
X133484290Y-98282288D01*
X133471664Y-98274720D01*
X133459841Y-98265952D01*
X133448934Y-98256066D01*
X133439048Y-98245159D01*
X133430280Y-98233336D01*
X133422712Y-98220710D01*
X133416418Y-98207403D01*
X133411459Y-98193543D01*
X133407882Y-98179264D01*
X133405722Y-98164703D01*
X133405000Y-98150000D01*
X133405000Y-96500000D01*
X133405722Y-96485297D01*
X133407882Y-96470736D01*
X133411459Y-96456457D01*
X133416418Y-96442597D01*
X133422712Y-96429290D01*
X133430280Y-96416664D01*
X133439048Y-96404841D01*
X133448934Y-96393934D01*
X133459841Y-96384048D01*
X133471664Y-96375280D01*
X133484290Y-96367712D01*
X133497597Y-96361418D01*
X133511457Y-96356459D01*
X133525736Y-96352882D01*
X133540297Y-96350722D01*
X133555000Y-96350000D01*
X133855000Y-96350000D01*
X133869703Y-96350722D01*
G37*
G04 #@! TD.AperFunction*
G04 #@! TA.AperFunction,SMDPad,CuDef*
G36*
X133869703Y-101300722D02*
G01*
X133884264Y-101302882D01*
X133898543Y-101306459D01*
X133912403Y-101311418D01*
X133925710Y-101317712D01*
X133938336Y-101325280D01*
X133950159Y-101334048D01*
X133961066Y-101343934D01*
X133970952Y-101354841D01*
X133979720Y-101366664D01*
X133987288Y-101379290D01*
X133993582Y-101392597D01*
X133998541Y-101406457D01*
X134002118Y-101420736D01*
X134004278Y-101435297D01*
X134005000Y-101450000D01*
X134005000Y-103100000D01*
X134004278Y-103114703D01*
X134002118Y-103129264D01*
X133998541Y-103143543D01*
X133993582Y-103157403D01*
X133987288Y-103170710D01*
X133979720Y-103183336D01*
X133970952Y-103195159D01*
X133961066Y-103206066D01*
X133950159Y-103215952D01*
X133938336Y-103224720D01*
X133925710Y-103232288D01*
X133912403Y-103238582D01*
X133898543Y-103243541D01*
X133884264Y-103247118D01*
X133869703Y-103249278D01*
X133855000Y-103250000D01*
X133555000Y-103250000D01*
X133540297Y-103249278D01*
X133525736Y-103247118D01*
X133511457Y-103243541D01*
X133497597Y-103238582D01*
X133484290Y-103232288D01*
X133471664Y-103224720D01*
X133459841Y-103215952D01*
X133448934Y-103206066D01*
X133439048Y-103195159D01*
X133430280Y-103183336D01*
X133422712Y-103170710D01*
X133416418Y-103157403D01*
X133411459Y-103143543D01*
X133407882Y-103129264D01*
X133405722Y-103114703D01*
X133405000Y-103100000D01*
X133405000Y-101450000D01*
X133405722Y-101435297D01*
X133407882Y-101420736D01*
X133411459Y-101406457D01*
X133416418Y-101392597D01*
X133422712Y-101379290D01*
X133430280Y-101366664D01*
X133439048Y-101354841D01*
X133448934Y-101343934D01*
X133459841Y-101334048D01*
X133471664Y-101325280D01*
X133484290Y-101317712D01*
X133497597Y-101311418D01*
X133511457Y-101306459D01*
X133525736Y-101302882D01*
X133540297Y-101300722D01*
X133555000Y-101300000D01*
X133855000Y-101300000D01*
X133869703Y-101300722D01*
G37*
G04 #@! TD.AperFunction*
G04 #@! TA.AperFunction,SMDPad,CuDef*
G36*
X132599703Y-101300722D02*
G01*
X132614264Y-101302882D01*
X132628543Y-101306459D01*
X132642403Y-101311418D01*
X132655710Y-101317712D01*
X132668336Y-101325280D01*
X132680159Y-101334048D01*
X132691066Y-101343934D01*
X132700952Y-101354841D01*
X132709720Y-101366664D01*
X132717288Y-101379290D01*
X132723582Y-101392597D01*
X132728541Y-101406457D01*
X132732118Y-101420736D01*
X132734278Y-101435297D01*
X132735000Y-101450000D01*
X132735000Y-103100000D01*
X132734278Y-103114703D01*
X132732118Y-103129264D01*
X132728541Y-103143543D01*
X132723582Y-103157403D01*
X132717288Y-103170710D01*
X132709720Y-103183336D01*
X132700952Y-103195159D01*
X132691066Y-103206066D01*
X132680159Y-103215952D01*
X132668336Y-103224720D01*
X132655710Y-103232288D01*
X132642403Y-103238582D01*
X132628543Y-103243541D01*
X132614264Y-103247118D01*
X132599703Y-103249278D01*
X132585000Y-103250000D01*
X132285000Y-103250000D01*
X132270297Y-103249278D01*
X132255736Y-103247118D01*
X132241457Y-103243541D01*
X132227597Y-103238582D01*
X132214290Y-103232288D01*
X132201664Y-103224720D01*
X132189841Y-103215952D01*
X132178934Y-103206066D01*
X132169048Y-103195159D01*
X132160280Y-103183336D01*
X132152712Y-103170710D01*
X132146418Y-103157403D01*
X132141459Y-103143543D01*
X132137882Y-103129264D01*
X132135722Y-103114703D01*
X132135000Y-103100000D01*
X132135000Y-101450000D01*
X132135722Y-101435297D01*
X132137882Y-101420736D01*
X132141459Y-101406457D01*
X132146418Y-101392597D01*
X132152712Y-101379290D01*
X132160280Y-101366664D01*
X132169048Y-101354841D01*
X132178934Y-101343934D01*
X132189841Y-101334048D01*
X132201664Y-101325280D01*
X132214290Y-101317712D01*
X132227597Y-101311418D01*
X132241457Y-101306459D01*
X132255736Y-101302882D01*
X132270297Y-101300722D01*
X132285000Y-101300000D01*
X132585000Y-101300000D01*
X132599703Y-101300722D01*
G37*
G04 #@! TD.AperFunction*
G04 #@! TA.AperFunction,SMDPad,CuDef*
G36*
X131329703Y-101300722D02*
G01*
X131344264Y-101302882D01*
X131358543Y-101306459D01*
X131372403Y-101311418D01*
X131385710Y-101317712D01*
X131398336Y-101325280D01*
X131410159Y-101334048D01*
X131421066Y-101343934D01*
X131430952Y-101354841D01*
X131439720Y-101366664D01*
X131447288Y-101379290D01*
X131453582Y-101392597D01*
X131458541Y-101406457D01*
X131462118Y-101420736D01*
X131464278Y-101435297D01*
X131465000Y-101450000D01*
X131465000Y-103100000D01*
X131464278Y-103114703D01*
X131462118Y-103129264D01*
X131458541Y-103143543D01*
X131453582Y-103157403D01*
X131447288Y-103170710D01*
X131439720Y-103183336D01*
X131430952Y-103195159D01*
X131421066Y-103206066D01*
X131410159Y-103215952D01*
X131398336Y-103224720D01*
X131385710Y-103232288D01*
X131372403Y-103238582D01*
X131358543Y-103243541D01*
X131344264Y-103247118D01*
X131329703Y-103249278D01*
X131315000Y-103250000D01*
X131015000Y-103250000D01*
X131000297Y-103249278D01*
X130985736Y-103247118D01*
X130971457Y-103243541D01*
X130957597Y-103238582D01*
X130944290Y-103232288D01*
X130931664Y-103224720D01*
X130919841Y-103215952D01*
X130908934Y-103206066D01*
X130899048Y-103195159D01*
X130890280Y-103183336D01*
X130882712Y-103170710D01*
X130876418Y-103157403D01*
X130871459Y-103143543D01*
X130867882Y-103129264D01*
X130865722Y-103114703D01*
X130865000Y-103100000D01*
X130865000Y-101450000D01*
X130865722Y-101435297D01*
X130867882Y-101420736D01*
X130871459Y-101406457D01*
X130876418Y-101392597D01*
X130882712Y-101379290D01*
X130890280Y-101366664D01*
X130899048Y-101354841D01*
X130908934Y-101343934D01*
X130919841Y-101334048D01*
X130931664Y-101325280D01*
X130944290Y-101317712D01*
X130957597Y-101311418D01*
X130971457Y-101306459D01*
X130985736Y-101302882D01*
X131000297Y-101300722D01*
X131015000Y-101300000D01*
X131315000Y-101300000D01*
X131329703Y-101300722D01*
G37*
G04 #@! TD.AperFunction*
G04 #@! TA.AperFunction,SMDPad,CuDef*
G36*
X130059703Y-101300722D02*
G01*
X130074264Y-101302882D01*
X130088543Y-101306459D01*
X130102403Y-101311418D01*
X130115710Y-101317712D01*
X130128336Y-101325280D01*
X130140159Y-101334048D01*
X130151066Y-101343934D01*
X130160952Y-101354841D01*
X130169720Y-101366664D01*
X130177288Y-101379290D01*
X130183582Y-101392597D01*
X130188541Y-101406457D01*
X130192118Y-101420736D01*
X130194278Y-101435297D01*
X130195000Y-101450000D01*
X130195000Y-103100000D01*
X130194278Y-103114703D01*
X130192118Y-103129264D01*
X130188541Y-103143543D01*
X130183582Y-103157403D01*
X130177288Y-103170710D01*
X130169720Y-103183336D01*
X130160952Y-103195159D01*
X130151066Y-103206066D01*
X130140159Y-103215952D01*
X130128336Y-103224720D01*
X130115710Y-103232288D01*
X130102403Y-103238582D01*
X130088543Y-103243541D01*
X130074264Y-103247118D01*
X130059703Y-103249278D01*
X130045000Y-103250000D01*
X129745000Y-103250000D01*
X129730297Y-103249278D01*
X129715736Y-103247118D01*
X129701457Y-103243541D01*
X129687597Y-103238582D01*
X129674290Y-103232288D01*
X129661664Y-103224720D01*
X129649841Y-103215952D01*
X129638934Y-103206066D01*
X129629048Y-103195159D01*
X129620280Y-103183336D01*
X129612712Y-103170710D01*
X129606418Y-103157403D01*
X129601459Y-103143543D01*
X129597882Y-103129264D01*
X129595722Y-103114703D01*
X129595000Y-103100000D01*
X129595000Y-101450000D01*
X129595722Y-101435297D01*
X129597882Y-101420736D01*
X129601459Y-101406457D01*
X129606418Y-101392597D01*
X129612712Y-101379290D01*
X129620280Y-101366664D01*
X129629048Y-101354841D01*
X129638934Y-101343934D01*
X129649841Y-101334048D01*
X129661664Y-101325280D01*
X129674290Y-101317712D01*
X129687597Y-101311418D01*
X129701457Y-101306459D01*
X129715736Y-101302882D01*
X129730297Y-101300722D01*
X129745000Y-101300000D01*
X130045000Y-101300000D01*
X130059703Y-101300722D01*
G37*
G04 #@! TD.AperFunction*
D22*
X138550000Y-76700000D03*
X137600000Y-76700000D03*
X136650000Y-76700000D03*
X136650000Y-78900000D03*
X138550000Y-78900000D03*
G04 #@! TA.AperFunction,SMDPad,CuDef*
D11*
G36*
X135460779Y-80101144D02*
G01*
X135483834Y-80104563D01*
X135506443Y-80110227D01*
X135528387Y-80118079D01*
X135549457Y-80128044D01*
X135569448Y-80140026D01*
X135588168Y-80153910D01*
X135605438Y-80169562D01*
X135621090Y-80186832D01*
X135634974Y-80205552D01*
X135646956Y-80225543D01*
X135656921Y-80246613D01*
X135664773Y-80268557D01*
X135670437Y-80291166D01*
X135673856Y-80314221D01*
X135675000Y-80337500D01*
X135675000Y-80912500D01*
X135673856Y-80935779D01*
X135670437Y-80958834D01*
X135664773Y-80981443D01*
X135656921Y-81003387D01*
X135646956Y-81024457D01*
X135634974Y-81044448D01*
X135621090Y-81063168D01*
X135605438Y-81080438D01*
X135588168Y-81096090D01*
X135569448Y-81109974D01*
X135549457Y-81121956D01*
X135528387Y-81131921D01*
X135506443Y-81139773D01*
X135483834Y-81145437D01*
X135460779Y-81148856D01*
X135437500Y-81150000D01*
X134962500Y-81150000D01*
X134939221Y-81148856D01*
X134916166Y-81145437D01*
X134893557Y-81139773D01*
X134871613Y-81131921D01*
X134850543Y-81121956D01*
X134830552Y-81109974D01*
X134811832Y-81096090D01*
X134794562Y-81080438D01*
X134778910Y-81063168D01*
X134765026Y-81044448D01*
X134753044Y-81024457D01*
X134743079Y-81003387D01*
X134735227Y-80981443D01*
X134729563Y-80958834D01*
X134726144Y-80935779D01*
X134725000Y-80912500D01*
X134725000Y-80337500D01*
X134726144Y-80314221D01*
X134729563Y-80291166D01*
X134735227Y-80268557D01*
X134743079Y-80246613D01*
X134753044Y-80225543D01*
X134765026Y-80205552D01*
X134778910Y-80186832D01*
X134794562Y-80169562D01*
X134811832Y-80153910D01*
X134830552Y-80140026D01*
X134850543Y-80128044D01*
X134871613Y-80118079D01*
X134893557Y-80110227D01*
X134916166Y-80104563D01*
X134939221Y-80101144D01*
X134962500Y-80100000D01*
X135437500Y-80100000D01*
X135460779Y-80101144D01*
G37*
G04 #@! TD.AperFunction*
G04 #@! TA.AperFunction,SMDPad,CuDef*
G36*
X135460779Y-81851144D02*
G01*
X135483834Y-81854563D01*
X135506443Y-81860227D01*
X135528387Y-81868079D01*
X135549457Y-81878044D01*
X135569448Y-81890026D01*
X135588168Y-81903910D01*
X135605438Y-81919562D01*
X135621090Y-81936832D01*
X135634974Y-81955552D01*
X135646956Y-81975543D01*
X135656921Y-81996613D01*
X135664773Y-82018557D01*
X135670437Y-82041166D01*
X135673856Y-82064221D01*
X135675000Y-82087500D01*
X135675000Y-82662500D01*
X135673856Y-82685779D01*
X135670437Y-82708834D01*
X135664773Y-82731443D01*
X135656921Y-82753387D01*
X135646956Y-82774457D01*
X135634974Y-82794448D01*
X135621090Y-82813168D01*
X135605438Y-82830438D01*
X135588168Y-82846090D01*
X135569448Y-82859974D01*
X135549457Y-82871956D01*
X135528387Y-82881921D01*
X135506443Y-82889773D01*
X135483834Y-82895437D01*
X135460779Y-82898856D01*
X135437500Y-82900000D01*
X134962500Y-82900000D01*
X134939221Y-82898856D01*
X134916166Y-82895437D01*
X134893557Y-82889773D01*
X134871613Y-82881921D01*
X134850543Y-82871956D01*
X134830552Y-82859974D01*
X134811832Y-82846090D01*
X134794562Y-82830438D01*
X134778910Y-82813168D01*
X134765026Y-82794448D01*
X134753044Y-82774457D01*
X134743079Y-82753387D01*
X134735227Y-82731443D01*
X134729563Y-82708834D01*
X134726144Y-82685779D01*
X134725000Y-82662500D01*
X134725000Y-82087500D01*
X134726144Y-82064221D01*
X134729563Y-82041166D01*
X134735227Y-82018557D01*
X134743079Y-81996613D01*
X134753044Y-81975543D01*
X134765026Y-81955552D01*
X134778910Y-81936832D01*
X134794562Y-81919562D01*
X134811832Y-81903910D01*
X134830552Y-81890026D01*
X134850543Y-81878044D01*
X134871613Y-81868079D01*
X134893557Y-81860227D01*
X134916166Y-81854563D01*
X134939221Y-81851144D01*
X134962500Y-81850000D01*
X135437500Y-81850000D01*
X135460779Y-81851144D01*
G37*
G04 #@! TD.AperFunction*
G04 #@! TA.AperFunction,SMDPad,CuDef*
G36*
X138285779Y-74426144D02*
G01*
X138308834Y-74429563D01*
X138331443Y-74435227D01*
X138353387Y-74443079D01*
X138374457Y-74453044D01*
X138394448Y-74465026D01*
X138413168Y-74478910D01*
X138430438Y-74494562D01*
X138446090Y-74511832D01*
X138459974Y-74530552D01*
X138471956Y-74550543D01*
X138481921Y-74571613D01*
X138489773Y-74593557D01*
X138495437Y-74616166D01*
X138498856Y-74639221D01*
X138500000Y-74662500D01*
X138500000Y-75137500D01*
X138498856Y-75160779D01*
X138495437Y-75183834D01*
X138489773Y-75206443D01*
X138481921Y-75228387D01*
X138471956Y-75249457D01*
X138459974Y-75269448D01*
X138446090Y-75288168D01*
X138430438Y-75305438D01*
X138413168Y-75321090D01*
X138394448Y-75334974D01*
X138374457Y-75346956D01*
X138353387Y-75356921D01*
X138331443Y-75364773D01*
X138308834Y-75370437D01*
X138285779Y-75373856D01*
X138262500Y-75375000D01*
X137687500Y-75375000D01*
X137664221Y-75373856D01*
X137641166Y-75370437D01*
X137618557Y-75364773D01*
X137596613Y-75356921D01*
X137575543Y-75346956D01*
X137555552Y-75334974D01*
X137536832Y-75321090D01*
X137519562Y-75305438D01*
X137503910Y-75288168D01*
X137490026Y-75269448D01*
X137478044Y-75249457D01*
X137468079Y-75228387D01*
X137460227Y-75206443D01*
X137454563Y-75183834D01*
X137451144Y-75160779D01*
X137450000Y-75137500D01*
X137450000Y-74662500D01*
X137451144Y-74639221D01*
X137454563Y-74616166D01*
X137460227Y-74593557D01*
X137468079Y-74571613D01*
X137478044Y-74550543D01*
X137490026Y-74530552D01*
X137503910Y-74511832D01*
X137519562Y-74494562D01*
X137536832Y-74478910D01*
X137555552Y-74465026D01*
X137575543Y-74453044D01*
X137596613Y-74443079D01*
X137618557Y-74435227D01*
X137641166Y-74429563D01*
X137664221Y-74426144D01*
X137687500Y-74425000D01*
X138262500Y-74425000D01*
X138285779Y-74426144D01*
G37*
G04 #@! TD.AperFunction*
G04 #@! TA.AperFunction,SMDPad,CuDef*
G36*
X136535779Y-74426144D02*
G01*
X136558834Y-74429563D01*
X136581443Y-74435227D01*
X136603387Y-74443079D01*
X136624457Y-74453044D01*
X136644448Y-74465026D01*
X136663168Y-74478910D01*
X136680438Y-74494562D01*
X136696090Y-74511832D01*
X136709974Y-74530552D01*
X136721956Y-74550543D01*
X136731921Y-74571613D01*
X136739773Y-74593557D01*
X136745437Y-74616166D01*
X136748856Y-74639221D01*
X136750000Y-74662500D01*
X136750000Y-75137500D01*
X136748856Y-75160779D01*
X136745437Y-75183834D01*
X136739773Y-75206443D01*
X136731921Y-75228387D01*
X136721956Y-75249457D01*
X136709974Y-75269448D01*
X136696090Y-75288168D01*
X136680438Y-75305438D01*
X136663168Y-75321090D01*
X136644448Y-75334974D01*
X136624457Y-75346956D01*
X136603387Y-75356921D01*
X136581443Y-75364773D01*
X136558834Y-75370437D01*
X136535779Y-75373856D01*
X136512500Y-75375000D01*
X135937500Y-75375000D01*
X135914221Y-75373856D01*
X135891166Y-75370437D01*
X135868557Y-75364773D01*
X135846613Y-75356921D01*
X135825543Y-75346956D01*
X135805552Y-75334974D01*
X135786832Y-75321090D01*
X135769562Y-75305438D01*
X135753910Y-75288168D01*
X135740026Y-75269448D01*
X135728044Y-75249457D01*
X135718079Y-75228387D01*
X135710227Y-75206443D01*
X135704563Y-75183834D01*
X135701144Y-75160779D01*
X135700000Y-75137500D01*
X135700000Y-74662500D01*
X135701144Y-74639221D01*
X135704563Y-74616166D01*
X135710227Y-74593557D01*
X135718079Y-74571613D01*
X135728044Y-74550543D01*
X135740026Y-74530552D01*
X135753910Y-74511832D01*
X135769562Y-74494562D01*
X135786832Y-74478910D01*
X135805552Y-74465026D01*
X135825543Y-74453044D01*
X135846613Y-74443079D01*
X135868557Y-74435227D01*
X135891166Y-74429563D01*
X135914221Y-74426144D01*
X135937500Y-74425000D01*
X136512500Y-74425000D01*
X136535779Y-74426144D01*
G37*
G04 #@! TD.AperFunction*
D23*
X156050000Y-77515000D03*
X157950000Y-77515000D03*
X157950000Y-79885000D03*
X157000000Y-79885000D03*
X156050000Y-79885000D03*
D24*
X147390000Y-77350000D03*
X147390000Y-76400000D03*
X147390000Y-75450000D03*
X150010000Y-75450000D03*
X150010000Y-76400000D03*
X150010000Y-77350000D03*
G04 #@! TA.AperFunction,SMDPad,CuDef*
D11*
G36*
X154660779Y-79551144D02*
G01*
X154683834Y-79554563D01*
X154706443Y-79560227D01*
X154728387Y-79568079D01*
X154749457Y-79578044D01*
X154769448Y-79590026D01*
X154788168Y-79603910D01*
X154805438Y-79619562D01*
X154821090Y-79636832D01*
X154834974Y-79655552D01*
X154846956Y-79675543D01*
X154856921Y-79696613D01*
X154864773Y-79718557D01*
X154870437Y-79741166D01*
X154873856Y-79764221D01*
X154875000Y-79787500D01*
X154875000Y-80362500D01*
X154873856Y-80385779D01*
X154870437Y-80408834D01*
X154864773Y-80431443D01*
X154856921Y-80453387D01*
X154846956Y-80474457D01*
X154834974Y-80494448D01*
X154821090Y-80513168D01*
X154805438Y-80530438D01*
X154788168Y-80546090D01*
X154769448Y-80559974D01*
X154749457Y-80571956D01*
X154728387Y-80581921D01*
X154706443Y-80589773D01*
X154683834Y-80595437D01*
X154660779Y-80598856D01*
X154637500Y-80600000D01*
X154162500Y-80600000D01*
X154139221Y-80598856D01*
X154116166Y-80595437D01*
X154093557Y-80589773D01*
X154071613Y-80581921D01*
X154050543Y-80571956D01*
X154030552Y-80559974D01*
X154011832Y-80546090D01*
X153994562Y-80530438D01*
X153978910Y-80513168D01*
X153965026Y-80494448D01*
X153953044Y-80474457D01*
X153943079Y-80453387D01*
X153935227Y-80431443D01*
X153929563Y-80408834D01*
X153926144Y-80385779D01*
X153925000Y-80362500D01*
X153925000Y-79787500D01*
X153926144Y-79764221D01*
X153929563Y-79741166D01*
X153935227Y-79718557D01*
X153943079Y-79696613D01*
X153953044Y-79675543D01*
X153965026Y-79655552D01*
X153978910Y-79636832D01*
X153994562Y-79619562D01*
X154011832Y-79603910D01*
X154030552Y-79590026D01*
X154050543Y-79578044D01*
X154071613Y-79568079D01*
X154093557Y-79560227D01*
X154116166Y-79554563D01*
X154139221Y-79551144D01*
X154162500Y-79550000D01*
X154637500Y-79550000D01*
X154660779Y-79551144D01*
G37*
G04 #@! TD.AperFunction*
G04 #@! TA.AperFunction,SMDPad,CuDef*
G36*
X154660779Y-77801144D02*
G01*
X154683834Y-77804563D01*
X154706443Y-77810227D01*
X154728387Y-77818079D01*
X154749457Y-77828044D01*
X154769448Y-77840026D01*
X154788168Y-77853910D01*
X154805438Y-77869562D01*
X154821090Y-77886832D01*
X154834974Y-77905552D01*
X154846956Y-77925543D01*
X154856921Y-77946613D01*
X154864773Y-77968557D01*
X154870437Y-77991166D01*
X154873856Y-78014221D01*
X154875000Y-78037500D01*
X154875000Y-78612500D01*
X154873856Y-78635779D01*
X154870437Y-78658834D01*
X154864773Y-78681443D01*
X154856921Y-78703387D01*
X154846956Y-78724457D01*
X154834974Y-78744448D01*
X154821090Y-78763168D01*
X154805438Y-78780438D01*
X154788168Y-78796090D01*
X154769448Y-78809974D01*
X154749457Y-78821956D01*
X154728387Y-78831921D01*
X154706443Y-78839773D01*
X154683834Y-78845437D01*
X154660779Y-78848856D01*
X154637500Y-78850000D01*
X154162500Y-78850000D01*
X154139221Y-78848856D01*
X154116166Y-78845437D01*
X154093557Y-78839773D01*
X154071613Y-78831921D01*
X154050543Y-78821956D01*
X154030552Y-78809974D01*
X154011832Y-78796090D01*
X153994562Y-78780438D01*
X153978910Y-78763168D01*
X153965026Y-78744448D01*
X153953044Y-78724457D01*
X153943079Y-78703387D01*
X153935227Y-78681443D01*
X153929563Y-78658834D01*
X153926144Y-78635779D01*
X153925000Y-78612500D01*
X153925000Y-78037500D01*
X153926144Y-78014221D01*
X153929563Y-77991166D01*
X153935227Y-77968557D01*
X153943079Y-77946613D01*
X153953044Y-77925543D01*
X153965026Y-77905552D01*
X153978910Y-77886832D01*
X153994562Y-77869562D01*
X154011832Y-77853910D01*
X154030552Y-77840026D01*
X154050543Y-77828044D01*
X154071613Y-77818079D01*
X154093557Y-77810227D01*
X154116166Y-77804563D01*
X154139221Y-77801144D01*
X154162500Y-77800000D01*
X154637500Y-77800000D01*
X154660779Y-77801144D01*
G37*
G04 #@! TD.AperFunction*
G04 #@! TA.AperFunction,SMDPad,CuDef*
G36*
X144185779Y-74326144D02*
G01*
X144208834Y-74329563D01*
X144231443Y-74335227D01*
X144253387Y-74343079D01*
X144274457Y-74353044D01*
X144294448Y-74365026D01*
X144313168Y-74378910D01*
X144330438Y-74394562D01*
X144346090Y-74411832D01*
X144359974Y-74430552D01*
X144371956Y-74450543D01*
X144381921Y-74471613D01*
X144389773Y-74493557D01*
X144395437Y-74516166D01*
X144398856Y-74539221D01*
X144400000Y-74562500D01*
X144400000Y-75037500D01*
X144398856Y-75060779D01*
X144395437Y-75083834D01*
X144389773Y-75106443D01*
X144381921Y-75128387D01*
X144371956Y-75149457D01*
X144359974Y-75169448D01*
X144346090Y-75188168D01*
X144330438Y-75205438D01*
X144313168Y-75221090D01*
X144294448Y-75234974D01*
X144274457Y-75246956D01*
X144253387Y-75256921D01*
X144231443Y-75264773D01*
X144208834Y-75270437D01*
X144185779Y-75273856D01*
X144162500Y-75275000D01*
X143587500Y-75275000D01*
X143564221Y-75273856D01*
X143541166Y-75270437D01*
X143518557Y-75264773D01*
X143496613Y-75256921D01*
X143475543Y-75246956D01*
X143455552Y-75234974D01*
X143436832Y-75221090D01*
X143419562Y-75205438D01*
X143403910Y-75188168D01*
X143390026Y-75169448D01*
X143378044Y-75149457D01*
X143368079Y-75128387D01*
X143360227Y-75106443D01*
X143354563Y-75083834D01*
X143351144Y-75060779D01*
X143350000Y-75037500D01*
X143350000Y-74562500D01*
X143351144Y-74539221D01*
X143354563Y-74516166D01*
X143360227Y-74493557D01*
X143368079Y-74471613D01*
X143378044Y-74450543D01*
X143390026Y-74430552D01*
X143403910Y-74411832D01*
X143419562Y-74394562D01*
X143436832Y-74378910D01*
X143455552Y-74365026D01*
X143475543Y-74353044D01*
X143496613Y-74343079D01*
X143518557Y-74335227D01*
X143541166Y-74329563D01*
X143564221Y-74326144D01*
X143587500Y-74325000D01*
X144162500Y-74325000D01*
X144185779Y-74326144D01*
G37*
G04 #@! TD.AperFunction*
G04 #@! TA.AperFunction,SMDPad,CuDef*
G36*
X142435779Y-74326144D02*
G01*
X142458834Y-74329563D01*
X142481443Y-74335227D01*
X142503387Y-74343079D01*
X142524457Y-74353044D01*
X142544448Y-74365026D01*
X142563168Y-74378910D01*
X142580438Y-74394562D01*
X142596090Y-74411832D01*
X142609974Y-74430552D01*
X142621956Y-74450543D01*
X142631921Y-74471613D01*
X142639773Y-74493557D01*
X142645437Y-74516166D01*
X142648856Y-74539221D01*
X142650000Y-74562500D01*
X142650000Y-75037500D01*
X142648856Y-75060779D01*
X142645437Y-75083834D01*
X142639773Y-75106443D01*
X142631921Y-75128387D01*
X142621956Y-75149457D01*
X142609974Y-75169448D01*
X142596090Y-75188168D01*
X142580438Y-75205438D01*
X142563168Y-75221090D01*
X142544448Y-75234974D01*
X142524457Y-75246956D01*
X142503387Y-75256921D01*
X142481443Y-75264773D01*
X142458834Y-75270437D01*
X142435779Y-75273856D01*
X142412500Y-75275000D01*
X141837500Y-75275000D01*
X141814221Y-75273856D01*
X141791166Y-75270437D01*
X141768557Y-75264773D01*
X141746613Y-75256921D01*
X141725543Y-75246956D01*
X141705552Y-75234974D01*
X141686832Y-75221090D01*
X141669562Y-75205438D01*
X141653910Y-75188168D01*
X141640026Y-75169448D01*
X141628044Y-75149457D01*
X141618079Y-75128387D01*
X141610227Y-75106443D01*
X141604563Y-75083834D01*
X141601144Y-75060779D01*
X141600000Y-75037500D01*
X141600000Y-74562500D01*
X141601144Y-74539221D01*
X141604563Y-74516166D01*
X141610227Y-74493557D01*
X141618079Y-74471613D01*
X141628044Y-74450543D01*
X141640026Y-74430552D01*
X141653910Y-74411832D01*
X141669562Y-74394562D01*
X141686832Y-74378910D01*
X141705552Y-74365026D01*
X141725543Y-74353044D01*
X141746613Y-74343079D01*
X141768557Y-74335227D01*
X141791166Y-74329563D01*
X141814221Y-74326144D01*
X141837500Y-74325000D01*
X142412500Y-74325000D01*
X142435779Y-74326144D01*
G37*
G04 #@! TD.AperFunction*
G04 #@! TA.AperFunction,SMDPad,CuDef*
G36*
X147324679Y-79942544D02*
G01*
X147347734Y-79945963D01*
X147370343Y-79951627D01*
X147392287Y-79959479D01*
X147413357Y-79969444D01*
X147433348Y-79981426D01*
X147452068Y-79995310D01*
X147469338Y-80010962D01*
X147484990Y-80028232D01*
X147498874Y-80046952D01*
X147510856Y-80066943D01*
X147520821Y-80088013D01*
X147528673Y-80109957D01*
X147534337Y-80132566D01*
X147537756Y-80155621D01*
X147538900Y-80178900D01*
X147538900Y-80653900D01*
X147537756Y-80677179D01*
X147534337Y-80700234D01*
X147528673Y-80722843D01*
X147520821Y-80744787D01*
X147510856Y-80765857D01*
X147498874Y-80785848D01*
X147484990Y-80804568D01*
X147469338Y-80821838D01*
X147452068Y-80837490D01*
X147433348Y-80851374D01*
X147413357Y-80863356D01*
X147392287Y-80873321D01*
X147370343Y-80881173D01*
X147347734Y-80886837D01*
X147324679Y-80890256D01*
X147301400Y-80891400D01*
X146726400Y-80891400D01*
X146703121Y-80890256D01*
X146680066Y-80886837D01*
X146657457Y-80881173D01*
X146635513Y-80873321D01*
X146614443Y-80863356D01*
X146594452Y-80851374D01*
X146575732Y-80837490D01*
X146558462Y-80821838D01*
X146542810Y-80804568D01*
X146528926Y-80785848D01*
X146516944Y-80765857D01*
X146506979Y-80744787D01*
X146499127Y-80722843D01*
X146493463Y-80700234D01*
X146490044Y-80677179D01*
X146488900Y-80653900D01*
X146488900Y-80178900D01*
X146490044Y-80155621D01*
X146493463Y-80132566D01*
X146499127Y-80109957D01*
X146506979Y-80088013D01*
X146516944Y-80066943D01*
X146528926Y-80046952D01*
X146542810Y-80028232D01*
X146558462Y-80010962D01*
X146575732Y-79995310D01*
X146594452Y-79981426D01*
X146614443Y-79969444D01*
X146635513Y-79959479D01*
X146657457Y-79951627D01*
X146680066Y-79945963D01*
X146703121Y-79942544D01*
X146726400Y-79941400D01*
X147301400Y-79941400D01*
X147324679Y-79942544D01*
G37*
G04 #@! TD.AperFunction*
G04 #@! TA.AperFunction,SMDPad,CuDef*
G36*
X145574679Y-79942544D02*
G01*
X145597734Y-79945963D01*
X145620343Y-79951627D01*
X145642287Y-79959479D01*
X145663357Y-79969444D01*
X145683348Y-79981426D01*
X145702068Y-79995310D01*
X145719338Y-80010962D01*
X145734990Y-80028232D01*
X145748874Y-80046952D01*
X145760856Y-80066943D01*
X145770821Y-80088013D01*
X145778673Y-80109957D01*
X145784337Y-80132566D01*
X145787756Y-80155621D01*
X145788900Y-80178900D01*
X145788900Y-80653900D01*
X145787756Y-80677179D01*
X145784337Y-80700234D01*
X145778673Y-80722843D01*
X145770821Y-80744787D01*
X145760856Y-80765857D01*
X145748874Y-80785848D01*
X145734990Y-80804568D01*
X145719338Y-80821838D01*
X145702068Y-80837490D01*
X145683348Y-80851374D01*
X145663357Y-80863356D01*
X145642287Y-80873321D01*
X145620343Y-80881173D01*
X145597734Y-80886837D01*
X145574679Y-80890256D01*
X145551400Y-80891400D01*
X144976400Y-80891400D01*
X144953121Y-80890256D01*
X144930066Y-80886837D01*
X144907457Y-80881173D01*
X144885513Y-80873321D01*
X144864443Y-80863356D01*
X144844452Y-80851374D01*
X144825732Y-80837490D01*
X144808462Y-80821838D01*
X144792810Y-80804568D01*
X144778926Y-80785848D01*
X144766944Y-80765857D01*
X144756979Y-80744787D01*
X144749127Y-80722843D01*
X144743463Y-80700234D01*
X144740044Y-80677179D01*
X144738900Y-80653900D01*
X144738900Y-80178900D01*
X144740044Y-80155621D01*
X144743463Y-80132566D01*
X144749127Y-80109957D01*
X144756979Y-80088013D01*
X144766944Y-80066943D01*
X144778926Y-80046952D01*
X144792810Y-80028232D01*
X144808462Y-80010962D01*
X144825732Y-79995310D01*
X144844452Y-79981426D01*
X144864443Y-79969444D01*
X144885513Y-79959479D01*
X144907457Y-79951627D01*
X144930066Y-79945963D01*
X144953121Y-79942544D01*
X144976400Y-79941400D01*
X145551400Y-79941400D01*
X145574679Y-79942544D01*
G37*
G04 #@! TD.AperFunction*
G04 #@! TA.AperFunction,SMDPad,CuDef*
G36*
X147553279Y-81682444D02*
G01*
X147576334Y-81685863D01*
X147598943Y-81691527D01*
X147620887Y-81699379D01*
X147641957Y-81709344D01*
X147661948Y-81721326D01*
X147680668Y-81735210D01*
X147697938Y-81750862D01*
X147713590Y-81768132D01*
X147727474Y-81786852D01*
X147739456Y-81806843D01*
X147749421Y-81827913D01*
X147757273Y-81849857D01*
X147762937Y-81872466D01*
X147766356Y-81895521D01*
X147767500Y-81918800D01*
X147767500Y-82393800D01*
X147766356Y-82417079D01*
X147762937Y-82440134D01*
X147757273Y-82462743D01*
X147749421Y-82484687D01*
X147739456Y-82505757D01*
X147727474Y-82525748D01*
X147713590Y-82544468D01*
X147697938Y-82561738D01*
X147680668Y-82577390D01*
X147661948Y-82591274D01*
X147641957Y-82603256D01*
X147620887Y-82613221D01*
X147598943Y-82621073D01*
X147576334Y-82626737D01*
X147553279Y-82630156D01*
X147530000Y-82631300D01*
X146955000Y-82631300D01*
X146931721Y-82630156D01*
X146908666Y-82626737D01*
X146886057Y-82621073D01*
X146864113Y-82613221D01*
X146843043Y-82603256D01*
X146823052Y-82591274D01*
X146804332Y-82577390D01*
X146787062Y-82561738D01*
X146771410Y-82544468D01*
X146757526Y-82525748D01*
X146745544Y-82505757D01*
X146735579Y-82484687D01*
X146727727Y-82462743D01*
X146722063Y-82440134D01*
X146718644Y-82417079D01*
X146717500Y-82393800D01*
X146717500Y-81918800D01*
X146718644Y-81895521D01*
X146722063Y-81872466D01*
X146727727Y-81849857D01*
X146735579Y-81827913D01*
X146745544Y-81806843D01*
X146757526Y-81786852D01*
X146771410Y-81768132D01*
X146787062Y-81750862D01*
X146804332Y-81735210D01*
X146823052Y-81721326D01*
X146843043Y-81709344D01*
X146864113Y-81699379D01*
X146886057Y-81691527D01*
X146908666Y-81685863D01*
X146931721Y-81682444D01*
X146955000Y-81681300D01*
X147530000Y-81681300D01*
X147553279Y-81682444D01*
G37*
G04 #@! TD.AperFunction*
G04 #@! TA.AperFunction,SMDPad,CuDef*
G36*
X145803279Y-81682444D02*
G01*
X145826334Y-81685863D01*
X145848943Y-81691527D01*
X145870887Y-81699379D01*
X145891957Y-81709344D01*
X145911948Y-81721326D01*
X145930668Y-81735210D01*
X145947938Y-81750862D01*
X145963590Y-81768132D01*
X145977474Y-81786852D01*
X145989456Y-81806843D01*
X145999421Y-81827913D01*
X146007273Y-81849857D01*
X146012937Y-81872466D01*
X146016356Y-81895521D01*
X146017500Y-81918800D01*
X146017500Y-82393800D01*
X146016356Y-82417079D01*
X146012937Y-82440134D01*
X146007273Y-82462743D01*
X145999421Y-82484687D01*
X145989456Y-82505757D01*
X145977474Y-82525748D01*
X145963590Y-82544468D01*
X145947938Y-82561738D01*
X145930668Y-82577390D01*
X145911948Y-82591274D01*
X145891957Y-82603256D01*
X145870887Y-82613221D01*
X145848943Y-82621073D01*
X145826334Y-82626737D01*
X145803279Y-82630156D01*
X145780000Y-82631300D01*
X145205000Y-82631300D01*
X145181721Y-82630156D01*
X145158666Y-82626737D01*
X145136057Y-82621073D01*
X145114113Y-82613221D01*
X145093043Y-82603256D01*
X145073052Y-82591274D01*
X145054332Y-82577390D01*
X145037062Y-82561738D01*
X145021410Y-82544468D01*
X145007526Y-82525748D01*
X144995544Y-82505757D01*
X144985579Y-82484687D01*
X144977727Y-82462743D01*
X144972063Y-82440134D01*
X144968644Y-82417079D01*
X144967500Y-82393800D01*
X144967500Y-81918800D01*
X144968644Y-81895521D01*
X144972063Y-81872466D01*
X144977727Y-81849857D01*
X144985579Y-81827913D01*
X144995544Y-81806843D01*
X145007526Y-81786852D01*
X145021410Y-81768132D01*
X145037062Y-81750862D01*
X145054332Y-81735210D01*
X145073052Y-81721326D01*
X145093043Y-81709344D01*
X145114113Y-81699379D01*
X145136057Y-81691527D01*
X145158666Y-81685863D01*
X145181721Y-81682444D01*
X145205000Y-81681300D01*
X145780000Y-81681300D01*
X145803279Y-81682444D01*
G37*
G04 #@! TD.AperFunction*
G04 #@! TA.AperFunction,SMDPad,CuDef*
G36*
X139460779Y-82851144D02*
G01*
X139483834Y-82854563D01*
X139506443Y-82860227D01*
X139528387Y-82868079D01*
X139549457Y-82878044D01*
X139569448Y-82890026D01*
X139588168Y-82903910D01*
X139605438Y-82919562D01*
X139621090Y-82936832D01*
X139634974Y-82955552D01*
X139646956Y-82975543D01*
X139656921Y-82996613D01*
X139664773Y-83018557D01*
X139670437Y-83041166D01*
X139673856Y-83064221D01*
X139675000Y-83087500D01*
X139675000Y-83662500D01*
X139673856Y-83685779D01*
X139670437Y-83708834D01*
X139664773Y-83731443D01*
X139656921Y-83753387D01*
X139646956Y-83774457D01*
X139634974Y-83794448D01*
X139621090Y-83813168D01*
X139605438Y-83830438D01*
X139588168Y-83846090D01*
X139569448Y-83859974D01*
X139549457Y-83871956D01*
X139528387Y-83881921D01*
X139506443Y-83889773D01*
X139483834Y-83895437D01*
X139460779Y-83898856D01*
X139437500Y-83900000D01*
X138962500Y-83900000D01*
X138939221Y-83898856D01*
X138916166Y-83895437D01*
X138893557Y-83889773D01*
X138871613Y-83881921D01*
X138850543Y-83871956D01*
X138830552Y-83859974D01*
X138811832Y-83846090D01*
X138794562Y-83830438D01*
X138778910Y-83813168D01*
X138765026Y-83794448D01*
X138753044Y-83774457D01*
X138743079Y-83753387D01*
X138735227Y-83731443D01*
X138729563Y-83708834D01*
X138726144Y-83685779D01*
X138725000Y-83662500D01*
X138725000Y-83087500D01*
X138726144Y-83064221D01*
X138729563Y-83041166D01*
X138735227Y-83018557D01*
X138743079Y-82996613D01*
X138753044Y-82975543D01*
X138765026Y-82955552D01*
X138778910Y-82936832D01*
X138794562Y-82919562D01*
X138811832Y-82903910D01*
X138830552Y-82890026D01*
X138850543Y-82878044D01*
X138871613Y-82868079D01*
X138893557Y-82860227D01*
X138916166Y-82854563D01*
X138939221Y-82851144D01*
X138962500Y-82850000D01*
X139437500Y-82850000D01*
X139460779Y-82851144D01*
G37*
G04 #@! TD.AperFunction*
G04 #@! TA.AperFunction,SMDPad,CuDef*
G36*
X139460779Y-81101144D02*
G01*
X139483834Y-81104563D01*
X139506443Y-81110227D01*
X139528387Y-81118079D01*
X139549457Y-81128044D01*
X139569448Y-81140026D01*
X139588168Y-81153910D01*
X139605438Y-81169562D01*
X139621090Y-81186832D01*
X139634974Y-81205552D01*
X139646956Y-81225543D01*
X139656921Y-81246613D01*
X139664773Y-81268557D01*
X139670437Y-81291166D01*
X139673856Y-81314221D01*
X139675000Y-81337500D01*
X139675000Y-81912500D01*
X139673856Y-81935779D01*
X139670437Y-81958834D01*
X139664773Y-81981443D01*
X139656921Y-82003387D01*
X139646956Y-82024457D01*
X139634974Y-82044448D01*
X139621090Y-82063168D01*
X139605438Y-82080438D01*
X139588168Y-82096090D01*
X139569448Y-82109974D01*
X139549457Y-82121956D01*
X139528387Y-82131921D01*
X139506443Y-82139773D01*
X139483834Y-82145437D01*
X139460779Y-82148856D01*
X139437500Y-82150000D01*
X138962500Y-82150000D01*
X138939221Y-82148856D01*
X138916166Y-82145437D01*
X138893557Y-82139773D01*
X138871613Y-82131921D01*
X138850543Y-82121956D01*
X138830552Y-82109974D01*
X138811832Y-82096090D01*
X138794562Y-82080438D01*
X138778910Y-82063168D01*
X138765026Y-82044448D01*
X138753044Y-82024457D01*
X138743079Y-82003387D01*
X138735227Y-81981443D01*
X138729563Y-81958834D01*
X138726144Y-81935779D01*
X138725000Y-81912500D01*
X138725000Y-81337500D01*
X138726144Y-81314221D01*
X138729563Y-81291166D01*
X138735227Y-81268557D01*
X138743079Y-81246613D01*
X138753044Y-81225543D01*
X138765026Y-81205552D01*
X138778910Y-81186832D01*
X138794562Y-81169562D01*
X138811832Y-81153910D01*
X138830552Y-81140026D01*
X138850543Y-81128044D01*
X138871613Y-81118079D01*
X138893557Y-81110227D01*
X138916166Y-81104563D01*
X138939221Y-81101144D01*
X138962500Y-81100000D01*
X139437500Y-81100000D01*
X139460779Y-81101144D01*
G37*
G04 #@! TD.AperFunction*
D25*
X150900000Y-81200000D03*
X148900000Y-82150000D03*
X148900000Y-80250000D03*
D26*
X125844300Y-73926700D03*
X163600000Y-102600000D03*
D20*
X137200000Y-80600000D03*
X137200000Y-83400000D03*
G04 #@! TA.AperFunction,SMDPad,CuDef*
D11*
G36*
X161685779Y-79126144D02*
G01*
X161708834Y-79129563D01*
X161731443Y-79135227D01*
X161753387Y-79143079D01*
X161774457Y-79153044D01*
X161794448Y-79165026D01*
X161813168Y-79178910D01*
X161830438Y-79194562D01*
X161846090Y-79211832D01*
X161859974Y-79230552D01*
X161871956Y-79250543D01*
X161881921Y-79271613D01*
X161889773Y-79293557D01*
X161895437Y-79316166D01*
X161898856Y-79339221D01*
X161900000Y-79362500D01*
X161900000Y-79837500D01*
X161898856Y-79860779D01*
X161895437Y-79883834D01*
X161889773Y-79906443D01*
X161881921Y-79928387D01*
X161871956Y-79949457D01*
X161859974Y-79969448D01*
X161846090Y-79988168D01*
X161830438Y-80005438D01*
X161813168Y-80021090D01*
X161794448Y-80034974D01*
X161774457Y-80046956D01*
X161753387Y-80056921D01*
X161731443Y-80064773D01*
X161708834Y-80070437D01*
X161685779Y-80073856D01*
X161662500Y-80075000D01*
X161087500Y-80075000D01*
X161064221Y-80073856D01*
X161041166Y-80070437D01*
X161018557Y-80064773D01*
X160996613Y-80056921D01*
X160975543Y-80046956D01*
X160955552Y-80034974D01*
X160936832Y-80021090D01*
X160919562Y-80005438D01*
X160903910Y-79988168D01*
X160890026Y-79969448D01*
X160878044Y-79949457D01*
X160868079Y-79928387D01*
X160860227Y-79906443D01*
X160854563Y-79883834D01*
X160851144Y-79860779D01*
X160850000Y-79837500D01*
X160850000Y-79362500D01*
X160851144Y-79339221D01*
X160854563Y-79316166D01*
X160860227Y-79293557D01*
X160868079Y-79271613D01*
X160878044Y-79250543D01*
X160890026Y-79230552D01*
X160903910Y-79211832D01*
X160919562Y-79194562D01*
X160936832Y-79178910D01*
X160955552Y-79165026D01*
X160975543Y-79153044D01*
X160996613Y-79143079D01*
X161018557Y-79135227D01*
X161041166Y-79129563D01*
X161064221Y-79126144D01*
X161087500Y-79125000D01*
X161662500Y-79125000D01*
X161685779Y-79126144D01*
G37*
G04 #@! TD.AperFunction*
G04 #@! TA.AperFunction,SMDPad,CuDef*
G36*
X159935779Y-79126144D02*
G01*
X159958834Y-79129563D01*
X159981443Y-79135227D01*
X160003387Y-79143079D01*
X160024457Y-79153044D01*
X160044448Y-79165026D01*
X160063168Y-79178910D01*
X160080438Y-79194562D01*
X160096090Y-79211832D01*
X160109974Y-79230552D01*
X160121956Y-79250543D01*
X160131921Y-79271613D01*
X160139773Y-79293557D01*
X160145437Y-79316166D01*
X160148856Y-79339221D01*
X160150000Y-79362500D01*
X160150000Y-79837500D01*
X160148856Y-79860779D01*
X160145437Y-79883834D01*
X160139773Y-79906443D01*
X160131921Y-79928387D01*
X160121956Y-79949457D01*
X160109974Y-79969448D01*
X160096090Y-79988168D01*
X160080438Y-80005438D01*
X160063168Y-80021090D01*
X160044448Y-80034974D01*
X160024457Y-80046956D01*
X160003387Y-80056921D01*
X159981443Y-80064773D01*
X159958834Y-80070437D01*
X159935779Y-80073856D01*
X159912500Y-80075000D01*
X159337500Y-80075000D01*
X159314221Y-80073856D01*
X159291166Y-80070437D01*
X159268557Y-80064773D01*
X159246613Y-80056921D01*
X159225543Y-80046956D01*
X159205552Y-80034974D01*
X159186832Y-80021090D01*
X159169562Y-80005438D01*
X159153910Y-79988168D01*
X159140026Y-79969448D01*
X159128044Y-79949457D01*
X159118079Y-79928387D01*
X159110227Y-79906443D01*
X159104563Y-79883834D01*
X159101144Y-79860779D01*
X159100000Y-79837500D01*
X159100000Y-79362500D01*
X159101144Y-79339221D01*
X159104563Y-79316166D01*
X159110227Y-79293557D01*
X159118079Y-79271613D01*
X159128044Y-79250543D01*
X159140026Y-79230552D01*
X159153910Y-79211832D01*
X159169562Y-79194562D01*
X159186832Y-79178910D01*
X159205552Y-79165026D01*
X159225543Y-79153044D01*
X159246613Y-79143079D01*
X159268557Y-79135227D01*
X159291166Y-79129563D01*
X159314221Y-79126144D01*
X159337500Y-79125000D01*
X159912500Y-79125000D01*
X159935779Y-79126144D01*
G37*
G04 #@! TD.AperFunction*
G04 #@! TA.AperFunction,SMDPad,CuDef*
G36*
X153060779Y-82551144D02*
G01*
X153083834Y-82554563D01*
X153106443Y-82560227D01*
X153128387Y-82568079D01*
X153149457Y-82578044D01*
X153169448Y-82590026D01*
X153188168Y-82603910D01*
X153205438Y-82619562D01*
X153221090Y-82636832D01*
X153234974Y-82655552D01*
X153246956Y-82675543D01*
X153256921Y-82696613D01*
X153264773Y-82718557D01*
X153270437Y-82741166D01*
X153273856Y-82764221D01*
X153275000Y-82787500D01*
X153275000Y-83362500D01*
X153273856Y-83385779D01*
X153270437Y-83408834D01*
X153264773Y-83431443D01*
X153256921Y-83453387D01*
X153246956Y-83474457D01*
X153234974Y-83494448D01*
X153221090Y-83513168D01*
X153205438Y-83530438D01*
X153188168Y-83546090D01*
X153169448Y-83559974D01*
X153149457Y-83571956D01*
X153128387Y-83581921D01*
X153106443Y-83589773D01*
X153083834Y-83595437D01*
X153060779Y-83598856D01*
X153037500Y-83600000D01*
X152562500Y-83600000D01*
X152539221Y-83598856D01*
X152516166Y-83595437D01*
X152493557Y-83589773D01*
X152471613Y-83581921D01*
X152450543Y-83571956D01*
X152430552Y-83559974D01*
X152411832Y-83546090D01*
X152394562Y-83530438D01*
X152378910Y-83513168D01*
X152365026Y-83494448D01*
X152353044Y-83474457D01*
X152343079Y-83453387D01*
X152335227Y-83431443D01*
X152329563Y-83408834D01*
X152326144Y-83385779D01*
X152325000Y-83362500D01*
X152325000Y-82787500D01*
X152326144Y-82764221D01*
X152329563Y-82741166D01*
X152335227Y-82718557D01*
X152343079Y-82696613D01*
X152353044Y-82675543D01*
X152365026Y-82655552D01*
X152378910Y-82636832D01*
X152394562Y-82619562D01*
X152411832Y-82603910D01*
X152430552Y-82590026D01*
X152450543Y-82578044D01*
X152471613Y-82568079D01*
X152493557Y-82560227D01*
X152516166Y-82554563D01*
X152539221Y-82551144D01*
X152562500Y-82550000D01*
X153037500Y-82550000D01*
X153060779Y-82551144D01*
G37*
G04 #@! TD.AperFunction*
G04 #@! TA.AperFunction,SMDPad,CuDef*
G36*
X153060779Y-80801144D02*
G01*
X153083834Y-80804563D01*
X153106443Y-80810227D01*
X153128387Y-80818079D01*
X153149457Y-80828044D01*
X153169448Y-80840026D01*
X153188168Y-80853910D01*
X153205438Y-80869562D01*
X153221090Y-80886832D01*
X153234974Y-80905552D01*
X153246956Y-80925543D01*
X153256921Y-80946613D01*
X153264773Y-80968557D01*
X153270437Y-80991166D01*
X153273856Y-81014221D01*
X153275000Y-81037500D01*
X153275000Y-81612500D01*
X153273856Y-81635779D01*
X153270437Y-81658834D01*
X153264773Y-81681443D01*
X153256921Y-81703387D01*
X153246956Y-81724457D01*
X153234974Y-81744448D01*
X153221090Y-81763168D01*
X153205438Y-81780438D01*
X153188168Y-81796090D01*
X153169448Y-81809974D01*
X153149457Y-81821956D01*
X153128387Y-81831921D01*
X153106443Y-81839773D01*
X153083834Y-81845437D01*
X153060779Y-81848856D01*
X153037500Y-81850000D01*
X152562500Y-81850000D01*
X152539221Y-81848856D01*
X152516166Y-81845437D01*
X152493557Y-81839773D01*
X152471613Y-81831921D01*
X152450543Y-81821956D01*
X152430552Y-81809974D01*
X152411832Y-81796090D01*
X152394562Y-81780438D01*
X152378910Y-81763168D01*
X152365026Y-81744448D01*
X152353044Y-81724457D01*
X152343079Y-81703387D01*
X152335227Y-81681443D01*
X152329563Y-81658834D01*
X152326144Y-81635779D01*
X152325000Y-81612500D01*
X152325000Y-81037500D01*
X152326144Y-81014221D01*
X152329563Y-80991166D01*
X152335227Y-80968557D01*
X152343079Y-80946613D01*
X152353044Y-80925543D01*
X152365026Y-80905552D01*
X152378910Y-80886832D01*
X152394562Y-80869562D01*
X152411832Y-80853910D01*
X152430552Y-80840026D01*
X152450543Y-80828044D01*
X152471613Y-80818079D01*
X152493557Y-80810227D01*
X152516166Y-80804563D01*
X152539221Y-80801144D01*
X152562500Y-80800000D01*
X153037500Y-80800000D01*
X153060779Y-80801144D01*
G37*
G04 #@! TD.AperFunction*
D27*
X148285200Y-86156800D03*
X157086300Y-85953600D03*
X156883100Y-93814900D03*
X139200000Y-80200000D03*
X152603200Y-75514200D03*
X139900000Y-77000000D03*
X157000000Y-81300000D03*
X157400000Y-100000000D03*
X161400000Y-101500000D03*
X150100000Y-100500000D03*
X150100000Y-102700000D03*
X139300000Y-102700000D03*
X131600000Y-77900000D03*
X157000000Y-76650000D03*
X144195800Y-77622400D03*
X133629400Y-91808300D03*
X129200000Y-84000000D03*
X129400000Y-80600000D03*
X134900000Y-89200000D03*
X138569700Y-96685100D03*
X138000000Y-84900000D03*
X130600000Y-99700000D03*
X154400000Y-75200000D03*
X136300000Y-86400000D03*
X135775700Y-91757500D03*
D28*
X157000000Y-79015000D02*
X157000000Y-79885000D01*
X157000000Y-76650000D02*
X157000000Y-76650000D01*
D29*
X140400000Y-76500000D02*
X139900000Y-77000000D01*
X140900000Y-76500000D02*
X140400000Y-76500000D01*
D28*
X137675001Y-77555001D02*
X137600000Y-77480000D01*
X139900000Y-77000000D02*
X139344999Y-77555001D01*
X137600000Y-77480000D02*
X137600000Y-76700000D01*
X139344999Y-77555001D02*
X137675001Y-77555001D01*
X157000000Y-79885000D02*
X157000000Y-81300000D01*
X157000000Y-76650000D02*
X157000000Y-79015000D01*
X157675000Y-75975000D02*
X157000000Y-76650000D01*
X157675000Y-75500000D02*
X157675000Y-75975000D01*
X151655200Y-76400000D02*
X151676100Y-76379100D01*
X150010000Y-76400000D02*
X151655200Y-76400000D01*
X152541000Y-75514200D02*
X151676100Y-76379100D01*
X152603200Y-75514200D02*
X152541000Y-75514200D01*
X131926100Y-90105000D02*
X131055100Y-90105000D01*
X133629400Y-91808300D02*
X131926100Y-90105000D01*
X152800000Y-83600000D02*
X152800000Y-83075000D01*
X153120301Y-83920301D02*
X152800000Y-83600000D01*
X155734301Y-83920301D02*
X153120301Y-83920301D01*
X156600001Y-83054601D02*
X155734301Y-83920301D01*
X156600001Y-81699999D02*
X156600001Y-83054601D01*
X157000000Y-81300000D02*
X156600001Y-81699999D01*
X144730500Y-78157100D02*
X144195800Y-77622400D01*
X144730500Y-78892400D02*
X144730500Y-78157100D01*
X154400000Y-76265685D02*
X153315685Y-77350000D01*
X150295000Y-77350000D02*
X150010000Y-77350000D01*
X154400000Y-75700000D02*
X154400000Y-78325000D01*
X154400000Y-75200000D02*
X154400000Y-75700000D01*
X151856200Y-85598000D02*
X150560800Y-84302600D01*
X152689800Y-85598000D02*
X151856200Y-85598000D01*
X151025000Y-81325000D02*
X150900000Y-81200000D01*
X152800000Y-81325000D02*
X151025000Y-81325000D01*
X150900000Y-83963400D02*
X150560800Y-84302600D01*
X150900000Y-81200000D02*
X150900000Y-83963400D01*
X152800000Y-80206900D02*
X152800000Y-81325000D01*
X153315685Y-79691215D02*
X152800000Y-80206900D01*
X150010000Y-77350000D02*
X150010000Y-77925000D01*
X150010000Y-77925000D02*
X151421900Y-79336900D01*
X153315685Y-77350000D02*
X153301700Y-79336900D01*
X151421900Y-79336900D02*
X153301700Y-79336900D01*
X153301700Y-79336900D02*
X153315685Y-79691215D01*
X159600000Y-79525000D02*
X159600000Y-78300000D01*
X158815000Y-77515000D02*
X158475000Y-77515000D01*
X159600000Y-78300000D02*
X158815000Y-77515000D01*
X158475000Y-77515000D02*
X157950000Y-77515000D01*
X145600000Y-74800000D02*
X143875000Y-74800000D01*
X146150020Y-74249980D02*
X145600000Y-74800000D01*
X156631900Y-74249980D02*
X146150020Y-74249980D01*
X158525010Y-77464990D02*
X158525010Y-74425010D01*
X158374970Y-74274970D02*
X156656890Y-74274970D01*
X158475000Y-77515000D02*
X158525010Y-77464990D01*
X156656890Y-74274970D02*
X156631900Y-74249980D01*
X158525010Y-74425010D02*
X158374970Y-74274970D01*
X142006800Y-76606800D02*
X141900000Y-76500000D01*
D29*
X142006800Y-79133700D02*
X142006800Y-76606800D01*
D28*
X143440500Y-76500000D02*
X141900000Y-76500000D01*
X139125000Y-76700000D02*
X138550000Y-76700000D01*
X139900001Y-75924999D02*
X139125000Y-76700000D01*
X141824999Y-75924999D02*
X139900001Y-75924999D01*
X141900000Y-76000000D02*
X141824999Y-75924999D01*
X141900000Y-76500000D02*
X141900000Y-76000000D01*
X136650000Y-75920000D02*
X136650000Y-76700000D01*
X138185001Y-75844999D02*
X136725001Y-75844999D01*
X138550000Y-76209998D02*
X138185001Y-75844999D01*
X136725001Y-75844999D02*
X136650000Y-75920000D01*
X138550000Y-76700000D02*
X138550000Y-76209998D01*
X137975000Y-75634998D02*
X137975000Y-74900000D01*
X138185001Y-75844999D02*
X137975000Y-75634998D01*
X141900000Y-75025000D02*
X142125000Y-74800000D01*
X141900000Y-76500000D02*
X141900000Y-75025000D01*
X146614500Y-77350000D02*
X146004990Y-76740490D01*
X147390000Y-77350000D02*
X146614500Y-77350000D01*
X146004990Y-76740490D02*
X146004990Y-76497890D01*
X145961100Y-76454000D02*
X143446500Y-76454000D01*
X146004990Y-76497890D02*
X145961100Y-76454000D01*
X143446500Y-76454000D02*
X143440500Y-76500000D01*
X141958100Y-81625000D02*
X142006800Y-81673700D01*
X139200000Y-81625000D02*
X141958100Y-81625000D01*
X135175000Y-84475000D02*
X136995000Y-86295000D01*
X137332900Y-86295000D02*
X138344900Y-86295000D01*
X136995000Y-86295000D02*
X137332900Y-86295000D01*
X135175000Y-84000000D02*
X135175000Y-84475000D01*
X135175000Y-83739998D02*
X135175000Y-84000000D01*
X137289998Y-81625000D02*
X135175000Y-83739998D01*
X139200000Y-81625000D02*
X137289998Y-81625000D01*
X136890000Y-86400000D02*
X136995000Y-86295000D01*
X136300000Y-86400000D02*
X136890000Y-86400000D01*
X142033100Y-81700000D02*
X142006800Y-81673700D01*
X135775700Y-93343700D02*
X135749000Y-93370400D01*
X135775700Y-91757500D02*
X135775700Y-93343700D01*
X135749000Y-94005400D02*
X134834600Y-94919800D01*
X135749000Y-93370400D02*
X135749000Y-94005400D01*
X134834600Y-94919800D02*
X134834600Y-98096100D01*
X132435000Y-100495700D02*
X132435000Y-102275000D01*
X134834600Y-98096100D02*
X132435000Y-100495700D01*
X146480500Y-79199800D02*
X145263900Y-80416400D01*
X146480500Y-78892400D02*
X146480500Y-79199800D01*
X145492500Y-80645000D02*
X145263900Y-80416400D01*
X145492500Y-82156300D02*
X145492500Y-80645000D01*
X142489400Y-82156300D02*
X142006800Y-81673700D01*
X145492500Y-82156300D02*
X142489400Y-82156300D01*
X137200000Y-79800000D02*
X137200000Y-80600000D01*
X137200000Y-79675000D02*
X137200000Y-79800000D01*
X137975000Y-78900000D02*
X137200000Y-79675000D01*
X138550000Y-78900000D02*
X137975000Y-78900000D01*
X135225000Y-80600000D02*
X135200000Y-80625000D01*
X137200000Y-80600000D02*
X135225000Y-80600000D01*
X126896800Y-91833700D02*
X126796800Y-91833700D01*
X133934610Y-94499280D02*
X133934610Y-96120390D01*
X133934610Y-96120390D02*
X133705000Y-96350000D01*
X133999000Y-94434890D02*
X133934610Y-94499280D01*
X133705000Y-96350000D02*
X133705000Y-97325000D01*
X133999000Y-93370400D02*
X133999000Y-94434890D01*
X128096800Y-91833700D02*
X126796800Y-91833700D01*
X131937300Y-91833700D02*
X128096800Y-91833700D01*
X133474000Y-93370400D02*
X131937300Y-91833700D01*
X133999000Y-93370400D02*
X133474000Y-93370400D01*
X132435000Y-96350000D02*
X132435000Y-97325000D01*
X133084600Y-95394800D02*
X132435000Y-96044400D01*
X132435000Y-96044400D02*
X132435000Y-96350000D01*
X133084600Y-94919800D02*
X133084600Y-95394800D01*
X129398801Y-93071699D02*
X128096800Y-94373700D01*
X131711499Y-93071699D02*
X129398801Y-93071699D01*
X128096800Y-94373700D02*
X126796800Y-94373700D01*
X133084600Y-94444800D02*
X131711499Y-93071699D01*
X133084600Y-94919800D02*
X133084600Y-94444800D01*
X138344900Y-88305600D02*
X138344900Y-88835000D01*
X138269899Y-88230599D02*
X138344900Y-88305600D01*
X129518089Y-87715589D02*
X130033099Y-88230599D01*
X129518089Y-86834989D02*
X129518089Y-87715589D01*
X130033099Y-88230599D02*
X138269899Y-88230599D01*
X126896800Y-84213700D02*
X129518089Y-86834989D01*
X126796800Y-84213700D02*
X126896800Y-84213700D01*
X126896800Y-89293700D02*
X126796800Y-89293700D01*
X128096800Y-89293700D02*
X126796800Y-89293700D01*
X128242501Y-89439401D02*
X128096800Y-89293700D01*
X132015903Y-89439401D02*
X128242501Y-89439401D01*
X132681502Y-90105000D02*
X132015903Y-89439401D01*
X138344900Y-90105000D02*
X132681502Y-90105000D01*
X129968099Y-87489999D02*
X129968099Y-82331901D01*
X131055100Y-87565000D02*
X130043100Y-87565000D01*
X130043100Y-87565000D02*
X129968099Y-87489999D01*
X129309898Y-81673700D02*
X126796800Y-81673700D01*
X129968099Y-82331901D02*
X129309898Y-81673700D01*
X129433700Y-79133700D02*
X126796800Y-79133700D01*
X131100000Y-80800000D02*
X129433700Y-79133700D01*
X131100000Y-85720700D02*
X131100000Y-80800000D01*
X131055100Y-86295000D02*
X131055100Y-85765600D01*
X131055100Y-85765600D02*
X131100000Y-85720700D01*
X126896800Y-86753700D02*
X126796800Y-86753700D01*
X128823709Y-88680609D02*
X126896800Y-86753700D01*
X130311209Y-88680609D02*
X128823709Y-88680609D01*
X130465600Y-88835000D02*
X130311209Y-88680609D01*
X131055100Y-88835000D02*
X130465600Y-88835000D01*
X139431901Y-87640001D02*
X139431901Y-91970507D01*
X139356900Y-87565000D02*
X139431901Y-87640001D01*
X138344900Y-87565000D02*
X139356900Y-87565000D01*
X141980500Y-94400000D02*
X142006800Y-94373700D01*
X139431901Y-94004001D02*
X139839700Y-94411800D01*
X139431901Y-91970507D02*
X139431901Y-94004001D01*
X140668700Y-94411800D02*
X139839700Y-94411800D01*
X140706800Y-94373700D02*
X140668700Y-94411800D01*
X142006800Y-94373700D02*
X140706800Y-94373700D01*
X148260001Y-74799999D02*
X146519999Y-74799999D01*
X148900000Y-75439998D02*
X148260001Y-74799999D01*
X148900000Y-80250000D02*
X148900000Y-75439998D01*
X146454999Y-76324999D02*
X146530000Y-76400000D01*
X146454999Y-74864999D02*
X146454999Y-76324999D01*
X146530000Y-76400000D02*
X147390000Y-76400000D01*
X146519999Y-74799999D02*
X146454999Y-74864999D01*
X144968690Y-83714272D02*
X144968690Y-85843190D01*
X145338800Y-86213300D02*
X145338800Y-86713300D01*
X144968690Y-85843190D02*
X145338800Y-86213300D01*
X146342510Y-82626800D02*
X145741720Y-83227590D01*
X145455372Y-83227590D02*
X144968690Y-83714272D01*
X146342510Y-81735780D02*
X146342510Y-82626800D01*
X145741720Y-83227590D02*
X145455372Y-83227590D01*
X146722000Y-81356290D02*
X146342510Y-81735780D01*
X147394520Y-81356290D02*
X146722000Y-81356290D01*
X148500810Y-80250000D02*
X147394520Y-81356290D01*
X148900000Y-80250000D02*
X148500810Y-80250000D01*
X148325001Y-75814999D02*
X148325001Y-78574999D01*
X147960002Y-75450000D02*
X148325001Y-75814999D01*
X147390000Y-75450000D02*
X147960002Y-75450000D01*
X147013900Y-79886100D02*
X147013900Y-80416400D01*
X148325001Y-78574999D02*
X147013900Y-79886100D01*
X130454400Y-95346700D02*
X130454400Y-94246700D01*
X130865000Y-95757300D02*
X130454400Y-95346700D01*
X130865000Y-97025000D02*
X130865000Y-95757300D01*
X131165000Y-97325000D02*
X130865000Y-97025000D01*
X156050000Y-75725000D02*
X156025000Y-75700000D01*
X156050000Y-75925000D02*
X155925000Y-75800000D01*
X156050000Y-77515000D02*
X156050000Y-75925000D01*
X139175000Y-83400000D02*
X139200000Y-83375000D01*
X137200000Y-83400000D02*
X139175000Y-83400000D01*
X157950000Y-82819600D02*
X157724300Y-83045300D01*
X157950000Y-79885000D02*
X157950000Y-82819600D01*
X154400000Y-82521000D02*
X154924300Y-83045300D01*
X154400000Y-80075000D02*
X154400000Y-82521000D01*
X150010000Y-74875000D02*
X150010000Y-75450000D01*
X150095801Y-74789199D02*
X150010000Y-74875000D01*
X152951201Y-74789199D02*
X150095801Y-74789199D01*
X153674999Y-75512997D02*
X152951201Y-74789199D01*
X153674999Y-76130201D02*
X153674999Y-75512997D01*
X151676100Y-78129100D02*
X153674999Y-76130201D01*
X149260800Y-84302600D02*
X147093700Y-84302600D01*
X149260800Y-82510800D02*
X148900000Y-82150000D01*
X149260800Y-84302600D02*
X149260800Y-82510800D01*
X147248800Y-82150000D02*
X147242500Y-82156300D01*
X148900000Y-82150000D02*
X147248800Y-82150000D01*
X153989800Y-86345592D02*
X153989800Y-85598000D01*
X153989800Y-86680000D02*
X153989800Y-86345592D01*
X153099500Y-87570300D02*
X153989800Y-86680000D01*
X153099500Y-88125300D02*
X153099500Y-87570300D01*
X153099500Y-88125300D02*
X153099500Y-89395300D01*
X153099500Y-89395300D02*
X153099500Y-90665300D01*
X153099500Y-90665300D02*
X153099500Y-91935300D01*
X150994500Y-90590300D02*
X150994500Y-90030300D01*
X152339500Y-91935300D02*
X150994500Y-90590300D01*
X153099500Y-91935300D02*
X152339500Y-91935300D01*
X146749500Y-91935300D02*
X147634500Y-91935300D01*
X145338800Y-90524600D02*
X146749500Y-91935300D01*
X145338800Y-88013300D02*
X145338800Y-90524600D01*
X147634500Y-87570300D02*
X147634500Y-88125300D01*
X147634500Y-86890992D02*
X147634500Y-87570300D01*
X145793700Y-85050192D02*
X147634500Y-86890992D01*
X145793700Y-84302600D02*
X145793700Y-85050192D01*
X147634500Y-88125300D02*
X147634500Y-89395300D01*
X147634500Y-89395300D02*
X147634500Y-90665300D01*
D30*
G36*
X127265728Y-75093700D02*
G01*
X127277988Y-75218182D01*
X127314298Y-75337880D01*
X127373263Y-75448194D01*
X127452615Y-75544885D01*
X127549306Y-75624237D01*
X127659620Y-75683202D01*
X127779318Y-75719512D01*
X127903800Y-75731772D01*
X129803800Y-75731772D01*
X129928282Y-75719512D01*
X130047980Y-75683202D01*
X130158294Y-75624237D01*
X130254985Y-75544885D01*
X130334337Y-75448194D01*
X130393302Y-75337880D01*
X130429612Y-75218182D01*
X130441872Y-75093700D01*
X130441872Y-74425000D01*
X135061928Y-74425000D01*
X135065000Y-74614250D01*
X135223750Y-74773000D01*
X136098000Y-74773000D01*
X136098000Y-73948750D01*
X135939250Y-73790000D01*
X135700000Y-73786928D01*
X135575518Y-73799188D01*
X135455820Y-73835498D01*
X135345506Y-73894463D01*
X135248815Y-73973815D01*
X135169463Y-74070506D01*
X135110498Y-74180820D01*
X135074188Y-74300518D01*
X135061928Y-74425000D01*
X130441872Y-74425000D01*
X130441872Y-73360000D01*
X138385728Y-73360000D01*
X138385728Y-73799065D01*
X138262500Y-73786928D01*
X137687500Y-73786928D01*
X137516684Y-73803752D01*
X137352433Y-73853577D01*
X137201058Y-73934488D01*
X137177161Y-73954099D01*
X137104494Y-73894463D01*
X136994180Y-73835498D01*
X136874482Y-73799188D01*
X136750000Y-73786928D01*
X136510750Y-73790000D01*
X136352000Y-73948750D01*
X136352000Y-74773000D01*
X136372000Y-74773000D01*
X136372000Y-75027000D01*
X136352000Y-75027000D01*
X136352000Y-75047000D01*
X136098000Y-75047000D01*
X136098000Y-75027000D01*
X135223750Y-75027000D01*
X135065000Y-75185750D01*
X135061928Y-75375000D01*
X135074188Y-75499482D01*
X135110498Y-75619180D01*
X135169463Y-75729494D01*
X135248815Y-75826185D01*
X135345506Y-75905537D01*
X135455820Y-75964502D01*
X135575518Y-76000812D01*
X135700000Y-76013072D01*
X135709066Y-76012956D01*
X135699188Y-76045518D01*
X135686928Y-76170000D01*
X135686928Y-77230000D01*
X135699188Y-77354482D01*
X135735498Y-77474180D01*
X135794463Y-77584494D01*
X135873815Y-77681185D01*
X135970506Y-77760537D01*
X136044335Y-77800000D01*
X135970506Y-77839463D01*
X135873815Y-77918815D01*
X135794463Y-78015506D01*
X135735498Y-78125820D01*
X135699188Y-78245518D01*
X135686928Y-78370000D01*
X135686928Y-79430000D01*
X135694298Y-79504834D01*
X135608316Y-79478752D01*
X135437500Y-79461928D01*
X134962500Y-79461928D01*
X134791684Y-79478752D01*
X134627433Y-79528577D01*
X134476058Y-79609488D01*
X134343377Y-79718377D01*
X134234488Y-79851058D01*
X134153577Y-80002433D01*
X134103752Y-80166684D01*
X134086928Y-80337500D01*
X134086928Y-80912500D01*
X134103752Y-81083316D01*
X134153577Y-81247567D01*
X134234488Y-81398942D01*
X134254099Y-81422839D01*
X134194463Y-81495506D01*
X134135498Y-81605820D01*
X134099188Y-81725518D01*
X134086928Y-81850000D01*
X134090000Y-82089250D01*
X134248750Y-82248000D01*
X135073000Y-82248000D01*
X135073000Y-82228000D01*
X135327000Y-82228000D01*
X135327000Y-82248000D01*
X135347000Y-82248000D01*
X135347000Y-82493197D01*
X135338197Y-82502000D01*
X135327000Y-82502000D01*
X135327000Y-82513197D01*
X135318197Y-82522000D01*
X135073000Y-82522000D01*
X135073000Y-82502000D01*
X134248750Y-82502000D01*
X134090000Y-82660750D01*
X134086928Y-82900000D01*
X134099188Y-83024482D01*
X134135498Y-83144180D01*
X134194463Y-83254494D01*
X134273815Y-83351185D01*
X134370506Y-83430537D01*
X134460142Y-83478449D01*
X134425997Y-83591013D01*
X134415000Y-83702666D01*
X134415000Y-83702676D01*
X134411324Y-83739998D01*
X134415000Y-83777320D01*
X134415000Y-84437678D01*
X134411324Y-84475000D01*
X134415000Y-84512322D01*
X134415000Y-84512333D01*
X134425997Y-84623986D01*
X134469454Y-84767247D01*
X134540026Y-84899276D01*
X134635000Y-85015001D01*
X134663998Y-85038799D01*
X135443737Y-85818538D01*
X135382795Y-85909744D01*
X135304774Y-86098102D01*
X135265000Y-86298061D01*
X135265000Y-86501939D01*
X135304774Y-86701898D01*
X135382795Y-86890256D01*
X135496063Y-87059774D01*
X135640226Y-87203937D01*
X135809744Y-87317205D01*
X135998102Y-87395226D01*
X136198061Y-87435000D01*
X136401939Y-87435000D01*
X136601898Y-87395226D01*
X136790256Y-87317205D01*
X136952385Y-87208874D01*
X136944828Y-87285600D01*
X136944828Y-87470599D01*
X132455172Y-87470599D01*
X132455172Y-87285600D01*
X132442912Y-87161118D01*
X132406602Y-87041420D01*
X132347637Y-86931106D01*
X132346729Y-86930000D01*
X132347637Y-86928894D01*
X132406602Y-86818580D01*
X132442912Y-86698882D01*
X132455172Y-86574400D01*
X132455172Y-86015600D01*
X132442912Y-85891118D01*
X132406602Y-85771420D01*
X132347637Y-85661106D01*
X132268285Y-85564415D01*
X132171594Y-85485063D01*
X132061280Y-85426098D01*
X131941582Y-85389788D01*
X131860000Y-85381753D01*
X131860000Y-80837322D01*
X131863676Y-80799999D01*
X131860000Y-80762676D01*
X131860000Y-80762667D01*
X131849003Y-80651014D01*
X131805546Y-80507753D01*
X131798437Y-80494454D01*
X131734974Y-80375723D01*
X131663799Y-80288997D01*
X131640001Y-80259999D01*
X131611003Y-80236201D01*
X129997504Y-78622703D01*
X129973701Y-78593699D01*
X129857976Y-78498726D01*
X129725947Y-78428154D01*
X129582686Y-78384697D01*
X129471033Y-78373700D01*
X129471022Y-78373700D01*
X129433700Y-78370024D01*
X129396378Y-78373700D01*
X128484872Y-78373700D01*
X128484872Y-78183700D01*
X128472612Y-78059218D01*
X128436302Y-77939520D01*
X128377337Y-77829206D01*
X128297985Y-77732515D01*
X128201294Y-77653163D01*
X128090980Y-77594198D01*
X127971282Y-77557888D01*
X127846800Y-77545628D01*
X125746800Y-77545628D01*
X125622318Y-77557888D01*
X125502620Y-77594198D01*
X125392306Y-77653163D01*
X125295615Y-77732515D01*
X125216263Y-77829206D01*
X125157298Y-77939520D01*
X125120988Y-78059218D01*
X125108728Y-78183700D01*
X125108728Y-80083700D01*
X125120988Y-80208182D01*
X125157298Y-80327880D01*
X125216263Y-80438194D01*
X125295615Y-80534885D01*
X125392306Y-80614237D01*
X125478183Y-80660140D01*
X125372544Y-80788861D01*
X125225366Y-81064212D01*
X125134734Y-81362986D01*
X125104131Y-81673700D01*
X125134734Y-81984414D01*
X125225366Y-82283188D01*
X125372544Y-82558539D01*
X125570613Y-82799887D01*
X125745850Y-82943700D01*
X125570613Y-83087513D01*
X125372544Y-83328861D01*
X125225366Y-83604212D01*
X125134734Y-83902986D01*
X125104131Y-84213700D01*
X125134734Y-84524414D01*
X125225366Y-84823188D01*
X125372544Y-85098539D01*
X125570613Y-85339887D01*
X125745850Y-85483700D01*
X125570613Y-85627513D01*
X125372544Y-85868861D01*
X125225366Y-86144212D01*
X125134734Y-86442986D01*
X125104131Y-86753700D01*
X125134734Y-87064414D01*
X125225366Y-87363188D01*
X125372544Y-87638539D01*
X125570613Y-87879887D01*
X125745850Y-88023700D01*
X125570613Y-88167513D01*
X125372544Y-88408861D01*
X125225366Y-88684212D01*
X125134734Y-88982986D01*
X125104131Y-89293700D01*
X125134734Y-89604414D01*
X125225366Y-89903188D01*
X125372544Y-90178539D01*
X125570613Y-90419887D01*
X125745850Y-90563700D01*
X125570613Y-90707513D01*
X125372544Y-90948861D01*
X125225366Y-91224212D01*
X125134734Y-91522986D01*
X125104131Y-91833700D01*
X125134734Y-92144414D01*
X125225366Y-92443188D01*
X125372544Y-92718539D01*
X125570613Y-92959887D01*
X125745850Y-93103700D01*
X125570613Y-93247513D01*
X125372544Y-93488861D01*
X125225366Y-93764212D01*
X125134734Y-94062986D01*
X125104131Y-94373700D01*
X125134734Y-94684414D01*
X125225366Y-94983188D01*
X125372544Y-95258539D01*
X125570613Y-95499887D01*
X125745850Y-95643700D01*
X125570613Y-95787513D01*
X125372544Y-96028861D01*
X125225366Y-96304212D01*
X125134734Y-96602986D01*
X125104131Y-96913700D01*
X125134734Y-97224414D01*
X125225366Y-97523188D01*
X125372544Y-97798539D01*
X125570613Y-98039887D01*
X125745850Y-98183700D01*
X125570613Y-98327513D01*
X125372544Y-98568861D01*
X125225366Y-98844212D01*
X125134734Y-99142986D01*
X125104131Y-99453700D01*
X125134734Y-99764414D01*
X125225366Y-100063188D01*
X125372544Y-100338539D01*
X125570613Y-100579887D01*
X125753496Y-100729975D01*
X125601808Y-100848921D01*
X125399513Y-101084540D01*
X125247072Y-101355097D01*
X125156214Y-101621112D01*
X125276216Y-101866700D01*
X126669800Y-101866700D01*
X126669800Y-101846700D01*
X126923800Y-101846700D01*
X126923800Y-101866700D01*
X128317384Y-101866700D01*
X128437386Y-101621112D01*
X128346528Y-101355097D01*
X128194087Y-101084540D01*
X127991792Y-100848921D01*
X127840104Y-100729975D01*
X128022987Y-100579887D01*
X128221056Y-100338539D01*
X128368234Y-100063188D01*
X128458866Y-99764414D01*
X128489469Y-99453700D01*
X128458866Y-99142986D01*
X128368234Y-98844212D01*
X128221056Y-98568861D01*
X128022987Y-98327513D01*
X127847750Y-98183700D01*
X128022987Y-98039887D01*
X128221056Y-97798539D01*
X128368234Y-97523188D01*
X128458866Y-97224414D01*
X128489469Y-96913700D01*
X128458866Y-96602986D01*
X128368234Y-96304212D01*
X128221056Y-96028861D01*
X128022987Y-95787513D01*
X127847750Y-95643700D01*
X128022987Y-95499887D01*
X128221056Y-95258539D01*
X128302926Y-95105370D01*
X128389047Y-95079246D01*
X128521076Y-95008674D01*
X128636801Y-94913701D01*
X128660603Y-94884698D01*
X128966328Y-94578974D01*
X128966328Y-95096700D01*
X128978588Y-95221182D01*
X129014898Y-95340880D01*
X129073863Y-95451194D01*
X129153215Y-95547885D01*
X129249906Y-95627237D01*
X129360220Y-95686202D01*
X129479918Y-95722512D01*
X129575312Y-95731907D01*
X129443418Y-95771916D01*
X129307171Y-95844742D01*
X129187749Y-95942749D01*
X129089742Y-96062171D01*
X129016916Y-96198418D01*
X128972071Y-96346255D01*
X128956928Y-96500000D01*
X128956928Y-98150000D01*
X128972071Y-98303745D01*
X129016916Y-98451582D01*
X129089742Y-98587829D01*
X129187749Y-98707251D01*
X129307171Y-98805258D01*
X129443418Y-98878084D01*
X129591255Y-98922929D01*
X129745000Y-98938072D01*
X130045000Y-98938072D01*
X130198745Y-98922929D01*
X130346582Y-98878084D01*
X130482829Y-98805258D01*
X130530000Y-98766546D01*
X130577171Y-98805258D01*
X130713418Y-98878084D01*
X130861255Y-98922929D01*
X131015000Y-98938072D01*
X131315000Y-98938072D01*
X131468745Y-98922929D01*
X131616582Y-98878084D01*
X131752829Y-98805258D01*
X131800000Y-98766546D01*
X131847171Y-98805258D01*
X131983418Y-98878084D01*
X132131255Y-98922929D01*
X132285000Y-98938072D01*
X132585000Y-98938072D01*
X132738745Y-98922929D01*
X132886582Y-98878084D01*
X133022829Y-98805258D01*
X133070000Y-98766546D01*
X133080629Y-98775269D01*
X131924003Y-99931896D01*
X131894999Y-99955699D01*
X131839871Y-100022874D01*
X131800026Y-100071424D01*
X131729455Y-100203453D01*
X131729454Y-100203454D01*
X131685997Y-100346715D01*
X131675000Y-100458368D01*
X131675000Y-100458378D01*
X131671324Y-100495700D01*
X131675000Y-100533023D01*
X131675000Y-100753141D01*
X131616582Y-100721916D01*
X131468745Y-100677071D01*
X131315000Y-100661928D01*
X131015000Y-100661928D01*
X130861255Y-100677071D01*
X130713418Y-100721916D01*
X130577171Y-100794742D01*
X130530000Y-100833454D01*
X130482829Y-100794742D01*
X130346582Y-100721916D01*
X130198745Y-100677071D01*
X130045000Y-100661928D01*
X129745000Y-100661928D01*
X129591255Y-100677071D01*
X129443418Y-100721916D01*
X129307171Y-100794742D01*
X129187749Y-100892749D01*
X129089742Y-101012171D01*
X129016916Y-101148418D01*
X128972071Y-101296255D01*
X128956928Y-101450000D01*
X128956928Y-103100000D01*
X128972071Y-103253745D01*
X128998236Y-103340000D01*
X127727872Y-103340000D01*
X127747417Y-103330105D01*
X127991792Y-103138479D01*
X128194087Y-102902860D01*
X128346528Y-102632303D01*
X128437386Y-102366288D01*
X128317384Y-102120700D01*
X126923800Y-102120700D01*
X126923800Y-102140700D01*
X126669800Y-102140700D01*
X126669800Y-102120700D01*
X125276216Y-102120700D01*
X125156214Y-102366288D01*
X125247072Y-102632303D01*
X125399513Y-102902860D01*
X125601808Y-103138479D01*
X125846183Y-103330105D01*
X125865728Y-103340000D01*
X124960000Y-103340000D01*
X124960000Y-74017384D01*
X124993310Y-74184845D01*
X125060023Y-74345905D01*
X125156876Y-74490855D01*
X125280145Y-74614124D01*
X125425095Y-74710977D01*
X125586155Y-74777690D01*
X125757135Y-74811700D01*
X125931465Y-74811700D01*
X126102445Y-74777690D01*
X126263505Y-74710977D01*
X126408455Y-74614124D01*
X126531724Y-74490855D01*
X126628577Y-74345905D01*
X126695290Y-74184845D01*
X126729300Y-74013865D01*
X126729300Y-73839535D01*
X126695290Y-73668555D01*
X126628577Y-73507495D01*
X126531724Y-73362545D01*
X126529179Y-73360000D01*
X127265728Y-73360000D01*
X127265728Y-75093700D01*
G37*
X127265728Y-75093700D02*
X127277988Y-75218182D01*
X127314298Y-75337880D01*
X127373263Y-75448194D01*
X127452615Y-75544885D01*
X127549306Y-75624237D01*
X127659620Y-75683202D01*
X127779318Y-75719512D01*
X127903800Y-75731772D01*
X129803800Y-75731772D01*
X129928282Y-75719512D01*
X130047980Y-75683202D01*
X130158294Y-75624237D01*
X130254985Y-75544885D01*
X130334337Y-75448194D01*
X130393302Y-75337880D01*
X130429612Y-75218182D01*
X130441872Y-75093700D01*
X130441872Y-74425000D01*
X135061928Y-74425000D01*
X135065000Y-74614250D01*
X135223750Y-74773000D01*
X136098000Y-74773000D01*
X136098000Y-73948750D01*
X135939250Y-73790000D01*
X135700000Y-73786928D01*
X135575518Y-73799188D01*
X135455820Y-73835498D01*
X135345506Y-73894463D01*
X135248815Y-73973815D01*
X135169463Y-74070506D01*
X135110498Y-74180820D01*
X135074188Y-74300518D01*
X135061928Y-74425000D01*
X130441872Y-74425000D01*
X130441872Y-73360000D01*
X138385728Y-73360000D01*
X138385728Y-73799065D01*
X138262500Y-73786928D01*
X137687500Y-73786928D01*
X137516684Y-73803752D01*
X137352433Y-73853577D01*
X137201058Y-73934488D01*
X137177161Y-73954099D01*
X137104494Y-73894463D01*
X136994180Y-73835498D01*
X136874482Y-73799188D01*
X136750000Y-73786928D01*
X136510750Y-73790000D01*
X136352000Y-73948750D01*
X136352000Y-74773000D01*
X136372000Y-74773000D01*
X136372000Y-75027000D01*
X136352000Y-75027000D01*
X136352000Y-75047000D01*
X136098000Y-75047000D01*
X136098000Y-75027000D01*
X135223750Y-75027000D01*
X135065000Y-75185750D01*
X135061928Y-75375000D01*
X135074188Y-75499482D01*
X135110498Y-75619180D01*
X135169463Y-75729494D01*
X135248815Y-75826185D01*
X135345506Y-75905537D01*
X135455820Y-75964502D01*
X135575518Y-76000812D01*
X135700000Y-76013072D01*
X135709066Y-76012956D01*
X135699188Y-76045518D01*
X135686928Y-76170000D01*
X135686928Y-77230000D01*
X135699188Y-77354482D01*
X135735498Y-77474180D01*
X135794463Y-77584494D01*
X135873815Y-77681185D01*
X135970506Y-77760537D01*
X136044335Y-77800000D01*
X135970506Y-77839463D01*
X135873815Y-77918815D01*
X135794463Y-78015506D01*
X135735498Y-78125820D01*
X135699188Y-78245518D01*
X135686928Y-78370000D01*
X135686928Y-79430000D01*
X135694298Y-79504834D01*
X135608316Y-79478752D01*
X135437500Y-79461928D01*
X134962500Y-79461928D01*
X134791684Y-79478752D01*
X134627433Y-79528577D01*
X134476058Y-79609488D01*
X134343377Y-79718377D01*
X134234488Y-79851058D01*
X134153577Y-80002433D01*
X134103752Y-80166684D01*
X134086928Y-80337500D01*
X134086928Y-80912500D01*
X134103752Y-81083316D01*
X134153577Y-81247567D01*
X134234488Y-81398942D01*
X134254099Y-81422839D01*
X134194463Y-81495506D01*
X134135498Y-81605820D01*
X134099188Y-81725518D01*
X134086928Y-81850000D01*
X134090000Y-82089250D01*
X134248750Y-82248000D01*
X135073000Y-82248000D01*
X135073000Y-82228000D01*
X135327000Y-82228000D01*
X135327000Y-82248000D01*
X135347000Y-82248000D01*
X135347000Y-82493197D01*
X135338197Y-82502000D01*
X135327000Y-82502000D01*
X135327000Y-82513197D01*
X135318197Y-82522000D01*
X135073000Y-82522000D01*
X135073000Y-82502000D01*
X134248750Y-82502000D01*
X134090000Y-82660750D01*
X134086928Y-82900000D01*
X134099188Y-83024482D01*
X134135498Y-83144180D01*
X134194463Y-83254494D01*
X134273815Y-83351185D01*
X134370506Y-83430537D01*
X134460142Y-83478449D01*
X134425997Y-83591013D01*
X134415000Y-83702666D01*
X134415000Y-83702676D01*
X134411324Y-83739998D01*
X134415000Y-83777320D01*
X134415000Y-84437678D01*
X134411324Y-84475000D01*
X134415000Y-84512322D01*
X134415000Y-84512333D01*
X134425997Y-84623986D01*
X134469454Y-84767247D01*
X134540026Y-84899276D01*
X134635000Y-85015001D01*
X134663998Y-85038799D01*
X135443737Y-85818538D01*
X135382795Y-85909744D01*
X135304774Y-86098102D01*
X135265000Y-86298061D01*
X135265000Y-86501939D01*
X135304774Y-86701898D01*
X135382795Y-86890256D01*
X135496063Y-87059774D01*
X135640226Y-87203937D01*
X135809744Y-87317205D01*
X135998102Y-87395226D01*
X136198061Y-87435000D01*
X136401939Y-87435000D01*
X136601898Y-87395226D01*
X136790256Y-87317205D01*
X136952385Y-87208874D01*
X136944828Y-87285600D01*
X136944828Y-87470599D01*
X132455172Y-87470599D01*
X132455172Y-87285600D01*
X132442912Y-87161118D01*
X132406602Y-87041420D01*
X132347637Y-86931106D01*
X132346729Y-86930000D01*
X132347637Y-86928894D01*
X132406602Y-86818580D01*
X132442912Y-86698882D01*
X132455172Y-86574400D01*
X132455172Y-86015600D01*
X132442912Y-85891118D01*
X132406602Y-85771420D01*
X132347637Y-85661106D01*
X132268285Y-85564415D01*
X132171594Y-85485063D01*
X132061280Y-85426098D01*
X131941582Y-85389788D01*
X131860000Y-85381753D01*
X131860000Y-80837322D01*
X131863676Y-80799999D01*
X131860000Y-80762676D01*
X131860000Y-80762667D01*
X131849003Y-80651014D01*
X131805546Y-80507753D01*
X131798437Y-80494454D01*
X131734974Y-80375723D01*
X131663799Y-80288997D01*
X131640001Y-80259999D01*
X131611003Y-80236201D01*
X129997504Y-78622703D01*
X129973701Y-78593699D01*
X129857976Y-78498726D01*
X129725947Y-78428154D01*
X129582686Y-78384697D01*
X129471033Y-78373700D01*
X129471022Y-78373700D01*
X129433700Y-78370024D01*
X129396378Y-78373700D01*
X128484872Y-78373700D01*
X128484872Y-78183700D01*
X128472612Y-78059218D01*
X128436302Y-77939520D01*
X128377337Y-77829206D01*
X128297985Y-77732515D01*
X128201294Y-77653163D01*
X128090980Y-77594198D01*
X127971282Y-77557888D01*
X127846800Y-77545628D01*
X125746800Y-77545628D01*
X125622318Y-77557888D01*
X125502620Y-77594198D01*
X125392306Y-77653163D01*
X125295615Y-77732515D01*
X125216263Y-77829206D01*
X125157298Y-77939520D01*
X125120988Y-78059218D01*
X125108728Y-78183700D01*
X125108728Y-80083700D01*
X125120988Y-80208182D01*
X125157298Y-80327880D01*
X125216263Y-80438194D01*
X125295615Y-80534885D01*
X125392306Y-80614237D01*
X125478183Y-80660140D01*
X125372544Y-80788861D01*
X125225366Y-81064212D01*
X125134734Y-81362986D01*
X125104131Y-81673700D01*
X125134734Y-81984414D01*
X125225366Y-82283188D01*
X125372544Y-82558539D01*
X125570613Y-82799887D01*
X125745850Y-82943700D01*
X125570613Y-83087513D01*
X125372544Y-83328861D01*
X125225366Y-83604212D01*
X125134734Y-83902986D01*
X125104131Y-84213700D01*
X125134734Y-84524414D01*
X125225366Y-84823188D01*
X125372544Y-85098539D01*
X125570613Y-85339887D01*
X125745850Y-85483700D01*
X125570613Y-85627513D01*
X125372544Y-85868861D01*
X125225366Y-86144212D01*
X125134734Y-86442986D01*
X125104131Y-86753700D01*
X125134734Y-87064414D01*
X125225366Y-87363188D01*
X125372544Y-87638539D01*
X125570613Y-87879887D01*
X125745850Y-88023700D01*
X125570613Y-88167513D01*
X125372544Y-88408861D01*
X125225366Y-88684212D01*
X125134734Y-88982986D01*
X125104131Y-89293700D01*
X125134734Y-89604414D01*
X125225366Y-89903188D01*
X125372544Y-90178539D01*
X125570613Y-90419887D01*
X125745850Y-90563700D01*
X125570613Y-90707513D01*
X125372544Y-90948861D01*
X125225366Y-91224212D01*
X125134734Y-91522986D01*
X125104131Y-91833700D01*
X125134734Y-92144414D01*
X125225366Y-92443188D01*
X125372544Y-92718539D01*
X125570613Y-92959887D01*
X125745850Y-93103700D01*
X125570613Y-93247513D01*
X125372544Y-93488861D01*
X125225366Y-93764212D01*
X125134734Y-94062986D01*
X125104131Y-94373700D01*
X125134734Y-94684414D01*
X125225366Y-94983188D01*
X125372544Y-95258539D01*
X125570613Y-95499887D01*
X125745850Y-95643700D01*
X125570613Y-95787513D01*
X125372544Y-96028861D01*
X125225366Y-96304212D01*
X125134734Y-96602986D01*
X125104131Y-96913700D01*
X125134734Y-97224414D01*
X125225366Y-97523188D01*
X125372544Y-97798539D01*
X125570613Y-98039887D01*
X125745850Y-98183700D01*
X125570613Y-98327513D01*
X125372544Y-98568861D01*
X125225366Y-98844212D01*
X125134734Y-99142986D01*
X125104131Y-99453700D01*
X125134734Y-99764414D01*
X125225366Y-100063188D01*
X125372544Y-100338539D01*
X125570613Y-100579887D01*
X125753496Y-100729975D01*
X125601808Y-100848921D01*
X125399513Y-101084540D01*
X125247072Y-101355097D01*
X125156214Y-101621112D01*
X125276216Y-101866700D01*
X126669800Y-101866700D01*
X126669800Y-101846700D01*
X126923800Y-101846700D01*
X126923800Y-101866700D01*
X128317384Y-101866700D01*
X128437386Y-101621112D01*
X128346528Y-101355097D01*
X128194087Y-101084540D01*
X127991792Y-100848921D01*
X127840104Y-100729975D01*
X128022987Y-100579887D01*
X128221056Y-100338539D01*
X128368234Y-100063188D01*
X128458866Y-99764414D01*
X128489469Y-99453700D01*
X128458866Y-99142986D01*
X128368234Y-98844212D01*
X128221056Y-98568861D01*
X128022987Y-98327513D01*
X127847750Y-98183700D01*
X128022987Y-98039887D01*
X128221056Y-97798539D01*
X128368234Y-97523188D01*
X128458866Y-97224414D01*
X128489469Y-96913700D01*
X128458866Y-96602986D01*
X128368234Y-96304212D01*
X128221056Y-96028861D01*
X128022987Y-95787513D01*
X127847750Y-95643700D01*
X128022987Y-95499887D01*
X128221056Y-95258539D01*
X128302926Y-95105370D01*
X128389047Y-95079246D01*
X128521076Y-95008674D01*
X128636801Y-94913701D01*
X128660603Y-94884698D01*
X128966328Y-94578974D01*
X128966328Y-95096700D01*
X128978588Y-95221182D01*
X129014898Y-95340880D01*
X129073863Y-95451194D01*
X129153215Y-95547885D01*
X129249906Y-95627237D01*
X129360220Y-95686202D01*
X129479918Y-95722512D01*
X129575312Y-95731907D01*
X129443418Y-95771916D01*
X129307171Y-95844742D01*
X129187749Y-95942749D01*
X129089742Y-96062171D01*
X129016916Y-96198418D01*
X128972071Y-96346255D01*
X128956928Y-96500000D01*
X128956928Y-98150000D01*
X128972071Y-98303745D01*
X129016916Y-98451582D01*
X129089742Y-98587829D01*
X129187749Y-98707251D01*
X129307171Y-98805258D01*
X129443418Y-98878084D01*
X129591255Y-98922929D01*
X129745000Y-98938072D01*
X130045000Y-98938072D01*
X130198745Y-98922929D01*
X130346582Y-98878084D01*
X130482829Y-98805258D01*
X130530000Y-98766546D01*
X130577171Y-98805258D01*
X130713418Y-98878084D01*
X130861255Y-98922929D01*
X131015000Y-98938072D01*
X131315000Y-98938072D01*
X131468745Y-98922929D01*
X131616582Y-98878084D01*
X131752829Y-98805258D01*
X131800000Y-98766546D01*
X131847171Y-98805258D01*
X131983418Y-98878084D01*
X132131255Y-98922929D01*
X132285000Y-98938072D01*
X132585000Y-98938072D01*
X132738745Y-98922929D01*
X132886582Y-98878084D01*
X133022829Y-98805258D01*
X133070000Y-98766546D01*
X133080629Y-98775269D01*
X131924003Y-99931896D01*
X131894999Y-99955699D01*
X131839871Y-100022874D01*
X131800026Y-100071424D01*
X131729455Y-100203453D01*
X131729454Y-100203454D01*
X131685997Y-100346715D01*
X131675000Y-100458368D01*
X131675000Y-100458378D01*
X131671324Y-100495700D01*
X131675000Y-100533023D01*
X131675000Y-100753141D01*
X131616582Y-100721916D01*
X131468745Y-100677071D01*
X131315000Y-100661928D01*
X131015000Y-100661928D01*
X130861255Y-100677071D01*
X130713418Y-100721916D01*
X130577171Y-100794742D01*
X130530000Y-100833454D01*
X130482829Y-100794742D01*
X130346582Y-100721916D01*
X130198745Y-100677071D01*
X130045000Y-100661928D01*
X129745000Y-100661928D01*
X129591255Y-100677071D01*
X129443418Y-100721916D01*
X129307171Y-100794742D01*
X129187749Y-100892749D01*
X129089742Y-101012171D01*
X129016916Y-101148418D01*
X128972071Y-101296255D01*
X128956928Y-101450000D01*
X128956928Y-103100000D01*
X128972071Y-103253745D01*
X128998236Y-103340000D01*
X127727872Y-103340000D01*
X127747417Y-103330105D01*
X127991792Y-103138479D01*
X128194087Y-102902860D01*
X128346528Y-102632303D01*
X128437386Y-102366288D01*
X128317384Y-102120700D01*
X126923800Y-102120700D01*
X126923800Y-102140700D01*
X126669800Y-102140700D01*
X126669800Y-102120700D01*
X125276216Y-102120700D01*
X125156214Y-102366288D01*
X125247072Y-102632303D01*
X125399513Y-102902860D01*
X125601808Y-103138479D01*
X125846183Y-103330105D01*
X125865728Y-103340000D01*
X124960000Y-103340000D01*
X124960000Y-74017384D01*
X124993310Y-74184845D01*
X125060023Y-74345905D01*
X125156876Y-74490855D01*
X125280145Y-74614124D01*
X125425095Y-74710977D01*
X125586155Y-74777690D01*
X125757135Y-74811700D01*
X125931465Y-74811700D01*
X126102445Y-74777690D01*
X126263505Y-74710977D01*
X126408455Y-74614124D01*
X126531724Y-74490855D01*
X126628577Y-74345905D01*
X126695290Y-74184845D01*
X126729300Y-74013865D01*
X126729300Y-73839535D01*
X126695290Y-73668555D01*
X126628577Y-73507495D01*
X126531724Y-73362545D01*
X126529179Y-73360000D01*
X127265728Y-73360000D01*
X127265728Y-75093700D01*
G36*
X156905820Y-76564502D02*
G01*
X157025518Y-76600812D01*
X157107892Y-76608925D01*
X157085498Y-76650820D01*
X157049188Y-76770518D01*
X157036928Y-76895000D01*
X157036928Y-78135000D01*
X157049188Y-78259482D01*
X157085498Y-78379180D01*
X157144463Y-78489494D01*
X157223815Y-78586185D01*
X157281898Y-78633852D01*
X157127000Y-78788750D01*
X157127000Y-78943176D01*
X157085498Y-79020820D01*
X157049188Y-79140518D01*
X157036928Y-79265000D01*
X157036928Y-80505000D01*
X157049188Y-80629482D01*
X157085498Y-80749180D01*
X157127000Y-80826824D01*
X157127000Y-80981250D01*
X157190000Y-81044250D01*
X157190001Y-81857228D01*
X157174300Y-81857228D01*
X157049818Y-81869488D01*
X156930120Y-81905798D01*
X156819806Y-81964763D01*
X156723115Y-82044115D01*
X156643763Y-82140806D01*
X156584798Y-82251120D01*
X156548488Y-82370818D01*
X156536228Y-82495300D01*
X156536228Y-83595300D01*
X156548488Y-83719782D01*
X156584798Y-83839480D01*
X156643763Y-83949794D01*
X156723115Y-84046485D01*
X156819806Y-84125837D01*
X156930120Y-84184802D01*
X157049818Y-84221112D01*
X157174300Y-84233372D01*
X158274300Y-84233372D01*
X158398782Y-84221112D01*
X158518480Y-84184802D01*
X158628794Y-84125837D01*
X158725485Y-84046485D01*
X158804837Y-83949794D01*
X158863802Y-83839480D01*
X158900112Y-83719782D01*
X158912372Y-83595300D01*
X158912372Y-82495300D01*
X158900112Y-82370818D01*
X158863802Y-82251120D01*
X158804837Y-82140806D01*
X158725485Y-82044115D01*
X158710000Y-82031407D01*
X158710000Y-80914981D01*
X158755537Y-80859494D01*
X158814502Y-80749180D01*
X158850812Y-80629482D01*
X158856810Y-80568586D01*
X159002433Y-80646423D01*
X159166684Y-80696248D01*
X159337500Y-80713072D01*
X159912500Y-80713072D01*
X160083316Y-80696248D01*
X160247567Y-80646423D01*
X160398942Y-80565512D01*
X160422839Y-80545901D01*
X160495506Y-80605537D01*
X160605820Y-80664502D01*
X160725518Y-80700812D01*
X160850000Y-80713072D01*
X161089250Y-80710000D01*
X161248000Y-80551250D01*
X161248000Y-79727000D01*
X161502000Y-79727000D01*
X161502000Y-80551250D01*
X161660750Y-80710000D01*
X161900000Y-80713072D01*
X162024482Y-80700812D01*
X162144180Y-80664502D01*
X162254494Y-80605537D01*
X162351185Y-80526185D01*
X162430537Y-80429494D01*
X162489502Y-80319180D01*
X162525812Y-80199482D01*
X162538072Y-80075000D01*
X162535000Y-79885750D01*
X162376250Y-79727000D01*
X161502000Y-79727000D01*
X161248000Y-79727000D01*
X161228000Y-79727000D01*
X161228000Y-79473000D01*
X161248000Y-79473000D01*
X161248000Y-78648750D01*
X161089250Y-78490000D01*
X160850000Y-78486928D01*
X160725518Y-78499188D01*
X160605820Y-78535498D01*
X160495506Y-78594463D01*
X160422839Y-78654099D01*
X160398942Y-78634488D01*
X160360000Y-78613673D01*
X160360000Y-78337325D01*
X160363676Y-78300000D01*
X160360000Y-78262675D01*
X160360000Y-78262667D01*
X160349003Y-78151014D01*
X160305546Y-78007753D01*
X160280330Y-77960579D01*
X160657124Y-78212344D01*
X161173061Y-78426052D01*
X161633175Y-78517575D01*
X161502000Y-78648750D01*
X161502000Y-79473000D01*
X162376250Y-79473000D01*
X162535000Y-79314250D01*
X162538072Y-79125000D01*
X162525812Y-79000518D01*
X162489502Y-78880820D01*
X162430537Y-78770506D01*
X162351185Y-78673815D01*
X162254494Y-78594463D01*
X162144180Y-78535498D01*
X162142538Y-78535000D01*
X162279223Y-78535000D01*
X162826939Y-78426052D01*
X163342876Y-78212344D01*
X163807207Y-77902088D01*
X164202088Y-77507207D01*
X164340000Y-77300807D01*
X164340001Y-102114532D01*
X164287424Y-102035845D01*
X164164155Y-101912576D01*
X164019205Y-101815723D01*
X163858145Y-101749010D01*
X163687165Y-101715000D01*
X163512835Y-101715000D01*
X163341855Y-101749010D01*
X163180795Y-101815723D01*
X163035845Y-101912576D01*
X162912576Y-102035845D01*
X162815723Y-102180795D01*
X162749010Y-102341855D01*
X162715000Y-102512835D01*
X162715000Y-102687165D01*
X162749010Y-102858145D01*
X162815723Y-103019205D01*
X162912576Y-103164155D01*
X163035845Y-103287424D01*
X163114530Y-103340000D01*
X142937872Y-103340000D01*
X142957417Y-103330105D01*
X143201792Y-103138479D01*
X143404087Y-102902860D01*
X143556528Y-102632303D01*
X143647386Y-102366288D01*
X143527384Y-102120700D01*
X142133800Y-102120700D01*
X142133800Y-102140700D01*
X141879800Y-102140700D01*
X141879800Y-102120700D01*
X140486216Y-102120700D01*
X140366214Y-102366288D01*
X140457072Y-102632303D01*
X140609513Y-102902860D01*
X140811808Y-103138479D01*
X141056183Y-103330105D01*
X141075728Y-103340000D01*
X134634208Y-103340000D01*
X134643072Y-103250000D01*
X134640000Y-102560750D01*
X134481250Y-102402000D01*
X133832000Y-102402000D01*
X133832000Y-102422000D01*
X133578000Y-102422000D01*
X133578000Y-102402000D01*
X133558000Y-102402000D01*
X133558000Y-102148000D01*
X133578000Y-102148000D01*
X133578000Y-100823750D01*
X133832000Y-100823750D01*
X133832000Y-102148000D01*
X134481250Y-102148000D01*
X134640000Y-101989250D01*
X134643072Y-101300000D01*
X134630812Y-101175518D01*
X134594502Y-101055820D01*
X134535537Y-100945506D01*
X134456185Y-100848815D01*
X134359494Y-100769463D01*
X134249180Y-100710498D01*
X134129482Y-100674188D01*
X134005000Y-100661928D01*
X133990750Y-100665000D01*
X133832000Y-100823750D01*
X133578000Y-100823750D01*
X133419250Y-100665000D01*
X133405000Y-100661928D01*
X133336862Y-100668639D01*
X135345603Y-98659899D01*
X135374601Y-98636101D01*
X135469574Y-98520376D01*
X135540146Y-98388347D01*
X135583603Y-98245086D01*
X135594600Y-98133433D01*
X135594600Y-98133423D01*
X135598276Y-98096100D01*
X135594600Y-98058777D01*
X135594600Y-95892764D01*
X135608542Y-95885312D01*
X135741223Y-95776423D01*
X135850112Y-95643742D01*
X135931023Y-95492367D01*
X135980848Y-95328116D01*
X135997672Y-95157300D01*
X135997672Y-94831530D01*
X136260003Y-94569199D01*
X136289001Y-94545401D01*
X136353632Y-94466648D01*
X136383974Y-94429677D01*
X136398555Y-94402398D01*
X136522942Y-94335912D01*
X136655623Y-94227023D01*
X136764512Y-94094342D01*
X136845423Y-93942967D01*
X136895248Y-93778716D01*
X136912072Y-93607900D01*
X136912072Y-93132900D01*
X136895248Y-92962084D01*
X136845423Y-92797833D01*
X136764512Y-92646458D01*
X136655623Y-92513777D01*
X136560884Y-92436027D01*
X136579637Y-92417274D01*
X136692905Y-92247756D01*
X136770926Y-92059398D01*
X136810700Y-91859439D01*
X136810700Y-91655561D01*
X136770926Y-91455602D01*
X136692905Y-91267244D01*
X136579637Y-91097726D01*
X136435474Y-90953563D01*
X136302930Y-90865000D01*
X137167557Y-90865000D01*
X137228406Y-90914937D01*
X137338720Y-90973902D01*
X137458418Y-91010212D01*
X137582900Y-91022472D01*
X138671902Y-91022472D01*
X138671902Y-91933165D01*
X138671901Y-91933175D01*
X138671902Y-93966669D01*
X138668225Y-94004001D01*
X138671902Y-94041334D01*
X138682899Y-94152987D01*
X138688302Y-94170797D01*
X138726355Y-94296247D01*
X138796927Y-94428277D01*
X138865214Y-94511484D01*
X138891901Y-94544002D01*
X138920899Y-94567800D01*
X139275896Y-94922797D01*
X139299699Y-94951801D01*
X139415424Y-95046774D01*
X139547453Y-95117346D01*
X139690714Y-95160803D01*
X139802367Y-95171800D01*
X139802377Y-95171800D01*
X139839700Y-95175476D01*
X139877023Y-95171800D01*
X140536181Y-95171800D01*
X140582544Y-95258539D01*
X140780613Y-95499887D01*
X140955850Y-95643700D01*
X140780613Y-95787513D01*
X140582544Y-96028861D01*
X140435366Y-96304212D01*
X140344734Y-96602986D01*
X140314131Y-96913700D01*
X140344734Y-97224414D01*
X140435366Y-97523188D01*
X140582544Y-97798539D01*
X140780613Y-98039887D01*
X140955850Y-98183700D01*
X140780613Y-98327513D01*
X140582544Y-98568861D01*
X140435366Y-98844212D01*
X140344734Y-99142986D01*
X140314131Y-99453700D01*
X140344734Y-99764414D01*
X140435366Y-100063188D01*
X140582544Y-100338539D01*
X140780613Y-100579887D01*
X140963496Y-100729975D01*
X140811808Y-100848921D01*
X140609513Y-101084540D01*
X140457072Y-101355097D01*
X140366214Y-101621112D01*
X140486216Y-101866700D01*
X141879800Y-101866700D01*
X141879800Y-101846700D01*
X142133800Y-101846700D01*
X142133800Y-101866700D01*
X143527384Y-101866700D01*
X143647386Y-101621112D01*
X143556528Y-101355097D01*
X143404087Y-101084540D01*
X143201792Y-100848921D01*
X143050104Y-100729975D01*
X143232987Y-100579887D01*
X143431056Y-100338539D01*
X143578234Y-100063188D01*
X143668866Y-99764414D01*
X143699469Y-99453700D01*
X143668866Y-99142986D01*
X143578234Y-98844212D01*
X143431056Y-98568861D01*
X143232987Y-98327513D01*
X143057750Y-98183700D01*
X143232987Y-98039887D01*
X143431056Y-97798539D01*
X143578234Y-97523188D01*
X143668866Y-97224414D01*
X143699469Y-96913700D01*
X143668866Y-96602986D01*
X143578234Y-96304212D01*
X143431056Y-96028861D01*
X143232987Y-95787513D01*
X143057750Y-95643700D01*
X143232987Y-95499887D01*
X143431056Y-95258539D01*
X143578234Y-94983188D01*
X143668866Y-94684414D01*
X143699469Y-94373700D01*
X143668866Y-94062986D01*
X143578234Y-93764212D01*
X143431056Y-93488861D01*
X143232987Y-93247513D01*
X143057750Y-93103700D01*
X143232987Y-92959887D01*
X143431056Y-92718539D01*
X143578234Y-92443188D01*
X143668866Y-92144414D01*
X143699469Y-91833700D01*
X143668866Y-91522986D01*
X143578234Y-91224212D01*
X143431056Y-90948861D01*
X143232987Y-90707513D01*
X143057750Y-90563700D01*
X143232987Y-90419887D01*
X143431056Y-90178539D01*
X143578234Y-89903188D01*
X143668866Y-89604414D01*
X143699469Y-89293700D01*
X143668866Y-88982986D01*
X143578234Y-88684212D01*
X143431056Y-88408861D01*
X143232987Y-88167513D01*
X143057750Y-88023700D01*
X143232987Y-87879887D01*
X143431056Y-87638539D01*
X143578234Y-87363188D01*
X143668866Y-87064414D01*
X143699469Y-86753700D01*
X143668866Y-86442986D01*
X143578234Y-86144212D01*
X143431056Y-85868861D01*
X143232987Y-85627513D01*
X143050104Y-85477425D01*
X143201792Y-85358479D01*
X143404087Y-85122860D01*
X143556528Y-84852303D01*
X143647386Y-84586288D01*
X143527384Y-84340700D01*
X142133800Y-84340700D01*
X142133800Y-84360700D01*
X141879800Y-84360700D01*
X141879800Y-84340700D01*
X140486216Y-84340700D01*
X140366214Y-84586288D01*
X140457072Y-84852303D01*
X140609513Y-85122860D01*
X140811808Y-85358479D01*
X140963496Y-85477425D01*
X140780613Y-85627513D01*
X140582544Y-85868861D01*
X140435366Y-86144212D01*
X140344734Y-86442986D01*
X140314131Y-86753700D01*
X140344734Y-87064414D01*
X140435366Y-87363188D01*
X140582544Y-87638539D01*
X140780613Y-87879887D01*
X140955850Y-88023700D01*
X140780613Y-88167513D01*
X140582544Y-88408861D01*
X140435366Y-88684212D01*
X140344734Y-88982986D01*
X140314131Y-89293700D01*
X140344734Y-89604414D01*
X140435366Y-89903188D01*
X140582544Y-90178539D01*
X140780613Y-90419887D01*
X140955850Y-90563700D01*
X140780613Y-90707513D01*
X140582544Y-90948861D01*
X140435366Y-91224212D01*
X140344734Y-91522986D01*
X140314131Y-91833700D01*
X140344734Y-92144414D01*
X140435366Y-92443188D01*
X140582544Y-92718539D01*
X140780613Y-92959887D01*
X140955850Y-93103700D01*
X140780613Y-93247513D01*
X140582544Y-93488861D01*
X140500674Y-93642030D01*
X140468466Y-93651800D01*
X140191901Y-93651800D01*
X140191901Y-87677323D01*
X140195577Y-87640000D01*
X140191901Y-87602678D01*
X140191901Y-87602668D01*
X140180904Y-87491015D01*
X140137447Y-87347754D01*
X140066875Y-87215725D01*
X139971902Y-87100000D01*
X139942903Y-87076201D01*
X139920702Y-87054000D01*
X139896901Y-87024999D01*
X139781176Y-86930026D01*
X139668908Y-86870017D01*
X139696402Y-86818580D01*
X139732712Y-86698882D01*
X139744972Y-86574400D01*
X139744972Y-86015600D01*
X139732712Y-85891118D01*
X139696402Y-85771420D01*
X139637437Y-85661106D01*
X139558085Y-85564415D01*
X139461394Y-85485063D01*
X139351080Y-85426098D01*
X139231382Y-85389788D01*
X139106900Y-85377528D01*
X137582900Y-85377528D01*
X137458418Y-85389788D01*
X137338720Y-85426098D01*
X137248907Y-85474105D01*
X135935000Y-84160199D01*
X135935000Y-84054799D01*
X136014427Y-83975372D01*
X136024188Y-84074482D01*
X136060498Y-84194180D01*
X136119463Y-84304494D01*
X136198815Y-84401185D01*
X136295506Y-84480537D01*
X136405820Y-84539502D01*
X136525518Y-84575812D01*
X136650000Y-84588072D01*
X137750000Y-84588072D01*
X137874482Y-84575812D01*
X137994180Y-84539502D01*
X138104494Y-84480537D01*
X138201185Y-84401185D01*
X138280537Y-84304494D01*
X138312726Y-84244274D01*
X138343377Y-84281623D01*
X138476058Y-84390512D01*
X138627433Y-84471423D01*
X138791684Y-84521248D01*
X138962500Y-84538072D01*
X139437500Y-84538072D01*
X139608316Y-84521248D01*
X139772567Y-84471423D01*
X139923942Y-84390512D01*
X140056623Y-84281623D01*
X140165512Y-84148942D01*
X140246423Y-83997567D01*
X140296248Y-83833316D01*
X140313072Y-83662500D01*
X140313072Y-83087500D01*
X140296248Y-82916684D01*
X140246423Y-82752433D01*
X140165512Y-82601058D01*
X140082575Y-82500000D01*
X140165512Y-82398942D01*
X140172964Y-82385000D01*
X140489786Y-82385000D01*
X140582544Y-82558539D01*
X140780613Y-82799887D01*
X140963496Y-82949975D01*
X140811808Y-83068921D01*
X140609513Y-83304540D01*
X140457072Y-83575097D01*
X140366214Y-83841112D01*
X140486216Y-84086700D01*
X141879800Y-84086700D01*
X141879800Y-84066700D01*
X142133800Y-84066700D01*
X142133800Y-84086700D01*
X143527384Y-84086700D01*
X143647386Y-83841112D01*
X143556528Y-83575097D01*
X143404087Y-83304540D01*
X143201792Y-83068921D01*
X143050104Y-82949975D01*
X143091137Y-82916300D01*
X144506580Y-82916300D01*
X144585877Y-83012923D01*
X144591018Y-83017143D01*
X144457693Y-83150468D01*
X144428689Y-83174271D01*
X144384932Y-83227590D01*
X144333716Y-83289996D01*
X144274917Y-83400000D01*
X144263144Y-83422026D01*
X144219687Y-83565287D01*
X144208690Y-83676940D01*
X144208690Y-83676950D01*
X144205014Y-83714272D01*
X144208690Y-83751595D01*
X144208691Y-85805858D01*
X144205014Y-85843190D01*
X144208691Y-85880523D01*
X144218899Y-85984167D01*
X144171758Y-86041609D01*
X144117302Y-86123108D01*
X144058336Y-86233425D01*
X144020827Y-86323981D01*
X143984518Y-86443677D01*
X143965396Y-86539810D01*
X143953136Y-86664291D01*
X143953136Y-86688850D01*
X143950728Y-86713300D01*
X143950728Y-87213300D01*
X143962988Y-87337782D01*
X143970729Y-87363300D01*
X143962988Y-87388818D01*
X143950728Y-87513300D01*
X143950728Y-88013300D01*
X143953136Y-88037750D01*
X143953136Y-88062309D01*
X143965396Y-88186790D01*
X143984518Y-88282923D01*
X144020827Y-88402619D01*
X144058336Y-88493175D01*
X144117302Y-88603492D01*
X144171758Y-88684991D01*
X144251110Y-88781682D01*
X144320418Y-88850990D01*
X144417109Y-88930342D01*
X144498608Y-88984798D01*
X144578800Y-89027662D01*
X144578801Y-90487268D01*
X144575124Y-90524600D01*
X144578801Y-90561933D01*
X144589798Y-90673586D01*
X144602980Y-90717042D01*
X144633254Y-90816846D01*
X144703826Y-90948876D01*
X144775001Y-91035602D01*
X144798800Y-91064601D01*
X144827798Y-91088399D01*
X146185701Y-92446303D01*
X146209499Y-92475301D01*
X146238497Y-92499099D01*
X146325223Y-92570274D01*
X146393414Y-92606723D01*
X146457253Y-92640846D01*
X146523165Y-92660840D01*
X146548315Y-92691485D01*
X146645006Y-92770837D01*
X146755320Y-92829802D01*
X146875018Y-92866112D01*
X146999500Y-92878372D01*
X148269500Y-92878372D01*
X148393982Y-92866112D01*
X148513680Y-92829802D01*
X148623994Y-92770837D01*
X148720685Y-92691485D01*
X148800037Y-92594794D01*
X148818411Y-92560419D01*
X148845320Y-92574802D01*
X148965018Y-92611112D01*
X149089500Y-92623372D01*
X152014562Y-92623372D01*
X152047253Y-92640846D01*
X152113165Y-92660840D01*
X152138315Y-92691485D01*
X152235006Y-92770837D01*
X152345320Y-92829802D01*
X152465018Y-92866112D01*
X152589500Y-92878372D01*
X153609500Y-92878372D01*
X153733982Y-92866112D01*
X153853680Y-92829802D01*
X153963994Y-92770837D01*
X154060685Y-92691485D01*
X154140037Y-92594794D01*
X154199002Y-92484480D01*
X154235312Y-92364782D01*
X154247572Y-92240300D01*
X154247572Y-91630300D01*
X154235312Y-91505818D01*
X154199002Y-91386120D01*
X154153130Y-91300300D01*
X154199002Y-91214480D01*
X154235312Y-91094782D01*
X154247572Y-90970300D01*
X154247572Y-90360300D01*
X154235312Y-90235818D01*
X154199002Y-90116120D01*
X154153130Y-90030300D01*
X154199002Y-89944480D01*
X154235312Y-89824782D01*
X154247572Y-89700300D01*
X154247572Y-89090300D01*
X154235312Y-88965818D01*
X154199002Y-88846120D01*
X154153130Y-88760300D01*
X154199002Y-88674480D01*
X154235312Y-88554782D01*
X154247572Y-88430300D01*
X154247572Y-87820300D01*
X154235312Y-87695818D01*
X154199002Y-87576120D01*
X154188371Y-87556231D01*
X154500804Y-87243798D01*
X154529801Y-87220001D01*
X154624774Y-87104276D01*
X154695346Y-86972247D01*
X154738803Y-86828986D01*
X154749800Y-86717333D01*
X154749800Y-86717324D01*
X154752453Y-86690392D01*
X154758182Y-86685690D01*
X154827490Y-86616382D01*
X154906842Y-86519691D01*
X154961298Y-86438192D01*
X155020264Y-86327875D01*
X155057773Y-86237319D01*
X155094082Y-86117623D01*
X155113204Y-86021490D01*
X155125464Y-85897009D01*
X155125464Y-85872450D01*
X155127872Y-85848000D01*
X155127872Y-85348000D01*
X155125464Y-85323550D01*
X155125464Y-85298991D01*
X155113204Y-85174510D01*
X155094082Y-85078377D01*
X155057773Y-84958681D01*
X155020264Y-84868125D01*
X154961298Y-84757808D01*
X154906842Y-84676309D01*
X154827490Y-84579618D01*
X154758182Y-84510310D01*
X154661491Y-84430958D01*
X154579992Y-84376502D01*
X154469675Y-84317536D01*
X154379119Y-84280027D01*
X154259423Y-84243718D01*
X154163290Y-84224596D01*
X154038809Y-84212336D01*
X154014250Y-84212336D01*
X153989800Y-84209928D01*
X153489800Y-84209928D01*
X153433597Y-84215463D01*
X153519180Y-84189502D01*
X153629494Y-84130537D01*
X153726185Y-84051185D01*
X153805537Y-83954494D01*
X153825906Y-83916387D01*
X153843763Y-83949794D01*
X153923115Y-84046485D01*
X154019806Y-84125837D01*
X154130120Y-84184802D01*
X154249818Y-84221112D01*
X154374300Y-84233372D01*
X155474300Y-84233372D01*
X155598782Y-84221112D01*
X155718480Y-84184802D01*
X155828794Y-84125837D01*
X155925485Y-84046485D01*
X156004837Y-83949794D01*
X156063802Y-83839480D01*
X156100112Y-83719782D01*
X156112372Y-83595300D01*
X156112372Y-82495300D01*
X156100112Y-82370818D01*
X156063802Y-82251120D01*
X156004837Y-82140806D01*
X155925485Y-82044115D01*
X155828794Y-81964763D01*
X155718480Y-81905798D01*
X155598782Y-81869488D01*
X155474300Y-81857228D01*
X155160000Y-81857228D01*
X155160000Y-81060920D01*
X155256623Y-80981623D01*
X155300657Y-80927967D01*
X155323815Y-80956185D01*
X155420506Y-81035537D01*
X155530820Y-81094502D01*
X155650518Y-81130812D01*
X155775000Y-81143072D01*
X156325000Y-81143072D01*
X156449482Y-81130812D01*
X156525143Y-81107860D01*
X156596932Y-81130088D01*
X156714250Y-81140000D01*
X156873000Y-80981250D01*
X156873000Y-80826824D01*
X156914502Y-80749180D01*
X156950812Y-80629482D01*
X156963072Y-80505000D01*
X156963072Y-79265000D01*
X156950812Y-79140518D01*
X156914502Y-79020820D01*
X156873000Y-78943176D01*
X156873000Y-78788750D01*
X156718102Y-78633852D01*
X156776185Y-78586185D01*
X156855537Y-78489494D01*
X156914502Y-78379180D01*
X156950812Y-78259482D01*
X156963072Y-78135000D01*
X156963072Y-76895000D01*
X156950812Y-76770518D01*
X156914502Y-76650820D01*
X156855537Y-76540506D01*
X156851325Y-76535373D01*
X156905820Y-76564502D01*
G37*
X156905820Y-76564502D02*
X157025518Y-76600812D01*
X157107892Y-76608925D01*
X157085498Y-76650820D01*
X157049188Y-76770518D01*
X157036928Y-76895000D01*
X157036928Y-78135000D01*
X157049188Y-78259482D01*
X157085498Y-78379180D01*
X157144463Y-78489494D01*
X157223815Y-78586185D01*
X157281898Y-78633852D01*
X157127000Y-78788750D01*
X157127000Y-78943176D01*
X157085498Y-79020820D01*
X157049188Y-79140518D01*
X157036928Y-79265000D01*
X157036928Y-80505000D01*
X157049188Y-80629482D01*
X157085498Y-80749180D01*
X157127000Y-80826824D01*
X157127000Y-80981250D01*
X157190000Y-81044250D01*
X157190001Y-81857228D01*
X157174300Y-81857228D01*
X157049818Y-81869488D01*
X156930120Y-81905798D01*
X156819806Y-81964763D01*
X156723115Y-82044115D01*
X156643763Y-82140806D01*
X156584798Y-82251120D01*
X156548488Y-82370818D01*
X156536228Y-82495300D01*
X156536228Y-83595300D01*
X156548488Y-83719782D01*
X156584798Y-83839480D01*
X156643763Y-83949794D01*
X156723115Y-84046485D01*
X156819806Y-84125837D01*
X156930120Y-84184802D01*
X157049818Y-84221112D01*
X157174300Y-84233372D01*
X158274300Y-84233372D01*
X158398782Y-84221112D01*
X158518480Y-84184802D01*
X158628794Y-84125837D01*
X158725485Y-84046485D01*
X158804837Y-83949794D01*
X158863802Y-83839480D01*
X158900112Y-83719782D01*
X158912372Y-83595300D01*
X158912372Y-82495300D01*
X158900112Y-82370818D01*
X158863802Y-82251120D01*
X158804837Y-82140806D01*
X158725485Y-82044115D01*
X158710000Y-82031407D01*
X158710000Y-80914981D01*
X158755537Y-80859494D01*
X158814502Y-80749180D01*
X158850812Y-80629482D01*
X158856810Y-80568586D01*
X159002433Y-80646423D01*
X159166684Y-80696248D01*
X159337500Y-80713072D01*
X159912500Y-80713072D01*
X160083316Y-80696248D01*
X160247567Y-80646423D01*
X160398942Y-80565512D01*
X160422839Y-80545901D01*
X160495506Y-80605537D01*
X160605820Y-80664502D01*
X160725518Y-80700812D01*
X160850000Y-80713072D01*
X161089250Y-80710000D01*
X161248000Y-80551250D01*
X161248000Y-79727000D01*
X161502000Y-79727000D01*
X161502000Y-80551250D01*
X161660750Y-80710000D01*
X161900000Y-80713072D01*
X162024482Y-80700812D01*
X162144180Y-80664502D01*
X162254494Y-80605537D01*
X162351185Y-80526185D01*
X162430537Y-80429494D01*
X162489502Y-80319180D01*
X162525812Y-80199482D01*
X162538072Y-80075000D01*
X162535000Y-79885750D01*
X162376250Y-79727000D01*
X161502000Y-79727000D01*
X161248000Y-79727000D01*
X161228000Y-79727000D01*
X161228000Y-79473000D01*
X161248000Y-79473000D01*
X161248000Y-78648750D01*
X161089250Y-78490000D01*
X160850000Y-78486928D01*
X160725518Y-78499188D01*
X160605820Y-78535498D01*
X160495506Y-78594463D01*
X160422839Y-78654099D01*
X160398942Y-78634488D01*
X160360000Y-78613673D01*
X160360000Y-78337325D01*
X160363676Y-78300000D01*
X160360000Y-78262675D01*
X160360000Y-78262667D01*
X160349003Y-78151014D01*
X160305546Y-78007753D01*
X160280330Y-77960579D01*
X160657124Y-78212344D01*
X161173061Y-78426052D01*
X161633175Y-78517575D01*
X161502000Y-78648750D01*
X161502000Y-79473000D01*
X162376250Y-79473000D01*
X162535000Y-79314250D01*
X162538072Y-79125000D01*
X162525812Y-79000518D01*
X162489502Y-78880820D01*
X162430537Y-78770506D01*
X162351185Y-78673815D01*
X162254494Y-78594463D01*
X162144180Y-78535498D01*
X162142538Y-78535000D01*
X162279223Y-78535000D01*
X162826939Y-78426052D01*
X163342876Y-78212344D01*
X163807207Y-77902088D01*
X164202088Y-77507207D01*
X164340000Y-77300807D01*
X164340001Y-102114532D01*
X164287424Y-102035845D01*
X164164155Y-101912576D01*
X164019205Y-101815723D01*
X163858145Y-101749010D01*
X163687165Y-101715000D01*
X163512835Y-101715000D01*
X163341855Y-101749010D01*
X163180795Y-101815723D01*
X163035845Y-101912576D01*
X162912576Y-102035845D01*
X162815723Y-102180795D01*
X162749010Y-102341855D01*
X162715000Y-102512835D01*
X162715000Y-102687165D01*
X162749010Y-102858145D01*
X162815723Y-103019205D01*
X162912576Y-103164155D01*
X163035845Y-103287424D01*
X163114530Y-103340000D01*
X142937872Y-103340000D01*
X142957417Y-103330105D01*
X143201792Y-103138479D01*
X143404087Y-102902860D01*
X143556528Y-102632303D01*
X143647386Y-102366288D01*
X143527384Y-102120700D01*
X142133800Y-102120700D01*
X142133800Y-102140700D01*
X141879800Y-102140700D01*
X141879800Y-102120700D01*
X140486216Y-102120700D01*
X140366214Y-102366288D01*
X140457072Y-102632303D01*
X140609513Y-102902860D01*
X140811808Y-103138479D01*
X141056183Y-103330105D01*
X141075728Y-103340000D01*
X134634208Y-103340000D01*
X134643072Y-103250000D01*
X134640000Y-102560750D01*
X134481250Y-102402000D01*
X133832000Y-102402000D01*
X133832000Y-102422000D01*
X133578000Y-102422000D01*
X133578000Y-102402000D01*
X133558000Y-102402000D01*
X133558000Y-102148000D01*
X133578000Y-102148000D01*
X133578000Y-100823750D01*
X133832000Y-100823750D01*
X133832000Y-102148000D01*
X134481250Y-102148000D01*
X134640000Y-101989250D01*
X134643072Y-101300000D01*
X134630812Y-101175518D01*
X134594502Y-101055820D01*
X134535537Y-100945506D01*
X134456185Y-100848815D01*
X134359494Y-100769463D01*
X134249180Y-100710498D01*
X134129482Y-100674188D01*
X134005000Y-100661928D01*
X133990750Y-100665000D01*
X133832000Y-100823750D01*
X133578000Y-100823750D01*
X133419250Y-100665000D01*
X133405000Y-100661928D01*
X133336862Y-100668639D01*
X135345603Y-98659899D01*
X135374601Y-98636101D01*
X135469574Y-98520376D01*
X135540146Y-98388347D01*
X135583603Y-98245086D01*
X135594600Y-98133433D01*
X135594600Y-98133423D01*
X135598276Y-98096100D01*
X135594600Y-98058777D01*
X135594600Y-95892764D01*
X135608542Y-95885312D01*
X135741223Y-95776423D01*
X135850112Y-95643742D01*
X135931023Y-95492367D01*
X135980848Y-95328116D01*
X135997672Y-95157300D01*
X135997672Y-94831530D01*
X136260003Y-94569199D01*
X136289001Y-94545401D01*
X136353632Y-94466648D01*
X136383974Y-94429677D01*
X136398555Y-94402398D01*
X136522942Y-94335912D01*
X136655623Y-94227023D01*
X136764512Y-94094342D01*
X136845423Y-93942967D01*
X136895248Y-93778716D01*
X136912072Y-93607900D01*
X136912072Y-93132900D01*
X136895248Y-92962084D01*
X136845423Y-92797833D01*
X136764512Y-92646458D01*
X136655623Y-92513777D01*
X136560884Y-92436027D01*
X136579637Y-92417274D01*
X136692905Y-92247756D01*
X136770926Y-92059398D01*
X136810700Y-91859439D01*
X136810700Y-91655561D01*
X136770926Y-91455602D01*
X136692905Y-91267244D01*
X136579637Y-91097726D01*
X136435474Y-90953563D01*
X136302930Y-90865000D01*
X137167557Y-90865000D01*
X137228406Y-90914937D01*
X137338720Y-90973902D01*
X137458418Y-91010212D01*
X137582900Y-91022472D01*
X138671902Y-91022472D01*
X138671902Y-91933165D01*
X138671901Y-91933175D01*
X138671902Y-93966669D01*
X138668225Y-94004001D01*
X138671902Y-94041334D01*
X138682899Y-94152987D01*
X138688302Y-94170797D01*
X138726355Y-94296247D01*
X138796927Y-94428277D01*
X138865214Y-94511484D01*
X138891901Y-94544002D01*
X138920899Y-94567800D01*
X139275896Y-94922797D01*
X139299699Y-94951801D01*
X139415424Y-95046774D01*
X139547453Y-95117346D01*
X139690714Y-95160803D01*
X139802367Y-95171800D01*
X139802377Y-95171800D01*
X139839700Y-95175476D01*
X139877023Y-95171800D01*
X140536181Y-95171800D01*
X140582544Y-95258539D01*
X140780613Y-95499887D01*
X140955850Y-95643700D01*
X140780613Y-95787513D01*
X140582544Y-96028861D01*
X140435366Y-96304212D01*
X140344734Y-96602986D01*
X140314131Y-96913700D01*
X140344734Y-97224414D01*
X140435366Y-97523188D01*
X140582544Y-97798539D01*
X140780613Y-98039887D01*
X140955850Y-98183700D01*
X140780613Y-98327513D01*
X140582544Y-98568861D01*
X140435366Y-98844212D01*
X140344734Y-99142986D01*
X140314131Y-99453700D01*
X140344734Y-99764414D01*
X140435366Y-100063188D01*
X140582544Y-100338539D01*
X140780613Y-100579887D01*
X140963496Y-100729975D01*
X140811808Y-100848921D01*
X140609513Y-101084540D01*
X140457072Y-101355097D01*
X140366214Y-101621112D01*
X140486216Y-101866700D01*
X141879800Y-101866700D01*
X141879800Y-101846700D01*
X142133800Y-101846700D01*
X142133800Y-101866700D01*
X143527384Y-101866700D01*
X143647386Y-101621112D01*
X143556528Y-101355097D01*
X143404087Y-101084540D01*
X143201792Y-100848921D01*
X143050104Y-100729975D01*
X143232987Y-100579887D01*
X143431056Y-100338539D01*
X143578234Y-100063188D01*
X143668866Y-99764414D01*
X143699469Y-99453700D01*
X143668866Y-99142986D01*
X143578234Y-98844212D01*
X143431056Y-98568861D01*
X143232987Y-98327513D01*
X143057750Y-98183700D01*
X143232987Y-98039887D01*
X143431056Y-97798539D01*
X143578234Y-97523188D01*
X143668866Y-97224414D01*
X143699469Y-96913700D01*
X143668866Y-96602986D01*
X143578234Y-96304212D01*
X143431056Y-96028861D01*
X143232987Y-95787513D01*
X143057750Y-95643700D01*
X143232987Y-95499887D01*
X143431056Y-95258539D01*
X143578234Y-94983188D01*
X143668866Y-94684414D01*
X143699469Y-94373700D01*
X143668866Y-94062986D01*
X143578234Y-93764212D01*
X143431056Y-93488861D01*
X143232987Y-93247513D01*
X143057750Y-93103700D01*
X143232987Y-92959887D01*
X143431056Y-92718539D01*
X143578234Y-92443188D01*
X143668866Y-92144414D01*
X143699469Y-91833700D01*
X143668866Y-91522986D01*
X143578234Y-91224212D01*
X143431056Y-90948861D01*
X143232987Y-90707513D01*
X143057750Y-90563700D01*
X143232987Y-90419887D01*
X143431056Y-90178539D01*
X143578234Y-89903188D01*
X143668866Y-89604414D01*
X143699469Y-89293700D01*
X143668866Y-88982986D01*
X143578234Y-88684212D01*
X143431056Y-88408861D01*
X143232987Y-88167513D01*
X143057750Y-88023700D01*
X143232987Y-87879887D01*
X143431056Y-87638539D01*
X143578234Y-87363188D01*
X143668866Y-87064414D01*
X143699469Y-86753700D01*
X143668866Y-86442986D01*
X143578234Y-86144212D01*
X143431056Y-85868861D01*
X143232987Y-85627513D01*
X143050104Y-85477425D01*
X143201792Y-85358479D01*
X143404087Y-85122860D01*
X143556528Y-84852303D01*
X143647386Y-84586288D01*
X143527384Y-84340700D01*
X142133800Y-84340700D01*
X142133800Y-84360700D01*
X141879800Y-84360700D01*
X141879800Y-84340700D01*
X140486216Y-84340700D01*
X140366214Y-84586288D01*
X140457072Y-84852303D01*
X140609513Y-85122860D01*
X140811808Y-85358479D01*
X140963496Y-85477425D01*
X140780613Y-85627513D01*
X140582544Y-85868861D01*
X140435366Y-86144212D01*
X140344734Y-86442986D01*
X140314131Y-86753700D01*
X140344734Y-87064414D01*
X140435366Y-87363188D01*
X140582544Y-87638539D01*
X140780613Y-87879887D01*
X140955850Y-88023700D01*
X140780613Y-88167513D01*
X140582544Y-88408861D01*
X140435366Y-88684212D01*
X140344734Y-88982986D01*
X140314131Y-89293700D01*
X140344734Y-89604414D01*
X140435366Y-89903188D01*
X140582544Y-90178539D01*
X140780613Y-90419887D01*
X140955850Y-90563700D01*
X140780613Y-90707513D01*
X140582544Y-90948861D01*
X140435366Y-91224212D01*
X140344734Y-91522986D01*
X140314131Y-91833700D01*
X140344734Y-92144414D01*
X140435366Y-92443188D01*
X140582544Y-92718539D01*
X140780613Y-92959887D01*
X140955850Y-93103700D01*
X140780613Y-93247513D01*
X140582544Y-93488861D01*
X140500674Y-93642030D01*
X140468466Y-93651800D01*
X140191901Y-93651800D01*
X140191901Y-87677323D01*
X140195577Y-87640000D01*
X140191901Y-87602678D01*
X140191901Y-87602668D01*
X140180904Y-87491015D01*
X140137447Y-87347754D01*
X140066875Y-87215725D01*
X139971902Y-87100000D01*
X139942903Y-87076201D01*
X139920702Y-87054000D01*
X139896901Y-87024999D01*
X139781176Y-86930026D01*
X139668908Y-86870017D01*
X139696402Y-86818580D01*
X139732712Y-86698882D01*
X139744972Y-86574400D01*
X139744972Y-86015600D01*
X139732712Y-85891118D01*
X139696402Y-85771420D01*
X139637437Y-85661106D01*
X139558085Y-85564415D01*
X139461394Y-85485063D01*
X139351080Y-85426098D01*
X139231382Y-85389788D01*
X139106900Y-85377528D01*
X137582900Y-85377528D01*
X137458418Y-85389788D01*
X137338720Y-85426098D01*
X137248907Y-85474105D01*
X135935000Y-84160199D01*
X135935000Y-84054799D01*
X136014427Y-83975372D01*
X136024188Y-84074482D01*
X136060498Y-84194180D01*
X136119463Y-84304494D01*
X136198815Y-84401185D01*
X136295506Y-84480537D01*
X136405820Y-84539502D01*
X136525518Y-84575812D01*
X136650000Y-84588072D01*
X137750000Y-84588072D01*
X137874482Y-84575812D01*
X137994180Y-84539502D01*
X138104494Y-84480537D01*
X138201185Y-84401185D01*
X138280537Y-84304494D01*
X138312726Y-84244274D01*
X138343377Y-84281623D01*
X138476058Y-84390512D01*
X138627433Y-84471423D01*
X138791684Y-84521248D01*
X138962500Y-84538072D01*
X139437500Y-84538072D01*
X139608316Y-84521248D01*
X139772567Y-84471423D01*
X139923942Y-84390512D01*
X140056623Y-84281623D01*
X140165512Y-84148942D01*
X140246423Y-83997567D01*
X140296248Y-83833316D01*
X140313072Y-83662500D01*
X140313072Y-83087500D01*
X140296248Y-82916684D01*
X140246423Y-82752433D01*
X140165512Y-82601058D01*
X140082575Y-82500000D01*
X140165512Y-82398942D01*
X140172964Y-82385000D01*
X140489786Y-82385000D01*
X140582544Y-82558539D01*
X140780613Y-82799887D01*
X140963496Y-82949975D01*
X140811808Y-83068921D01*
X140609513Y-83304540D01*
X140457072Y-83575097D01*
X140366214Y-83841112D01*
X140486216Y-84086700D01*
X141879800Y-84086700D01*
X141879800Y-84066700D01*
X142133800Y-84066700D01*
X142133800Y-84086700D01*
X143527384Y-84086700D01*
X143647386Y-83841112D01*
X143556528Y-83575097D01*
X143404087Y-83304540D01*
X143201792Y-83068921D01*
X143050104Y-82949975D01*
X143091137Y-82916300D01*
X144506580Y-82916300D01*
X144585877Y-83012923D01*
X144591018Y-83017143D01*
X144457693Y-83150468D01*
X144428689Y-83174271D01*
X144384932Y-83227590D01*
X144333716Y-83289996D01*
X144274917Y-83400000D01*
X144263144Y-83422026D01*
X144219687Y-83565287D01*
X144208690Y-83676940D01*
X144208690Y-83676950D01*
X144205014Y-83714272D01*
X144208690Y-83751595D01*
X144208691Y-85805858D01*
X144205014Y-85843190D01*
X144208691Y-85880523D01*
X144218899Y-85984167D01*
X144171758Y-86041609D01*
X144117302Y-86123108D01*
X144058336Y-86233425D01*
X144020827Y-86323981D01*
X143984518Y-86443677D01*
X143965396Y-86539810D01*
X143953136Y-86664291D01*
X143953136Y-86688850D01*
X143950728Y-86713300D01*
X143950728Y-87213300D01*
X143962988Y-87337782D01*
X143970729Y-87363300D01*
X143962988Y-87388818D01*
X143950728Y-87513300D01*
X143950728Y-88013300D01*
X143953136Y-88037750D01*
X143953136Y-88062309D01*
X143965396Y-88186790D01*
X143984518Y-88282923D01*
X144020827Y-88402619D01*
X144058336Y-88493175D01*
X144117302Y-88603492D01*
X144171758Y-88684991D01*
X144251110Y-88781682D01*
X144320418Y-88850990D01*
X144417109Y-88930342D01*
X144498608Y-88984798D01*
X144578800Y-89027662D01*
X144578801Y-90487268D01*
X144575124Y-90524600D01*
X144578801Y-90561933D01*
X144589798Y-90673586D01*
X144602980Y-90717042D01*
X144633254Y-90816846D01*
X144703826Y-90948876D01*
X144775001Y-91035602D01*
X144798800Y-91064601D01*
X144827798Y-91088399D01*
X146185701Y-92446303D01*
X146209499Y-92475301D01*
X146238497Y-92499099D01*
X146325223Y-92570274D01*
X146393414Y-92606723D01*
X146457253Y-92640846D01*
X146523165Y-92660840D01*
X146548315Y-92691485D01*
X146645006Y-92770837D01*
X146755320Y-92829802D01*
X146875018Y-92866112D01*
X146999500Y-92878372D01*
X148269500Y-92878372D01*
X148393982Y-92866112D01*
X148513680Y-92829802D01*
X148623994Y-92770837D01*
X148720685Y-92691485D01*
X148800037Y-92594794D01*
X148818411Y-92560419D01*
X148845320Y-92574802D01*
X148965018Y-92611112D01*
X149089500Y-92623372D01*
X152014562Y-92623372D01*
X152047253Y-92640846D01*
X152113165Y-92660840D01*
X152138315Y-92691485D01*
X152235006Y-92770837D01*
X152345320Y-92829802D01*
X152465018Y-92866112D01*
X152589500Y-92878372D01*
X153609500Y-92878372D01*
X153733982Y-92866112D01*
X153853680Y-92829802D01*
X153963994Y-92770837D01*
X154060685Y-92691485D01*
X154140037Y-92594794D01*
X154199002Y-92484480D01*
X154235312Y-92364782D01*
X154247572Y-92240300D01*
X154247572Y-91630300D01*
X154235312Y-91505818D01*
X154199002Y-91386120D01*
X154153130Y-91300300D01*
X154199002Y-91214480D01*
X154235312Y-91094782D01*
X154247572Y-90970300D01*
X154247572Y-90360300D01*
X154235312Y-90235818D01*
X154199002Y-90116120D01*
X154153130Y-90030300D01*
X154199002Y-89944480D01*
X154235312Y-89824782D01*
X154247572Y-89700300D01*
X154247572Y-89090300D01*
X154235312Y-88965818D01*
X154199002Y-88846120D01*
X154153130Y-88760300D01*
X154199002Y-88674480D01*
X154235312Y-88554782D01*
X154247572Y-88430300D01*
X154247572Y-87820300D01*
X154235312Y-87695818D01*
X154199002Y-87576120D01*
X154188371Y-87556231D01*
X154500804Y-87243798D01*
X154529801Y-87220001D01*
X154624774Y-87104276D01*
X154695346Y-86972247D01*
X154738803Y-86828986D01*
X154749800Y-86717333D01*
X154749800Y-86717324D01*
X154752453Y-86690392D01*
X154758182Y-86685690D01*
X154827490Y-86616382D01*
X154906842Y-86519691D01*
X154961298Y-86438192D01*
X155020264Y-86327875D01*
X155057773Y-86237319D01*
X155094082Y-86117623D01*
X155113204Y-86021490D01*
X155125464Y-85897009D01*
X155125464Y-85872450D01*
X155127872Y-85848000D01*
X155127872Y-85348000D01*
X155125464Y-85323550D01*
X155125464Y-85298991D01*
X155113204Y-85174510D01*
X155094082Y-85078377D01*
X155057773Y-84958681D01*
X155020264Y-84868125D01*
X154961298Y-84757808D01*
X154906842Y-84676309D01*
X154827490Y-84579618D01*
X154758182Y-84510310D01*
X154661491Y-84430958D01*
X154579992Y-84376502D01*
X154469675Y-84317536D01*
X154379119Y-84280027D01*
X154259423Y-84243718D01*
X154163290Y-84224596D01*
X154038809Y-84212336D01*
X154014250Y-84212336D01*
X153989800Y-84209928D01*
X153489800Y-84209928D01*
X153433597Y-84215463D01*
X153519180Y-84189502D01*
X153629494Y-84130537D01*
X153726185Y-84051185D01*
X153805537Y-83954494D01*
X153825906Y-83916387D01*
X153843763Y-83949794D01*
X153923115Y-84046485D01*
X154019806Y-84125837D01*
X154130120Y-84184802D01*
X154249818Y-84221112D01*
X154374300Y-84233372D01*
X155474300Y-84233372D01*
X155598782Y-84221112D01*
X155718480Y-84184802D01*
X155828794Y-84125837D01*
X155925485Y-84046485D01*
X156004837Y-83949794D01*
X156063802Y-83839480D01*
X156100112Y-83719782D01*
X156112372Y-83595300D01*
X156112372Y-82495300D01*
X156100112Y-82370818D01*
X156063802Y-82251120D01*
X156004837Y-82140806D01*
X155925485Y-82044115D01*
X155828794Y-81964763D01*
X155718480Y-81905798D01*
X155598782Y-81869488D01*
X155474300Y-81857228D01*
X155160000Y-81857228D01*
X155160000Y-81060920D01*
X155256623Y-80981623D01*
X155300657Y-80927967D01*
X155323815Y-80956185D01*
X155420506Y-81035537D01*
X155530820Y-81094502D01*
X155650518Y-81130812D01*
X155775000Y-81143072D01*
X156325000Y-81143072D01*
X156449482Y-81130812D01*
X156525143Y-81107860D01*
X156596932Y-81130088D01*
X156714250Y-81140000D01*
X156873000Y-80981250D01*
X156873000Y-80826824D01*
X156914502Y-80749180D01*
X156950812Y-80629482D01*
X156963072Y-80505000D01*
X156963072Y-79265000D01*
X156950812Y-79140518D01*
X156914502Y-79020820D01*
X156873000Y-78943176D01*
X156873000Y-78788750D01*
X156718102Y-78633852D01*
X156776185Y-78586185D01*
X156855537Y-78489494D01*
X156914502Y-78379180D01*
X156950812Y-78259482D01*
X156963072Y-78135000D01*
X156963072Y-76895000D01*
X156950812Y-76770518D01*
X156914502Y-76650820D01*
X156855537Y-76540506D01*
X156851325Y-76535373D01*
X156905820Y-76564502D01*
G36*
X128205168Y-90199401D02*
G01*
X128205178Y-90199401D01*
X128242500Y-90203077D01*
X128279823Y-90199401D01*
X129658100Y-90199401D01*
X129658100Y-90232002D01*
X129816848Y-90232002D01*
X129658100Y-90390750D01*
X129667657Y-90510722D01*
X129704319Y-90630312D01*
X129763607Y-90740453D01*
X129843244Y-90836910D01*
X129940168Y-90915978D01*
X130050655Y-90974617D01*
X130170459Y-91010575D01*
X130294977Y-91022469D01*
X130769350Y-91019400D01*
X130928100Y-90860650D01*
X130928100Y-90232000D01*
X130908100Y-90232000D01*
X130908100Y-90199401D01*
X131202100Y-90199401D01*
X131202100Y-90232000D01*
X131182100Y-90232000D01*
X131182100Y-90860650D01*
X131340850Y-91019400D01*
X131815223Y-91022469D01*
X131939741Y-91010575D01*
X132059545Y-90974617D01*
X132170032Y-90915978D01*
X132266956Y-90836910D01*
X132319504Y-90773263D01*
X132389255Y-90810546D01*
X132532516Y-90854003D01*
X132644169Y-90865000D01*
X132644178Y-90865000D01*
X132681501Y-90868676D01*
X132718824Y-90865000D01*
X135248470Y-90865000D01*
X135115926Y-90953563D01*
X134971763Y-91097726D01*
X134858495Y-91267244D01*
X134780474Y-91455602D01*
X134740700Y-91655561D01*
X134740700Y-91859439D01*
X134780474Y-92059398D01*
X134858495Y-92247756D01*
X134967585Y-92411021D01*
X134874000Y-92487825D01*
X134772942Y-92404888D01*
X134621567Y-92323977D01*
X134457316Y-92274152D01*
X134286500Y-92257328D01*
X133711500Y-92257328D01*
X133540684Y-92274152D01*
X133473065Y-92294664D01*
X132501104Y-91322703D01*
X132477301Y-91293699D01*
X132361576Y-91198726D01*
X132229547Y-91128154D01*
X132086286Y-91084697D01*
X131974633Y-91073700D01*
X131974622Y-91073700D01*
X131937300Y-91070024D01*
X131899978Y-91073700D01*
X128287784Y-91073700D01*
X128221056Y-90948861D01*
X128022987Y-90707513D01*
X127847750Y-90563700D01*
X128022987Y-90419887D01*
X128204027Y-90199289D01*
X128205168Y-90199401D01*
G37*
X128205168Y-90199401D02*
X128205178Y-90199401D01*
X128242500Y-90203077D01*
X128279823Y-90199401D01*
X129658100Y-90199401D01*
X129658100Y-90232002D01*
X129816848Y-90232002D01*
X129658100Y-90390750D01*
X129667657Y-90510722D01*
X129704319Y-90630312D01*
X129763607Y-90740453D01*
X129843244Y-90836910D01*
X129940168Y-90915978D01*
X130050655Y-90974617D01*
X130170459Y-91010575D01*
X130294977Y-91022469D01*
X130769350Y-91019400D01*
X130928100Y-90860650D01*
X130928100Y-90232000D01*
X130908100Y-90232000D01*
X130908100Y-90199401D01*
X131202100Y-90199401D01*
X131202100Y-90232000D01*
X131182100Y-90232000D01*
X131182100Y-90860650D01*
X131340850Y-91019400D01*
X131815223Y-91022469D01*
X131939741Y-91010575D01*
X132059545Y-90974617D01*
X132170032Y-90915978D01*
X132266956Y-90836910D01*
X132319504Y-90773263D01*
X132389255Y-90810546D01*
X132532516Y-90854003D01*
X132644169Y-90865000D01*
X132644178Y-90865000D01*
X132681501Y-90868676D01*
X132718824Y-90865000D01*
X135248470Y-90865000D01*
X135115926Y-90953563D01*
X134971763Y-91097726D01*
X134858495Y-91267244D01*
X134780474Y-91455602D01*
X134740700Y-91655561D01*
X134740700Y-91859439D01*
X134780474Y-92059398D01*
X134858495Y-92247756D01*
X134967585Y-92411021D01*
X134874000Y-92487825D01*
X134772942Y-92404888D01*
X134621567Y-92323977D01*
X134457316Y-92274152D01*
X134286500Y-92257328D01*
X133711500Y-92257328D01*
X133540684Y-92274152D01*
X133473065Y-92294664D01*
X132501104Y-91322703D01*
X132477301Y-91293699D01*
X132361576Y-91198726D01*
X132229547Y-91128154D01*
X132086286Y-91084697D01*
X131974633Y-91073700D01*
X131974622Y-91073700D01*
X131937300Y-91070024D01*
X131899978Y-91073700D01*
X128287784Y-91073700D01*
X128221056Y-90948861D01*
X128022987Y-90707513D01*
X127847750Y-90563700D01*
X128022987Y-90419887D01*
X128204027Y-90199289D01*
X128205168Y-90199401D01*
G36*
X136944828Y-89114400D02*
G01*
X136957088Y-89238882D01*
X136989279Y-89345000D01*
X132996304Y-89345000D01*
X132641902Y-88990599D01*
X136944828Y-88990599D01*
X136944828Y-89114400D01*
G37*
X136944828Y-89114400D02*
X136957088Y-89238882D01*
X136989279Y-89345000D01*
X132996304Y-89345000D01*
X132641902Y-88990599D01*
X136944828Y-88990599D01*
X136944828Y-89114400D01*
G36*
X148289302Y-85142792D02*
G01*
X148343758Y-85224291D01*
X148423110Y-85320982D01*
X148492418Y-85390290D01*
X148589109Y-85469642D01*
X148670608Y-85524098D01*
X148780925Y-85583064D01*
X148871481Y-85620573D01*
X148991177Y-85656882D01*
X149087310Y-85676004D01*
X149211791Y-85688264D01*
X149236350Y-85688264D01*
X149260800Y-85690672D01*
X149760800Y-85690672D01*
X149885282Y-85678412D01*
X149910800Y-85670671D01*
X149936318Y-85678412D01*
X150060800Y-85690672D01*
X150560800Y-85690672D01*
X150585250Y-85688264D01*
X150609809Y-85688264D01*
X150734290Y-85676004D01*
X150830423Y-85656882D01*
X150837986Y-85654588D01*
X151292401Y-86109003D01*
X151316199Y-86138001D01*
X151431924Y-86232974D01*
X151563953Y-86303546D01*
X151662274Y-86333371D01*
X151718302Y-86438192D01*
X151772758Y-86519691D01*
X151852110Y-86616382D01*
X151921418Y-86685690D01*
X152018109Y-86765042D01*
X152099608Y-86819498D01*
X152209925Y-86878464D01*
X152300481Y-86915973D01*
X152420177Y-86952282D01*
X152516310Y-86971404D01*
X152613976Y-86981023D01*
X152588498Y-87006501D01*
X152559500Y-87030299D01*
X152535702Y-87059297D01*
X152535701Y-87059298D01*
X152464526Y-87146024D01*
X152436876Y-87197753D01*
X152433513Y-87204045D01*
X152345320Y-87230798D01*
X152235006Y-87289763D01*
X152138315Y-87369115D01*
X152082416Y-87437228D01*
X149089500Y-87437228D01*
X148965018Y-87449488D01*
X148845320Y-87485798D01*
X148818411Y-87500181D01*
X148800037Y-87465806D01*
X148720685Y-87369115D01*
X148623994Y-87289763D01*
X148513680Y-87230798D01*
X148394500Y-87194645D01*
X148394500Y-86928314D01*
X148398176Y-86890991D01*
X148394500Y-86853668D01*
X148394500Y-86853659D01*
X148383503Y-86742006D01*
X148340046Y-86598745D01*
X148269474Y-86466716D01*
X148174501Y-86350991D01*
X148145504Y-86327194D01*
X147449155Y-85630845D01*
X147483019Y-85620573D01*
X147573575Y-85583064D01*
X147683892Y-85524098D01*
X147765391Y-85469642D01*
X147862082Y-85390290D01*
X147931390Y-85320982D01*
X148010742Y-85224291D01*
X148065198Y-85142792D01*
X148108062Y-85062600D01*
X148246438Y-85062600D01*
X148289302Y-85142792D01*
G37*
X148289302Y-85142792D02*
X148343758Y-85224291D01*
X148423110Y-85320982D01*
X148492418Y-85390290D01*
X148589109Y-85469642D01*
X148670608Y-85524098D01*
X148780925Y-85583064D01*
X148871481Y-85620573D01*
X148991177Y-85656882D01*
X149087310Y-85676004D01*
X149211791Y-85688264D01*
X149236350Y-85688264D01*
X149260800Y-85690672D01*
X149760800Y-85690672D01*
X149885282Y-85678412D01*
X149910800Y-85670671D01*
X149936318Y-85678412D01*
X150060800Y-85690672D01*
X150560800Y-85690672D01*
X150585250Y-85688264D01*
X150609809Y-85688264D01*
X150734290Y-85676004D01*
X150830423Y-85656882D01*
X150837986Y-85654588D01*
X151292401Y-86109003D01*
X151316199Y-86138001D01*
X151431924Y-86232974D01*
X151563953Y-86303546D01*
X151662274Y-86333371D01*
X151718302Y-86438192D01*
X151772758Y-86519691D01*
X151852110Y-86616382D01*
X151921418Y-86685690D01*
X152018109Y-86765042D01*
X152099608Y-86819498D01*
X152209925Y-86878464D01*
X152300481Y-86915973D01*
X152420177Y-86952282D01*
X152516310Y-86971404D01*
X152613976Y-86981023D01*
X152588498Y-87006501D01*
X152559500Y-87030299D01*
X152535702Y-87059297D01*
X152535701Y-87059298D01*
X152464526Y-87146024D01*
X152436876Y-87197753D01*
X152433513Y-87204045D01*
X152345320Y-87230798D01*
X152235006Y-87289763D01*
X152138315Y-87369115D01*
X152082416Y-87437228D01*
X149089500Y-87437228D01*
X148965018Y-87449488D01*
X148845320Y-87485798D01*
X148818411Y-87500181D01*
X148800037Y-87465806D01*
X148720685Y-87369115D01*
X148623994Y-87289763D01*
X148513680Y-87230798D01*
X148394500Y-87194645D01*
X148394500Y-86928314D01*
X148398176Y-86890991D01*
X148394500Y-86853668D01*
X148394500Y-86853659D01*
X148383503Y-86742006D01*
X148340046Y-86598745D01*
X148269474Y-86466716D01*
X148174501Y-86350991D01*
X148145504Y-86327194D01*
X147449155Y-85630845D01*
X147483019Y-85620573D01*
X147573575Y-85583064D01*
X147683892Y-85524098D01*
X147765391Y-85469642D01*
X147862082Y-85390290D01*
X147931390Y-85320982D01*
X148010742Y-85224291D01*
X148065198Y-85142792D01*
X148108062Y-85062600D01*
X148246438Y-85062600D01*
X148289302Y-85142792D01*
G36*
X129208100Y-82646704D02*
G01*
X129208099Y-85450197D01*
X128417775Y-84659873D01*
X128458866Y-84524414D01*
X128489469Y-84213700D01*
X128458866Y-83902986D01*
X128368234Y-83604212D01*
X128221056Y-83328861D01*
X128022987Y-83087513D01*
X127847750Y-82943700D01*
X128022987Y-82799887D01*
X128221056Y-82558539D01*
X128287784Y-82433700D01*
X128995097Y-82433700D01*
X129208100Y-82646704D01*
G37*
X129208100Y-82646704D02*
X129208099Y-85450197D01*
X128417775Y-84659873D01*
X128458866Y-84524414D01*
X128489469Y-84213700D01*
X128458866Y-83902986D01*
X128368234Y-83604212D01*
X128221056Y-83328861D01*
X128022987Y-83087513D01*
X127847750Y-82943700D01*
X128022987Y-82799887D01*
X128221056Y-82558539D01*
X128287784Y-82433700D01*
X128995097Y-82433700D01*
X129208100Y-82646704D01*
G36*
X151834488Y-82098942D02*
G01*
X151854099Y-82122839D01*
X151794463Y-82195506D01*
X151735498Y-82305820D01*
X151699188Y-82425518D01*
X151686928Y-82550000D01*
X151690000Y-82789250D01*
X151848750Y-82948000D01*
X152673000Y-82948000D01*
X152673000Y-82928000D01*
X152927000Y-82928000D01*
X152927000Y-82948000D01*
X152947000Y-82948000D01*
X152947000Y-83202000D01*
X152927000Y-83202000D01*
X152927000Y-83222000D01*
X152673000Y-83222000D01*
X152673000Y-83202000D01*
X151848750Y-83202000D01*
X151690000Y-83360750D01*
X151686928Y-83600000D01*
X151699188Y-83724482D01*
X151735498Y-83844180D01*
X151794463Y-83954494D01*
X151873815Y-84051185D01*
X151970506Y-84130537D01*
X152080820Y-84189502D01*
X152200518Y-84225812D01*
X152325000Y-84238072D01*
X152459541Y-84235888D01*
X152420177Y-84243718D01*
X152300481Y-84280027D01*
X152209925Y-84317536D01*
X152099608Y-84376502D01*
X152018109Y-84430958D01*
X151921418Y-84510310D01*
X151882365Y-84549363D01*
X151698872Y-84365871D01*
X151698872Y-84052600D01*
X151696464Y-84028150D01*
X151696464Y-84003591D01*
X151684204Y-83879110D01*
X151665082Y-83782977D01*
X151660000Y-83766224D01*
X151660000Y-82154320D01*
X151704494Y-82130537D01*
X151759981Y-82085000D01*
X151827036Y-82085000D01*
X151834488Y-82098942D01*
G37*
X151834488Y-82098942D02*
X151854099Y-82122839D01*
X151794463Y-82195506D01*
X151735498Y-82305820D01*
X151699188Y-82425518D01*
X151686928Y-82550000D01*
X151690000Y-82789250D01*
X151848750Y-82948000D01*
X152673000Y-82948000D01*
X152673000Y-82928000D01*
X152927000Y-82928000D01*
X152927000Y-82948000D01*
X152947000Y-82948000D01*
X152947000Y-83202000D01*
X152927000Y-83202000D01*
X152927000Y-83222000D01*
X152673000Y-83222000D01*
X152673000Y-83202000D01*
X151848750Y-83202000D01*
X151690000Y-83360750D01*
X151686928Y-83600000D01*
X151699188Y-83724482D01*
X151735498Y-83844180D01*
X151794463Y-83954494D01*
X151873815Y-84051185D01*
X151970506Y-84130537D01*
X152080820Y-84189502D01*
X152200518Y-84225812D01*
X152325000Y-84238072D01*
X152459541Y-84235888D01*
X152420177Y-84243718D01*
X152300481Y-84280027D01*
X152209925Y-84317536D01*
X152099608Y-84376502D01*
X152018109Y-84430958D01*
X151921418Y-84510310D01*
X151882365Y-84549363D01*
X151698872Y-84365871D01*
X151698872Y-84052600D01*
X151696464Y-84028150D01*
X151696464Y-84003591D01*
X151684204Y-83879110D01*
X151665082Y-83782977D01*
X151660000Y-83766224D01*
X151660000Y-82154320D01*
X151704494Y-82130537D01*
X151759981Y-82085000D01*
X151827036Y-82085000D01*
X151834488Y-82098942D01*
G36*
X130340001Y-81114803D02*
G01*
X130340001Y-81629001D01*
X129873701Y-81162702D01*
X129849899Y-81133699D01*
X129734174Y-81038726D01*
X129602145Y-80968154D01*
X129458884Y-80924697D01*
X129347231Y-80913700D01*
X129347220Y-80913700D01*
X129309898Y-80910024D01*
X129272576Y-80913700D01*
X128287784Y-80913700D01*
X128221056Y-80788861D01*
X128115417Y-80660140D01*
X128201294Y-80614237D01*
X128297985Y-80534885D01*
X128377337Y-80438194D01*
X128436302Y-80327880D01*
X128472612Y-80208182D01*
X128484872Y-80083700D01*
X128484872Y-79893700D01*
X129118899Y-79893700D01*
X130340001Y-81114803D01*
G37*
X130340001Y-81114803D02*
X130340001Y-81629001D01*
X129873701Y-81162702D01*
X129849899Y-81133699D01*
X129734174Y-81038726D01*
X129602145Y-80968154D01*
X129458884Y-80924697D01*
X129347231Y-80913700D01*
X129347220Y-80913700D01*
X129309898Y-80910024D01*
X129272576Y-80913700D01*
X128287784Y-80913700D01*
X128221056Y-80788861D01*
X128115417Y-80660140D01*
X128201294Y-80614237D01*
X128297985Y-80534885D01*
X128377337Y-80438194D01*
X128436302Y-80327880D01*
X128472612Y-80208182D01*
X128484872Y-80083700D01*
X128484872Y-79893700D01*
X129118899Y-79893700D01*
X130340001Y-81114803D01*
G36*
X141052628Y-76805599D02*
G01*
X141064888Y-76930081D01*
X141101198Y-77049779D01*
X141117701Y-77080653D01*
X141117701Y-77281849D01*
X141121801Y-77285949D01*
X141121801Y-77756079D01*
X141021961Y-77809444D01*
X140780613Y-78007513D01*
X140582544Y-78248861D01*
X140435366Y-78524212D01*
X140344734Y-78822986D01*
X140314131Y-79133700D01*
X140344734Y-79444414D01*
X140435366Y-79743188D01*
X140582544Y-80018539D01*
X140780613Y-80259887D01*
X140955850Y-80403700D01*
X140780613Y-80547513D01*
X140582544Y-80788861D01*
X140541847Y-80865000D01*
X140172964Y-80865000D01*
X140165512Y-80851058D01*
X140056623Y-80718377D01*
X139923942Y-80609488D01*
X139772567Y-80528577D01*
X139608316Y-80478752D01*
X139437500Y-80461928D01*
X138962500Y-80461928D01*
X138791684Y-80478752D01*
X138627433Y-80528577D01*
X138476058Y-80609488D01*
X138388072Y-80681697D01*
X138388072Y-80068072D01*
X138875000Y-80068072D01*
X138999482Y-80055812D01*
X139119180Y-80019502D01*
X139229494Y-79960537D01*
X139326185Y-79881185D01*
X139405537Y-79784494D01*
X139464502Y-79674180D01*
X139500812Y-79554482D01*
X139513072Y-79430000D01*
X139513072Y-78370000D01*
X139500812Y-78245518D01*
X139464502Y-78125820D01*
X139405537Y-78015506D01*
X139326185Y-77918815D01*
X139229494Y-77839463D01*
X139155665Y-77800000D01*
X139229494Y-77760537D01*
X139326185Y-77681185D01*
X139405537Y-77584494D01*
X139464502Y-77474180D01*
X139498496Y-77362117D01*
X139549276Y-77334974D01*
X139665001Y-77240001D01*
X139688803Y-77210998D01*
X140056402Y-76843399D01*
X140068296Y-76946123D01*
X140107670Y-77064848D01*
X140169450Y-77173611D01*
X140251261Y-77268230D01*
X140349960Y-77345072D01*
X140461753Y-77401181D01*
X140582345Y-77434403D01*
X140704951Y-77440599D01*
X140863701Y-77281849D01*
X140863701Y-76684999D01*
X141052628Y-76684999D01*
X141052628Y-76805599D01*
G37*
X141052628Y-76805599D02*
X141064888Y-76930081D01*
X141101198Y-77049779D01*
X141117701Y-77080653D01*
X141117701Y-77281849D01*
X141121801Y-77285949D01*
X141121801Y-77756079D01*
X141021961Y-77809444D01*
X140780613Y-78007513D01*
X140582544Y-78248861D01*
X140435366Y-78524212D01*
X140344734Y-78822986D01*
X140314131Y-79133700D01*
X140344734Y-79444414D01*
X140435366Y-79743188D01*
X140582544Y-80018539D01*
X140780613Y-80259887D01*
X140955850Y-80403700D01*
X140780613Y-80547513D01*
X140582544Y-80788861D01*
X140541847Y-80865000D01*
X140172964Y-80865000D01*
X140165512Y-80851058D01*
X140056623Y-80718377D01*
X139923942Y-80609488D01*
X139772567Y-80528577D01*
X139608316Y-80478752D01*
X139437500Y-80461928D01*
X138962500Y-80461928D01*
X138791684Y-80478752D01*
X138627433Y-80528577D01*
X138476058Y-80609488D01*
X138388072Y-80681697D01*
X138388072Y-80068072D01*
X138875000Y-80068072D01*
X138999482Y-80055812D01*
X139119180Y-80019502D01*
X139229494Y-79960537D01*
X139326185Y-79881185D01*
X139405537Y-79784494D01*
X139464502Y-79674180D01*
X139500812Y-79554482D01*
X139513072Y-79430000D01*
X139513072Y-78370000D01*
X139500812Y-78245518D01*
X139464502Y-78125820D01*
X139405537Y-78015506D01*
X139326185Y-77918815D01*
X139229494Y-77839463D01*
X139155665Y-77800000D01*
X139229494Y-77760537D01*
X139326185Y-77681185D01*
X139405537Y-77584494D01*
X139464502Y-77474180D01*
X139498496Y-77362117D01*
X139549276Y-77334974D01*
X139665001Y-77240001D01*
X139688803Y-77210998D01*
X140056402Y-76843399D01*
X140068296Y-76946123D01*
X140107670Y-77064848D01*
X140169450Y-77173611D01*
X140251261Y-77268230D01*
X140349960Y-77345072D01*
X140461753Y-77401181D01*
X140582345Y-77434403D01*
X140704951Y-77440599D01*
X140863701Y-77281849D01*
X140863701Y-76684999D01*
X141052628Y-76684999D01*
X141052628Y-76805599D01*
G36*
X145464989Y-77280491D02*
G01*
X145493992Y-77304293D01*
X145994307Y-77804608D01*
X145857933Y-77845977D01*
X145706558Y-77926888D01*
X145682661Y-77946499D01*
X145609994Y-77886863D01*
X145499680Y-77827898D01*
X145379982Y-77791588D01*
X145255500Y-77779328D01*
X145016250Y-77782400D01*
X144857500Y-77941150D01*
X144857500Y-78765400D01*
X144877500Y-78765400D01*
X144877500Y-79019400D01*
X144857500Y-79019400D01*
X144857500Y-79039400D01*
X144603500Y-79039400D01*
X144603500Y-79019400D01*
X144583500Y-79019400D01*
X144583500Y-78765400D01*
X144603500Y-78765400D01*
X144603500Y-77941150D01*
X144444750Y-77782400D01*
X144205500Y-77779328D01*
X144081018Y-77791588D01*
X143961320Y-77827898D01*
X143851006Y-77886863D01*
X143754315Y-77966215D01*
X143674963Y-78062906D01*
X143615998Y-78173220D01*
X143579688Y-78292918D01*
X143567428Y-78417400D01*
X143568878Y-78506708D01*
X143431056Y-78248861D01*
X143232987Y-78007513D01*
X142991639Y-77809444D01*
X142891800Y-77756079D01*
X142891800Y-77260000D01*
X143428545Y-77260000D01*
X143491359Y-77261981D01*
X143540201Y-77253857D01*
X143589486Y-77249003D01*
X143613887Y-77241601D01*
X143639037Y-77237418D01*
X143685348Y-77219924D01*
X143704877Y-77214000D01*
X145410422Y-77214000D01*
X145464989Y-77280491D01*
G37*
X145464989Y-77280491D02*
X145493992Y-77304293D01*
X145994307Y-77804608D01*
X145857933Y-77845977D01*
X145706558Y-77926888D01*
X145682661Y-77946499D01*
X145609994Y-77886863D01*
X145499680Y-77827898D01*
X145379982Y-77791588D01*
X145255500Y-77779328D01*
X145016250Y-77782400D01*
X144857500Y-77941150D01*
X144857500Y-78765400D01*
X144877500Y-78765400D01*
X144877500Y-79019400D01*
X144857500Y-79019400D01*
X144857500Y-79039400D01*
X144603500Y-79039400D01*
X144603500Y-79019400D01*
X144583500Y-79019400D01*
X144583500Y-78765400D01*
X144603500Y-78765400D01*
X144603500Y-77941150D01*
X144444750Y-77782400D01*
X144205500Y-77779328D01*
X144081018Y-77791588D01*
X143961320Y-77827898D01*
X143851006Y-77886863D01*
X143754315Y-77966215D01*
X143674963Y-78062906D01*
X143615998Y-78173220D01*
X143579688Y-78292918D01*
X143567428Y-78417400D01*
X143568878Y-78506708D01*
X143431056Y-78248861D01*
X143232987Y-78007513D01*
X142991639Y-77809444D01*
X142891800Y-77756079D01*
X142891800Y-77260000D01*
X143428545Y-77260000D01*
X143491359Y-77261981D01*
X143540201Y-77253857D01*
X143589486Y-77249003D01*
X143613887Y-77241601D01*
X143639037Y-77237418D01*
X143685348Y-77219924D01*
X143704877Y-77214000D01*
X145410422Y-77214000D01*
X145464989Y-77280491D01*
G36*
X137635498Y-77474180D02*
G01*
X137694463Y-77584494D01*
X137727000Y-77624141D01*
X137727000Y-77706250D01*
X137864853Y-77844103D01*
X137773815Y-77918815D01*
X137694463Y-78015506D01*
X137635498Y-78125820D01*
X137601504Y-78237883D01*
X137598916Y-78239267D01*
X137564502Y-78125820D01*
X137505537Y-78015506D01*
X137426185Y-77918815D01*
X137335147Y-77844103D01*
X137473000Y-77706250D01*
X137473000Y-77624141D01*
X137505537Y-77584494D01*
X137564502Y-77474180D01*
X137600000Y-77357159D01*
X137635498Y-77474180D01*
G37*
X137635498Y-77474180D02*
X137694463Y-77584494D01*
X137727000Y-77624141D01*
X137727000Y-77706250D01*
X137864853Y-77844103D01*
X137773815Y-77918815D01*
X137694463Y-78015506D01*
X137635498Y-78125820D01*
X137601504Y-78237883D01*
X137598916Y-78239267D01*
X137564502Y-78125820D01*
X137505537Y-78015506D01*
X137426185Y-77918815D01*
X137335147Y-77844103D01*
X137473000Y-77706250D01*
X137473000Y-77624141D01*
X137505537Y-77584494D01*
X137564502Y-77474180D01*
X137600000Y-77357159D01*
X137635498Y-77474180D01*
G36*
X151803100Y-76252100D02*
G01*
X151823100Y-76252100D01*
X151823100Y-76506100D01*
X151803100Y-76506100D01*
X151803100Y-76526100D01*
X151549100Y-76526100D01*
X151549100Y-76506100D01*
X151529100Y-76506100D01*
X151529100Y-76252100D01*
X151549100Y-76252100D01*
X151549100Y-76232100D01*
X151803100Y-76232100D01*
X151803100Y-76252100D01*
G37*
X151803100Y-76252100D02*
X151823100Y-76252100D01*
X151823100Y-76506100D01*
X151803100Y-76506100D01*
X151803100Y-76526100D01*
X151549100Y-76526100D01*
X151549100Y-76506100D01*
X151529100Y-76506100D01*
X151529100Y-76252100D01*
X151549100Y-76252100D01*
X151549100Y-76232100D01*
X151803100Y-76232100D01*
X151803100Y-76252100D01*
G36*
X157765010Y-75647000D02*
G01*
X157548000Y-75647000D01*
X157548000Y-75627000D01*
X157528000Y-75627000D01*
X157528000Y-75373000D01*
X157548000Y-75373000D01*
X157548000Y-75353000D01*
X157765011Y-75353000D01*
X157765010Y-75647000D01*
G37*
X157765010Y-75647000D02*
X157548000Y-75647000D01*
X157548000Y-75627000D01*
X157528000Y-75627000D01*
X157528000Y-75373000D01*
X157548000Y-75373000D01*
X157548000Y-75353000D01*
X157765011Y-75353000D01*
X157765010Y-75647000D01*
M02*
