G04 #@! TF.GenerationSoftware,KiCad,Pcbnew,(5.1.5)-3*
G04 #@! TF.CreationDate,2020-04-24T14:35:50-04:00*
G04 #@! TF.ProjectId,CR2025_Nordic,43523230-3235-45f4-9e6f-726469632e6b,rev?*
G04 #@! TF.SameCoordinates,Original*
G04 #@! TF.FileFunction,Copper,L2,Bot*
G04 #@! TF.FilePolarity,Positive*
%FSLAX46Y46*%
G04 Gerber Fmt 4.6, Leading zero omitted, Abs format (unit mm)*
G04 Created by KiCad (PCBNEW (5.1.5)-3) date 2020-04-24 14:35:50*
%MOMM*%
%LPD*%
G04 APERTURE LIST*
%ADD10R,0.599999X0.499999*%
%ADD11R,1.900000X2.100000*%
%ADD12R,2.100000X1.900000*%
%ADD13O,2.100000X1.900000*%
%ADD14R,1.700000X1.700000*%
%ADD15C,4.400000*%
%ADD16C,17.780001*%
%ADD17R,5.080000X2.540000*%
%ADD18C,0.800000*%
%ADD19C,0.250000*%
%ADD20C,0.500000*%
%ADD21C,0.254000*%
G04 APERTURE END LIST*
D10*
X153403300Y-76517500D03*
X154403298Y-76517500D03*
D11*
X139973800Y-74043700D03*
X128853800Y-74043700D03*
D12*
X126796800Y-79133700D03*
D13*
X142006800Y-79133700D03*
X126796800Y-81673700D03*
X142006800Y-81673700D03*
X126796800Y-84213700D03*
X142006800Y-84213700D03*
X126796800Y-86753700D03*
X142006800Y-86753700D03*
X126796800Y-89293700D03*
X142006800Y-89293700D03*
X126796800Y-91833700D03*
X142006800Y-91833700D03*
X126796800Y-94373700D03*
X142006800Y-94373700D03*
X126796800Y-96913700D03*
X142006800Y-96913700D03*
X126796800Y-99453700D03*
X142006800Y-99453700D03*
X126796800Y-101993700D03*
X142006800Y-101993700D03*
D14*
X130454400Y-94246700D03*
D15*
X162000000Y-75700000D03*
D16*
X154300000Y-90600000D03*
D17*
X154427000Y-79170000D03*
X154427000Y-102030000D03*
D18*
X148285200Y-86156800D03*
X157086300Y-85953600D03*
X156883100Y-93814900D03*
X139200000Y-80200000D03*
X152603200Y-75514200D03*
X139900000Y-77000000D03*
X157000000Y-81300000D03*
X157400000Y-100000000D03*
X161400000Y-101500000D03*
X150100000Y-100500000D03*
X150100000Y-102700000D03*
X139300000Y-102700000D03*
X131600000Y-77900000D03*
X157000000Y-76650000D03*
X144195800Y-77622400D03*
X133629400Y-91808300D03*
X129200000Y-84000000D03*
X129400000Y-80600000D03*
X134900000Y-89200000D03*
X138569700Y-96685100D03*
X138000000Y-84900000D03*
X130600000Y-99700000D03*
X154400000Y-75200000D03*
X136300000Y-86400000D03*
X135775700Y-91757500D03*
D19*
X153400000Y-75700000D02*
X153100000Y-75400000D01*
X153400000Y-76500000D02*
X153400000Y-75700000D01*
X152717400Y-75400000D02*
X152603200Y-75514200D01*
X153100000Y-75400000D02*
X152717400Y-75400000D01*
D20*
X157217000Y-102030000D02*
X164300000Y-94947000D01*
X154427000Y-102030000D02*
X157217000Y-102030000D01*
X157217000Y-79170000D02*
X154427000Y-79170000D01*
X164300000Y-86253000D02*
X157217000Y-79170000D01*
X164300000Y-94947000D02*
X164300000Y-86253000D01*
X154427000Y-79170000D02*
X154427000Y-76027000D01*
X154400000Y-76000000D02*
X154400000Y-75200000D01*
D19*
X154427000Y-76027000D02*
X154400000Y-76000000D01*
X136300000Y-86400000D02*
X136300000Y-91233200D01*
X136300000Y-91233200D02*
X135775700Y-91757500D01*
D21*
G36*
X164340001Y-103340000D02*
G01*
X157601132Y-103340000D01*
X157605072Y-103300000D01*
X157605072Y-102826062D01*
X157711059Y-102769411D01*
X157845817Y-102658817D01*
X157873534Y-102625044D01*
X164340001Y-96158578D01*
X164340001Y-103340000D01*
G37*
X164340001Y-103340000D02*
X157601132Y-103340000D01*
X157605072Y-103300000D01*
X157605072Y-102826062D01*
X157711059Y-102769411D01*
X157845817Y-102658817D01*
X157873534Y-102625044D01*
X164340001Y-96158578D01*
X164340001Y-103340000D01*
G36*
X127265728Y-75093700D02*
G01*
X127277988Y-75218182D01*
X127314298Y-75337880D01*
X127373263Y-75448194D01*
X127452615Y-75544885D01*
X127549306Y-75624237D01*
X127659620Y-75683202D01*
X127779318Y-75719512D01*
X127903800Y-75731772D01*
X129803800Y-75731772D01*
X129928282Y-75719512D01*
X130047980Y-75683202D01*
X130158294Y-75624237D01*
X130254985Y-75544885D01*
X130334337Y-75448194D01*
X130393302Y-75337880D01*
X130429612Y-75218182D01*
X130441872Y-75093700D01*
X130441872Y-73360000D01*
X138385728Y-73360000D01*
X138385728Y-75093700D01*
X138397988Y-75218182D01*
X138434298Y-75337880D01*
X138493263Y-75448194D01*
X138572615Y-75544885D01*
X138669306Y-75624237D01*
X138779620Y-75683202D01*
X138899318Y-75719512D01*
X139023800Y-75731772D01*
X140923800Y-75731772D01*
X141048282Y-75719512D01*
X141167980Y-75683202D01*
X141278294Y-75624237D01*
X141374985Y-75544885D01*
X141454337Y-75448194D01*
X141513302Y-75337880D01*
X141549612Y-75218182D01*
X141561872Y-75093700D01*
X141561872Y-73360000D01*
X160399193Y-73360000D01*
X160192793Y-73497912D01*
X159797912Y-73892793D01*
X159487656Y-74357124D01*
X159273948Y-74873061D01*
X159165000Y-75420777D01*
X159165000Y-75979223D01*
X159273948Y-76526939D01*
X159487656Y-77042876D01*
X159797912Y-77507207D01*
X160192793Y-77902088D01*
X160657124Y-78212344D01*
X161173061Y-78426052D01*
X161720777Y-78535000D01*
X162279223Y-78535000D01*
X162826939Y-78426052D01*
X163342876Y-78212344D01*
X163807207Y-77902088D01*
X164202088Y-77507207D01*
X164340000Y-77300807D01*
X164340000Y-85041421D01*
X157873534Y-78574956D01*
X157845817Y-78541183D01*
X157711059Y-78430589D01*
X157605072Y-78373938D01*
X157605072Y-77900000D01*
X157592812Y-77775518D01*
X157556502Y-77655820D01*
X157497537Y-77545506D01*
X157418185Y-77448815D01*
X157321494Y-77369463D01*
X157211180Y-77310498D01*
X157091482Y-77274188D01*
X156967000Y-77261928D01*
X155312000Y-77261928D01*
X155312000Y-76948382D01*
X155329109Y-76891981D01*
X155341369Y-76767499D01*
X155341369Y-76267501D01*
X155329109Y-76143019D01*
X155312000Y-76086618D01*
X155312000Y-75983523D01*
X155299195Y-75853510D01*
X155285000Y-75806716D01*
X155285000Y-75738454D01*
X155317205Y-75690256D01*
X155395226Y-75501898D01*
X155435000Y-75301939D01*
X155435000Y-75098061D01*
X155395226Y-74898102D01*
X155317205Y-74709744D01*
X155203937Y-74540226D01*
X155059774Y-74396063D01*
X154890256Y-74282795D01*
X154701898Y-74204774D01*
X154501939Y-74165000D01*
X154298061Y-74165000D01*
X154098102Y-74204774D01*
X153909744Y-74282795D01*
X153740226Y-74396063D01*
X153596063Y-74540226D01*
X153482795Y-74709744D01*
X153404774Y-74898102D01*
X153365000Y-75098061D01*
X153365000Y-75301939D01*
X153404774Y-75501898D01*
X153482795Y-75690256D01*
X153515000Y-75738454D01*
X153515000Y-76021070D01*
X153513797Y-76023321D01*
X153477487Y-76143019D01*
X153465227Y-76267501D01*
X153465227Y-76664500D01*
X153276300Y-76664500D01*
X153276300Y-76640499D01*
X152627051Y-76640499D01*
X152468301Y-76799249D01*
X152480895Y-76908023D01*
X152520269Y-77026748D01*
X152582049Y-77135511D01*
X152663860Y-77230130D01*
X152704703Y-77261928D01*
X151887000Y-77261928D01*
X151762518Y-77274188D01*
X151642820Y-77310498D01*
X151532506Y-77369463D01*
X151435815Y-77448815D01*
X151356463Y-77545506D01*
X151297498Y-77655820D01*
X151261188Y-77775518D01*
X151248928Y-77900000D01*
X151248928Y-80440000D01*
X151261188Y-80564482D01*
X151297498Y-80684180D01*
X151356463Y-80794494D01*
X151435815Y-80891185D01*
X151532506Y-80970537D01*
X151642820Y-81029502D01*
X151762518Y-81065812D01*
X151887000Y-81078072D01*
X153913639Y-81078072D01*
X152677447Y-81167449D01*
X150868424Y-81665237D01*
X149191275Y-82506384D01*
X148777497Y-82782862D01*
X147734881Y-83855276D01*
X154300000Y-90420395D01*
X154314143Y-90406253D01*
X154493748Y-90585858D01*
X154479605Y-90600000D01*
X154493748Y-90614143D01*
X154314143Y-90793748D01*
X154300000Y-90779605D01*
X147734881Y-97344724D01*
X148777497Y-98417138D01*
X150408658Y-99344321D01*
X152189362Y-99935465D01*
X153683247Y-100121928D01*
X151887000Y-100121928D01*
X151762518Y-100134188D01*
X151642820Y-100170498D01*
X151532506Y-100229463D01*
X151435815Y-100308815D01*
X151356463Y-100405506D01*
X151297498Y-100515820D01*
X151261188Y-100635518D01*
X151248928Y-100760000D01*
X151248928Y-103300000D01*
X151252868Y-103340000D01*
X142937872Y-103340000D01*
X142957417Y-103330105D01*
X143201792Y-103138479D01*
X143404087Y-102902860D01*
X143556528Y-102632303D01*
X143647386Y-102366288D01*
X143527384Y-102120700D01*
X142133800Y-102120700D01*
X142133800Y-102140700D01*
X141879800Y-102140700D01*
X141879800Y-102120700D01*
X140486216Y-102120700D01*
X140366214Y-102366288D01*
X140457072Y-102632303D01*
X140609513Y-102902860D01*
X140811808Y-103138479D01*
X141056183Y-103330105D01*
X141075728Y-103340000D01*
X127727872Y-103340000D01*
X127747417Y-103330105D01*
X127991792Y-103138479D01*
X128194087Y-102902860D01*
X128346528Y-102632303D01*
X128437386Y-102366288D01*
X128317384Y-102120700D01*
X126923800Y-102120700D01*
X126923800Y-102140700D01*
X126669800Y-102140700D01*
X126669800Y-102120700D01*
X125276216Y-102120700D01*
X125156214Y-102366288D01*
X125247072Y-102632303D01*
X125399513Y-102902860D01*
X125601808Y-103138479D01*
X125846183Y-103330105D01*
X125865728Y-103340000D01*
X124960000Y-103340000D01*
X124960000Y-81673700D01*
X125104131Y-81673700D01*
X125134734Y-81984414D01*
X125225366Y-82283188D01*
X125372544Y-82558539D01*
X125570613Y-82799887D01*
X125745850Y-82943700D01*
X125570613Y-83087513D01*
X125372544Y-83328861D01*
X125225366Y-83604212D01*
X125134734Y-83902986D01*
X125104131Y-84213700D01*
X125134734Y-84524414D01*
X125225366Y-84823188D01*
X125372544Y-85098539D01*
X125570613Y-85339887D01*
X125745850Y-85483700D01*
X125570613Y-85627513D01*
X125372544Y-85868861D01*
X125225366Y-86144212D01*
X125134734Y-86442986D01*
X125104131Y-86753700D01*
X125134734Y-87064414D01*
X125225366Y-87363188D01*
X125372544Y-87638539D01*
X125570613Y-87879887D01*
X125745850Y-88023700D01*
X125570613Y-88167513D01*
X125372544Y-88408861D01*
X125225366Y-88684212D01*
X125134734Y-88982986D01*
X125104131Y-89293700D01*
X125134734Y-89604414D01*
X125225366Y-89903188D01*
X125372544Y-90178539D01*
X125570613Y-90419887D01*
X125745850Y-90563700D01*
X125570613Y-90707513D01*
X125372544Y-90948861D01*
X125225366Y-91224212D01*
X125134734Y-91522986D01*
X125104131Y-91833700D01*
X125134734Y-92144414D01*
X125225366Y-92443188D01*
X125372544Y-92718539D01*
X125570613Y-92959887D01*
X125745850Y-93103700D01*
X125570613Y-93247513D01*
X125372544Y-93488861D01*
X125225366Y-93764212D01*
X125134734Y-94062986D01*
X125104131Y-94373700D01*
X125134734Y-94684414D01*
X125225366Y-94983188D01*
X125372544Y-95258539D01*
X125570613Y-95499887D01*
X125745850Y-95643700D01*
X125570613Y-95787513D01*
X125372544Y-96028861D01*
X125225366Y-96304212D01*
X125134734Y-96602986D01*
X125104131Y-96913700D01*
X125134734Y-97224414D01*
X125225366Y-97523188D01*
X125372544Y-97798539D01*
X125570613Y-98039887D01*
X125745850Y-98183700D01*
X125570613Y-98327513D01*
X125372544Y-98568861D01*
X125225366Y-98844212D01*
X125134734Y-99142986D01*
X125104131Y-99453700D01*
X125134734Y-99764414D01*
X125225366Y-100063188D01*
X125372544Y-100338539D01*
X125570613Y-100579887D01*
X125753496Y-100729975D01*
X125601808Y-100848921D01*
X125399513Y-101084540D01*
X125247072Y-101355097D01*
X125156214Y-101621112D01*
X125276216Y-101866700D01*
X126669800Y-101866700D01*
X126669800Y-101846700D01*
X126923800Y-101846700D01*
X126923800Y-101866700D01*
X128317384Y-101866700D01*
X128437386Y-101621112D01*
X128346528Y-101355097D01*
X128194087Y-101084540D01*
X127991792Y-100848921D01*
X127840104Y-100729975D01*
X128022987Y-100579887D01*
X128221056Y-100338539D01*
X128368234Y-100063188D01*
X128458866Y-99764414D01*
X128489469Y-99453700D01*
X128458866Y-99142986D01*
X128368234Y-98844212D01*
X128221056Y-98568861D01*
X128022987Y-98327513D01*
X127847750Y-98183700D01*
X128022987Y-98039887D01*
X128221056Y-97798539D01*
X128368234Y-97523188D01*
X128458866Y-97224414D01*
X128489469Y-96913700D01*
X128458866Y-96602986D01*
X128368234Y-96304212D01*
X128221056Y-96028861D01*
X128022987Y-95787513D01*
X127847750Y-95643700D01*
X128022987Y-95499887D01*
X128221056Y-95258539D01*
X128368234Y-94983188D01*
X128458866Y-94684414D01*
X128489469Y-94373700D01*
X128458866Y-94062986D01*
X128368234Y-93764212D01*
X128221056Y-93488861D01*
X128145422Y-93396700D01*
X128966328Y-93396700D01*
X128966328Y-95096700D01*
X128978588Y-95221182D01*
X129014898Y-95340880D01*
X129073863Y-95451194D01*
X129153215Y-95547885D01*
X129249906Y-95627237D01*
X129360220Y-95686202D01*
X129479918Y-95722512D01*
X129604400Y-95734772D01*
X131304400Y-95734772D01*
X131428882Y-95722512D01*
X131548580Y-95686202D01*
X131658894Y-95627237D01*
X131755585Y-95547885D01*
X131834937Y-95451194D01*
X131893902Y-95340880D01*
X131930212Y-95221182D01*
X131942472Y-95096700D01*
X131942472Y-93396700D01*
X131930212Y-93272218D01*
X131893902Y-93152520D01*
X131834937Y-93042206D01*
X131755585Y-92945515D01*
X131658894Y-92866163D01*
X131548580Y-92807198D01*
X131428882Y-92770888D01*
X131304400Y-92758628D01*
X129604400Y-92758628D01*
X129479918Y-92770888D01*
X129360220Y-92807198D01*
X129249906Y-92866163D01*
X129153215Y-92945515D01*
X129073863Y-93042206D01*
X129014898Y-93152520D01*
X128978588Y-93272218D01*
X128966328Y-93396700D01*
X128145422Y-93396700D01*
X128022987Y-93247513D01*
X127847750Y-93103700D01*
X128022987Y-92959887D01*
X128221056Y-92718539D01*
X128368234Y-92443188D01*
X128458866Y-92144414D01*
X128489469Y-91833700D01*
X128471924Y-91655561D01*
X134740700Y-91655561D01*
X134740700Y-91859439D01*
X134780474Y-92059398D01*
X134858495Y-92247756D01*
X134971763Y-92417274D01*
X135115926Y-92561437D01*
X135285444Y-92674705D01*
X135473802Y-92752726D01*
X135673761Y-92792500D01*
X135877639Y-92792500D01*
X136077598Y-92752726D01*
X136265956Y-92674705D01*
X136435474Y-92561437D01*
X136579637Y-92417274D01*
X136692905Y-92247756D01*
X136770926Y-92059398D01*
X136810700Y-91859439D01*
X136810700Y-91797302D01*
X136811002Y-91797000D01*
X136840001Y-91773201D01*
X136934974Y-91657476D01*
X137005546Y-91525447D01*
X137049003Y-91382186D01*
X137060000Y-91270533D01*
X137060000Y-91270524D01*
X137063676Y-91233201D01*
X137060000Y-91195878D01*
X137060000Y-87103711D01*
X137103937Y-87059774D01*
X137217205Y-86890256D01*
X137273768Y-86753700D01*
X140314131Y-86753700D01*
X140344734Y-87064414D01*
X140435366Y-87363188D01*
X140582544Y-87638539D01*
X140780613Y-87879887D01*
X140955850Y-88023700D01*
X140780613Y-88167513D01*
X140582544Y-88408861D01*
X140435366Y-88684212D01*
X140344734Y-88982986D01*
X140314131Y-89293700D01*
X140344734Y-89604414D01*
X140435366Y-89903188D01*
X140582544Y-90178539D01*
X140780613Y-90419887D01*
X140955850Y-90563700D01*
X140780613Y-90707513D01*
X140582544Y-90948861D01*
X140435366Y-91224212D01*
X140344734Y-91522986D01*
X140314131Y-91833700D01*
X140344734Y-92144414D01*
X140435366Y-92443188D01*
X140582544Y-92718539D01*
X140780613Y-92959887D01*
X140955850Y-93103700D01*
X140780613Y-93247513D01*
X140582544Y-93488861D01*
X140435366Y-93764212D01*
X140344734Y-94062986D01*
X140314131Y-94373700D01*
X140344734Y-94684414D01*
X140435366Y-94983188D01*
X140582544Y-95258539D01*
X140780613Y-95499887D01*
X140955850Y-95643700D01*
X140780613Y-95787513D01*
X140582544Y-96028861D01*
X140435366Y-96304212D01*
X140344734Y-96602986D01*
X140314131Y-96913700D01*
X140344734Y-97224414D01*
X140435366Y-97523188D01*
X140582544Y-97798539D01*
X140780613Y-98039887D01*
X140955850Y-98183700D01*
X140780613Y-98327513D01*
X140582544Y-98568861D01*
X140435366Y-98844212D01*
X140344734Y-99142986D01*
X140314131Y-99453700D01*
X140344734Y-99764414D01*
X140435366Y-100063188D01*
X140582544Y-100338539D01*
X140780613Y-100579887D01*
X140963496Y-100729975D01*
X140811808Y-100848921D01*
X140609513Y-101084540D01*
X140457072Y-101355097D01*
X140366214Y-101621112D01*
X140486216Y-101866700D01*
X141879800Y-101866700D01*
X141879800Y-101846700D01*
X142133800Y-101846700D01*
X142133800Y-101866700D01*
X143527384Y-101866700D01*
X143647386Y-101621112D01*
X143556528Y-101355097D01*
X143404087Y-101084540D01*
X143201792Y-100848921D01*
X143050104Y-100729975D01*
X143232987Y-100579887D01*
X143431056Y-100338539D01*
X143578234Y-100063188D01*
X143668866Y-99764414D01*
X143699469Y-99453700D01*
X143668866Y-99142986D01*
X143578234Y-98844212D01*
X143431056Y-98568861D01*
X143232987Y-98327513D01*
X143057750Y-98183700D01*
X143232987Y-98039887D01*
X143431056Y-97798539D01*
X143578234Y-97523188D01*
X143668866Y-97224414D01*
X143699469Y-96913700D01*
X143668866Y-96602986D01*
X143578234Y-96304212D01*
X143431056Y-96028861D01*
X143232987Y-95787513D01*
X143057750Y-95643700D01*
X143232987Y-95499887D01*
X143431056Y-95258539D01*
X143578234Y-94983188D01*
X143668866Y-94684414D01*
X143699469Y-94373700D01*
X143668866Y-94062986D01*
X143578234Y-93764212D01*
X143431056Y-93488861D01*
X143232987Y-93247513D01*
X143057750Y-93103700D01*
X143232987Y-92959887D01*
X143431056Y-92718539D01*
X143578234Y-92443188D01*
X143668866Y-92144414D01*
X143699469Y-91833700D01*
X143668866Y-91522986D01*
X143578234Y-91224212D01*
X143431056Y-90948861D01*
X143232987Y-90707513D01*
X143057750Y-90563700D01*
X143232987Y-90419887D01*
X143289376Y-90351176D01*
X144732148Y-90351176D01*
X144867449Y-92222553D01*
X145365237Y-94031576D01*
X146206384Y-95708725D01*
X146482862Y-96122503D01*
X147555276Y-97165119D01*
X154120395Y-90600000D01*
X147555276Y-84034881D01*
X146482862Y-85077497D01*
X145555679Y-86708658D01*
X144964535Y-88489362D01*
X144732148Y-90351176D01*
X143289376Y-90351176D01*
X143431056Y-90178539D01*
X143578234Y-89903188D01*
X143668866Y-89604414D01*
X143699469Y-89293700D01*
X143668866Y-88982986D01*
X143578234Y-88684212D01*
X143431056Y-88408861D01*
X143232987Y-88167513D01*
X143057750Y-88023700D01*
X143232987Y-87879887D01*
X143431056Y-87638539D01*
X143578234Y-87363188D01*
X143668866Y-87064414D01*
X143699469Y-86753700D01*
X143668866Y-86442986D01*
X143578234Y-86144212D01*
X143431056Y-85868861D01*
X143232987Y-85627513D01*
X143050104Y-85477425D01*
X143201792Y-85358479D01*
X143404087Y-85122860D01*
X143556528Y-84852303D01*
X143647386Y-84586288D01*
X143527384Y-84340700D01*
X142133800Y-84340700D01*
X142133800Y-84360700D01*
X141879800Y-84360700D01*
X141879800Y-84340700D01*
X140486216Y-84340700D01*
X140366214Y-84586288D01*
X140457072Y-84852303D01*
X140609513Y-85122860D01*
X140811808Y-85358479D01*
X140963496Y-85477425D01*
X140780613Y-85627513D01*
X140582544Y-85868861D01*
X140435366Y-86144212D01*
X140344734Y-86442986D01*
X140314131Y-86753700D01*
X137273768Y-86753700D01*
X137295226Y-86701898D01*
X137335000Y-86501939D01*
X137335000Y-86298061D01*
X137295226Y-86098102D01*
X137217205Y-85909744D01*
X137103937Y-85740226D01*
X136959774Y-85596063D01*
X136790256Y-85482795D01*
X136601898Y-85404774D01*
X136401939Y-85365000D01*
X136198061Y-85365000D01*
X135998102Y-85404774D01*
X135809744Y-85482795D01*
X135640226Y-85596063D01*
X135496063Y-85740226D01*
X135382795Y-85909744D01*
X135304774Y-86098102D01*
X135265000Y-86298061D01*
X135265000Y-86501939D01*
X135304774Y-86701898D01*
X135382795Y-86890256D01*
X135496063Y-87059774D01*
X135540000Y-87103711D01*
X135540001Y-90749106D01*
X135473802Y-90762274D01*
X135285444Y-90840295D01*
X135115926Y-90953563D01*
X134971763Y-91097726D01*
X134858495Y-91267244D01*
X134780474Y-91455602D01*
X134740700Y-91655561D01*
X128471924Y-91655561D01*
X128458866Y-91522986D01*
X128368234Y-91224212D01*
X128221056Y-90948861D01*
X128022987Y-90707513D01*
X127847750Y-90563700D01*
X128022987Y-90419887D01*
X128221056Y-90178539D01*
X128368234Y-89903188D01*
X128458866Y-89604414D01*
X128489469Y-89293700D01*
X128458866Y-88982986D01*
X128368234Y-88684212D01*
X128221056Y-88408861D01*
X128022987Y-88167513D01*
X127847750Y-88023700D01*
X128022987Y-87879887D01*
X128221056Y-87638539D01*
X128368234Y-87363188D01*
X128458866Y-87064414D01*
X128489469Y-86753700D01*
X128458866Y-86442986D01*
X128368234Y-86144212D01*
X128221056Y-85868861D01*
X128022987Y-85627513D01*
X127847750Y-85483700D01*
X128022987Y-85339887D01*
X128221056Y-85098539D01*
X128368234Y-84823188D01*
X128458866Y-84524414D01*
X128489469Y-84213700D01*
X128458866Y-83902986D01*
X128368234Y-83604212D01*
X128221056Y-83328861D01*
X128022987Y-83087513D01*
X127847750Y-82943700D01*
X128022987Y-82799887D01*
X128221056Y-82558539D01*
X128368234Y-82283188D01*
X128458866Y-81984414D01*
X128489469Y-81673700D01*
X128458866Y-81362986D01*
X128368234Y-81064212D01*
X128221056Y-80788861D01*
X128115417Y-80660140D01*
X128201294Y-80614237D01*
X128297985Y-80534885D01*
X128377337Y-80438194D01*
X128436302Y-80327880D01*
X128472612Y-80208182D01*
X128484872Y-80083700D01*
X128484872Y-79133700D01*
X140314131Y-79133700D01*
X140344734Y-79444414D01*
X140435366Y-79743188D01*
X140582544Y-80018539D01*
X140780613Y-80259887D01*
X140955850Y-80403700D01*
X140780613Y-80547513D01*
X140582544Y-80788861D01*
X140435366Y-81064212D01*
X140344734Y-81362986D01*
X140314131Y-81673700D01*
X140344734Y-81984414D01*
X140435366Y-82283188D01*
X140582544Y-82558539D01*
X140780613Y-82799887D01*
X140963496Y-82949975D01*
X140811808Y-83068921D01*
X140609513Y-83304540D01*
X140457072Y-83575097D01*
X140366214Y-83841112D01*
X140486216Y-84086700D01*
X141879800Y-84086700D01*
X141879800Y-84066700D01*
X142133800Y-84066700D01*
X142133800Y-84086700D01*
X143527384Y-84086700D01*
X143647386Y-83841112D01*
X143556528Y-83575097D01*
X143404087Y-83304540D01*
X143201792Y-83068921D01*
X143050104Y-82949975D01*
X143232987Y-82799887D01*
X143431056Y-82558539D01*
X143578234Y-82283188D01*
X143668866Y-81984414D01*
X143699469Y-81673700D01*
X143668866Y-81362986D01*
X143578234Y-81064212D01*
X143431056Y-80788861D01*
X143232987Y-80547513D01*
X143057750Y-80403700D01*
X143232987Y-80259887D01*
X143431056Y-80018539D01*
X143578234Y-79743188D01*
X143668866Y-79444414D01*
X143699469Y-79133700D01*
X143668866Y-78822986D01*
X143578234Y-78524212D01*
X143431056Y-78248861D01*
X143232987Y-78007513D01*
X142991639Y-77809444D01*
X142716288Y-77662266D01*
X142417514Y-77571634D01*
X142184664Y-77548700D01*
X141828936Y-77548700D01*
X141596086Y-77571634D01*
X141297312Y-77662266D01*
X141021961Y-77809444D01*
X140780613Y-78007513D01*
X140582544Y-78248861D01*
X140435366Y-78524212D01*
X140344734Y-78822986D01*
X140314131Y-79133700D01*
X128484872Y-79133700D01*
X128484872Y-78183700D01*
X128472612Y-78059218D01*
X128436302Y-77939520D01*
X128377337Y-77829206D01*
X128297985Y-77732515D01*
X128201294Y-77653163D01*
X128090980Y-77594198D01*
X127971282Y-77557888D01*
X127846800Y-77545628D01*
X125746800Y-77545628D01*
X125622318Y-77557888D01*
X125502620Y-77594198D01*
X125392306Y-77653163D01*
X125295615Y-77732515D01*
X125216263Y-77829206D01*
X125157298Y-77939520D01*
X125120988Y-78059218D01*
X125108728Y-78183700D01*
X125108728Y-80083700D01*
X125120988Y-80208182D01*
X125157298Y-80327880D01*
X125216263Y-80438194D01*
X125295615Y-80534885D01*
X125392306Y-80614237D01*
X125478183Y-80660140D01*
X125372544Y-80788861D01*
X125225366Y-81064212D01*
X125134734Y-81362986D01*
X125104131Y-81673700D01*
X124960000Y-81673700D01*
X124960000Y-76235751D01*
X152468301Y-76235751D01*
X152627051Y-76394501D01*
X153276300Y-76394501D01*
X153276300Y-75791251D01*
X153117550Y-75632501D01*
X152994944Y-75638697D01*
X152874352Y-75671919D01*
X152762559Y-75728028D01*
X152663860Y-75804870D01*
X152582049Y-75899489D01*
X152520269Y-76008252D01*
X152480895Y-76126977D01*
X152468301Y-76235751D01*
X124960000Y-76235751D01*
X124960000Y-73360000D01*
X127265728Y-73360000D01*
X127265728Y-75093700D01*
G37*
X127265728Y-75093700D02*
X127277988Y-75218182D01*
X127314298Y-75337880D01*
X127373263Y-75448194D01*
X127452615Y-75544885D01*
X127549306Y-75624237D01*
X127659620Y-75683202D01*
X127779318Y-75719512D01*
X127903800Y-75731772D01*
X129803800Y-75731772D01*
X129928282Y-75719512D01*
X130047980Y-75683202D01*
X130158294Y-75624237D01*
X130254985Y-75544885D01*
X130334337Y-75448194D01*
X130393302Y-75337880D01*
X130429612Y-75218182D01*
X130441872Y-75093700D01*
X130441872Y-73360000D01*
X138385728Y-73360000D01*
X138385728Y-75093700D01*
X138397988Y-75218182D01*
X138434298Y-75337880D01*
X138493263Y-75448194D01*
X138572615Y-75544885D01*
X138669306Y-75624237D01*
X138779620Y-75683202D01*
X138899318Y-75719512D01*
X139023800Y-75731772D01*
X140923800Y-75731772D01*
X141048282Y-75719512D01*
X141167980Y-75683202D01*
X141278294Y-75624237D01*
X141374985Y-75544885D01*
X141454337Y-75448194D01*
X141513302Y-75337880D01*
X141549612Y-75218182D01*
X141561872Y-75093700D01*
X141561872Y-73360000D01*
X160399193Y-73360000D01*
X160192793Y-73497912D01*
X159797912Y-73892793D01*
X159487656Y-74357124D01*
X159273948Y-74873061D01*
X159165000Y-75420777D01*
X159165000Y-75979223D01*
X159273948Y-76526939D01*
X159487656Y-77042876D01*
X159797912Y-77507207D01*
X160192793Y-77902088D01*
X160657124Y-78212344D01*
X161173061Y-78426052D01*
X161720777Y-78535000D01*
X162279223Y-78535000D01*
X162826939Y-78426052D01*
X163342876Y-78212344D01*
X163807207Y-77902088D01*
X164202088Y-77507207D01*
X164340000Y-77300807D01*
X164340000Y-85041421D01*
X157873534Y-78574956D01*
X157845817Y-78541183D01*
X157711059Y-78430589D01*
X157605072Y-78373938D01*
X157605072Y-77900000D01*
X157592812Y-77775518D01*
X157556502Y-77655820D01*
X157497537Y-77545506D01*
X157418185Y-77448815D01*
X157321494Y-77369463D01*
X157211180Y-77310498D01*
X157091482Y-77274188D01*
X156967000Y-77261928D01*
X155312000Y-77261928D01*
X155312000Y-76948382D01*
X155329109Y-76891981D01*
X155341369Y-76767499D01*
X155341369Y-76267501D01*
X155329109Y-76143019D01*
X155312000Y-76086618D01*
X155312000Y-75983523D01*
X155299195Y-75853510D01*
X155285000Y-75806716D01*
X155285000Y-75738454D01*
X155317205Y-75690256D01*
X155395226Y-75501898D01*
X155435000Y-75301939D01*
X155435000Y-75098061D01*
X155395226Y-74898102D01*
X155317205Y-74709744D01*
X155203937Y-74540226D01*
X155059774Y-74396063D01*
X154890256Y-74282795D01*
X154701898Y-74204774D01*
X154501939Y-74165000D01*
X154298061Y-74165000D01*
X154098102Y-74204774D01*
X153909744Y-74282795D01*
X153740226Y-74396063D01*
X153596063Y-74540226D01*
X153482795Y-74709744D01*
X153404774Y-74898102D01*
X153365000Y-75098061D01*
X153365000Y-75301939D01*
X153404774Y-75501898D01*
X153482795Y-75690256D01*
X153515000Y-75738454D01*
X153515000Y-76021070D01*
X153513797Y-76023321D01*
X153477487Y-76143019D01*
X153465227Y-76267501D01*
X153465227Y-76664500D01*
X153276300Y-76664500D01*
X153276300Y-76640499D01*
X152627051Y-76640499D01*
X152468301Y-76799249D01*
X152480895Y-76908023D01*
X152520269Y-77026748D01*
X152582049Y-77135511D01*
X152663860Y-77230130D01*
X152704703Y-77261928D01*
X151887000Y-77261928D01*
X151762518Y-77274188D01*
X151642820Y-77310498D01*
X151532506Y-77369463D01*
X151435815Y-77448815D01*
X151356463Y-77545506D01*
X151297498Y-77655820D01*
X151261188Y-77775518D01*
X151248928Y-77900000D01*
X151248928Y-80440000D01*
X151261188Y-80564482D01*
X151297498Y-80684180D01*
X151356463Y-80794494D01*
X151435815Y-80891185D01*
X151532506Y-80970537D01*
X151642820Y-81029502D01*
X151762518Y-81065812D01*
X151887000Y-81078072D01*
X153913639Y-81078072D01*
X152677447Y-81167449D01*
X150868424Y-81665237D01*
X149191275Y-82506384D01*
X148777497Y-82782862D01*
X147734881Y-83855276D01*
X154300000Y-90420395D01*
X154314143Y-90406253D01*
X154493748Y-90585858D01*
X154479605Y-90600000D01*
X154493748Y-90614143D01*
X154314143Y-90793748D01*
X154300000Y-90779605D01*
X147734881Y-97344724D01*
X148777497Y-98417138D01*
X150408658Y-99344321D01*
X152189362Y-99935465D01*
X153683247Y-100121928D01*
X151887000Y-100121928D01*
X151762518Y-100134188D01*
X151642820Y-100170498D01*
X151532506Y-100229463D01*
X151435815Y-100308815D01*
X151356463Y-100405506D01*
X151297498Y-100515820D01*
X151261188Y-100635518D01*
X151248928Y-100760000D01*
X151248928Y-103300000D01*
X151252868Y-103340000D01*
X142937872Y-103340000D01*
X142957417Y-103330105D01*
X143201792Y-103138479D01*
X143404087Y-102902860D01*
X143556528Y-102632303D01*
X143647386Y-102366288D01*
X143527384Y-102120700D01*
X142133800Y-102120700D01*
X142133800Y-102140700D01*
X141879800Y-102140700D01*
X141879800Y-102120700D01*
X140486216Y-102120700D01*
X140366214Y-102366288D01*
X140457072Y-102632303D01*
X140609513Y-102902860D01*
X140811808Y-103138479D01*
X141056183Y-103330105D01*
X141075728Y-103340000D01*
X127727872Y-103340000D01*
X127747417Y-103330105D01*
X127991792Y-103138479D01*
X128194087Y-102902860D01*
X128346528Y-102632303D01*
X128437386Y-102366288D01*
X128317384Y-102120700D01*
X126923800Y-102120700D01*
X126923800Y-102140700D01*
X126669800Y-102140700D01*
X126669800Y-102120700D01*
X125276216Y-102120700D01*
X125156214Y-102366288D01*
X125247072Y-102632303D01*
X125399513Y-102902860D01*
X125601808Y-103138479D01*
X125846183Y-103330105D01*
X125865728Y-103340000D01*
X124960000Y-103340000D01*
X124960000Y-81673700D01*
X125104131Y-81673700D01*
X125134734Y-81984414D01*
X125225366Y-82283188D01*
X125372544Y-82558539D01*
X125570613Y-82799887D01*
X125745850Y-82943700D01*
X125570613Y-83087513D01*
X125372544Y-83328861D01*
X125225366Y-83604212D01*
X125134734Y-83902986D01*
X125104131Y-84213700D01*
X125134734Y-84524414D01*
X125225366Y-84823188D01*
X125372544Y-85098539D01*
X125570613Y-85339887D01*
X125745850Y-85483700D01*
X125570613Y-85627513D01*
X125372544Y-85868861D01*
X125225366Y-86144212D01*
X125134734Y-86442986D01*
X125104131Y-86753700D01*
X125134734Y-87064414D01*
X125225366Y-87363188D01*
X125372544Y-87638539D01*
X125570613Y-87879887D01*
X125745850Y-88023700D01*
X125570613Y-88167513D01*
X125372544Y-88408861D01*
X125225366Y-88684212D01*
X125134734Y-88982986D01*
X125104131Y-89293700D01*
X125134734Y-89604414D01*
X125225366Y-89903188D01*
X125372544Y-90178539D01*
X125570613Y-90419887D01*
X125745850Y-90563700D01*
X125570613Y-90707513D01*
X125372544Y-90948861D01*
X125225366Y-91224212D01*
X125134734Y-91522986D01*
X125104131Y-91833700D01*
X125134734Y-92144414D01*
X125225366Y-92443188D01*
X125372544Y-92718539D01*
X125570613Y-92959887D01*
X125745850Y-93103700D01*
X125570613Y-93247513D01*
X125372544Y-93488861D01*
X125225366Y-93764212D01*
X125134734Y-94062986D01*
X125104131Y-94373700D01*
X125134734Y-94684414D01*
X125225366Y-94983188D01*
X125372544Y-95258539D01*
X125570613Y-95499887D01*
X125745850Y-95643700D01*
X125570613Y-95787513D01*
X125372544Y-96028861D01*
X125225366Y-96304212D01*
X125134734Y-96602986D01*
X125104131Y-96913700D01*
X125134734Y-97224414D01*
X125225366Y-97523188D01*
X125372544Y-97798539D01*
X125570613Y-98039887D01*
X125745850Y-98183700D01*
X125570613Y-98327513D01*
X125372544Y-98568861D01*
X125225366Y-98844212D01*
X125134734Y-99142986D01*
X125104131Y-99453700D01*
X125134734Y-99764414D01*
X125225366Y-100063188D01*
X125372544Y-100338539D01*
X125570613Y-100579887D01*
X125753496Y-100729975D01*
X125601808Y-100848921D01*
X125399513Y-101084540D01*
X125247072Y-101355097D01*
X125156214Y-101621112D01*
X125276216Y-101866700D01*
X126669800Y-101866700D01*
X126669800Y-101846700D01*
X126923800Y-101846700D01*
X126923800Y-101866700D01*
X128317384Y-101866700D01*
X128437386Y-101621112D01*
X128346528Y-101355097D01*
X128194087Y-101084540D01*
X127991792Y-100848921D01*
X127840104Y-100729975D01*
X128022987Y-100579887D01*
X128221056Y-100338539D01*
X128368234Y-100063188D01*
X128458866Y-99764414D01*
X128489469Y-99453700D01*
X128458866Y-99142986D01*
X128368234Y-98844212D01*
X128221056Y-98568861D01*
X128022987Y-98327513D01*
X127847750Y-98183700D01*
X128022987Y-98039887D01*
X128221056Y-97798539D01*
X128368234Y-97523188D01*
X128458866Y-97224414D01*
X128489469Y-96913700D01*
X128458866Y-96602986D01*
X128368234Y-96304212D01*
X128221056Y-96028861D01*
X128022987Y-95787513D01*
X127847750Y-95643700D01*
X128022987Y-95499887D01*
X128221056Y-95258539D01*
X128368234Y-94983188D01*
X128458866Y-94684414D01*
X128489469Y-94373700D01*
X128458866Y-94062986D01*
X128368234Y-93764212D01*
X128221056Y-93488861D01*
X128145422Y-93396700D01*
X128966328Y-93396700D01*
X128966328Y-95096700D01*
X128978588Y-95221182D01*
X129014898Y-95340880D01*
X129073863Y-95451194D01*
X129153215Y-95547885D01*
X129249906Y-95627237D01*
X129360220Y-95686202D01*
X129479918Y-95722512D01*
X129604400Y-95734772D01*
X131304400Y-95734772D01*
X131428882Y-95722512D01*
X131548580Y-95686202D01*
X131658894Y-95627237D01*
X131755585Y-95547885D01*
X131834937Y-95451194D01*
X131893902Y-95340880D01*
X131930212Y-95221182D01*
X131942472Y-95096700D01*
X131942472Y-93396700D01*
X131930212Y-93272218D01*
X131893902Y-93152520D01*
X131834937Y-93042206D01*
X131755585Y-92945515D01*
X131658894Y-92866163D01*
X131548580Y-92807198D01*
X131428882Y-92770888D01*
X131304400Y-92758628D01*
X129604400Y-92758628D01*
X129479918Y-92770888D01*
X129360220Y-92807198D01*
X129249906Y-92866163D01*
X129153215Y-92945515D01*
X129073863Y-93042206D01*
X129014898Y-93152520D01*
X128978588Y-93272218D01*
X128966328Y-93396700D01*
X128145422Y-93396700D01*
X128022987Y-93247513D01*
X127847750Y-93103700D01*
X128022987Y-92959887D01*
X128221056Y-92718539D01*
X128368234Y-92443188D01*
X128458866Y-92144414D01*
X128489469Y-91833700D01*
X128471924Y-91655561D01*
X134740700Y-91655561D01*
X134740700Y-91859439D01*
X134780474Y-92059398D01*
X134858495Y-92247756D01*
X134971763Y-92417274D01*
X135115926Y-92561437D01*
X135285444Y-92674705D01*
X135473802Y-92752726D01*
X135673761Y-92792500D01*
X135877639Y-92792500D01*
X136077598Y-92752726D01*
X136265956Y-92674705D01*
X136435474Y-92561437D01*
X136579637Y-92417274D01*
X136692905Y-92247756D01*
X136770926Y-92059398D01*
X136810700Y-91859439D01*
X136810700Y-91797302D01*
X136811002Y-91797000D01*
X136840001Y-91773201D01*
X136934974Y-91657476D01*
X137005546Y-91525447D01*
X137049003Y-91382186D01*
X137060000Y-91270533D01*
X137060000Y-91270524D01*
X137063676Y-91233201D01*
X137060000Y-91195878D01*
X137060000Y-87103711D01*
X137103937Y-87059774D01*
X137217205Y-86890256D01*
X137273768Y-86753700D01*
X140314131Y-86753700D01*
X140344734Y-87064414D01*
X140435366Y-87363188D01*
X140582544Y-87638539D01*
X140780613Y-87879887D01*
X140955850Y-88023700D01*
X140780613Y-88167513D01*
X140582544Y-88408861D01*
X140435366Y-88684212D01*
X140344734Y-88982986D01*
X140314131Y-89293700D01*
X140344734Y-89604414D01*
X140435366Y-89903188D01*
X140582544Y-90178539D01*
X140780613Y-90419887D01*
X140955850Y-90563700D01*
X140780613Y-90707513D01*
X140582544Y-90948861D01*
X140435366Y-91224212D01*
X140344734Y-91522986D01*
X140314131Y-91833700D01*
X140344734Y-92144414D01*
X140435366Y-92443188D01*
X140582544Y-92718539D01*
X140780613Y-92959887D01*
X140955850Y-93103700D01*
X140780613Y-93247513D01*
X140582544Y-93488861D01*
X140435366Y-93764212D01*
X140344734Y-94062986D01*
X140314131Y-94373700D01*
X140344734Y-94684414D01*
X140435366Y-94983188D01*
X140582544Y-95258539D01*
X140780613Y-95499887D01*
X140955850Y-95643700D01*
X140780613Y-95787513D01*
X140582544Y-96028861D01*
X140435366Y-96304212D01*
X140344734Y-96602986D01*
X140314131Y-96913700D01*
X140344734Y-97224414D01*
X140435366Y-97523188D01*
X140582544Y-97798539D01*
X140780613Y-98039887D01*
X140955850Y-98183700D01*
X140780613Y-98327513D01*
X140582544Y-98568861D01*
X140435366Y-98844212D01*
X140344734Y-99142986D01*
X140314131Y-99453700D01*
X140344734Y-99764414D01*
X140435366Y-100063188D01*
X140582544Y-100338539D01*
X140780613Y-100579887D01*
X140963496Y-100729975D01*
X140811808Y-100848921D01*
X140609513Y-101084540D01*
X140457072Y-101355097D01*
X140366214Y-101621112D01*
X140486216Y-101866700D01*
X141879800Y-101866700D01*
X141879800Y-101846700D01*
X142133800Y-101846700D01*
X142133800Y-101866700D01*
X143527384Y-101866700D01*
X143647386Y-101621112D01*
X143556528Y-101355097D01*
X143404087Y-101084540D01*
X143201792Y-100848921D01*
X143050104Y-100729975D01*
X143232987Y-100579887D01*
X143431056Y-100338539D01*
X143578234Y-100063188D01*
X143668866Y-99764414D01*
X143699469Y-99453700D01*
X143668866Y-99142986D01*
X143578234Y-98844212D01*
X143431056Y-98568861D01*
X143232987Y-98327513D01*
X143057750Y-98183700D01*
X143232987Y-98039887D01*
X143431056Y-97798539D01*
X143578234Y-97523188D01*
X143668866Y-97224414D01*
X143699469Y-96913700D01*
X143668866Y-96602986D01*
X143578234Y-96304212D01*
X143431056Y-96028861D01*
X143232987Y-95787513D01*
X143057750Y-95643700D01*
X143232987Y-95499887D01*
X143431056Y-95258539D01*
X143578234Y-94983188D01*
X143668866Y-94684414D01*
X143699469Y-94373700D01*
X143668866Y-94062986D01*
X143578234Y-93764212D01*
X143431056Y-93488861D01*
X143232987Y-93247513D01*
X143057750Y-93103700D01*
X143232987Y-92959887D01*
X143431056Y-92718539D01*
X143578234Y-92443188D01*
X143668866Y-92144414D01*
X143699469Y-91833700D01*
X143668866Y-91522986D01*
X143578234Y-91224212D01*
X143431056Y-90948861D01*
X143232987Y-90707513D01*
X143057750Y-90563700D01*
X143232987Y-90419887D01*
X143289376Y-90351176D01*
X144732148Y-90351176D01*
X144867449Y-92222553D01*
X145365237Y-94031576D01*
X146206384Y-95708725D01*
X146482862Y-96122503D01*
X147555276Y-97165119D01*
X154120395Y-90600000D01*
X147555276Y-84034881D01*
X146482862Y-85077497D01*
X145555679Y-86708658D01*
X144964535Y-88489362D01*
X144732148Y-90351176D01*
X143289376Y-90351176D01*
X143431056Y-90178539D01*
X143578234Y-89903188D01*
X143668866Y-89604414D01*
X143699469Y-89293700D01*
X143668866Y-88982986D01*
X143578234Y-88684212D01*
X143431056Y-88408861D01*
X143232987Y-88167513D01*
X143057750Y-88023700D01*
X143232987Y-87879887D01*
X143431056Y-87638539D01*
X143578234Y-87363188D01*
X143668866Y-87064414D01*
X143699469Y-86753700D01*
X143668866Y-86442986D01*
X143578234Y-86144212D01*
X143431056Y-85868861D01*
X143232987Y-85627513D01*
X143050104Y-85477425D01*
X143201792Y-85358479D01*
X143404087Y-85122860D01*
X143556528Y-84852303D01*
X143647386Y-84586288D01*
X143527384Y-84340700D01*
X142133800Y-84340700D01*
X142133800Y-84360700D01*
X141879800Y-84360700D01*
X141879800Y-84340700D01*
X140486216Y-84340700D01*
X140366214Y-84586288D01*
X140457072Y-84852303D01*
X140609513Y-85122860D01*
X140811808Y-85358479D01*
X140963496Y-85477425D01*
X140780613Y-85627513D01*
X140582544Y-85868861D01*
X140435366Y-86144212D01*
X140344734Y-86442986D01*
X140314131Y-86753700D01*
X137273768Y-86753700D01*
X137295226Y-86701898D01*
X137335000Y-86501939D01*
X137335000Y-86298061D01*
X137295226Y-86098102D01*
X137217205Y-85909744D01*
X137103937Y-85740226D01*
X136959774Y-85596063D01*
X136790256Y-85482795D01*
X136601898Y-85404774D01*
X136401939Y-85365000D01*
X136198061Y-85365000D01*
X135998102Y-85404774D01*
X135809744Y-85482795D01*
X135640226Y-85596063D01*
X135496063Y-85740226D01*
X135382795Y-85909744D01*
X135304774Y-86098102D01*
X135265000Y-86298061D01*
X135265000Y-86501939D01*
X135304774Y-86701898D01*
X135382795Y-86890256D01*
X135496063Y-87059774D01*
X135540000Y-87103711D01*
X135540001Y-90749106D01*
X135473802Y-90762274D01*
X135285444Y-90840295D01*
X135115926Y-90953563D01*
X134971763Y-91097726D01*
X134858495Y-91267244D01*
X134780474Y-91455602D01*
X134740700Y-91655561D01*
X128471924Y-91655561D01*
X128458866Y-91522986D01*
X128368234Y-91224212D01*
X128221056Y-90948861D01*
X128022987Y-90707513D01*
X127847750Y-90563700D01*
X128022987Y-90419887D01*
X128221056Y-90178539D01*
X128368234Y-89903188D01*
X128458866Y-89604414D01*
X128489469Y-89293700D01*
X128458866Y-88982986D01*
X128368234Y-88684212D01*
X128221056Y-88408861D01*
X128022987Y-88167513D01*
X127847750Y-88023700D01*
X128022987Y-87879887D01*
X128221056Y-87638539D01*
X128368234Y-87363188D01*
X128458866Y-87064414D01*
X128489469Y-86753700D01*
X128458866Y-86442986D01*
X128368234Y-86144212D01*
X128221056Y-85868861D01*
X128022987Y-85627513D01*
X127847750Y-85483700D01*
X128022987Y-85339887D01*
X128221056Y-85098539D01*
X128368234Y-84823188D01*
X128458866Y-84524414D01*
X128489469Y-84213700D01*
X128458866Y-83902986D01*
X128368234Y-83604212D01*
X128221056Y-83328861D01*
X128022987Y-83087513D01*
X127847750Y-82943700D01*
X128022987Y-82799887D01*
X128221056Y-82558539D01*
X128368234Y-82283188D01*
X128458866Y-81984414D01*
X128489469Y-81673700D01*
X128458866Y-81362986D01*
X128368234Y-81064212D01*
X128221056Y-80788861D01*
X128115417Y-80660140D01*
X128201294Y-80614237D01*
X128297985Y-80534885D01*
X128377337Y-80438194D01*
X128436302Y-80327880D01*
X128472612Y-80208182D01*
X128484872Y-80083700D01*
X128484872Y-79133700D01*
X140314131Y-79133700D01*
X140344734Y-79444414D01*
X140435366Y-79743188D01*
X140582544Y-80018539D01*
X140780613Y-80259887D01*
X140955850Y-80403700D01*
X140780613Y-80547513D01*
X140582544Y-80788861D01*
X140435366Y-81064212D01*
X140344734Y-81362986D01*
X140314131Y-81673700D01*
X140344734Y-81984414D01*
X140435366Y-82283188D01*
X140582544Y-82558539D01*
X140780613Y-82799887D01*
X140963496Y-82949975D01*
X140811808Y-83068921D01*
X140609513Y-83304540D01*
X140457072Y-83575097D01*
X140366214Y-83841112D01*
X140486216Y-84086700D01*
X141879800Y-84086700D01*
X141879800Y-84066700D01*
X142133800Y-84066700D01*
X142133800Y-84086700D01*
X143527384Y-84086700D01*
X143647386Y-83841112D01*
X143556528Y-83575097D01*
X143404087Y-83304540D01*
X143201792Y-83068921D01*
X143050104Y-82949975D01*
X143232987Y-82799887D01*
X143431056Y-82558539D01*
X143578234Y-82283188D01*
X143668866Y-81984414D01*
X143699469Y-81673700D01*
X143668866Y-81362986D01*
X143578234Y-81064212D01*
X143431056Y-80788861D01*
X143232987Y-80547513D01*
X143057750Y-80403700D01*
X143232987Y-80259887D01*
X143431056Y-80018539D01*
X143578234Y-79743188D01*
X143668866Y-79444414D01*
X143699469Y-79133700D01*
X143668866Y-78822986D01*
X143578234Y-78524212D01*
X143431056Y-78248861D01*
X143232987Y-78007513D01*
X142991639Y-77809444D01*
X142716288Y-77662266D01*
X142417514Y-77571634D01*
X142184664Y-77548700D01*
X141828936Y-77548700D01*
X141596086Y-77571634D01*
X141297312Y-77662266D01*
X141021961Y-77809444D01*
X140780613Y-78007513D01*
X140582544Y-78248861D01*
X140435366Y-78524212D01*
X140344734Y-78822986D01*
X140314131Y-79133700D01*
X128484872Y-79133700D01*
X128484872Y-78183700D01*
X128472612Y-78059218D01*
X128436302Y-77939520D01*
X128377337Y-77829206D01*
X128297985Y-77732515D01*
X128201294Y-77653163D01*
X128090980Y-77594198D01*
X127971282Y-77557888D01*
X127846800Y-77545628D01*
X125746800Y-77545628D01*
X125622318Y-77557888D01*
X125502620Y-77594198D01*
X125392306Y-77653163D01*
X125295615Y-77732515D01*
X125216263Y-77829206D01*
X125157298Y-77939520D01*
X125120988Y-78059218D01*
X125108728Y-78183700D01*
X125108728Y-80083700D01*
X125120988Y-80208182D01*
X125157298Y-80327880D01*
X125216263Y-80438194D01*
X125295615Y-80534885D01*
X125392306Y-80614237D01*
X125478183Y-80660140D01*
X125372544Y-80788861D01*
X125225366Y-81064212D01*
X125134734Y-81362986D01*
X125104131Y-81673700D01*
X124960000Y-81673700D01*
X124960000Y-76235751D01*
X152468301Y-76235751D01*
X152627051Y-76394501D01*
X153276300Y-76394501D01*
X153276300Y-75791251D01*
X153117550Y-75632501D01*
X152994944Y-75638697D01*
X152874352Y-75671919D01*
X152762559Y-75728028D01*
X152663860Y-75804870D01*
X152582049Y-75899489D01*
X152520269Y-76008252D01*
X152480895Y-76126977D01*
X152468301Y-76235751D01*
X124960000Y-76235751D01*
X124960000Y-73360000D01*
X127265728Y-73360000D01*
X127265728Y-75093700D01*
G36*
X157529715Y-100465707D02*
G01*
X157497537Y-100405506D01*
X157418185Y-100308815D01*
X157321494Y-100229463D01*
X157211180Y-100170498D01*
X157091482Y-100134188D01*
X156967000Y-100121928D01*
X154686361Y-100121928D01*
X155922553Y-100032551D01*
X157731576Y-99534763D01*
X159194228Y-98801193D01*
X157529715Y-100465707D01*
G37*
X157529715Y-100465707D02*
X157497537Y-100405506D01*
X157418185Y-100308815D01*
X157321494Y-100229463D01*
X157211180Y-100170498D01*
X157091482Y-100134188D01*
X156967000Y-100121928D01*
X154686361Y-100121928D01*
X155922553Y-100032551D01*
X157731576Y-99534763D01*
X159194228Y-98801193D01*
X157529715Y-100465707D01*
G36*
X159256631Y-82461210D02*
G01*
X158191342Y-81855679D01*
X156410638Y-81264535D01*
X154916753Y-81078072D01*
X156967000Y-81078072D01*
X157091482Y-81065812D01*
X157211180Y-81029502D01*
X157321494Y-80970537D01*
X157418185Y-80891185D01*
X157497537Y-80794494D01*
X157529715Y-80734293D01*
X159256631Y-82461210D01*
G37*
X159256631Y-82461210D02*
X158191342Y-81855679D01*
X156410638Y-81264535D01*
X154916753Y-81078072D01*
X156967000Y-81078072D01*
X157091482Y-81065812D01*
X157211180Y-81029502D01*
X157321494Y-80970537D01*
X157418185Y-80891185D01*
X157497537Y-80794494D01*
X157529715Y-80734293D01*
X159256631Y-82461210D01*
M02*
