M48
; DRILL file {KiCad (5.1.5)-3} date 2020-04-24 2:35:52 PM
; FORMAT={-:-/ absolute / metric / decimal}
; #@! TF.CreationDate,2020-04-24T14:35:52-04:00
; #@! TF.GenerationSoftware,Kicad,Pcbnew,(5.1.5)-3
; #@! TF.FileFunction,Plated,1,2,PTH
FMAT,2
METRIC
T1C0.400
T2C1.000
T3C1.020
T4C2.200
%
G90
G05
T1
X129.2Y-84.0
X129.4Y-80.6
X130.6Y-99.7
X131.6Y-77.9
X133.629Y-91.808
X134.9Y-89.2
X135.776Y-91.757
X136.3Y-86.4
X138.0Y-84.9
X138.57Y-96.685
X139.2Y-80.2
X139.3Y-102.7
X139.9Y-77.0
X144.196Y-77.622
X148.285Y-86.157
X150.1Y-100.5
X150.1Y-102.7
X152.603Y-75.514
X154.4Y-75.2
X156.883Y-93.815
X157.0Y-76.65
X157.0Y-81.3
X157.086Y-85.954
X157.4Y-100.0
X161.4Y-101.5
T2
X130.454Y-94.247
T3
X126.797Y-79.134
X126.797Y-81.674
X126.797Y-84.214
X126.797Y-86.754
X126.797Y-89.294
X126.797Y-91.834
X126.797Y-94.374
X126.797Y-96.914
X126.797Y-99.454
X126.797Y-101.994
X128.854Y-74.044
X139.974Y-74.044
X142.007Y-79.134
X142.007Y-81.674
X142.007Y-84.214
X142.007Y-86.754
X142.007Y-89.294
X142.007Y-91.834
X142.007Y-94.374
X142.007Y-96.914
X142.007Y-99.454
X142.007Y-101.994
T4
X162.0Y-75.7
T0
M30
