G04 #@! TF.GenerationSoftware,KiCad,Pcbnew,(5.1.5)-3*
G04 #@! TF.CreationDate,2020-05-14T10:30:24-04:00*
G04 #@! TF.ProjectId,ble_mvp_1A-rev2,626c655f-6d76-4705-9f31-412d72657632,rev?*
G04 #@! TF.SameCoordinates,Original*
G04 #@! TF.FileFunction,Paste,Top*
G04 #@! TF.FilePolarity,Positive*
%FSLAX46Y46*%
G04 Gerber Fmt 4.6, Leading zero omitted, Abs format (unit mm)*
G04 Created by KiCad (PCBNEW (5.1.5)-3) date 2020-05-14 10:30:24*
%MOMM*%
%LPD*%
G04 APERTURE LIST*
%ADD10R,1.100000X1.100000*%
%ADD11R,1.524000X0.558800*%
%ADD12R,0.900000X0.800000*%
%ADD13R,1.800000X1.000000*%
%ADD14R,0.599999X0.499999*%
%ADD15C,0.100000*%
%ADD16R,0.650000X1.060000*%
%ADD17C,17.780001*%
%ADD18R,2.540000X5.080000*%
%ADD19R,1.220000X0.650000*%
G04 APERTURE END LIST*
D10*
X137261600Y-83886760D03*
X137261600Y-87236760D03*
D11*
X138732260Y-89310720D03*
X138732260Y-90580720D03*
X138732260Y-91850720D03*
X138732260Y-93120720D03*
X131442460Y-93120720D03*
X131442460Y-91850720D03*
X131442460Y-90580720D03*
X131442460Y-89310720D03*
D12*
X129949700Y-85886800D03*
X131949700Y-84936800D03*
X131949700Y-86836800D03*
D13*
X129824480Y-95229360D03*
X129824480Y-97729360D03*
D14*
X138828399Y-78633320D03*
X137828401Y-78633320D03*
X132021199Y-78381100D03*
X131021201Y-78381100D03*
D15*
G36*
X139567079Y-83408444D02*
G01*
X139590134Y-83411863D01*
X139612743Y-83417527D01*
X139634687Y-83425379D01*
X139655757Y-83435344D01*
X139675748Y-83447326D01*
X139694468Y-83461210D01*
X139711738Y-83476862D01*
X139727390Y-83494132D01*
X139741274Y-83512852D01*
X139753256Y-83532843D01*
X139763221Y-83553913D01*
X139771073Y-83575857D01*
X139776737Y-83598466D01*
X139780156Y-83621521D01*
X139781300Y-83644800D01*
X139781300Y-84219800D01*
X139780156Y-84243079D01*
X139776737Y-84266134D01*
X139771073Y-84288743D01*
X139763221Y-84310687D01*
X139753256Y-84331757D01*
X139741274Y-84351748D01*
X139727390Y-84370468D01*
X139711738Y-84387738D01*
X139694468Y-84403390D01*
X139675748Y-84417274D01*
X139655757Y-84429256D01*
X139634687Y-84439221D01*
X139612743Y-84447073D01*
X139590134Y-84452737D01*
X139567079Y-84456156D01*
X139543800Y-84457300D01*
X139068800Y-84457300D01*
X139045521Y-84456156D01*
X139022466Y-84452737D01*
X138999857Y-84447073D01*
X138977913Y-84439221D01*
X138956843Y-84429256D01*
X138936852Y-84417274D01*
X138918132Y-84403390D01*
X138900862Y-84387738D01*
X138885210Y-84370468D01*
X138871326Y-84351748D01*
X138859344Y-84331757D01*
X138849379Y-84310687D01*
X138841527Y-84288743D01*
X138835863Y-84266134D01*
X138832444Y-84243079D01*
X138831300Y-84219800D01*
X138831300Y-83644800D01*
X138832444Y-83621521D01*
X138835863Y-83598466D01*
X138841527Y-83575857D01*
X138849379Y-83553913D01*
X138859344Y-83532843D01*
X138871326Y-83512852D01*
X138885210Y-83494132D01*
X138900862Y-83476862D01*
X138918132Y-83461210D01*
X138936852Y-83447326D01*
X138956843Y-83435344D01*
X138977913Y-83425379D01*
X138999857Y-83417527D01*
X139022466Y-83411863D01*
X139045521Y-83408444D01*
X139068800Y-83407300D01*
X139543800Y-83407300D01*
X139567079Y-83408444D01*
G37*
G36*
X139567079Y-85158444D02*
G01*
X139590134Y-85161863D01*
X139612743Y-85167527D01*
X139634687Y-85175379D01*
X139655757Y-85185344D01*
X139675748Y-85197326D01*
X139694468Y-85211210D01*
X139711738Y-85226862D01*
X139727390Y-85244132D01*
X139741274Y-85262852D01*
X139753256Y-85282843D01*
X139763221Y-85303913D01*
X139771073Y-85325857D01*
X139776737Y-85348466D01*
X139780156Y-85371521D01*
X139781300Y-85394800D01*
X139781300Y-85969800D01*
X139780156Y-85993079D01*
X139776737Y-86016134D01*
X139771073Y-86038743D01*
X139763221Y-86060687D01*
X139753256Y-86081757D01*
X139741274Y-86101748D01*
X139727390Y-86120468D01*
X139711738Y-86137738D01*
X139694468Y-86153390D01*
X139675748Y-86167274D01*
X139655757Y-86179256D01*
X139634687Y-86189221D01*
X139612743Y-86197073D01*
X139590134Y-86202737D01*
X139567079Y-86206156D01*
X139543800Y-86207300D01*
X139068800Y-86207300D01*
X139045521Y-86206156D01*
X139022466Y-86202737D01*
X138999857Y-86197073D01*
X138977913Y-86189221D01*
X138956843Y-86179256D01*
X138936852Y-86167274D01*
X138918132Y-86153390D01*
X138900862Y-86137738D01*
X138885210Y-86120468D01*
X138871326Y-86101748D01*
X138859344Y-86081757D01*
X138849379Y-86060687D01*
X138841527Y-86038743D01*
X138835863Y-86016134D01*
X138832444Y-85993079D01*
X138831300Y-85969800D01*
X138831300Y-85394800D01*
X138832444Y-85371521D01*
X138835863Y-85348466D01*
X138841527Y-85325857D01*
X138849379Y-85303913D01*
X138859344Y-85282843D01*
X138871326Y-85262852D01*
X138885210Y-85244132D01*
X138900862Y-85226862D01*
X138918132Y-85211210D01*
X138936852Y-85197326D01*
X138956843Y-85185344D01*
X138977913Y-85175379D01*
X138999857Y-85167527D01*
X139022466Y-85161863D01*
X139045521Y-85158444D01*
X139068800Y-85157300D01*
X139543800Y-85157300D01*
X139567079Y-85158444D01*
G37*
G36*
X139595019Y-99213024D02*
G01*
X139618074Y-99216443D01*
X139640683Y-99222107D01*
X139662627Y-99229959D01*
X139683697Y-99239924D01*
X139703688Y-99251906D01*
X139722408Y-99265790D01*
X139739678Y-99281442D01*
X139755330Y-99298712D01*
X139769214Y-99317432D01*
X139781196Y-99337423D01*
X139791161Y-99358493D01*
X139799013Y-99380437D01*
X139804677Y-99403046D01*
X139808096Y-99426101D01*
X139809240Y-99449380D01*
X139809240Y-100024380D01*
X139808096Y-100047659D01*
X139804677Y-100070714D01*
X139799013Y-100093323D01*
X139791161Y-100115267D01*
X139781196Y-100136337D01*
X139769214Y-100156328D01*
X139755330Y-100175048D01*
X139739678Y-100192318D01*
X139722408Y-100207970D01*
X139703688Y-100221854D01*
X139683697Y-100233836D01*
X139662627Y-100243801D01*
X139640683Y-100251653D01*
X139618074Y-100257317D01*
X139595019Y-100260736D01*
X139571740Y-100261880D01*
X139096740Y-100261880D01*
X139073461Y-100260736D01*
X139050406Y-100257317D01*
X139027797Y-100251653D01*
X139005853Y-100243801D01*
X138984783Y-100233836D01*
X138964792Y-100221854D01*
X138946072Y-100207970D01*
X138928802Y-100192318D01*
X138913150Y-100175048D01*
X138899266Y-100156328D01*
X138887284Y-100136337D01*
X138877319Y-100115267D01*
X138869467Y-100093323D01*
X138863803Y-100070714D01*
X138860384Y-100047659D01*
X138859240Y-100024380D01*
X138859240Y-99449380D01*
X138860384Y-99426101D01*
X138863803Y-99403046D01*
X138869467Y-99380437D01*
X138877319Y-99358493D01*
X138887284Y-99337423D01*
X138899266Y-99317432D01*
X138913150Y-99298712D01*
X138928802Y-99281442D01*
X138946072Y-99265790D01*
X138964792Y-99251906D01*
X138984783Y-99239924D01*
X139005853Y-99229959D01*
X139027797Y-99222107D01*
X139050406Y-99216443D01*
X139073461Y-99213024D01*
X139096740Y-99211880D01*
X139571740Y-99211880D01*
X139595019Y-99213024D01*
G37*
G36*
X139595019Y-97463024D02*
G01*
X139618074Y-97466443D01*
X139640683Y-97472107D01*
X139662627Y-97479959D01*
X139683697Y-97489924D01*
X139703688Y-97501906D01*
X139722408Y-97515790D01*
X139739678Y-97531442D01*
X139755330Y-97548712D01*
X139769214Y-97567432D01*
X139781196Y-97587423D01*
X139791161Y-97608493D01*
X139799013Y-97630437D01*
X139804677Y-97653046D01*
X139808096Y-97676101D01*
X139809240Y-97699380D01*
X139809240Y-98274380D01*
X139808096Y-98297659D01*
X139804677Y-98320714D01*
X139799013Y-98343323D01*
X139791161Y-98365267D01*
X139781196Y-98386337D01*
X139769214Y-98406328D01*
X139755330Y-98425048D01*
X139739678Y-98442318D01*
X139722408Y-98457970D01*
X139703688Y-98471854D01*
X139683697Y-98483836D01*
X139662627Y-98493801D01*
X139640683Y-98501653D01*
X139618074Y-98507317D01*
X139595019Y-98510736D01*
X139571740Y-98511880D01*
X139096740Y-98511880D01*
X139073461Y-98510736D01*
X139050406Y-98507317D01*
X139027797Y-98501653D01*
X139005853Y-98493801D01*
X138984783Y-98483836D01*
X138964792Y-98471854D01*
X138946072Y-98457970D01*
X138928802Y-98442318D01*
X138913150Y-98425048D01*
X138899266Y-98406328D01*
X138887284Y-98386337D01*
X138877319Y-98365267D01*
X138869467Y-98343323D01*
X138863803Y-98320714D01*
X138860384Y-98297659D01*
X138859240Y-98274380D01*
X138859240Y-97699380D01*
X138860384Y-97676101D01*
X138863803Y-97653046D01*
X138869467Y-97630437D01*
X138877319Y-97608493D01*
X138887284Y-97587423D01*
X138899266Y-97567432D01*
X138913150Y-97548712D01*
X138928802Y-97531442D01*
X138946072Y-97515790D01*
X138964792Y-97501906D01*
X138984783Y-97489924D01*
X139005853Y-97479959D01*
X139027797Y-97472107D01*
X139050406Y-97466443D01*
X139073461Y-97463024D01*
X139096740Y-97461880D01*
X139571740Y-97461880D01*
X139595019Y-97463024D01*
G37*
G36*
X139610259Y-94054344D02*
G01*
X139633314Y-94057763D01*
X139655923Y-94063427D01*
X139677867Y-94071279D01*
X139698937Y-94081244D01*
X139718928Y-94093226D01*
X139737648Y-94107110D01*
X139754918Y-94122762D01*
X139770570Y-94140032D01*
X139784454Y-94158752D01*
X139796436Y-94178743D01*
X139806401Y-94199813D01*
X139814253Y-94221757D01*
X139819917Y-94244366D01*
X139823336Y-94267421D01*
X139824480Y-94290700D01*
X139824480Y-94865700D01*
X139823336Y-94888979D01*
X139819917Y-94912034D01*
X139814253Y-94934643D01*
X139806401Y-94956587D01*
X139796436Y-94977657D01*
X139784454Y-94997648D01*
X139770570Y-95016368D01*
X139754918Y-95033638D01*
X139737648Y-95049290D01*
X139718928Y-95063174D01*
X139698937Y-95075156D01*
X139677867Y-95085121D01*
X139655923Y-95092973D01*
X139633314Y-95098637D01*
X139610259Y-95102056D01*
X139586980Y-95103200D01*
X139111980Y-95103200D01*
X139088701Y-95102056D01*
X139065646Y-95098637D01*
X139043037Y-95092973D01*
X139021093Y-95085121D01*
X139000023Y-95075156D01*
X138980032Y-95063174D01*
X138961312Y-95049290D01*
X138944042Y-95033638D01*
X138928390Y-95016368D01*
X138914506Y-94997648D01*
X138902524Y-94977657D01*
X138892559Y-94956587D01*
X138884707Y-94934643D01*
X138879043Y-94912034D01*
X138875624Y-94888979D01*
X138874480Y-94865700D01*
X138874480Y-94290700D01*
X138875624Y-94267421D01*
X138879043Y-94244366D01*
X138884707Y-94221757D01*
X138892559Y-94199813D01*
X138902524Y-94178743D01*
X138914506Y-94158752D01*
X138928390Y-94140032D01*
X138944042Y-94122762D01*
X138961312Y-94107110D01*
X138980032Y-94093226D01*
X139000023Y-94081244D01*
X139021093Y-94071279D01*
X139043037Y-94063427D01*
X139065646Y-94057763D01*
X139088701Y-94054344D01*
X139111980Y-94053200D01*
X139586980Y-94053200D01*
X139610259Y-94054344D01*
G37*
G36*
X139610259Y-95804344D02*
G01*
X139633314Y-95807763D01*
X139655923Y-95813427D01*
X139677867Y-95821279D01*
X139698937Y-95831244D01*
X139718928Y-95843226D01*
X139737648Y-95857110D01*
X139754918Y-95872762D01*
X139770570Y-95890032D01*
X139784454Y-95908752D01*
X139796436Y-95928743D01*
X139806401Y-95949813D01*
X139814253Y-95971757D01*
X139819917Y-95994366D01*
X139823336Y-96017421D01*
X139824480Y-96040700D01*
X139824480Y-96615700D01*
X139823336Y-96638979D01*
X139819917Y-96662034D01*
X139814253Y-96684643D01*
X139806401Y-96706587D01*
X139796436Y-96727657D01*
X139784454Y-96747648D01*
X139770570Y-96766368D01*
X139754918Y-96783638D01*
X139737648Y-96799290D01*
X139718928Y-96813174D01*
X139698937Y-96825156D01*
X139677867Y-96835121D01*
X139655923Y-96842973D01*
X139633314Y-96848637D01*
X139610259Y-96852056D01*
X139586980Y-96853200D01*
X139111980Y-96853200D01*
X139088701Y-96852056D01*
X139065646Y-96848637D01*
X139043037Y-96842973D01*
X139021093Y-96835121D01*
X139000023Y-96825156D01*
X138980032Y-96813174D01*
X138961312Y-96799290D01*
X138944042Y-96783638D01*
X138928390Y-96766368D01*
X138914506Y-96747648D01*
X138902524Y-96727657D01*
X138892559Y-96706587D01*
X138884707Y-96684643D01*
X138879043Y-96662034D01*
X138875624Y-96638979D01*
X138874480Y-96615700D01*
X138874480Y-96040700D01*
X138875624Y-96017421D01*
X138879043Y-95994366D01*
X138884707Y-95971757D01*
X138892559Y-95949813D01*
X138902524Y-95928743D01*
X138914506Y-95908752D01*
X138928390Y-95890032D01*
X138944042Y-95872762D01*
X138961312Y-95857110D01*
X138980032Y-95843226D01*
X139000023Y-95831244D01*
X139021093Y-95821279D01*
X139043037Y-95813427D01*
X139065646Y-95807763D01*
X139088701Y-95804344D01*
X139111980Y-95803200D01*
X139586980Y-95803200D01*
X139610259Y-95804344D01*
G37*
G36*
X138102343Y-94986282D02*
G01*
X138116904Y-94988442D01*
X138131183Y-94992019D01*
X138145043Y-94996978D01*
X138158350Y-95003272D01*
X138170976Y-95010840D01*
X138182799Y-95019608D01*
X138193706Y-95029494D01*
X138203592Y-95040401D01*
X138212360Y-95052224D01*
X138219928Y-95064850D01*
X138226222Y-95078157D01*
X138231181Y-95092017D01*
X138234758Y-95106296D01*
X138236918Y-95120857D01*
X138237640Y-95135560D01*
X138237640Y-95435560D01*
X138236918Y-95450263D01*
X138234758Y-95464824D01*
X138231181Y-95479103D01*
X138226222Y-95492963D01*
X138219928Y-95506270D01*
X138212360Y-95518896D01*
X138203592Y-95530719D01*
X138193706Y-95541626D01*
X138182799Y-95551512D01*
X138170976Y-95560280D01*
X138158350Y-95567848D01*
X138145043Y-95574142D01*
X138131183Y-95579101D01*
X138116904Y-95582678D01*
X138102343Y-95584838D01*
X138087640Y-95585560D01*
X136437640Y-95585560D01*
X136422937Y-95584838D01*
X136408376Y-95582678D01*
X136394097Y-95579101D01*
X136380237Y-95574142D01*
X136366930Y-95567848D01*
X136354304Y-95560280D01*
X136342481Y-95551512D01*
X136331574Y-95541626D01*
X136321688Y-95530719D01*
X136312920Y-95518896D01*
X136305352Y-95506270D01*
X136299058Y-95492963D01*
X136294099Y-95479103D01*
X136290522Y-95464824D01*
X136288362Y-95450263D01*
X136287640Y-95435560D01*
X136287640Y-95135560D01*
X136288362Y-95120857D01*
X136290522Y-95106296D01*
X136294099Y-95092017D01*
X136299058Y-95078157D01*
X136305352Y-95064850D01*
X136312920Y-95052224D01*
X136321688Y-95040401D01*
X136331574Y-95029494D01*
X136342481Y-95019608D01*
X136354304Y-95010840D01*
X136366930Y-95003272D01*
X136380237Y-94996978D01*
X136394097Y-94992019D01*
X136408376Y-94988442D01*
X136422937Y-94986282D01*
X136437640Y-94985560D01*
X138087640Y-94985560D01*
X138102343Y-94986282D01*
G37*
G36*
X138102343Y-96256282D02*
G01*
X138116904Y-96258442D01*
X138131183Y-96262019D01*
X138145043Y-96266978D01*
X138158350Y-96273272D01*
X138170976Y-96280840D01*
X138182799Y-96289608D01*
X138193706Y-96299494D01*
X138203592Y-96310401D01*
X138212360Y-96322224D01*
X138219928Y-96334850D01*
X138226222Y-96348157D01*
X138231181Y-96362017D01*
X138234758Y-96376296D01*
X138236918Y-96390857D01*
X138237640Y-96405560D01*
X138237640Y-96705560D01*
X138236918Y-96720263D01*
X138234758Y-96734824D01*
X138231181Y-96749103D01*
X138226222Y-96762963D01*
X138219928Y-96776270D01*
X138212360Y-96788896D01*
X138203592Y-96800719D01*
X138193706Y-96811626D01*
X138182799Y-96821512D01*
X138170976Y-96830280D01*
X138158350Y-96837848D01*
X138145043Y-96844142D01*
X138131183Y-96849101D01*
X138116904Y-96852678D01*
X138102343Y-96854838D01*
X138087640Y-96855560D01*
X136437640Y-96855560D01*
X136422937Y-96854838D01*
X136408376Y-96852678D01*
X136394097Y-96849101D01*
X136380237Y-96844142D01*
X136366930Y-96837848D01*
X136354304Y-96830280D01*
X136342481Y-96821512D01*
X136331574Y-96811626D01*
X136321688Y-96800719D01*
X136312920Y-96788896D01*
X136305352Y-96776270D01*
X136299058Y-96762963D01*
X136294099Y-96749103D01*
X136290522Y-96734824D01*
X136288362Y-96720263D01*
X136287640Y-96705560D01*
X136287640Y-96405560D01*
X136288362Y-96390857D01*
X136290522Y-96376296D01*
X136294099Y-96362017D01*
X136299058Y-96348157D01*
X136305352Y-96334850D01*
X136312920Y-96322224D01*
X136321688Y-96310401D01*
X136331574Y-96299494D01*
X136342481Y-96289608D01*
X136354304Y-96280840D01*
X136366930Y-96273272D01*
X136380237Y-96266978D01*
X136394097Y-96262019D01*
X136408376Y-96258442D01*
X136422937Y-96256282D01*
X136437640Y-96255560D01*
X138087640Y-96255560D01*
X138102343Y-96256282D01*
G37*
G36*
X138102343Y-97526282D02*
G01*
X138116904Y-97528442D01*
X138131183Y-97532019D01*
X138145043Y-97536978D01*
X138158350Y-97543272D01*
X138170976Y-97550840D01*
X138182799Y-97559608D01*
X138193706Y-97569494D01*
X138203592Y-97580401D01*
X138212360Y-97592224D01*
X138219928Y-97604850D01*
X138226222Y-97618157D01*
X138231181Y-97632017D01*
X138234758Y-97646296D01*
X138236918Y-97660857D01*
X138237640Y-97675560D01*
X138237640Y-97975560D01*
X138236918Y-97990263D01*
X138234758Y-98004824D01*
X138231181Y-98019103D01*
X138226222Y-98032963D01*
X138219928Y-98046270D01*
X138212360Y-98058896D01*
X138203592Y-98070719D01*
X138193706Y-98081626D01*
X138182799Y-98091512D01*
X138170976Y-98100280D01*
X138158350Y-98107848D01*
X138145043Y-98114142D01*
X138131183Y-98119101D01*
X138116904Y-98122678D01*
X138102343Y-98124838D01*
X138087640Y-98125560D01*
X136437640Y-98125560D01*
X136422937Y-98124838D01*
X136408376Y-98122678D01*
X136394097Y-98119101D01*
X136380237Y-98114142D01*
X136366930Y-98107848D01*
X136354304Y-98100280D01*
X136342481Y-98091512D01*
X136331574Y-98081626D01*
X136321688Y-98070719D01*
X136312920Y-98058896D01*
X136305352Y-98046270D01*
X136299058Y-98032963D01*
X136294099Y-98019103D01*
X136290522Y-98004824D01*
X136288362Y-97990263D01*
X136287640Y-97975560D01*
X136287640Y-97675560D01*
X136288362Y-97660857D01*
X136290522Y-97646296D01*
X136294099Y-97632017D01*
X136299058Y-97618157D01*
X136305352Y-97604850D01*
X136312920Y-97592224D01*
X136321688Y-97580401D01*
X136331574Y-97569494D01*
X136342481Y-97559608D01*
X136354304Y-97550840D01*
X136366930Y-97543272D01*
X136380237Y-97536978D01*
X136394097Y-97532019D01*
X136408376Y-97528442D01*
X136422937Y-97526282D01*
X136437640Y-97525560D01*
X138087640Y-97525560D01*
X138102343Y-97526282D01*
G37*
G36*
X138102343Y-98796282D02*
G01*
X138116904Y-98798442D01*
X138131183Y-98802019D01*
X138145043Y-98806978D01*
X138158350Y-98813272D01*
X138170976Y-98820840D01*
X138182799Y-98829608D01*
X138193706Y-98839494D01*
X138203592Y-98850401D01*
X138212360Y-98862224D01*
X138219928Y-98874850D01*
X138226222Y-98888157D01*
X138231181Y-98902017D01*
X138234758Y-98916296D01*
X138236918Y-98930857D01*
X138237640Y-98945560D01*
X138237640Y-99245560D01*
X138236918Y-99260263D01*
X138234758Y-99274824D01*
X138231181Y-99289103D01*
X138226222Y-99302963D01*
X138219928Y-99316270D01*
X138212360Y-99328896D01*
X138203592Y-99340719D01*
X138193706Y-99351626D01*
X138182799Y-99361512D01*
X138170976Y-99370280D01*
X138158350Y-99377848D01*
X138145043Y-99384142D01*
X138131183Y-99389101D01*
X138116904Y-99392678D01*
X138102343Y-99394838D01*
X138087640Y-99395560D01*
X136437640Y-99395560D01*
X136422937Y-99394838D01*
X136408376Y-99392678D01*
X136394097Y-99389101D01*
X136380237Y-99384142D01*
X136366930Y-99377848D01*
X136354304Y-99370280D01*
X136342481Y-99361512D01*
X136331574Y-99351626D01*
X136321688Y-99340719D01*
X136312920Y-99328896D01*
X136305352Y-99316270D01*
X136299058Y-99302963D01*
X136294099Y-99289103D01*
X136290522Y-99274824D01*
X136288362Y-99260263D01*
X136287640Y-99245560D01*
X136287640Y-98945560D01*
X136288362Y-98930857D01*
X136290522Y-98916296D01*
X136294099Y-98902017D01*
X136299058Y-98888157D01*
X136305352Y-98874850D01*
X136312920Y-98862224D01*
X136321688Y-98850401D01*
X136331574Y-98839494D01*
X136342481Y-98829608D01*
X136354304Y-98820840D01*
X136366930Y-98813272D01*
X136380237Y-98806978D01*
X136394097Y-98802019D01*
X136408376Y-98798442D01*
X136422937Y-98796282D01*
X136437640Y-98795560D01*
X138087640Y-98795560D01*
X138102343Y-98796282D01*
G37*
G36*
X133152343Y-98796282D02*
G01*
X133166904Y-98798442D01*
X133181183Y-98802019D01*
X133195043Y-98806978D01*
X133208350Y-98813272D01*
X133220976Y-98820840D01*
X133232799Y-98829608D01*
X133243706Y-98839494D01*
X133253592Y-98850401D01*
X133262360Y-98862224D01*
X133269928Y-98874850D01*
X133276222Y-98888157D01*
X133281181Y-98902017D01*
X133284758Y-98916296D01*
X133286918Y-98930857D01*
X133287640Y-98945560D01*
X133287640Y-99245560D01*
X133286918Y-99260263D01*
X133284758Y-99274824D01*
X133281181Y-99289103D01*
X133276222Y-99302963D01*
X133269928Y-99316270D01*
X133262360Y-99328896D01*
X133253592Y-99340719D01*
X133243706Y-99351626D01*
X133232799Y-99361512D01*
X133220976Y-99370280D01*
X133208350Y-99377848D01*
X133195043Y-99384142D01*
X133181183Y-99389101D01*
X133166904Y-99392678D01*
X133152343Y-99394838D01*
X133137640Y-99395560D01*
X131487640Y-99395560D01*
X131472937Y-99394838D01*
X131458376Y-99392678D01*
X131444097Y-99389101D01*
X131430237Y-99384142D01*
X131416930Y-99377848D01*
X131404304Y-99370280D01*
X131392481Y-99361512D01*
X131381574Y-99351626D01*
X131371688Y-99340719D01*
X131362920Y-99328896D01*
X131355352Y-99316270D01*
X131349058Y-99302963D01*
X131344099Y-99289103D01*
X131340522Y-99274824D01*
X131338362Y-99260263D01*
X131337640Y-99245560D01*
X131337640Y-98945560D01*
X131338362Y-98930857D01*
X131340522Y-98916296D01*
X131344099Y-98902017D01*
X131349058Y-98888157D01*
X131355352Y-98874850D01*
X131362920Y-98862224D01*
X131371688Y-98850401D01*
X131381574Y-98839494D01*
X131392481Y-98829608D01*
X131404304Y-98820840D01*
X131416930Y-98813272D01*
X131430237Y-98806978D01*
X131444097Y-98802019D01*
X131458376Y-98798442D01*
X131472937Y-98796282D01*
X131487640Y-98795560D01*
X133137640Y-98795560D01*
X133152343Y-98796282D01*
G37*
G36*
X133152343Y-97526282D02*
G01*
X133166904Y-97528442D01*
X133181183Y-97532019D01*
X133195043Y-97536978D01*
X133208350Y-97543272D01*
X133220976Y-97550840D01*
X133232799Y-97559608D01*
X133243706Y-97569494D01*
X133253592Y-97580401D01*
X133262360Y-97592224D01*
X133269928Y-97604850D01*
X133276222Y-97618157D01*
X133281181Y-97632017D01*
X133284758Y-97646296D01*
X133286918Y-97660857D01*
X133287640Y-97675560D01*
X133287640Y-97975560D01*
X133286918Y-97990263D01*
X133284758Y-98004824D01*
X133281181Y-98019103D01*
X133276222Y-98032963D01*
X133269928Y-98046270D01*
X133262360Y-98058896D01*
X133253592Y-98070719D01*
X133243706Y-98081626D01*
X133232799Y-98091512D01*
X133220976Y-98100280D01*
X133208350Y-98107848D01*
X133195043Y-98114142D01*
X133181183Y-98119101D01*
X133166904Y-98122678D01*
X133152343Y-98124838D01*
X133137640Y-98125560D01*
X131487640Y-98125560D01*
X131472937Y-98124838D01*
X131458376Y-98122678D01*
X131444097Y-98119101D01*
X131430237Y-98114142D01*
X131416930Y-98107848D01*
X131404304Y-98100280D01*
X131392481Y-98091512D01*
X131381574Y-98081626D01*
X131371688Y-98070719D01*
X131362920Y-98058896D01*
X131355352Y-98046270D01*
X131349058Y-98032963D01*
X131344099Y-98019103D01*
X131340522Y-98004824D01*
X131338362Y-97990263D01*
X131337640Y-97975560D01*
X131337640Y-97675560D01*
X131338362Y-97660857D01*
X131340522Y-97646296D01*
X131344099Y-97632017D01*
X131349058Y-97618157D01*
X131355352Y-97604850D01*
X131362920Y-97592224D01*
X131371688Y-97580401D01*
X131381574Y-97569494D01*
X131392481Y-97559608D01*
X131404304Y-97550840D01*
X131416930Y-97543272D01*
X131430237Y-97536978D01*
X131444097Y-97532019D01*
X131458376Y-97528442D01*
X131472937Y-97526282D01*
X131487640Y-97525560D01*
X133137640Y-97525560D01*
X133152343Y-97526282D01*
G37*
G36*
X133152343Y-96256282D02*
G01*
X133166904Y-96258442D01*
X133181183Y-96262019D01*
X133195043Y-96266978D01*
X133208350Y-96273272D01*
X133220976Y-96280840D01*
X133232799Y-96289608D01*
X133243706Y-96299494D01*
X133253592Y-96310401D01*
X133262360Y-96322224D01*
X133269928Y-96334850D01*
X133276222Y-96348157D01*
X133281181Y-96362017D01*
X133284758Y-96376296D01*
X133286918Y-96390857D01*
X133287640Y-96405560D01*
X133287640Y-96705560D01*
X133286918Y-96720263D01*
X133284758Y-96734824D01*
X133281181Y-96749103D01*
X133276222Y-96762963D01*
X133269928Y-96776270D01*
X133262360Y-96788896D01*
X133253592Y-96800719D01*
X133243706Y-96811626D01*
X133232799Y-96821512D01*
X133220976Y-96830280D01*
X133208350Y-96837848D01*
X133195043Y-96844142D01*
X133181183Y-96849101D01*
X133166904Y-96852678D01*
X133152343Y-96854838D01*
X133137640Y-96855560D01*
X131487640Y-96855560D01*
X131472937Y-96854838D01*
X131458376Y-96852678D01*
X131444097Y-96849101D01*
X131430237Y-96844142D01*
X131416930Y-96837848D01*
X131404304Y-96830280D01*
X131392481Y-96821512D01*
X131381574Y-96811626D01*
X131371688Y-96800719D01*
X131362920Y-96788896D01*
X131355352Y-96776270D01*
X131349058Y-96762963D01*
X131344099Y-96749103D01*
X131340522Y-96734824D01*
X131338362Y-96720263D01*
X131337640Y-96705560D01*
X131337640Y-96405560D01*
X131338362Y-96390857D01*
X131340522Y-96376296D01*
X131344099Y-96362017D01*
X131349058Y-96348157D01*
X131355352Y-96334850D01*
X131362920Y-96322224D01*
X131371688Y-96310401D01*
X131381574Y-96299494D01*
X131392481Y-96289608D01*
X131404304Y-96280840D01*
X131416930Y-96273272D01*
X131430237Y-96266978D01*
X131444097Y-96262019D01*
X131458376Y-96258442D01*
X131472937Y-96256282D01*
X131487640Y-96255560D01*
X133137640Y-96255560D01*
X133152343Y-96256282D01*
G37*
G36*
X133152343Y-94986282D02*
G01*
X133166904Y-94988442D01*
X133181183Y-94992019D01*
X133195043Y-94996978D01*
X133208350Y-95003272D01*
X133220976Y-95010840D01*
X133232799Y-95019608D01*
X133243706Y-95029494D01*
X133253592Y-95040401D01*
X133262360Y-95052224D01*
X133269928Y-95064850D01*
X133276222Y-95078157D01*
X133281181Y-95092017D01*
X133284758Y-95106296D01*
X133286918Y-95120857D01*
X133287640Y-95135560D01*
X133287640Y-95435560D01*
X133286918Y-95450263D01*
X133284758Y-95464824D01*
X133281181Y-95479103D01*
X133276222Y-95492963D01*
X133269928Y-95506270D01*
X133262360Y-95518896D01*
X133253592Y-95530719D01*
X133243706Y-95541626D01*
X133232799Y-95551512D01*
X133220976Y-95560280D01*
X133208350Y-95567848D01*
X133195043Y-95574142D01*
X133181183Y-95579101D01*
X133166904Y-95582678D01*
X133152343Y-95584838D01*
X133137640Y-95585560D01*
X131487640Y-95585560D01*
X131472937Y-95584838D01*
X131458376Y-95582678D01*
X131444097Y-95579101D01*
X131430237Y-95574142D01*
X131416930Y-95567848D01*
X131404304Y-95560280D01*
X131392481Y-95551512D01*
X131381574Y-95541626D01*
X131371688Y-95530719D01*
X131362920Y-95518896D01*
X131355352Y-95506270D01*
X131349058Y-95492963D01*
X131344099Y-95479103D01*
X131340522Y-95464824D01*
X131338362Y-95450263D01*
X131337640Y-95435560D01*
X131337640Y-95135560D01*
X131338362Y-95120857D01*
X131340522Y-95106296D01*
X131344099Y-95092017D01*
X131349058Y-95078157D01*
X131355352Y-95064850D01*
X131362920Y-95052224D01*
X131371688Y-95040401D01*
X131381574Y-95029494D01*
X131392481Y-95019608D01*
X131404304Y-95010840D01*
X131416930Y-95003272D01*
X131430237Y-94996978D01*
X131444097Y-94992019D01*
X131458376Y-94988442D01*
X131472937Y-94986282D01*
X131487640Y-94985560D01*
X133137640Y-94985560D01*
X133152343Y-94986282D01*
G37*
D16*
X138831360Y-79935200D03*
X137881360Y-79935200D03*
X136931360Y-79935200D03*
X136931360Y-82135200D03*
X138831360Y-82135200D03*
D15*
G36*
X135495459Y-83014744D02*
G01*
X135518514Y-83018163D01*
X135541123Y-83023827D01*
X135563067Y-83031679D01*
X135584137Y-83041644D01*
X135604128Y-83053626D01*
X135622848Y-83067510D01*
X135640118Y-83083162D01*
X135655770Y-83100432D01*
X135669654Y-83119152D01*
X135681636Y-83139143D01*
X135691601Y-83160213D01*
X135699453Y-83182157D01*
X135705117Y-83204766D01*
X135708536Y-83227821D01*
X135709680Y-83251100D01*
X135709680Y-83826100D01*
X135708536Y-83849379D01*
X135705117Y-83872434D01*
X135699453Y-83895043D01*
X135691601Y-83916987D01*
X135681636Y-83938057D01*
X135669654Y-83958048D01*
X135655770Y-83976768D01*
X135640118Y-83994038D01*
X135622848Y-84009690D01*
X135604128Y-84023574D01*
X135584137Y-84035556D01*
X135563067Y-84045521D01*
X135541123Y-84053373D01*
X135518514Y-84059037D01*
X135495459Y-84062456D01*
X135472180Y-84063600D01*
X134997180Y-84063600D01*
X134973901Y-84062456D01*
X134950846Y-84059037D01*
X134928237Y-84053373D01*
X134906293Y-84045521D01*
X134885223Y-84035556D01*
X134865232Y-84023574D01*
X134846512Y-84009690D01*
X134829242Y-83994038D01*
X134813590Y-83976768D01*
X134799706Y-83958048D01*
X134787724Y-83938057D01*
X134777759Y-83916987D01*
X134769907Y-83895043D01*
X134764243Y-83872434D01*
X134760824Y-83849379D01*
X134759680Y-83826100D01*
X134759680Y-83251100D01*
X134760824Y-83227821D01*
X134764243Y-83204766D01*
X134769907Y-83182157D01*
X134777759Y-83160213D01*
X134787724Y-83139143D01*
X134799706Y-83119152D01*
X134813590Y-83100432D01*
X134829242Y-83083162D01*
X134846512Y-83067510D01*
X134865232Y-83053626D01*
X134885223Y-83041644D01*
X134906293Y-83031679D01*
X134928237Y-83023827D01*
X134950846Y-83018163D01*
X134973901Y-83014744D01*
X134997180Y-83013600D01*
X135472180Y-83013600D01*
X135495459Y-83014744D01*
G37*
G36*
X135495459Y-84764744D02*
G01*
X135518514Y-84768163D01*
X135541123Y-84773827D01*
X135563067Y-84781679D01*
X135584137Y-84791644D01*
X135604128Y-84803626D01*
X135622848Y-84817510D01*
X135640118Y-84833162D01*
X135655770Y-84850432D01*
X135669654Y-84869152D01*
X135681636Y-84889143D01*
X135691601Y-84910213D01*
X135699453Y-84932157D01*
X135705117Y-84954766D01*
X135708536Y-84977821D01*
X135709680Y-85001100D01*
X135709680Y-85576100D01*
X135708536Y-85599379D01*
X135705117Y-85622434D01*
X135699453Y-85645043D01*
X135691601Y-85666987D01*
X135681636Y-85688057D01*
X135669654Y-85708048D01*
X135655770Y-85726768D01*
X135640118Y-85744038D01*
X135622848Y-85759690D01*
X135604128Y-85773574D01*
X135584137Y-85785556D01*
X135563067Y-85795521D01*
X135541123Y-85803373D01*
X135518514Y-85809037D01*
X135495459Y-85812456D01*
X135472180Y-85813600D01*
X134997180Y-85813600D01*
X134973901Y-85812456D01*
X134950846Y-85809037D01*
X134928237Y-85803373D01*
X134906293Y-85795521D01*
X134885223Y-85785556D01*
X134865232Y-85773574D01*
X134846512Y-85759690D01*
X134829242Y-85744038D01*
X134813590Y-85726768D01*
X134799706Y-85708048D01*
X134787724Y-85688057D01*
X134777759Y-85666987D01*
X134769907Y-85645043D01*
X134764243Y-85622434D01*
X134760824Y-85599379D01*
X134759680Y-85576100D01*
X134759680Y-85001100D01*
X134760824Y-84977821D01*
X134764243Y-84954766D01*
X134769907Y-84932157D01*
X134777759Y-84910213D01*
X134787724Y-84889143D01*
X134799706Y-84869152D01*
X134813590Y-84850432D01*
X134829242Y-84833162D01*
X134846512Y-84817510D01*
X134865232Y-84803626D01*
X134885223Y-84791644D01*
X134906293Y-84781679D01*
X134928237Y-84773827D01*
X134950846Y-84768163D01*
X134973901Y-84764744D01*
X134997180Y-84763600D01*
X135472180Y-84763600D01*
X135495459Y-84764744D01*
G37*
G36*
X135325279Y-79395244D02*
G01*
X135348334Y-79398663D01*
X135370943Y-79404327D01*
X135392887Y-79412179D01*
X135413957Y-79422144D01*
X135433948Y-79434126D01*
X135452668Y-79448010D01*
X135469938Y-79463662D01*
X135485590Y-79480932D01*
X135499474Y-79499652D01*
X135511456Y-79519643D01*
X135521421Y-79540713D01*
X135529273Y-79562657D01*
X135534937Y-79585266D01*
X135538356Y-79608321D01*
X135539500Y-79631600D01*
X135539500Y-80206600D01*
X135538356Y-80229879D01*
X135534937Y-80252934D01*
X135529273Y-80275543D01*
X135521421Y-80297487D01*
X135511456Y-80318557D01*
X135499474Y-80338548D01*
X135485590Y-80357268D01*
X135469938Y-80374538D01*
X135452668Y-80390190D01*
X135433948Y-80404074D01*
X135413957Y-80416056D01*
X135392887Y-80426021D01*
X135370943Y-80433873D01*
X135348334Y-80439537D01*
X135325279Y-80442956D01*
X135302000Y-80444100D01*
X134827000Y-80444100D01*
X134803721Y-80442956D01*
X134780666Y-80439537D01*
X134758057Y-80433873D01*
X134736113Y-80426021D01*
X134715043Y-80416056D01*
X134695052Y-80404074D01*
X134676332Y-80390190D01*
X134659062Y-80374538D01*
X134643410Y-80357268D01*
X134629526Y-80338548D01*
X134617544Y-80318557D01*
X134607579Y-80297487D01*
X134599727Y-80275543D01*
X134594063Y-80252934D01*
X134590644Y-80229879D01*
X134589500Y-80206600D01*
X134589500Y-79631600D01*
X134590644Y-79608321D01*
X134594063Y-79585266D01*
X134599727Y-79562657D01*
X134607579Y-79540713D01*
X134617544Y-79519643D01*
X134629526Y-79499652D01*
X134643410Y-79480932D01*
X134659062Y-79463662D01*
X134676332Y-79448010D01*
X134695052Y-79434126D01*
X134715043Y-79422144D01*
X134736113Y-79412179D01*
X134758057Y-79404327D01*
X134780666Y-79398663D01*
X134803721Y-79395244D01*
X134827000Y-79394100D01*
X135302000Y-79394100D01*
X135325279Y-79395244D01*
G37*
G36*
X135325279Y-81145244D02*
G01*
X135348334Y-81148663D01*
X135370943Y-81154327D01*
X135392887Y-81162179D01*
X135413957Y-81172144D01*
X135433948Y-81184126D01*
X135452668Y-81198010D01*
X135469938Y-81213662D01*
X135485590Y-81230932D01*
X135499474Y-81249652D01*
X135511456Y-81269643D01*
X135521421Y-81290713D01*
X135529273Y-81312657D01*
X135534937Y-81335266D01*
X135538356Y-81358321D01*
X135539500Y-81381600D01*
X135539500Y-81956600D01*
X135538356Y-81979879D01*
X135534937Y-82002934D01*
X135529273Y-82025543D01*
X135521421Y-82047487D01*
X135511456Y-82068557D01*
X135499474Y-82088548D01*
X135485590Y-82107268D01*
X135469938Y-82124538D01*
X135452668Y-82140190D01*
X135433948Y-82154074D01*
X135413957Y-82166056D01*
X135392887Y-82176021D01*
X135370943Y-82183873D01*
X135348334Y-82189537D01*
X135325279Y-82192956D01*
X135302000Y-82194100D01*
X134827000Y-82194100D01*
X134803721Y-82192956D01*
X134780666Y-82189537D01*
X134758057Y-82183873D01*
X134736113Y-82176021D01*
X134715043Y-82166056D01*
X134695052Y-82154074D01*
X134676332Y-82140190D01*
X134659062Y-82124538D01*
X134643410Y-82107268D01*
X134629526Y-82088548D01*
X134617544Y-82068557D01*
X134607579Y-82047487D01*
X134599727Y-82025543D01*
X134594063Y-82002934D01*
X134590644Y-81979879D01*
X134589500Y-81956600D01*
X134589500Y-81381600D01*
X134590644Y-81358321D01*
X134594063Y-81335266D01*
X134599727Y-81312657D01*
X134607579Y-81290713D01*
X134617544Y-81269643D01*
X134629526Y-81249652D01*
X134643410Y-81230932D01*
X134659062Y-81213662D01*
X134676332Y-81198010D01*
X134695052Y-81184126D01*
X134715043Y-81172144D01*
X134736113Y-81162179D01*
X134758057Y-81154327D01*
X134780666Y-81148663D01*
X134803721Y-81145244D01*
X134827000Y-81144100D01*
X135302000Y-81144100D01*
X135325279Y-81145244D01*
G37*
D17*
X156804360Y-90571320D03*
D18*
X168234360Y-90444320D03*
X145374360Y-90444320D03*
D19*
X133224900Y-79856800D03*
X133224900Y-80806800D03*
X133224900Y-81756800D03*
X130604900Y-81756800D03*
X130604900Y-80806800D03*
X130604900Y-79856800D03*
D15*
G36*
X133946059Y-83050304D02*
G01*
X133969114Y-83053723D01*
X133991723Y-83059387D01*
X134013667Y-83067239D01*
X134034737Y-83077204D01*
X134054728Y-83089186D01*
X134073448Y-83103070D01*
X134090718Y-83118722D01*
X134106370Y-83135992D01*
X134120254Y-83154712D01*
X134132236Y-83174703D01*
X134142201Y-83195773D01*
X134150053Y-83217717D01*
X134155717Y-83240326D01*
X134159136Y-83263381D01*
X134160280Y-83286660D01*
X134160280Y-83861660D01*
X134159136Y-83884939D01*
X134155717Y-83907994D01*
X134150053Y-83930603D01*
X134142201Y-83952547D01*
X134132236Y-83973617D01*
X134120254Y-83993608D01*
X134106370Y-84012328D01*
X134090718Y-84029598D01*
X134073448Y-84045250D01*
X134054728Y-84059134D01*
X134034737Y-84071116D01*
X134013667Y-84081081D01*
X133991723Y-84088933D01*
X133969114Y-84094597D01*
X133946059Y-84098016D01*
X133922780Y-84099160D01*
X133447780Y-84099160D01*
X133424501Y-84098016D01*
X133401446Y-84094597D01*
X133378837Y-84088933D01*
X133356893Y-84081081D01*
X133335823Y-84071116D01*
X133315832Y-84059134D01*
X133297112Y-84045250D01*
X133279842Y-84029598D01*
X133264190Y-84012328D01*
X133250306Y-83993608D01*
X133238324Y-83973617D01*
X133228359Y-83952547D01*
X133220507Y-83930603D01*
X133214843Y-83907994D01*
X133211424Y-83884939D01*
X133210280Y-83861660D01*
X133210280Y-83286660D01*
X133211424Y-83263381D01*
X133214843Y-83240326D01*
X133220507Y-83217717D01*
X133228359Y-83195773D01*
X133238324Y-83174703D01*
X133250306Y-83154712D01*
X133264190Y-83135992D01*
X133279842Y-83118722D01*
X133297112Y-83103070D01*
X133315832Y-83089186D01*
X133335823Y-83077204D01*
X133356893Y-83067239D01*
X133378837Y-83059387D01*
X133401446Y-83053723D01*
X133424501Y-83050304D01*
X133447780Y-83049160D01*
X133922780Y-83049160D01*
X133946059Y-83050304D01*
G37*
G36*
X133946059Y-84800304D02*
G01*
X133969114Y-84803723D01*
X133991723Y-84809387D01*
X134013667Y-84817239D01*
X134034737Y-84827204D01*
X134054728Y-84839186D01*
X134073448Y-84853070D01*
X134090718Y-84868722D01*
X134106370Y-84885992D01*
X134120254Y-84904712D01*
X134132236Y-84924703D01*
X134142201Y-84945773D01*
X134150053Y-84967717D01*
X134155717Y-84990326D01*
X134159136Y-85013381D01*
X134160280Y-85036660D01*
X134160280Y-85611660D01*
X134159136Y-85634939D01*
X134155717Y-85657994D01*
X134150053Y-85680603D01*
X134142201Y-85702547D01*
X134132236Y-85723617D01*
X134120254Y-85743608D01*
X134106370Y-85762328D01*
X134090718Y-85779598D01*
X134073448Y-85795250D01*
X134054728Y-85809134D01*
X134034737Y-85821116D01*
X134013667Y-85831081D01*
X133991723Y-85838933D01*
X133969114Y-85844597D01*
X133946059Y-85848016D01*
X133922780Y-85849160D01*
X133447780Y-85849160D01*
X133424501Y-85848016D01*
X133401446Y-85844597D01*
X133378837Y-85838933D01*
X133356893Y-85831081D01*
X133335823Y-85821116D01*
X133315832Y-85809134D01*
X133297112Y-85795250D01*
X133279842Y-85779598D01*
X133264190Y-85762328D01*
X133250306Y-85743608D01*
X133238324Y-85723617D01*
X133228359Y-85702547D01*
X133220507Y-85680603D01*
X133214843Y-85657994D01*
X133211424Y-85634939D01*
X133210280Y-85611660D01*
X133210280Y-85036660D01*
X133211424Y-85013381D01*
X133214843Y-84990326D01*
X133220507Y-84967717D01*
X133228359Y-84945773D01*
X133238324Y-84924703D01*
X133250306Y-84904712D01*
X133264190Y-84885992D01*
X133279842Y-84868722D01*
X133297112Y-84853070D01*
X133315832Y-84839186D01*
X133335823Y-84827204D01*
X133356893Y-84817239D01*
X133378837Y-84809387D01*
X133401446Y-84803723D01*
X133424501Y-84800304D01*
X133447780Y-84799160D01*
X133922780Y-84799160D01*
X133946059Y-84800304D01*
G37*
G36*
X132186279Y-82860244D02*
G01*
X132209334Y-82863663D01*
X132231943Y-82869327D01*
X132253887Y-82877179D01*
X132274957Y-82887144D01*
X132294948Y-82899126D01*
X132313668Y-82913010D01*
X132330938Y-82928662D01*
X132346590Y-82945932D01*
X132360474Y-82964652D01*
X132372456Y-82984643D01*
X132382421Y-83005713D01*
X132390273Y-83027657D01*
X132395937Y-83050266D01*
X132399356Y-83073321D01*
X132400500Y-83096600D01*
X132400500Y-83571600D01*
X132399356Y-83594879D01*
X132395937Y-83617934D01*
X132390273Y-83640543D01*
X132382421Y-83662487D01*
X132372456Y-83683557D01*
X132360474Y-83703548D01*
X132346590Y-83722268D01*
X132330938Y-83739538D01*
X132313668Y-83755190D01*
X132294948Y-83769074D01*
X132274957Y-83781056D01*
X132253887Y-83791021D01*
X132231943Y-83798873D01*
X132209334Y-83804537D01*
X132186279Y-83807956D01*
X132163000Y-83809100D01*
X131588000Y-83809100D01*
X131564721Y-83807956D01*
X131541666Y-83804537D01*
X131519057Y-83798873D01*
X131497113Y-83791021D01*
X131476043Y-83781056D01*
X131456052Y-83769074D01*
X131437332Y-83755190D01*
X131420062Y-83739538D01*
X131404410Y-83722268D01*
X131390526Y-83703548D01*
X131378544Y-83683557D01*
X131368579Y-83662487D01*
X131360727Y-83640543D01*
X131355063Y-83617934D01*
X131351644Y-83594879D01*
X131350500Y-83571600D01*
X131350500Y-83096600D01*
X131351644Y-83073321D01*
X131355063Y-83050266D01*
X131360727Y-83027657D01*
X131368579Y-83005713D01*
X131378544Y-82984643D01*
X131390526Y-82964652D01*
X131404410Y-82945932D01*
X131420062Y-82928662D01*
X131437332Y-82913010D01*
X131456052Y-82899126D01*
X131476043Y-82887144D01*
X131497113Y-82877179D01*
X131519057Y-82869327D01*
X131541666Y-82863663D01*
X131564721Y-82860244D01*
X131588000Y-82859100D01*
X132163000Y-82859100D01*
X132186279Y-82860244D01*
G37*
G36*
X130436279Y-82860244D02*
G01*
X130459334Y-82863663D01*
X130481943Y-82869327D01*
X130503887Y-82877179D01*
X130524957Y-82887144D01*
X130544948Y-82899126D01*
X130563668Y-82913010D01*
X130580938Y-82928662D01*
X130596590Y-82945932D01*
X130610474Y-82964652D01*
X130622456Y-82984643D01*
X130632421Y-83005713D01*
X130640273Y-83027657D01*
X130645937Y-83050266D01*
X130649356Y-83073321D01*
X130650500Y-83096600D01*
X130650500Y-83571600D01*
X130649356Y-83594879D01*
X130645937Y-83617934D01*
X130640273Y-83640543D01*
X130632421Y-83662487D01*
X130622456Y-83683557D01*
X130610474Y-83703548D01*
X130596590Y-83722268D01*
X130580938Y-83739538D01*
X130563668Y-83755190D01*
X130544948Y-83769074D01*
X130524957Y-83781056D01*
X130503887Y-83791021D01*
X130481943Y-83798873D01*
X130459334Y-83804537D01*
X130436279Y-83807956D01*
X130413000Y-83809100D01*
X129838000Y-83809100D01*
X129814721Y-83807956D01*
X129791666Y-83804537D01*
X129769057Y-83798873D01*
X129747113Y-83791021D01*
X129726043Y-83781056D01*
X129706052Y-83769074D01*
X129687332Y-83755190D01*
X129670062Y-83739538D01*
X129654410Y-83722268D01*
X129640526Y-83703548D01*
X129628544Y-83683557D01*
X129618579Y-83662487D01*
X129610727Y-83640543D01*
X129605063Y-83617934D01*
X129601644Y-83594879D01*
X129600500Y-83571600D01*
X129600500Y-83096600D01*
X129601644Y-83073321D01*
X129605063Y-83050266D01*
X129610727Y-83027657D01*
X129618579Y-83005713D01*
X129628544Y-82984643D01*
X129640526Y-82964652D01*
X129654410Y-82945932D01*
X129670062Y-82928662D01*
X129687332Y-82913010D01*
X129706052Y-82899126D01*
X129726043Y-82887144D01*
X129747113Y-82877179D01*
X129769057Y-82869327D01*
X129791666Y-82863663D01*
X129814721Y-82860244D01*
X129838000Y-82859100D01*
X130413000Y-82859100D01*
X130436279Y-82860244D01*
G37*
M02*
