M48
; DRILL file {KiCad (5.1.5)-3} date 2020-05-14 10:30:26 AM
; FORMAT={-:-/ absolute / metric / decimal}
; #@! TF.CreationDate,2020-05-14T10:30:26-04:00
; #@! TF.GenerationSoftware,Kicad,Pcbnew,(5.1.5)-3
; #@! TF.FileFunction,Plated,1,2,PTH
FMAT,2
METRIC
T1C0.400
T2C1.020
%
G90
G05
T1
X128.935Y-91.698
X129.438Y-93.558
X129.52Y-77.719
X131.928Y-80.151
X132.804Y-93.18
X135.001Y-89.372
X135.519Y-99.151
X135.626Y-97.856
X136.85Y-78.74
X137.514Y-85.25
X140.345Y-80.32
X148.239Y-83.729
X151.394Y-90.49
X161.27Y-90.561
X166.609Y-86.375
X168.844Y-95.214
T2
X126.797Y-79.134
X126.797Y-81.674
X126.797Y-84.214
X126.797Y-86.754
X126.797Y-89.294
X126.797Y-91.834
X126.797Y-94.374
X126.797Y-96.914
X126.797Y-99.454
X126.797Y-101.994
X142.007Y-79.134
X142.007Y-81.674
X142.007Y-84.214
X142.007Y-86.754
X142.007Y-89.294
X142.007Y-91.834
X142.007Y-94.374
X142.007Y-96.914
X142.007Y-99.454
X142.007Y-101.994
T0
M30
