G04 #@! TF.GenerationSoftware,KiCad,Pcbnew,(5.1.5)-3*
G04 #@! TF.CreationDate,2020-05-14T10:30:24-04:00*
G04 #@! TF.ProjectId,ble_mvp_1A-rev2,626c655f-6d76-4705-9f31-412d72657632,rev?*
G04 #@! TF.SameCoordinates,Original*
G04 #@! TF.FileFunction,Soldermask,Top*
G04 #@! TF.FilePolarity,Negative*
%FSLAX46Y46*%
G04 Gerber Fmt 4.6, Leading zero omitted, Abs format (unit mm)*
G04 Created by KiCad (PCBNEW (5.1.5)-3) date 2020-05-14 10:30:24*
%MOMM*%
%LPD*%
G04 APERTURE LIST*
%ADD10C,0.100000*%
G04 APERTURE END LIST*
D10*
G36*
X127093028Y-101007183D02*
G01*
X127281722Y-101064423D01*
X127455615Y-101157371D01*
X127608039Y-101282461D01*
X127733129Y-101434885D01*
X127826077Y-101608778D01*
X127883317Y-101797472D01*
X127902643Y-101993700D01*
X127883317Y-102189928D01*
X127826077Y-102378622D01*
X127733129Y-102552515D01*
X127608039Y-102704939D01*
X127455615Y-102830029D01*
X127281722Y-102922977D01*
X127093028Y-102980217D01*
X126945975Y-102994700D01*
X126647625Y-102994700D01*
X126500572Y-102980217D01*
X126311878Y-102922977D01*
X126137985Y-102830029D01*
X125985561Y-102704939D01*
X125860471Y-102552515D01*
X125767523Y-102378622D01*
X125710283Y-102189928D01*
X125690957Y-101993700D01*
X125710283Y-101797472D01*
X125767523Y-101608778D01*
X125860471Y-101434885D01*
X125985561Y-101282461D01*
X126137985Y-101157371D01*
X126311878Y-101064423D01*
X126500572Y-101007183D01*
X126647625Y-100992700D01*
X126945975Y-100992700D01*
X127093028Y-101007183D01*
G37*
G36*
X142303028Y-101007183D02*
G01*
X142491722Y-101064423D01*
X142665615Y-101157371D01*
X142818039Y-101282461D01*
X142943129Y-101434885D01*
X143036077Y-101608778D01*
X143093317Y-101797472D01*
X143112643Y-101993700D01*
X143093317Y-102189928D01*
X143036077Y-102378622D01*
X142943129Y-102552515D01*
X142818039Y-102704939D01*
X142665615Y-102830029D01*
X142491722Y-102922977D01*
X142303028Y-102980217D01*
X142155975Y-102994700D01*
X141857625Y-102994700D01*
X141710572Y-102980217D01*
X141521878Y-102922977D01*
X141347985Y-102830029D01*
X141195561Y-102704939D01*
X141070471Y-102552515D01*
X140977523Y-102378622D01*
X140920283Y-102189928D01*
X140900957Y-101993700D01*
X140920283Y-101797472D01*
X140977523Y-101608778D01*
X141070471Y-101434885D01*
X141195561Y-101282461D01*
X141347985Y-101157371D01*
X141521878Y-101064423D01*
X141710572Y-101007183D01*
X141857625Y-100992700D01*
X142155975Y-100992700D01*
X142303028Y-101007183D01*
G37*
G36*
X127093028Y-98467183D02*
G01*
X127183844Y-98494732D01*
X127262385Y-98518557D01*
X127281722Y-98524423D01*
X127455615Y-98617371D01*
X127608039Y-98742461D01*
X127733129Y-98894885D01*
X127826077Y-99068778D01*
X127883317Y-99257472D01*
X127902643Y-99453700D01*
X127883317Y-99649928D01*
X127826077Y-99838622D01*
X127733129Y-100012515D01*
X127608039Y-100164939D01*
X127455615Y-100290029D01*
X127281722Y-100382977D01*
X127093028Y-100440217D01*
X126945975Y-100454700D01*
X126647625Y-100454700D01*
X126500572Y-100440217D01*
X126311878Y-100382977D01*
X126137985Y-100290029D01*
X125985561Y-100164939D01*
X125860471Y-100012515D01*
X125767523Y-99838622D01*
X125710283Y-99649928D01*
X125690957Y-99453700D01*
X125710283Y-99257472D01*
X125767523Y-99068778D01*
X125860471Y-98894885D01*
X125985561Y-98742461D01*
X126137985Y-98617371D01*
X126311878Y-98524423D01*
X126331216Y-98518557D01*
X126409756Y-98494732D01*
X126500572Y-98467183D01*
X126647625Y-98452700D01*
X126945975Y-98452700D01*
X127093028Y-98467183D01*
G37*
G36*
X142303028Y-98467183D02*
G01*
X142393844Y-98494732D01*
X142472385Y-98518557D01*
X142491722Y-98524423D01*
X142665615Y-98617371D01*
X142818039Y-98742461D01*
X142943129Y-98894885D01*
X143036077Y-99068778D01*
X143093317Y-99257472D01*
X143112643Y-99453700D01*
X143093317Y-99649928D01*
X143036077Y-99838622D01*
X142943129Y-100012515D01*
X142818039Y-100164939D01*
X142665615Y-100290029D01*
X142491722Y-100382977D01*
X142303028Y-100440217D01*
X142155975Y-100454700D01*
X141857625Y-100454700D01*
X141710572Y-100440217D01*
X141521878Y-100382977D01*
X141347985Y-100290029D01*
X141195561Y-100164939D01*
X141070471Y-100012515D01*
X140977523Y-99838622D01*
X140920283Y-99649928D01*
X140900957Y-99453700D01*
X140920283Y-99257472D01*
X140977523Y-99068778D01*
X141070471Y-98894885D01*
X141195561Y-98742461D01*
X141347985Y-98617371D01*
X141521878Y-98524423D01*
X141541216Y-98518557D01*
X141619756Y-98494732D01*
X141710572Y-98467183D01*
X141857625Y-98452700D01*
X142155975Y-98452700D01*
X142303028Y-98467183D01*
G37*
G36*
X139698739Y-99165325D02*
G01*
X139736235Y-99176700D01*
X139770794Y-99195172D01*
X139801087Y-99220033D01*
X139825948Y-99250326D01*
X139844420Y-99284885D01*
X139855795Y-99322381D01*
X139860240Y-99367518D01*
X139860240Y-100106242D01*
X139855795Y-100151379D01*
X139844420Y-100188875D01*
X139825948Y-100223434D01*
X139801087Y-100253727D01*
X139770794Y-100278588D01*
X139736235Y-100297060D01*
X139698739Y-100308435D01*
X139653602Y-100312880D01*
X139014878Y-100312880D01*
X138969741Y-100308435D01*
X138932245Y-100297060D01*
X138897686Y-100278588D01*
X138867393Y-100253727D01*
X138842532Y-100223434D01*
X138824060Y-100188875D01*
X138812685Y-100151379D01*
X138808240Y-100106242D01*
X138808240Y-99367518D01*
X138812685Y-99322381D01*
X138824060Y-99284885D01*
X138842532Y-99250326D01*
X138867393Y-99220033D01*
X138897686Y-99195172D01*
X138932245Y-99176700D01*
X138969741Y-99165325D01*
X139014878Y-99160880D01*
X139653602Y-99160880D01*
X139698739Y-99165325D01*
G37*
G36*
X157900160Y-81673123D02*
G01*
X159412354Y-81973917D01*
X161039512Y-82647908D01*
X162503915Y-83626392D01*
X163749288Y-84871765D01*
X164727772Y-86336168D01*
X165401763Y-87963326D01*
X165627358Y-89097472D01*
X165742956Y-89678619D01*
X165745360Y-89690708D01*
X165745360Y-91451932D01*
X165401763Y-93179314D01*
X164727772Y-94806472D01*
X163749288Y-96270875D01*
X162503915Y-97516248D01*
X161039512Y-98494732D01*
X159412354Y-99168723D01*
X158015570Y-99446560D01*
X157684973Y-99512320D01*
X155923747Y-99512320D01*
X155593150Y-99446560D01*
X154196366Y-99168723D01*
X152569208Y-98494732D01*
X151104805Y-97516248D01*
X149859432Y-96270875D01*
X148880948Y-94806472D01*
X148206957Y-93179314D01*
X147863360Y-91451932D01*
X147863360Y-89690708D01*
X147865765Y-89678619D01*
X147981362Y-89097472D01*
X148206957Y-87963326D01*
X148880948Y-86336168D01*
X149859432Y-84871765D01*
X151104805Y-83626392D01*
X152569208Y-82647908D01*
X154196366Y-81973917D01*
X155708560Y-81673123D01*
X155923747Y-81630320D01*
X157684973Y-81630320D01*
X157900160Y-81673123D01*
G37*
G36*
X133247568Y-98747324D02*
G01*
X133268649Y-98753720D01*
X133288085Y-98764108D01*
X133305116Y-98778084D01*
X133319092Y-98795115D01*
X133329480Y-98814551D01*
X133335876Y-98835632D01*
X133338640Y-98863700D01*
X133338640Y-99327420D01*
X133335876Y-99355488D01*
X133329480Y-99376569D01*
X133319092Y-99396005D01*
X133305116Y-99413036D01*
X133288085Y-99427012D01*
X133268649Y-99437400D01*
X133247568Y-99443796D01*
X133219500Y-99446560D01*
X131405780Y-99446560D01*
X131377712Y-99443796D01*
X131356631Y-99437400D01*
X131337195Y-99427012D01*
X131320164Y-99413036D01*
X131306188Y-99396005D01*
X131295800Y-99376569D01*
X131289404Y-99355488D01*
X131286640Y-99327420D01*
X131286640Y-98863700D01*
X131289404Y-98835632D01*
X131295800Y-98814551D01*
X131306188Y-98795115D01*
X131320164Y-98778084D01*
X131337195Y-98764108D01*
X131356631Y-98753720D01*
X131377712Y-98747324D01*
X131405780Y-98744560D01*
X133219500Y-98744560D01*
X133247568Y-98747324D01*
G37*
G36*
X138197568Y-98747324D02*
G01*
X138218649Y-98753720D01*
X138238085Y-98764108D01*
X138255116Y-98778084D01*
X138269092Y-98795115D01*
X138279480Y-98814551D01*
X138285876Y-98835632D01*
X138288640Y-98863700D01*
X138288640Y-99327420D01*
X138285876Y-99355488D01*
X138279480Y-99376569D01*
X138269092Y-99396005D01*
X138255116Y-99413036D01*
X138238085Y-99427012D01*
X138218649Y-99437400D01*
X138197568Y-99443796D01*
X138169500Y-99446560D01*
X136355780Y-99446560D01*
X136327712Y-99443796D01*
X136306631Y-99437400D01*
X136287195Y-99427012D01*
X136270164Y-99413036D01*
X136256188Y-99396005D01*
X136245800Y-99376569D01*
X136239404Y-99355488D01*
X136236640Y-99327420D01*
X136236640Y-98863700D01*
X136239404Y-98835632D01*
X136245800Y-98814551D01*
X136256188Y-98795115D01*
X136270164Y-98778084D01*
X136287195Y-98764108D01*
X136306631Y-98753720D01*
X136327712Y-98747324D01*
X136355780Y-98744560D01*
X138169500Y-98744560D01*
X138197568Y-98747324D01*
G37*
G36*
X139698739Y-97415325D02*
G01*
X139736235Y-97426700D01*
X139770794Y-97445172D01*
X139801087Y-97470033D01*
X139825948Y-97500326D01*
X139844420Y-97534885D01*
X139855795Y-97572381D01*
X139860240Y-97617518D01*
X139860240Y-98356242D01*
X139855795Y-98401379D01*
X139844420Y-98438875D01*
X139825948Y-98473434D01*
X139801087Y-98503727D01*
X139770794Y-98528588D01*
X139736235Y-98547060D01*
X139698739Y-98558435D01*
X139653602Y-98562880D01*
X139014878Y-98562880D01*
X138969741Y-98558435D01*
X138932245Y-98547060D01*
X138897686Y-98528588D01*
X138867393Y-98503727D01*
X138842532Y-98473434D01*
X138824060Y-98438875D01*
X138812685Y-98401379D01*
X138808240Y-98356242D01*
X138808240Y-97617518D01*
X138812685Y-97572381D01*
X138824060Y-97534885D01*
X138842532Y-97500326D01*
X138867393Y-97470033D01*
X138897686Y-97445172D01*
X138932245Y-97426700D01*
X138969741Y-97415325D01*
X139014878Y-97410880D01*
X139653602Y-97410880D01*
X139698739Y-97415325D01*
G37*
G36*
X130775480Y-98280360D02*
G01*
X128873480Y-98280360D01*
X128873480Y-97178360D01*
X130775480Y-97178360D01*
X130775480Y-98280360D01*
G37*
G36*
X138197568Y-97477324D02*
G01*
X138218649Y-97483720D01*
X138238085Y-97494108D01*
X138255116Y-97508084D01*
X138269092Y-97525115D01*
X138279480Y-97544551D01*
X138285876Y-97565632D01*
X138288640Y-97593700D01*
X138288640Y-98057420D01*
X138285876Y-98085488D01*
X138279480Y-98106569D01*
X138269092Y-98126005D01*
X138255116Y-98143036D01*
X138238085Y-98157012D01*
X138218649Y-98167400D01*
X138197568Y-98173796D01*
X138169500Y-98176560D01*
X136355780Y-98176560D01*
X136327712Y-98173796D01*
X136306631Y-98167400D01*
X136287195Y-98157012D01*
X136270164Y-98143036D01*
X136256188Y-98126005D01*
X136245800Y-98106569D01*
X136239404Y-98085488D01*
X136236640Y-98057420D01*
X136236640Y-97593700D01*
X136239404Y-97565632D01*
X136245800Y-97544551D01*
X136256188Y-97525115D01*
X136270164Y-97508084D01*
X136287195Y-97494108D01*
X136306631Y-97483720D01*
X136327712Y-97477324D01*
X136355780Y-97474560D01*
X138169500Y-97474560D01*
X138197568Y-97477324D01*
G37*
G36*
X133247568Y-97477324D02*
G01*
X133268649Y-97483720D01*
X133288085Y-97494108D01*
X133305116Y-97508084D01*
X133319092Y-97525115D01*
X133329480Y-97544551D01*
X133335876Y-97565632D01*
X133338640Y-97593700D01*
X133338640Y-98057420D01*
X133335876Y-98085488D01*
X133329480Y-98106569D01*
X133319092Y-98126005D01*
X133305116Y-98143036D01*
X133288085Y-98157012D01*
X133268649Y-98167400D01*
X133247568Y-98173796D01*
X133219500Y-98176560D01*
X131405780Y-98176560D01*
X131377712Y-98173796D01*
X131356631Y-98167400D01*
X131337195Y-98157012D01*
X131320164Y-98143036D01*
X131306188Y-98126005D01*
X131295800Y-98106569D01*
X131289404Y-98085488D01*
X131286640Y-98057420D01*
X131286640Y-97593700D01*
X131289404Y-97565632D01*
X131295800Y-97544551D01*
X131306188Y-97525115D01*
X131320164Y-97508084D01*
X131337195Y-97494108D01*
X131356631Y-97483720D01*
X131377712Y-97477324D01*
X131405780Y-97474560D01*
X133219500Y-97474560D01*
X133247568Y-97477324D01*
G37*
G36*
X142303028Y-95927183D02*
G01*
X142491722Y-95984423D01*
X142665615Y-96077371D01*
X142818039Y-96202461D01*
X142943129Y-96354885D01*
X143036077Y-96528778D01*
X143093317Y-96717472D01*
X143112643Y-96913700D01*
X143093317Y-97109928D01*
X143036077Y-97298622D01*
X142943129Y-97472515D01*
X142818039Y-97624939D01*
X142665615Y-97750029D01*
X142491722Y-97842977D01*
X142303028Y-97900217D01*
X142155975Y-97914700D01*
X141857625Y-97914700D01*
X141710572Y-97900217D01*
X141521878Y-97842977D01*
X141347985Y-97750029D01*
X141195561Y-97624939D01*
X141070471Y-97472515D01*
X140977523Y-97298622D01*
X140920283Y-97109928D01*
X140900957Y-96913700D01*
X140920283Y-96717472D01*
X140977523Y-96528778D01*
X141070471Y-96354885D01*
X141195561Y-96202461D01*
X141347985Y-96077371D01*
X141521878Y-95984423D01*
X141710572Y-95927183D01*
X141857625Y-95912700D01*
X142155975Y-95912700D01*
X142303028Y-95927183D01*
G37*
G36*
X127093028Y-95927183D02*
G01*
X127281722Y-95984423D01*
X127455615Y-96077371D01*
X127608039Y-96202461D01*
X127733129Y-96354885D01*
X127826077Y-96528778D01*
X127883317Y-96717472D01*
X127902643Y-96913700D01*
X127883317Y-97109928D01*
X127826077Y-97298622D01*
X127733129Y-97472515D01*
X127608039Y-97624939D01*
X127455615Y-97750029D01*
X127281722Y-97842977D01*
X127093028Y-97900217D01*
X126945975Y-97914700D01*
X126647625Y-97914700D01*
X126500572Y-97900217D01*
X126311878Y-97842977D01*
X126137985Y-97750029D01*
X125985561Y-97624939D01*
X125860471Y-97472515D01*
X125767523Y-97298622D01*
X125710283Y-97109928D01*
X125690957Y-96913700D01*
X125710283Y-96717472D01*
X125767523Y-96528778D01*
X125860471Y-96354885D01*
X125985561Y-96202461D01*
X126137985Y-96077371D01*
X126311878Y-95984423D01*
X126500572Y-95927183D01*
X126647625Y-95912700D01*
X126945975Y-95912700D01*
X127093028Y-95927183D01*
G37*
G36*
X133247568Y-96207324D02*
G01*
X133268649Y-96213720D01*
X133288085Y-96224108D01*
X133305116Y-96238084D01*
X133319092Y-96255115D01*
X133329480Y-96274551D01*
X133335876Y-96295632D01*
X133338640Y-96323700D01*
X133338640Y-96787420D01*
X133335876Y-96815488D01*
X133329480Y-96836569D01*
X133319092Y-96856005D01*
X133305116Y-96873036D01*
X133288085Y-96887012D01*
X133268649Y-96897400D01*
X133247568Y-96903796D01*
X133219500Y-96906560D01*
X131405780Y-96906560D01*
X131377712Y-96903796D01*
X131356631Y-96897400D01*
X131337195Y-96887012D01*
X131320164Y-96873036D01*
X131306188Y-96856005D01*
X131295800Y-96836569D01*
X131289404Y-96815488D01*
X131286640Y-96787420D01*
X131286640Y-96323700D01*
X131289404Y-96295632D01*
X131295800Y-96274551D01*
X131306188Y-96255115D01*
X131320164Y-96238084D01*
X131337195Y-96224108D01*
X131356631Y-96213720D01*
X131377712Y-96207324D01*
X131405780Y-96204560D01*
X133219500Y-96204560D01*
X133247568Y-96207324D01*
G37*
G36*
X138197568Y-96207324D02*
G01*
X138218649Y-96213720D01*
X138238085Y-96224108D01*
X138255116Y-96238084D01*
X138269092Y-96255115D01*
X138279480Y-96274551D01*
X138285876Y-96295632D01*
X138288640Y-96323700D01*
X138288640Y-96787420D01*
X138285876Y-96815488D01*
X138279480Y-96836569D01*
X138269092Y-96856005D01*
X138255116Y-96873036D01*
X138238085Y-96887012D01*
X138218649Y-96897400D01*
X138197568Y-96903796D01*
X138169500Y-96906560D01*
X136355780Y-96906560D01*
X136327712Y-96903796D01*
X136306631Y-96897400D01*
X136287195Y-96887012D01*
X136270164Y-96873036D01*
X136256188Y-96856005D01*
X136245800Y-96836569D01*
X136239404Y-96815488D01*
X136236640Y-96787420D01*
X136236640Y-96323700D01*
X136239404Y-96295632D01*
X136245800Y-96274551D01*
X136256188Y-96255115D01*
X136270164Y-96238084D01*
X136287195Y-96224108D01*
X136306631Y-96213720D01*
X136327712Y-96207324D01*
X136355780Y-96204560D01*
X138169500Y-96204560D01*
X138197568Y-96207324D01*
G37*
G36*
X139713979Y-95756645D02*
G01*
X139751475Y-95768020D01*
X139786034Y-95786492D01*
X139816327Y-95811353D01*
X139841188Y-95841646D01*
X139859660Y-95876205D01*
X139871035Y-95913701D01*
X139875480Y-95958838D01*
X139875480Y-96697562D01*
X139871035Y-96742699D01*
X139859660Y-96780195D01*
X139841188Y-96814754D01*
X139816327Y-96845047D01*
X139786034Y-96869908D01*
X139751475Y-96888380D01*
X139713979Y-96899755D01*
X139668842Y-96904200D01*
X139030118Y-96904200D01*
X138984981Y-96899755D01*
X138947485Y-96888380D01*
X138912926Y-96869908D01*
X138882633Y-96845047D01*
X138857772Y-96814754D01*
X138839300Y-96780195D01*
X138827925Y-96742699D01*
X138823480Y-96697562D01*
X138823480Y-95958838D01*
X138827925Y-95913701D01*
X138839300Y-95876205D01*
X138857772Y-95841646D01*
X138882633Y-95811353D01*
X138912926Y-95786492D01*
X138947485Y-95768020D01*
X138984981Y-95756645D01*
X139030118Y-95752200D01*
X139668842Y-95752200D01*
X139713979Y-95756645D01*
G37*
G36*
X130775480Y-95780360D02*
G01*
X128873480Y-95780360D01*
X128873480Y-94678360D01*
X130775480Y-94678360D01*
X130775480Y-95780360D01*
G37*
G36*
X138197568Y-94937324D02*
G01*
X138218649Y-94943720D01*
X138238085Y-94954108D01*
X138255116Y-94968084D01*
X138269092Y-94985115D01*
X138279480Y-95004551D01*
X138285876Y-95025632D01*
X138288640Y-95053700D01*
X138288640Y-95517420D01*
X138285876Y-95545488D01*
X138279480Y-95566569D01*
X138269092Y-95586005D01*
X138255116Y-95603036D01*
X138238085Y-95617012D01*
X138218649Y-95627400D01*
X138197568Y-95633796D01*
X138169500Y-95636560D01*
X136355780Y-95636560D01*
X136327712Y-95633796D01*
X136306631Y-95627400D01*
X136287195Y-95617012D01*
X136270164Y-95603036D01*
X136256188Y-95586005D01*
X136245800Y-95566569D01*
X136239404Y-95545488D01*
X136236640Y-95517420D01*
X136236640Y-95053700D01*
X136239404Y-95025632D01*
X136245800Y-95004551D01*
X136256188Y-94985115D01*
X136270164Y-94968084D01*
X136287195Y-94954108D01*
X136306631Y-94943720D01*
X136327712Y-94937324D01*
X136355780Y-94934560D01*
X138169500Y-94934560D01*
X138197568Y-94937324D01*
G37*
G36*
X133247568Y-94937324D02*
G01*
X133268649Y-94943720D01*
X133288085Y-94954108D01*
X133305116Y-94968084D01*
X133319092Y-94985115D01*
X133329480Y-95004551D01*
X133335876Y-95025632D01*
X133338640Y-95053700D01*
X133338640Y-95517420D01*
X133335876Y-95545488D01*
X133329480Y-95566569D01*
X133319092Y-95586005D01*
X133305116Y-95603036D01*
X133288085Y-95617012D01*
X133268649Y-95627400D01*
X133247568Y-95633796D01*
X133219500Y-95636560D01*
X131405780Y-95636560D01*
X131377712Y-95633796D01*
X131356631Y-95627400D01*
X131337195Y-95617012D01*
X131320164Y-95603036D01*
X131306188Y-95586005D01*
X131295800Y-95566569D01*
X131289404Y-95545488D01*
X131286640Y-95517420D01*
X131286640Y-95053700D01*
X131289404Y-95025632D01*
X131295800Y-95004551D01*
X131306188Y-94985115D01*
X131320164Y-94968084D01*
X131337195Y-94954108D01*
X131356631Y-94943720D01*
X131377712Y-94937324D01*
X131405780Y-94934560D01*
X133219500Y-94934560D01*
X133247568Y-94937324D01*
G37*
G36*
X127093028Y-93387183D02*
G01*
X127281722Y-93444423D01*
X127455615Y-93537371D01*
X127608039Y-93662461D01*
X127733129Y-93814885D01*
X127826077Y-93988778D01*
X127883317Y-94177472D01*
X127902643Y-94373700D01*
X127883317Y-94569928D01*
X127826077Y-94758622D01*
X127733129Y-94932515D01*
X127608039Y-95084939D01*
X127455615Y-95210029D01*
X127281722Y-95302977D01*
X127093028Y-95360217D01*
X126945975Y-95374700D01*
X126647625Y-95374700D01*
X126500572Y-95360217D01*
X126311878Y-95302977D01*
X126137985Y-95210029D01*
X125985561Y-95084939D01*
X125860471Y-94932515D01*
X125767523Y-94758622D01*
X125710283Y-94569928D01*
X125690957Y-94373700D01*
X125710283Y-94177472D01*
X125767523Y-93988778D01*
X125860471Y-93814885D01*
X125985561Y-93662461D01*
X126137985Y-93537371D01*
X126311878Y-93444423D01*
X126500572Y-93387183D01*
X126647625Y-93372700D01*
X126945975Y-93372700D01*
X127093028Y-93387183D01*
G37*
G36*
X142303028Y-93387183D02*
G01*
X142491722Y-93444423D01*
X142665615Y-93537371D01*
X142818039Y-93662461D01*
X142943129Y-93814885D01*
X143036077Y-93988778D01*
X143093317Y-94177472D01*
X143112643Y-94373700D01*
X143093317Y-94569928D01*
X143036077Y-94758622D01*
X142943129Y-94932515D01*
X142818039Y-95084939D01*
X142665615Y-95210029D01*
X142491722Y-95302977D01*
X142303028Y-95360217D01*
X142155975Y-95374700D01*
X141857625Y-95374700D01*
X141710572Y-95360217D01*
X141521878Y-95302977D01*
X141347985Y-95210029D01*
X141195561Y-95084939D01*
X141070471Y-94932515D01*
X140977523Y-94758622D01*
X140920283Y-94569928D01*
X140900957Y-94373700D01*
X140920283Y-94177472D01*
X140977523Y-93988778D01*
X141070471Y-93814885D01*
X141195561Y-93662461D01*
X141347985Y-93537371D01*
X141521878Y-93444423D01*
X141710572Y-93387183D01*
X141857625Y-93372700D01*
X142155975Y-93372700D01*
X142303028Y-93387183D01*
G37*
G36*
X139713979Y-94006645D02*
G01*
X139751475Y-94018020D01*
X139786034Y-94036492D01*
X139816327Y-94061353D01*
X139841188Y-94091646D01*
X139859660Y-94126205D01*
X139871035Y-94163701D01*
X139875480Y-94208838D01*
X139875480Y-94947562D01*
X139871035Y-94992699D01*
X139859660Y-95030195D01*
X139841188Y-95064754D01*
X139816327Y-95095047D01*
X139786034Y-95119908D01*
X139751475Y-95138380D01*
X139713979Y-95149755D01*
X139668842Y-95154200D01*
X139030118Y-95154200D01*
X138984981Y-95149755D01*
X138947485Y-95138380D01*
X138912926Y-95119908D01*
X138882633Y-95095047D01*
X138857772Y-95064754D01*
X138839300Y-95030195D01*
X138827925Y-94992699D01*
X138823480Y-94947562D01*
X138823480Y-94208838D01*
X138827925Y-94163701D01*
X138839300Y-94126205D01*
X138857772Y-94091646D01*
X138882633Y-94061353D01*
X138912926Y-94036492D01*
X138947485Y-94018020D01*
X138984981Y-94006645D01*
X139030118Y-94002200D01*
X139668842Y-94002200D01*
X139713979Y-94006645D01*
G37*
G36*
X132255460Y-93451120D02*
G01*
X130629460Y-93451120D01*
X130629460Y-92790320D01*
X132255460Y-92790320D01*
X132255460Y-93451120D01*
G37*
G36*
X139545260Y-93451120D02*
G01*
X137919260Y-93451120D01*
X137919260Y-92790320D01*
X139545260Y-92790320D01*
X139545260Y-93451120D01*
G37*
G36*
X146695360Y-93035320D02*
G01*
X144053360Y-93035320D01*
X144053360Y-87853320D01*
X146695360Y-87853320D01*
X146695360Y-93035320D01*
G37*
G36*
X169555360Y-93035320D02*
G01*
X166913360Y-93035320D01*
X166913360Y-87853320D01*
X169555360Y-87853320D01*
X169555360Y-93035320D01*
G37*
G36*
X142303028Y-90847183D02*
G01*
X142491722Y-90904423D01*
X142665615Y-90997371D01*
X142818039Y-91122461D01*
X142943129Y-91274885D01*
X143036077Y-91448778D01*
X143093317Y-91637472D01*
X143112643Y-91833700D01*
X143093317Y-92029928D01*
X143036077Y-92218622D01*
X142943129Y-92392515D01*
X142818039Y-92544939D01*
X142665615Y-92670029D01*
X142491722Y-92762977D01*
X142303028Y-92820217D01*
X142155975Y-92834700D01*
X141857625Y-92834700D01*
X141710572Y-92820217D01*
X141521878Y-92762977D01*
X141347985Y-92670029D01*
X141195561Y-92544939D01*
X141070471Y-92392515D01*
X140977523Y-92218622D01*
X140920283Y-92029928D01*
X140900957Y-91833700D01*
X140920283Y-91637472D01*
X140977523Y-91448778D01*
X141070471Y-91274885D01*
X141195561Y-91122461D01*
X141347985Y-90997371D01*
X141521878Y-90904423D01*
X141710572Y-90847183D01*
X141857625Y-90832700D01*
X142155975Y-90832700D01*
X142303028Y-90847183D01*
G37*
G36*
X127093028Y-90847183D02*
G01*
X127281722Y-90904423D01*
X127455615Y-90997371D01*
X127608039Y-91122461D01*
X127733129Y-91274885D01*
X127826077Y-91448778D01*
X127883317Y-91637472D01*
X127902643Y-91833700D01*
X127883317Y-92029928D01*
X127826077Y-92218622D01*
X127733129Y-92392515D01*
X127608039Y-92544939D01*
X127455615Y-92670029D01*
X127281722Y-92762977D01*
X127093028Y-92820217D01*
X126945975Y-92834700D01*
X126647625Y-92834700D01*
X126500572Y-92820217D01*
X126311878Y-92762977D01*
X126137985Y-92670029D01*
X125985561Y-92544939D01*
X125860471Y-92392515D01*
X125767523Y-92218622D01*
X125710283Y-92029928D01*
X125690957Y-91833700D01*
X125710283Y-91637472D01*
X125767523Y-91448778D01*
X125860471Y-91274885D01*
X125985561Y-91122461D01*
X126137985Y-90997371D01*
X126311878Y-90904423D01*
X126500572Y-90847183D01*
X126647625Y-90832700D01*
X126945975Y-90832700D01*
X127093028Y-90847183D01*
G37*
G36*
X132255460Y-92181120D02*
G01*
X130629460Y-92181120D01*
X130629460Y-91520320D01*
X132255460Y-91520320D01*
X132255460Y-92181120D01*
G37*
G36*
X139545260Y-92181120D02*
G01*
X137919260Y-92181120D01*
X137919260Y-91520320D01*
X139545260Y-91520320D01*
X139545260Y-92181120D01*
G37*
G36*
X132255460Y-90911120D02*
G01*
X130629460Y-90911120D01*
X130629460Y-90250320D01*
X132255460Y-90250320D01*
X132255460Y-90911120D01*
G37*
G36*
X139545260Y-90911120D02*
G01*
X137919260Y-90911120D01*
X137919260Y-90250320D01*
X139545260Y-90250320D01*
X139545260Y-90911120D01*
G37*
G36*
X142303028Y-88307183D02*
G01*
X142491722Y-88364423D01*
X142665615Y-88457371D01*
X142818039Y-88582461D01*
X142943129Y-88734885D01*
X143036077Y-88908778D01*
X143093317Y-89097472D01*
X143112643Y-89293700D01*
X143093317Y-89489928D01*
X143036077Y-89678622D01*
X142943129Y-89852515D01*
X142818039Y-90004939D01*
X142665615Y-90130029D01*
X142491722Y-90222977D01*
X142303028Y-90280217D01*
X142155975Y-90294700D01*
X141857625Y-90294700D01*
X141710572Y-90280217D01*
X141521878Y-90222977D01*
X141347985Y-90130029D01*
X141195561Y-90004939D01*
X141070471Y-89852515D01*
X140977523Y-89678622D01*
X140920283Y-89489928D01*
X140900957Y-89293700D01*
X140920283Y-89097472D01*
X140977523Y-88908778D01*
X141070471Y-88734885D01*
X141195561Y-88582461D01*
X141347985Y-88457371D01*
X141521878Y-88364423D01*
X141710572Y-88307183D01*
X141857625Y-88292700D01*
X142155975Y-88292700D01*
X142303028Y-88307183D01*
G37*
G36*
X127093028Y-88307183D02*
G01*
X127281722Y-88364423D01*
X127455615Y-88457371D01*
X127608039Y-88582461D01*
X127733129Y-88734885D01*
X127826077Y-88908778D01*
X127883317Y-89097472D01*
X127902643Y-89293700D01*
X127883317Y-89489928D01*
X127826077Y-89678622D01*
X127733129Y-89852515D01*
X127608039Y-90004939D01*
X127455615Y-90130029D01*
X127281722Y-90222977D01*
X127093028Y-90280217D01*
X126945975Y-90294700D01*
X126647625Y-90294700D01*
X126500572Y-90280217D01*
X126311878Y-90222977D01*
X126137985Y-90130029D01*
X125985561Y-90004939D01*
X125860471Y-89852515D01*
X125767523Y-89678622D01*
X125710283Y-89489928D01*
X125690957Y-89293700D01*
X125710283Y-89097472D01*
X125767523Y-88908778D01*
X125860471Y-88734885D01*
X125985561Y-88582461D01*
X126137985Y-88457371D01*
X126311878Y-88364423D01*
X126500572Y-88307183D01*
X126647625Y-88292700D01*
X126945975Y-88292700D01*
X127093028Y-88307183D01*
G37*
G36*
X139545260Y-89641120D02*
G01*
X137919260Y-89641120D01*
X137919260Y-88980320D01*
X139545260Y-88980320D01*
X139545260Y-89641120D01*
G37*
G36*
X132255460Y-89641120D02*
G01*
X130629460Y-89641120D01*
X130629460Y-88980320D01*
X132255460Y-88980320D01*
X132255460Y-89641120D01*
G37*
G36*
X137862600Y-87837760D02*
G01*
X136660600Y-87837760D01*
X136660600Y-86635760D01*
X137862600Y-86635760D01*
X137862600Y-87837760D01*
G37*
G36*
X142303028Y-85767183D02*
G01*
X142370231Y-85787569D01*
X142487457Y-85823129D01*
X142491722Y-85824423D01*
X142665615Y-85917371D01*
X142818039Y-86042461D01*
X142943129Y-86194885D01*
X143036077Y-86368778D01*
X143093317Y-86557472D01*
X143112643Y-86753700D01*
X143093317Y-86949928D01*
X143036077Y-87138622D01*
X142943129Y-87312515D01*
X142818039Y-87464939D01*
X142665615Y-87590029D01*
X142491722Y-87682977D01*
X142303028Y-87740217D01*
X142155975Y-87754700D01*
X141857625Y-87754700D01*
X141710572Y-87740217D01*
X141521878Y-87682977D01*
X141347985Y-87590029D01*
X141195561Y-87464939D01*
X141070471Y-87312515D01*
X140977523Y-87138622D01*
X140920283Y-86949928D01*
X140900957Y-86753700D01*
X140920283Y-86557472D01*
X140977523Y-86368778D01*
X141070471Y-86194885D01*
X141195561Y-86042461D01*
X141347985Y-85917371D01*
X141521878Y-85824423D01*
X141526144Y-85823129D01*
X141643369Y-85787569D01*
X141710572Y-85767183D01*
X141857625Y-85752700D01*
X142155975Y-85752700D01*
X142303028Y-85767183D01*
G37*
G36*
X127093028Y-85767183D02*
G01*
X127160231Y-85787569D01*
X127277457Y-85823129D01*
X127281722Y-85824423D01*
X127455615Y-85917371D01*
X127608039Y-86042461D01*
X127733129Y-86194885D01*
X127826077Y-86368778D01*
X127883317Y-86557472D01*
X127902643Y-86753700D01*
X127883317Y-86949928D01*
X127826077Y-87138622D01*
X127733129Y-87312515D01*
X127608039Y-87464939D01*
X127455615Y-87590029D01*
X127281722Y-87682977D01*
X127093028Y-87740217D01*
X126945975Y-87754700D01*
X126647625Y-87754700D01*
X126500572Y-87740217D01*
X126311878Y-87682977D01*
X126137985Y-87590029D01*
X125985561Y-87464939D01*
X125860471Y-87312515D01*
X125767523Y-87138622D01*
X125710283Y-86949928D01*
X125690957Y-86753700D01*
X125710283Y-86557472D01*
X125767523Y-86368778D01*
X125860471Y-86194885D01*
X125985561Y-86042461D01*
X126137985Y-85917371D01*
X126311878Y-85824423D01*
X126316144Y-85823129D01*
X126433369Y-85787569D01*
X126500572Y-85767183D01*
X126647625Y-85752700D01*
X126945975Y-85752700D01*
X127093028Y-85767183D01*
G37*
G36*
X132450700Y-87287800D02*
G01*
X131448700Y-87287800D01*
X131448700Y-86385800D01*
X132450700Y-86385800D01*
X132450700Y-87287800D01*
G37*
G36*
X130450700Y-86337800D02*
G01*
X129448700Y-86337800D01*
X129448700Y-85435800D01*
X130450700Y-85435800D01*
X130450700Y-86337800D01*
G37*
G36*
X139670799Y-85110745D02*
G01*
X139708295Y-85122120D01*
X139742854Y-85140592D01*
X139773147Y-85165453D01*
X139798008Y-85195746D01*
X139816480Y-85230305D01*
X139827855Y-85267801D01*
X139832300Y-85312938D01*
X139832300Y-86051662D01*
X139827855Y-86096799D01*
X139816480Y-86134295D01*
X139798008Y-86168854D01*
X139773147Y-86199147D01*
X139742854Y-86224008D01*
X139708295Y-86242480D01*
X139670799Y-86253855D01*
X139625662Y-86258300D01*
X138986938Y-86258300D01*
X138941801Y-86253855D01*
X138904305Y-86242480D01*
X138869746Y-86224008D01*
X138839453Y-86199147D01*
X138814592Y-86168854D01*
X138796120Y-86134295D01*
X138784745Y-86096799D01*
X138780300Y-86051662D01*
X138780300Y-85312938D01*
X138784745Y-85267801D01*
X138796120Y-85230305D01*
X138814592Y-85195746D01*
X138839453Y-85165453D01*
X138869746Y-85140592D01*
X138904305Y-85122120D01*
X138941801Y-85110745D01*
X138986938Y-85106300D01*
X139625662Y-85106300D01*
X139670799Y-85110745D01*
G37*
G36*
X134049779Y-84752605D02*
G01*
X134087275Y-84763980D01*
X134121834Y-84782452D01*
X134152127Y-84807313D01*
X134176988Y-84837606D01*
X134195460Y-84872165D01*
X134206835Y-84909661D01*
X134211280Y-84954798D01*
X134211280Y-85693522D01*
X134206835Y-85738659D01*
X134195460Y-85776155D01*
X134176988Y-85810714D01*
X134152127Y-85841007D01*
X134121834Y-85865868D01*
X134087275Y-85884340D01*
X134049779Y-85895715D01*
X134004642Y-85900160D01*
X133365918Y-85900160D01*
X133320781Y-85895715D01*
X133283285Y-85884340D01*
X133248726Y-85865868D01*
X133218433Y-85841007D01*
X133193572Y-85810714D01*
X133175100Y-85776155D01*
X133163725Y-85738659D01*
X133159280Y-85693522D01*
X133159280Y-84954798D01*
X133163725Y-84909661D01*
X133175100Y-84872165D01*
X133193572Y-84837606D01*
X133218433Y-84807313D01*
X133248726Y-84782452D01*
X133283285Y-84763980D01*
X133320781Y-84752605D01*
X133365918Y-84748160D01*
X134004642Y-84748160D01*
X134049779Y-84752605D01*
G37*
G36*
X135599179Y-84717045D02*
G01*
X135636675Y-84728420D01*
X135671234Y-84746892D01*
X135701527Y-84771753D01*
X135726388Y-84802046D01*
X135744860Y-84836605D01*
X135756235Y-84874101D01*
X135760680Y-84919238D01*
X135760680Y-85657962D01*
X135756235Y-85703099D01*
X135744860Y-85740595D01*
X135726388Y-85775154D01*
X135701527Y-85805447D01*
X135671234Y-85830308D01*
X135636675Y-85848780D01*
X135599179Y-85860155D01*
X135554042Y-85864600D01*
X134915318Y-85864600D01*
X134870181Y-85860155D01*
X134832685Y-85848780D01*
X134798126Y-85830308D01*
X134767833Y-85805447D01*
X134742972Y-85775154D01*
X134724500Y-85740595D01*
X134713125Y-85703099D01*
X134708680Y-85657962D01*
X134708680Y-84919238D01*
X134713125Y-84874101D01*
X134724500Y-84836605D01*
X134742972Y-84802046D01*
X134767833Y-84771753D01*
X134798126Y-84746892D01*
X134832685Y-84728420D01*
X134870181Y-84717045D01*
X134915318Y-84712600D01*
X135554042Y-84712600D01*
X135599179Y-84717045D01*
G37*
G36*
X132450700Y-85387800D02*
G01*
X131448700Y-85387800D01*
X131448700Y-84485800D01*
X132450700Y-84485800D01*
X132450700Y-85387800D01*
G37*
G36*
X127093028Y-83227183D02*
G01*
X127281722Y-83284423D01*
X127455615Y-83377371D01*
X127608039Y-83502461D01*
X127733129Y-83654885D01*
X127826077Y-83828778D01*
X127826078Y-83828781D01*
X127830780Y-83844280D01*
X127883317Y-84017472D01*
X127902643Y-84213700D01*
X127883317Y-84409928D01*
X127826077Y-84598622D01*
X127733129Y-84772515D01*
X127608039Y-84924939D01*
X127455615Y-85050029D01*
X127281722Y-85142977D01*
X127093028Y-85200217D01*
X126945975Y-85214700D01*
X126647625Y-85214700D01*
X126500572Y-85200217D01*
X126311878Y-85142977D01*
X126137985Y-85050029D01*
X125985561Y-84924939D01*
X125860471Y-84772515D01*
X125767523Y-84598622D01*
X125710283Y-84409928D01*
X125690957Y-84213700D01*
X125710283Y-84017472D01*
X125762820Y-83844280D01*
X125767522Y-83828781D01*
X125767523Y-83828778D01*
X125860471Y-83654885D01*
X125985561Y-83502461D01*
X126137985Y-83377371D01*
X126311878Y-83284423D01*
X126500572Y-83227183D01*
X126647625Y-83212700D01*
X126945975Y-83212700D01*
X127093028Y-83227183D01*
G37*
G36*
X142303028Y-83227183D02*
G01*
X142491722Y-83284423D01*
X142665615Y-83377371D01*
X142818039Y-83502461D01*
X142943129Y-83654885D01*
X143036077Y-83828778D01*
X143036078Y-83828781D01*
X143040780Y-83844280D01*
X143093317Y-84017472D01*
X143112643Y-84213700D01*
X143093317Y-84409928D01*
X143036077Y-84598622D01*
X142943129Y-84772515D01*
X142818039Y-84924939D01*
X142665615Y-85050029D01*
X142491722Y-85142977D01*
X142303028Y-85200217D01*
X142155975Y-85214700D01*
X141857625Y-85214700D01*
X141710572Y-85200217D01*
X141521878Y-85142977D01*
X141347985Y-85050029D01*
X141195561Y-84924939D01*
X141070471Y-84772515D01*
X140977523Y-84598622D01*
X140920283Y-84409928D01*
X140900957Y-84213700D01*
X140920283Y-84017472D01*
X140972820Y-83844280D01*
X140977522Y-83828781D01*
X140977523Y-83828778D01*
X141070471Y-83654885D01*
X141195561Y-83502461D01*
X141347985Y-83377371D01*
X141521878Y-83284423D01*
X141710572Y-83227183D01*
X141857625Y-83212700D01*
X142155975Y-83212700D01*
X142303028Y-83227183D01*
G37*
G36*
X139670799Y-83360745D02*
G01*
X139708295Y-83372120D01*
X139742854Y-83390592D01*
X139773147Y-83415453D01*
X139798008Y-83445746D01*
X139816480Y-83480305D01*
X139827855Y-83517801D01*
X139832300Y-83562938D01*
X139832300Y-84301662D01*
X139827855Y-84346799D01*
X139816480Y-84384295D01*
X139798008Y-84418854D01*
X139773147Y-84449147D01*
X139742854Y-84474008D01*
X139708295Y-84492480D01*
X139670799Y-84503855D01*
X139625662Y-84508300D01*
X138986938Y-84508300D01*
X138941801Y-84503855D01*
X138904305Y-84492480D01*
X138869746Y-84474008D01*
X138839453Y-84449147D01*
X138814592Y-84418854D01*
X138796120Y-84384295D01*
X138784745Y-84346799D01*
X138780300Y-84301662D01*
X138780300Y-83562938D01*
X138784745Y-83517801D01*
X138796120Y-83480305D01*
X138814592Y-83445746D01*
X138839453Y-83415453D01*
X138869746Y-83390592D01*
X138904305Y-83372120D01*
X138941801Y-83360745D01*
X138986938Y-83356300D01*
X139625662Y-83356300D01*
X139670799Y-83360745D01*
G37*
G36*
X137862600Y-84487760D02*
G01*
X136660600Y-84487760D01*
X136660600Y-83285760D01*
X137862600Y-83285760D01*
X137862600Y-84487760D01*
G37*
G36*
X134049779Y-83002605D02*
G01*
X134087275Y-83013980D01*
X134121834Y-83032452D01*
X134152127Y-83057313D01*
X134176988Y-83087606D01*
X134195460Y-83122165D01*
X134206835Y-83159661D01*
X134211280Y-83204798D01*
X134211280Y-83943522D01*
X134206835Y-83988659D01*
X134195460Y-84026155D01*
X134176988Y-84060714D01*
X134152127Y-84091007D01*
X134121834Y-84115868D01*
X134087275Y-84134340D01*
X134049779Y-84145715D01*
X134004642Y-84150160D01*
X133365918Y-84150160D01*
X133320781Y-84145715D01*
X133283285Y-84134340D01*
X133248726Y-84115868D01*
X133218433Y-84091007D01*
X133193572Y-84060714D01*
X133175100Y-84026155D01*
X133163725Y-83988659D01*
X133159280Y-83943522D01*
X133159280Y-83204798D01*
X133163725Y-83159661D01*
X133175100Y-83122165D01*
X133193572Y-83087606D01*
X133218433Y-83057313D01*
X133248726Y-83032452D01*
X133283285Y-83013980D01*
X133320781Y-83002605D01*
X133365918Y-82998160D01*
X134004642Y-82998160D01*
X134049779Y-83002605D01*
G37*
G36*
X135599179Y-82967045D02*
G01*
X135636675Y-82978420D01*
X135671234Y-82996892D01*
X135701527Y-83021753D01*
X135726388Y-83052046D01*
X135744860Y-83086605D01*
X135756235Y-83124101D01*
X135760680Y-83169238D01*
X135760680Y-83907962D01*
X135756235Y-83953099D01*
X135744860Y-83990595D01*
X135726388Y-84025154D01*
X135701527Y-84055447D01*
X135671234Y-84080308D01*
X135636675Y-84098780D01*
X135599179Y-84110155D01*
X135554042Y-84114600D01*
X134915318Y-84114600D01*
X134870181Y-84110155D01*
X134832685Y-84098780D01*
X134798126Y-84080308D01*
X134767833Y-84055447D01*
X134742972Y-84025154D01*
X134724500Y-83990595D01*
X134713125Y-83953099D01*
X134708680Y-83907962D01*
X134708680Y-83169238D01*
X134713125Y-83124101D01*
X134724500Y-83086605D01*
X134742972Y-83052046D01*
X134767833Y-83021753D01*
X134798126Y-82996892D01*
X134832685Y-82978420D01*
X134870181Y-82967045D01*
X134915318Y-82962600D01*
X135554042Y-82962600D01*
X135599179Y-82967045D01*
G37*
G36*
X132289999Y-82812545D02*
G01*
X132327495Y-82823920D01*
X132362054Y-82842392D01*
X132392347Y-82867253D01*
X132417208Y-82897546D01*
X132435680Y-82932105D01*
X132447055Y-82969601D01*
X132451500Y-83014738D01*
X132451500Y-83653462D01*
X132447055Y-83698599D01*
X132435680Y-83736095D01*
X132417208Y-83770654D01*
X132392347Y-83800947D01*
X132362054Y-83825808D01*
X132327495Y-83844280D01*
X132289999Y-83855655D01*
X132244862Y-83860100D01*
X131506138Y-83860100D01*
X131461001Y-83855655D01*
X131423505Y-83844280D01*
X131388946Y-83825808D01*
X131358653Y-83800947D01*
X131333792Y-83770654D01*
X131315320Y-83736095D01*
X131303945Y-83698599D01*
X131299500Y-83653462D01*
X131299500Y-83014738D01*
X131303945Y-82969601D01*
X131315320Y-82932105D01*
X131333792Y-82897546D01*
X131358653Y-82867253D01*
X131388946Y-82842392D01*
X131423505Y-82823920D01*
X131461001Y-82812545D01*
X131506138Y-82808100D01*
X132244862Y-82808100D01*
X132289999Y-82812545D01*
G37*
G36*
X130539999Y-82812545D02*
G01*
X130577495Y-82823920D01*
X130612054Y-82842392D01*
X130642347Y-82867253D01*
X130667208Y-82897546D01*
X130685680Y-82932105D01*
X130697055Y-82969601D01*
X130701500Y-83014738D01*
X130701500Y-83653462D01*
X130697055Y-83698599D01*
X130685680Y-83736095D01*
X130667208Y-83770654D01*
X130642347Y-83800947D01*
X130612054Y-83825808D01*
X130577495Y-83844280D01*
X130539999Y-83855655D01*
X130494862Y-83860100D01*
X129756138Y-83860100D01*
X129711001Y-83855655D01*
X129673505Y-83844280D01*
X129638946Y-83825808D01*
X129608653Y-83800947D01*
X129583792Y-83770654D01*
X129565320Y-83736095D01*
X129553945Y-83698599D01*
X129549500Y-83653462D01*
X129549500Y-83014738D01*
X129553945Y-82969601D01*
X129565320Y-82932105D01*
X129583792Y-82897546D01*
X129608653Y-82867253D01*
X129638946Y-82842392D01*
X129673505Y-82823920D01*
X129711001Y-82812545D01*
X129756138Y-82808100D01*
X130494862Y-82808100D01*
X130539999Y-82812545D01*
G37*
G36*
X137307360Y-82716200D02*
G01*
X136555360Y-82716200D01*
X136555360Y-81554200D01*
X137307360Y-81554200D01*
X137307360Y-82716200D01*
G37*
G36*
X139207360Y-82716200D02*
G01*
X138455360Y-82716200D01*
X138455360Y-81554200D01*
X139207360Y-81554200D01*
X139207360Y-82716200D01*
G37*
G36*
X127093028Y-80687183D02*
G01*
X127281722Y-80744423D01*
X127455615Y-80837371D01*
X127608039Y-80962461D01*
X127733129Y-81114885D01*
X127826077Y-81288778D01*
X127883317Y-81477472D01*
X127902643Y-81673700D01*
X127883317Y-81869928D01*
X127826077Y-82058622D01*
X127733129Y-82232515D01*
X127608039Y-82384939D01*
X127455615Y-82510029D01*
X127281722Y-82602977D01*
X127093028Y-82660217D01*
X126945975Y-82674700D01*
X126647625Y-82674700D01*
X126500572Y-82660217D01*
X126311878Y-82602977D01*
X126137985Y-82510029D01*
X125985561Y-82384939D01*
X125860471Y-82232515D01*
X125767523Y-82058622D01*
X125710283Y-81869928D01*
X125690957Y-81673700D01*
X125710283Y-81477472D01*
X125767523Y-81288778D01*
X125860471Y-81114885D01*
X125985561Y-80962461D01*
X126137985Y-80837371D01*
X126311878Y-80744423D01*
X126500572Y-80687183D01*
X126647625Y-80672700D01*
X126945975Y-80672700D01*
X127093028Y-80687183D01*
G37*
G36*
X142303028Y-80687183D02*
G01*
X142491722Y-80744423D01*
X142665615Y-80837371D01*
X142818039Y-80962461D01*
X142943129Y-81114885D01*
X143036077Y-81288778D01*
X143093317Y-81477472D01*
X143112643Y-81673700D01*
X143093317Y-81869928D01*
X143036077Y-82058622D01*
X142943129Y-82232515D01*
X142818039Y-82384939D01*
X142665615Y-82510029D01*
X142491722Y-82602977D01*
X142303028Y-82660217D01*
X142155975Y-82674700D01*
X141857625Y-82674700D01*
X141710572Y-82660217D01*
X141521878Y-82602977D01*
X141347985Y-82510029D01*
X141195561Y-82384939D01*
X141070471Y-82232515D01*
X140977523Y-82058622D01*
X140920283Y-81869928D01*
X140900957Y-81673700D01*
X140920283Y-81477472D01*
X140977523Y-81288778D01*
X141070471Y-81114885D01*
X141195561Y-80962461D01*
X141347985Y-80837371D01*
X141521878Y-80744423D01*
X141710572Y-80687183D01*
X141857625Y-80672700D01*
X142155975Y-80672700D01*
X142303028Y-80687183D01*
G37*
G36*
X135428999Y-81097545D02*
G01*
X135466495Y-81108920D01*
X135501054Y-81127392D01*
X135531347Y-81152253D01*
X135556208Y-81182546D01*
X135574680Y-81217105D01*
X135586055Y-81254601D01*
X135590500Y-81299738D01*
X135590500Y-82038462D01*
X135586055Y-82083599D01*
X135574680Y-82121095D01*
X135556208Y-82155654D01*
X135531347Y-82185947D01*
X135501054Y-82210808D01*
X135466495Y-82229280D01*
X135428999Y-82240655D01*
X135383862Y-82245100D01*
X134745138Y-82245100D01*
X134700001Y-82240655D01*
X134662505Y-82229280D01*
X134627946Y-82210808D01*
X134597653Y-82185947D01*
X134572792Y-82155654D01*
X134554320Y-82121095D01*
X134542945Y-82083599D01*
X134538500Y-82038462D01*
X134538500Y-81299738D01*
X134542945Y-81254601D01*
X134554320Y-81217105D01*
X134572792Y-81182546D01*
X134597653Y-81152253D01*
X134627946Y-81127392D01*
X134662505Y-81108920D01*
X134700001Y-81097545D01*
X134745138Y-81093100D01*
X135383862Y-81093100D01*
X135428999Y-81097545D01*
G37*
G36*
X133885900Y-82132800D02*
G01*
X132563900Y-82132800D01*
X132563900Y-79480800D01*
X133885900Y-79480800D01*
X133885900Y-82132800D01*
G37*
G36*
X131265900Y-82132800D02*
G01*
X129943900Y-82132800D01*
X129943900Y-79480800D01*
X131265900Y-79480800D01*
X131265900Y-82132800D01*
G37*
G36*
X145325799Y-79265617D02*
G01*
X145335408Y-79268532D01*
X145344272Y-79273270D01*
X145352037Y-79279643D01*
X145362248Y-79292086D01*
X145369178Y-79302455D01*
X145386505Y-79319782D01*
X145406880Y-79333395D01*
X145429520Y-79342771D01*
X145453553Y-79347551D01*
X145478057Y-79347550D01*
X145502090Y-79342768D01*
X145524729Y-79333390D01*
X145545102Y-79319775D01*
X145562429Y-79302448D01*
X145569358Y-79292078D01*
X145579563Y-79279643D01*
X145587328Y-79273270D01*
X145596192Y-79268532D01*
X145605801Y-79265617D01*
X145621940Y-79264028D01*
X146109661Y-79264028D01*
X146127999Y-79265834D01*
X146140250Y-79266436D01*
X146158669Y-79266436D01*
X146180949Y-79268630D01*
X146265033Y-79285356D01*
X146286460Y-79291856D01*
X146365658Y-79324660D01*
X146371103Y-79327571D01*
X146371109Y-79327573D01*
X146379969Y-79332309D01*
X146379973Y-79332312D01*
X146385414Y-79335220D01*
X146456699Y-79382851D01*
X146474004Y-79397052D01*
X146534628Y-79457676D01*
X146548829Y-79474981D01*
X146596460Y-79546266D01*
X146599368Y-79551707D01*
X146599371Y-79551711D01*
X146604107Y-79560571D01*
X146604109Y-79560577D01*
X146607020Y-79566022D01*
X146639824Y-79645220D01*
X146646324Y-79666647D01*
X146663050Y-79750731D01*
X146665244Y-79773011D01*
X146665244Y-79791430D01*
X146665846Y-79803681D01*
X146667652Y-79822019D01*
X146667652Y-80309742D01*
X146665846Y-80328079D01*
X146665244Y-80340330D01*
X146665244Y-80358749D01*
X146663050Y-80381029D01*
X146646324Y-80465113D01*
X146639824Y-80486540D01*
X146607020Y-80565738D01*
X146604109Y-80571183D01*
X146604107Y-80571189D01*
X146599371Y-80580049D01*
X146599368Y-80580053D01*
X146596460Y-80585494D01*
X146548829Y-80656779D01*
X146534628Y-80674084D01*
X146474004Y-80734708D01*
X146456699Y-80748909D01*
X146385414Y-80796540D01*
X146379973Y-80799448D01*
X146379969Y-80799451D01*
X146371109Y-80804187D01*
X146371103Y-80804189D01*
X146365658Y-80807100D01*
X146286460Y-80839904D01*
X146265033Y-80846404D01*
X146180949Y-80863130D01*
X146158669Y-80865324D01*
X146140250Y-80865324D01*
X146127999Y-80865926D01*
X146109662Y-80867732D01*
X145621940Y-80867732D01*
X145605801Y-80866143D01*
X145596192Y-80863228D01*
X145587328Y-80858490D01*
X145579563Y-80852117D01*
X145569352Y-80839674D01*
X145562422Y-80829305D01*
X145545095Y-80811978D01*
X145524720Y-80798365D01*
X145502080Y-80788989D01*
X145478047Y-80784209D01*
X145453543Y-80784210D01*
X145429510Y-80788992D01*
X145406871Y-80798370D01*
X145386498Y-80811985D01*
X145369171Y-80829312D01*
X145362242Y-80839682D01*
X145352037Y-80852117D01*
X145344272Y-80858490D01*
X145335408Y-80863228D01*
X145325799Y-80866143D01*
X145309660Y-80867732D01*
X144821938Y-80867732D01*
X144803601Y-80865926D01*
X144791350Y-80865324D01*
X144772931Y-80865324D01*
X144750651Y-80863130D01*
X144666567Y-80846404D01*
X144645140Y-80839904D01*
X144565942Y-80807100D01*
X144560497Y-80804189D01*
X144560491Y-80804187D01*
X144551631Y-80799451D01*
X144551627Y-80799448D01*
X144546186Y-80796540D01*
X144474901Y-80748909D01*
X144457596Y-80734708D01*
X144396972Y-80674084D01*
X144382771Y-80656779D01*
X144335140Y-80585494D01*
X144332232Y-80580053D01*
X144332229Y-80580049D01*
X144327493Y-80571189D01*
X144327491Y-80571183D01*
X144324580Y-80565738D01*
X144291776Y-80486540D01*
X144285276Y-80465113D01*
X144268550Y-80381029D01*
X144266356Y-80358749D01*
X144266356Y-80340330D01*
X144265754Y-80328079D01*
X144263948Y-80309742D01*
X144263948Y-79822019D01*
X144265754Y-79803681D01*
X144266356Y-79791430D01*
X144266356Y-79773011D01*
X144268550Y-79750731D01*
X144285276Y-79666647D01*
X144291776Y-79645220D01*
X144324580Y-79566022D01*
X144327491Y-79560577D01*
X144327493Y-79560571D01*
X144332229Y-79551711D01*
X144332232Y-79551707D01*
X144335140Y-79546266D01*
X144382771Y-79474981D01*
X144396972Y-79457676D01*
X144457596Y-79397052D01*
X144474901Y-79382851D01*
X144546186Y-79335220D01*
X144551627Y-79332312D01*
X144551631Y-79332309D01*
X144560491Y-79327573D01*
X144560497Y-79327571D01*
X144565942Y-79324660D01*
X144645140Y-79291856D01*
X144666567Y-79285356D01*
X144750651Y-79268630D01*
X144772931Y-79266436D01*
X144791350Y-79266436D01*
X144803601Y-79265834D01*
X144821939Y-79264028D01*
X145309660Y-79264028D01*
X145325799Y-79265617D01*
G37*
G36*
X139207360Y-80516200D02*
G01*
X136555360Y-80516200D01*
X136555360Y-79354200D01*
X139207360Y-79354200D01*
X139207360Y-80516200D01*
G37*
G36*
X135428999Y-79347545D02*
G01*
X135466495Y-79358920D01*
X135501054Y-79377392D01*
X135531347Y-79402253D01*
X135556208Y-79432546D01*
X135574680Y-79467105D01*
X135586055Y-79504601D01*
X135590500Y-79549738D01*
X135590500Y-80288462D01*
X135586055Y-80333599D01*
X135574680Y-80371095D01*
X135556208Y-80405654D01*
X135531347Y-80435947D01*
X135501054Y-80460808D01*
X135466495Y-80479280D01*
X135428999Y-80490655D01*
X135383862Y-80495100D01*
X134745138Y-80495100D01*
X134700001Y-80490655D01*
X134662505Y-80479280D01*
X134627946Y-80460808D01*
X134597653Y-80435947D01*
X134572792Y-80405654D01*
X134554320Y-80371095D01*
X134542945Y-80333599D01*
X134538500Y-80288462D01*
X134538500Y-79549738D01*
X134542945Y-79504601D01*
X134554320Y-79467105D01*
X134572792Y-79432546D01*
X134597653Y-79402253D01*
X134627946Y-79377392D01*
X134662505Y-79358920D01*
X134700001Y-79347545D01*
X134745138Y-79343100D01*
X135383862Y-79343100D01*
X135428999Y-79347545D01*
G37*
G36*
X127897800Y-80134700D02*
G01*
X125695800Y-80134700D01*
X125695800Y-78132700D01*
X127897800Y-78132700D01*
X127897800Y-80134700D01*
G37*
G36*
X142303028Y-78147183D02*
G01*
X142491722Y-78204423D01*
X142665615Y-78297371D01*
X142818039Y-78422461D01*
X142943129Y-78574885D01*
X143036077Y-78748778D01*
X143093317Y-78937472D01*
X143112643Y-79133700D01*
X143093317Y-79329928D01*
X143075876Y-79387423D01*
X143040072Y-79505454D01*
X143036077Y-79518622D01*
X142943129Y-79692515D01*
X142818039Y-79844939D01*
X142665615Y-79970029D01*
X142491722Y-80062977D01*
X142303028Y-80120217D01*
X142155975Y-80134700D01*
X141857625Y-80134700D01*
X141710572Y-80120217D01*
X141521878Y-80062977D01*
X141347985Y-79970029D01*
X141195561Y-79844939D01*
X141070471Y-79692515D01*
X140977523Y-79518622D01*
X140973529Y-79505454D01*
X140937724Y-79387423D01*
X140920283Y-79329928D01*
X140900957Y-79133700D01*
X140920283Y-78937472D01*
X140977523Y-78748778D01*
X141070471Y-78574885D01*
X141195561Y-78422461D01*
X141347985Y-78297371D01*
X141521878Y-78204423D01*
X141710572Y-78147183D01*
X141857625Y-78132700D01*
X142155975Y-78132700D01*
X142303028Y-78147183D01*
G37*
G36*
X139179398Y-78934319D02*
G01*
X138477400Y-78934319D01*
X138477400Y-78332321D01*
X139179398Y-78332321D01*
X139179398Y-78934319D01*
G37*
G36*
X138179400Y-78934319D02*
G01*
X137477402Y-78934319D01*
X137477402Y-78332321D01*
X138179400Y-78332321D01*
X138179400Y-78934319D01*
G37*
G36*
X132372198Y-78682099D02*
G01*
X131670200Y-78682099D01*
X131670200Y-78080101D01*
X132372198Y-78080101D01*
X132372198Y-78682099D01*
G37*
G36*
X131372200Y-78682099D02*
G01*
X130670202Y-78682099D01*
X130670202Y-78080101D01*
X131372200Y-78080101D01*
X131372200Y-78682099D01*
G37*
M02*
