G04 #@! TF.GenerationSoftware,KiCad,Pcbnew,(5.1.5)-3*
G04 #@! TF.CreationDate,2020-04-24T14:35:50-04:00*
G04 #@! TF.ProjectId,CR2025_Nordic,43523230-3235-45f4-9e6f-726469632e6b,rev?*
G04 #@! TF.SameCoordinates,Original*
G04 #@! TF.FileFunction,Paste,Top*
G04 #@! TF.FilePolarity,Positive*
%FSLAX46Y46*%
G04 Gerber Fmt 4.6, Leading zero omitted, Abs format (unit mm)*
G04 Created by KiCad (PCBNEW (5.1.5)-3) date 2020-04-24 14:35:50*
%MOMM*%
%LPD*%
G04 APERTURE LIST*
%ADD10R,0.599999X0.499999*%
%ADD11C,0.100000*%
%ADD12R,3.810000X3.910000*%
%ADD13R,1.020000X0.610000*%
%ADD14R,1.270000X0.610000*%
%ADD15R,1.524000X0.558800*%
%ADD16R,1.100000X1.100000*%
%ADD17R,0.650000X1.060000*%
%ADD18R,0.550000X1.240000*%
%ADD19R,1.220000X0.650000*%
%ADD20R,0.900000X0.800000*%
G04 APERTURE END LIST*
D10*
X141990699Y-76555600D03*
X140990701Y-76555600D03*
D11*
G36*
X145041279Y-78418544D02*
G01*
X145064334Y-78421963D01*
X145086943Y-78427627D01*
X145108887Y-78435479D01*
X145129957Y-78445444D01*
X145149948Y-78457426D01*
X145168668Y-78471310D01*
X145185938Y-78486962D01*
X145201590Y-78504232D01*
X145215474Y-78522952D01*
X145227456Y-78542943D01*
X145237421Y-78564013D01*
X145245273Y-78585957D01*
X145250937Y-78608566D01*
X145254356Y-78631621D01*
X145255500Y-78654900D01*
X145255500Y-79129900D01*
X145254356Y-79153179D01*
X145250937Y-79176234D01*
X145245273Y-79198843D01*
X145237421Y-79220787D01*
X145227456Y-79241857D01*
X145215474Y-79261848D01*
X145201590Y-79280568D01*
X145185938Y-79297838D01*
X145168668Y-79313490D01*
X145149948Y-79327374D01*
X145129957Y-79339356D01*
X145108887Y-79349321D01*
X145086943Y-79357173D01*
X145064334Y-79362837D01*
X145041279Y-79366256D01*
X145018000Y-79367400D01*
X144443000Y-79367400D01*
X144419721Y-79366256D01*
X144396666Y-79362837D01*
X144374057Y-79357173D01*
X144352113Y-79349321D01*
X144331043Y-79339356D01*
X144311052Y-79327374D01*
X144292332Y-79313490D01*
X144275062Y-79297838D01*
X144259410Y-79280568D01*
X144245526Y-79261848D01*
X144233544Y-79241857D01*
X144223579Y-79220787D01*
X144215727Y-79198843D01*
X144210063Y-79176234D01*
X144206644Y-79153179D01*
X144205500Y-79129900D01*
X144205500Y-78654900D01*
X144206644Y-78631621D01*
X144210063Y-78608566D01*
X144215727Y-78585957D01*
X144223579Y-78564013D01*
X144233544Y-78542943D01*
X144245526Y-78522952D01*
X144259410Y-78504232D01*
X144275062Y-78486962D01*
X144292332Y-78471310D01*
X144311052Y-78457426D01*
X144331043Y-78445444D01*
X144352113Y-78435479D01*
X144374057Y-78427627D01*
X144396666Y-78421963D01*
X144419721Y-78418544D01*
X144443000Y-78417400D01*
X145018000Y-78417400D01*
X145041279Y-78418544D01*
G37*
G36*
X146791279Y-78418544D02*
G01*
X146814334Y-78421963D01*
X146836943Y-78427627D01*
X146858887Y-78435479D01*
X146879957Y-78445444D01*
X146899948Y-78457426D01*
X146918668Y-78471310D01*
X146935938Y-78486962D01*
X146951590Y-78504232D01*
X146965474Y-78522952D01*
X146977456Y-78542943D01*
X146987421Y-78564013D01*
X146995273Y-78585957D01*
X147000937Y-78608566D01*
X147004356Y-78631621D01*
X147005500Y-78654900D01*
X147005500Y-79129900D01*
X147004356Y-79153179D01*
X147000937Y-79176234D01*
X146995273Y-79198843D01*
X146987421Y-79220787D01*
X146977456Y-79241857D01*
X146965474Y-79261848D01*
X146951590Y-79280568D01*
X146935938Y-79297838D01*
X146918668Y-79313490D01*
X146899948Y-79327374D01*
X146879957Y-79339356D01*
X146858887Y-79349321D01*
X146836943Y-79357173D01*
X146814334Y-79362837D01*
X146791279Y-79366256D01*
X146768000Y-79367400D01*
X146193000Y-79367400D01*
X146169721Y-79366256D01*
X146146666Y-79362837D01*
X146124057Y-79357173D01*
X146102113Y-79349321D01*
X146081043Y-79339356D01*
X146061052Y-79327374D01*
X146042332Y-79313490D01*
X146025062Y-79297838D01*
X146009410Y-79280568D01*
X145995526Y-79261848D01*
X145983544Y-79241857D01*
X145973579Y-79220787D01*
X145965727Y-79198843D01*
X145960063Y-79176234D01*
X145956644Y-79153179D01*
X145955500Y-79129900D01*
X145955500Y-78654900D01*
X145956644Y-78631621D01*
X145960063Y-78608566D01*
X145965727Y-78585957D01*
X145973579Y-78564013D01*
X145983544Y-78542943D01*
X145995526Y-78522952D01*
X146009410Y-78504232D01*
X146025062Y-78486962D01*
X146042332Y-78471310D01*
X146061052Y-78457426D01*
X146081043Y-78445444D01*
X146102113Y-78435479D01*
X146124057Y-78427627D01*
X146146666Y-78421963D01*
X146169721Y-78418544D01*
X146193000Y-78417400D01*
X146768000Y-78417400D01*
X146791279Y-78418544D01*
G37*
D12*
X150994500Y-90030300D03*
D13*
X153099500Y-88125300D03*
X153099500Y-89395300D03*
X153099500Y-90665300D03*
X153099500Y-91935300D03*
D14*
X147634500Y-91935300D03*
X147634500Y-90665300D03*
X147634500Y-89395300D03*
X147634500Y-88125300D03*
D15*
X138344900Y-86295000D03*
X138344900Y-87565000D03*
X138344900Y-88835000D03*
X138344900Y-90105000D03*
X131055100Y-90105000D03*
X131055100Y-88835000D03*
X131055100Y-87565000D03*
X131055100Y-86295000D03*
D16*
X157724300Y-83045300D03*
X154924300Y-83045300D03*
D11*
G36*
X151936879Y-75855244D02*
G01*
X151959934Y-75858663D01*
X151982543Y-75864327D01*
X152004487Y-75872179D01*
X152025557Y-75882144D01*
X152045548Y-75894126D01*
X152064268Y-75908010D01*
X152081538Y-75923662D01*
X152097190Y-75940932D01*
X152111074Y-75959652D01*
X152123056Y-75979643D01*
X152133021Y-76000713D01*
X152140873Y-76022657D01*
X152146537Y-76045266D01*
X152149956Y-76068321D01*
X152151100Y-76091600D01*
X152151100Y-76666600D01*
X152149956Y-76689879D01*
X152146537Y-76712934D01*
X152140873Y-76735543D01*
X152133021Y-76757487D01*
X152123056Y-76778557D01*
X152111074Y-76798548D01*
X152097190Y-76817268D01*
X152081538Y-76834538D01*
X152064268Y-76850190D01*
X152045548Y-76864074D01*
X152025557Y-76876056D01*
X152004487Y-76886021D01*
X151982543Y-76893873D01*
X151959934Y-76899537D01*
X151936879Y-76902956D01*
X151913600Y-76904100D01*
X151438600Y-76904100D01*
X151415321Y-76902956D01*
X151392266Y-76899537D01*
X151369657Y-76893873D01*
X151347713Y-76886021D01*
X151326643Y-76876056D01*
X151306652Y-76864074D01*
X151287932Y-76850190D01*
X151270662Y-76834538D01*
X151255010Y-76817268D01*
X151241126Y-76798548D01*
X151229144Y-76778557D01*
X151219179Y-76757487D01*
X151211327Y-76735543D01*
X151205663Y-76712934D01*
X151202244Y-76689879D01*
X151201100Y-76666600D01*
X151201100Y-76091600D01*
X151202244Y-76068321D01*
X151205663Y-76045266D01*
X151211327Y-76022657D01*
X151219179Y-76000713D01*
X151229144Y-75979643D01*
X151241126Y-75959652D01*
X151255010Y-75940932D01*
X151270662Y-75923662D01*
X151287932Y-75908010D01*
X151306652Y-75894126D01*
X151326643Y-75882144D01*
X151347713Y-75872179D01*
X151369657Y-75864327D01*
X151392266Y-75858663D01*
X151415321Y-75855244D01*
X151438600Y-75854100D01*
X151913600Y-75854100D01*
X151936879Y-75855244D01*
G37*
G36*
X151936879Y-77605244D02*
G01*
X151959934Y-77608663D01*
X151982543Y-77614327D01*
X152004487Y-77622179D01*
X152025557Y-77632144D01*
X152045548Y-77644126D01*
X152064268Y-77658010D01*
X152081538Y-77673662D01*
X152097190Y-77690932D01*
X152111074Y-77709652D01*
X152123056Y-77729643D01*
X152133021Y-77750713D01*
X152140873Y-77772657D01*
X152146537Y-77795266D01*
X152149956Y-77818321D01*
X152151100Y-77841600D01*
X152151100Y-78416600D01*
X152149956Y-78439879D01*
X152146537Y-78462934D01*
X152140873Y-78485543D01*
X152133021Y-78507487D01*
X152123056Y-78528557D01*
X152111074Y-78548548D01*
X152097190Y-78567268D01*
X152081538Y-78584538D01*
X152064268Y-78600190D01*
X152045548Y-78614074D01*
X152025557Y-78626056D01*
X152004487Y-78636021D01*
X151982543Y-78643873D01*
X151959934Y-78649537D01*
X151936879Y-78652956D01*
X151913600Y-78654100D01*
X151438600Y-78654100D01*
X151415321Y-78652956D01*
X151392266Y-78649537D01*
X151369657Y-78643873D01*
X151347713Y-78636021D01*
X151326643Y-78626056D01*
X151306652Y-78614074D01*
X151287932Y-78600190D01*
X151270662Y-78584538D01*
X151255010Y-78567268D01*
X151241126Y-78548548D01*
X151229144Y-78528557D01*
X151219179Y-78507487D01*
X151211327Y-78485543D01*
X151205663Y-78462934D01*
X151202244Y-78439879D01*
X151201100Y-78416600D01*
X151201100Y-77841600D01*
X151202244Y-77818321D01*
X151205663Y-77795266D01*
X151211327Y-77772657D01*
X151219179Y-77750713D01*
X151229144Y-77729643D01*
X151241126Y-77709652D01*
X151255010Y-77690932D01*
X151270662Y-77673662D01*
X151287932Y-77658010D01*
X151306652Y-77644126D01*
X151326643Y-77632144D01*
X151347713Y-77622179D01*
X151369657Y-77614327D01*
X151392266Y-77608663D01*
X151415321Y-77605244D01*
X151438600Y-77604100D01*
X151913600Y-77604100D01*
X151936879Y-77605244D01*
G37*
G36*
X157985779Y-75026144D02*
G01*
X158008834Y-75029563D01*
X158031443Y-75035227D01*
X158053387Y-75043079D01*
X158074457Y-75053044D01*
X158094448Y-75065026D01*
X158113168Y-75078910D01*
X158130438Y-75094562D01*
X158146090Y-75111832D01*
X158159974Y-75130552D01*
X158171956Y-75150543D01*
X158181921Y-75171613D01*
X158189773Y-75193557D01*
X158195437Y-75216166D01*
X158198856Y-75239221D01*
X158200000Y-75262500D01*
X158200000Y-75737500D01*
X158198856Y-75760779D01*
X158195437Y-75783834D01*
X158189773Y-75806443D01*
X158181921Y-75828387D01*
X158171956Y-75849457D01*
X158159974Y-75869448D01*
X158146090Y-75888168D01*
X158130438Y-75905438D01*
X158113168Y-75921090D01*
X158094448Y-75934974D01*
X158074457Y-75946956D01*
X158053387Y-75956921D01*
X158031443Y-75964773D01*
X158008834Y-75970437D01*
X157985779Y-75973856D01*
X157962500Y-75975000D01*
X157387500Y-75975000D01*
X157364221Y-75973856D01*
X157341166Y-75970437D01*
X157318557Y-75964773D01*
X157296613Y-75956921D01*
X157275543Y-75946956D01*
X157255552Y-75934974D01*
X157236832Y-75921090D01*
X157219562Y-75905438D01*
X157203910Y-75888168D01*
X157190026Y-75869448D01*
X157178044Y-75849457D01*
X157168079Y-75828387D01*
X157160227Y-75806443D01*
X157154563Y-75783834D01*
X157151144Y-75760779D01*
X157150000Y-75737500D01*
X157150000Y-75262500D01*
X157151144Y-75239221D01*
X157154563Y-75216166D01*
X157160227Y-75193557D01*
X157168079Y-75171613D01*
X157178044Y-75150543D01*
X157190026Y-75130552D01*
X157203910Y-75111832D01*
X157219562Y-75094562D01*
X157236832Y-75078910D01*
X157255552Y-75065026D01*
X157275543Y-75053044D01*
X157296613Y-75043079D01*
X157318557Y-75035227D01*
X157341166Y-75029563D01*
X157364221Y-75026144D01*
X157387500Y-75025000D01*
X157962500Y-75025000D01*
X157985779Y-75026144D01*
G37*
G36*
X156235779Y-75026144D02*
G01*
X156258834Y-75029563D01*
X156281443Y-75035227D01*
X156303387Y-75043079D01*
X156324457Y-75053044D01*
X156344448Y-75065026D01*
X156363168Y-75078910D01*
X156380438Y-75094562D01*
X156396090Y-75111832D01*
X156409974Y-75130552D01*
X156421956Y-75150543D01*
X156431921Y-75171613D01*
X156439773Y-75193557D01*
X156445437Y-75216166D01*
X156448856Y-75239221D01*
X156450000Y-75262500D01*
X156450000Y-75737500D01*
X156448856Y-75760779D01*
X156445437Y-75783834D01*
X156439773Y-75806443D01*
X156431921Y-75828387D01*
X156421956Y-75849457D01*
X156409974Y-75869448D01*
X156396090Y-75888168D01*
X156380438Y-75905438D01*
X156363168Y-75921090D01*
X156344448Y-75934974D01*
X156324457Y-75946956D01*
X156303387Y-75956921D01*
X156281443Y-75964773D01*
X156258834Y-75970437D01*
X156235779Y-75973856D01*
X156212500Y-75975000D01*
X155637500Y-75975000D01*
X155614221Y-75973856D01*
X155591166Y-75970437D01*
X155568557Y-75964773D01*
X155546613Y-75956921D01*
X155525543Y-75946956D01*
X155505552Y-75934974D01*
X155486832Y-75921090D01*
X155469562Y-75905438D01*
X155453910Y-75888168D01*
X155440026Y-75869448D01*
X155428044Y-75849457D01*
X155418079Y-75828387D01*
X155410227Y-75806443D01*
X155404563Y-75783834D01*
X155401144Y-75760779D01*
X155400000Y-75737500D01*
X155400000Y-75262500D01*
X155401144Y-75239221D01*
X155404563Y-75216166D01*
X155410227Y-75193557D01*
X155418079Y-75171613D01*
X155428044Y-75150543D01*
X155440026Y-75130552D01*
X155453910Y-75111832D01*
X155469562Y-75094562D01*
X155486832Y-75078910D01*
X155505552Y-75065026D01*
X155525543Y-75053044D01*
X155546613Y-75043079D01*
X155568557Y-75035227D01*
X155591166Y-75029563D01*
X155614221Y-75026144D01*
X155637500Y-75025000D01*
X156212500Y-75025000D01*
X156235779Y-75026144D01*
G37*
G36*
X133395379Y-94445944D02*
G01*
X133418434Y-94449363D01*
X133441043Y-94455027D01*
X133462987Y-94462879D01*
X133484057Y-94472844D01*
X133504048Y-94484826D01*
X133522768Y-94498710D01*
X133540038Y-94514362D01*
X133555690Y-94531632D01*
X133569574Y-94550352D01*
X133581556Y-94570343D01*
X133591521Y-94591413D01*
X133599373Y-94613357D01*
X133605037Y-94635966D01*
X133608456Y-94659021D01*
X133609600Y-94682300D01*
X133609600Y-95157300D01*
X133608456Y-95180579D01*
X133605037Y-95203634D01*
X133599373Y-95226243D01*
X133591521Y-95248187D01*
X133581556Y-95269257D01*
X133569574Y-95289248D01*
X133555690Y-95307968D01*
X133540038Y-95325238D01*
X133522768Y-95340890D01*
X133504048Y-95354774D01*
X133484057Y-95366756D01*
X133462987Y-95376721D01*
X133441043Y-95384573D01*
X133418434Y-95390237D01*
X133395379Y-95393656D01*
X133372100Y-95394800D01*
X132797100Y-95394800D01*
X132773821Y-95393656D01*
X132750766Y-95390237D01*
X132728157Y-95384573D01*
X132706213Y-95376721D01*
X132685143Y-95366756D01*
X132665152Y-95354774D01*
X132646432Y-95340890D01*
X132629162Y-95325238D01*
X132613510Y-95307968D01*
X132599626Y-95289248D01*
X132587644Y-95269257D01*
X132577679Y-95248187D01*
X132569827Y-95226243D01*
X132564163Y-95203634D01*
X132560744Y-95180579D01*
X132559600Y-95157300D01*
X132559600Y-94682300D01*
X132560744Y-94659021D01*
X132564163Y-94635966D01*
X132569827Y-94613357D01*
X132577679Y-94591413D01*
X132587644Y-94570343D01*
X132599626Y-94550352D01*
X132613510Y-94531632D01*
X132629162Y-94514362D01*
X132646432Y-94498710D01*
X132665152Y-94484826D01*
X132685143Y-94472844D01*
X132706213Y-94462879D01*
X132728157Y-94455027D01*
X132750766Y-94449363D01*
X132773821Y-94445944D01*
X132797100Y-94444800D01*
X133372100Y-94444800D01*
X133395379Y-94445944D01*
G37*
G36*
X135145379Y-94445944D02*
G01*
X135168434Y-94449363D01*
X135191043Y-94455027D01*
X135212987Y-94462879D01*
X135234057Y-94472844D01*
X135254048Y-94484826D01*
X135272768Y-94498710D01*
X135290038Y-94514362D01*
X135305690Y-94531632D01*
X135319574Y-94550352D01*
X135331556Y-94570343D01*
X135341521Y-94591413D01*
X135349373Y-94613357D01*
X135355037Y-94635966D01*
X135358456Y-94659021D01*
X135359600Y-94682300D01*
X135359600Y-95157300D01*
X135358456Y-95180579D01*
X135355037Y-95203634D01*
X135349373Y-95226243D01*
X135341521Y-95248187D01*
X135331556Y-95269257D01*
X135319574Y-95289248D01*
X135305690Y-95307968D01*
X135290038Y-95325238D01*
X135272768Y-95340890D01*
X135254048Y-95354774D01*
X135234057Y-95366756D01*
X135212987Y-95376721D01*
X135191043Y-95384573D01*
X135168434Y-95390237D01*
X135145379Y-95393656D01*
X135122100Y-95394800D01*
X134547100Y-95394800D01*
X134523821Y-95393656D01*
X134500766Y-95390237D01*
X134478157Y-95384573D01*
X134456213Y-95376721D01*
X134435143Y-95366756D01*
X134415152Y-95354774D01*
X134396432Y-95340890D01*
X134379162Y-95325238D01*
X134363510Y-95307968D01*
X134349626Y-95289248D01*
X134337644Y-95269257D01*
X134327679Y-95248187D01*
X134319827Y-95226243D01*
X134314163Y-95203634D01*
X134310744Y-95180579D01*
X134309600Y-95157300D01*
X134309600Y-94682300D01*
X134310744Y-94659021D01*
X134314163Y-94635966D01*
X134319827Y-94613357D01*
X134327679Y-94591413D01*
X134337644Y-94570343D01*
X134349626Y-94550352D01*
X134363510Y-94531632D01*
X134379162Y-94514362D01*
X134396432Y-94498710D01*
X134415152Y-94484826D01*
X134435143Y-94472844D01*
X134456213Y-94462879D01*
X134478157Y-94455027D01*
X134500766Y-94449363D01*
X134523821Y-94445944D01*
X134547100Y-94444800D01*
X135122100Y-94444800D01*
X135145379Y-94445944D01*
G37*
G36*
X134309779Y-92896544D02*
G01*
X134332834Y-92899963D01*
X134355443Y-92905627D01*
X134377387Y-92913479D01*
X134398457Y-92923444D01*
X134418448Y-92935426D01*
X134437168Y-92949310D01*
X134454438Y-92964962D01*
X134470090Y-92982232D01*
X134483974Y-93000952D01*
X134495956Y-93020943D01*
X134505921Y-93042013D01*
X134513773Y-93063957D01*
X134519437Y-93086566D01*
X134522856Y-93109621D01*
X134524000Y-93132900D01*
X134524000Y-93607900D01*
X134522856Y-93631179D01*
X134519437Y-93654234D01*
X134513773Y-93676843D01*
X134505921Y-93698787D01*
X134495956Y-93719857D01*
X134483974Y-93739848D01*
X134470090Y-93758568D01*
X134454438Y-93775838D01*
X134437168Y-93791490D01*
X134418448Y-93805374D01*
X134398457Y-93817356D01*
X134377387Y-93827321D01*
X134355443Y-93835173D01*
X134332834Y-93840837D01*
X134309779Y-93844256D01*
X134286500Y-93845400D01*
X133711500Y-93845400D01*
X133688221Y-93844256D01*
X133665166Y-93840837D01*
X133642557Y-93835173D01*
X133620613Y-93827321D01*
X133599543Y-93817356D01*
X133579552Y-93805374D01*
X133560832Y-93791490D01*
X133543562Y-93775838D01*
X133527910Y-93758568D01*
X133514026Y-93739848D01*
X133502044Y-93719857D01*
X133492079Y-93698787D01*
X133484227Y-93676843D01*
X133478563Y-93654234D01*
X133475144Y-93631179D01*
X133474000Y-93607900D01*
X133474000Y-93132900D01*
X133475144Y-93109621D01*
X133478563Y-93086566D01*
X133484227Y-93063957D01*
X133492079Y-93042013D01*
X133502044Y-93020943D01*
X133514026Y-93000952D01*
X133527910Y-92982232D01*
X133543562Y-92964962D01*
X133560832Y-92949310D01*
X133579552Y-92935426D01*
X133599543Y-92923444D01*
X133620613Y-92913479D01*
X133642557Y-92905627D01*
X133665166Y-92899963D01*
X133688221Y-92896544D01*
X133711500Y-92895400D01*
X134286500Y-92895400D01*
X134309779Y-92896544D01*
G37*
G36*
X136059779Y-92896544D02*
G01*
X136082834Y-92899963D01*
X136105443Y-92905627D01*
X136127387Y-92913479D01*
X136148457Y-92923444D01*
X136168448Y-92935426D01*
X136187168Y-92949310D01*
X136204438Y-92964962D01*
X136220090Y-92982232D01*
X136233974Y-93000952D01*
X136245956Y-93020943D01*
X136255921Y-93042013D01*
X136263773Y-93063957D01*
X136269437Y-93086566D01*
X136272856Y-93109621D01*
X136274000Y-93132900D01*
X136274000Y-93607900D01*
X136272856Y-93631179D01*
X136269437Y-93654234D01*
X136263773Y-93676843D01*
X136255921Y-93698787D01*
X136245956Y-93719857D01*
X136233974Y-93739848D01*
X136220090Y-93758568D01*
X136204438Y-93775838D01*
X136187168Y-93791490D01*
X136168448Y-93805374D01*
X136148457Y-93817356D01*
X136127387Y-93827321D01*
X136105443Y-93835173D01*
X136082834Y-93840837D01*
X136059779Y-93844256D01*
X136036500Y-93845400D01*
X135461500Y-93845400D01*
X135438221Y-93844256D01*
X135415166Y-93840837D01*
X135392557Y-93835173D01*
X135370613Y-93827321D01*
X135349543Y-93817356D01*
X135329552Y-93805374D01*
X135310832Y-93791490D01*
X135293562Y-93775838D01*
X135277910Y-93758568D01*
X135264026Y-93739848D01*
X135252044Y-93719857D01*
X135242079Y-93698787D01*
X135234227Y-93676843D01*
X135228563Y-93654234D01*
X135225144Y-93631179D01*
X135224000Y-93607900D01*
X135224000Y-93132900D01*
X135225144Y-93109621D01*
X135228563Y-93086566D01*
X135234227Y-93063957D01*
X135242079Y-93042013D01*
X135252044Y-93020943D01*
X135264026Y-93000952D01*
X135277910Y-92982232D01*
X135293562Y-92964962D01*
X135310832Y-92949310D01*
X135329552Y-92935426D01*
X135349543Y-92923444D01*
X135370613Y-92913479D01*
X135392557Y-92905627D01*
X135415166Y-92899963D01*
X135438221Y-92896544D01*
X135461500Y-92895400D01*
X136036500Y-92895400D01*
X136059779Y-92896544D01*
G37*
G36*
X130059703Y-96350722D02*
G01*
X130074264Y-96352882D01*
X130088543Y-96356459D01*
X130102403Y-96361418D01*
X130115710Y-96367712D01*
X130128336Y-96375280D01*
X130140159Y-96384048D01*
X130151066Y-96393934D01*
X130160952Y-96404841D01*
X130169720Y-96416664D01*
X130177288Y-96429290D01*
X130183582Y-96442597D01*
X130188541Y-96456457D01*
X130192118Y-96470736D01*
X130194278Y-96485297D01*
X130195000Y-96500000D01*
X130195000Y-98150000D01*
X130194278Y-98164703D01*
X130192118Y-98179264D01*
X130188541Y-98193543D01*
X130183582Y-98207403D01*
X130177288Y-98220710D01*
X130169720Y-98233336D01*
X130160952Y-98245159D01*
X130151066Y-98256066D01*
X130140159Y-98265952D01*
X130128336Y-98274720D01*
X130115710Y-98282288D01*
X130102403Y-98288582D01*
X130088543Y-98293541D01*
X130074264Y-98297118D01*
X130059703Y-98299278D01*
X130045000Y-98300000D01*
X129745000Y-98300000D01*
X129730297Y-98299278D01*
X129715736Y-98297118D01*
X129701457Y-98293541D01*
X129687597Y-98288582D01*
X129674290Y-98282288D01*
X129661664Y-98274720D01*
X129649841Y-98265952D01*
X129638934Y-98256066D01*
X129629048Y-98245159D01*
X129620280Y-98233336D01*
X129612712Y-98220710D01*
X129606418Y-98207403D01*
X129601459Y-98193543D01*
X129597882Y-98179264D01*
X129595722Y-98164703D01*
X129595000Y-98150000D01*
X129595000Y-96500000D01*
X129595722Y-96485297D01*
X129597882Y-96470736D01*
X129601459Y-96456457D01*
X129606418Y-96442597D01*
X129612712Y-96429290D01*
X129620280Y-96416664D01*
X129629048Y-96404841D01*
X129638934Y-96393934D01*
X129649841Y-96384048D01*
X129661664Y-96375280D01*
X129674290Y-96367712D01*
X129687597Y-96361418D01*
X129701457Y-96356459D01*
X129715736Y-96352882D01*
X129730297Y-96350722D01*
X129745000Y-96350000D01*
X130045000Y-96350000D01*
X130059703Y-96350722D01*
G37*
G36*
X131329703Y-96350722D02*
G01*
X131344264Y-96352882D01*
X131358543Y-96356459D01*
X131372403Y-96361418D01*
X131385710Y-96367712D01*
X131398336Y-96375280D01*
X131410159Y-96384048D01*
X131421066Y-96393934D01*
X131430952Y-96404841D01*
X131439720Y-96416664D01*
X131447288Y-96429290D01*
X131453582Y-96442597D01*
X131458541Y-96456457D01*
X131462118Y-96470736D01*
X131464278Y-96485297D01*
X131465000Y-96500000D01*
X131465000Y-98150000D01*
X131464278Y-98164703D01*
X131462118Y-98179264D01*
X131458541Y-98193543D01*
X131453582Y-98207403D01*
X131447288Y-98220710D01*
X131439720Y-98233336D01*
X131430952Y-98245159D01*
X131421066Y-98256066D01*
X131410159Y-98265952D01*
X131398336Y-98274720D01*
X131385710Y-98282288D01*
X131372403Y-98288582D01*
X131358543Y-98293541D01*
X131344264Y-98297118D01*
X131329703Y-98299278D01*
X131315000Y-98300000D01*
X131015000Y-98300000D01*
X131000297Y-98299278D01*
X130985736Y-98297118D01*
X130971457Y-98293541D01*
X130957597Y-98288582D01*
X130944290Y-98282288D01*
X130931664Y-98274720D01*
X130919841Y-98265952D01*
X130908934Y-98256066D01*
X130899048Y-98245159D01*
X130890280Y-98233336D01*
X130882712Y-98220710D01*
X130876418Y-98207403D01*
X130871459Y-98193543D01*
X130867882Y-98179264D01*
X130865722Y-98164703D01*
X130865000Y-98150000D01*
X130865000Y-96500000D01*
X130865722Y-96485297D01*
X130867882Y-96470736D01*
X130871459Y-96456457D01*
X130876418Y-96442597D01*
X130882712Y-96429290D01*
X130890280Y-96416664D01*
X130899048Y-96404841D01*
X130908934Y-96393934D01*
X130919841Y-96384048D01*
X130931664Y-96375280D01*
X130944290Y-96367712D01*
X130957597Y-96361418D01*
X130971457Y-96356459D01*
X130985736Y-96352882D01*
X131000297Y-96350722D01*
X131015000Y-96350000D01*
X131315000Y-96350000D01*
X131329703Y-96350722D01*
G37*
G36*
X132599703Y-96350722D02*
G01*
X132614264Y-96352882D01*
X132628543Y-96356459D01*
X132642403Y-96361418D01*
X132655710Y-96367712D01*
X132668336Y-96375280D01*
X132680159Y-96384048D01*
X132691066Y-96393934D01*
X132700952Y-96404841D01*
X132709720Y-96416664D01*
X132717288Y-96429290D01*
X132723582Y-96442597D01*
X132728541Y-96456457D01*
X132732118Y-96470736D01*
X132734278Y-96485297D01*
X132735000Y-96500000D01*
X132735000Y-98150000D01*
X132734278Y-98164703D01*
X132732118Y-98179264D01*
X132728541Y-98193543D01*
X132723582Y-98207403D01*
X132717288Y-98220710D01*
X132709720Y-98233336D01*
X132700952Y-98245159D01*
X132691066Y-98256066D01*
X132680159Y-98265952D01*
X132668336Y-98274720D01*
X132655710Y-98282288D01*
X132642403Y-98288582D01*
X132628543Y-98293541D01*
X132614264Y-98297118D01*
X132599703Y-98299278D01*
X132585000Y-98300000D01*
X132285000Y-98300000D01*
X132270297Y-98299278D01*
X132255736Y-98297118D01*
X132241457Y-98293541D01*
X132227597Y-98288582D01*
X132214290Y-98282288D01*
X132201664Y-98274720D01*
X132189841Y-98265952D01*
X132178934Y-98256066D01*
X132169048Y-98245159D01*
X132160280Y-98233336D01*
X132152712Y-98220710D01*
X132146418Y-98207403D01*
X132141459Y-98193543D01*
X132137882Y-98179264D01*
X132135722Y-98164703D01*
X132135000Y-98150000D01*
X132135000Y-96500000D01*
X132135722Y-96485297D01*
X132137882Y-96470736D01*
X132141459Y-96456457D01*
X132146418Y-96442597D01*
X132152712Y-96429290D01*
X132160280Y-96416664D01*
X132169048Y-96404841D01*
X132178934Y-96393934D01*
X132189841Y-96384048D01*
X132201664Y-96375280D01*
X132214290Y-96367712D01*
X132227597Y-96361418D01*
X132241457Y-96356459D01*
X132255736Y-96352882D01*
X132270297Y-96350722D01*
X132285000Y-96350000D01*
X132585000Y-96350000D01*
X132599703Y-96350722D01*
G37*
G36*
X133869703Y-96350722D02*
G01*
X133884264Y-96352882D01*
X133898543Y-96356459D01*
X133912403Y-96361418D01*
X133925710Y-96367712D01*
X133938336Y-96375280D01*
X133950159Y-96384048D01*
X133961066Y-96393934D01*
X133970952Y-96404841D01*
X133979720Y-96416664D01*
X133987288Y-96429290D01*
X133993582Y-96442597D01*
X133998541Y-96456457D01*
X134002118Y-96470736D01*
X134004278Y-96485297D01*
X134005000Y-96500000D01*
X134005000Y-98150000D01*
X134004278Y-98164703D01*
X134002118Y-98179264D01*
X133998541Y-98193543D01*
X133993582Y-98207403D01*
X133987288Y-98220710D01*
X133979720Y-98233336D01*
X133970952Y-98245159D01*
X133961066Y-98256066D01*
X133950159Y-98265952D01*
X133938336Y-98274720D01*
X133925710Y-98282288D01*
X133912403Y-98288582D01*
X133898543Y-98293541D01*
X133884264Y-98297118D01*
X133869703Y-98299278D01*
X133855000Y-98300000D01*
X133555000Y-98300000D01*
X133540297Y-98299278D01*
X133525736Y-98297118D01*
X133511457Y-98293541D01*
X133497597Y-98288582D01*
X133484290Y-98282288D01*
X133471664Y-98274720D01*
X133459841Y-98265952D01*
X133448934Y-98256066D01*
X133439048Y-98245159D01*
X133430280Y-98233336D01*
X133422712Y-98220710D01*
X133416418Y-98207403D01*
X133411459Y-98193543D01*
X133407882Y-98179264D01*
X133405722Y-98164703D01*
X133405000Y-98150000D01*
X133405000Y-96500000D01*
X133405722Y-96485297D01*
X133407882Y-96470736D01*
X133411459Y-96456457D01*
X133416418Y-96442597D01*
X133422712Y-96429290D01*
X133430280Y-96416664D01*
X133439048Y-96404841D01*
X133448934Y-96393934D01*
X133459841Y-96384048D01*
X133471664Y-96375280D01*
X133484290Y-96367712D01*
X133497597Y-96361418D01*
X133511457Y-96356459D01*
X133525736Y-96352882D01*
X133540297Y-96350722D01*
X133555000Y-96350000D01*
X133855000Y-96350000D01*
X133869703Y-96350722D01*
G37*
G36*
X133869703Y-101300722D02*
G01*
X133884264Y-101302882D01*
X133898543Y-101306459D01*
X133912403Y-101311418D01*
X133925710Y-101317712D01*
X133938336Y-101325280D01*
X133950159Y-101334048D01*
X133961066Y-101343934D01*
X133970952Y-101354841D01*
X133979720Y-101366664D01*
X133987288Y-101379290D01*
X133993582Y-101392597D01*
X133998541Y-101406457D01*
X134002118Y-101420736D01*
X134004278Y-101435297D01*
X134005000Y-101450000D01*
X134005000Y-103100000D01*
X134004278Y-103114703D01*
X134002118Y-103129264D01*
X133998541Y-103143543D01*
X133993582Y-103157403D01*
X133987288Y-103170710D01*
X133979720Y-103183336D01*
X133970952Y-103195159D01*
X133961066Y-103206066D01*
X133950159Y-103215952D01*
X133938336Y-103224720D01*
X133925710Y-103232288D01*
X133912403Y-103238582D01*
X133898543Y-103243541D01*
X133884264Y-103247118D01*
X133869703Y-103249278D01*
X133855000Y-103250000D01*
X133555000Y-103250000D01*
X133540297Y-103249278D01*
X133525736Y-103247118D01*
X133511457Y-103243541D01*
X133497597Y-103238582D01*
X133484290Y-103232288D01*
X133471664Y-103224720D01*
X133459841Y-103215952D01*
X133448934Y-103206066D01*
X133439048Y-103195159D01*
X133430280Y-103183336D01*
X133422712Y-103170710D01*
X133416418Y-103157403D01*
X133411459Y-103143543D01*
X133407882Y-103129264D01*
X133405722Y-103114703D01*
X133405000Y-103100000D01*
X133405000Y-101450000D01*
X133405722Y-101435297D01*
X133407882Y-101420736D01*
X133411459Y-101406457D01*
X133416418Y-101392597D01*
X133422712Y-101379290D01*
X133430280Y-101366664D01*
X133439048Y-101354841D01*
X133448934Y-101343934D01*
X133459841Y-101334048D01*
X133471664Y-101325280D01*
X133484290Y-101317712D01*
X133497597Y-101311418D01*
X133511457Y-101306459D01*
X133525736Y-101302882D01*
X133540297Y-101300722D01*
X133555000Y-101300000D01*
X133855000Y-101300000D01*
X133869703Y-101300722D01*
G37*
G36*
X132599703Y-101300722D02*
G01*
X132614264Y-101302882D01*
X132628543Y-101306459D01*
X132642403Y-101311418D01*
X132655710Y-101317712D01*
X132668336Y-101325280D01*
X132680159Y-101334048D01*
X132691066Y-101343934D01*
X132700952Y-101354841D01*
X132709720Y-101366664D01*
X132717288Y-101379290D01*
X132723582Y-101392597D01*
X132728541Y-101406457D01*
X132732118Y-101420736D01*
X132734278Y-101435297D01*
X132735000Y-101450000D01*
X132735000Y-103100000D01*
X132734278Y-103114703D01*
X132732118Y-103129264D01*
X132728541Y-103143543D01*
X132723582Y-103157403D01*
X132717288Y-103170710D01*
X132709720Y-103183336D01*
X132700952Y-103195159D01*
X132691066Y-103206066D01*
X132680159Y-103215952D01*
X132668336Y-103224720D01*
X132655710Y-103232288D01*
X132642403Y-103238582D01*
X132628543Y-103243541D01*
X132614264Y-103247118D01*
X132599703Y-103249278D01*
X132585000Y-103250000D01*
X132285000Y-103250000D01*
X132270297Y-103249278D01*
X132255736Y-103247118D01*
X132241457Y-103243541D01*
X132227597Y-103238582D01*
X132214290Y-103232288D01*
X132201664Y-103224720D01*
X132189841Y-103215952D01*
X132178934Y-103206066D01*
X132169048Y-103195159D01*
X132160280Y-103183336D01*
X132152712Y-103170710D01*
X132146418Y-103157403D01*
X132141459Y-103143543D01*
X132137882Y-103129264D01*
X132135722Y-103114703D01*
X132135000Y-103100000D01*
X132135000Y-101450000D01*
X132135722Y-101435297D01*
X132137882Y-101420736D01*
X132141459Y-101406457D01*
X132146418Y-101392597D01*
X132152712Y-101379290D01*
X132160280Y-101366664D01*
X132169048Y-101354841D01*
X132178934Y-101343934D01*
X132189841Y-101334048D01*
X132201664Y-101325280D01*
X132214290Y-101317712D01*
X132227597Y-101311418D01*
X132241457Y-101306459D01*
X132255736Y-101302882D01*
X132270297Y-101300722D01*
X132285000Y-101300000D01*
X132585000Y-101300000D01*
X132599703Y-101300722D01*
G37*
G36*
X131329703Y-101300722D02*
G01*
X131344264Y-101302882D01*
X131358543Y-101306459D01*
X131372403Y-101311418D01*
X131385710Y-101317712D01*
X131398336Y-101325280D01*
X131410159Y-101334048D01*
X131421066Y-101343934D01*
X131430952Y-101354841D01*
X131439720Y-101366664D01*
X131447288Y-101379290D01*
X131453582Y-101392597D01*
X131458541Y-101406457D01*
X131462118Y-101420736D01*
X131464278Y-101435297D01*
X131465000Y-101450000D01*
X131465000Y-103100000D01*
X131464278Y-103114703D01*
X131462118Y-103129264D01*
X131458541Y-103143543D01*
X131453582Y-103157403D01*
X131447288Y-103170710D01*
X131439720Y-103183336D01*
X131430952Y-103195159D01*
X131421066Y-103206066D01*
X131410159Y-103215952D01*
X131398336Y-103224720D01*
X131385710Y-103232288D01*
X131372403Y-103238582D01*
X131358543Y-103243541D01*
X131344264Y-103247118D01*
X131329703Y-103249278D01*
X131315000Y-103250000D01*
X131015000Y-103250000D01*
X131000297Y-103249278D01*
X130985736Y-103247118D01*
X130971457Y-103243541D01*
X130957597Y-103238582D01*
X130944290Y-103232288D01*
X130931664Y-103224720D01*
X130919841Y-103215952D01*
X130908934Y-103206066D01*
X130899048Y-103195159D01*
X130890280Y-103183336D01*
X130882712Y-103170710D01*
X130876418Y-103157403D01*
X130871459Y-103143543D01*
X130867882Y-103129264D01*
X130865722Y-103114703D01*
X130865000Y-103100000D01*
X130865000Y-101450000D01*
X130865722Y-101435297D01*
X130867882Y-101420736D01*
X130871459Y-101406457D01*
X130876418Y-101392597D01*
X130882712Y-101379290D01*
X130890280Y-101366664D01*
X130899048Y-101354841D01*
X130908934Y-101343934D01*
X130919841Y-101334048D01*
X130931664Y-101325280D01*
X130944290Y-101317712D01*
X130957597Y-101311418D01*
X130971457Y-101306459D01*
X130985736Y-101302882D01*
X131000297Y-101300722D01*
X131015000Y-101300000D01*
X131315000Y-101300000D01*
X131329703Y-101300722D01*
G37*
G36*
X130059703Y-101300722D02*
G01*
X130074264Y-101302882D01*
X130088543Y-101306459D01*
X130102403Y-101311418D01*
X130115710Y-101317712D01*
X130128336Y-101325280D01*
X130140159Y-101334048D01*
X130151066Y-101343934D01*
X130160952Y-101354841D01*
X130169720Y-101366664D01*
X130177288Y-101379290D01*
X130183582Y-101392597D01*
X130188541Y-101406457D01*
X130192118Y-101420736D01*
X130194278Y-101435297D01*
X130195000Y-101450000D01*
X130195000Y-103100000D01*
X130194278Y-103114703D01*
X130192118Y-103129264D01*
X130188541Y-103143543D01*
X130183582Y-103157403D01*
X130177288Y-103170710D01*
X130169720Y-103183336D01*
X130160952Y-103195159D01*
X130151066Y-103206066D01*
X130140159Y-103215952D01*
X130128336Y-103224720D01*
X130115710Y-103232288D01*
X130102403Y-103238582D01*
X130088543Y-103243541D01*
X130074264Y-103247118D01*
X130059703Y-103249278D01*
X130045000Y-103250000D01*
X129745000Y-103250000D01*
X129730297Y-103249278D01*
X129715736Y-103247118D01*
X129701457Y-103243541D01*
X129687597Y-103238582D01*
X129674290Y-103232288D01*
X129661664Y-103224720D01*
X129649841Y-103215952D01*
X129638934Y-103206066D01*
X129629048Y-103195159D01*
X129620280Y-103183336D01*
X129612712Y-103170710D01*
X129606418Y-103157403D01*
X129601459Y-103143543D01*
X129597882Y-103129264D01*
X129595722Y-103114703D01*
X129595000Y-103100000D01*
X129595000Y-101450000D01*
X129595722Y-101435297D01*
X129597882Y-101420736D01*
X129601459Y-101406457D01*
X129606418Y-101392597D01*
X129612712Y-101379290D01*
X129620280Y-101366664D01*
X129629048Y-101354841D01*
X129638934Y-101343934D01*
X129649841Y-101334048D01*
X129661664Y-101325280D01*
X129674290Y-101317712D01*
X129687597Y-101311418D01*
X129701457Y-101306459D01*
X129715736Y-101302882D01*
X129730297Y-101300722D01*
X129745000Y-101300000D01*
X130045000Y-101300000D01*
X130059703Y-101300722D01*
G37*
D17*
X138550000Y-76700000D03*
X137600000Y-76700000D03*
X136650000Y-76700000D03*
X136650000Y-78900000D03*
X138550000Y-78900000D03*
D11*
G36*
X135460779Y-80101144D02*
G01*
X135483834Y-80104563D01*
X135506443Y-80110227D01*
X135528387Y-80118079D01*
X135549457Y-80128044D01*
X135569448Y-80140026D01*
X135588168Y-80153910D01*
X135605438Y-80169562D01*
X135621090Y-80186832D01*
X135634974Y-80205552D01*
X135646956Y-80225543D01*
X135656921Y-80246613D01*
X135664773Y-80268557D01*
X135670437Y-80291166D01*
X135673856Y-80314221D01*
X135675000Y-80337500D01*
X135675000Y-80912500D01*
X135673856Y-80935779D01*
X135670437Y-80958834D01*
X135664773Y-80981443D01*
X135656921Y-81003387D01*
X135646956Y-81024457D01*
X135634974Y-81044448D01*
X135621090Y-81063168D01*
X135605438Y-81080438D01*
X135588168Y-81096090D01*
X135569448Y-81109974D01*
X135549457Y-81121956D01*
X135528387Y-81131921D01*
X135506443Y-81139773D01*
X135483834Y-81145437D01*
X135460779Y-81148856D01*
X135437500Y-81150000D01*
X134962500Y-81150000D01*
X134939221Y-81148856D01*
X134916166Y-81145437D01*
X134893557Y-81139773D01*
X134871613Y-81131921D01*
X134850543Y-81121956D01*
X134830552Y-81109974D01*
X134811832Y-81096090D01*
X134794562Y-81080438D01*
X134778910Y-81063168D01*
X134765026Y-81044448D01*
X134753044Y-81024457D01*
X134743079Y-81003387D01*
X134735227Y-80981443D01*
X134729563Y-80958834D01*
X134726144Y-80935779D01*
X134725000Y-80912500D01*
X134725000Y-80337500D01*
X134726144Y-80314221D01*
X134729563Y-80291166D01*
X134735227Y-80268557D01*
X134743079Y-80246613D01*
X134753044Y-80225543D01*
X134765026Y-80205552D01*
X134778910Y-80186832D01*
X134794562Y-80169562D01*
X134811832Y-80153910D01*
X134830552Y-80140026D01*
X134850543Y-80128044D01*
X134871613Y-80118079D01*
X134893557Y-80110227D01*
X134916166Y-80104563D01*
X134939221Y-80101144D01*
X134962500Y-80100000D01*
X135437500Y-80100000D01*
X135460779Y-80101144D01*
G37*
G36*
X135460779Y-81851144D02*
G01*
X135483834Y-81854563D01*
X135506443Y-81860227D01*
X135528387Y-81868079D01*
X135549457Y-81878044D01*
X135569448Y-81890026D01*
X135588168Y-81903910D01*
X135605438Y-81919562D01*
X135621090Y-81936832D01*
X135634974Y-81955552D01*
X135646956Y-81975543D01*
X135656921Y-81996613D01*
X135664773Y-82018557D01*
X135670437Y-82041166D01*
X135673856Y-82064221D01*
X135675000Y-82087500D01*
X135675000Y-82662500D01*
X135673856Y-82685779D01*
X135670437Y-82708834D01*
X135664773Y-82731443D01*
X135656921Y-82753387D01*
X135646956Y-82774457D01*
X135634974Y-82794448D01*
X135621090Y-82813168D01*
X135605438Y-82830438D01*
X135588168Y-82846090D01*
X135569448Y-82859974D01*
X135549457Y-82871956D01*
X135528387Y-82881921D01*
X135506443Y-82889773D01*
X135483834Y-82895437D01*
X135460779Y-82898856D01*
X135437500Y-82900000D01*
X134962500Y-82900000D01*
X134939221Y-82898856D01*
X134916166Y-82895437D01*
X134893557Y-82889773D01*
X134871613Y-82881921D01*
X134850543Y-82871956D01*
X134830552Y-82859974D01*
X134811832Y-82846090D01*
X134794562Y-82830438D01*
X134778910Y-82813168D01*
X134765026Y-82794448D01*
X134753044Y-82774457D01*
X134743079Y-82753387D01*
X134735227Y-82731443D01*
X134729563Y-82708834D01*
X134726144Y-82685779D01*
X134725000Y-82662500D01*
X134725000Y-82087500D01*
X134726144Y-82064221D01*
X134729563Y-82041166D01*
X134735227Y-82018557D01*
X134743079Y-81996613D01*
X134753044Y-81975543D01*
X134765026Y-81955552D01*
X134778910Y-81936832D01*
X134794562Y-81919562D01*
X134811832Y-81903910D01*
X134830552Y-81890026D01*
X134850543Y-81878044D01*
X134871613Y-81868079D01*
X134893557Y-81860227D01*
X134916166Y-81854563D01*
X134939221Y-81851144D01*
X134962500Y-81850000D01*
X135437500Y-81850000D01*
X135460779Y-81851144D01*
G37*
G36*
X138285779Y-74426144D02*
G01*
X138308834Y-74429563D01*
X138331443Y-74435227D01*
X138353387Y-74443079D01*
X138374457Y-74453044D01*
X138394448Y-74465026D01*
X138413168Y-74478910D01*
X138430438Y-74494562D01*
X138446090Y-74511832D01*
X138459974Y-74530552D01*
X138471956Y-74550543D01*
X138481921Y-74571613D01*
X138489773Y-74593557D01*
X138495437Y-74616166D01*
X138498856Y-74639221D01*
X138500000Y-74662500D01*
X138500000Y-75137500D01*
X138498856Y-75160779D01*
X138495437Y-75183834D01*
X138489773Y-75206443D01*
X138481921Y-75228387D01*
X138471956Y-75249457D01*
X138459974Y-75269448D01*
X138446090Y-75288168D01*
X138430438Y-75305438D01*
X138413168Y-75321090D01*
X138394448Y-75334974D01*
X138374457Y-75346956D01*
X138353387Y-75356921D01*
X138331443Y-75364773D01*
X138308834Y-75370437D01*
X138285779Y-75373856D01*
X138262500Y-75375000D01*
X137687500Y-75375000D01*
X137664221Y-75373856D01*
X137641166Y-75370437D01*
X137618557Y-75364773D01*
X137596613Y-75356921D01*
X137575543Y-75346956D01*
X137555552Y-75334974D01*
X137536832Y-75321090D01*
X137519562Y-75305438D01*
X137503910Y-75288168D01*
X137490026Y-75269448D01*
X137478044Y-75249457D01*
X137468079Y-75228387D01*
X137460227Y-75206443D01*
X137454563Y-75183834D01*
X137451144Y-75160779D01*
X137450000Y-75137500D01*
X137450000Y-74662500D01*
X137451144Y-74639221D01*
X137454563Y-74616166D01*
X137460227Y-74593557D01*
X137468079Y-74571613D01*
X137478044Y-74550543D01*
X137490026Y-74530552D01*
X137503910Y-74511832D01*
X137519562Y-74494562D01*
X137536832Y-74478910D01*
X137555552Y-74465026D01*
X137575543Y-74453044D01*
X137596613Y-74443079D01*
X137618557Y-74435227D01*
X137641166Y-74429563D01*
X137664221Y-74426144D01*
X137687500Y-74425000D01*
X138262500Y-74425000D01*
X138285779Y-74426144D01*
G37*
G36*
X136535779Y-74426144D02*
G01*
X136558834Y-74429563D01*
X136581443Y-74435227D01*
X136603387Y-74443079D01*
X136624457Y-74453044D01*
X136644448Y-74465026D01*
X136663168Y-74478910D01*
X136680438Y-74494562D01*
X136696090Y-74511832D01*
X136709974Y-74530552D01*
X136721956Y-74550543D01*
X136731921Y-74571613D01*
X136739773Y-74593557D01*
X136745437Y-74616166D01*
X136748856Y-74639221D01*
X136750000Y-74662500D01*
X136750000Y-75137500D01*
X136748856Y-75160779D01*
X136745437Y-75183834D01*
X136739773Y-75206443D01*
X136731921Y-75228387D01*
X136721956Y-75249457D01*
X136709974Y-75269448D01*
X136696090Y-75288168D01*
X136680438Y-75305438D01*
X136663168Y-75321090D01*
X136644448Y-75334974D01*
X136624457Y-75346956D01*
X136603387Y-75356921D01*
X136581443Y-75364773D01*
X136558834Y-75370437D01*
X136535779Y-75373856D01*
X136512500Y-75375000D01*
X135937500Y-75375000D01*
X135914221Y-75373856D01*
X135891166Y-75370437D01*
X135868557Y-75364773D01*
X135846613Y-75356921D01*
X135825543Y-75346956D01*
X135805552Y-75334974D01*
X135786832Y-75321090D01*
X135769562Y-75305438D01*
X135753910Y-75288168D01*
X135740026Y-75269448D01*
X135728044Y-75249457D01*
X135718079Y-75228387D01*
X135710227Y-75206443D01*
X135704563Y-75183834D01*
X135701144Y-75160779D01*
X135700000Y-75137500D01*
X135700000Y-74662500D01*
X135701144Y-74639221D01*
X135704563Y-74616166D01*
X135710227Y-74593557D01*
X135718079Y-74571613D01*
X135728044Y-74550543D01*
X135740026Y-74530552D01*
X135753910Y-74511832D01*
X135769562Y-74494562D01*
X135786832Y-74478910D01*
X135805552Y-74465026D01*
X135825543Y-74453044D01*
X135846613Y-74443079D01*
X135868557Y-74435227D01*
X135891166Y-74429563D01*
X135914221Y-74426144D01*
X135937500Y-74425000D01*
X136512500Y-74425000D01*
X136535779Y-74426144D01*
G37*
D18*
X156050000Y-77515000D03*
X157950000Y-77515000D03*
X157950000Y-79885000D03*
X157000000Y-79885000D03*
X156050000Y-79885000D03*
D19*
X147390000Y-77350000D03*
X147390000Y-76400000D03*
X147390000Y-75450000D03*
X150010000Y-75450000D03*
X150010000Y-76400000D03*
X150010000Y-77350000D03*
D11*
G36*
X154660779Y-79551144D02*
G01*
X154683834Y-79554563D01*
X154706443Y-79560227D01*
X154728387Y-79568079D01*
X154749457Y-79578044D01*
X154769448Y-79590026D01*
X154788168Y-79603910D01*
X154805438Y-79619562D01*
X154821090Y-79636832D01*
X154834974Y-79655552D01*
X154846956Y-79675543D01*
X154856921Y-79696613D01*
X154864773Y-79718557D01*
X154870437Y-79741166D01*
X154873856Y-79764221D01*
X154875000Y-79787500D01*
X154875000Y-80362500D01*
X154873856Y-80385779D01*
X154870437Y-80408834D01*
X154864773Y-80431443D01*
X154856921Y-80453387D01*
X154846956Y-80474457D01*
X154834974Y-80494448D01*
X154821090Y-80513168D01*
X154805438Y-80530438D01*
X154788168Y-80546090D01*
X154769448Y-80559974D01*
X154749457Y-80571956D01*
X154728387Y-80581921D01*
X154706443Y-80589773D01*
X154683834Y-80595437D01*
X154660779Y-80598856D01*
X154637500Y-80600000D01*
X154162500Y-80600000D01*
X154139221Y-80598856D01*
X154116166Y-80595437D01*
X154093557Y-80589773D01*
X154071613Y-80581921D01*
X154050543Y-80571956D01*
X154030552Y-80559974D01*
X154011832Y-80546090D01*
X153994562Y-80530438D01*
X153978910Y-80513168D01*
X153965026Y-80494448D01*
X153953044Y-80474457D01*
X153943079Y-80453387D01*
X153935227Y-80431443D01*
X153929563Y-80408834D01*
X153926144Y-80385779D01*
X153925000Y-80362500D01*
X153925000Y-79787500D01*
X153926144Y-79764221D01*
X153929563Y-79741166D01*
X153935227Y-79718557D01*
X153943079Y-79696613D01*
X153953044Y-79675543D01*
X153965026Y-79655552D01*
X153978910Y-79636832D01*
X153994562Y-79619562D01*
X154011832Y-79603910D01*
X154030552Y-79590026D01*
X154050543Y-79578044D01*
X154071613Y-79568079D01*
X154093557Y-79560227D01*
X154116166Y-79554563D01*
X154139221Y-79551144D01*
X154162500Y-79550000D01*
X154637500Y-79550000D01*
X154660779Y-79551144D01*
G37*
G36*
X154660779Y-77801144D02*
G01*
X154683834Y-77804563D01*
X154706443Y-77810227D01*
X154728387Y-77818079D01*
X154749457Y-77828044D01*
X154769448Y-77840026D01*
X154788168Y-77853910D01*
X154805438Y-77869562D01*
X154821090Y-77886832D01*
X154834974Y-77905552D01*
X154846956Y-77925543D01*
X154856921Y-77946613D01*
X154864773Y-77968557D01*
X154870437Y-77991166D01*
X154873856Y-78014221D01*
X154875000Y-78037500D01*
X154875000Y-78612500D01*
X154873856Y-78635779D01*
X154870437Y-78658834D01*
X154864773Y-78681443D01*
X154856921Y-78703387D01*
X154846956Y-78724457D01*
X154834974Y-78744448D01*
X154821090Y-78763168D01*
X154805438Y-78780438D01*
X154788168Y-78796090D01*
X154769448Y-78809974D01*
X154749457Y-78821956D01*
X154728387Y-78831921D01*
X154706443Y-78839773D01*
X154683834Y-78845437D01*
X154660779Y-78848856D01*
X154637500Y-78850000D01*
X154162500Y-78850000D01*
X154139221Y-78848856D01*
X154116166Y-78845437D01*
X154093557Y-78839773D01*
X154071613Y-78831921D01*
X154050543Y-78821956D01*
X154030552Y-78809974D01*
X154011832Y-78796090D01*
X153994562Y-78780438D01*
X153978910Y-78763168D01*
X153965026Y-78744448D01*
X153953044Y-78724457D01*
X153943079Y-78703387D01*
X153935227Y-78681443D01*
X153929563Y-78658834D01*
X153926144Y-78635779D01*
X153925000Y-78612500D01*
X153925000Y-78037500D01*
X153926144Y-78014221D01*
X153929563Y-77991166D01*
X153935227Y-77968557D01*
X153943079Y-77946613D01*
X153953044Y-77925543D01*
X153965026Y-77905552D01*
X153978910Y-77886832D01*
X153994562Y-77869562D01*
X154011832Y-77853910D01*
X154030552Y-77840026D01*
X154050543Y-77828044D01*
X154071613Y-77818079D01*
X154093557Y-77810227D01*
X154116166Y-77804563D01*
X154139221Y-77801144D01*
X154162500Y-77800000D01*
X154637500Y-77800000D01*
X154660779Y-77801144D01*
G37*
G36*
X144185779Y-74326144D02*
G01*
X144208834Y-74329563D01*
X144231443Y-74335227D01*
X144253387Y-74343079D01*
X144274457Y-74353044D01*
X144294448Y-74365026D01*
X144313168Y-74378910D01*
X144330438Y-74394562D01*
X144346090Y-74411832D01*
X144359974Y-74430552D01*
X144371956Y-74450543D01*
X144381921Y-74471613D01*
X144389773Y-74493557D01*
X144395437Y-74516166D01*
X144398856Y-74539221D01*
X144400000Y-74562500D01*
X144400000Y-75037500D01*
X144398856Y-75060779D01*
X144395437Y-75083834D01*
X144389773Y-75106443D01*
X144381921Y-75128387D01*
X144371956Y-75149457D01*
X144359974Y-75169448D01*
X144346090Y-75188168D01*
X144330438Y-75205438D01*
X144313168Y-75221090D01*
X144294448Y-75234974D01*
X144274457Y-75246956D01*
X144253387Y-75256921D01*
X144231443Y-75264773D01*
X144208834Y-75270437D01*
X144185779Y-75273856D01*
X144162500Y-75275000D01*
X143587500Y-75275000D01*
X143564221Y-75273856D01*
X143541166Y-75270437D01*
X143518557Y-75264773D01*
X143496613Y-75256921D01*
X143475543Y-75246956D01*
X143455552Y-75234974D01*
X143436832Y-75221090D01*
X143419562Y-75205438D01*
X143403910Y-75188168D01*
X143390026Y-75169448D01*
X143378044Y-75149457D01*
X143368079Y-75128387D01*
X143360227Y-75106443D01*
X143354563Y-75083834D01*
X143351144Y-75060779D01*
X143350000Y-75037500D01*
X143350000Y-74562500D01*
X143351144Y-74539221D01*
X143354563Y-74516166D01*
X143360227Y-74493557D01*
X143368079Y-74471613D01*
X143378044Y-74450543D01*
X143390026Y-74430552D01*
X143403910Y-74411832D01*
X143419562Y-74394562D01*
X143436832Y-74378910D01*
X143455552Y-74365026D01*
X143475543Y-74353044D01*
X143496613Y-74343079D01*
X143518557Y-74335227D01*
X143541166Y-74329563D01*
X143564221Y-74326144D01*
X143587500Y-74325000D01*
X144162500Y-74325000D01*
X144185779Y-74326144D01*
G37*
G36*
X142435779Y-74326144D02*
G01*
X142458834Y-74329563D01*
X142481443Y-74335227D01*
X142503387Y-74343079D01*
X142524457Y-74353044D01*
X142544448Y-74365026D01*
X142563168Y-74378910D01*
X142580438Y-74394562D01*
X142596090Y-74411832D01*
X142609974Y-74430552D01*
X142621956Y-74450543D01*
X142631921Y-74471613D01*
X142639773Y-74493557D01*
X142645437Y-74516166D01*
X142648856Y-74539221D01*
X142650000Y-74562500D01*
X142650000Y-75037500D01*
X142648856Y-75060779D01*
X142645437Y-75083834D01*
X142639773Y-75106443D01*
X142631921Y-75128387D01*
X142621956Y-75149457D01*
X142609974Y-75169448D01*
X142596090Y-75188168D01*
X142580438Y-75205438D01*
X142563168Y-75221090D01*
X142544448Y-75234974D01*
X142524457Y-75246956D01*
X142503387Y-75256921D01*
X142481443Y-75264773D01*
X142458834Y-75270437D01*
X142435779Y-75273856D01*
X142412500Y-75275000D01*
X141837500Y-75275000D01*
X141814221Y-75273856D01*
X141791166Y-75270437D01*
X141768557Y-75264773D01*
X141746613Y-75256921D01*
X141725543Y-75246956D01*
X141705552Y-75234974D01*
X141686832Y-75221090D01*
X141669562Y-75205438D01*
X141653910Y-75188168D01*
X141640026Y-75169448D01*
X141628044Y-75149457D01*
X141618079Y-75128387D01*
X141610227Y-75106443D01*
X141604563Y-75083834D01*
X141601144Y-75060779D01*
X141600000Y-75037500D01*
X141600000Y-74562500D01*
X141601144Y-74539221D01*
X141604563Y-74516166D01*
X141610227Y-74493557D01*
X141618079Y-74471613D01*
X141628044Y-74450543D01*
X141640026Y-74430552D01*
X141653910Y-74411832D01*
X141669562Y-74394562D01*
X141686832Y-74378910D01*
X141705552Y-74365026D01*
X141725543Y-74353044D01*
X141746613Y-74343079D01*
X141768557Y-74335227D01*
X141791166Y-74329563D01*
X141814221Y-74326144D01*
X141837500Y-74325000D01*
X142412500Y-74325000D01*
X142435779Y-74326144D01*
G37*
G36*
X147324679Y-79942544D02*
G01*
X147347734Y-79945963D01*
X147370343Y-79951627D01*
X147392287Y-79959479D01*
X147413357Y-79969444D01*
X147433348Y-79981426D01*
X147452068Y-79995310D01*
X147469338Y-80010962D01*
X147484990Y-80028232D01*
X147498874Y-80046952D01*
X147510856Y-80066943D01*
X147520821Y-80088013D01*
X147528673Y-80109957D01*
X147534337Y-80132566D01*
X147537756Y-80155621D01*
X147538900Y-80178900D01*
X147538900Y-80653900D01*
X147537756Y-80677179D01*
X147534337Y-80700234D01*
X147528673Y-80722843D01*
X147520821Y-80744787D01*
X147510856Y-80765857D01*
X147498874Y-80785848D01*
X147484990Y-80804568D01*
X147469338Y-80821838D01*
X147452068Y-80837490D01*
X147433348Y-80851374D01*
X147413357Y-80863356D01*
X147392287Y-80873321D01*
X147370343Y-80881173D01*
X147347734Y-80886837D01*
X147324679Y-80890256D01*
X147301400Y-80891400D01*
X146726400Y-80891400D01*
X146703121Y-80890256D01*
X146680066Y-80886837D01*
X146657457Y-80881173D01*
X146635513Y-80873321D01*
X146614443Y-80863356D01*
X146594452Y-80851374D01*
X146575732Y-80837490D01*
X146558462Y-80821838D01*
X146542810Y-80804568D01*
X146528926Y-80785848D01*
X146516944Y-80765857D01*
X146506979Y-80744787D01*
X146499127Y-80722843D01*
X146493463Y-80700234D01*
X146490044Y-80677179D01*
X146488900Y-80653900D01*
X146488900Y-80178900D01*
X146490044Y-80155621D01*
X146493463Y-80132566D01*
X146499127Y-80109957D01*
X146506979Y-80088013D01*
X146516944Y-80066943D01*
X146528926Y-80046952D01*
X146542810Y-80028232D01*
X146558462Y-80010962D01*
X146575732Y-79995310D01*
X146594452Y-79981426D01*
X146614443Y-79969444D01*
X146635513Y-79959479D01*
X146657457Y-79951627D01*
X146680066Y-79945963D01*
X146703121Y-79942544D01*
X146726400Y-79941400D01*
X147301400Y-79941400D01*
X147324679Y-79942544D01*
G37*
G36*
X145574679Y-79942544D02*
G01*
X145597734Y-79945963D01*
X145620343Y-79951627D01*
X145642287Y-79959479D01*
X145663357Y-79969444D01*
X145683348Y-79981426D01*
X145702068Y-79995310D01*
X145719338Y-80010962D01*
X145734990Y-80028232D01*
X145748874Y-80046952D01*
X145760856Y-80066943D01*
X145770821Y-80088013D01*
X145778673Y-80109957D01*
X145784337Y-80132566D01*
X145787756Y-80155621D01*
X145788900Y-80178900D01*
X145788900Y-80653900D01*
X145787756Y-80677179D01*
X145784337Y-80700234D01*
X145778673Y-80722843D01*
X145770821Y-80744787D01*
X145760856Y-80765857D01*
X145748874Y-80785848D01*
X145734990Y-80804568D01*
X145719338Y-80821838D01*
X145702068Y-80837490D01*
X145683348Y-80851374D01*
X145663357Y-80863356D01*
X145642287Y-80873321D01*
X145620343Y-80881173D01*
X145597734Y-80886837D01*
X145574679Y-80890256D01*
X145551400Y-80891400D01*
X144976400Y-80891400D01*
X144953121Y-80890256D01*
X144930066Y-80886837D01*
X144907457Y-80881173D01*
X144885513Y-80873321D01*
X144864443Y-80863356D01*
X144844452Y-80851374D01*
X144825732Y-80837490D01*
X144808462Y-80821838D01*
X144792810Y-80804568D01*
X144778926Y-80785848D01*
X144766944Y-80765857D01*
X144756979Y-80744787D01*
X144749127Y-80722843D01*
X144743463Y-80700234D01*
X144740044Y-80677179D01*
X144738900Y-80653900D01*
X144738900Y-80178900D01*
X144740044Y-80155621D01*
X144743463Y-80132566D01*
X144749127Y-80109957D01*
X144756979Y-80088013D01*
X144766944Y-80066943D01*
X144778926Y-80046952D01*
X144792810Y-80028232D01*
X144808462Y-80010962D01*
X144825732Y-79995310D01*
X144844452Y-79981426D01*
X144864443Y-79969444D01*
X144885513Y-79959479D01*
X144907457Y-79951627D01*
X144930066Y-79945963D01*
X144953121Y-79942544D01*
X144976400Y-79941400D01*
X145551400Y-79941400D01*
X145574679Y-79942544D01*
G37*
G36*
X147553279Y-81682444D02*
G01*
X147576334Y-81685863D01*
X147598943Y-81691527D01*
X147620887Y-81699379D01*
X147641957Y-81709344D01*
X147661948Y-81721326D01*
X147680668Y-81735210D01*
X147697938Y-81750862D01*
X147713590Y-81768132D01*
X147727474Y-81786852D01*
X147739456Y-81806843D01*
X147749421Y-81827913D01*
X147757273Y-81849857D01*
X147762937Y-81872466D01*
X147766356Y-81895521D01*
X147767500Y-81918800D01*
X147767500Y-82393800D01*
X147766356Y-82417079D01*
X147762937Y-82440134D01*
X147757273Y-82462743D01*
X147749421Y-82484687D01*
X147739456Y-82505757D01*
X147727474Y-82525748D01*
X147713590Y-82544468D01*
X147697938Y-82561738D01*
X147680668Y-82577390D01*
X147661948Y-82591274D01*
X147641957Y-82603256D01*
X147620887Y-82613221D01*
X147598943Y-82621073D01*
X147576334Y-82626737D01*
X147553279Y-82630156D01*
X147530000Y-82631300D01*
X146955000Y-82631300D01*
X146931721Y-82630156D01*
X146908666Y-82626737D01*
X146886057Y-82621073D01*
X146864113Y-82613221D01*
X146843043Y-82603256D01*
X146823052Y-82591274D01*
X146804332Y-82577390D01*
X146787062Y-82561738D01*
X146771410Y-82544468D01*
X146757526Y-82525748D01*
X146745544Y-82505757D01*
X146735579Y-82484687D01*
X146727727Y-82462743D01*
X146722063Y-82440134D01*
X146718644Y-82417079D01*
X146717500Y-82393800D01*
X146717500Y-81918800D01*
X146718644Y-81895521D01*
X146722063Y-81872466D01*
X146727727Y-81849857D01*
X146735579Y-81827913D01*
X146745544Y-81806843D01*
X146757526Y-81786852D01*
X146771410Y-81768132D01*
X146787062Y-81750862D01*
X146804332Y-81735210D01*
X146823052Y-81721326D01*
X146843043Y-81709344D01*
X146864113Y-81699379D01*
X146886057Y-81691527D01*
X146908666Y-81685863D01*
X146931721Y-81682444D01*
X146955000Y-81681300D01*
X147530000Y-81681300D01*
X147553279Y-81682444D01*
G37*
G36*
X145803279Y-81682444D02*
G01*
X145826334Y-81685863D01*
X145848943Y-81691527D01*
X145870887Y-81699379D01*
X145891957Y-81709344D01*
X145911948Y-81721326D01*
X145930668Y-81735210D01*
X145947938Y-81750862D01*
X145963590Y-81768132D01*
X145977474Y-81786852D01*
X145989456Y-81806843D01*
X145999421Y-81827913D01*
X146007273Y-81849857D01*
X146012937Y-81872466D01*
X146016356Y-81895521D01*
X146017500Y-81918800D01*
X146017500Y-82393800D01*
X146016356Y-82417079D01*
X146012937Y-82440134D01*
X146007273Y-82462743D01*
X145999421Y-82484687D01*
X145989456Y-82505757D01*
X145977474Y-82525748D01*
X145963590Y-82544468D01*
X145947938Y-82561738D01*
X145930668Y-82577390D01*
X145911948Y-82591274D01*
X145891957Y-82603256D01*
X145870887Y-82613221D01*
X145848943Y-82621073D01*
X145826334Y-82626737D01*
X145803279Y-82630156D01*
X145780000Y-82631300D01*
X145205000Y-82631300D01*
X145181721Y-82630156D01*
X145158666Y-82626737D01*
X145136057Y-82621073D01*
X145114113Y-82613221D01*
X145093043Y-82603256D01*
X145073052Y-82591274D01*
X145054332Y-82577390D01*
X145037062Y-82561738D01*
X145021410Y-82544468D01*
X145007526Y-82525748D01*
X144995544Y-82505757D01*
X144985579Y-82484687D01*
X144977727Y-82462743D01*
X144972063Y-82440134D01*
X144968644Y-82417079D01*
X144967500Y-82393800D01*
X144967500Y-81918800D01*
X144968644Y-81895521D01*
X144972063Y-81872466D01*
X144977727Y-81849857D01*
X144985579Y-81827913D01*
X144995544Y-81806843D01*
X145007526Y-81786852D01*
X145021410Y-81768132D01*
X145037062Y-81750862D01*
X145054332Y-81735210D01*
X145073052Y-81721326D01*
X145093043Y-81709344D01*
X145114113Y-81699379D01*
X145136057Y-81691527D01*
X145158666Y-81685863D01*
X145181721Y-81682444D01*
X145205000Y-81681300D01*
X145780000Y-81681300D01*
X145803279Y-81682444D01*
G37*
G36*
X139460779Y-82851144D02*
G01*
X139483834Y-82854563D01*
X139506443Y-82860227D01*
X139528387Y-82868079D01*
X139549457Y-82878044D01*
X139569448Y-82890026D01*
X139588168Y-82903910D01*
X139605438Y-82919562D01*
X139621090Y-82936832D01*
X139634974Y-82955552D01*
X139646956Y-82975543D01*
X139656921Y-82996613D01*
X139664773Y-83018557D01*
X139670437Y-83041166D01*
X139673856Y-83064221D01*
X139675000Y-83087500D01*
X139675000Y-83662500D01*
X139673856Y-83685779D01*
X139670437Y-83708834D01*
X139664773Y-83731443D01*
X139656921Y-83753387D01*
X139646956Y-83774457D01*
X139634974Y-83794448D01*
X139621090Y-83813168D01*
X139605438Y-83830438D01*
X139588168Y-83846090D01*
X139569448Y-83859974D01*
X139549457Y-83871956D01*
X139528387Y-83881921D01*
X139506443Y-83889773D01*
X139483834Y-83895437D01*
X139460779Y-83898856D01*
X139437500Y-83900000D01*
X138962500Y-83900000D01*
X138939221Y-83898856D01*
X138916166Y-83895437D01*
X138893557Y-83889773D01*
X138871613Y-83881921D01*
X138850543Y-83871956D01*
X138830552Y-83859974D01*
X138811832Y-83846090D01*
X138794562Y-83830438D01*
X138778910Y-83813168D01*
X138765026Y-83794448D01*
X138753044Y-83774457D01*
X138743079Y-83753387D01*
X138735227Y-83731443D01*
X138729563Y-83708834D01*
X138726144Y-83685779D01*
X138725000Y-83662500D01*
X138725000Y-83087500D01*
X138726144Y-83064221D01*
X138729563Y-83041166D01*
X138735227Y-83018557D01*
X138743079Y-82996613D01*
X138753044Y-82975543D01*
X138765026Y-82955552D01*
X138778910Y-82936832D01*
X138794562Y-82919562D01*
X138811832Y-82903910D01*
X138830552Y-82890026D01*
X138850543Y-82878044D01*
X138871613Y-82868079D01*
X138893557Y-82860227D01*
X138916166Y-82854563D01*
X138939221Y-82851144D01*
X138962500Y-82850000D01*
X139437500Y-82850000D01*
X139460779Y-82851144D01*
G37*
G36*
X139460779Y-81101144D02*
G01*
X139483834Y-81104563D01*
X139506443Y-81110227D01*
X139528387Y-81118079D01*
X139549457Y-81128044D01*
X139569448Y-81140026D01*
X139588168Y-81153910D01*
X139605438Y-81169562D01*
X139621090Y-81186832D01*
X139634974Y-81205552D01*
X139646956Y-81225543D01*
X139656921Y-81246613D01*
X139664773Y-81268557D01*
X139670437Y-81291166D01*
X139673856Y-81314221D01*
X139675000Y-81337500D01*
X139675000Y-81912500D01*
X139673856Y-81935779D01*
X139670437Y-81958834D01*
X139664773Y-81981443D01*
X139656921Y-82003387D01*
X139646956Y-82024457D01*
X139634974Y-82044448D01*
X139621090Y-82063168D01*
X139605438Y-82080438D01*
X139588168Y-82096090D01*
X139569448Y-82109974D01*
X139549457Y-82121956D01*
X139528387Y-82131921D01*
X139506443Y-82139773D01*
X139483834Y-82145437D01*
X139460779Y-82148856D01*
X139437500Y-82150000D01*
X138962500Y-82150000D01*
X138939221Y-82148856D01*
X138916166Y-82145437D01*
X138893557Y-82139773D01*
X138871613Y-82131921D01*
X138850543Y-82121956D01*
X138830552Y-82109974D01*
X138811832Y-82096090D01*
X138794562Y-82080438D01*
X138778910Y-82063168D01*
X138765026Y-82044448D01*
X138753044Y-82024457D01*
X138743079Y-82003387D01*
X138735227Y-81981443D01*
X138729563Y-81958834D01*
X138726144Y-81935779D01*
X138725000Y-81912500D01*
X138725000Y-81337500D01*
X138726144Y-81314221D01*
X138729563Y-81291166D01*
X138735227Y-81268557D01*
X138743079Y-81246613D01*
X138753044Y-81225543D01*
X138765026Y-81205552D01*
X138778910Y-81186832D01*
X138794562Y-81169562D01*
X138811832Y-81153910D01*
X138830552Y-81140026D01*
X138850543Y-81128044D01*
X138871613Y-81118079D01*
X138893557Y-81110227D01*
X138916166Y-81104563D01*
X138939221Y-81101144D01*
X138962500Y-81100000D01*
X139437500Y-81100000D01*
X139460779Y-81101144D01*
G37*
D20*
X150900000Y-81200000D03*
X148900000Y-82150000D03*
X148900000Y-80250000D03*
D16*
X137200000Y-80600000D03*
X137200000Y-83400000D03*
D11*
G36*
X161685779Y-79126144D02*
G01*
X161708834Y-79129563D01*
X161731443Y-79135227D01*
X161753387Y-79143079D01*
X161774457Y-79153044D01*
X161794448Y-79165026D01*
X161813168Y-79178910D01*
X161830438Y-79194562D01*
X161846090Y-79211832D01*
X161859974Y-79230552D01*
X161871956Y-79250543D01*
X161881921Y-79271613D01*
X161889773Y-79293557D01*
X161895437Y-79316166D01*
X161898856Y-79339221D01*
X161900000Y-79362500D01*
X161900000Y-79837500D01*
X161898856Y-79860779D01*
X161895437Y-79883834D01*
X161889773Y-79906443D01*
X161881921Y-79928387D01*
X161871956Y-79949457D01*
X161859974Y-79969448D01*
X161846090Y-79988168D01*
X161830438Y-80005438D01*
X161813168Y-80021090D01*
X161794448Y-80034974D01*
X161774457Y-80046956D01*
X161753387Y-80056921D01*
X161731443Y-80064773D01*
X161708834Y-80070437D01*
X161685779Y-80073856D01*
X161662500Y-80075000D01*
X161087500Y-80075000D01*
X161064221Y-80073856D01*
X161041166Y-80070437D01*
X161018557Y-80064773D01*
X160996613Y-80056921D01*
X160975543Y-80046956D01*
X160955552Y-80034974D01*
X160936832Y-80021090D01*
X160919562Y-80005438D01*
X160903910Y-79988168D01*
X160890026Y-79969448D01*
X160878044Y-79949457D01*
X160868079Y-79928387D01*
X160860227Y-79906443D01*
X160854563Y-79883834D01*
X160851144Y-79860779D01*
X160850000Y-79837500D01*
X160850000Y-79362500D01*
X160851144Y-79339221D01*
X160854563Y-79316166D01*
X160860227Y-79293557D01*
X160868079Y-79271613D01*
X160878044Y-79250543D01*
X160890026Y-79230552D01*
X160903910Y-79211832D01*
X160919562Y-79194562D01*
X160936832Y-79178910D01*
X160955552Y-79165026D01*
X160975543Y-79153044D01*
X160996613Y-79143079D01*
X161018557Y-79135227D01*
X161041166Y-79129563D01*
X161064221Y-79126144D01*
X161087500Y-79125000D01*
X161662500Y-79125000D01*
X161685779Y-79126144D01*
G37*
G36*
X159935779Y-79126144D02*
G01*
X159958834Y-79129563D01*
X159981443Y-79135227D01*
X160003387Y-79143079D01*
X160024457Y-79153044D01*
X160044448Y-79165026D01*
X160063168Y-79178910D01*
X160080438Y-79194562D01*
X160096090Y-79211832D01*
X160109974Y-79230552D01*
X160121956Y-79250543D01*
X160131921Y-79271613D01*
X160139773Y-79293557D01*
X160145437Y-79316166D01*
X160148856Y-79339221D01*
X160150000Y-79362500D01*
X160150000Y-79837500D01*
X160148856Y-79860779D01*
X160145437Y-79883834D01*
X160139773Y-79906443D01*
X160131921Y-79928387D01*
X160121956Y-79949457D01*
X160109974Y-79969448D01*
X160096090Y-79988168D01*
X160080438Y-80005438D01*
X160063168Y-80021090D01*
X160044448Y-80034974D01*
X160024457Y-80046956D01*
X160003387Y-80056921D01*
X159981443Y-80064773D01*
X159958834Y-80070437D01*
X159935779Y-80073856D01*
X159912500Y-80075000D01*
X159337500Y-80075000D01*
X159314221Y-80073856D01*
X159291166Y-80070437D01*
X159268557Y-80064773D01*
X159246613Y-80056921D01*
X159225543Y-80046956D01*
X159205552Y-80034974D01*
X159186832Y-80021090D01*
X159169562Y-80005438D01*
X159153910Y-79988168D01*
X159140026Y-79969448D01*
X159128044Y-79949457D01*
X159118079Y-79928387D01*
X159110227Y-79906443D01*
X159104563Y-79883834D01*
X159101144Y-79860779D01*
X159100000Y-79837500D01*
X159100000Y-79362500D01*
X159101144Y-79339221D01*
X159104563Y-79316166D01*
X159110227Y-79293557D01*
X159118079Y-79271613D01*
X159128044Y-79250543D01*
X159140026Y-79230552D01*
X159153910Y-79211832D01*
X159169562Y-79194562D01*
X159186832Y-79178910D01*
X159205552Y-79165026D01*
X159225543Y-79153044D01*
X159246613Y-79143079D01*
X159268557Y-79135227D01*
X159291166Y-79129563D01*
X159314221Y-79126144D01*
X159337500Y-79125000D01*
X159912500Y-79125000D01*
X159935779Y-79126144D01*
G37*
G36*
X153060779Y-82551144D02*
G01*
X153083834Y-82554563D01*
X153106443Y-82560227D01*
X153128387Y-82568079D01*
X153149457Y-82578044D01*
X153169448Y-82590026D01*
X153188168Y-82603910D01*
X153205438Y-82619562D01*
X153221090Y-82636832D01*
X153234974Y-82655552D01*
X153246956Y-82675543D01*
X153256921Y-82696613D01*
X153264773Y-82718557D01*
X153270437Y-82741166D01*
X153273856Y-82764221D01*
X153275000Y-82787500D01*
X153275000Y-83362500D01*
X153273856Y-83385779D01*
X153270437Y-83408834D01*
X153264773Y-83431443D01*
X153256921Y-83453387D01*
X153246956Y-83474457D01*
X153234974Y-83494448D01*
X153221090Y-83513168D01*
X153205438Y-83530438D01*
X153188168Y-83546090D01*
X153169448Y-83559974D01*
X153149457Y-83571956D01*
X153128387Y-83581921D01*
X153106443Y-83589773D01*
X153083834Y-83595437D01*
X153060779Y-83598856D01*
X153037500Y-83600000D01*
X152562500Y-83600000D01*
X152539221Y-83598856D01*
X152516166Y-83595437D01*
X152493557Y-83589773D01*
X152471613Y-83581921D01*
X152450543Y-83571956D01*
X152430552Y-83559974D01*
X152411832Y-83546090D01*
X152394562Y-83530438D01*
X152378910Y-83513168D01*
X152365026Y-83494448D01*
X152353044Y-83474457D01*
X152343079Y-83453387D01*
X152335227Y-83431443D01*
X152329563Y-83408834D01*
X152326144Y-83385779D01*
X152325000Y-83362500D01*
X152325000Y-82787500D01*
X152326144Y-82764221D01*
X152329563Y-82741166D01*
X152335227Y-82718557D01*
X152343079Y-82696613D01*
X152353044Y-82675543D01*
X152365026Y-82655552D01*
X152378910Y-82636832D01*
X152394562Y-82619562D01*
X152411832Y-82603910D01*
X152430552Y-82590026D01*
X152450543Y-82578044D01*
X152471613Y-82568079D01*
X152493557Y-82560227D01*
X152516166Y-82554563D01*
X152539221Y-82551144D01*
X152562500Y-82550000D01*
X153037500Y-82550000D01*
X153060779Y-82551144D01*
G37*
G36*
X153060779Y-80801144D02*
G01*
X153083834Y-80804563D01*
X153106443Y-80810227D01*
X153128387Y-80818079D01*
X153149457Y-80828044D01*
X153169448Y-80840026D01*
X153188168Y-80853910D01*
X153205438Y-80869562D01*
X153221090Y-80886832D01*
X153234974Y-80905552D01*
X153246956Y-80925543D01*
X153256921Y-80946613D01*
X153264773Y-80968557D01*
X153270437Y-80991166D01*
X153273856Y-81014221D01*
X153275000Y-81037500D01*
X153275000Y-81612500D01*
X153273856Y-81635779D01*
X153270437Y-81658834D01*
X153264773Y-81681443D01*
X153256921Y-81703387D01*
X153246956Y-81724457D01*
X153234974Y-81744448D01*
X153221090Y-81763168D01*
X153205438Y-81780438D01*
X153188168Y-81796090D01*
X153169448Y-81809974D01*
X153149457Y-81821956D01*
X153128387Y-81831921D01*
X153106443Y-81839773D01*
X153083834Y-81845437D01*
X153060779Y-81848856D01*
X153037500Y-81850000D01*
X152562500Y-81850000D01*
X152539221Y-81848856D01*
X152516166Y-81845437D01*
X152493557Y-81839773D01*
X152471613Y-81831921D01*
X152450543Y-81821956D01*
X152430552Y-81809974D01*
X152411832Y-81796090D01*
X152394562Y-81780438D01*
X152378910Y-81763168D01*
X152365026Y-81744448D01*
X152353044Y-81724457D01*
X152343079Y-81703387D01*
X152335227Y-81681443D01*
X152329563Y-81658834D01*
X152326144Y-81635779D01*
X152325000Y-81612500D01*
X152325000Y-81037500D01*
X152326144Y-81014221D01*
X152329563Y-80991166D01*
X152335227Y-80968557D01*
X152343079Y-80946613D01*
X152353044Y-80925543D01*
X152365026Y-80905552D01*
X152378910Y-80886832D01*
X152394562Y-80869562D01*
X152411832Y-80853910D01*
X152430552Y-80840026D01*
X152450543Y-80828044D01*
X152471613Y-80818079D01*
X152493557Y-80810227D01*
X152516166Y-80804563D01*
X152539221Y-80801144D01*
X152562500Y-80800000D01*
X153037500Y-80800000D01*
X153060779Y-80801144D01*
G37*
M02*
