G04 #@! TF.GenerationSoftware,KiCad,Pcbnew,(5.1.5)-3*
G04 #@! TF.CreationDate,2020-04-24T14:35:50-04:00*
G04 #@! TF.ProjectId,CR2025_Nordic,43523230-3235-45f4-9e6f-726469632e6b,rev?*
G04 #@! TF.SameCoordinates,Original*
G04 #@! TF.FileFunction,Legend,Top*
G04 #@! TF.FilePolarity,Positive*
%FSLAX46Y46*%
G04 Gerber Fmt 4.6, Leading zero omitted, Abs format (unit mm)*
G04 Created by KiCad (PCBNEW (5.1.5)-3) date 2020-04-24 14:35:50*
%MOMM*%
%LPD*%
G04 APERTURE LIST*
%ADD10C,0.120000*%
%ADD11C,0.150000*%
%ADD12C,0.152400*%
%ADD13C,0.200000*%
%ADD14C,0.127000*%
%ADD15C,0.015000*%
G04 APERTURE END LIST*
D10*
X158700062Y-82916795D02*
G75*
G02X145694400Y-93103700I-4433163J-7735806D01*
G01*
D11*
X144564790Y-103055680D02*
X144564790Y-102055680D01*
X144898123Y-102769966D01*
X145231457Y-102055680D01*
X145231457Y-103055680D01*
X146279076Y-102960442D02*
X146231457Y-103008061D01*
X146088600Y-103055680D01*
X145993361Y-103055680D01*
X145850504Y-103008061D01*
X145755266Y-102912823D01*
X145707647Y-102817585D01*
X145660028Y-102627109D01*
X145660028Y-102484252D01*
X145707647Y-102293776D01*
X145755266Y-102198538D01*
X145850504Y-102103300D01*
X145993361Y-102055680D01*
X146088600Y-102055680D01*
X146231457Y-102103300D01*
X146279076Y-102150919D01*
X146850504Y-103055680D02*
X146755266Y-103008061D01*
X146707647Y-102960442D01*
X146660028Y-102865204D01*
X146660028Y-102579490D01*
X146707647Y-102484252D01*
X146755266Y-102436633D01*
X146850504Y-102389014D01*
X146993361Y-102389014D01*
X147088600Y-102436633D01*
X147136219Y-102484252D01*
X147183838Y-102579490D01*
X147183838Y-102865204D01*
X147136219Y-102960442D01*
X147088600Y-103008061D01*
X146993361Y-103055680D01*
X146850504Y-103055680D01*
X147755266Y-103055680D02*
X147660028Y-103008061D01*
X147612409Y-102912823D01*
X147612409Y-102055680D01*
X148279076Y-103055680D02*
X148183838Y-103008061D01*
X148136219Y-102912823D01*
X148136219Y-102055680D01*
X149374314Y-102769966D02*
X149850504Y-102769966D01*
X149279076Y-103055680D02*
X149612409Y-102055680D01*
X149945742Y-103055680D01*
X150279076Y-103055680D02*
X150279076Y-102055680D01*
X150660028Y-102055680D01*
X150755266Y-102103300D01*
X150802885Y-102150919D01*
X150850504Y-102246157D01*
X150850504Y-102389014D01*
X150802885Y-102484252D01*
X150755266Y-102531871D01*
X150660028Y-102579490D01*
X150279076Y-102579490D01*
X151850504Y-103055680D02*
X151517171Y-102579490D01*
X151279076Y-103055680D02*
X151279076Y-102055680D01*
X151660028Y-102055680D01*
X151755266Y-102103300D01*
X151802885Y-102150919D01*
X151850504Y-102246157D01*
X151850504Y-102389014D01*
X151802885Y-102484252D01*
X151755266Y-102531871D01*
X151660028Y-102579490D01*
X151279076Y-102579490D01*
X152231457Y-102150919D02*
X152279076Y-102103300D01*
X152374314Y-102055680D01*
X152612409Y-102055680D01*
X152707647Y-102103300D01*
X152755266Y-102150919D01*
X152802885Y-102246157D01*
X152802885Y-102341395D01*
X152755266Y-102484252D01*
X152183838Y-103055680D01*
X152802885Y-103055680D01*
X153421933Y-102055680D02*
X153517171Y-102055680D01*
X153612409Y-102103300D01*
X153660028Y-102150919D01*
X153707647Y-102246157D01*
X153755266Y-102436633D01*
X153755266Y-102674728D01*
X153707647Y-102865204D01*
X153660028Y-102960442D01*
X153612409Y-103008061D01*
X153517171Y-103055680D01*
X153421933Y-103055680D01*
X153326695Y-103008061D01*
X153279076Y-102960442D01*
X153231457Y-102865204D01*
X153183838Y-102674728D01*
X153183838Y-102436633D01*
X153231457Y-102246157D01*
X153279076Y-102150919D01*
X153326695Y-102103300D01*
X153421933Y-102055680D01*
X154136219Y-102150919D02*
X154183838Y-102103300D01*
X154279076Y-102055680D01*
X154517171Y-102055680D01*
X154612409Y-102103300D01*
X154660028Y-102150919D01*
X154707647Y-102246157D01*
X154707647Y-102341395D01*
X154660028Y-102484252D01*
X154088600Y-103055680D01*
X154707647Y-103055680D01*
X155326695Y-102055680D02*
X155421933Y-102055680D01*
X155517171Y-102103300D01*
X155564790Y-102150919D01*
X155612409Y-102246157D01*
X155660028Y-102436633D01*
X155660028Y-102674728D01*
X155612409Y-102865204D01*
X155564790Y-102960442D01*
X155517171Y-103008061D01*
X155421933Y-103055680D01*
X155326695Y-103055680D01*
X155231457Y-103008061D01*
X155183838Y-102960442D01*
X155136219Y-102865204D01*
X155088599Y-102674728D01*
X155088599Y-102436633D01*
X155136219Y-102246157D01*
X155183838Y-102150919D01*
X155231457Y-102103300D01*
X155326695Y-102055680D01*
X144863752Y-95855780D02*
X144863752Y-94855780D01*
X145435180Y-95855780D01*
X145435180Y-94855780D01*
X146054228Y-95855780D02*
X145958990Y-95808161D01*
X145911371Y-95760542D01*
X145863752Y-95665304D01*
X145863752Y-95379590D01*
X145911371Y-95284352D01*
X145958990Y-95236733D01*
X146054228Y-95189114D01*
X146197085Y-95189114D01*
X146292323Y-95236733D01*
X146339942Y-95284352D01*
X146387561Y-95379590D01*
X146387561Y-95665304D01*
X146339942Y-95760542D01*
X146292323Y-95808161D01*
X146197085Y-95855780D01*
X146054228Y-95855780D01*
X146816133Y-95855780D02*
X146816133Y-95189114D01*
X146816133Y-95379590D02*
X146863752Y-95284352D01*
X146911371Y-95236733D01*
X147006609Y-95189114D01*
X147101847Y-95189114D01*
X147863752Y-95855780D02*
X147863752Y-94855780D01*
X147863752Y-95808161D02*
X147768514Y-95855780D01*
X147578038Y-95855780D01*
X147482800Y-95808161D01*
X147435180Y-95760542D01*
X147387561Y-95665304D01*
X147387561Y-95379590D01*
X147435180Y-95284352D01*
X147482800Y-95236733D01*
X147578038Y-95189114D01*
X147768514Y-95189114D01*
X147863752Y-95236733D01*
X148339942Y-95855780D02*
X148339942Y-95189114D01*
X148339942Y-94855780D02*
X148292323Y-94903400D01*
X148339942Y-94951019D01*
X148387561Y-94903400D01*
X148339942Y-94855780D01*
X148339942Y-94951019D01*
X149244704Y-95808161D02*
X149149466Y-95855780D01*
X148958990Y-95855780D01*
X148863752Y-95808161D01*
X148816133Y-95760542D01*
X148768514Y-95665304D01*
X148768514Y-95379590D01*
X148816133Y-95284352D01*
X148863752Y-95236733D01*
X148958990Y-95189114D01*
X149149466Y-95189114D01*
X149244704Y-95236733D01*
X150435180Y-95189114D02*
X150435180Y-95855780D01*
X150435180Y-95284352D02*
X150482800Y-95236733D01*
X150578038Y-95189114D01*
X150720895Y-95189114D01*
X150816133Y-95236733D01*
X150863752Y-95331971D01*
X150863752Y-95855780D01*
X151911371Y-95855780D02*
X151578038Y-95379590D01*
X151339942Y-95855780D02*
X151339942Y-94855780D01*
X151720895Y-94855780D01*
X151816133Y-94903400D01*
X151863752Y-94951019D01*
X151911371Y-95046257D01*
X151911371Y-95189114D01*
X151863752Y-95284352D01*
X151816133Y-95331971D01*
X151720895Y-95379590D01*
X151339942Y-95379590D01*
X152673276Y-95331971D02*
X152339942Y-95331971D01*
X152339942Y-95855780D02*
X152339942Y-94855780D01*
X152816133Y-94855780D01*
X153673276Y-94855780D02*
X153197085Y-94855780D01*
X153149466Y-95331971D01*
X153197085Y-95284352D01*
X153292323Y-95236733D01*
X153530419Y-95236733D01*
X153625657Y-95284352D01*
X153673276Y-95331971D01*
X153720895Y-95427209D01*
X153720895Y-95665304D01*
X153673276Y-95760542D01*
X153625657Y-95808161D01*
X153530419Y-95855780D01*
X153292323Y-95855780D01*
X153197085Y-95808161D01*
X153149466Y-95760542D01*
X154101847Y-94951019D02*
X154149466Y-94903400D01*
X154244704Y-94855780D01*
X154482800Y-94855780D01*
X154578038Y-94903400D01*
X154625657Y-94951019D01*
X154673276Y-95046257D01*
X154673276Y-95141495D01*
X154625657Y-95284352D01*
X154054228Y-95855780D01*
X154673276Y-95855780D01*
X155244704Y-95284352D02*
X155149466Y-95236733D01*
X155101847Y-95189114D01*
X155054228Y-95093876D01*
X155054228Y-95046257D01*
X155101847Y-94951019D01*
X155149466Y-94903400D01*
X155244704Y-94855780D01*
X155435180Y-94855780D01*
X155530419Y-94903400D01*
X155578038Y-94951019D01*
X155625657Y-95046257D01*
X155625657Y-95093876D01*
X155578038Y-95189114D01*
X155530419Y-95236733D01*
X155435180Y-95284352D01*
X155244704Y-95284352D01*
X155149466Y-95331971D01*
X155101847Y-95379590D01*
X155054228Y-95474828D01*
X155054228Y-95665304D01*
X155101847Y-95760542D01*
X155149466Y-95808161D01*
X155244704Y-95855780D01*
X155435180Y-95855780D01*
X155530419Y-95808161D01*
X155578038Y-95760542D01*
X155625657Y-95665304D01*
X155625657Y-95474828D01*
X155578038Y-95379590D01*
X155530419Y-95331971D01*
X155435180Y-95284352D01*
X156482800Y-95189114D02*
X156482800Y-95855780D01*
X156244704Y-94808161D02*
X156006609Y-95522447D01*
X156625657Y-95522447D01*
X157197085Y-94855780D02*
X157292323Y-94855780D01*
X157387561Y-94903400D01*
X157435180Y-94951019D01*
X157482800Y-95046257D01*
X157530419Y-95236733D01*
X157530419Y-95474828D01*
X157482800Y-95665304D01*
X157435180Y-95760542D01*
X157387561Y-95808161D01*
X157292323Y-95855780D01*
X157197085Y-95855780D01*
X157101847Y-95808161D01*
X157054228Y-95760542D01*
X157006609Y-95665304D01*
X156958990Y-95474828D01*
X156958990Y-95236733D01*
X157006609Y-95046257D01*
X157054228Y-94951019D01*
X157101847Y-94903400D01*
X157197085Y-94855780D01*
X158720895Y-95855780D02*
X158720895Y-94855780D01*
X158958990Y-94855780D01*
X159101847Y-94903400D01*
X159197085Y-94998638D01*
X159244704Y-95093876D01*
X159292323Y-95284352D01*
X159292323Y-95427209D01*
X159244704Y-95617685D01*
X159197085Y-95712923D01*
X159101847Y-95808161D01*
X158958990Y-95855780D01*
X158720895Y-95855780D01*
X159863752Y-95855780D02*
X159768514Y-95808161D01*
X159720895Y-95760542D01*
X159673276Y-95665304D01*
X159673276Y-95379590D01*
X159720895Y-95284352D01*
X159768514Y-95236733D01*
X159863752Y-95189114D01*
X160006609Y-95189114D01*
X160101847Y-95236733D01*
X160149466Y-95284352D01*
X160197085Y-95379590D01*
X160197085Y-95665304D01*
X160149466Y-95760542D01*
X160101847Y-95808161D01*
X160006609Y-95855780D01*
X159863752Y-95855780D01*
X160625657Y-95189114D02*
X160625657Y-95855780D01*
X160625657Y-95284352D02*
X160673276Y-95236733D01*
X160768514Y-95189114D01*
X160911371Y-95189114D01*
X161006609Y-95236733D01*
X161054228Y-95331971D01*
X161054228Y-95855780D01*
X161958990Y-95189114D02*
X161958990Y-95998638D01*
X161911371Y-96093876D01*
X161863752Y-96141495D01*
X161768514Y-96189114D01*
X161625657Y-96189114D01*
X161530419Y-96141495D01*
X161958990Y-95808161D02*
X161863752Y-95855780D01*
X161673276Y-95855780D01*
X161578038Y-95808161D01*
X161530419Y-95760542D01*
X161482800Y-95665304D01*
X161482800Y-95379590D01*
X161530419Y-95284352D01*
X161578038Y-95236733D01*
X161673276Y-95189114D01*
X161863752Y-95189114D01*
X161958990Y-95236733D01*
X162578038Y-95855780D02*
X162482800Y-95808161D01*
X162435180Y-95712923D01*
X162435180Y-94855780D01*
X163339942Y-95808161D02*
X163244704Y-95855780D01*
X163054228Y-95855780D01*
X162958990Y-95808161D01*
X162911371Y-95712923D01*
X162911371Y-95331971D01*
X162958990Y-95236733D01*
X163054228Y-95189114D01*
X163244704Y-95189114D01*
X163339942Y-95236733D01*
X163387561Y-95331971D01*
X163387561Y-95427209D01*
X162911371Y-95522447D01*
X145554228Y-97410542D02*
X145506609Y-97458161D01*
X145363752Y-97505780D01*
X145268514Y-97505780D01*
X145125657Y-97458161D01*
X145030419Y-97362923D01*
X144982799Y-97267685D01*
X144935180Y-97077209D01*
X144935180Y-96934352D01*
X144982799Y-96743876D01*
X145030419Y-96648638D01*
X145125657Y-96553400D01*
X145268514Y-96505780D01*
X145363752Y-96505780D01*
X145506609Y-96553400D01*
X145554228Y-96601019D01*
X146125657Y-97505780D02*
X146030419Y-97458161D01*
X145982799Y-97410542D01*
X145935180Y-97315304D01*
X145935180Y-97029590D01*
X145982799Y-96934352D01*
X146030419Y-96886733D01*
X146125657Y-96839114D01*
X146268514Y-96839114D01*
X146363752Y-96886733D01*
X146411371Y-96934352D01*
X146458990Y-97029590D01*
X146458990Y-97315304D01*
X146411371Y-97410542D01*
X146363752Y-97458161D01*
X146268514Y-97505780D01*
X146125657Y-97505780D01*
X146887561Y-97505780D02*
X146887561Y-96839114D01*
X146887561Y-96505780D02*
X146839942Y-96553400D01*
X146887561Y-96601019D01*
X146935180Y-96553400D01*
X146887561Y-96505780D01*
X146887561Y-96601019D01*
X147363752Y-96839114D02*
X147363752Y-97505780D01*
X147363752Y-96934352D02*
X147411371Y-96886733D01*
X147506609Y-96839114D01*
X147649466Y-96839114D01*
X147744704Y-96886733D01*
X147792323Y-96981971D01*
X147792323Y-97505780D01*
X149601847Y-97410542D02*
X149554228Y-97458161D01*
X149411371Y-97505780D01*
X149316133Y-97505780D01*
X149173276Y-97458161D01*
X149078038Y-97362923D01*
X149030419Y-97267685D01*
X148982799Y-97077209D01*
X148982799Y-96934352D01*
X149030419Y-96743876D01*
X149078038Y-96648638D01*
X149173276Y-96553400D01*
X149316133Y-96505780D01*
X149411371Y-96505780D01*
X149554228Y-96553400D01*
X149601847Y-96601019D01*
X150411371Y-97458161D02*
X150316133Y-97505780D01*
X150125657Y-97505780D01*
X150030419Y-97458161D01*
X149982799Y-97362923D01*
X149982799Y-96981971D01*
X150030419Y-96886733D01*
X150125657Y-96839114D01*
X150316133Y-96839114D01*
X150411371Y-96886733D01*
X150458990Y-96981971D01*
X150458990Y-97077209D01*
X149982799Y-97172447D01*
X151030419Y-97505780D02*
X150935180Y-97458161D01*
X150887561Y-97362923D01*
X150887561Y-96505780D01*
X151554228Y-97505780D02*
X151458990Y-97458161D01*
X151411371Y-97362923D01*
X151411371Y-96505780D01*
X153030419Y-96981971D02*
X153173276Y-97029590D01*
X153220895Y-97077209D01*
X153268514Y-97172447D01*
X153268514Y-97315304D01*
X153220895Y-97410542D01*
X153173276Y-97458161D01*
X153078038Y-97505780D01*
X152697085Y-97505780D01*
X152697085Y-96505780D01*
X153030419Y-96505780D01*
X153125657Y-96553400D01*
X153173276Y-96601019D01*
X153220895Y-96696257D01*
X153220895Y-96791495D01*
X153173276Y-96886733D01*
X153125657Y-96934352D01*
X153030419Y-96981971D01*
X152697085Y-96981971D01*
X154125657Y-97505780D02*
X154125657Y-96981971D01*
X154078038Y-96886733D01*
X153982799Y-96839114D01*
X153792323Y-96839114D01*
X153697085Y-96886733D01*
X154125657Y-97458161D02*
X154030419Y-97505780D01*
X153792323Y-97505780D01*
X153697085Y-97458161D01*
X153649466Y-97362923D01*
X153649466Y-97267685D01*
X153697085Y-97172447D01*
X153792323Y-97124828D01*
X154030419Y-97124828D01*
X154125657Y-97077209D01*
X154458990Y-96839114D02*
X154839942Y-96839114D01*
X154601847Y-96505780D02*
X154601847Y-97362923D01*
X154649466Y-97458161D01*
X154744704Y-97505780D01*
X154839942Y-97505780D01*
X155030419Y-96839114D02*
X155411371Y-96839114D01*
X155173276Y-96505780D02*
X155173276Y-97362923D01*
X155220895Y-97458161D01*
X155316133Y-97505780D01*
X155411371Y-97505780D01*
X156125657Y-97458161D02*
X156030419Y-97505780D01*
X155839942Y-97505780D01*
X155744704Y-97458161D01*
X155697085Y-97362923D01*
X155697085Y-96981971D01*
X155744704Y-96886733D01*
X155839942Y-96839114D01*
X156030419Y-96839114D01*
X156125657Y-96886733D01*
X156173276Y-96981971D01*
X156173276Y-97077209D01*
X155697085Y-97172447D01*
X156601847Y-97505780D02*
X156601847Y-96839114D01*
X156601847Y-97029590D02*
X156649466Y-96934352D01*
X156697085Y-96886733D01*
X156792323Y-96839114D01*
X156887561Y-96839114D01*
X157125657Y-96839114D02*
X157363752Y-97505780D01*
X157601847Y-96839114D02*
X157363752Y-97505780D01*
X157268514Y-97743876D01*
X157220895Y-97791495D01*
X157125657Y-97839114D01*
X159173276Y-97505780D02*
X159173276Y-96981971D01*
X159125657Y-96886733D01*
X159030419Y-96839114D01*
X158839942Y-96839114D01*
X158744704Y-96886733D01*
X159173276Y-97458161D02*
X159078038Y-97505780D01*
X158839942Y-97505780D01*
X158744704Y-97458161D01*
X158697085Y-97362923D01*
X158697085Y-97267685D01*
X158744704Y-97172447D01*
X158839942Y-97124828D01*
X159078038Y-97124828D01*
X159173276Y-97077209D01*
X160078038Y-97505780D02*
X160078038Y-96505780D01*
X160078038Y-97458161D02*
X159982799Y-97505780D01*
X159792323Y-97505780D01*
X159697085Y-97458161D01*
X159649466Y-97410542D01*
X159601847Y-97315304D01*
X159601847Y-97029590D01*
X159649466Y-96934352D01*
X159697085Y-96886733D01*
X159792323Y-96839114D01*
X159982799Y-96839114D01*
X160078038Y-96886733D01*
X160982799Y-97505780D02*
X160982799Y-96981971D01*
X160935180Y-96886733D01*
X160839942Y-96839114D01*
X160649466Y-96839114D01*
X160554228Y-96886733D01*
X160982799Y-97458161D02*
X160887561Y-97505780D01*
X160649466Y-97505780D01*
X160554228Y-97458161D01*
X160506609Y-97362923D01*
X160506609Y-97267685D01*
X160554228Y-97172447D01*
X160649466Y-97124828D01*
X160887561Y-97124828D01*
X160982799Y-97077209D01*
X161458990Y-96839114D02*
X161458990Y-97839114D01*
X161458990Y-96886733D02*
X161554228Y-96839114D01*
X161744704Y-96839114D01*
X161839942Y-96886733D01*
X161887561Y-96934352D01*
X161935180Y-97029590D01*
X161935180Y-97315304D01*
X161887561Y-97410542D01*
X161839942Y-97458161D01*
X161744704Y-97505780D01*
X161554228Y-97505780D01*
X161458990Y-97458161D01*
X162220895Y-96839114D02*
X162601847Y-96839114D01*
X162363752Y-96505780D02*
X162363752Y-97362923D01*
X162411371Y-97458161D01*
X162506609Y-97505780D01*
X162601847Y-97505780D01*
X163078038Y-97505780D02*
X162982799Y-97458161D01*
X162935180Y-97410542D01*
X162887561Y-97315304D01*
X162887561Y-97029590D01*
X162935180Y-96934352D01*
X162982799Y-96886733D01*
X163078038Y-96839114D01*
X163220895Y-96839114D01*
X163316133Y-96886733D01*
X163363752Y-96934352D01*
X163411371Y-97029590D01*
X163411371Y-97315304D01*
X163363752Y-97410542D01*
X163316133Y-97458161D01*
X163220895Y-97505780D01*
X163078038Y-97505780D01*
X163839942Y-97505780D02*
X163839942Y-96839114D01*
X163839942Y-97029590D02*
X163887561Y-96934352D01*
X163935180Y-96886733D01*
X164030419Y-96839114D01*
X164125657Y-96839114D01*
X144482800Y-98489114D02*
X144863752Y-98489114D01*
X144625657Y-99155780D02*
X144625657Y-98298638D01*
X144673276Y-98203400D01*
X144768514Y-98155780D01*
X144863752Y-98155780D01*
X145339942Y-99155780D02*
X145244704Y-99108161D01*
X145197085Y-99060542D01*
X145149466Y-98965304D01*
X145149466Y-98679590D01*
X145197085Y-98584352D01*
X145244704Y-98536733D01*
X145339942Y-98489114D01*
X145482800Y-98489114D01*
X145578038Y-98536733D01*
X145625657Y-98584352D01*
X145673276Y-98679590D01*
X145673276Y-98965304D01*
X145625657Y-99060542D01*
X145578038Y-99108161D01*
X145482800Y-99155780D01*
X145339942Y-99155780D01*
X146101847Y-99155780D02*
X146101847Y-98489114D01*
X146101847Y-98679590D02*
X146149466Y-98584352D01*
X146197085Y-98536733D01*
X146292323Y-98489114D01*
X146387561Y-98489114D01*
X147816133Y-98631971D02*
X147958990Y-98679590D01*
X148006609Y-98727209D01*
X148054228Y-98822447D01*
X148054228Y-98965304D01*
X148006609Y-99060542D01*
X147958990Y-99108161D01*
X147863752Y-99155780D01*
X147482800Y-99155780D01*
X147482800Y-98155780D01*
X147816133Y-98155780D01*
X147911371Y-98203400D01*
X147958990Y-98251019D01*
X148006609Y-98346257D01*
X148006609Y-98441495D01*
X147958990Y-98536733D01*
X147911371Y-98584352D01*
X147816133Y-98631971D01*
X147482800Y-98631971D01*
X148958990Y-99155780D02*
X148482800Y-99155780D01*
X148482800Y-98155780D01*
X149292323Y-98631971D02*
X149625657Y-98631971D01*
X149768514Y-99155780D02*
X149292323Y-99155780D01*
X149292323Y-98155780D01*
X149768514Y-98155780D01*
X151387561Y-99108161D02*
X151292323Y-99155780D01*
X151101847Y-99155780D01*
X151006609Y-99108161D01*
X150958990Y-99060542D01*
X150911371Y-98965304D01*
X150911371Y-98679590D01*
X150958990Y-98584352D01*
X151006609Y-98536733D01*
X151101847Y-98489114D01*
X151292323Y-98489114D01*
X151387561Y-98536733D01*
X151958990Y-99155780D02*
X151863752Y-99108161D01*
X151816133Y-99060542D01*
X151768514Y-98965304D01*
X151768514Y-98679590D01*
X151816133Y-98584352D01*
X151863752Y-98536733D01*
X151958990Y-98489114D01*
X152101847Y-98489114D01*
X152197085Y-98536733D01*
X152244704Y-98584352D01*
X152292323Y-98679590D01*
X152292323Y-98965304D01*
X152244704Y-99060542D01*
X152197085Y-99108161D01*
X152101847Y-99155780D01*
X151958990Y-99155780D01*
X152625657Y-98489114D02*
X152863752Y-99155780D01*
X153101847Y-98489114D01*
X153482800Y-99155780D02*
X153482800Y-98489114D01*
X153482800Y-98155780D02*
X153435180Y-98203400D01*
X153482800Y-98251019D01*
X153530419Y-98203400D01*
X153482800Y-98155780D01*
X153482800Y-98251019D01*
X154387561Y-99155780D02*
X154387561Y-98155780D01*
X154387561Y-99108161D02*
X154292323Y-99155780D01*
X154101847Y-99155780D01*
X154006609Y-99108161D01*
X153958990Y-99060542D01*
X153911371Y-98965304D01*
X153911371Y-98679590D01*
X153958990Y-98584352D01*
X154006609Y-98536733D01*
X154101847Y-98489114D01*
X154292323Y-98489114D01*
X154387561Y-98536733D01*
X155625657Y-99155780D02*
X155625657Y-98155780D01*
X156197085Y-99155780D01*
X156197085Y-98155780D01*
X156673276Y-99155780D02*
X156673276Y-98155780D01*
X157101847Y-99108161D02*
X157244704Y-99155780D01*
X157482800Y-99155780D01*
X157578038Y-99108161D01*
X157625657Y-99060542D01*
X157673276Y-98965304D01*
X157673276Y-98870066D01*
X157625657Y-98774828D01*
X157578038Y-98727209D01*
X157482800Y-98679590D01*
X157292323Y-98631971D01*
X157197085Y-98584352D01*
X157149466Y-98536733D01*
X157101847Y-98441495D01*
X157101847Y-98346257D01*
X157149466Y-98251019D01*
X157197085Y-98203400D01*
X157292323Y-98155780D01*
X157530419Y-98155780D01*
X157673276Y-98203400D01*
X157958990Y-98155780D02*
X158530419Y-98155780D01*
X158244704Y-99155780D02*
X158244704Y-98155780D01*
X159625657Y-98489114D02*
X159625657Y-99489114D01*
X159625657Y-98536733D02*
X159720895Y-98489114D01*
X159911371Y-98489114D01*
X160006609Y-98536733D01*
X160054228Y-98584352D01*
X160101847Y-98679590D01*
X160101847Y-98965304D01*
X160054228Y-99060542D01*
X160006609Y-99108161D01*
X159911371Y-99155780D01*
X159720895Y-99155780D01*
X159625657Y-99108161D01*
X160530419Y-99155780D02*
X160530419Y-98489114D01*
X160530419Y-98679590D02*
X160578038Y-98584352D01*
X160625657Y-98536733D01*
X160720895Y-98489114D01*
X160816133Y-98489114D01*
X161292323Y-99155780D02*
X161197085Y-99108161D01*
X161149466Y-99060542D01*
X161101847Y-98965304D01*
X161101847Y-98679590D01*
X161149466Y-98584352D01*
X161197085Y-98536733D01*
X161292323Y-98489114D01*
X161435180Y-98489114D01*
X161530419Y-98536733D01*
X161578038Y-98584352D01*
X161625657Y-98679590D01*
X161625657Y-98965304D01*
X161578038Y-99060542D01*
X161530419Y-99108161D01*
X161435180Y-99155780D01*
X161292323Y-99155780D01*
X162054228Y-98489114D02*
X162054228Y-99346257D01*
X162006609Y-99441495D01*
X161911371Y-99489114D01*
X161863752Y-99489114D01*
X162054228Y-98155780D02*
X162006609Y-98203400D01*
X162054228Y-98251019D01*
X162101847Y-98203400D01*
X162054228Y-98155780D01*
X162054228Y-98251019D01*
X162911371Y-99108161D02*
X162816133Y-99155780D01*
X162625657Y-99155780D01*
X162530419Y-99108161D01*
X162482800Y-99012923D01*
X162482800Y-98631971D01*
X162530419Y-98536733D01*
X162625657Y-98489114D01*
X162816133Y-98489114D01*
X162911371Y-98536733D01*
X162958990Y-98631971D01*
X162958990Y-98727209D01*
X162482800Y-98822447D01*
X163816133Y-99108161D02*
X163720895Y-99155780D01*
X163530419Y-99155780D01*
X163435180Y-99108161D01*
X163387561Y-99060542D01*
X163339942Y-98965304D01*
X163339942Y-98679590D01*
X163387561Y-98584352D01*
X163435180Y-98536733D01*
X163530419Y-98489114D01*
X163720895Y-98489114D01*
X163816133Y-98536733D01*
X164101847Y-98489114D02*
X164482800Y-98489114D01*
X164244704Y-98155780D02*
X164244704Y-99012923D01*
X164292323Y-99108161D01*
X164387561Y-99155780D01*
X164482800Y-99155780D01*
X170922380Y-92540476D02*
X170922380Y-91921428D01*
X171303333Y-92254761D01*
X171303333Y-92111904D01*
X171350952Y-92016666D01*
X171398571Y-91969047D01*
X171493809Y-91921428D01*
X171731904Y-91921428D01*
X171827142Y-91969047D01*
X171874761Y-92016666D01*
X171922380Y-92111904D01*
X171922380Y-92397619D01*
X171874761Y-92492857D01*
X171827142Y-92540476D01*
X171922380Y-90969047D02*
X171922380Y-91540476D01*
X171922380Y-91254761D02*
X170922380Y-91254761D01*
X171065238Y-91350000D01*
X171160476Y-91445238D01*
X171208095Y-91540476D01*
X171827142Y-90540476D02*
X171874761Y-90492857D01*
X171922380Y-90540476D01*
X171874761Y-90588095D01*
X171827142Y-90540476D01*
X171922380Y-90540476D01*
X170922380Y-90159523D02*
X170922380Y-89540476D01*
X171303333Y-89873809D01*
X171303333Y-89730952D01*
X171350952Y-89635714D01*
X171398571Y-89588095D01*
X171493809Y-89540476D01*
X171731904Y-89540476D01*
X171827142Y-89588095D01*
X171874761Y-89635714D01*
X171922380Y-89730952D01*
X171922380Y-90016666D01*
X171874761Y-90111904D01*
X171827142Y-90159523D01*
X170922380Y-88921428D02*
X170922380Y-88826190D01*
X170970000Y-88730952D01*
X171017619Y-88683333D01*
X171112857Y-88635714D01*
X171303333Y-88588095D01*
X171541428Y-88588095D01*
X171731904Y-88635714D01*
X171827142Y-88683333D01*
X171874761Y-88730952D01*
X171922380Y-88826190D01*
X171922380Y-88921428D01*
X171874761Y-89016666D01*
X171827142Y-89064285D01*
X171731904Y-89111904D01*
X171541428Y-89159523D01*
X171303333Y-89159523D01*
X171112857Y-89111904D01*
X171017619Y-89064285D01*
X170970000Y-89016666D01*
X170922380Y-88921428D01*
X170922380Y-87969047D02*
X170922380Y-87873809D01*
X170970000Y-87778571D01*
X171017619Y-87730952D01*
X171112857Y-87683333D01*
X171303333Y-87635714D01*
X171541428Y-87635714D01*
X171731904Y-87683333D01*
X171827142Y-87730952D01*
X171874761Y-87778571D01*
X171922380Y-87873809D01*
X171922380Y-87969047D01*
X171874761Y-88064285D01*
X171827142Y-88111904D01*
X171731904Y-88159523D01*
X171541428Y-88207142D01*
X171303333Y-88207142D01*
X171112857Y-88159523D01*
X171017619Y-88111904D01*
X170970000Y-88064285D01*
X170922380Y-87969047D01*
X171922380Y-86445238D02*
X171255714Y-86445238D01*
X171350952Y-86445238D02*
X171303333Y-86397619D01*
X171255714Y-86302380D01*
X171255714Y-86159523D01*
X171303333Y-86064285D01*
X171398571Y-86016666D01*
X171922380Y-86016666D01*
X171398571Y-86016666D02*
X171303333Y-85969047D01*
X171255714Y-85873809D01*
X171255714Y-85730952D01*
X171303333Y-85635714D01*
X171398571Y-85588095D01*
X171922380Y-85588095D01*
X171922380Y-85111904D02*
X171255714Y-85111904D01*
X171350952Y-85111904D02*
X171303333Y-85064285D01*
X171255714Y-84969047D01*
X171255714Y-84826190D01*
X171303333Y-84730952D01*
X171398571Y-84683333D01*
X171922380Y-84683333D01*
X171398571Y-84683333D02*
X171303333Y-84635714D01*
X171255714Y-84540476D01*
X171255714Y-84397619D01*
X171303333Y-84302380D01*
X171398571Y-84254761D01*
X171922380Y-84254761D01*
D10*
X170200000Y-104000000D02*
X170200000Y-72700000D01*
X165000000Y-104000000D02*
X170786421Y-104000000D01*
X165000000Y-72700000D02*
X170786421Y-72700000D01*
X170200000Y-72700000D02*
X170786421Y-73826504D01*
X170200000Y-72700000D02*
X169613579Y-73826504D01*
X170200000Y-104000000D02*
X170786421Y-102873496D01*
X170200000Y-104000000D02*
X169613579Y-102873496D01*
D11*
X140983333Y-58215714D02*
X140983333Y-58882380D01*
X140745238Y-57834761D02*
X140507142Y-58549047D01*
X141126190Y-58549047D01*
X141697619Y-57882380D02*
X141792857Y-57882380D01*
X141888095Y-57930000D01*
X141935714Y-57977619D01*
X141983333Y-58072857D01*
X142030952Y-58263333D01*
X142030952Y-58501428D01*
X141983333Y-58691904D01*
X141935714Y-58787142D01*
X141888095Y-58834761D01*
X141792857Y-58882380D01*
X141697619Y-58882380D01*
X141602380Y-58834761D01*
X141554761Y-58787142D01*
X141507142Y-58691904D01*
X141459523Y-58501428D01*
X141459523Y-58263333D01*
X141507142Y-58072857D01*
X141554761Y-57977619D01*
X141602380Y-57930000D01*
X141697619Y-57882380D01*
X142459523Y-58787142D02*
X142507142Y-58834761D01*
X142459523Y-58882380D01*
X142411904Y-58834761D01*
X142459523Y-58787142D01*
X142459523Y-58882380D01*
X142840476Y-57882380D02*
X143507142Y-57882380D01*
X143078571Y-58882380D01*
X144078571Y-57882380D02*
X144173809Y-57882380D01*
X144269047Y-57930000D01*
X144316666Y-57977619D01*
X144364285Y-58072857D01*
X144411904Y-58263333D01*
X144411904Y-58501428D01*
X144364285Y-58691904D01*
X144316666Y-58787142D01*
X144269047Y-58834761D01*
X144173809Y-58882380D01*
X144078571Y-58882380D01*
X143983333Y-58834761D01*
X143935714Y-58787142D01*
X143888095Y-58691904D01*
X143840476Y-58501428D01*
X143840476Y-58263333D01*
X143888095Y-58072857D01*
X143935714Y-57977619D01*
X143983333Y-57930000D01*
X144078571Y-57882380D01*
X145030952Y-57882380D02*
X145126190Y-57882380D01*
X145221428Y-57930000D01*
X145269047Y-57977619D01*
X145316666Y-58072857D01*
X145364285Y-58263333D01*
X145364285Y-58501428D01*
X145316666Y-58691904D01*
X145269047Y-58787142D01*
X145221428Y-58834761D01*
X145126190Y-58882380D01*
X145030952Y-58882380D01*
X144935714Y-58834761D01*
X144888095Y-58787142D01*
X144840476Y-58691904D01*
X144792857Y-58501428D01*
X144792857Y-58263333D01*
X144840476Y-58072857D01*
X144888095Y-57977619D01*
X144935714Y-57930000D01*
X145030952Y-57882380D01*
X146554761Y-58882380D02*
X146554761Y-58215714D01*
X146554761Y-58310952D02*
X146602380Y-58263333D01*
X146697619Y-58215714D01*
X146840476Y-58215714D01*
X146935714Y-58263333D01*
X146983333Y-58358571D01*
X146983333Y-58882380D01*
X146983333Y-58358571D02*
X147030952Y-58263333D01*
X147126190Y-58215714D01*
X147269047Y-58215714D01*
X147364285Y-58263333D01*
X147411904Y-58358571D01*
X147411904Y-58882380D01*
X147888095Y-58882380D02*
X147888095Y-58215714D01*
X147888095Y-58310952D02*
X147935714Y-58263333D01*
X148030952Y-58215714D01*
X148173809Y-58215714D01*
X148269047Y-58263333D01*
X148316666Y-58358571D01*
X148316666Y-58882380D01*
X148316666Y-58358571D02*
X148364285Y-58263333D01*
X148459523Y-58215714D01*
X148602380Y-58215714D01*
X148697619Y-58263333D01*
X148745238Y-58358571D01*
X148745238Y-58882380D01*
D10*
X124300000Y-59700000D02*
X165000000Y-59700000D01*
X124300000Y-72700000D02*
X124300000Y-59113579D01*
X165000000Y-72700000D02*
X165000000Y-59113579D01*
X165000000Y-59700000D02*
X163873496Y-60286421D01*
X165000000Y-59700000D02*
X163873496Y-59113579D01*
X124300000Y-59700000D02*
X125426504Y-60286421D01*
X124300000Y-59700000D02*
X125426504Y-59113579D01*
X145776767Y-78382400D02*
X145434233Y-78382400D01*
X145776767Y-79402400D02*
X145434233Y-79402400D01*
X145743700Y-83302600D02*
X147143700Y-83302600D01*
X147843700Y-84002600D02*
X147843700Y-84602600D01*
X147143700Y-85302600D02*
X145743700Y-85302600D01*
X145043700Y-84602600D02*
X145043700Y-84002600D01*
X145043700Y-84002600D02*
G75*
G02X145743700Y-83302600I700000J0D01*
G01*
X145743700Y-85302600D02*
G75*
G02X145043700Y-84602600I0J700000D01*
G01*
X147843700Y-84602600D02*
G75*
G02X147143700Y-85302600I-700000J0D01*
G01*
X147143700Y-83302600D02*
G75*
G02X147843700Y-84002600I0J-700000D01*
G01*
X146338800Y-86663300D02*
X146338800Y-88063300D01*
X145638800Y-88763300D02*
X145038800Y-88763300D01*
X144338800Y-88063300D02*
X144338800Y-86663300D01*
X145038800Y-85963300D02*
X145638800Y-85963300D01*
X145638800Y-85963300D02*
G75*
G02X146338800Y-86663300I0J-700000D01*
G01*
X144338800Y-86663300D02*
G75*
G02X145038800Y-85963300I700000J0D01*
G01*
X145038800Y-88763300D02*
G75*
G02X144338800Y-88063300I0J700000D01*
G01*
X146338800Y-88063300D02*
G75*
G02X145638800Y-88763300I-700000J0D01*
G01*
X154039800Y-86598000D02*
X152639800Y-86598000D01*
X151939800Y-85898000D02*
X151939800Y-85298000D01*
X152639800Y-84598000D02*
X154039800Y-84598000D01*
X154739800Y-85298000D02*
X154739800Y-85898000D01*
X154739800Y-85898000D02*
G75*
G02X154039800Y-86598000I-700000J0D01*
G01*
X154039800Y-84598000D02*
G75*
G02X154739800Y-85298000I0J-700000D01*
G01*
X151939800Y-85298000D02*
G75*
G02X152639800Y-84598000I700000J0D01*
G01*
X152639800Y-86598000D02*
G75*
G02X151939800Y-85898000I0J700000D01*
G01*
X147359500Y-92600300D02*
X153249500Y-92600300D01*
X146904500Y-87460300D02*
X153249500Y-87460300D01*
X125426800Y-77763700D02*
X125426800Y-103363700D01*
X125426800Y-103363700D02*
X128166800Y-103363700D01*
X128166800Y-103363700D02*
X128166800Y-77763700D01*
X128166800Y-77763700D02*
X125426800Y-77763700D01*
X140636800Y-77763700D02*
X140636800Y-103363700D01*
X140636800Y-103363700D02*
X143376800Y-103363700D01*
X143376800Y-103363700D02*
X143376800Y-77763700D01*
X143376800Y-77763700D02*
X140636800Y-77763700D01*
D12*
X137519400Y-85688975D02*
X137519400Y-85406000D01*
X131880600Y-90711025D02*
X131880600Y-90994000D01*
X131880600Y-85406000D02*
X131880600Y-85688975D01*
X137519400Y-85406000D02*
X131880600Y-85406000D01*
X137519400Y-90994000D02*
X137519400Y-90711025D01*
X131880600Y-90994000D02*
X137519400Y-90994000D01*
D10*
X150610800Y-85302600D02*
X149210800Y-85302600D01*
X148510800Y-84602600D02*
X148510800Y-84002600D01*
X149210800Y-83302600D02*
X150610800Y-83302600D01*
X151310800Y-84002600D02*
X151310800Y-84602600D01*
X151310800Y-84602600D02*
G75*
G02X150610800Y-85302600I-700000J0D01*
G01*
X150610800Y-83302600D02*
G75*
G02X151310800Y-84002600I0J-700000D01*
G01*
X148510800Y-84002600D02*
G75*
G02X149210800Y-83302600I700000J0D01*
G01*
X149210800Y-85302600D02*
G75*
G02X148510800Y-84602600I0J700000D01*
G01*
X129124400Y-92916700D02*
X130454400Y-92916700D01*
X129124400Y-94246700D02*
X129124400Y-92916700D01*
X129124400Y-95516700D02*
X131784400Y-95516700D01*
X131784400Y-95516700D02*
X131784400Y-95576700D01*
X129124400Y-95516700D02*
X129124400Y-95576700D01*
X129124400Y-95576700D02*
X131784400Y-95576700D01*
X154124300Y-82045300D02*
X157974300Y-82045300D01*
X154124300Y-84045300D02*
X157974300Y-84045300D01*
X154124300Y-82045300D02*
X154124300Y-84045300D01*
X152186100Y-77425367D02*
X152186100Y-77082833D01*
X151166100Y-77425367D02*
X151166100Y-77082833D01*
X156628733Y-76010000D02*
X156971267Y-76010000D01*
X156628733Y-74990000D02*
X156971267Y-74990000D01*
X134130867Y-94409800D02*
X133788333Y-94409800D01*
X134130867Y-95429800D02*
X133788333Y-95429800D01*
X135045267Y-92860400D02*
X134702733Y-92860400D01*
X135045267Y-93880400D02*
X134702733Y-93880400D01*
X129240000Y-99800000D02*
X129240000Y-103250000D01*
X129240000Y-99800000D02*
X129240000Y-97850000D01*
X134360000Y-99800000D02*
X134360000Y-101750000D01*
X134360000Y-99800000D02*
X134360000Y-97850000D01*
X135990000Y-76900000D02*
X135990000Y-78700000D01*
X139210000Y-78700000D02*
X139210000Y-76250000D01*
X135710000Y-81671267D02*
X135710000Y-81328733D01*
X134690000Y-81671267D02*
X134690000Y-81328733D01*
X136928733Y-75410000D02*
X137271267Y-75410000D01*
X136928733Y-74390000D02*
X137271267Y-74390000D01*
D13*
X156100000Y-81200000D02*
G75*
G03X156100000Y-81200000I-100000J0D01*
G01*
D14*
X158539000Y-79580000D02*
X158539000Y-77820000D01*
X155461000Y-79580000D02*
X155461000Y-77820000D01*
D10*
X147820000Y-77910000D02*
X150250000Y-77910000D01*
X149580000Y-74840000D02*
X147820000Y-74840000D01*
X153890000Y-79028733D02*
X153890000Y-79371267D01*
X154910000Y-79028733D02*
X154910000Y-79371267D01*
X142828733Y-75310000D02*
X143171267Y-75310000D01*
X142828733Y-74290000D02*
X143171267Y-74290000D01*
X145967633Y-80926400D02*
X146310167Y-80926400D01*
X145967633Y-79906400D02*
X146310167Y-79906400D01*
X146196233Y-82666300D02*
X146538767Y-82666300D01*
X146196233Y-81646300D02*
X146538767Y-81646300D01*
X138690000Y-82328733D02*
X138690000Y-82671267D01*
X139710000Y-82328733D02*
X139710000Y-82671267D01*
X150660000Y-82780000D02*
X149200000Y-82780000D01*
X150660000Y-79620000D02*
X148500000Y-79620000D01*
X150660000Y-79620000D02*
X150660000Y-80550000D01*
X150660000Y-82780000D02*
X150660000Y-81850000D01*
X136200000Y-84200000D02*
X136200000Y-80350000D01*
X138200000Y-84200000D02*
X138200000Y-80350000D01*
X136200000Y-84200000D02*
X138200000Y-84200000D01*
X160328733Y-80110000D02*
X160671267Y-80110000D01*
X160328733Y-79090000D02*
X160671267Y-79090000D01*
X152290000Y-82028733D02*
X152290000Y-82371267D01*
X153310000Y-82028733D02*
X153310000Y-82371267D01*
D11*
X140728795Y-76007980D02*
X140728795Y-76817504D01*
X140776414Y-76912742D01*
X140824033Y-76960361D01*
X140919271Y-77007980D01*
X141109747Y-77007980D01*
X141204985Y-76960361D01*
X141252604Y-76912742D01*
X141300223Y-76817504D01*
X141300223Y-76007980D01*
X142204985Y-76341314D02*
X142204985Y-77007980D01*
X141966890Y-75960361D02*
X141728795Y-76674647D01*
X142347842Y-76674647D01*
X145299133Y-77916042D02*
X145251514Y-77963661D01*
X145108657Y-78011280D01*
X145013419Y-78011280D01*
X144870561Y-77963661D01*
X144775323Y-77868423D01*
X144727704Y-77773185D01*
X144680085Y-77582709D01*
X144680085Y-77439852D01*
X144727704Y-77249376D01*
X144775323Y-77154138D01*
X144870561Y-77058900D01*
X145013419Y-77011280D01*
X145108657Y-77011280D01*
X145251514Y-77058900D01*
X145299133Y-77106519D01*
X145680085Y-77106519D02*
X145727704Y-77058900D01*
X145822942Y-77011280D01*
X146061038Y-77011280D01*
X146156276Y-77058900D01*
X146203895Y-77106519D01*
X146251514Y-77201757D01*
X146251514Y-77296995D01*
X146203895Y-77439852D01*
X145632466Y-78011280D01*
X146251514Y-78011280D01*
X143775180Y-85389933D02*
X144489466Y-85389933D01*
X144632323Y-85437552D01*
X144727561Y-85532790D01*
X144775180Y-85675647D01*
X144775180Y-85770885D01*
X144775180Y-84913742D02*
X143775180Y-84913742D01*
X143775180Y-84532790D01*
X143822800Y-84437552D01*
X143870419Y-84389933D01*
X143965657Y-84342314D01*
X144108514Y-84342314D01*
X144203752Y-84389933D01*
X144251371Y-84437552D01*
X144298990Y-84532790D01*
X144298990Y-84913742D01*
X144108514Y-83485171D02*
X144775180Y-83485171D01*
X143727561Y-83723266D02*
X144441847Y-83961361D01*
X144441847Y-83342314D01*
X144638780Y-91409733D02*
X145353066Y-91409733D01*
X145495923Y-91457352D01*
X145591161Y-91552590D01*
X145638780Y-91695447D01*
X145638780Y-91790685D01*
X145638780Y-90933542D02*
X144638780Y-90933542D01*
X144638780Y-90552590D01*
X144686400Y-90457352D01*
X144734019Y-90409733D01*
X144829257Y-90362114D01*
X144972114Y-90362114D01*
X145067352Y-90409733D01*
X145114971Y-90457352D01*
X145162590Y-90552590D01*
X145162590Y-90933542D01*
X144734019Y-89981161D02*
X144686400Y-89933542D01*
X144638780Y-89838304D01*
X144638780Y-89600209D01*
X144686400Y-89504971D01*
X144734019Y-89457352D01*
X144829257Y-89409733D01*
X144924495Y-89409733D01*
X145067352Y-89457352D01*
X145638780Y-90028780D01*
X145638780Y-89409733D01*
X155154380Y-87714033D02*
X155868666Y-87714033D01*
X156011523Y-87761652D01*
X156106761Y-87856890D01*
X156154380Y-87999747D01*
X156154380Y-88094985D01*
X156154380Y-87237842D02*
X155154380Y-87237842D01*
X155154380Y-86856890D01*
X155202000Y-86761652D01*
X155249619Y-86714033D01*
X155344857Y-86666414D01*
X155487714Y-86666414D01*
X155582952Y-86714033D01*
X155630571Y-86761652D01*
X155678190Y-86856890D01*
X155678190Y-87237842D01*
X156154380Y-85714033D02*
X156154380Y-86285461D01*
X156154380Y-85999747D02*
X155154380Y-85999747D01*
X155297238Y-86094985D01*
X155392476Y-86190223D01*
X155440095Y-86285461D01*
X150069561Y-94146619D02*
X149974323Y-94099000D01*
X149879085Y-94003761D01*
X149736228Y-93860904D01*
X149640990Y-93813285D01*
X149545752Y-93813285D01*
X149593371Y-94051380D02*
X149498133Y-94003761D01*
X149402895Y-93908523D01*
X149355276Y-93718047D01*
X149355276Y-93384714D01*
X149402895Y-93194238D01*
X149498133Y-93099000D01*
X149593371Y-93051380D01*
X149783847Y-93051380D01*
X149879085Y-93099000D01*
X149974323Y-93194238D01*
X150021942Y-93384714D01*
X150021942Y-93718047D01*
X149974323Y-93908523D01*
X149879085Y-94003761D01*
X149783847Y-94051380D01*
X149593371Y-94051380D01*
X150402895Y-93146619D02*
X150450514Y-93099000D01*
X150545752Y-93051380D01*
X150783847Y-93051380D01*
X150879085Y-93099000D01*
X150926704Y-93146619D01*
X150974323Y-93241857D01*
X150974323Y-93337095D01*
X150926704Y-93479952D01*
X150355276Y-94051380D01*
X150974323Y-94051380D01*
X129232066Y-77468480D02*
X129232066Y-78182766D01*
X129184447Y-78325623D01*
X129089209Y-78420861D01*
X128946352Y-78468480D01*
X128851114Y-78468480D01*
X130232066Y-78468480D02*
X129660638Y-78468480D01*
X129946352Y-78468480D02*
X129946352Y-77468480D01*
X129851114Y-77611338D01*
X129755876Y-77706576D01*
X129660638Y-77754195D01*
X129423809Y-85452380D02*
X129423809Y-84452380D01*
X130471428Y-85357142D02*
X130423809Y-85404761D01*
X130280952Y-85452380D01*
X130185714Y-85452380D01*
X130042857Y-85404761D01*
X129947619Y-85309523D01*
X129900000Y-85214285D01*
X129852380Y-85023809D01*
X129852380Y-84880952D01*
X129900000Y-84690476D01*
X129947619Y-84595238D01*
X130042857Y-84500000D01*
X130185714Y-84452380D01*
X130280952Y-84452380D01*
X130423809Y-84500000D01*
X130471428Y-84547619D01*
X130804761Y-84452380D02*
X131423809Y-84452380D01*
X131090476Y-84833333D01*
X131233333Y-84833333D01*
X131328571Y-84880952D01*
X131376190Y-84928571D01*
X131423809Y-85023809D01*
X131423809Y-85261904D01*
X131376190Y-85357142D01*
X131328571Y-85404761D01*
X131233333Y-85452380D01*
X130947619Y-85452380D01*
X130852380Y-85404761D01*
X130804761Y-85357142D01*
X149077466Y-85554980D02*
X149077466Y-86269266D01*
X149029847Y-86412123D01*
X148934609Y-86507361D01*
X148791752Y-86554980D01*
X148696514Y-86554980D01*
X149553657Y-86554980D02*
X149553657Y-85554980D01*
X149934609Y-85554980D01*
X150029847Y-85602600D01*
X150077466Y-85650219D01*
X150125085Y-85745457D01*
X150125085Y-85888314D01*
X150077466Y-85983552D01*
X150029847Y-86031171D01*
X149934609Y-86078790D01*
X149553657Y-86078790D01*
X150458419Y-85554980D02*
X151077466Y-85554980D01*
X150744133Y-85935933D01*
X150886990Y-85935933D01*
X150982228Y-85983552D01*
X151029847Y-86031171D01*
X151077466Y-86126409D01*
X151077466Y-86364504D01*
X151029847Y-86459742D01*
X150982228Y-86507361D01*
X150886990Y-86554980D01*
X150601276Y-86554980D01*
X150506038Y-86507361D01*
X150458419Y-86459742D01*
X130121066Y-91369080D02*
X130121066Y-92083366D01*
X130073447Y-92226223D01*
X129978209Y-92321461D01*
X129835352Y-92369080D01*
X129740114Y-92369080D01*
X131025828Y-91702414D02*
X131025828Y-92369080D01*
X130787733Y-91321461D02*
X130549638Y-92035747D01*
X131168685Y-92035747D01*
X155611604Y-85415380D02*
X155611604Y-84415380D01*
X155849700Y-84415380D01*
X155992557Y-84463000D01*
X156087795Y-84558238D01*
X156135414Y-84653476D01*
X156183033Y-84843952D01*
X156183033Y-84986809D01*
X156135414Y-85177285D01*
X156087795Y-85272523D01*
X155992557Y-85367761D01*
X155849700Y-85415380D01*
X155611604Y-85415380D01*
X157040176Y-84748714D02*
X157040176Y-85415380D01*
X156802080Y-84367761D02*
X156563985Y-85082047D01*
X157183033Y-85082047D01*
X152103080Y-74817266D02*
X151626890Y-75150600D01*
X152103080Y-75388695D02*
X151103080Y-75388695D01*
X151103080Y-75007742D01*
X151150700Y-74912504D01*
X151198319Y-74864885D01*
X151293557Y-74817266D01*
X151436414Y-74817266D01*
X151531652Y-74864885D01*
X151579271Y-74912504D01*
X151626890Y-75007742D01*
X151626890Y-75388695D01*
X152103080Y-73864885D02*
X152103080Y-74436314D01*
X152103080Y-74150600D02*
X151103080Y-74150600D01*
X151245938Y-74245838D01*
X151341176Y-74341076D01*
X151388795Y-74436314D01*
X156633333Y-74552380D02*
X156300000Y-74076190D01*
X156061904Y-74552380D02*
X156061904Y-73552380D01*
X156442857Y-73552380D01*
X156538095Y-73600000D01*
X156585714Y-73647619D01*
X156633333Y-73742857D01*
X156633333Y-73885714D01*
X156585714Y-73980952D01*
X156538095Y-74028571D01*
X156442857Y-74076190D01*
X156061904Y-74076190D01*
X157490476Y-73552380D02*
X157300000Y-73552380D01*
X157204761Y-73600000D01*
X157157142Y-73647619D01*
X157061904Y-73790476D01*
X157014285Y-73980952D01*
X157014285Y-74361904D01*
X157061904Y-74457142D01*
X157109523Y-74504761D01*
X157204761Y-74552380D01*
X157395238Y-74552380D01*
X157490476Y-74504761D01*
X157538095Y-74457142D01*
X157585714Y-74361904D01*
X157585714Y-74123809D01*
X157538095Y-74028571D01*
X157490476Y-73980952D01*
X157395238Y-73933333D01*
X157204761Y-73933333D01*
X157109523Y-73980952D01*
X157061904Y-74028571D01*
X157014285Y-74123809D01*
X163118895Y-79471780D02*
X163118895Y-78471780D01*
X163118895Y-78947971D02*
X163690323Y-78947971D01*
X163690323Y-79471780D02*
X163690323Y-78471780D01*
X164690323Y-79471780D02*
X164118895Y-79471780D01*
X164404609Y-79471780D02*
X164404609Y-78471780D01*
X164309371Y-78614638D01*
X164214133Y-78709876D01*
X164118895Y-78757495D01*
X136408333Y-95461880D02*
X136075000Y-94985690D01*
X135836904Y-95461880D02*
X135836904Y-94461880D01*
X136217857Y-94461880D01*
X136313095Y-94509500D01*
X136360714Y-94557119D01*
X136408333Y-94652357D01*
X136408333Y-94795214D01*
X136360714Y-94890452D01*
X136313095Y-94938071D01*
X136217857Y-94985690D01*
X135836904Y-94985690D01*
X136884523Y-95461880D02*
X137075000Y-95461880D01*
X137170238Y-95414261D01*
X137217857Y-95366642D01*
X137313095Y-95223785D01*
X137360714Y-95033309D01*
X137360714Y-94652357D01*
X137313095Y-94557119D01*
X137265476Y-94509500D01*
X137170238Y-94461880D01*
X136979761Y-94461880D01*
X136884523Y-94509500D01*
X136836904Y-94557119D01*
X136789285Y-94652357D01*
X136789285Y-94890452D01*
X136836904Y-94985690D01*
X136884523Y-95033309D01*
X136979761Y-95080928D01*
X137170238Y-95080928D01*
X137265476Y-95033309D01*
X137313095Y-94985690D01*
X137360714Y-94890452D01*
X137316533Y-93810680D02*
X136983200Y-93334490D01*
X136745104Y-93810680D02*
X136745104Y-92810680D01*
X137126057Y-92810680D01*
X137221295Y-92858300D01*
X137268914Y-92905919D01*
X137316533Y-93001157D01*
X137316533Y-93144014D01*
X137268914Y-93239252D01*
X137221295Y-93286871D01*
X137126057Y-93334490D01*
X136745104Y-93334490D01*
X137887961Y-93239252D02*
X137792723Y-93191633D01*
X137745104Y-93144014D01*
X137697485Y-93048776D01*
X137697485Y-93001157D01*
X137745104Y-92905919D01*
X137792723Y-92858300D01*
X137887961Y-92810680D01*
X138078438Y-92810680D01*
X138173676Y-92858300D01*
X138221295Y-92905919D01*
X138268914Y-93001157D01*
X138268914Y-93048776D01*
X138221295Y-93144014D01*
X138173676Y-93191633D01*
X138078438Y-93239252D01*
X137887961Y-93239252D01*
X137792723Y-93286871D01*
X137745104Y-93334490D01*
X137697485Y-93429728D01*
X137697485Y-93620204D01*
X137745104Y-93715442D01*
X137792723Y-93763061D01*
X137887961Y-93810680D01*
X138078438Y-93810680D01*
X138173676Y-93763061D01*
X138221295Y-93715442D01*
X138268914Y-93620204D01*
X138268914Y-93429728D01*
X138221295Y-93334490D01*
X138173676Y-93286871D01*
X138078438Y-93239252D01*
X135885180Y-103058790D02*
X134885180Y-103058790D01*
X135789942Y-102011171D02*
X135837561Y-102058790D01*
X135885180Y-102201647D01*
X135885180Y-102296885D01*
X135837561Y-102439742D01*
X135742323Y-102534980D01*
X135647085Y-102582600D01*
X135456609Y-102630219D01*
X135313752Y-102630219D01*
X135123276Y-102582600D01*
X135028038Y-102534980D01*
X134932800Y-102439742D01*
X134885180Y-102296885D01*
X134885180Y-102201647D01*
X134932800Y-102058790D01*
X134980419Y-102011171D01*
X134980419Y-101630219D02*
X134932800Y-101582600D01*
X134885180Y-101487361D01*
X134885180Y-101249266D01*
X134932800Y-101154028D01*
X134980419Y-101106409D01*
X135075657Y-101058790D01*
X135170895Y-101058790D01*
X135313752Y-101106409D01*
X135885180Y-101677838D01*
X135885180Y-101058790D01*
X134552380Y-78361904D02*
X135361904Y-78361904D01*
X135457142Y-78314285D01*
X135504761Y-78266666D01*
X135552380Y-78171428D01*
X135552380Y-77980952D01*
X135504761Y-77885714D01*
X135457142Y-77838095D01*
X135361904Y-77790476D01*
X134552380Y-77790476D01*
X135552380Y-76790476D02*
X135552380Y-77361904D01*
X135552380Y-77076190D02*
X134552380Y-77076190D01*
X134695238Y-77171428D01*
X134790476Y-77266666D01*
X134838095Y-77361904D01*
X134127142Y-81666666D02*
X134174761Y-81714285D01*
X134222380Y-81857142D01*
X134222380Y-81952380D01*
X134174761Y-82095238D01*
X134079523Y-82190476D01*
X133984285Y-82238095D01*
X133793809Y-82285714D01*
X133650952Y-82285714D01*
X133460476Y-82238095D01*
X133365238Y-82190476D01*
X133270000Y-82095238D01*
X133222380Y-81952380D01*
X133222380Y-81857142D01*
X133270000Y-81714285D01*
X133317619Y-81666666D01*
X133222380Y-80761904D02*
X133222380Y-81238095D01*
X133698571Y-81285714D01*
X133650952Y-81238095D01*
X133603333Y-81142857D01*
X133603333Y-80904761D01*
X133650952Y-80809523D01*
X133698571Y-80761904D01*
X133793809Y-80714285D01*
X134031904Y-80714285D01*
X134127142Y-80761904D01*
X134174761Y-80809523D01*
X134222380Y-80904761D01*
X134222380Y-81142857D01*
X134174761Y-81238095D01*
X134127142Y-81285714D01*
X136933333Y-73827142D02*
X136885714Y-73874761D01*
X136742857Y-73922380D01*
X136647619Y-73922380D01*
X136504761Y-73874761D01*
X136409523Y-73779523D01*
X136361904Y-73684285D01*
X136314285Y-73493809D01*
X136314285Y-73350952D01*
X136361904Y-73160476D01*
X136409523Y-73065238D01*
X136504761Y-72970000D01*
X136647619Y-72922380D01*
X136742857Y-72922380D01*
X136885714Y-72970000D01*
X136933333Y-73017619D01*
X137790476Y-73255714D02*
X137790476Y-73922380D01*
X137552380Y-72874761D02*
X137314285Y-73589047D01*
X137933333Y-73589047D01*
D15*
X154867412Y-79355681D02*
X154387412Y-79355681D01*
X154821698Y-78852824D02*
X154844555Y-78875681D01*
X154867412Y-78944252D01*
X154867412Y-78989967D01*
X154844555Y-79058538D01*
X154798841Y-79104252D01*
X154753127Y-79127110D01*
X154661698Y-79149967D01*
X154593127Y-79149967D01*
X154501698Y-79127110D01*
X154455984Y-79104252D01*
X154410270Y-79058538D01*
X154387412Y-78989967D01*
X154387412Y-78944252D01*
X154410270Y-78875681D01*
X154433127Y-78852824D01*
X154547412Y-78441395D02*
X154867412Y-78441395D01*
X154364555Y-78555681D02*
X154707412Y-78669967D01*
X154707412Y-78372824D01*
D11*
X147829709Y-74506080D02*
X147829709Y-73506080D01*
X148877328Y-74410842D02*
X148829709Y-74458461D01*
X148686852Y-74506080D01*
X148591614Y-74506080D01*
X148448757Y-74458461D01*
X148353519Y-74363223D01*
X148305900Y-74267985D01*
X148258280Y-74077509D01*
X148258280Y-73934652D01*
X148305900Y-73744176D01*
X148353519Y-73648938D01*
X148448757Y-73553700D01*
X148591614Y-73506080D01*
X148686852Y-73506080D01*
X148829709Y-73553700D01*
X148877328Y-73601319D01*
X149829709Y-74506080D02*
X149258280Y-74506080D01*
X149543995Y-74506080D02*
X149543995Y-73506080D01*
X149448757Y-73648938D01*
X149353519Y-73744176D01*
X149258280Y-73791795D01*
X154935180Y-76722266D02*
X154458990Y-77055600D01*
X154935180Y-77293695D02*
X153935180Y-77293695D01*
X153935180Y-76912742D01*
X153982800Y-76817504D01*
X154030419Y-76769885D01*
X154125657Y-76722266D01*
X154268514Y-76722266D01*
X154363752Y-76769885D01*
X154411371Y-76817504D01*
X154458990Y-76912742D01*
X154458990Y-77293695D01*
X153935180Y-76388933D02*
X153935180Y-75722266D01*
X154935180Y-76150838D01*
X143419533Y-76766680D02*
X143086200Y-76290490D01*
X142848104Y-76766680D02*
X142848104Y-75766680D01*
X143229057Y-75766680D01*
X143324295Y-75814300D01*
X143371914Y-75861919D01*
X143419533Y-75957157D01*
X143419533Y-76100014D01*
X143371914Y-76195252D01*
X143324295Y-76242871D01*
X143229057Y-76290490D01*
X142848104Y-76290490D01*
X144324295Y-75766680D02*
X143848104Y-75766680D01*
X143800485Y-76242871D01*
X143848104Y-76195252D01*
X143943342Y-76147633D01*
X144181438Y-76147633D01*
X144276676Y-76195252D01*
X144324295Y-76242871D01*
X144371914Y-76338109D01*
X144371914Y-76576204D01*
X144324295Y-76671442D01*
X144276676Y-76719061D01*
X144181438Y-76766680D01*
X143943342Y-76766680D01*
X143848104Y-76719061D01*
X143800485Y-76671442D01*
X144457680Y-80760866D02*
X143981490Y-81094200D01*
X144457680Y-81332295D02*
X143457680Y-81332295D01*
X143457680Y-80951342D01*
X143505300Y-80856104D01*
X143552919Y-80808485D01*
X143648157Y-80760866D01*
X143791014Y-80760866D01*
X143886252Y-80808485D01*
X143933871Y-80856104D01*
X143981490Y-80951342D01*
X143981490Y-81332295D01*
X143791014Y-79903723D02*
X144457680Y-79903723D01*
X143410061Y-80141819D02*
X144124347Y-80379914D01*
X144124347Y-79760866D01*
X144533880Y-82538866D02*
X144057690Y-82872200D01*
X144533880Y-83110295D02*
X143533880Y-83110295D01*
X143533880Y-82729342D01*
X143581500Y-82634104D01*
X143629119Y-82586485D01*
X143724357Y-82538866D01*
X143867214Y-82538866D01*
X143962452Y-82586485D01*
X144010071Y-82634104D01*
X144057690Y-82729342D01*
X144057690Y-83110295D01*
X143533880Y-82205533D02*
X143533880Y-81586485D01*
X143914833Y-81919819D01*
X143914833Y-81776961D01*
X143962452Y-81681723D01*
X144010071Y-81634104D01*
X144105309Y-81586485D01*
X144343404Y-81586485D01*
X144438642Y-81634104D01*
X144486261Y-81681723D01*
X144533880Y-81776961D01*
X144533880Y-82062676D01*
X144486261Y-82157914D01*
X144438642Y-82205533D01*
X139752380Y-85166666D02*
X139276190Y-85500000D01*
X139752380Y-85738095D02*
X138752380Y-85738095D01*
X138752380Y-85357142D01*
X138800000Y-85261904D01*
X138847619Y-85214285D01*
X138942857Y-85166666D01*
X139085714Y-85166666D01*
X139180952Y-85214285D01*
X139228571Y-85261904D01*
X139276190Y-85357142D01*
X139276190Y-85738095D01*
X138847619Y-84785714D02*
X138800000Y-84738095D01*
X138752380Y-84642857D01*
X138752380Y-84404761D01*
X138800000Y-84309523D01*
X138847619Y-84261904D01*
X138942857Y-84214285D01*
X139038095Y-84214285D01*
X139180952Y-84261904D01*
X139752380Y-84833333D01*
X139752380Y-84214285D01*
X149663161Y-79363819D02*
X149567923Y-79316200D01*
X149472685Y-79220961D01*
X149329828Y-79078104D01*
X149234590Y-79030485D01*
X149139352Y-79030485D01*
X149186971Y-79268580D02*
X149091733Y-79220961D01*
X148996495Y-79125723D01*
X148948876Y-78935247D01*
X148948876Y-78601914D01*
X148996495Y-78411438D01*
X149091733Y-78316200D01*
X149186971Y-78268580D01*
X149377447Y-78268580D01*
X149472685Y-78316200D01*
X149567923Y-78411438D01*
X149615542Y-78601914D01*
X149615542Y-78935247D01*
X149567923Y-79125723D01*
X149472685Y-79220961D01*
X149377447Y-79268580D01*
X149186971Y-79268580D01*
X150567923Y-79268580D02*
X149996495Y-79268580D01*
X150282209Y-79268580D02*
X150282209Y-78268580D01*
X150186971Y-78411438D01*
X150091733Y-78506676D01*
X149996495Y-78554295D01*
X125072871Y-75555271D02*
X124739538Y-75555271D01*
X124739538Y-76079080D02*
X124739538Y-75079080D01*
X125215728Y-75079080D01*
X125596680Y-76079080D02*
X125596680Y-75079080D01*
X126072871Y-76079080D02*
X126072871Y-75079080D01*
X126310966Y-75079080D01*
X126453823Y-75126700D01*
X126549061Y-75221938D01*
X126596680Y-75317176D01*
X126644300Y-75507652D01*
X126644300Y-75650509D01*
X126596680Y-75840985D01*
X126549061Y-75936223D01*
X126453823Y-76031461D01*
X126310966Y-76079080D01*
X126072871Y-76079080D01*
X127025252Y-75174319D02*
X127072871Y-75126700D01*
X127168109Y-75079080D01*
X127406204Y-75079080D01*
X127501442Y-75126700D01*
X127549061Y-75174319D01*
X127596680Y-75269557D01*
X127596680Y-75364795D01*
X127549061Y-75507652D01*
X126977633Y-76079080D01*
X127596680Y-76079080D01*
X160155071Y-102544571D02*
X159821738Y-102544571D01*
X159821738Y-103068380D02*
X159821738Y-102068380D01*
X160297928Y-102068380D01*
X160678880Y-103068380D02*
X160678880Y-102068380D01*
X161155071Y-103068380D02*
X161155071Y-102068380D01*
X161393166Y-102068380D01*
X161536023Y-102116000D01*
X161631261Y-102211238D01*
X161678880Y-102306476D01*
X161726500Y-102496952D01*
X161726500Y-102639809D01*
X161678880Y-102830285D01*
X161631261Y-102925523D01*
X161536023Y-103020761D01*
X161393166Y-103068380D01*
X161155071Y-103068380D01*
X162678880Y-103068380D02*
X162107452Y-103068380D01*
X162393166Y-103068380D02*
X162393166Y-102068380D01*
X162297928Y-102211238D01*
X162202690Y-102306476D01*
X162107452Y-102354095D01*
X134148604Y-84678780D02*
X134148604Y-83678780D01*
X134386700Y-83678780D01*
X134529557Y-83726400D01*
X134624795Y-83821638D01*
X134672414Y-83916876D01*
X134720033Y-84107352D01*
X134720033Y-84250209D01*
X134672414Y-84440685D01*
X134624795Y-84535923D01*
X134529557Y-84631161D01*
X134386700Y-84678780D01*
X134148604Y-84678780D01*
X135053366Y-83678780D02*
X135672414Y-83678780D01*
X135339080Y-84059733D01*
X135481938Y-84059733D01*
X135577176Y-84107352D01*
X135624795Y-84154971D01*
X135672414Y-84250209D01*
X135672414Y-84488304D01*
X135624795Y-84583542D01*
X135577176Y-84631161D01*
X135481938Y-84678780D01*
X135196223Y-84678780D01*
X135100985Y-84631161D01*
X135053366Y-84583542D01*
X160323233Y-81472042D02*
X160275614Y-81519661D01*
X160132757Y-81567280D01*
X160037519Y-81567280D01*
X159894661Y-81519661D01*
X159799423Y-81424423D01*
X159751804Y-81329185D01*
X159704185Y-81138709D01*
X159704185Y-80995852D01*
X159751804Y-80805376D01*
X159799423Y-80710138D01*
X159894661Y-80614900D01*
X160037519Y-80567280D01*
X160132757Y-80567280D01*
X160275614Y-80614900D01*
X160323233Y-80662519D01*
X160656566Y-80567280D02*
X161275614Y-80567280D01*
X160942280Y-80948233D01*
X161085138Y-80948233D01*
X161180376Y-80995852D01*
X161227995Y-81043471D01*
X161275614Y-81138709D01*
X161275614Y-81376804D01*
X161227995Y-81472042D01*
X161180376Y-81519661D01*
X161085138Y-81567280D01*
X160799423Y-81567280D01*
X160704185Y-81519661D01*
X160656566Y-81472042D01*
X158380133Y-85205842D02*
X158332514Y-85253461D01*
X158189657Y-85301080D01*
X158094419Y-85301080D01*
X157951561Y-85253461D01*
X157856323Y-85158223D01*
X157808704Y-85062985D01*
X157761085Y-84872509D01*
X157761085Y-84729652D01*
X157808704Y-84539176D01*
X157856323Y-84443938D01*
X157951561Y-84348700D01*
X158094419Y-84301080D01*
X158189657Y-84301080D01*
X158332514Y-84348700D01*
X158380133Y-84396319D01*
X159332514Y-85301080D02*
X158761085Y-85301080D01*
X159046800Y-85301080D02*
X159046800Y-84301080D01*
X158951561Y-84443938D01*
X158856323Y-84539176D01*
X158761085Y-84586795D01*
M02*
