G04 #@! TF.GenerationSoftware,KiCad,Pcbnew,(5.1.5)-3*
G04 #@! TF.CreationDate,2020-04-24T14:35:50-04:00*
G04 #@! TF.ProjectId,CR2025_Nordic,43523230-3235-45f4-9e6f-726469632e6b,rev?*
G04 #@! TF.SameCoordinates,Original*
G04 #@! TF.FileFunction,Soldermask,Top*
G04 #@! TF.FilePolarity,Negative*
%FSLAX46Y46*%
G04 Gerber Fmt 4.6, Leading zero omitted, Abs format (unit mm)*
G04 Created by KiCad (PCBNEW (5.1.5)-3) date 2020-04-24 14:35:50*
%MOMM*%
%LPD*%
G04 APERTURE LIST*
%ADD10C,0.100000*%
G04 APERTURE END LIST*
D10*
G36*
X133964928Y-101251764D02*
G01*
X133986009Y-101258160D01*
X134005445Y-101268548D01*
X134022476Y-101282524D01*
X134036452Y-101299555D01*
X134046840Y-101318991D01*
X134053236Y-101340072D01*
X134056000Y-101368140D01*
X134056000Y-103181860D01*
X134053236Y-103209928D01*
X134046840Y-103231009D01*
X134036452Y-103250445D01*
X134022476Y-103267476D01*
X134005445Y-103281452D01*
X133986009Y-103291840D01*
X133964928Y-103298236D01*
X133936860Y-103301000D01*
X133473140Y-103301000D01*
X133445072Y-103298236D01*
X133423991Y-103291840D01*
X133404555Y-103281452D01*
X133387524Y-103267476D01*
X133373548Y-103250445D01*
X133363160Y-103231009D01*
X133356764Y-103209928D01*
X133354000Y-103181860D01*
X133354000Y-101368140D01*
X133356764Y-101340072D01*
X133363160Y-101318991D01*
X133373548Y-101299555D01*
X133387524Y-101282524D01*
X133404555Y-101268548D01*
X133423991Y-101258160D01*
X133445072Y-101251764D01*
X133473140Y-101249000D01*
X133936860Y-101249000D01*
X133964928Y-101251764D01*
G37*
G36*
X131424928Y-101251764D02*
G01*
X131446009Y-101258160D01*
X131465445Y-101268548D01*
X131482476Y-101282524D01*
X131496452Y-101299555D01*
X131506840Y-101318991D01*
X131513236Y-101340072D01*
X131516000Y-101368140D01*
X131516000Y-103181860D01*
X131513236Y-103209928D01*
X131506840Y-103231009D01*
X131496452Y-103250445D01*
X131482476Y-103267476D01*
X131465445Y-103281452D01*
X131446009Y-103291840D01*
X131424928Y-103298236D01*
X131396860Y-103301000D01*
X130933140Y-103301000D01*
X130905072Y-103298236D01*
X130883991Y-103291840D01*
X130864555Y-103281452D01*
X130847524Y-103267476D01*
X130833548Y-103250445D01*
X130823160Y-103231009D01*
X130816764Y-103209928D01*
X130814000Y-103181860D01*
X130814000Y-101368140D01*
X130816764Y-101340072D01*
X130823160Y-101318991D01*
X130833548Y-101299555D01*
X130847524Y-101282524D01*
X130864555Y-101268548D01*
X130883991Y-101258160D01*
X130905072Y-101251764D01*
X130933140Y-101249000D01*
X131396860Y-101249000D01*
X131424928Y-101251764D01*
G37*
G36*
X130154928Y-101251764D02*
G01*
X130176009Y-101258160D01*
X130195445Y-101268548D01*
X130212476Y-101282524D01*
X130226452Y-101299555D01*
X130236840Y-101318991D01*
X130243236Y-101340072D01*
X130246000Y-101368140D01*
X130246000Y-103181860D01*
X130243236Y-103209928D01*
X130236840Y-103231009D01*
X130226452Y-103250445D01*
X130212476Y-103267476D01*
X130195445Y-103281452D01*
X130176009Y-103291840D01*
X130154928Y-103298236D01*
X130126860Y-103301000D01*
X129663140Y-103301000D01*
X129635072Y-103298236D01*
X129613991Y-103291840D01*
X129594555Y-103281452D01*
X129577524Y-103267476D01*
X129563548Y-103250445D01*
X129553160Y-103231009D01*
X129546764Y-103209928D01*
X129544000Y-103181860D01*
X129544000Y-101368140D01*
X129546764Y-101340072D01*
X129553160Y-101318991D01*
X129563548Y-101299555D01*
X129577524Y-101282524D01*
X129594555Y-101268548D01*
X129613991Y-101258160D01*
X129635072Y-101251764D01*
X129663140Y-101249000D01*
X130126860Y-101249000D01*
X130154928Y-101251764D01*
G37*
G36*
X132694928Y-101251764D02*
G01*
X132716009Y-101258160D01*
X132735445Y-101268548D01*
X132752476Y-101282524D01*
X132766452Y-101299555D01*
X132776840Y-101318991D01*
X132783236Y-101340072D01*
X132786000Y-101368140D01*
X132786000Y-103181860D01*
X132783236Y-103209928D01*
X132776840Y-103231009D01*
X132766452Y-103250445D01*
X132752476Y-103267476D01*
X132735445Y-103281452D01*
X132716009Y-103291840D01*
X132694928Y-103298236D01*
X132666860Y-103301000D01*
X132203140Y-103301000D01*
X132175072Y-103298236D01*
X132153991Y-103291840D01*
X132134555Y-103281452D01*
X132117524Y-103267476D01*
X132103548Y-103250445D01*
X132093160Y-103231009D01*
X132086764Y-103209928D01*
X132084000Y-103181860D01*
X132084000Y-101368140D01*
X132086764Y-101340072D01*
X132093160Y-101318991D01*
X132103548Y-101299555D01*
X132117524Y-101282524D01*
X132134555Y-101268548D01*
X132153991Y-101258160D01*
X132175072Y-101251764D01*
X132203140Y-101249000D01*
X132666860Y-101249000D01*
X132694928Y-101251764D01*
G37*
G36*
X163745843Y-102119214D02*
G01*
X163745846Y-102119215D01*
X163745845Y-102119215D01*
X163836839Y-102156906D01*
X163878063Y-102184451D01*
X163918730Y-102211624D01*
X163988376Y-102281270D01*
X164043095Y-102363163D01*
X164080786Y-102454157D01*
X164100000Y-102550753D01*
X164100000Y-102649247D01*
X164080786Y-102745843D01*
X164080785Y-102745845D01*
X164043094Y-102836839D01*
X163988375Y-102918731D01*
X163918731Y-102988375D01*
X163836839Y-103043094D01*
X163836838Y-103043095D01*
X163836837Y-103043095D01*
X163745843Y-103080786D01*
X163649247Y-103100000D01*
X163550753Y-103100000D01*
X163454157Y-103080786D01*
X163363163Y-103043095D01*
X163363162Y-103043095D01*
X163363161Y-103043094D01*
X163281269Y-102988375D01*
X163211625Y-102918731D01*
X163156906Y-102836839D01*
X163119215Y-102745845D01*
X163119214Y-102745843D01*
X163100000Y-102649247D01*
X163100000Y-102550753D01*
X163119214Y-102454157D01*
X163156905Y-102363163D01*
X163211624Y-102281270D01*
X163281270Y-102211624D01*
X163321937Y-102184451D01*
X163363161Y-102156906D01*
X163454155Y-102119215D01*
X163454154Y-102119215D01*
X163454157Y-102119214D01*
X163550753Y-102100000D01*
X163649247Y-102100000D01*
X163745843Y-102119214D01*
G37*
G36*
X127093028Y-101007183D02*
G01*
X127281722Y-101064423D01*
X127455615Y-101157371D01*
X127608039Y-101282461D01*
X127733129Y-101434885D01*
X127826077Y-101608778D01*
X127883317Y-101797472D01*
X127902643Y-101993700D01*
X127883317Y-102189928D01*
X127836732Y-102343496D01*
X127830767Y-102363163D01*
X127826077Y-102378622D01*
X127733129Y-102552515D01*
X127608039Y-102704939D01*
X127455615Y-102830029D01*
X127281722Y-102922977D01*
X127093028Y-102980217D01*
X126945975Y-102994700D01*
X126647625Y-102994700D01*
X126500572Y-102980217D01*
X126311878Y-102922977D01*
X126137985Y-102830029D01*
X125985561Y-102704939D01*
X125860471Y-102552515D01*
X125767523Y-102378622D01*
X125762834Y-102363163D01*
X125756868Y-102343496D01*
X125710283Y-102189928D01*
X125690957Y-101993700D01*
X125710283Y-101797472D01*
X125767523Y-101608778D01*
X125860471Y-101434885D01*
X125985561Y-101282461D01*
X126137985Y-101157371D01*
X126311878Y-101064423D01*
X126500572Y-101007183D01*
X126647625Y-100992700D01*
X126945975Y-100992700D01*
X127093028Y-101007183D01*
G37*
G36*
X142303028Y-101007183D02*
G01*
X142491722Y-101064423D01*
X142665615Y-101157371D01*
X142818039Y-101282461D01*
X142943129Y-101434885D01*
X143036077Y-101608778D01*
X143093317Y-101797472D01*
X143112643Y-101993700D01*
X143093317Y-102189928D01*
X143046732Y-102343496D01*
X143040767Y-102363163D01*
X143036077Y-102378622D01*
X142943129Y-102552515D01*
X142818039Y-102704939D01*
X142665615Y-102830029D01*
X142491722Y-102922977D01*
X142303028Y-102980217D01*
X142155975Y-102994700D01*
X141857625Y-102994700D01*
X141710572Y-102980217D01*
X141521878Y-102922977D01*
X141347985Y-102830029D01*
X141195561Y-102704939D01*
X141070471Y-102552515D01*
X140977523Y-102378622D01*
X140972834Y-102363163D01*
X140966868Y-102343496D01*
X140920283Y-102189928D01*
X140900957Y-101993700D01*
X140920283Y-101797472D01*
X140977523Y-101608778D01*
X141070471Y-101434885D01*
X141195561Y-101282461D01*
X141347985Y-101157371D01*
X141521878Y-101064423D01*
X141710572Y-101007183D01*
X141857625Y-100992700D01*
X142155975Y-100992700D01*
X142303028Y-101007183D01*
G37*
G36*
X127093028Y-98467183D02*
G01*
X127281722Y-98524423D01*
X127455615Y-98617371D01*
X127608039Y-98742461D01*
X127733129Y-98894885D01*
X127826077Y-99068778D01*
X127883317Y-99257472D01*
X127902643Y-99453700D01*
X127883317Y-99649928D01*
X127826077Y-99838622D01*
X127733129Y-100012515D01*
X127608039Y-100164939D01*
X127455615Y-100290029D01*
X127281722Y-100382977D01*
X127093028Y-100440217D01*
X126945975Y-100454700D01*
X126647625Y-100454700D01*
X126500572Y-100440217D01*
X126311878Y-100382977D01*
X126137985Y-100290029D01*
X125985561Y-100164939D01*
X125860471Y-100012515D01*
X125767523Y-99838622D01*
X125710283Y-99649928D01*
X125690957Y-99453700D01*
X125710283Y-99257472D01*
X125767523Y-99068778D01*
X125860471Y-98894885D01*
X125985561Y-98742461D01*
X126137985Y-98617371D01*
X126311878Y-98524423D01*
X126500572Y-98467183D01*
X126647625Y-98452700D01*
X126945975Y-98452700D01*
X127093028Y-98467183D01*
G37*
G36*
X142303028Y-98467183D02*
G01*
X142491722Y-98524423D01*
X142665615Y-98617371D01*
X142818039Y-98742461D01*
X142943129Y-98894885D01*
X143036077Y-99068778D01*
X143093317Y-99257472D01*
X143112643Y-99453700D01*
X143093317Y-99649928D01*
X143036077Y-99838622D01*
X142943129Y-100012515D01*
X142818039Y-100164939D01*
X142665615Y-100290029D01*
X142491722Y-100382977D01*
X142303028Y-100440217D01*
X142155975Y-100454700D01*
X141857625Y-100454700D01*
X141710572Y-100440217D01*
X141521878Y-100382977D01*
X141347985Y-100290029D01*
X141195561Y-100164939D01*
X141070471Y-100012515D01*
X140977523Y-99838622D01*
X140920283Y-99649928D01*
X140900957Y-99453700D01*
X140920283Y-99257472D01*
X140977523Y-99068778D01*
X141070471Y-98894885D01*
X141195561Y-98742461D01*
X141347985Y-98617371D01*
X141521878Y-98524423D01*
X141710572Y-98467183D01*
X141857625Y-98452700D01*
X142155975Y-98452700D01*
X142303028Y-98467183D01*
G37*
G36*
X130154928Y-96301764D02*
G01*
X130176009Y-96308160D01*
X130195445Y-96318548D01*
X130212476Y-96332524D01*
X130226452Y-96349555D01*
X130236840Y-96368991D01*
X130243236Y-96390072D01*
X130246000Y-96418140D01*
X130246000Y-98231860D01*
X130243236Y-98259928D01*
X130236840Y-98281009D01*
X130226452Y-98300445D01*
X130212476Y-98317476D01*
X130195445Y-98331452D01*
X130176009Y-98341840D01*
X130154928Y-98348236D01*
X130126860Y-98351000D01*
X129663140Y-98351000D01*
X129635072Y-98348236D01*
X129613991Y-98341840D01*
X129594555Y-98331452D01*
X129577524Y-98317476D01*
X129563548Y-98300445D01*
X129553160Y-98281009D01*
X129546764Y-98259928D01*
X129544000Y-98231860D01*
X129544000Y-96418140D01*
X129546764Y-96390072D01*
X129553160Y-96368991D01*
X129563548Y-96349555D01*
X129577524Y-96332524D01*
X129594555Y-96318548D01*
X129613991Y-96308160D01*
X129635072Y-96301764D01*
X129663140Y-96299000D01*
X130126860Y-96299000D01*
X130154928Y-96301764D01*
G37*
G36*
X131424928Y-96301764D02*
G01*
X131446009Y-96308160D01*
X131465445Y-96318548D01*
X131482476Y-96332524D01*
X131496452Y-96349555D01*
X131506840Y-96368991D01*
X131513236Y-96390072D01*
X131516000Y-96418140D01*
X131516000Y-98231860D01*
X131513236Y-98259928D01*
X131506840Y-98281009D01*
X131496452Y-98300445D01*
X131482476Y-98317476D01*
X131465445Y-98331452D01*
X131446009Y-98341840D01*
X131424928Y-98348236D01*
X131396860Y-98351000D01*
X130933140Y-98351000D01*
X130905072Y-98348236D01*
X130883991Y-98341840D01*
X130864555Y-98331452D01*
X130847524Y-98317476D01*
X130833548Y-98300445D01*
X130823160Y-98281009D01*
X130816764Y-98259928D01*
X130814000Y-98231860D01*
X130814000Y-96418140D01*
X130816764Y-96390072D01*
X130823160Y-96368991D01*
X130833548Y-96349555D01*
X130847524Y-96332524D01*
X130864555Y-96318548D01*
X130883991Y-96308160D01*
X130905072Y-96301764D01*
X130933140Y-96299000D01*
X131396860Y-96299000D01*
X131424928Y-96301764D01*
G37*
G36*
X132694928Y-96301764D02*
G01*
X132716009Y-96308160D01*
X132735445Y-96318548D01*
X132752476Y-96332524D01*
X132766452Y-96349555D01*
X132776840Y-96368991D01*
X132783236Y-96390072D01*
X132786000Y-96418140D01*
X132786000Y-98231860D01*
X132783236Y-98259928D01*
X132776840Y-98281009D01*
X132766452Y-98300445D01*
X132752476Y-98317476D01*
X132735445Y-98331452D01*
X132716009Y-98341840D01*
X132694928Y-98348236D01*
X132666860Y-98351000D01*
X132203140Y-98351000D01*
X132175072Y-98348236D01*
X132153991Y-98341840D01*
X132134555Y-98331452D01*
X132117524Y-98317476D01*
X132103548Y-98300445D01*
X132093160Y-98281009D01*
X132086764Y-98259928D01*
X132084000Y-98231860D01*
X132084000Y-96418140D01*
X132086764Y-96390072D01*
X132093160Y-96368991D01*
X132103548Y-96349555D01*
X132117524Y-96332524D01*
X132134555Y-96318548D01*
X132153991Y-96308160D01*
X132175072Y-96301764D01*
X132203140Y-96299000D01*
X132666860Y-96299000D01*
X132694928Y-96301764D01*
G37*
G36*
X133964928Y-96301764D02*
G01*
X133986009Y-96308160D01*
X134005445Y-96318548D01*
X134022476Y-96332524D01*
X134036452Y-96349555D01*
X134046840Y-96368991D01*
X134053236Y-96390072D01*
X134056000Y-96418140D01*
X134056000Y-98231860D01*
X134053236Y-98259928D01*
X134046840Y-98281009D01*
X134036452Y-98300445D01*
X134022476Y-98317476D01*
X134005445Y-98331452D01*
X133986009Y-98341840D01*
X133964928Y-98348236D01*
X133936860Y-98351000D01*
X133473140Y-98351000D01*
X133445072Y-98348236D01*
X133423991Y-98341840D01*
X133404555Y-98331452D01*
X133387524Y-98317476D01*
X133373548Y-98300445D01*
X133363160Y-98281009D01*
X133356764Y-98259928D01*
X133354000Y-98231860D01*
X133354000Y-96418140D01*
X133356764Y-96390072D01*
X133363160Y-96368991D01*
X133373548Y-96349555D01*
X133387524Y-96332524D01*
X133404555Y-96318548D01*
X133423991Y-96308160D01*
X133445072Y-96301764D01*
X133473140Y-96299000D01*
X133936860Y-96299000D01*
X133964928Y-96301764D01*
G37*
G36*
X142303028Y-95927183D02*
G01*
X142491722Y-95984423D01*
X142665615Y-96077371D01*
X142818039Y-96202461D01*
X142943129Y-96354885D01*
X143036077Y-96528778D01*
X143093317Y-96717472D01*
X143112643Y-96913700D01*
X143093317Y-97109928D01*
X143036077Y-97298622D01*
X142943129Y-97472515D01*
X142818039Y-97624939D01*
X142665615Y-97750029D01*
X142491722Y-97842977D01*
X142303028Y-97900217D01*
X142155975Y-97914700D01*
X141857625Y-97914700D01*
X141710572Y-97900217D01*
X141521878Y-97842977D01*
X141347985Y-97750029D01*
X141195561Y-97624939D01*
X141070471Y-97472515D01*
X140977523Y-97298622D01*
X140920283Y-97109928D01*
X140900957Y-96913700D01*
X140920283Y-96717472D01*
X140977523Y-96528778D01*
X141070471Y-96354885D01*
X141195561Y-96202461D01*
X141347985Y-96077371D01*
X141521878Y-95984423D01*
X141710572Y-95927183D01*
X141857625Y-95912700D01*
X142155975Y-95912700D01*
X142303028Y-95927183D01*
G37*
G36*
X127093028Y-95927183D02*
G01*
X127281722Y-95984423D01*
X127455615Y-96077371D01*
X127608039Y-96202461D01*
X127733129Y-96354885D01*
X127826077Y-96528778D01*
X127883317Y-96717472D01*
X127902643Y-96913700D01*
X127883317Y-97109928D01*
X127826077Y-97298622D01*
X127733129Y-97472515D01*
X127608039Y-97624939D01*
X127455615Y-97750029D01*
X127281722Y-97842977D01*
X127093028Y-97900217D01*
X126945975Y-97914700D01*
X126647625Y-97914700D01*
X126500572Y-97900217D01*
X126311878Y-97842977D01*
X126137985Y-97750029D01*
X125985561Y-97624939D01*
X125860471Y-97472515D01*
X125767523Y-97298622D01*
X125710283Y-97109928D01*
X125690957Y-96913700D01*
X125710283Y-96717472D01*
X125767523Y-96528778D01*
X125860471Y-96354885D01*
X125985561Y-96202461D01*
X126137985Y-96077371D01*
X126311878Y-95984423D01*
X126500572Y-95927183D01*
X126647625Y-95912700D01*
X126945975Y-95912700D01*
X127093028Y-95927183D01*
G37*
G36*
X133499099Y-94398245D02*
G01*
X133536595Y-94409620D01*
X133571154Y-94428092D01*
X133601447Y-94452953D01*
X133626308Y-94483246D01*
X133644780Y-94517805D01*
X133656155Y-94555301D01*
X133660600Y-94600438D01*
X133660600Y-95239162D01*
X133656155Y-95284299D01*
X133644780Y-95321795D01*
X133626308Y-95356354D01*
X133601447Y-95386647D01*
X133571154Y-95411508D01*
X133536595Y-95429980D01*
X133499099Y-95441355D01*
X133453962Y-95445800D01*
X132715238Y-95445800D01*
X132670101Y-95441355D01*
X132632605Y-95429980D01*
X132598046Y-95411508D01*
X132567753Y-95386647D01*
X132542892Y-95356354D01*
X132524420Y-95321795D01*
X132513045Y-95284299D01*
X132508600Y-95239162D01*
X132508600Y-94600438D01*
X132513045Y-94555301D01*
X132524420Y-94517805D01*
X132542892Y-94483246D01*
X132567753Y-94452953D01*
X132598046Y-94428092D01*
X132632605Y-94409620D01*
X132670101Y-94398245D01*
X132715238Y-94393800D01*
X133453962Y-94393800D01*
X133499099Y-94398245D01*
G37*
G36*
X135249099Y-94398245D02*
G01*
X135286595Y-94409620D01*
X135321154Y-94428092D01*
X135351447Y-94452953D01*
X135376308Y-94483246D01*
X135394780Y-94517805D01*
X135406155Y-94555301D01*
X135410600Y-94600438D01*
X135410600Y-95239162D01*
X135406155Y-95284299D01*
X135394780Y-95321795D01*
X135376308Y-95356354D01*
X135351447Y-95386647D01*
X135321154Y-95411508D01*
X135286595Y-95429980D01*
X135249099Y-95441355D01*
X135203962Y-95445800D01*
X134465238Y-95445800D01*
X134420101Y-95441355D01*
X134382605Y-95429980D01*
X134348046Y-95411508D01*
X134317753Y-95386647D01*
X134292892Y-95356354D01*
X134274420Y-95321795D01*
X134263045Y-95284299D01*
X134258600Y-95239162D01*
X134258600Y-94600438D01*
X134263045Y-94555301D01*
X134274420Y-94517805D01*
X134292892Y-94483246D01*
X134317753Y-94452953D01*
X134348046Y-94428092D01*
X134382605Y-94409620D01*
X134420101Y-94398245D01*
X134465238Y-94393800D01*
X135203962Y-94393800D01*
X135249099Y-94398245D01*
G37*
G36*
X127093028Y-93387183D02*
G01*
X127281722Y-93444423D01*
X127455615Y-93537371D01*
X127608039Y-93662461D01*
X127733129Y-93814885D01*
X127826077Y-93988778D01*
X127883317Y-94177472D01*
X127902643Y-94373700D01*
X127883317Y-94569928D01*
X127826077Y-94758622D01*
X127733129Y-94932515D01*
X127608039Y-95084939D01*
X127455615Y-95210029D01*
X127281722Y-95302977D01*
X127093028Y-95360217D01*
X126945975Y-95374700D01*
X126647625Y-95374700D01*
X126500572Y-95360217D01*
X126311878Y-95302977D01*
X126137985Y-95210029D01*
X125985561Y-95084939D01*
X125860471Y-94932515D01*
X125767523Y-94758622D01*
X125710283Y-94569928D01*
X125690957Y-94373700D01*
X125710283Y-94177472D01*
X125767523Y-93988778D01*
X125860471Y-93814885D01*
X125985561Y-93662461D01*
X126137985Y-93537371D01*
X126311878Y-93444423D01*
X126500572Y-93387183D01*
X126647625Y-93372700D01*
X126945975Y-93372700D01*
X127093028Y-93387183D01*
G37*
G36*
X142303028Y-93387183D02*
G01*
X142491722Y-93444423D01*
X142665615Y-93537371D01*
X142818039Y-93662461D01*
X142943129Y-93814885D01*
X143036077Y-93988778D01*
X143093317Y-94177472D01*
X143112643Y-94373700D01*
X143093317Y-94569928D01*
X143036077Y-94758622D01*
X142943129Y-94932515D01*
X142818039Y-95084939D01*
X142665615Y-95210029D01*
X142491722Y-95302977D01*
X142303028Y-95360217D01*
X142155975Y-95374700D01*
X141857625Y-95374700D01*
X141710572Y-95360217D01*
X141521878Y-95302977D01*
X141347985Y-95210029D01*
X141195561Y-95084939D01*
X141070471Y-94932515D01*
X140977523Y-94758622D01*
X140920283Y-94569928D01*
X140900957Y-94373700D01*
X140920283Y-94177472D01*
X140977523Y-93988778D01*
X141070471Y-93814885D01*
X141195561Y-93662461D01*
X141347985Y-93537371D01*
X141521878Y-93444423D01*
X141710572Y-93387183D01*
X141857625Y-93372700D01*
X142155975Y-93372700D01*
X142303028Y-93387183D01*
G37*
G36*
X131355400Y-95147700D02*
G01*
X129553400Y-95147700D01*
X129553400Y-93345700D01*
X131355400Y-93345700D01*
X131355400Y-95147700D01*
G37*
G36*
X134413499Y-92848845D02*
G01*
X134450995Y-92860220D01*
X134485554Y-92878692D01*
X134515847Y-92903553D01*
X134540708Y-92933846D01*
X134559180Y-92968405D01*
X134570555Y-93005901D01*
X134575000Y-93051038D01*
X134575000Y-93689762D01*
X134570555Y-93734899D01*
X134559180Y-93772395D01*
X134540708Y-93806954D01*
X134515847Y-93837247D01*
X134485554Y-93862108D01*
X134450995Y-93880580D01*
X134413499Y-93891955D01*
X134368362Y-93896400D01*
X133629638Y-93896400D01*
X133584501Y-93891955D01*
X133547005Y-93880580D01*
X133512446Y-93862108D01*
X133482153Y-93837247D01*
X133457292Y-93806954D01*
X133438820Y-93772395D01*
X133427445Y-93734899D01*
X133423000Y-93689762D01*
X133423000Y-93051038D01*
X133427445Y-93005901D01*
X133438820Y-92968405D01*
X133457292Y-92933846D01*
X133482153Y-92903553D01*
X133512446Y-92878692D01*
X133547005Y-92860220D01*
X133584501Y-92848845D01*
X133629638Y-92844400D01*
X134368362Y-92844400D01*
X134413499Y-92848845D01*
G37*
G36*
X136163499Y-92848845D02*
G01*
X136200995Y-92860220D01*
X136235554Y-92878692D01*
X136265847Y-92903553D01*
X136290708Y-92933846D01*
X136309180Y-92968405D01*
X136320555Y-93005901D01*
X136325000Y-93051038D01*
X136325000Y-93689762D01*
X136320555Y-93734899D01*
X136309180Y-93772395D01*
X136290708Y-93806954D01*
X136265847Y-93837247D01*
X136235554Y-93862108D01*
X136200995Y-93880580D01*
X136163499Y-93891955D01*
X136118362Y-93896400D01*
X135379638Y-93896400D01*
X135334501Y-93891955D01*
X135297005Y-93880580D01*
X135262446Y-93862108D01*
X135232153Y-93837247D01*
X135207292Y-93806954D01*
X135188820Y-93772395D01*
X135177445Y-93734899D01*
X135173000Y-93689762D01*
X135173000Y-93051038D01*
X135177445Y-93005901D01*
X135188820Y-92968405D01*
X135207292Y-92933846D01*
X135232153Y-92903553D01*
X135262446Y-92878692D01*
X135297005Y-92860220D01*
X135334501Y-92848845D01*
X135379638Y-92844400D01*
X136118362Y-92844400D01*
X136163499Y-92848845D01*
G37*
G36*
X127093028Y-90847183D02*
G01*
X127281722Y-90904423D01*
X127455615Y-90997371D01*
X127608039Y-91122461D01*
X127733129Y-91274885D01*
X127826077Y-91448778D01*
X127883317Y-91637472D01*
X127902643Y-91833700D01*
X127883317Y-92029928D01*
X127826077Y-92218622D01*
X127733129Y-92392515D01*
X127608039Y-92544939D01*
X127455615Y-92670029D01*
X127281722Y-92762977D01*
X127093028Y-92820217D01*
X126945975Y-92834700D01*
X126647625Y-92834700D01*
X126500572Y-92820217D01*
X126311878Y-92762977D01*
X126137985Y-92670029D01*
X125985561Y-92544939D01*
X125860471Y-92392515D01*
X125767523Y-92218622D01*
X125710283Y-92029928D01*
X125690957Y-91833700D01*
X125710283Y-91637472D01*
X125767523Y-91448778D01*
X125860471Y-91274885D01*
X125985561Y-91122461D01*
X126137985Y-90997371D01*
X126311878Y-90904423D01*
X126500572Y-90847183D01*
X126647625Y-90832700D01*
X126945975Y-90832700D01*
X127093028Y-90847183D01*
G37*
G36*
X142303028Y-90847183D02*
G01*
X142491722Y-90904423D01*
X142665615Y-90997371D01*
X142818039Y-91122461D01*
X142943129Y-91274885D01*
X143036077Y-91448778D01*
X143093317Y-91637472D01*
X143112643Y-91833700D01*
X143093317Y-92029928D01*
X143036077Y-92218622D01*
X142943129Y-92392515D01*
X142818039Y-92544939D01*
X142665615Y-92670029D01*
X142491722Y-92762977D01*
X142303028Y-92820217D01*
X142155975Y-92834700D01*
X141857625Y-92834700D01*
X141710572Y-92820217D01*
X141521878Y-92762977D01*
X141347985Y-92670029D01*
X141195561Y-92544939D01*
X141070471Y-92392515D01*
X140977523Y-92218622D01*
X140920283Y-92029928D01*
X140900957Y-91833700D01*
X140920283Y-91637472D01*
X140977523Y-91448778D01*
X141070471Y-91274885D01*
X141195561Y-91122461D01*
X141347985Y-90997371D01*
X141521878Y-90904423D01*
X141710572Y-90847183D01*
X141857625Y-90832700D01*
X142155975Y-90832700D01*
X142303028Y-90847183D01*
G37*
G36*
X148320500Y-92291300D02*
G01*
X146948500Y-92291300D01*
X146948500Y-91579300D01*
X148320500Y-91579300D01*
X148320500Y-92291300D01*
G37*
G36*
X153660500Y-88481300D02*
G01*
X153075499Y-88481300D01*
X153051113Y-88483702D01*
X153027664Y-88490815D01*
X153006053Y-88502366D01*
X152987111Y-88517911D01*
X152971566Y-88536853D01*
X152960015Y-88558464D01*
X152952902Y-88581913D01*
X152950500Y-88606299D01*
X152950500Y-88914301D01*
X152952902Y-88938687D01*
X152960015Y-88962136D01*
X152971566Y-88983747D01*
X152987111Y-89002689D01*
X153006053Y-89018234D01*
X153027664Y-89029785D01*
X153051113Y-89036898D01*
X153075499Y-89039300D01*
X153660500Y-89039300D01*
X153660500Y-89751300D01*
X153075499Y-89751300D01*
X153051113Y-89753702D01*
X153027664Y-89760815D01*
X153006053Y-89772366D01*
X152987111Y-89787911D01*
X152971566Y-89806853D01*
X152960015Y-89828464D01*
X152952902Y-89851913D01*
X152950500Y-89876299D01*
X152950500Y-90184301D01*
X152952902Y-90208687D01*
X152960015Y-90232136D01*
X152971566Y-90253747D01*
X152987111Y-90272689D01*
X153006053Y-90288234D01*
X153027664Y-90299785D01*
X153051113Y-90306898D01*
X153075499Y-90309300D01*
X153660500Y-90309300D01*
X153660500Y-91021300D01*
X153075499Y-91021300D01*
X153051113Y-91023702D01*
X153027664Y-91030815D01*
X153006053Y-91042366D01*
X152987111Y-91057911D01*
X152971566Y-91076853D01*
X152960015Y-91098464D01*
X152952902Y-91121913D01*
X152950500Y-91146299D01*
X152950500Y-91454301D01*
X152952902Y-91478687D01*
X152960015Y-91502136D01*
X152971566Y-91523747D01*
X152987111Y-91542689D01*
X153006053Y-91558234D01*
X153027664Y-91569785D01*
X153051113Y-91576898D01*
X153075499Y-91579300D01*
X153660500Y-91579300D01*
X153660500Y-92291300D01*
X152538500Y-92291300D01*
X152538500Y-92161299D01*
X152536098Y-92136913D01*
X152528985Y-92113464D01*
X152517434Y-92091853D01*
X152501889Y-92072911D01*
X152482947Y-92057366D01*
X152461336Y-92045815D01*
X152437887Y-92038702D01*
X152413501Y-92036300D01*
X149038500Y-92036300D01*
X149038500Y-88024300D01*
X152413501Y-88024300D01*
X152437887Y-88021898D01*
X152461336Y-88014785D01*
X152482947Y-88003234D01*
X152501889Y-87987689D01*
X152517434Y-87968747D01*
X152528985Y-87947136D01*
X152536098Y-87923687D01*
X152538500Y-87899301D01*
X152538500Y-87769300D01*
X153660500Y-87769300D01*
X153660500Y-88481300D01*
G37*
G36*
X148320500Y-91021300D02*
G01*
X146948500Y-91021300D01*
X146948500Y-90309300D01*
X148320500Y-90309300D01*
X148320500Y-91021300D01*
G37*
G36*
X131868100Y-90435400D02*
G01*
X130242100Y-90435400D01*
X130242100Y-89774600D01*
X131868100Y-89774600D01*
X131868100Y-90435400D01*
G37*
G36*
X139157900Y-90435400D02*
G01*
X137531900Y-90435400D01*
X137531900Y-89774600D01*
X139157900Y-89774600D01*
X139157900Y-90435400D01*
G37*
G36*
X142303028Y-88307183D02*
G01*
X142456596Y-88353768D01*
X142473740Y-88358968D01*
X142491722Y-88364423D01*
X142665615Y-88457371D01*
X142818039Y-88582461D01*
X142943129Y-88734885D01*
X143036077Y-88908778D01*
X143093317Y-89097472D01*
X143112643Y-89293700D01*
X143093317Y-89489928D01*
X143036077Y-89678622D01*
X142943129Y-89852515D01*
X142818039Y-90004939D01*
X142665615Y-90130029D01*
X142491722Y-90222977D01*
X142303028Y-90280217D01*
X142155975Y-90294700D01*
X141857625Y-90294700D01*
X141710572Y-90280217D01*
X141521878Y-90222977D01*
X141347985Y-90130029D01*
X141195561Y-90004939D01*
X141070471Y-89852515D01*
X140977523Y-89678622D01*
X140920283Y-89489928D01*
X140900957Y-89293700D01*
X140920283Y-89097472D01*
X140977523Y-88908778D01*
X141070471Y-88734885D01*
X141195561Y-88582461D01*
X141347985Y-88457371D01*
X141521878Y-88364423D01*
X141539861Y-88358968D01*
X141557004Y-88353768D01*
X141710572Y-88307183D01*
X141857625Y-88292700D01*
X142155975Y-88292700D01*
X142303028Y-88307183D01*
G37*
G36*
X127093028Y-88307183D02*
G01*
X127246596Y-88353768D01*
X127263740Y-88358968D01*
X127281722Y-88364423D01*
X127455615Y-88457371D01*
X127608039Y-88582461D01*
X127733129Y-88734885D01*
X127826077Y-88908778D01*
X127883317Y-89097472D01*
X127902643Y-89293700D01*
X127883317Y-89489928D01*
X127826077Y-89678622D01*
X127733129Y-89852515D01*
X127608039Y-90004939D01*
X127455615Y-90130029D01*
X127281722Y-90222977D01*
X127093028Y-90280217D01*
X126945975Y-90294700D01*
X126647625Y-90294700D01*
X126500572Y-90280217D01*
X126311878Y-90222977D01*
X126137985Y-90130029D01*
X125985561Y-90004939D01*
X125860471Y-89852515D01*
X125767523Y-89678622D01*
X125710283Y-89489928D01*
X125690957Y-89293700D01*
X125710283Y-89097472D01*
X125767523Y-88908778D01*
X125860471Y-88734885D01*
X125985561Y-88582461D01*
X126137985Y-88457371D01*
X126311878Y-88364423D01*
X126329861Y-88358968D01*
X126347004Y-88353768D01*
X126500572Y-88307183D01*
X126647625Y-88292700D01*
X126945975Y-88292700D01*
X127093028Y-88307183D01*
G37*
G36*
X148320500Y-89751300D02*
G01*
X146948500Y-89751300D01*
X146948500Y-89039300D01*
X148320500Y-89039300D01*
X148320500Y-89751300D01*
G37*
G36*
X131868100Y-89165400D02*
G01*
X130242100Y-89165400D01*
X130242100Y-88504600D01*
X131868100Y-88504600D01*
X131868100Y-89165400D01*
G37*
G36*
X139157900Y-89165400D02*
G01*
X137531900Y-89165400D01*
X137531900Y-88504600D01*
X139157900Y-88504600D01*
X139157900Y-89165400D01*
G37*
G36*
X145600999Y-86163254D02*
G01*
X145613250Y-86163856D01*
X145631669Y-86163856D01*
X145653949Y-86166050D01*
X145738033Y-86182776D01*
X145759460Y-86189276D01*
X145838658Y-86222080D01*
X145844103Y-86224991D01*
X145844109Y-86224993D01*
X145852969Y-86229729D01*
X145852973Y-86229732D01*
X145858414Y-86232640D01*
X145929699Y-86280271D01*
X145947004Y-86294472D01*
X146007628Y-86355096D01*
X146021829Y-86372401D01*
X146069460Y-86443686D01*
X146072368Y-86449127D01*
X146072371Y-86449131D01*
X146077107Y-86457991D01*
X146077109Y-86457997D01*
X146080020Y-86463442D01*
X146112824Y-86542640D01*
X146119324Y-86564067D01*
X146136050Y-86648151D01*
X146138244Y-86670431D01*
X146138244Y-86688850D01*
X146138846Y-86701101D01*
X146140652Y-86719439D01*
X146140652Y-87207160D01*
X146139063Y-87223299D01*
X146136148Y-87232908D01*
X146131410Y-87241772D01*
X146125037Y-87249537D01*
X146112594Y-87259748D01*
X146102225Y-87266678D01*
X146084898Y-87284005D01*
X146071285Y-87304380D01*
X146061909Y-87327020D01*
X146057129Y-87351053D01*
X146057130Y-87375557D01*
X146061912Y-87399590D01*
X146071290Y-87422229D01*
X146084905Y-87442602D01*
X146102232Y-87459929D01*
X146112602Y-87466858D01*
X146125037Y-87477063D01*
X146131410Y-87484828D01*
X146136148Y-87493692D01*
X146139063Y-87503301D01*
X146140652Y-87519440D01*
X146140652Y-88007162D01*
X146138846Y-88025499D01*
X146138244Y-88037750D01*
X146138244Y-88056169D01*
X146136050Y-88078449D01*
X146119324Y-88162533D01*
X146112824Y-88183960D01*
X146080020Y-88263158D01*
X146077109Y-88268603D01*
X146077107Y-88268609D01*
X146072371Y-88277469D01*
X146072368Y-88277473D01*
X146069460Y-88282914D01*
X146021829Y-88354199D01*
X146007628Y-88371504D01*
X145947004Y-88432128D01*
X145929699Y-88446329D01*
X145858414Y-88493960D01*
X145852973Y-88496868D01*
X145852969Y-88496871D01*
X145844109Y-88501607D01*
X145844103Y-88501609D01*
X145838658Y-88504520D01*
X145759460Y-88537324D01*
X145738033Y-88543824D01*
X145653949Y-88560550D01*
X145631669Y-88562744D01*
X145613250Y-88562744D01*
X145600999Y-88563346D01*
X145582662Y-88565152D01*
X145094938Y-88565152D01*
X145076601Y-88563346D01*
X145064350Y-88562744D01*
X145045931Y-88562744D01*
X145023651Y-88560550D01*
X144939567Y-88543824D01*
X144918140Y-88537324D01*
X144838942Y-88504520D01*
X144833497Y-88501609D01*
X144833491Y-88501607D01*
X144824631Y-88496871D01*
X144824627Y-88496868D01*
X144819186Y-88493960D01*
X144747901Y-88446329D01*
X144730596Y-88432128D01*
X144669972Y-88371504D01*
X144655771Y-88354199D01*
X144608140Y-88282914D01*
X144605232Y-88277473D01*
X144605229Y-88277469D01*
X144600493Y-88268609D01*
X144600491Y-88268603D01*
X144597580Y-88263158D01*
X144564776Y-88183960D01*
X144558276Y-88162533D01*
X144541550Y-88078449D01*
X144539356Y-88056169D01*
X144539356Y-88037750D01*
X144538754Y-88025499D01*
X144536948Y-88007162D01*
X144536948Y-87519440D01*
X144538537Y-87503301D01*
X144541452Y-87493692D01*
X144546190Y-87484828D01*
X144552563Y-87477063D01*
X144565006Y-87466852D01*
X144575375Y-87459922D01*
X144592702Y-87442595D01*
X144606315Y-87422220D01*
X144615691Y-87399580D01*
X144620471Y-87375547D01*
X144620470Y-87351043D01*
X144615688Y-87327010D01*
X144606310Y-87304371D01*
X144592695Y-87283998D01*
X144575368Y-87266671D01*
X144564998Y-87259742D01*
X144552563Y-87249537D01*
X144546190Y-87241772D01*
X144541452Y-87232908D01*
X144538537Y-87223299D01*
X144536948Y-87207160D01*
X144536948Y-86719439D01*
X144538754Y-86701101D01*
X144539356Y-86688850D01*
X144539356Y-86670431D01*
X144541550Y-86648151D01*
X144558276Y-86564067D01*
X144564776Y-86542640D01*
X144597580Y-86463442D01*
X144600491Y-86457997D01*
X144600493Y-86457991D01*
X144605229Y-86449131D01*
X144605232Y-86449127D01*
X144608140Y-86443686D01*
X144655771Y-86372401D01*
X144669972Y-86355096D01*
X144730596Y-86294472D01*
X144747901Y-86280271D01*
X144819186Y-86232640D01*
X144824627Y-86229732D01*
X144824631Y-86229729D01*
X144833491Y-86224993D01*
X144833497Y-86224991D01*
X144838942Y-86222080D01*
X144918140Y-86189276D01*
X144939567Y-86182776D01*
X145023651Y-86166050D01*
X145045931Y-86163856D01*
X145064350Y-86163856D01*
X145076601Y-86163254D01*
X145094939Y-86161448D01*
X145582661Y-86161448D01*
X145600999Y-86163254D01*
G37*
G36*
X148320500Y-88481300D02*
G01*
X146948500Y-88481300D01*
X146948500Y-87769300D01*
X148320500Y-87769300D01*
X148320500Y-88481300D01*
G37*
G36*
X139157900Y-87895400D02*
G01*
X137531900Y-87895400D01*
X137531900Y-87234600D01*
X139157900Y-87234600D01*
X139157900Y-87895400D01*
G37*
G36*
X131868100Y-87895400D02*
G01*
X130242100Y-87895400D01*
X130242100Y-87234600D01*
X131868100Y-87234600D01*
X131868100Y-87895400D01*
G37*
G36*
X127093028Y-85767183D02*
G01*
X127281722Y-85824423D01*
X127455615Y-85917371D01*
X127608039Y-86042461D01*
X127733129Y-86194885D01*
X127826077Y-86368778D01*
X127826078Y-86368781D01*
X127832700Y-86390610D01*
X127883317Y-86557472D01*
X127902643Y-86753700D01*
X127883317Y-86949928D01*
X127826077Y-87138622D01*
X127733129Y-87312515D01*
X127608039Y-87464939D01*
X127455615Y-87590029D01*
X127281722Y-87682977D01*
X127093028Y-87740217D01*
X126945975Y-87754700D01*
X126647625Y-87754700D01*
X126500572Y-87740217D01*
X126311878Y-87682977D01*
X126137985Y-87590029D01*
X125985561Y-87464939D01*
X125860471Y-87312515D01*
X125767523Y-87138622D01*
X125710283Y-86949928D01*
X125690957Y-86753700D01*
X125710283Y-86557472D01*
X125760900Y-86390610D01*
X125767522Y-86368781D01*
X125767523Y-86368778D01*
X125860471Y-86194885D01*
X125985561Y-86042461D01*
X126137985Y-85917371D01*
X126311878Y-85824423D01*
X126500572Y-85767183D01*
X126647625Y-85752700D01*
X126945975Y-85752700D01*
X127093028Y-85767183D01*
G37*
G36*
X142303028Y-85767183D02*
G01*
X142491722Y-85824423D01*
X142665615Y-85917371D01*
X142818039Y-86042461D01*
X142943129Y-86194885D01*
X143036077Y-86368778D01*
X143036078Y-86368781D01*
X143042700Y-86390610D01*
X143093317Y-86557472D01*
X143112643Y-86753700D01*
X143093317Y-86949928D01*
X143036077Y-87138622D01*
X142943129Y-87312515D01*
X142818039Y-87464939D01*
X142665615Y-87590029D01*
X142491722Y-87682977D01*
X142303028Y-87740217D01*
X142155975Y-87754700D01*
X141857625Y-87754700D01*
X141710572Y-87740217D01*
X141521878Y-87682977D01*
X141347985Y-87590029D01*
X141195561Y-87464939D01*
X141070471Y-87312515D01*
X140977523Y-87138622D01*
X140920283Y-86949928D01*
X140900957Y-86753700D01*
X140920283Y-86557472D01*
X140970900Y-86390610D01*
X140977522Y-86368781D01*
X140977523Y-86368778D01*
X141070471Y-86194885D01*
X141195561Y-86042461D01*
X141347985Y-85917371D01*
X141521878Y-85824423D01*
X141710572Y-85767183D01*
X141857625Y-85752700D01*
X142155975Y-85752700D01*
X142303028Y-85767183D01*
G37*
G36*
X131868100Y-86625400D02*
G01*
X130242100Y-86625400D01*
X130242100Y-85964600D01*
X131868100Y-85964600D01*
X131868100Y-86625400D01*
G37*
G36*
X139157900Y-86625400D02*
G01*
X137531900Y-86625400D01*
X137531900Y-85964600D01*
X139157900Y-85964600D01*
X139157900Y-86625400D01*
G37*
G36*
X153199799Y-84797737D02*
G01*
X153209408Y-84800652D01*
X153218272Y-84805390D01*
X153226037Y-84811763D01*
X153236248Y-84824206D01*
X153243178Y-84834575D01*
X153260505Y-84851902D01*
X153280880Y-84865515D01*
X153303520Y-84874891D01*
X153327553Y-84879671D01*
X153352057Y-84879670D01*
X153376090Y-84874888D01*
X153398729Y-84865510D01*
X153419102Y-84851895D01*
X153436429Y-84834568D01*
X153443358Y-84824198D01*
X153453563Y-84811763D01*
X153461328Y-84805390D01*
X153470192Y-84800652D01*
X153479801Y-84797737D01*
X153495940Y-84796148D01*
X153983661Y-84796148D01*
X154001999Y-84797954D01*
X154014250Y-84798556D01*
X154032669Y-84798556D01*
X154054949Y-84800750D01*
X154139033Y-84817476D01*
X154160460Y-84823976D01*
X154239658Y-84856780D01*
X154245103Y-84859691D01*
X154245109Y-84859693D01*
X154253969Y-84864429D01*
X154253973Y-84864432D01*
X154259414Y-84867340D01*
X154330699Y-84914971D01*
X154348004Y-84929172D01*
X154408628Y-84989796D01*
X154422829Y-85007101D01*
X154470460Y-85078386D01*
X154473368Y-85083827D01*
X154473371Y-85083831D01*
X154478107Y-85092691D01*
X154478109Y-85092697D01*
X154481020Y-85098142D01*
X154513824Y-85177340D01*
X154520324Y-85198767D01*
X154537050Y-85282851D01*
X154539244Y-85305131D01*
X154539244Y-85323550D01*
X154539846Y-85335801D01*
X154541652Y-85354139D01*
X154541652Y-85841862D01*
X154539846Y-85860199D01*
X154539244Y-85872450D01*
X154539244Y-85890869D01*
X154537050Y-85913149D01*
X154520324Y-85997233D01*
X154513824Y-86018660D01*
X154481020Y-86097858D01*
X154478109Y-86103303D01*
X154478107Y-86103309D01*
X154473371Y-86112169D01*
X154473368Y-86112173D01*
X154470460Y-86117614D01*
X154422829Y-86188899D01*
X154408628Y-86206204D01*
X154348004Y-86266828D01*
X154330699Y-86281029D01*
X154259414Y-86328660D01*
X154253973Y-86331568D01*
X154253969Y-86331571D01*
X154245109Y-86336307D01*
X154245103Y-86336309D01*
X154239658Y-86339220D01*
X154160460Y-86372024D01*
X154139033Y-86378524D01*
X154054949Y-86395250D01*
X154032669Y-86397444D01*
X154014250Y-86397444D01*
X154001999Y-86398046D01*
X153983662Y-86399852D01*
X153495940Y-86399852D01*
X153479801Y-86398263D01*
X153470192Y-86395348D01*
X153461328Y-86390610D01*
X153453563Y-86384237D01*
X153443352Y-86371794D01*
X153436422Y-86361425D01*
X153419095Y-86344098D01*
X153398720Y-86330485D01*
X153376080Y-86321109D01*
X153352047Y-86316329D01*
X153327543Y-86316330D01*
X153303510Y-86321112D01*
X153280871Y-86330490D01*
X153260498Y-86344105D01*
X153243171Y-86361432D01*
X153236242Y-86371802D01*
X153226037Y-86384237D01*
X153218272Y-86390610D01*
X153209408Y-86395348D01*
X153199799Y-86398263D01*
X153183660Y-86399852D01*
X152695938Y-86399852D01*
X152677601Y-86398046D01*
X152665350Y-86397444D01*
X152646931Y-86397444D01*
X152624651Y-86395250D01*
X152540567Y-86378524D01*
X152519140Y-86372024D01*
X152439942Y-86339220D01*
X152434497Y-86336309D01*
X152434491Y-86336307D01*
X152425631Y-86331571D01*
X152425627Y-86331568D01*
X152420186Y-86328660D01*
X152348901Y-86281029D01*
X152331596Y-86266828D01*
X152270972Y-86206204D01*
X152256771Y-86188899D01*
X152209140Y-86117614D01*
X152206232Y-86112173D01*
X152206229Y-86112169D01*
X152201493Y-86103309D01*
X152201491Y-86103303D01*
X152198580Y-86097858D01*
X152165776Y-86018660D01*
X152159276Y-85997233D01*
X152142550Y-85913149D01*
X152140356Y-85890869D01*
X152140356Y-85872450D01*
X152139754Y-85860199D01*
X152137948Y-85841862D01*
X152137948Y-85354139D01*
X152139754Y-85335801D01*
X152140356Y-85323550D01*
X152140356Y-85305131D01*
X152142550Y-85282851D01*
X152159276Y-85198767D01*
X152165776Y-85177340D01*
X152198580Y-85098142D01*
X152201491Y-85092697D01*
X152201493Y-85092691D01*
X152206229Y-85083831D01*
X152206232Y-85083827D01*
X152209140Y-85078386D01*
X152256771Y-85007101D01*
X152270972Y-84989796D01*
X152331596Y-84929172D01*
X152348901Y-84914971D01*
X152420186Y-84867340D01*
X152425627Y-84864432D01*
X152425631Y-84864429D01*
X152434491Y-84859693D01*
X152434497Y-84859691D01*
X152439942Y-84856780D01*
X152519140Y-84823976D01*
X152540567Y-84817476D01*
X152624651Y-84800750D01*
X152646931Y-84798556D01*
X152665350Y-84798556D01*
X152677601Y-84797954D01*
X152695939Y-84796148D01*
X153183660Y-84796148D01*
X153199799Y-84797737D01*
G37*
G36*
X127093028Y-83227183D02*
G01*
X127281722Y-83284423D01*
X127455615Y-83377371D01*
X127608039Y-83502461D01*
X127733129Y-83654885D01*
X127826077Y-83828778D01*
X127883317Y-84017472D01*
X127902643Y-84213700D01*
X127883317Y-84409928D01*
X127883316Y-84409930D01*
X127827034Y-84595469D01*
X127826077Y-84598622D01*
X127733129Y-84772515D01*
X127608039Y-84924939D01*
X127455615Y-85050029D01*
X127281722Y-85142977D01*
X127093028Y-85200217D01*
X126945975Y-85214700D01*
X126647625Y-85214700D01*
X126500572Y-85200217D01*
X126311878Y-85142977D01*
X126137985Y-85050029D01*
X125985561Y-84924939D01*
X125860471Y-84772515D01*
X125767523Y-84598622D01*
X125766567Y-84595469D01*
X125710284Y-84409930D01*
X125710283Y-84409928D01*
X125690957Y-84213700D01*
X125710283Y-84017472D01*
X125767523Y-83828778D01*
X125860471Y-83654885D01*
X125985561Y-83502461D01*
X126137985Y-83377371D01*
X126311878Y-83284423D01*
X126500572Y-83227183D01*
X126647625Y-83212700D01*
X126945975Y-83212700D01*
X127093028Y-83227183D01*
G37*
G36*
X142303028Y-83227183D02*
G01*
X142491722Y-83284423D01*
X142665615Y-83377371D01*
X142818039Y-83502461D01*
X142943129Y-83654885D01*
X143036077Y-83828778D01*
X143093317Y-84017472D01*
X143112643Y-84213700D01*
X143093317Y-84409928D01*
X143093316Y-84409930D01*
X143037034Y-84595469D01*
X143036077Y-84598622D01*
X142943129Y-84772515D01*
X142818039Y-84924939D01*
X142665615Y-85050029D01*
X142491722Y-85142977D01*
X142303028Y-85200217D01*
X142155975Y-85214700D01*
X141857625Y-85214700D01*
X141710572Y-85200217D01*
X141521878Y-85142977D01*
X141347985Y-85050029D01*
X141195561Y-84924939D01*
X141070471Y-84772515D01*
X140977523Y-84598622D01*
X140976567Y-84595469D01*
X140920284Y-84409930D01*
X140920283Y-84409928D01*
X140900957Y-84213700D01*
X140920283Y-84017472D01*
X140977523Y-83828778D01*
X141070471Y-83654885D01*
X141195561Y-83502461D01*
X141347985Y-83377371D01*
X141521878Y-83284423D01*
X141710572Y-83227183D01*
X141857625Y-83212700D01*
X142155975Y-83212700D01*
X142303028Y-83227183D01*
G37*
G36*
X146303699Y-83502337D02*
G01*
X146313308Y-83505252D01*
X146322172Y-83509990D01*
X146329937Y-83516363D01*
X146340148Y-83528806D01*
X146347078Y-83539175D01*
X146364405Y-83556502D01*
X146384780Y-83570115D01*
X146407420Y-83579491D01*
X146431453Y-83584271D01*
X146455957Y-83584270D01*
X146479990Y-83579488D01*
X146502629Y-83570110D01*
X146523002Y-83556495D01*
X146540329Y-83539168D01*
X146547258Y-83528798D01*
X146557463Y-83516363D01*
X146565228Y-83509990D01*
X146574092Y-83505252D01*
X146583701Y-83502337D01*
X146599840Y-83500748D01*
X147087561Y-83500748D01*
X147105899Y-83502554D01*
X147118150Y-83503156D01*
X147136569Y-83503156D01*
X147158849Y-83505350D01*
X147242933Y-83522076D01*
X147264360Y-83528576D01*
X147343558Y-83561380D01*
X147349003Y-83564291D01*
X147349009Y-83564293D01*
X147357869Y-83569029D01*
X147357873Y-83569032D01*
X147363314Y-83571940D01*
X147434599Y-83619571D01*
X147451904Y-83633772D01*
X147512528Y-83694396D01*
X147526729Y-83711701D01*
X147574360Y-83782986D01*
X147577268Y-83788427D01*
X147577271Y-83788431D01*
X147582007Y-83797291D01*
X147582009Y-83797297D01*
X147584920Y-83802742D01*
X147617724Y-83881940D01*
X147624224Y-83903367D01*
X147640950Y-83987451D01*
X147643144Y-84009731D01*
X147643144Y-84028150D01*
X147643746Y-84040401D01*
X147645552Y-84058739D01*
X147645552Y-84546462D01*
X147643746Y-84564799D01*
X147643144Y-84577050D01*
X147643144Y-84595469D01*
X147640950Y-84617749D01*
X147624224Y-84701833D01*
X147617724Y-84723260D01*
X147584920Y-84802458D01*
X147582009Y-84807903D01*
X147582007Y-84807909D01*
X147577271Y-84816769D01*
X147577268Y-84816773D01*
X147574360Y-84822214D01*
X147526729Y-84893499D01*
X147512528Y-84910804D01*
X147451904Y-84971428D01*
X147434599Y-84985629D01*
X147363314Y-85033260D01*
X147357873Y-85036168D01*
X147357869Y-85036171D01*
X147349009Y-85040907D01*
X147349003Y-85040909D01*
X147343558Y-85043820D01*
X147264360Y-85076624D01*
X147242933Y-85083124D01*
X147158849Y-85099850D01*
X147136569Y-85102044D01*
X147118150Y-85102044D01*
X147105899Y-85102646D01*
X147087562Y-85104452D01*
X146599840Y-85104452D01*
X146583701Y-85102863D01*
X146574092Y-85099948D01*
X146565228Y-85095210D01*
X146557463Y-85088837D01*
X146547252Y-85076394D01*
X146540322Y-85066025D01*
X146522995Y-85048698D01*
X146502620Y-85035085D01*
X146479980Y-85025709D01*
X146455947Y-85020929D01*
X146431443Y-85020930D01*
X146407410Y-85025712D01*
X146384771Y-85035090D01*
X146364398Y-85048705D01*
X146347071Y-85066032D01*
X146340142Y-85076402D01*
X146329937Y-85088837D01*
X146322172Y-85095210D01*
X146313308Y-85099948D01*
X146303699Y-85102863D01*
X146287560Y-85104452D01*
X145799838Y-85104452D01*
X145781501Y-85102646D01*
X145769250Y-85102044D01*
X145750831Y-85102044D01*
X145728551Y-85099850D01*
X145644467Y-85083124D01*
X145623040Y-85076624D01*
X145543842Y-85043820D01*
X145538397Y-85040909D01*
X145538391Y-85040907D01*
X145529531Y-85036171D01*
X145529527Y-85036168D01*
X145524086Y-85033260D01*
X145452801Y-84985629D01*
X145435496Y-84971428D01*
X145374872Y-84910804D01*
X145360671Y-84893499D01*
X145313040Y-84822214D01*
X145310132Y-84816773D01*
X145310129Y-84816769D01*
X145305393Y-84807909D01*
X145305391Y-84807903D01*
X145302480Y-84802458D01*
X145269676Y-84723260D01*
X145263176Y-84701833D01*
X145246450Y-84617749D01*
X145244256Y-84595469D01*
X145244256Y-84577050D01*
X145243654Y-84564799D01*
X145241848Y-84546462D01*
X145241848Y-84058739D01*
X145243654Y-84040401D01*
X145244256Y-84028150D01*
X145244256Y-84009731D01*
X145246450Y-83987451D01*
X145263176Y-83903367D01*
X145269676Y-83881940D01*
X145302480Y-83802742D01*
X145305391Y-83797297D01*
X145305393Y-83797291D01*
X145310129Y-83788431D01*
X145310132Y-83788427D01*
X145313040Y-83782986D01*
X145360671Y-83711701D01*
X145374872Y-83694396D01*
X145435496Y-83633772D01*
X145452801Y-83619571D01*
X145524086Y-83571940D01*
X145529527Y-83569032D01*
X145529531Y-83569029D01*
X145538391Y-83564293D01*
X145538397Y-83564291D01*
X145543842Y-83561380D01*
X145623040Y-83528576D01*
X145644467Y-83522076D01*
X145728551Y-83505350D01*
X145750831Y-83503156D01*
X145769250Y-83503156D01*
X145781501Y-83502554D01*
X145799839Y-83500748D01*
X146287560Y-83500748D01*
X146303699Y-83502337D01*
G37*
G36*
X149770799Y-83502337D02*
G01*
X149780408Y-83505252D01*
X149789272Y-83509990D01*
X149797037Y-83516363D01*
X149807248Y-83528806D01*
X149814178Y-83539175D01*
X149831505Y-83556502D01*
X149851880Y-83570115D01*
X149874520Y-83579491D01*
X149898553Y-83584271D01*
X149923057Y-83584270D01*
X149947090Y-83579488D01*
X149969729Y-83570110D01*
X149990102Y-83556495D01*
X150007429Y-83539168D01*
X150014358Y-83528798D01*
X150024563Y-83516363D01*
X150032328Y-83509990D01*
X150041192Y-83505252D01*
X150050801Y-83502337D01*
X150066940Y-83500748D01*
X150554661Y-83500748D01*
X150572999Y-83502554D01*
X150585250Y-83503156D01*
X150603669Y-83503156D01*
X150625949Y-83505350D01*
X150710033Y-83522076D01*
X150731460Y-83528576D01*
X150810658Y-83561380D01*
X150816103Y-83564291D01*
X150816109Y-83564293D01*
X150824969Y-83569029D01*
X150824973Y-83569032D01*
X150830414Y-83571940D01*
X150901699Y-83619571D01*
X150919004Y-83633772D01*
X150979628Y-83694396D01*
X150993829Y-83711701D01*
X151041460Y-83782986D01*
X151044368Y-83788427D01*
X151044371Y-83788431D01*
X151049107Y-83797291D01*
X151049109Y-83797297D01*
X151052020Y-83802742D01*
X151084824Y-83881940D01*
X151091324Y-83903367D01*
X151108050Y-83987451D01*
X151110244Y-84009731D01*
X151110244Y-84028150D01*
X151110846Y-84040401D01*
X151112652Y-84058739D01*
X151112652Y-84546462D01*
X151110846Y-84564799D01*
X151110244Y-84577050D01*
X151110244Y-84595469D01*
X151108050Y-84617749D01*
X151091324Y-84701833D01*
X151084824Y-84723260D01*
X151052020Y-84802458D01*
X151049109Y-84807903D01*
X151049107Y-84807909D01*
X151044371Y-84816769D01*
X151044368Y-84816773D01*
X151041460Y-84822214D01*
X150993829Y-84893499D01*
X150979628Y-84910804D01*
X150919004Y-84971428D01*
X150901699Y-84985629D01*
X150830414Y-85033260D01*
X150824973Y-85036168D01*
X150824969Y-85036171D01*
X150816109Y-85040907D01*
X150816103Y-85040909D01*
X150810658Y-85043820D01*
X150731460Y-85076624D01*
X150710033Y-85083124D01*
X150625949Y-85099850D01*
X150603669Y-85102044D01*
X150585250Y-85102044D01*
X150572999Y-85102646D01*
X150554662Y-85104452D01*
X150066940Y-85104452D01*
X150050801Y-85102863D01*
X150041192Y-85099948D01*
X150032328Y-85095210D01*
X150024563Y-85088837D01*
X150014352Y-85076394D01*
X150007422Y-85066025D01*
X149990095Y-85048698D01*
X149969720Y-85035085D01*
X149947080Y-85025709D01*
X149923047Y-85020929D01*
X149898543Y-85020930D01*
X149874510Y-85025712D01*
X149851871Y-85035090D01*
X149831498Y-85048705D01*
X149814171Y-85066032D01*
X149807242Y-85076402D01*
X149797037Y-85088837D01*
X149789272Y-85095210D01*
X149780408Y-85099948D01*
X149770799Y-85102863D01*
X149754660Y-85104452D01*
X149266938Y-85104452D01*
X149248601Y-85102646D01*
X149236350Y-85102044D01*
X149217931Y-85102044D01*
X149195651Y-85099850D01*
X149111567Y-85083124D01*
X149090140Y-85076624D01*
X149010942Y-85043820D01*
X149005497Y-85040909D01*
X149005491Y-85040907D01*
X148996631Y-85036171D01*
X148996627Y-85036168D01*
X148991186Y-85033260D01*
X148919901Y-84985629D01*
X148902596Y-84971428D01*
X148841972Y-84910804D01*
X148827771Y-84893499D01*
X148780140Y-84822214D01*
X148777232Y-84816773D01*
X148777229Y-84816769D01*
X148772493Y-84807909D01*
X148772491Y-84807903D01*
X148769580Y-84802458D01*
X148736776Y-84723260D01*
X148730276Y-84701833D01*
X148713550Y-84617749D01*
X148711356Y-84595469D01*
X148711356Y-84577050D01*
X148710754Y-84564799D01*
X148708948Y-84546462D01*
X148708948Y-84058739D01*
X148710754Y-84040401D01*
X148711356Y-84028150D01*
X148711356Y-84009731D01*
X148713550Y-83987451D01*
X148730276Y-83903367D01*
X148736776Y-83881940D01*
X148769580Y-83802742D01*
X148772491Y-83797297D01*
X148772493Y-83797291D01*
X148777229Y-83788431D01*
X148777232Y-83788427D01*
X148780140Y-83782986D01*
X148827771Y-83711701D01*
X148841972Y-83694396D01*
X148902596Y-83633772D01*
X148919901Y-83619571D01*
X148991186Y-83571940D01*
X148996627Y-83569032D01*
X148996631Y-83569029D01*
X149005491Y-83564293D01*
X149005497Y-83564291D01*
X149010942Y-83561380D01*
X149090140Y-83528576D01*
X149111567Y-83522076D01*
X149195651Y-83505350D01*
X149217931Y-83503156D01*
X149236350Y-83503156D01*
X149248601Y-83502554D01*
X149266939Y-83500748D01*
X149754660Y-83500748D01*
X149770799Y-83502337D01*
G37*
G36*
X137801000Y-84001000D02*
G01*
X136599000Y-84001000D01*
X136599000Y-82799000D01*
X137801000Y-82799000D01*
X137801000Y-84001000D01*
G37*
G36*
X139564499Y-82803445D02*
G01*
X139601995Y-82814820D01*
X139636554Y-82833292D01*
X139666847Y-82858153D01*
X139691708Y-82888446D01*
X139710180Y-82923005D01*
X139721555Y-82960501D01*
X139726000Y-83005638D01*
X139726000Y-83744362D01*
X139721555Y-83789499D01*
X139710180Y-83826995D01*
X139691708Y-83861554D01*
X139666847Y-83891847D01*
X139636554Y-83916708D01*
X139601995Y-83935180D01*
X139564499Y-83946555D01*
X139519362Y-83951000D01*
X138880638Y-83951000D01*
X138835501Y-83946555D01*
X138798005Y-83935180D01*
X138763446Y-83916708D01*
X138733153Y-83891847D01*
X138708292Y-83861554D01*
X138689820Y-83826995D01*
X138678445Y-83789499D01*
X138674000Y-83744362D01*
X138674000Y-83005638D01*
X138678445Y-82960501D01*
X138689820Y-82923005D01*
X138708292Y-82888446D01*
X138733153Y-82858153D01*
X138763446Y-82833292D01*
X138798005Y-82814820D01*
X138835501Y-82803445D01*
X138880638Y-82799000D01*
X139519362Y-82799000D01*
X139564499Y-82803445D01*
G37*
G36*
X153164499Y-82503445D02*
G01*
X153201995Y-82514820D01*
X153236554Y-82533292D01*
X153266847Y-82558153D01*
X153291708Y-82588446D01*
X153310180Y-82623005D01*
X153321555Y-82660501D01*
X153326000Y-82705638D01*
X153326000Y-83444362D01*
X153321555Y-83489499D01*
X153310180Y-83526995D01*
X153291708Y-83561554D01*
X153266847Y-83591847D01*
X153236554Y-83616708D01*
X153201995Y-83635180D01*
X153164499Y-83646555D01*
X153119362Y-83651000D01*
X152480638Y-83651000D01*
X152435501Y-83646555D01*
X152398005Y-83635180D01*
X152363446Y-83616708D01*
X152333153Y-83591847D01*
X152308292Y-83561554D01*
X152289820Y-83526995D01*
X152278445Y-83489499D01*
X152274000Y-83444362D01*
X152274000Y-82705638D01*
X152278445Y-82660501D01*
X152289820Y-82623005D01*
X152308292Y-82588446D01*
X152333153Y-82558153D01*
X152363446Y-82533292D01*
X152398005Y-82514820D01*
X152435501Y-82503445D01*
X152480638Y-82499000D01*
X153119362Y-82499000D01*
X153164499Y-82503445D01*
G37*
G36*
X158325300Y-83646300D02*
G01*
X157123300Y-83646300D01*
X157123300Y-82444300D01*
X158325300Y-82444300D01*
X158325300Y-83646300D01*
G37*
G36*
X155525300Y-83646300D02*
G01*
X154323300Y-83646300D01*
X154323300Y-82444300D01*
X155525300Y-82444300D01*
X155525300Y-83646300D01*
G37*
G36*
X135564499Y-81803445D02*
G01*
X135601995Y-81814820D01*
X135636554Y-81833292D01*
X135666847Y-81858153D01*
X135691708Y-81888446D01*
X135710180Y-81923005D01*
X135721555Y-81960501D01*
X135726000Y-82005638D01*
X135726000Y-82744362D01*
X135721555Y-82789499D01*
X135710180Y-82826995D01*
X135691708Y-82861554D01*
X135666847Y-82891847D01*
X135636554Y-82916708D01*
X135601995Y-82935180D01*
X135564499Y-82946555D01*
X135519362Y-82951000D01*
X134880638Y-82951000D01*
X134835501Y-82946555D01*
X134798005Y-82935180D01*
X134763446Y-82916708D01*
X134733153Y-82891847D01*
X134708292Y-82861554D01*
X134689820Y-82826995D01*
X134678445Y-82789499D01*
X134674000Y-82744362D01*
X134674000Y-82005638D01*
X134678445Y-81960501D01*
X134689820Y-81923005D01*
X134708292Y-81888446D01*
X134733153Y-81858153D01*
X134763446Y-81833292D01*
X134798005Y-81814820D01*
X134835501Y-81803445D01*
X134880638Y-81799000D01*
X135519362Y-81799000D01*
X135564499Y-81803445D01*
G37*
G36*
X145906999Y-81634745D02*
G01*
X145944495Y-81646120D01*
X145979054Y-81664592D01*
X146009347Y-81689453D01*
X146034208Y-81719746D01*
X146052680Y-81754305D01*
X146064055Y-81791801D01*
X146068500Y-81836938D01*
X146068500Y-82475662D01*
X146064055Y-82520799D01*
X146052680Y-82558295D01*
X146034208Y-82592854D01*
X146009347Y-82623147D01*
X145979054Y-82648008D01*
X145944495Y-82666480D01*
X145906999Y-82677855D01*
X145861862Y-82682300D01*
X145123138Y-82682300D01*
X145078001Y-82677855D01*
X145040505Y-82666480D01*
X145005946Y-82648008D01*
X144975653Y-82623147D01*
X144950792Y-82592854D01*
X144932320Y-82558295D01*
X144920945Y-82520799D01*
X144916500Y-82475662D01*
X144916500Y-81836938D01*
X144920945Y-81791801D01*
X144932320Y-81754305D01*
X144950792Y-81719746D01*
X144975653Y-81689453D01*
X145005946Y-81664592D01*
X145040505Y-81646120D01*
X145078001Y-81634745D01*
X145123138Y-81630300D01*
X145861862Y-81630300D01*
X145906999Y-81634745D01*
G37*
G36*
X147656999Y-81634745D02*
G01*
X147694495Y-81646120D01*
X147729054Y-81664592D01*
X147759347Y-81689453D01*
X147784208Y-81719746D01*
X147802680Y-81754305D01*
X147814055Y-81791801D01*
X147818500Y-81836938D01*
X147818500Y-82475662D01*
X147814055Y-82520799D01*
X147802680Y-82558295D01*
X147784208Y-82592854D01*
X147759347Y-82623147D01*
X147729054Y-82648008D01*
X147694495Y-82666480D01*
X147656999Y-82677855D01*
X147611862Y-82682300D01*
X146873138Y-82682300D01*
X146828001Y-82677855D01*
X146790505Y-82666480D01*
X146755946Y-82648008D01*
X146725653Y-82623147D01*
X146700792Y-82592854D01*
X146682320Y-82558295D01*
X146670945Y-82520799D01*
X146666500Y-82475662D01*
X146666500Y-81836938D01*
X146670945Y-81791801D01*
X146682320Y-81754305D01*
X146700792Y-81719746D01*
X146725653Y-81689453D01*
X146755946Y-81664592D01*
X146790505Y-81646120D01*
X146828001Y-81634745D01*
X146873138Y-81630300D01*
X147611862Y-81630300D01*
X147656999Y-81634745D01*
G37*
G36*
X142303028Y-80687183D02*
G01*
X142491722Y-80744423D01*
X142665615Y-80837371D01*
X142818039Y-80962461D01*
X142943129Y-81114885D01*
X143036077Y-81288778D01*
X143093317Y-81477472D01*
X143112643Y-81673700D01*
X143093317Y-81869928D01*
X143036077Y-82058622D01*
X142943129Y-82232515D01*
X142818039Y-82384939D01*
X142665615Y-82510029D01*
X142491722Y-82602977D01*
X142491719Y-82602978D01*
X142456596Y-82613632D01*
X142303028Y-82660217D01*
X142155975Y-82674700D01*
X141857625Y-82674700D01*
X141710572Y-82660217D01*
X141557004Y-82613632D01*
X141521881Y-82602978D01*
X141521878Y-82602977D01*
X141347985Y-82510029D01*
X141195561Y-82384939D01*
X141070471Y-82232515D01*
X140977523Y-82058622D01*
X140920283Y-81869928D01*
X140900957Y-81673700D01*
X140920283Y-81477472D01*
X140977523Y-81288778D01*
X141070471Y-81114885D01*
X141195561Y-80962461D01*
X141347985Y-80837371D01*
X141521878Y-80744423D01*
X141710572Y-80687183D01*
X141857625Y-80672700D01*
X142155975Y-80672700D01*
X142303028Y-80687183D01*
G37*
G36*
X127093028Y-80687183D02*
G01*
X127281722Y-80744423D01*
X127455615Y-80837371D01*
X127608039Y-80962461D01*
X127733129Y-81114885D01*
X127826077Y-81288778D01*
X127883317Y-81477472D01*
X127902643Y-81673700D01*
X127883317Y-81869928D01*
X127826077Y-82058622D01*
X127733129Y-82232515D01*
X127608039Y-82384939D01*
X127455615Y-82510029D01*
X127281722Y-82602977D01*
X127281719Y-82602978D01*
X127246596Y-82613632D01*
X127093028Y-82660217D01*
X126945975Y-82674700D01*
X126647625Y-82674700D01*
X126500572Y-82660217D01*
X126347004Y-82613632D01*
X126311881Y-82602978D01*
X126311878Y-82602977D01*
X126137985Y-82510029D01*
X125985561Y-82384939D01*
X125860471Y-82232515D01*
X125767523Y-82058622D01*
X125710283Y-81869928D01*
X125690957Y-81673700D01*
X125710283Y-81477472D01*
X125767523Y-81288778D01*
X125860471Y-81114885D01*
X125985561Y-80962461D01*
X126137985Y-80837371D01*
X126311878Y-80744423D01*
X126500572Y-80687183D01*
X126647625Y-80672700D01*
X126945975Y-80672700D01*
X127093028Y-80687183D01*
G37*
G36*
X149401000Y-82601000D02*
G01*
X148399000Y-82601000D01*
X148399000Y-81699000D01*
X149401000Y-81699000D01*
X149401000Y-82601000D01*
G37*
G36*
X139564499Y-81053445D02*
G01*
X139601995Y-81064820D01*
X139636554Y-81083292D01*
X139666847Y-81108153D01*
X139691708Y-81138446D01*
X139710180Y-81173005D01*
X139721555Y-81210501D01*
X139726000Y-81255638D01*
X139726000Y-81994362D01*
X139721555Y-82039499D01*
X139710180Y-82076995D01*
X139691708Y-82111554D01*
X139666847Y-82141847D01*
X139636554Y-82166708D01*
X139601995Y-82185180D01*
X139564499Y-82196555D01*
X139519362Y-82201000D01*
X138880638Y-82201000D01*
X138835501Y-82196555D01*
X138798005Y-82185180D01*
X138763446Y-82166708D01*
X138733153Y-82141847D01*
X138708292Y-82111554D01*
X138689820Y-82076995D01*
X138678445Y-82039499D01*
X138674000Y-81994362D01*
X138674000Y-81255638D01*
X138678445Y-81210501D01*
X138689820Y-81173005D01*
X138708292Y-81138446D01*
X138733153Y-81108153D01*
X138763446Y-81083292D01*
X138798005Y-81064820D01*
X138835501Y-81053445D01*
X138880638Y-81049000D01*
X139519362Y-81049000D01*
X139564499Y-81053445D01*
G37*
G36*
X153164499Y-80753445D02*
G01*
X153201995Y-80764820D01*
X153236554Y-80783292D01*
X153266847Y-80808153D01*
X153291708Y-80838446D01*
X153310180Y-80873005D01*
X153321555Y-80910501D01*
X153326000Y-80955638D01*
X153326000Y-81694362D01*
X153321555Y-81739499D01*
X153310180Y-81776995D01*
X153291708Y-81811554D01*
X153266847Y-81841847D01*
X153236554Y-81866708D01*
X153201995Y-81885180D01*
X153164499Y-81896555D01*
X153119362Y-81901000D01*
X152480638Y-81901000D01*
X152435501Y-81896555D01*
X152398005Y-81885180D01*
X152363446Y-81866708D01*
X152333153Y-81841847D01*
X152308292Y-81811554D01*
X152289820Y-81776995D01*
X152278445Y-81739499D01*
X152274000Y-81694362D01*
X152274000Y-80955638D01*
X152278445Y-80910501D01*
X152289820Y-80873005D01*
X152308292Y-80838446D01*
X152333153Y-80808153D01*
X152363446Y-80783292D01*
X152398005Y-80764820D01*
X152435501Y-80753445D01*
X152480638Y-80749000D01*
X153119362Y-80749000D01*
X153164499Y-80753445D01*
G37*
G36*
X151401000Y-81651000D02*
G01*
X150399000Y-81651000D01*
X150399000Y-80749000D01*
X151401000Y-80749000D01*
X151401000Y-81651000D01*
G37*
G36*
X137801000Y-81201000D02*
G01*
X136599000Y-81201000D01*
X136599000Y-79999000D01*
X137801000Y-79999000D01*
X137801000Y-81201000D01*
G37*
G36*
X135564499Y-80053445D02*
G01*
X135601995Y-80064820D01*
X135636554Y-80083292D01*
X135666847Y-80108153D01*
X135691708Y-80138446D01*
X135710180Y-80173005D01*
X135721555Y-80210501D01*
X135726000Y-80255638D01*
X135726000Y-80994362D01*
X135721555Y-81039499D01*
X135710180Y-81076995D01*
X135691708Y-81111554D01*
X135666847Y-81141847D01*
X135636554Y-81166708D01*
X135601995Y-81185180D01*
X135564499Y-81196555D01*
X135519362Y-81201000D01*
X134880638Y-81201000D01*
X134835501Y-81196555D01*
X134798005Y-81185180D01*
X134763446Y-81166708D01*
X134733153Y-81141847D01*
X134708292Y-81111554D01*
X134689820Y-81076995D01*
X134678445Y-81039499D01*
X134674000Y-80994362D01*
X134674000Y-80255638D01*
X134678445Y-80210501D01*
X134689820Y-80173005D01*
X134708292Y-80138446D01*
X134733153Y-80108153D01*
X134763446Y-80083292D01*
X134798005Y-80064820D01*
X134835501Y-80053445D01*
X134880638Y-80049000D01*
X135519362Y-80049000D01*
X135564499Y-80053445D01*
G37*
G36*
X145678399Y-79894845D02*
G01*
X145715895Y-79906220D01*
X145750454Y-79924692D01*
X145780747Y-79949553D01*
X145805608Y-79979846D01*
X145824080Y-80014405D01*
X145835455Y-80051901D01*
X145839900Y-80097038D01*
X145839900Y-80735762D01*
X145835455Y-80780899D01*
X145824080Y-80818395D01*
X145805608Y-80852954D01*
X145780747Y-80883247D01*
X145750454Y-80908108D01*
X145715895Y-80926580D01*
X145678399Y-80937955D01*
X145633262Y-80942400D01*
X144894538Y-80942400D01*
X144849401Y-80937955D01*
X144811905Y-80926580D01*
X144777346Y-80908108D01*
X144747053Y-80883247D01*
X144722192Y-80852954D01*
X144703720Y-80818395D01*
X144692345Y-80780899D01*
X144687900Y-80735762D01*
X144687900Y-80097038D01*
X144692345Y-80051901D01*
X144703720Y-80014405D01*
X144722192Y-79979846D01*
X144747053Y-79949553D01*
X144777346Y-79924692D01*
X144811905Y-79906220D01*
X144849401Y-79894845D01*
X144894538Y-79890400D01*
X145633262Y-79890400D01*
X145678399Y-79894845D01*
G37*
G36*
X147428399Y-79894845D02*
G01*
X147465895Y-79906220D01*
X147500454Y-79924692D01*
X147530747Y-79949553D01*
X147555608Y-79979846D01*
X147574080Y-80014405D01*
X147585455Y-80051901D01*
X147589900Y-80097038D01*
X147589900Y-80735762D01*
X147585455Y-80780899D01*
X147574080Y-80818395D01*
X147555608Y-80852954D01*
X147530747Y-80883247D01*
X147500454Y-80908108D01*
X147465895Y-80926580D01*
X147428399Y-80937955D01*
X147383262Y-80942400D01*
X146644538Y-80942400D01*
X146599401Y-80937955D01*
X146561905Y-80926580D01*
X146527346Y-80908108D01*
X146497053Y-80883247D01*
X146472192Y-80852954D01*
X146453720Y-80818395D01*
X146442345Y-80780899D01*
X146437900Y-80735762D01*
X146437900Y-80097038D01*
X146442345Y-80051901D01*
X146453720Y-80014405D01*
X146472192Y-79979846D01*
X146497053Y-79949553D01*
X146527346Y-79924692D01*
X146561905Y-79906220D01*
X146599401Y-79894845D01*
X146644538Y-79890400D01*
X147383262Y-79890400D01*
X147428399Y-79894845D01*
G37*
G36*
X149401000Y-80701000D02*
G01*
X148399000Y-80701000D01*
X148399000Y-79799000D01*
X149401000Y-79799000D01*
X149401000Y-80701000D01*
G37*
G36*
X154764499Y-79503445D02*
G01*
X154801995Y-79514820D01*
X154836554Y-79533292D01*
X154866847Y-79558153D01*
X154891708Y-79588446D01*
X154910180Y-79623005D01*
X154921555Y-79660501D01*
X154926000Y-79705638D01*
X154926000Y-80444362D01*
X154921555Y-80489499D01*
X154910180Y-80526995D01*
X154891708Y-80561554D01*
X154866847Y-80591847D01*
X154836554Y-80616708D01*
X154801995Y-80635180D01*
X154764499Y-80646555D01*
X154719362Y-80651000D01*
X154080638Y-80651000D01*
X154035501Y-80646555D01*
X153998005Y-80635180D01*
X153963446Y-80616708D01*
X153933153Y-80591847D01*
X153908292Y-80561554D01*
X153889820Y-80526995D01*
X153878445Y-80489499D01*
X153874000Y-80444362D01*
X153874000Y-79705638D01*
X153878445Y-79660501D01*
X153889820Y-79623005D01*
X153908292Y-79588446D01*
X153933153Y-79558153D01*
X153963446Y-79533292D01*
X153998005Y-79514820D01*
X154035501Y-79503445D01*
X154080638Y-79499000D01*
X154719362Y-79499000D01*
X154764499Y-79503445D01*
G37*
G36*
X156376000Y-80556000D02*
G01*
X155724000Y-80556000D01*
X155724000Y-79214000D01*
X156376000Y-79214000D01*
X156376000Y-80556000D01*
G37*
G36*
X157326000Y-80556000D02*
G01*
X156674000Y-80556000D01*
X156674000Y-79214000D01*
X157326000Y-79214000D01*
X157326000Y-80556000D01*
G37*
G36*
X158276000Y-80556000D02*
G01*
X157624000Y-80556000D01*
X157624000Y-79214000D01*
X158276000Y-79214000D01*
X158276000Y-80556000D01*
G37*
G36*
X142303028Y-78147183D02*
G01*
X142491722Y-78204423D01*
X142665615Y-78297371D01*
X142818039Y-78422461D01*
X142943129Y-78574885D01*
X143036077Y-78748778D01*
X143093317Y-78937472D01*
X143112643Y-79133700D01*
X143093317Y-79329928D01*
X143066479Y-79418400D01*
X143040497Y-79504053D01*
X143036077Y-79518622D01*
X142943129Y-79692515D01*
X142818039Y-79844939D01*
X142665615Y-79970029D01*
X142491722Y-80062977D01*
X142491719Y-80062978D01*
X142471801Y-80069020D01*
X142303028Y-80120217D01*
X142155975Y-80134700D01*
X141857625Y-80134700D01*
X141710572Y-80120217D01*
X141541799Y-80069020D01*
X141521881Y-80062978D01*
X141521878Y-80062977D01*
X141347985Y-79970029D01*
X141195561Y-79844939D01*
X141070471Y-79692515D01*
X140977523Y-79518622D01*
X140973104Y-79504053D01*
X140947121Y-79418400D01*
X140920283Y-79329928D01*
X140900957Y-79133700D01*
X140920283Y-78937472D01*
X140977523Y-78748778D01*
X141070471Y-78574885D01*
X141195561Y-78422461D01*
X141347985Y-78297371D01*
X141521878Y-78204423D01*
X141710572Y-78147183D01*
X141857625Y-78132700D01*
X142155975Y-78132700D01*
X142303028Y-78147183D01*
G37*
G36*
X127897800Y-80134700D02*
G01*
X125695800Y-80134700D01*
X125695800Y-78132700D01*
X127897800Y-78132700D01*
X127897800Y-80134700D01*
G37*
G36*
X161789499Y-79078445D02*
G01*
X161826995Y-79089820D01*
X161861554Y-79108292D01*
X161891847Y-79133153D01*
X161916708Y-79163446D01*
X161935180Y-79198005D01*
X161946555Y-79235501D01*
X161951000Y-79280638D01*
X161951000Y-79919362D01*
X161946555Y-79964499D01*
X161935180Y-80001995D01*
X161916708Y-80036554D01*
X161891847Y-80066847D01*
X161861554Y-80091708D01*
X161826995Y-80110180D01*
X161789499Y-80121555D01*
X161744362Y-80126000D01*
X161005638Y-80126000D01*
X160960501Y-80121555D01*
X160923005Y-80110180D01*
X160888446Y-80091708D01*
X160858153Y-80066847D01*
X160833292Y-80036554D01*
X160814820Y-80001995D01*
X160803445Y-79964499D01*
X160799000Y-79919362D01*
X160799000Y-79280638D01*
X160803445Y-79235501D01*
X160814820Y-79198005D01*
X160833292Y-79163446D01*
X160858153Y-79133153D01*
X160888446Y-79108292D01*
X160923005Y-79089820D01*
X160960501Y-79078445D01*
X161005638Y-79074000D01*
X161744362Y-79074000D01*
X161789499Y-79078445D01*
G37*
G36*
X160039499Y-79078445D02*
G01*
X160076995Y-79089820D01*
X160111554Y-79108292D01*
X160141847Y-79133153D01*
X160166708Y-79163446D01*
X160185180Y-79198005D01*
X160196555Y-79235501D01*
X160201000Y-79280638D01*
X160201000Y-79919362D01*
X160196555Y-79964499D01*
X160185180Y-80001995D01*
X160166708Y-80036554D01*
X160141847Y-80066847D01*
X160111554Y-80091708D01*
X160076995Y-80110180D01*
X160039499Y-80121555D01*
X159994362Y-80126000D01*
X159255638Y-80126000D01*
X159210501Y-80121555D01*
X159173005Y-80110180D01*
X159138446Y-80091708D01*
X159108153Y-80066847D01*
X159083292Y-80036554D01*
X159064820Y-80001995D01*
X159053445Y-79964499D01*
X159049000Y-79919362D01*
X159049000Y-79280638D01*
X159053445Y-79235501D01*
X159064820Y-79198005D01*
X159083292Y-79163446D01*
X159108153Y-79133153D01*
X159138446Y-79108292D01*
X159173005Y-79089820D01*
X159210501Y-79078445D01*
X159255638Y-79074000D01*
X159994362Y-79074000D01*
X160039499Y-79078445D01*
G37*
G36*
X137026000Y-79481000D02*
G01*
X136274000Y-79481000D01*
X136274000Y-78319000D01*
X137026000Y-78319000D01*
X137026000Y-79481000D01*
G37*
G36*
X138926000Y-79481000D02*
G01*
X138174000Y-79481000D01*
X138174000Y-78319000D01*
X138926000Y-78319000D01*
X138926000Y-79481000D01*
G37*
G36*
X145144999Y-78370845D02*
G01*
X145182495Y-78382220D01*
X145217054Y-78400692D01*
X145247347Y-78425553D01*
X145272208Y-78455846D01*
X145290680Y-78490405D01*
X145302055Y-78527901D01*
X145306500Y-78573038D01*
X145306500Y-79211762D01*
X145302055Y-79256899D01*
X145290680Y-79294395D01*
X145272208Y-79328954D01*
X145247347Y-79359247D01*
X145217054Y-79384108D01*
X145182495Y-79402580D01*
X145144999Y-79413955D01*
X145099862Y-79418400D01*
X144361138Y-79418400D01*
X144316001Y-79413955D01*
X144278505Y-79402580D01*
X144243946Y-79384108D01*
X144213653Y-79359247D01*
X144188792Y-79328954D01*
X144170320Y-79294395D01*
X144158945Y-79256899D01*
X144154500Y-79211762D01*
X144154500Y-78573038D01*
X144158945Y-78527901D01*
X144170320Y-78490405D01*
X144188792Y-78455846D01*
X144213653Y-78425553D01*
X144243946Y-78400692D01*
X144278505Y-78382220D01*
X144316001Y-78370845D01*
X144361138Y-78366400D01*
X145099862Y-78366400D01*
X145144999Y-78370845D01*
G37*
G36*
X146894999Y-78370845D02*
G01*
X146932495Y-78382220D01*
X146967054Y-78400692D01*
X146997347Y-78425553D01*
X147022208Y-78455846D01*
X147040680Y-78490405D01*
X147052055Y-78527901D01*
X147056500Y-78573038D01*
X147056500Y-79211762D01*
X147052055Y-79256899D01*
X147040680Y-79294395D01*
X147022208Y-79328954D01*
X146997347Y-79359247D01*
X146967054Y-79384108D01*
X146932495Y-79402580D01*
X146894999Y-79413955D01*
X146849862Y-79418400D01*
X146111138Y-79418400D01*
X146066001Y-79413955D01*
X146028505Y-79402580D01*
X145993946Y-79384108D01*
X145963653Y-79359247D01*
X145938792Y-79328954D01*
X145920320Y-79294395D01*
X145908945Y-79256899D01*
X145904500Y-79211762D01*
X145904500Y-78573038D01*
X145908945Y-78527901D01*
X145920320Y-78490405D01*
X145938792Y-78455846D01*
X145963653Y-78425553D01*
X145993946Y-78400692D01*
X146028505Y-78382220D01*
X146066001Y-78370845D01*
X146111138Y-78366400D01*
X146849862Y-78366400D01*
X146894999Y-78370845D01*
G37*
G36*
X154764499Y-77753445D02*
G01*
X154801995Y-77764820D01*
X154836554Y-77783292D01*
X154866847Y-77808153D01*
X154891708Y-77838446D01*
X154910180Y-77873005D01*
X154921555Y-77910501D01*
X154926000Y-77955638D01*
X154926000Y-78694362D01*
X154921555Y-78739499D01*
X154910180Y-78776995D01*
X154891708Y-78811554D01*
X154866847Y-78841847D01*
X154836554Y-78866708D01*
X154801995Y-78885180D01*
X154764499Y-78896555D01*
X154719362Y-78901000D01*
X154080638Y-78901000D01*
X154035501Y-78896555D01*
X153998005Y-78885180D01*
X153963446Y-78866708D01*
X153933153Y-78841847D01*
X153908292Y-78811554D01*
X153889820Y-78776995D01*
X153878445Y-78739499D01*
X153874000Y-78694362D01*
X153874000Y-77955638D01*
X153878445Y-77910501D01*
X153889820Y-77873005D01*
X153908292Y-77838446D01*
X153933153Y-77808153D01*
X153963446Y-77783292D01*
X153998005Y-77764820D01*
X154035501Y-77753445D01*
X154080638Y-77749000D01*
X154719362Y-77749000D01*
X154764499Y-77753445D01*
G37*
G36*
X152040599Y-77557545D02*
G01*
X152078095Y-77568920D01*
X152112654Y-77587392D01*
X152142947Y-77612253D01*
X152167808Y-77642546D01*
X152186280Y-77677105D01*
X152197655Y-77714601D01*
X152202100Y-77759738D01*
X152202100Y-78498462D01*
X152197655Y-78543599D01*
X152186280Y-78581095D01*
X152167808Y-78615654D01*
X152142947Y-78645947D01*
X152112654Y-78670808D01*
X152078095Y-78689280D01*
X152040599Y-78700655D01*
X151995462Y-78705100D01*
X151356738Y-78705100D01*
X151311601Y-78700655D01*
X151274105Y-78689280D01*
X151239546Y-78670808D01*
X151209253Y-78645947D01*
X151184392Y-78615654D01*
X151165920Y-78581095D01*
X151154545Y-78543599D01*
X151150100Y-78498462D01*
X151150100Y-77759738D01*
X151154545Y-77714601D01*
X151165920Y-77677105D01*
X151184392Y-77642546D01*
X151209253Y-77612253D01*
X151239546Y-77587392D01*
X151274105Y-77568920D01*
X151311601Y-77557545D01*
X151356738Y-77553100D01*
X151995462Y-77553100D01*
X152040599Y-77557545D01*
G37*
G36*
X156376000Y-78186000D02*
G01*
X155724000Y-78186000D01*
X155724000Y-76844000D01*
X156376000Y-76844000D01*
X156376000Y-78186000D01*
G37*
G36*
X158276000Y-78186000D02*
G01*
X157624000Y-78186000D01*
X157624000Y-76844000D01*
X158276000Y-76844000D01*
X158276000Y-78186000D01*
G37*
G36*
X162275880Y-73459776D02*
G01*
X162656593Y-73535504D01*
X163066249Y-73705189D01*
X163434929Y-73951534D01*
X163748466Y-74265071D01*
X163994811Y-74633751D01*
X164164496Y-75043407D01*
X164251000Y-75478296D01*
X164251000Y-75921704D01*
X164164496Y-76356593D01*
X163994811Y-76766249D01*
X163748466Y-77134929D01*
X163434929Y-77448466D01*
X163066249Y-77694811D01*
X162656593Y-77864496D01*
X162275880Y-77940224D01*
X162221705Y-77951000D01*
X161778295Y-77951000D01*
X161724120Y-77940224D01*
X161343407Y-77864496D01*
X160933751Y-77694811D01*
X160565071Y-77448466D01*
X160251534Y-77134929D01*
X160005189Y-76766249D01*
X159835504Y-76356593D01*
X159749000Y-75921704D01*
X159749000Y-75478296D01*
X159835504Y-75043407D01*
X160005189Y-74633751D01*
X160251534Y-74265071D01*
X160565071Y-73951534D01*
X160933751Y-73705189D01*
X161343407Y-73535504D01*
X161724120Y-73459776D01*
X161778295Y-73449000D01*
X162221705Y-73449000D01*
X162275880Y-73459776D01*
G37*
G36*
X148051000Y-77726000D02*
G01*
X146729000Y-77726000D01*
X146729000Y-75074000D01*
X148051000Y-75074000D01*
X148051000Y-77726000D01*
G37*
G36*
X150671000Y-77726000D02*
G01*
X149349000Y-77726000D01*
X149349000Y-75074000D01*
X150671000Y-75074000D01*
X150671000Y-77726000D01*
G37*
G36*
X138926000Y-77281000D02*
G01*
X136274000Y-77281000D01*
X136274000Y-76119000D01*
X138926000Y-76119000D01*
X138926000Y-77281000D01*
G37*
G36*
X152040599Y-75807545D02*
G01*
X152078095Y-75818920D01*
X152112654Y-75837392D01*
X152142947Y-75862253D01*
X152167808Y-75892546D01*
X152186280Y-75927105D01*
X152197655Y-75964601D01*
X152202100Y-76009738D01*
X152202100Y-76748462D01*
X152197655Y-76793599D01*
X152186280Y-76831095D01*
X152167808Y-76865654D01*
X152142947Y-76895947D01*
X152112654Y-76920808D01*
X152078095Y-76939280D01*
X152040599Y-76950655D01*
X151995462Y-76955100D01*
X151356738Y-76955100D01*
X151311601Y-76950655D01*
X151274105Y-76939280D01*
X151239546Y-76920808D01*
X151209253Y-76895947D01*
X151184392Y-76865654D01*
X151165920Y-76831095D01*
X151154545Y-76793599D01*
X151150100Y-76748462D01*
X151150100Y-76009738D01*
X151154545Y-75964601D01*
X151165920Y-75927105D01*
X151184392Y-75892546D01*
X151209253Y-75862253D01*
X151239546Y-75837392D01*
X151274105Y-75818920D01*
X151311601Y-75807545D01*
X151356738Y-75803100D01*
X151995462Y-75803100D01*
X152040599Y-75807545D01*
G37*
G36*
X142341698Y-76856599D02*
G01*
X141639700Y-76856599D01*
X141639700Y-76254601D01*
X142341698Y-76254601D01*
X142341698Y-76856599D01*
G37*
G36*
X141341700Y-76856599D02*
G01*
X140639702Y-76856599D01*
X140639702Y-76254601D01*
X141341700Y-76254601D01*
X141341700Y-76856599D01*
G37*
G36*
X156339499Y-74978445D02*
G01*
X156376995Y-74989820D01*
X156411554Y-75008292D01*
X156441847Y-75033153D01*
X156466708Y-75063446D01*
X156485180Y-75098005D01*
X156496555Y-75135501D01*
X156501000Y-75180638D01*
X156501000Y-75819362D01*
X156496555Y-75864499D01*
X156485180Y-75901995D01*
X156466708Y-75936554D01*
X156441847Y-75966847D01*
X156411554Y-75991708D01*
X156376995Y-76010180D01*
X156339499Y-76021555D01*
X156294362Y-76026000D01*
X155555638Y-76026000D01*
X155510501Y-76021555D01*
X155473005Y-76010180D01*
X155438446Y-75991708D01*
X155408153Y-75966847D01*
X155383292Y-75936554D01*
X155364820Y-75901995D01*
X155353445Y-75864499D01*
X155349000Y-75819362D01*
X155349000Y-75180638D01*
X155353445Y-75135501D01*
X155364820Y-75098005D01*
X155383292Y-75063446D01*
X155408153Y-75033153D01*
X155438446Y-75008292D01*
X155473005Y-74989820D01*
X155510501Y-74978445D01*
X155555638Y-74974000D01*
X156294362Y-74974000D01*
X156339499Y-74978445D01*
G37*
G36*
X158089499Y-74978445D02*
G01*
X158126995Y-74989820D01*
X158161554Y-75008292D01*
X158191847Y-75033153D01*
X158216708Y-75063446D01*
X158235180Y-75098005D01*
X158246555Y-75135501D01*
X158251000Y-75180638D01*
X158251000Y-75819362D01*
X158246555Y-75864499D01*
X158235180Y-75901995D01*
X158216708Y-75936554D01*
X158191847Y-75966847D01*
X158161554Y-75991708D01*
X158126995Y-76010180D01*
X158089499Y-76021555D01*
X158044362Y-76026000D01*
X157305638Y-76026000D01*
X157260501Y-76021555D01*
X157223005Y-76010180D01*
X157188446Y-75991708D01*
X157158153Y-75966847D01*
X157133292Y-75936554D01*
X157114820Y-75901995D01*
X157103445Y-75864499D01*
X157099000Y-75819362D01*
X157099000Y-75180638D01*
X157103445Y-75135501D01*
X157114820Y-75098005D01*
X157133292Y-75063446D01*
X157158153Y-75033153D01*
X157188446Y-75008292D01*
X157223005Y-74989820D01*
X157260501Y-74978445D01*
X157305638Y-74974000D01*
X158044362Y-74974000D01*
X158089499Y-74978445D01*
G37*
G36*
X138389499Y-74378445D02*
G01*
X138426995Y-74389820D01*
X138461554Y-74408292D01*
X138491847Y-74433153D01*
X138516708Y-74463446D01*
X138535180Y-74498005D01*
X138546555Y-74535501D01*
X138551000Y-74580638D01*
X138551000Y-75219362D01*
X138546555Y-75264499D01*
X138535180Y-75301995D01*
X138516708Y-75336554D01*
X138491847Y-75366847D01*
X138461554Y-75391708D01*
X138426995Y-75410180D01*
X138389499Y-75421555D01*
X138344362Y-75426000D01*
X137605638Y-75426000D01*
X137560501Y-75421555D01*
X137523005Y-75410180D01*
X137488446Y-75391708D01*
X137458153Y-75366847D01*
X137433292Y-75336554D01*
X137414820Y-75301995D01*
X137403445Y-75264499D01*
X137399000Y-75219362D01*
X137399000Y-74580638D01*
X137403445Y-74535501D01*
X137414820Y-74498005D01*
X137433292Y-74463446D01*
X137458153Y-74433153D01*
X137488446Y-74408292D01*
X137523005Y-74389820D01*
X137560501Y-74378445D01*
X137605638Y-74374000D01*
X138344362Y-74374000D01*
X138389499Y-74378445D01*
G37*
G36*
X136639499Y-74378445D02*
G01*
X136676995Y-74389820D01*
X136711554Y-74408292D01*
X136741847Y-74433153D01*
X136766708Y-74463446D01*
X136785180Y-74498005D01*
X136796555Y-74535501D01*
X136801000Y-74580638D01*
X136801000Y-75219362D01*
X136796555Y-75264499D01*
X136785180Y-75301995D01*
X136766708Y-75336554D01*
X136741847Y-75366847D01*
X136711554Y-75391708D01*
X136676995Y-75410180D01*
X136639499Y-75421555D01*
X136594362Y-75426000D01*
X135855638Y-75426000D01*
X135810501Y-75421555D01*
X135773005Y-75410180D01*
X135738446Y-75391708D01*
X135708153Y-75366847D01*
X135683292Y-75336554D01*
X135664820Y-75301995D01*
X135653445Y-75264499D01*
X135649000Y-75219362D01*
X135649000Y-74580638D01*
X135653445Y-74535501D01*
X135664820Y-74498005D01*
X135683292Y-74463446D01*
X135708153Y-74433153D01*
X135738446Y-74408292D01*
X135773005Y-74389820D01*
X135810501Y-74378445D01*
X135855638Y-74374000D01*
X136594362Y-74374000D01*
X136639499Y-74378445D01*
G37*
G36*
X144289499Y-74278445D02*
G01*
X144326995Y-74289820D01*
X144361554Y-74308292D01*
X144391847Y-74333153D01*
X144416708Y-74363446D01*
X144435180Y-74398005D01*
X144446555Y-74435501D01*
X144451000Y-74480638D01*
X144451000Y-75119362D01*
X144446555Y-75164499D01*
X144435180Y-75201995D01*
X144416708Y-75236554D01*
X144391847Y-75266847D01*
X144361554Y-75291708D01*
X144326995Y-75310180D01*
X144289499Y-75321555D01*
X144244362Y-75326000D01*
X143505638Y-75326000D01*
X143460501Y-75321555D01*
X143423005Y-75310180D01*
X143388446Y-75291708D01*
X143358153Y-75266847D01*
X143333292Y-75236554D01*
X143314820Y-75201995D01*
X143303445Y-75164499D01*
X143299000Y-75119362D01*
X143299000Y-74480638D01*
X143303445Y-74435501D01*
X143314820Y-74398005D01*
X143333292Y-74363446D01*
X143358153Y-74333153D01*
X143388446Y-74308292D01*
X143423005Y-74289820D01*
X143460501Y-74278445D01*
X143505638Y-74274000D01*
X144244362Y-74274000D01*
X144289499Y-74278445D01*
G37*
G36*
X142539499Y-74278445D02*
G01*
X142576995Y-74289820D01*
X142611554Y-74308292D01*
X142641847Y-74333153D01*
X142666708Y-74363446D01*
X142685180Y-74398005D01*
X142696555Y-74435501D01*
X142701000Y-74480638D01*
X142701000Y-75119362D01*
X142696555Y-75164499D01*
X142685180Y-75201995D01*
X142666708Y-75236554D01*
X142641847Y-75266847D01*
X142611554Y-75291708D01*
X142576995Y-75310180D01*
X142539499Y-75321555D01*
X142494362Y-75326000D01*
X141755638Y-75326000D01*
X141710501Y-75321555D01*
X141673005Y-75310180D01*
X141638446Y-75291708D01*
X141608153Y-75266847D01*
X141583292Y-75236554D01*
X141564820Y-75201995D01*
X141553445Y-75164499D01*
X141549000Y-75119362D01*
X141549000Y-74480638D01*
X141553445Y-74435501D01*
X141564820Y-74398005D01*
X141583292Y-74363446D01*
X141608153Y-74333153D01*
X141638446Y-74308292D01*
X141673005Y-74289820D01*
X141710501Y-74278445D01*
X141755638Y-74274000D01*
X142494362Y-74274000D01*
X142539499Y-74278445D01*
G37*
G36*
X140974800Y-75144700D02*
G01*
X138972800Y-75144700D01*
X138972800Y-72942700D01*
X140974800Y-72942700D01*
X140974800Y-75144700D01*
G37*
G36*
X129854800Y-75144700D02*
G01*
X127852800Y-75144700D01*
X127852800Y-72942700D01*
X129854800Y-72942700D01*
X129854800Y-75144700D01*
G37*
G36*
X125990143Y-73445914D02*
G01*
X125990146Y-73445915D01*
X125990145Y-73445915D01*
X126081139Y-73483606D01*
X126122363Y-73511151D01*
X126163030Y-73538324D01*
X126232676Y-73607970D01*
X126287395Y-73689863D01*
X126325086Y-73780857D01*
X126344300Y-73877453D01*
X126344300Y-73975947D01*
X126325086Y-74072543D01*
X126287395Y-74163537D01*
X126232676Y-74245430D01*
X126163030Y-74315076D01*
X126135976Y-74333153D01*
X126081139Y-74369794D01*
X126081138Y-74369795D01*
X126081137Y-74369795D01*
X125990143Y-74407486D01*
X125893547Y-74426700D01*
X125795053Y-74426700D01*
X125698457Y-74407486D01*
X125607463Y-74369795D01*
X125607462Y-74369795D01*
X125607461Y-74369794D01*
X125552624Y-74333153D01*
X125525570Y-74315076D01*
X125455924Y-74245430D01*
X125401205Y-74163537D01*
X125363514Y-74072543D01*
X125344300Y-73975947D01*
X125344300Y-73877453D01*
X125363514Y-73780857D01*
X125401205Y-73689863D01*
X125455924Y-73607970D01*
X125525570Y-73538324D01*
X125566237Y-73511151D01*
X125607461Y-73483606D01*
X125698455Y-73445915D01*
X125698454Y-73445915D01*
X125698457Y-73445914D01*
X125795053Y-73426700D01*
X125893547Y-73426700D01*
X125990143Y-73445914D01*
G37*
M02*
