G04 #@! TF.GenerationSoftware,KiCad,Pcbnew,(5.1.5)-3*
G04 #@! TF.CreationDate,2020-05-22T11:52:53-04:00*
G04 #@! TF.ProjectId,uBit_carrier,75426974-5f63-4617-9272-6965722e6b69,rev?*
G04 #@! TF.SameCoordinates,Original*
G04 #@! TF.FileFunction,Soldermask,Bot*
G04 #@! TF.FilePolarity,Negative*
%FSLAX46Y46*%
G04 Gerber Fmt 4.6, Leading zero omitted, Abs format (unit mm)*
G04 Created by KiCad (PCBNEW (5.1.5)-3) date 2020-05-22 11:52:53*
%MOMM*%
%LPD*%
G04 APERTURE LIST*
%ADD10C,0.100000*%
G04 APERTURE END LIST*
D10*
G36*
X151408600Y-105102989D02*
G01*
X151441652Y-105113015D01*
X151472103Y-105129292D01*
X151498799Y-105151201D01*
X151520708Y-105177897D01*
X151536985Y-105208348D01*
X151547011Y-105241400D01*
X151551000Y-105281903D01*
X151551000Y-106718097D01*
X151547011Y-106758600D01*
X151536985Y-106791652D01*
X151520708Y-106822103D01*
X151498799Y-106848799D01*
X151472103Y-106870708D01*
X151441652Y-106886985D01*
X151408600Y-106897011D01*
X151368097Y-106901000D01*
X149631903Y-106901000D01*
X149591400Y-106897011D01*
X149558348Y-106886985D01*
X149527897Y-106870708D01*
X149501201Y-106848799D01*
X149479292Y-106822103D01*
X149463015Y-106791652D01*
X149452989Y-106758600D01*
X149449000Y-106718097D01*
X149449000Y-105281903D01*
X149452989Y-105241400D01*
X149463015Y-105208348D01*
X149479292Y-105177897D01*
X149501201Y-105151201D01*
X149527897Y-105129292D01*
X149558348Y-105113015D01*
X149591400Y-105102989D01*
X149631903Y-105099000D01*
X151368097Y-105099000D01*
X151408600Y-105102989D01*
G37*
G36*
X150760443Y-102605519D02*
G01*
X150826627Y-102612037D01*
X150996466Y-102663557D01*
X151152991Y-102747222D01*
X151188729Y-102776552D01*
X151290186Y-102859814D01*
X151373448Y-102961271D01*
X151402778Y-102997009D01*
X151486443Y-103153534D01*
X151537963Y-103323373D01*
X151555359Y-103500000D01*
X151537963Y-103676627D01*
X151486443Y-103846466D01*
X151402778Y-104002991D01*
X151373448Y-104038729D01*
X151290186Y-104140186D01*
X151188729Y-104223448D01*
X151152991Y-104252778D01*
X150996466Y-104336443D01*
X150826627Y-104387963D01*
X150760442Y-104394482D01*
X150694260Y-104401000D01*
X150305740Y-104401000D01*
X150239557Y-104394481D01*
X150173373Y-104387963D01*
X150003534Y-104336443D01*
X149847009Y-104252778D01*
X149811271Y-104223448D01*
X149709814Y-104140186D01*
X149626552Y-104038729D01*
X149597222Y-104002991D01*
X149513557Y-103846466D01*
X149462037Y-103676627D01*
X149444641Y-103500000D01*
X149462037Y-103323373D01*
X149513557Y-103153534D01*
X149597222Y-102997009D01*
X149626552Y-102961271D01*
X149709814Y-102859814D01*
X149811271Y-102776552D01*
X149847009Y-102747222D01*
X150003534Y-102663557D01*
X150173373Y-102612037D01*
X150239557Y-102605519D01*
X150305740Y-102599000D01*
X150694260Y-102599000D01*
X150760443Y-102605519D01*
G37*
G36*
X161133642Y-80754781D02*
G01*
X161279414Y-80815162D01*
X161279416Y-80815163D01*
X161410608Y-80902822D01*
X161522178Y-81014392D01*
X161609837Y-81145584D01*
X161609838Y-81145586D01*
X161670219Y-81291358D01*
X161701000Y-81446107D01*
X161701000Y-81603893D01*
X161670219Y-81758642D01*
X161609838Y-81904414D01*
X161609837Y-81904416D01*
X161522178Y-82035608D01*
X161410608Y-82147178D01*
X161279416Y-82234837D01*
X161279415Y-82234838D01*
X161279414Y-82234838D01*
X161133642Y-82295219D01*
X160978893Y-82326000D01*
X160821107Y-82326000D01*
X160666358Y-82295219D01*
X160520586Y-82234838D01*
X160520585Y-82234838D01*
X160520584Y-82234837D01*
X160389392Y-82147178D01*
X160277822Y-82035608D01*
X160190163Y-81904416D01*
X160190162Y-81904414D01*
X160129781Y-81758642D01*
X160099000Y-81603893D01*
X160099000Y-81446107D01*
X160129781Y-81291358D01*
X160190162Y-81145586D01*
X160190163Y-81145584D01*
X160277822Y-81014392D01*
X160389392Y-80902822D01*
X160520584Y-80815163D01*
X160520586Y-80815162D01*
X160666358Y-80754781D01*
X160821107Y-80724000D01*
X160978893Y-80724000D01*
X161133642Y-80754781D01*
G37*
G36*
X148433642Y-80754781D02*
G01*
X148579414Y-80815162D01*
X148579416Y-80815163D01*
X148710608Y-80902822D01*
X148822178Y-81014392D01*
X148909837Y-81145584D01*
X148909838Y-81145586D01*
X148970219Y-81291358D01*
X149001000Y-81446107D01*
X149001000Y-81603893D01*
X148970219Y-81758642D01*
X148909838Y-81904414D01*
X148909837Y-81904416D01*
X148822178Y-82035608D01*
X148710608Y-82147178D01*
X148579416Y-82234837D01*
X148579415Y-82234838D01*
X148579414Y-82234838D01*
X148433642Y-82295219D01*
X148278893Y-82326000D01*
X148121107Y-82326000D01*
X147966358Y-82295219D01*
X147820586Y-82234838D01*
X147820585Y-82234838D01*
X147820584Y-82234837D01*
X147689392Y-82147178D01*
X147577822Y-82035608D01*
X147490163Y-81904416D01*
X147490162Y-81904414D01*
X147429781Y-81758642D01*
X147399000Y-81603893D01*
X147399000Y-81446107D01*
X147429781Y-81291358D01*
X147490162Y-81145586D01*
X147490163Y-81145584D01*
X147577822Y-81014392D01*
X147689392Y-80902822D01*
X147820584Y-80815163D01*
X147820586Y-80815162D01*
X147966358Y-80754781D01*
X148121107Y-80724000D01*
X148278893Y-80724000D01*
X148433642Y-80754781D01*
G37*
G36*
X150973642Y-80754781D02*
G01*
X151119414Y-80815162D01*
X151119416Y-80815163D01*
X151250608Y-80902822D01*
X151362178Y-81014392D01*
X151449837Y-81145584D01*
X151449838Y-81145586D01*
X151510219Y-81291358D01*
X151541000Y-81446107D01*
X151541000Y-81603893D01*
X151510219Y-81758642D01*
X151449838Y-81904414D01*
X151449837Y-81904416D01*
X151362178Y-82035608D01*
X151250608Y-82147178D01*
X151119416Y-82234837D01*
X151119415Y-82234838D01*
X151119414Y-82234838D01*
X150973642Y-82295219D01*
X150818893Y-82326000D01*
X150661107Y-82326000D01*
X150506358Y-82295219D01*
X150360586Y-82234838D01*
X150360585Y-82234838D01*
X150360584Y-82234837D01*
X150229392Y-82147178D01*
X150117822Y-82035608D01*
X150030163Y-81904416D01*
X150030162Y-81904414D01*
X149969781Y-81758642D01*
X149939000Y-81603893D01*
X149939000Y-81446107D01*
X149969781Y-81291358D01*
X150030162Y-81145586D01*
X150030163Y-81145584D01*
X150117822Y-81014392D01*
X150229392Y-80902822D01*
X150360584Y-80815163D01*
X150360586Y-80815162D01*
X150506358Y-80754781D01*
X150661107Y-80724000D01*
X150818893Y-80724000D01*
X150973642Y-80754781D01*
G37*
G36*
X153513642Y-80754781D02*
G01*
X153659414Y-80815162D01*
X153659416Y-80815163D01*
X153790608Y-80902822D01*
X153902178Y-81014392D01*
X153989837Y-81145584D01*
X153989838Y-81145586D01*
X154050219Y-81291358D01*
X154081000Y-81446107D01*
X154081000Y-81603893D01*
X154050219Y-81758642D01*
X153989838Y-81904414D01*
X153989837Y-81904416D01*
X153902178Y-82035608D01*
X153790608Y-82147178D01*
X153659416Y-82234837D01*
X153659415Y-82234838D01*
X153659414Y-82234838D01*
X153513642Y-82295219D01*
X153358893Y-82326000D01*
X153201107Y-82326000D01*
X153046358Y-82295219D01*
X152900586Y-82234838D01*
X152900585Y-82234838D01*
X152900584Y-82234837D01*
X152769392Y-82147178D01*
X152657822Y-82035608D01*
X152570163Y-81904416D01*
X152570162Y-81904414D01*
X152509781Y-81758642D01*
X152479000Y-81603893D01*
X152479000Y-81446107D01*
X152509781Y-81291358D01*
X152570162Y-81145586D01*
X152570163Y-81145584D01*
X152657822Y-81014392D01*
X152769392Y-80902822D01*
X152900584Y-80815163D01*
X152900586Y-80815162D01*
X153046358Y-80754781D01*
X153201107Y-80724000D01*
X153358893Y-80724000D01*
X153513642Y-80754781D01*
G37*
G36*
X156053642Y-80754781D02*
G01*
X156199414Y-80815162D01*
X156199416Y-80815163D01*
X156330608Y-80902822D01*
X156442178Y-81014392D01*
X156529837Y-81145584D01*
X156529838Y-81145586D01*
X156590219Y-81291358D01*
X156621000Y-81446107D01*
X156621000Y-81603893D01*
X156590219Y-81758642D01*
X156529838Y-81904414D01*
X156529837Y-81904416D01*
X156442178Y-82035608D01*
X156330608Y-82147178D01*
X156199416Y-82234837D01*
X156199415Y-82234838D01*
X156199414Y-82234838D01*
X156053642Y-82295219D01*
X155898893Y-82326000D01*
X155741107Y-82326000D01*
X155586358Y-82295219D01*
X155440586Y-82234838D01*
X155440585Y-82234838D01*
X155440584Y-82234837D01*
X155309392Y-82147178D01*
X155197822Y-82035608D01*
X155110163Y-81904416D01*
X155110162Y-81904414D01*
X155049781Y-81758642D01*
X155019000Y-81603893D01*
X155019000Y-81446107D01*
X155049781Y-81291358D01*
X155110162Y-81145586D01*
X155110163Y-81145584D01*
X155197822Y-81014392D01*
X155309392Y-80902822D01*
X155440584Y-80815163D01*
X155440586Y-80815162D01*
X155586358Y-80754781D01*
X155741107Y-80724000D01*
X155898893Y-80724000D01*
X156053642Y-80754781D01*
G37*
G36*
X158593642Y-80754781D02*
G01*
X158739414Y-80815162D01*
X158739416Y-80815163D01*
X158870608Y-80902822D01*
X158982178Y-81014392D01*
X159069837Y-81145584D01*
X159069838Y-81145586D01*
X159130219Y-81291358D01*
X159161000Y-81446107D01*
X159161000Y-81603893D01*
X159130219Y-81758642D01*
X159069838Y-81904414D01*
X159069837Y-81904416D01*
X158982178Y-82035608D01*
X158870608Y-82147178D01*
X158739416Y-82234837D01*
X158739415Y-82234838D01*
X158739414Y-82234838D01*
X158593642Y-82295219D01*
X158438893Y-82326000D01*
X158281107Y-82326000D01*
X158126358Y-82295219D01*
X157980586Y-82234838D01*
X157980585Y-82234838D01*
X157980584Y-82234837D01*
X157849392Y-82147178D01*
X157737822Y-82035608D01*
X157650163Y-81904416D01*
X157650162Y-81904414D01*
X157589781Y-81758642D01*
X157559000Y-81603893D01*
X157559000Y-81446107D01*
X157589781Y-81291358D01*
X157650162Y-81145586D01*
X157650163Y-81145584D01*
X157737822Y-81014392D01*
X157849392Y-80902822D01*
X157980584Y-80815163D01*
X157980586Y-80815162D01*
X158126358Y-80754781D01*
X158281107Y-80724000D01*
X158438893Y-80724000D01*
X158593642Y-80754781D01*
G37*
G36*
X163673642Y-80754781D02*
G01*
X163819414Y-80815162D01*
X163819416Y-80815163D01*
X163950608Y-80902822D01*
X164062178Y-81014392D01*
X164149837Y-81145584D01*
X164149838Y-81145586D01*
X164210219Y-81291358D01*
X164241000Y-81446107D01*
X164241000Y-81603893D01*
X164210219Y-81758642D01*
X164149838Y-81904414D01*
X164149837Y-81904416D01*
X164062178Y-82035608D01*
X163950608Y-82147178D01*
X163819416Y-82234837D01*
X163819415Y-82234838D01*
X163819414Y-82234838D01*
X163673642Y-82295219D01*
X163518893Y-82326000D01*
X163361107Y-82326000D01*
X163206358Y-82295219D01*
X163060586Y-82234838D01*
X163060585Y-82234838D01*
X163060584Y-82234837D01*
X162929392Y-82147178D01*
X162817822Y-82035608D01*
X162730163Y-81904416D01*
X162730162Y-81904414D01*
X162669781Y-81758642D01*
X162639000Y-81603893D01*
X162639000Y-81446107D01*
X162669781Y-81291358D01*
X162730162Y-81145586D01*
X162730163Y-81145584D01*
X162817822Y-81014392D01*
X162929392Y-80902822D01*
X163060584Y-80815163D01*
X163060586Y-80815162D01*
X163206358Y-80754781D01*
X163361107Y-80724000D01*
X163518893Y-80724000D01*
X163673642Y-80754781D01*
G37*
G36*
X166213642Y-80754781D02*
G01*
X166359414Y-80815162D01*
X166359416Y-80815163D01*
X166490608Y-80902822D01*
X166602178Y-81014392D01*
X166689837Y-81145584D01*
X166689838Y-81145586D01*
X166750219Y-81291358D01*
X166781000Y-81446107D01*
X166781000Y-81603893D01*
X166750219Y-81758642D01*
X166689838Y-81904414D01*
X166689837Y-81904416D01*
X166602178Y-82035608D01*
X166490608Y-82147178D01*
X166359416Y-82234837D01*
X166359415Y-82234838D01*
X166359414Y-82234838D01*
X166213642Y-82295219D01*
X166058893Y-82326000D01*
X165901107Y-82326000D01*
X165746358Y-82295219D01*
X165600586Y-82234838D01*
X165600585Y-82234838D01*
X165600584Y-82234837D01*
X165469392Y-82147178D01*
X165357822Y-82035608D01*
X165270163Y-81904416D01*
X165270162Y-81904414D01*
X165209781Y-81758642D01*
X165179000Y-81603893D01*
X165179000Y-81446107D01*
X165209781Y-81291358D01*
X165270162Y-81145586D01*
X165270163Y-81145584D01*
X165357822Y-81014392D01*
X165469392Y-80902822D01*
X165600584Y-80815163D01*
X165600586Y-80815162D01*
X165746358Y-80754781D01*
X165901107Y-80724000D01*
X166058893Y-80724000D01*
X166213642Y-80754781D01*
G37*
G36*
X168753642Y-80754781D02*
G01*
X168899414Y-80815162D01*
X168899416Y-80815163D01*
X169030608Y-80902822D01*
X169142178Y-81014392D01*
X169229837Y-81145584D01*
X169229838Y-81145586D01*
X169290219Y-81291358D01*
X169321000Y-81446107D01*
X169321000Y-81603893D01*
X169290219Y-81758642D01*
X169229838Y-81904414D01*
X169229837Y-81904416D01*
X169142178Y-82035608D01*
X169030608Y-82147178D01*
X168899416Y-82234837D01*
X168899415Y-82234838D01*
X168899414Y-82234838D01*
X168753642Y-82295219D01*
X168598893Y-82326000D01*
X168441107Y-82326000D01*
X168286358Y-82295219D01*
X168140586Y-82234838D01*
X168140585Y-82234838D01*
X168140584Y-82234837D01*
X168009392Y-82147178D01*
X167897822Y-82035608D01*
X167810163Y-81904416D01*
X167810162Y-81904414D01*
X167749781Y-81758642D01*
X167719000Y-81603893D01*
X167719000Y-81446107D01*
X167749781Y-81291358D01*
X167810162Y-81145586D01*
X167810163Y-81145584D01*
X167897822Y-81014392D01*
X168009392Y-80902822D01*
X168140584Y-80815163D01*
X168140586Y-80815162D01*
X168286358Y-80754781D01*
X168441107Y-80724000D01*
X168598893Y-80724000D01*
X168753642Y-80754781D01*
G37*
G36*
X171293642Y-80754781D02*
G01*
X171439414Y-80815162D01*
X171439416Y-80815163D01*
X171570608Y-80902822D01*
X171682178Y-81014392D01*
X171769837Y-81145584D01*
X171769838Y-81145586D01*
X171830219Y-81291358D01*
X171861000Y-81446107D01*
X171861000Y-81603893D01*
X171830219Y-81758642D01*
X171769838Y-81904414D01*
X171769837Y-81904416D01*
X171682178Y-82035608D01*
X171570608Y-82147178D01*
X171439416Y-82234837D01*
X171439415Y-82234838D01*
X171439414Y-82234838D01*
X171293642Y-82295219D01*
X171138893Y-82326000D01*
X170981107Y-82326000D01*
X170826358Y-82295219D01*
X170680586Y-82234838D01*
X170680585Y-82234838D01*
X170680584Y-82234837D01*
X170549392Y-82147178D01*
X170437822Y-82035608D01*
X170350163Y-81904416D01*
X170350162Y-81904414D01*
X170289781Y-81758642D01*
X170259000Y-81603893D01*
X170259000Y-81446107D01*
X170289781Y-81291358D01*
X170350162Y-81145586D01*
X170350163Y-81145584D01*
X170437822Y-81014392D01*
X170549392Y-80902822D01*
X170680584Y-80815163D01*
X170680586Y-80815162D01*
X170826358Y-80754781D01*
X170981107Y-80724000D01*
X171138893Y-80724000D01*
X171293642Y-80754781D01*
G37*
G36*
X178913642Y-80754781D02*
G01*
X179059414Y-80815162D01*
X179059416Y-80815163D01*
X179190608Y-80902822D01*
X179302178Y-81014392D01*
X179389837Y-81145584D01*
X179389838Y-81145586D01*
X179450219Y-81291358D01*
X179481000Y-81446107D01*
X179481000Y-81603893D01*
X179450219Y-81758642D01*
X179389838Y-81904414D01*
X179389837Y-81904416D01*
X179302178Y-82035608D01*
X179190608Y-82147178D01*
X179059416Y-82234837D01*
X179059415Y-82234838D01*
X179059414Y-82234838D01*
X178913642Y-82295219D01*
X178758893Y-82326000D01*
X178601107Y-82326000D01*
X178446358Y-82295219D01*
X178300586Y-82234838D01*
X178300585Y-82234838D01*
X178300584Y-82234837D01*
X178169392Y-82147178D01*
X178057822Y-82035608D01*
X177970163Y-81904416D01*
X177970162Y-81904414D01*
X177909781Y-81758642D01*
X177879000Y-81603893D01*
X177879000Y-81446107D01*
X177909781Y-81291358D01*
X177970162Y-81145586D01*
X177970163Y-81145584D01*
X178057822Y-81014392D01*
X178169392Y-80902822D01*
X178300584Y-80815163D01*
X178300586Y-80815162D01*
X178446358Y-80754781D01*
X178601107Y-80724000D01*
X178758893Y-80724000D01*
X178913642Y-80754781D01*
G37*
G36*
X173833642Y-80754781D02*
G01*
X173979414Y-80815162D01*
X173979416Y-80815163D01*
X174110608Y-80902822D01*
X174222178Y-81014392D01*
X174309837Y-81145584D01*
X174309838Y-81145586D01*
X174370219Y-81291358D01*
X174401000Y-81446107D01*
X174401000Y-81603893D01*
X174370219Y-81758642D01*
X174309838Y-81904414D01*
X174309837Y-81904416D01*
X174222178Y-82035608D01*
X174110608Y-82147178D01*
X173979416Y-82234837D01*
X173979415Y-82234838D01*
X173979414Y-82234838D01*
X173833642Y-82295219D01*
X173678893Y-82326000D01*
X173521107Y-82326000D01*
X173366358Y-82295219D01*
X173220586Y-82234838D01*
X173220585Y-82234838D01*
X173220584Y-82234837D01*
X173089392Y-82147178D01*
X172977822Y-82035608D01*
X172890163Y-81904416D01*
X172890162Y-81904414D01*
X172829781Y-81758642D01*
X172799000Y-81603893D01*
X172799000Y-81446107D01*
X172829781Y-81291358D01*
X172890162Y-81145586D01*
X172890163Y-81145584D01*
X172977822Y-81014392D01*
X173089392Y-80902822D01*
X173220584Y-80815163D01*
X173220586Y-80815162D01*
X173366358Y-80754781D01*
X173521107Y-80724000D01*
X173678893Y-80724000D01*
X173833642Y-80754781D01*
G37*
G36*
X194153642Y-80754781D02*
G01*
X194299414Y-80815162D01*
X194299416Y-80815163D01*
X194430608Y-80902822D01*
X194542178Y-81014392D01*
X194629837Y-81145584D01*
X194629838Y-81145586D01*
X194690219Y-81291358D01*
X194721000Y-81446107D01*
X194721000Y-81603893D01*
X194690219Y-81758642D01*
X194629838Y-81904414D01*
X194629837Y-81904416D01*
X194542178Y-82035608D01*
X194430608Y-82147178D01*
X194299416Y-82234837D01*
X194299415Y-82234838D01*
X194299414Y-82234838D01*
X194153642Y-82295219D01*
X193998893Y-82326000D01*
X193841107Y-82326000D01*
X193686358Y-82295219D01*
X193540586Y-82234838D01*
X193540585Y-82234838D01*
X193540584Y-82234837D01*
X193409392Y-82147178D01*
X193297822Y-82035608D01*
X193210163Y-81904416D01*
X193210162Y-81904414D01*
X193149781Y-81758642D01*
X193119000Y-81603893D01*
X193119000Y-81446107D01*
X193149781Y-81291358D01*
X193210162Y-81145586D01*
X193210163Y-81145584D01*
X193297822Y-81014392D01*
X193409392Y-80902822D01*
X193540584Y-80815163D01*
X193540586Y-80815162D01*
X193686358Y-80754781D01*
X193841107Y-80724000D01*
X193998893Y-80724000D01*
X194153642Y-80754781D01*
G37*
G36*
X196693642Y-80754781D02*
G01*
X196839414Y-80815162D01*
X196839416Y-80815163D01*
X196970608Y-80902822D01*
X197082178Y-81014392D01*
X197169837Y-81145584D01*
X197169838Y-81145586D01*
X197230219Y-81291358D01*
X197261000Y-81446107D01*
X197261000Y-81603893D01*
X197230219Y-81758642D01*
X197169838Y-81904414D01*
X197169837Y-81904416D01*
X197082178Y-82035608D01*
X196970608Y-82147178D01*
X196839416Y-82234837D01*
X196839415Y-82234838D01*
X196839414Y-82234838D01*
X196693642Y-82295219D01*
X196538893Y-82326000D01*
X196381107Y-82326000D01*
X196226358Y-82295219D01*
X196080586Y-82234838D01*
X196080585Y-82234838D01*
X196080584Y-82234837D01*
X195949392Y-82147178D01*
X195837822Y-82035608D01*
X195750163Y-81904416D01*
X195750162Y-81904414D01*
X195689781Y-81758642D01*
X195659000Y-81603893D01*
X195659000Y-81446107D01*
X195689781Y-81291358D01*
X195750162Y-81145586D01*
X195750163Y-81145584D01*
X195837822Y-81014392D01*
X195949392Y-80902822D01*
X196080584Y-80815163D01*
X196080586Y-80815162D01*
X196226358Y-80754781D01*
X196381107Y-80724000D01*
X196538893Y-80724000D01*
X196693642Y-80754781D01*
G37*
G36*
X191613642Y-80754781D02*
G01*
X191759414Y-80815162D01*
X191759416Y-80815163D01*
X191890608Y-80902822D01*
X192002178Y-81014392D01*
X192089837Y-81145584D01*
X192089838Y-81145586D01*
X192150219Y-81291358D01*
X192181000Y-81446107D01*
X192181000Y-81603893D01*
X192150219Y-81758642D01*
X192089838Y-81904414D01*
X192089837Y-81904416D01*
X192002178Y-82035608D01*
X191890608Y-82147178D01*
X191759416Y-82234837D01*
X191759415Y-82234838D01*
X191759414Y-82234838D01*
X191613642Y-82295219D01*
X191458893Y-82326000D01*
X191301107Y-82326000D01*
X191146358Y-82295219D01*
X191000586Y-82234838D01*
X191000585Y-82234838D01*
X191000584Y-82234837D01*
X190869392Y-82147178D01*
X190757822Y-82035608D01*
X190670163Y-81904416D01*
X190670162Y-81904414D01*
X190609781Y-81758642D01*
X190579000Y-81603893D01*
X190579000Y-81446107D01*
X190609781Y-81291358D01*
X190670162Y-81145586D01*
X190670163Y-81145584D01*
X190757822Y-81014392D01*
X190869392Y-80902822D01*
X191000584Y-80815163D01*
X191000586Y-80815162D01*
X191146358Y-80754781D01*
X191301107Y-80724000D01*
X191458893Y-80724000D01*
X191613642Y-80754781D01*
G37*
G36*
X189073642Y-80754781D02*
G01*
X189219414Y-80815162D01*
X189219416Y-80815163D01*
X189350608Y-80902822D01*
X189462178Y-81014392D01*
X189549837Y-81145584D01*
X189549838Y-81145586D01*
X189610219Y-81291358D01*
X189641000Y-81446107D01*
X189641000Y-81603893D01*
X189610219Y-81758642D01*
X189549838Y-81904414D01*
X189549837Y-81904416D01*
X189462178Y-82035608D01*
X189350608Y-82147178D01*
X189219416Y-82234837D01*
X189219415Y-82234838D01*
X189219414Y-82234838D01*
X189073642Y-82295219D01*
X188918893Y-82326000D01*
X188761107Y-82326000D01*
X188606358Y-82295219D01*
X188460586Y-82234838D01*
X188460585Y-82234838D01*
X188460584Y-82234837D01*
X188329392Y-82147178D01*
X188217822Y-82035608D01*
X188130163Y-81904416D01*
X188130162Y-81904414D01*
X188069781Y-81758642D01*
X188039000Y-81603893D01*
X188039000Y-81446107D01*
X188069781Y-81291358D01*
X188130162Y-81145586D01*
X188130163Y-81145584D01*
X188217822Y-81014392D01*
X188329392Y-80902822D01*
X188460584Y-80815163D01*
X188460586Y-80815162D01*
X188606358Y-80754781D01*
X188761107Y-80724000D01*
X188918893Y-80724000D01*
X189073642Y-80754781D01*
G37*
G36*
X186533642Y-80754781D02*
G01*
X186679414Y-80815162D01*
X186679416Y-80815163D01*
X186810608Y-80902822D01*
X186922178Y-81014392D01*
X187009837Y-81145584D01*
X187009838Y-81145586D01*
X187070219Y-81291358D01*
X187101000Y-81446107D01*
X187101000Y-81603893D01*
X187070219Y-81758642D01*
X187009838Y-81904414D01*
X187009837Y-81904416D01*
X186922178Y-82035608D01*
X186810608Y-82147178D01*
X186679416Y-82234837D01*
X186679415Y-82234838D01*
X186679414Y-82234838D01*
X186533642Y-82295219D01*
X186378893Y-82326000D01*
X186221107Y-82326000D01*
X186066358Y-82295219D01*
X185920586Y-82234838D01*
X185920585Y-82234838D01*
X185920584Y-82234837D01*
X185789392Y-82147178D01*
X185677822Y-82035608D01*
X185590163Y-81904416D01*
X185590162Y-81904414D01*
X185529781Y-81758642D01*
X185499000Y-81603893D01*
X185499000Y-81446107D01*
X185529781Y-81291358D01*
X185590162Y-81145586D01*
X185590163Y-81145584D01*
X185677822Y-81014392D01*
X185789392Y-80902822D01*
X185920584Y-80815163D01*
X185920586Y-80815162D01*
X186066358Y-80754781D01*
X186221107Y-80724000D01*
X186378893Y-80724000D01*
X186533642Y-80754781D01*
G37*
G36*
X183993642Y-80754781D02*
G01*
X184139414Y-80815162D01*
X184139416Y-80815163D01*
X184270608Y-80902822D01*
X184382178Y-81014392D01*
X184469837Y-81145584D01*
X184469838Y-81145586D01*
X184530219Y-81291358D01*
X184561000Y-81446107D01*
X184561000Y-81603893D01*
X184530219Y-81758642D01*
X184469838Y-81904414D01*
X184469837Y-81904416D01*
X184382178Y-82035608D01*
X184270608Y-82147178D01*
X184139416Y-82234837D01*
X184139415Y-82234838D01*
X184139414Y-82234838D01*
X183993642Y-82295219D01*
X183838893Y-82326000D01*
X183681107Y-82326000D01*
X183526358Y-82295219D01*
X183380586Y-82234838D01*
X183380585Y-82234838D01*
X183380584Y-82234837D01*
X183249392Y-82147178D01*
X183137822Y-82035608D01*
X183050163Y-81904416D01*
X183050162Y-81904414D01*
X182989781Y-81758642D01*
X182959000Y-81603893D01*
X182959000Y-81446107D01*
X182989781Y-81291358D01*
X183050162Y-81145586D01*
X183050163Y-81145584D01*
X183137822Y-81014392D01*
X183249392Y-80902822D01*
X183380584Y-80815163D01*
X183380586Y-80815162D01*
X183526358Y-80754781D01*
X183681107Y-80724000D01*
X183838893Y-80724000D01*
X183993642Y-80754781D01*
G37*
G36*
X181453642Y-80754781D02*
G01*
X181599414Y-80815162D01*
X181599416Y-80815163D01*
X181730608Y-80902822D01*
X181842178Y-81014392D01*
X181929837Y-81145584D01*
X181929838Y-81145586D01*
X181990219Y-81291358D01*
X182021000Y-81446107D01*
X182021000Y-81603893D01*
X181990219Y-81758642D01*
X181929838Y-81904414D01*
X181929837Y-81904416D01*
X181842178Y-82035608D01*
X181730608Y-82147178D01*
X181599416Y-82234837D01*
X181599415Y-82234838D01*
X181599414Y-82234838D01*
X181453642Y-82295219D01*
X181298893Y-82326000D01*
X181141107Y-82326000D01*
X180986358Y-82295219D01*
X180840586Y-82234838D01*
X180840585Y-82234838D01*
X180840584Y-82234837D01*
X180709392Y-82147178D01*
X180597822Y-82035608D01*
X180510163Y-81904416D01*
X180510162Y-81904414D01*
X180449781Y-81758642D01*
X180419000Y-81603893D01*
X180419000Y-81446107D01*
X180449781Y-81291358D01*
X180510162Y-81145586D01*
X180510163Y-81145584D01*
X180597822Y-81014392D01*
X180709392Y-80902822D01*
X180840584Y-80815163D01*
X180840586Y-80815162D01*
X180986358Y-80754781D01*
X181141107Y-80724000D01*
X181298893Y-80724000D01*
X181453642Y-80754781D01*
G37*
G36*
X176373642Y-80754781D02*
G01*
X176519414Y-80815162D01*
X176519416Y-80815163D01*
X176650608Y-80902822D01*
X176762178Y-81014392D01*
X176849837Y-81145584D01*
X176849838Y-81145586D01*
X176910219Y-81291358D01*
X176941000Y-81446107D01*
X176941000Y-81603893D01*
X176910219Y-81758642D01*
X176849838Y-81904414D01*
X176849837Y-81904416D01*
X176762178Y-82035608D01*
X176650608Y-82147178D01*
X176519416Y-82234837D01*
X176519415Y-82234838D01*
X176519414Y-82234838D01*
X176373642Y-82295219D01*
X176218893Y-82326000D01*
X176061107Y-82326000D01*
X175906358Y-82295219D01*
X175760586Y-82234838D01*
X175760585Y-82234838D01*
X175760584Y-82234837D01*
X175629392Y-82147178D01*
X175517822Y-82035608D01*
X175430163Y-81904416D01*
X175430162Y-81904414D01*
X175369781Y-81758642D01*
X175339000Y-81603893D01*
X175339000Y-81446107D01*
X175369781Y-81291358D01*
X175430162Y-81145586D01*
X175430163Y-81145584D01*
X175517822Y-81014392D01*
X175629392Y-80902822D01*
X175760584Y-80815163D01*
X175760586Y-80815162D01*
X175906358Y-80754781D01*
X176061107Y-80724000D01*
X176218893Y-80724000D01*
X176373642Y-80754781D01*
G37*
G36*
X147163642Y-78854781D02*
G01*
X147309414Y-78915162D01*
X147309416Y-78915163D01*
X147440608Y-79002822D01*
X147552178Y-79114392D01*
X147639837Y-79245584D01*
X147639838Y-79245586D01*
X147700219Y-79391358D01*
X147731000Y-79546107D01*
X147731000Y-79703893D01*
X147700219Y-79858642D01*
X147639838Y-80004414D01*
X147639837Y-80004416D01*
X147552178Y-80135608D01*
X147440608Y-80247178D01*
X147309416Y-80334837D01*
X147309415Y-80334838D01*
X147309414Y-80334838D01*
X147163642Y-80395219D01*
X147008893Y-80426000D01*
X146851107Y-80426000D01*
X146696358Y-80395219D01*
X146550586Y-80334838D01*
X146550585Y-80334838D01*
X146550584Y-80334837D01*
X146419392Y-80247178D01*
X146307822Y-80135608D01*
X146220163Y-80004416D01*
X146220162Y-80004414D01*
X146159781Y-79858642D01*
X146129000Y-79703893D01*
X146129000Y-79546107D01*
X146159781Y-79391358D01*
X146220162Y-79245586D01*
X146220163Y-79245584D01*
X146307822Y-79114392D01*
X146419392Y-79002822D01*
X146550584Y-78915163D01*
X146550586Y-78915162D01*
X146696358Y-78854781D01*
X146851107Y-78824000D01*
X147008893Y-78824000D01*
X147163642Y-78854781D01*
G37*
G36*
X149703642Y-78854781D02*
G01*
X149849414Y-78915162D01*
X149849416Y-78915163D01*
X149980608Y-79002822D01*
X150092178Y-79114392D01*
X150179837Y-79245584D01*
X150179838Y-79245586D01*
X150240219Y-79391358D01*
X150271000Y-79546107D01*
X150271000Y-79703893D01*
X150240219Y-79858642D01*
X150179838Y-80004414D01*
X150179837Y-80004416D01*
X150092178Y-80135608D01*
X149980608Y-80247178D01*
X149849416Y-80334837D01*
X149849415Y-80334838D01*
X149849414Y-80334838D01*
X149703642Y-80395219D01*
X149548893Y-80426000D01*
X149391107Y-80426000D01*
X149236358Y-80395219D01*
X149090586Y-80334838D01*
X149090585Y-80334838D01*
X149090584Y-80334837D01*
X148959392Y-80247178D01*
X148847822Y-80135608D01*
X148760163Y-80004416D01*
X148760162Y-80004414D01*
X148699781Y-79858642D01*
X148669000Y-79703893D01*
X148669000Y-79546107D01*
X148699781Y-79391358D01*
X148760162Y-79245586D01*
X148760163Y-79245584D01*
X148847822Y-79114392D01*
X148959392Y-79002822D01*
X149090584Y-78915163D01*
X149090586Y-78915162D01*
X149236358Y-78854781D01*
X149391107Y-78824000D01*
X149548893Y-78824000D01*
X149703642Y-78854781D01*
G37*
G36*
X177643642Y-78854781D02*
G01*
X177789414Y-78915162D01*
X177789416Y-78915163D01*
X177920608Y-79002822D01*
X178032178Y-79114392D01*
X178119837Y-79245584D01*
X178119838Y-79245586D01*
X178180219Y-79391358D01*
X178211000Y-79546107D01*
X178211000Y-79703893D01*
X178180219Y-79858642D01*
X178119838Y-80004414D01*
X178119837Y-80004416D01*
X178032178Y-80135608D01*
X177920608Y-80247178D01*
X177789416Y-80334837D01*
X177789415Y-80334838D01*
X177789414Y-80334838D01*
X177643642Y-80395219D01*
X177488893Y-80426000D01*
X177331107Y-80426000D01*
X177176358Y-80395219D01*
X177030586Y-80334838D01*
X177030585Y-80334838D01*
X177030584Y-80334837D01*
X176899392Y-80247178D01*
X176787822Y-80135608D01*
X176700163Y-80004416D01*
X176700162Y-80004414D01*
X176639781Y-79858642D01*
X176609000Y-79703893D01*
X176609000Y-79546107D01*
X176639781Y-79391358D01*
X176700162Y-79245586D01*
X176700163Y-79245584D01*
X176787822Y-79114392D01*
X176899392Y-79002822D01*
X177030584Y-78915163D01*
X177030586Y-78915162D01*
X177176358Y-78854781D01*
X177331107Y-78824000D01*
X177488893Y-78824000D01*
X177643642Y-78854781D01*
G37*
G36*
X180183642Y-78854781D02*
G01*
X180329414Y-78915162D01*
X180329416Y-78915163D01*
X180460608Y-79002822D01*
X180572178Y-79114392D01*
X180659837Y-79245584D01*
X180659838Y-79245586D01*
X180720219Y-79391358D01*
X180751000Y-79546107D01*
X180751000Y-79703893D01*
X180720219Y-79858642D01*
X180659838Y-80004414D01*
X180659837Y-80004416D01*
X180572178Y-80135608D01*
X180460608Y-80247178D01*
X180329416Y-80334837D01*
X180329415Y-80334838D01*
X180329414Y-80334838D01*
X180183642Y-80395219D01*
X180028893Y-80426000D01*
X179871107Y-80426000D01*
X179716358Y-80395219D01*
X179570586Y-80334838D01*
X179570585Y-80334838D01*
X179570584Y-80334837D01*
X179439392Y-80247178D01*
X179327822Y-80135608D01*
X179240163Y-80004416D01*
X179240162Y-80004414D01*
X179179781Y-79858642D01*
X179149000Y-79703893D01*
X179149000Y-79546107D01*
X179179781Y-79391358D01*
X179240162Y-79245586D01*
X179240163Y-79245584D01*
X179327822Y-79114392D01*
X179439392Y-79002822D01*
X179570584Y-78915163D01*
X179570586Y-78915162D01*
X179716358Y-78854781D01*
X179871107Y-78824000D01*
X180028893Y-78824000D01*
X180183642Y-78854781D01*
G37*
G36*
X175103642Y-78854781D02*
G01*
X175249414Y-78915162D01*
X175249416Y-78915163D01*
X175380608Y-79002822D01*
X175492178Y-79114392D01*
X175579837Y-79245584D01*
X175579838Y-79245586D01*
X175640219Y-79391358D01*
X175671000Y-79546107D01*
X175671000Y-79703893D01*
X175640219Y-79858642D01*
X175579838Y-80004414D01*
X175579837Y-80004416D01*
X175492178Y-80135608D01*
X175380608Y-80247178D01*
X175249416Y-80334837D01*
X175249415Y-80334838D01*
X175249414Y-80334838D01*
X175103642Y-80395219D01*
X174948893Y-80426000D01*
X174791107Y-80426000D01*
X174636358Y-80395219D01*
X174490586Y-80334838D01*
X174490585Y-80334838D01*
X174490584Y-80334837D01*
X174359392Y-80247178D01*
X174247822Y-80135608D01*
X174160163Y-80004416D01*
X174160162Y-80004414D01*
X174099781Y-79858642D01*
X174069000Y-79703893D01*
X174069000Y-79546107D01*
X174099781Y-79391358D01*
X174160162Y-79245586D01*
X174160163Y-79245584D01*
X174247822Y-79114392D01*
X174359392Y-79002822D01*
X174490584Y-78915163D01*
X174490586Y-78915162D01*
X174636358Y-78854781D01*
X174791107Y-78824000D01*
X174948893Y-78824000D01*
X175103642Y-78854781D01*
G37*
G36*
X162403642Y-78854781D02*
G01*
X162549414Y-78915162D01*
X162549416Y-78915163D01*
X162680608Y-79002822D01*
X162792178Y-79114392D01*
X162879837Y-79245584D01*
X162879838Y-79245586D01*
X162940219Y-79391358D01*
X162971000Y-79546107D01*
X162971000Y-79703893D01*
X162940219Y-79858642D01*
X162879838Y-80004414D01*
X162879837Y-80004416D01*
X162792178Y-80135608D01*
X162680608Y-80247178D01*
X162549416Y-80334837D01*
X162549415Y-80334838D01*
X162549414Y-80334838D01*
X162403642Y-80395219D01*
X162248893Y-80426000D01*
X162091107Y-80426000D01*
X161936358Y-80395219D01*
X161790586Y-80334838D01*
X161790585Y-80334838D01*
X161790584Y-80334837D01*
X161659392Y-80247178D01*
X161547822Y-80135608D01*
X161460163Y-80004416D01*
X161460162Y-80004414D01*
X161399781Y-79858642D01*
X161369000Y-79703893D01*
X161369000Y-79546107D01*
X161399781Y-79391358D01*
X161460162Y-79245586D01*
X161460163Y-79245584D01*
X161547822Y-79114392D01*
X161659392Y-79002822D01*
X161790584Y-78915163D01*
X161790586Y-78915162D01*
X161936358Y-78854781D01*
X162091107Y-78824000D01*
X162248893Y-78824000D01*
X162403642Y-78854781D01*
G37*
G36*
X182723642Y-78854781D02*
G01*
X182869414Y-78915162D01*
X182869416Y-78915163D01*
X183000608Y-79002822D01*
X183112178Y-79114392D01*
X183199837Y-79245584D01*
X183199838Y-79245586D01*
X183260219Y-79391358D01*
X183291000Y-79546107D01*
X183291000Y-79703893D01*
X183260219Y-79858642D01*
X183199838Y-80004414D01*
X183199837Y-80004416D01*
X183112178Y-80135608D01*
X183000608Y-80247178D01*
X182869416Y-80334837D01*
X182869415Y-80334838D01*
X182869414Y-80334838D01*
X182723642Y-80395219D01*
X182568893Y-80426000D01*
X182411107Y-80426000D01*
X182256358Y-80395219D01*
X182110586Y-80334838D01*
X182110585Y-80334838D01*
X182110584Y-80334837D01*
X181979392Y-80247178D01*
X181867822Y-80135608D01*
X181780163Y-80004416D01*
X181780162Y-80004414D01*
X181719781Y-79858642D01*
X181689000Y-79703893D01*
X181689000Y-79546107D01*
X181719781Y-79391358D01*
X181780162Y-79245586D01*
X181780163Y-79245584D01*
X181867822Y-79114392D01*
X181979392Y-79002822D01*
X182110584Y-78915163D01*
X182110586Y-78915162D01*
X182256358Y-78854781D01*
X182411107Y-78824000D01*
X182568893Y-78824000D01*
X182723642Y-78854781D01*
G37*
G36*
X157323642Y-78854781D02*
G01*
X157469414Y-78915162D01*
X157469416Y-78915163D01*
X157600608Y-79002822D01*
X157712178Y-79114392D01*
X157799837Y-79245584D01*
X157799838Y-79245586D01*
X157860219Y-79391358D01*
X157891000Y-79546107D01*
X157891000Y-79703893D01*
X157860219Y-79858642D01*
X157799838Y-80004414D01*
X157799837Y-80004416D01*
X157712178Y-80135608D01*
X157600608Y-80247178D01*
X157469416Y-80334837D01*
X157469415Y-80334838D01*
X157469414Y-80334838D01*
X157323642Y-80395219D01*
X157168893Y-80426000D01*
X157011107Y-80426000D01*
X156856358Y-80395219D01*
X156710586Y-80334838D01*
X156710585Y-80334838D01*
X156710584Y-80334837D01*
X156579392Y-80247178D01*
X156467822Y-80135608D01*
X156380163Y-80004416D01*
X156380162Y-80004414D01*
X156319781Y-79858642D01*
X156289000Y-79703893D01*
X156289000Y-79546107D01*
X156319781Y-79391358D01*
X156380162Y-79245586D01*
X156380163Y-79245584D01*
X156467822Y-79114392D01*
X156579392Y-79002822D01*
X156710584Y-78915163D01*
X156710586Y-78915162D01*
X156856358Y-78854781D01*
X157011107Y-78824000D01*
X157168893Y-78824000D01*
X157323642Y-78854781D01*
G37*
G36*
X172563642Y-78854781D02*
G01*
X172709414Y-78915162D01*
X172709416Y-78915163D01*
X172840608Y-79002822D01*
X172952178Y-79114392D01*
X173039837Y-79245584D01*
X173039838Y-79245586D01*
X173100219Y-79391358D01*
X173131000Y-79546107D01*
X173131000Y-79703893D01*
X173100219Y-79858642D01*
X173039838Y-80004414D01*
X173039837Y-80004416D01*
X172952178Y-80135608D01*
X172840608Y-80247178D01*
X172709416Y-80334837D01*
X172709415Y-80334838D01*
X172709414Y-80334838D01*
X172563642Y-80395219D01*
X172408893Y-80426000D01*
X172251107Y-80426000D01*
X172096358Y-80395219D01*
X171950586Y-80334838D01*
X171950585Y-80334838D01*
X171950584Y-80334837D01*
X171819392Y-80247178D01*
X171707822Y-80135608D01*
X171620163Y-80004416D01*
X171620162Y-80004414D01*
X171559781Y-79858642D01*
X171529000Y-79703893D01*
X171529000Y-79546107D01*
X171559781Y-79391358D01*
X171620162Y-79245586D01*
X171620163Y-79245584D01*
X171707822Y-79114392D01*
X171819392Y-79002822D01*
X171950584Y-78915163D01*
X171950586Y-78915162D01*
X172096358Y-78854781D01*
X172251107Y-78824000D01*
X172408893Y-78824000D01*
X172563642Y-78854781D01*
G37*
G36*
X164943642Y-78854781D02*
G01*
X165089414Y-78915162D01*
X165089416Y-78915163D01*
X165220608Y-79002822D01*
X165332178Y-79114392D01*
X165419837Y-79245584D01*
X165419838Y-79245586D01*
X165480219Y-79391358D01*
X165511000Y-79546107D01*
X165511000Y-79703893D01*
X165480219Y-79858642D01*
X165419838Y-80004414D01*
X165419837Y-80004416D01*
X165332178Y-80135608D01*
X165220608Y-80247178D01*
X165089416Y-80334837D01*
X165089415Y-80334838D01*
X165089414Y-80334838D01*
X164943642Y-80395219D01*
X164788893Y-80426000D01*
X164631107Y-80426000D01*
X164476358Y-80395219D01*
X164330586Y-80334838D01*
X164330585Y-80334838D01*
X164330584Y-80334837D01*
X164199392Y-80247178D01*
X164087822Y-80135608D01*
X164000163Y-80004416D01*
X164000162Y-80004414D01*
X163939781Y-79858642D01*
X163909000Y-79703893D01*
X163909000Y-79546107D01*
X163939781Y-79391358D01*
X164000162Y-79245586D01*
X164000163Y-79245584D01*
X164087822Y-79114392D01*
X164199392Y-79002822D01*
X164330584Y-78915163D01*
X164330586Y-78915162D01*
X164476358Y-78854781D01*
X164631107Y-78824000D01*
X164788893Y-78824000D01*
X164943642Y-78854781D01*
G37*
G36*
X192883642Y-78854781D02*
G01*
X193029414Y-78915162D01*
X193029416Y-78915163D01*
X193160608Y-79002822D01*
X193272178Y-79114392D01*
X193359837Y-79245584D01*
X193359838Y-79245586D01*
X193420219Y-79391358D01*
X193451000Y-79546107D01*
X193451000Y-79703893D01*
X193420219Y-79858642D01*
X193359838Y-80004414D01*
X193359837Y-80004416D01*
X193272178Y-80135608D01*
X193160608Y-80247178D01*
X193029416Y-80334837D01*
X193029415Y-80334838D01*
X193029414Y-80334838D01*
X192883642Y-80395219D01*
X192728893Y-80426000D01*
X192571107Y-80426000D01*
X192416358Y-80395219D01*
X192270586Y-80334838D01*
X192270585Y-80334838D01*
X192270584Y-80334837D01*
X192139392Y-80247178D01*
X192027822Y-80135608D01*
X191940163Y-80004416D01*
X191940162Y-80004414D01*
X191879781Y-79858642D01*
X191849000Y-79703893D01*
X191849000Y-79546107D01*
X191879781Y-79391358D01*
X191940162Y-79245586D01*
X191940163Y-79245584D01*
X192027822Y-79114392D01*
X192139392Y-79002822D01*
X192270584Y-78915163D01*
X192270586Y-78915162D01*
X192416358Y-78854781D01*
X192571107Y-78824000D01*
X192728893Y-78824000D01*
X192883642Y-78854781D01*
G37*
G36*
X190343642Y-78854781D02*
G01*
X190489414Y-78915162D01*
X190489416Y-78915163D01*
X190620608Y-79002822D01*
X190732178Y-79114392D01*
X190819837Y-79245584D01*
X190819838Y-79245586D01*
X190880219Y-79391358D01*
X190911000Y-79546107D01*
X190911000Y-79703893D01*
X190880219Y-79858642D01*
X190819838Y-80004414D01*
X190819837Y-80004416D01*
X190732178Y-80135608D01*
X190620608Y-80247178D01*
X190489416Y-80334837D01*
X190489415Y-80334838D01*
X190489414Y-80334838D01*
X190343642Y-80395219D01*
X190188893Y-80426000D01*
X190031107Y-80426000D01*
X189876358Y-80395219D01*
X189730586Y-80334838D01*
X189730585Y-80334838D01*
X189730584Y-80334837D01*
X189599392Y-80247178D01*
X189487822Y-80135608D01*
X189400163Y-80004416D01*
X189400162Y-80004414D01*
X189339781Y-79858642D01*
X189309000Y-79703893D01*
X189309000Y-79546107D01*
X189339781Y-79391358D01*
X189400162Y-79245586D01*
X189400163Y-79245584D01*
X189487822Y-79114392D01*
X189599392Y-79002822D01*
X189730584Y-78915163D01*
X189730586Y-78915162D01*
X189876358Y-78854781D01*
X190031107Y-78824000D01*
X190188893Y-78824000D01*
X190343642Y-78854781D01*
G37*
G36*
X187803642Y-78854781D02*
G01*
X187949414Y-78915162D01*
X187949416Y-78915163D01*
X188080608Y-79002822D01*
X188192178Y-79114392D01*
X188279837Y-79245584D01*
X188279838Y-79245586D01*
X188340219Y-79391358D01*
X188371000Y-79546107D01*
X188371000Y-79703893D01*
X188340219Y-79858642D01*
X188279838Y-80004414D01*
X188279837Y-80004416D01*
X188192178Y-80135608D01*
X188080608Y-80247178D01*
X187949416Y-80334837D01*
X187949415Y-80334838D01*
X187949414Y-80334838D01*
X187803642Y-80395219D01*
X187648893Y-80426000D01*
X187491107Y-80426000D01*
X187336358Y-80395219D01*
X187190586Y-80334838D01*
X187190585Y-80334838D01*
X187190584Y-80334837D01*
X187059392Y-80247178D01*
X186947822Y-80135608D01*
X186860163Y-80004416D01*
X186860162Y-80004414D01*
X186799781Y-79858642D01*
X186769000Y-79703893D01*
X186769000Y-79546107D01*
X186799781Y-79391358D01*
X186860162Y-79245586D01*
X186860163Y-79245584D01*
X186947822Y-79114392D01*
X187059392Y-79002822D01*
X187190584Y-78915163D01*
X187190586Y-78915162D01*
X187336358Y-78854781D01*
X187491107Y-78824000D01*
X187648893Y-78824000D01*
X187803642Y-78854781D01*
G37*
G36*
X185263642Y-78854781D02*
G01*
X185409414Y-78915162D01*
X185409416Y-78915163D01*
X185540608Y-79002822D01*
X185652178Y-79114392D01*
X185739837Y-79245584D01*
X185739838Y-79245586D01*
X185800219Y-79391358D01*
X185831000Y-79546107D01*
X185831000Y-79703893D01*
X185800219Y-79858642D01*
X185739838Y-80004414D01*
X185739837Y-80004416D01*
X185652178Y-80135608D01*
X185540608Y-80247178D01*
X185409416Y-80334837D01*
X185409415Y-80334838D01*
X185409414Y-80334838D01*
X185263642Y-80395219D01*
X185108893Y-80426000D01*
X184951107Y-80426000D01*
X184796358Y-80395219D01*
X184650586Y-80334838D01*
X184650585Y-80334838D01*
X184650584Y-80334837D01*
X184519392Y-80247178D01*
X184407822Y-80135608D01*
X184320163Y-80004416D01*
X184320162Y-80004414D01*
X184259781Y-79858642D01*
X184229000Y-79703893D01*
X184229000Y-79546107D01*
X184259781Y-79391358D01*
X184320162Y-79245586D01*
X184320163Y-79245584D01*
X184407822Y-79114392D01*
X184519392Y-79002822D01*
X184650584Y-78915163D01*
X184650586Y-78915162D01*
X184796358Y-78854781D01*
X184951107Y-78824000D01*
X185108893Y-78824000D01*
X185263642Y-78854781D01*
G37*
G36*
X170023642Y-78854781D02*
G01*
X170169414Y-78915162D01*
X170169416Y-78915163D01*
X170300608Y-79002822D01*
X170412178Y-79114392D01*
X170499837Y-79245584D01*
X170499838Y-79245586D01*
X170560219Y-79391358D01*
X170591000Y-79546107D01*
X170591000Y-79703893D01*
X170560219Y-79858642D01*
X170499838Y-80004414D01*
X170499837Y-80004416D01*
X170412178Y-80135608D01*
X170300608Y-80247178D01*
X170169416Y-80334837D01*
X170169415Y-80334838D01*
X170169414Y-80334838D01*
X170023642Y-80395219D01*
X169868893Y-80426000D01*
X169711107Y-80426000D01*
X169556358Y-80395219D01*
X169410586Y-80334838D01*
X169410585Y-80334838D01*
X169410584Y-80334837D01*
X169279392Y-80247178D01*
X169167822Y-80135608D01*
X169080163Y-80004416D01*
X169080162Y-80004414D01*
X169019781Y-79858642D01*
X168989000Y-79703893D01*
X168989000Y-79546107D01*
X169019781Y-79391358D01*
X169080162Y-79245586D01*
X169080163Y-79245584D01*
X169167822Y-79114392D01*
X169279392Y-79002822D01*
X169410584Y-78915163D01*
X169410586Y-78915162D01*
X169556358Y-78854781D01*
X169711107Y-78824000D01*
X169868893Y-78824000D01*
X170023642Y-78854781D01*
G37*
G36*
X154783642Y-78854781D02*
G01*
X154929414Y-78915162D01*
X154929416Y-78915163D01*
X155060608Y-79002822D01*
X155172178Y-79114392D01*
X155259837Y-79245584D01*
X155259838Y-79245586D01*
X155320219Y-79391358D01*
X155351000Y-79546107D01*
X155351000Y-79703893D01*
X155320219Y-79858642D01*
X155259838Y-80004414D01*
X155259837Y-80004416D01*
X155172178Y-80135608D01*
X155060608Y-80247178D01*
X154929416Y-80334837D01*
X154929415Y-80334838D01*
X154929414Y-80334838D01*
X154783642Y-80395219D01*
X154628893Y-80426000D01*
X154471107Y-80426000D01*
X154316358Y-80395219D01*
X154170586Y-80334838D01*
X154170585Y-80334838D01*
X154170584Y-80334837D01*
X154039392Y-80247178D01*
X153927822Y-80135608D01*
X153840163Y-80004416D01*
X153840162Y-80004414D01*
X153779781Y-79858642D01*
X153749000Y-79703893D01*
X153749000Y-79546107D01*
X153779781Y-79391358D01*
X153840162Y-79245586D01*
X153840163Y-79245584D01*
X153927822Y-79114392D01*
X154039392Y-79002822D01*
X154170584Y-78915163D01*
X154170586Y-78915162D01*
X154316358Y-78854781D01*
X154471107Y-78824000D01*
X154628893Y-78824000D01*
X154783642Y-78854781D01*
G37*
G36*
X152243642Y-78854781D02*
G01*
X152389414Y-78915162D01*
X152389416Y-78915163D01*
X152520608Y-79002822D01*
X152632178Y-79114392D01*
X152719837Y-79245584D01*
X152719838Y-79245586D01*
X152780219Y-79391358D01*
X152811000Y-79546107D01*
X152811000Y-79703893D01*
X152780219Y-79858642D01*
X152719838Y-80004414D01*
X152719837Y-80004416D01*
X152632178Y-80135608D01*
X152520608Y-80247178D01*
X152389416Y-80334837D01*
X152389415Y-80334838D01*
X152389414Y-80334838D01*
X152243642Y-80395219D01*
X152088893Y-80426000D01*
X151931107Y-80426000D01*
X151776358Y-80395219D01*
X151630586Y-80334838D01*
X151630585Y-80334838D01*
X151630584Y-80334837D01*
X151499392Y-80247178D01*
X151387822Y-80135608D01*
X151300163Y-80004416D01*
X151300162Y-80004414D01*
X151239781Y-79858642D01*
X151209000Y-79703893D01*
X151209000Y-79546107D01*
X151239781Y-79391358D01*
X151300162Y-79245586D01*
X151300163Y-79245584D01*
X151387822Y-79114392D01*
X151499392Y-79002822D01*
X151630584Y-78915163D01*
X151630586Y-78915162D01*
X151776358Y-78854781D01*
X151931107Y-78824000D01*
X152088893Y-78824000D01*
X152243642Y-78854781D01*
G37*
G36*
X167483642Y-78854781D02*
G01*
X167629414Y-78915162D01*
X167629416Y-78915163D01*
X167760608Y-79002822D01*
X167872178Y-79114392D01*
X167959837Y-79245584D01*
X167959838Y-79245586D01*
X168020219Y-79391358D01*
X168051000Y-79546107D01*
X168051000Y-79703893D01*
X168020219Y-79858642D01*
X167959838Y-80004414D01*
X167959837Y-80004416D01*
X167872178Y-80135608D01*
X167760608Y-80247178D01*
X167629416Y-80334837D01*
X167629415Y-80334838D01*
X167629414Y-80334838D01*
X167483642Y-80395219D01*
X167328893Y-80426000D01*
X167171107Y-80426000D01*
X167016358Y-80395219D01*
X166870586Y-80334838D01*
X166870585Y-80334838D01*
X166870584Y-80334837D01*
X166739392Y-80247178D01*
X166627822Y-80135608D01*
X166540163Y-80004416D01*
X166540162Y-80004414D01*
X166479781Y-79858642D01*
X166449000Y-79703893D01*
X166449000Y-79546107D01*
X166479781Y-79391358D01*
X166540162Y-79245586D01*
X166540163Y-79245584D01*
X166627822Y-79114392D01*
X166739392Y-79002822D01*
X166870584Y-78915163D01*
X166870586Y-78915162D01*
X167016358Y-78854781D01*
X167171107Y-78824000D01*
X167328893Y-78824000D01*
X167483642Y-78854781D01*
G37*
G36*
X195423642Y-78854781D02*
G01*
X195569414Y-78915162D01*
X195569416Y-78915163D01*
X195700608Y-79002822D01*
X195812178Y-79114392D01*
X195899837Y-79245584D01*
X195899838Y-79245586D01*
X195960219Y-79391358D01*
X195991000Y-79546107D01*
X195991000Y-79703893D01*
X195960219Y-79858642D01*
X195899838Y-80004414D01*
X195899837Y-80004416D01*
X195812178Y-80135608D01*
X195700608Y-80247178D01*
X195569416Y-80334837D01*
X195569415Y-80334838D01*
X195569414Y-80334838D01*
X195423642Y-80395219D01*
X195268893Y-80426000D01*
X195111107Y-80426000D01*
X194956358Y-80395219D01*
X194810586Y-80334838D01*
X194810585Y-80334838D01*
X194810584Y-80334837D01*
X194679392Y-80247178D01*
X194567822Y-80135608D01*
X194480163Y-80004416D01*
X194480162Y-80004414D01*
X194419781Y-79858642D01*
X194389000Y-79703893D01*
X194389000Y-79546107D01*
X194419781Y-79391358D01*
X194480162Y-79245586D01*
X194480163Y-79245584D01*
X194567822Y-79114392D01*
X194679392Y-79002822D01*
X194810584Y-78915163D01*
X194810586Y-78915162D01*
X194956358Y-78854781D01*
X195111107Y-78824000D01*
X195268893Y-78824000D01*
X195423642Y-78854781D01*
G37*
G36*
X159863642Y-78854781D02*
G01*
X160009414Y-78915162D01*
X160009416Y-78915163D01*
X160140608Y-79002822D01*
X160252178Y-79114392D01*
X160339837Y-79245584D01*
X160339838Y-79245586D01*
X160400219Y-79391358D01*
X160431000Y-79546107D01*
X160431000Y-79703893D01*
X160400219Y-79858642D01*
X160339838Y-80004414D01*
X160339837Y-80004416D01*
X160252178Y-80135608D01*
X160140608Y-80247178D01*
X160009416Y-80334837D01*
X160009415Y-80334838D01*
X160009414Y-80334838D01*
X159863642Y-80395219D01*
X159708893Y-80426000D01*
X159551107Y-80426000D01*
X159396358Y-80395219D01*
X159250586Y-80334838D01*
X159250585Y-80334838D01*
X159250584Y-80334837D01*
X159119392Y-80247178D01*
X159007822Y-80135608D01*
X158920163Y-80004416D01*
X158920162Y-80004414D01*
X158859781Y-79858642D01*
X158829000Y-79703893D01*
X158829000Y-79546107D01*
X158859781Y-79391358D01*
X158920162Y-79245586D01*
X158920163Y-79245584D01*
X159007822Y-79114392D01*
X159119392Y-79002822D01*
X159250584Y-78915163D01*
X159250586Y-78915162D01*
X159396358Y-78854781D01*
X159551107Y-78824000D01*
X159708893Y-78824000D01*
X159863642Y-78854781D01*
G37*
G36*
X166213642Y-76954781D02*
G01*
X166359414Y-77015162D01*
X166359416Y-77015163D01*
X166490608Y-77102822D01*
X166602178Y-77214392D01*
X166689837Y-77345584D01*
X166689838Y-77345586D01*
X166750219Y-77491358D01*
X166781000Y-77646107D01*
X166781000Y-77803893D01*
X166750219Y-77958642D01*
X166689838Y-78104414D01*
X166689837Y-78104416D01*
X166602178Y-78235608D01*
X166490608Y-78347178D01*
X166359416Y-78434837D01*
X166359415Y-78434838D01*
X166359414Y-78434838D01*
X166213642Y-78495219D01*
X166058893Y-78526000D01*
X165901107Y-78526000D01*
X165746358Y-78495219D01*
X165600586Y-78434838D01*
X165600585Y-78434838D01*
X165600584Y-78434837D01*
X165469392Y-78347178D01*
X165357822Y-78235608D01*
X165270163Y-78104416D01*
X165270162Y-78104414D01*
X165209781Y-77958642D01*
X165179000Y-77803893D01*
X165179000Y-77646107D01*
X165209781Y-77491358D01*
X165270162Y-77345586D01*
X165270163Y-77345584D01*
X165357822Y-77214392D01*
X165469392Y-77102822D01*
X165600584Y-77015163D01*
X165600586Y-77015162D01*
X165746358Y-76954781D01*
X165901107Y-76924000D01*
X166058893Y-76924000D01*
X166213642Y-76954781D01*
G37*
G36*
X150973642Y-76954781D02*
G01*
X151119414Y-77015162D01*
X151119416Y-77015163D01*
X151250608Y-77102822D01*
X151362178Y-77214392D01*
X151449837Y-77345584D01*
X151449838Y-77345586D01*
X151510219Y-77491358D01*
X151541000Y-77646107D01*
X151541000Y-77803893D01*
X151510219Y-77958642D01*
X151449838Y-78104414D01*
X151449837Y-78104416D01*
X151362178Y-78235608D01*
X151250608Y-78347178D01*
X151119416Y-78434837D01*
X151119415Y-78434838D01*
X151119414Y-78434838D01*
X150973642Y-78495219D01*
X150818893Y-78526000D01*
X150661107Y-78526000D01*
X150506358Y-78495219D01*
X150360586Y-78434838D01*
X150360585Y-78434838D01*
X150360584Y-78434837D01*
X150229392Y-78347178D01*
X150117822Y-78235608D01*
X150030163Y-78104416D01*
X150030162Y-78104414D01*
X149969781Y-77958642D01*
X149939000Y-77803893D01*
X149939000Y-77646107D01*
X149969781Y-77491358D01*
X150030162Y-77345586D01*
X150030163Y-77345584D01*
X150117822Y-77214392D01*
X150229392Y-77102822D01*
X150360584Y-77015163D01*
X150360586Y-77015162D01*
X150506358Y-76954781D01*
X150661107Y-76924000D01*
X150818893Y-76924000D01*
X150973642Y-76954781D01*
G37*
G36*
X176373642Y-76954781D02*
G01*
X176519414Y-77015162D01*
X176519416Y-77015163D01*
X176650608Y-77102822D01*
X176762178Y-77214392D01*
X176849837Y-77345584D01*
X176849838Y-77345586D01*
X176910219Y-77491358D01*
X176941000Y-77646107D01*
X176941000Y-77803893D01*
X176910219Y-77958642D01*
X176849838Y-78104414D01*
X176849837Y-78104416D01*
X176762178Y-78235608D01*
X176650608Y-78347178D01*
X176519416Y-78434837D01*
X176519415Y-78434838D01*
X176519414Y-78434838D01*
X176373642Y-78495219D01*
X176218893Y-78526000D01*
X176061107Y-78526000D01*
X175906358Y-78495219D01*
X175760586Y-78434838D01*
X175760585Y-78434838D01*
X175760584Y-78434837D01*
X175629392Y-78347178D01*
X175517822Y-78235608D01*
X175430163Y-78104416D01*
X175430162Y-78104414D01*
X175369781Y-77958642D01*
X175339000Y-77803893D01*
X175339000Y-77646107D01*
X175369781Y-77491358D01*
X175430162Y-77345586D01*
X175430163Y-77345584D01*
X175517822Y-77214392D01*
X175629392Y-77102822D01*
X175760584Y-77015163D01*
X175760586Y-77015162D01*
X175906358Y-76954781D01*
X176061107Y-76924000D01*
X176218893Y-76924000D01*
X176373642Y-76954781D01*
G37*
G36*
X173833642Y-76954781D02*
G01*
X173979414Y-77015162D01*
X173979416Y-77015163D01*
X174110608Y-77102822D01*
X174222178Y-77214392D01*
X174309837Y-77345584D01*
X174309838Y-77345586D01*
X174370219Y-77491358D01*
X174401000Y-77646107D01*
X174401000Y-77803893D01*
X174370219Y-77958642D01*
X174309838Y-78104414D01*
X174309837Y-78104416D01*
X174222178Y-78235608D01*
X174110608Y-78347178D01*
X173979416Y-78434837D01*
X173979415Y-78434838D01*
X173979414Y-78434838D01*
X173833642Y-78495219D01*
X173678893Y-78526000D01*
X173521107Y-78526000D01*
X173366358Y-78495219D01*
X173220586Y-78434838D01*
X173220585Y-78434838D01*
X173220584Y-78434837D01*
X173089392Y-78347178D01*
X172977822Y-78235608D01*
X172890163Y-78104416D01*
X172890162Y-78104414D01*
X172829781Y-77958642D01*
X172799000Y-77803893D01*
X172799000Y-77646107D01*
X172829781Y-77491358D01*
X172890162Y-77345586D01*
X172890163Y-77345584D01*
X172977822Y-77214392D01*
X173089392Y-77102822D01*
X173220584Y-77015163D01*
X173220586Y-77015162D01*
X173366358Y-76954781D01*
X173521107Y-76924000D01*
X173678893Y-76924000D01*
X173833642Y-76954781D01*
G37*
G36*
X171293642Y-76954781D02*
G01*
X171439414Y-77015162D01*
X171439416Y-77015163D01*
X171570608Y-77102822D01*
X171682178Y-77214392D01*
X171769837Y-77345584D01*
X171769838Y-77345586D01*
X171830219Y-77491358D01*
X171861000Y-77646107D01*
X171861000Y-77803893D01*
X171830219Y-77958642D01*
X171769838Y-78104414D01*
X171769837Y-78104416D01*
X171682178Y-78235608D01*
X171570608Y-78347178D01*
X171439416Y-78434837D01*
X171439415Y-78434838D01*
X171439414Y-78434838D01*
X171293642Y-78495219D01*
X171138893Y-78526000D01*
X170981107Y-78526000D01*
X170826358Y-78495219D01*
X170680586Y-78434838D01*
X170680585Y-78434838D01*
X170680584Y-78434837D01*
X170549392Y-78347178D01*
X170437822Y-78235608D01*
X170350163Y-78104416D01*
X170350162Y-78104414D01*
X170289781Y-77958642D01*
X170259000Y-77803893D01*
X170259000Y-77646107D01*
X170289781Y-77491358D01*
X170350162Y-77345586D01*
X170350163Y-77345584D01*
X170437822Y-77214392D01*
X170549392Y-77102822D01*
X170680584Y-77015163D01*
X170680586Y-77015162D01*
X170826358Y-76954781D01*
X170981107Y-76924000D01*
X171138893Y-76924000D01*
X171293642Y-76954781D01*
G37*
G36*
X158593642Y-76954781D02*
G01*
X158739414Y-77015162D01*
X158739416Y-77015163D01*
X158870608Y-77102822D01*
X158982178Y-77214392D01*
X159069837Y-77345584D01*
X159069838Y-77345586D01*
X159130219Y-77491358D01*
X159161000Y-77646107D01*
X159161000Y-77803893D01*
X159130219Y-77958642D01*
X159069838Y-78104414D01*
X159069837Y-78104416D01*
X158982178Y-78235608D01*
X158870608Y-78347178D01*
X158739416Y-78434837D01*
X158739415Y-78434838D01*
X158739414Y-78434838D01*
X158593642Y-78495219D01*
X158438893Y-78526000D01*
X158281107Y-78526000D01*
X158126358Y-78495219D01*
X157980586Y-78434838D01*
X157980585Y-78434838D01*
X157980584Y-78434837D01*
X157849392Y-78347178D01*
X157737822Y-78235608D01*
X157650163Y-78104416D01*
X157650162Y-78104414D01*
X157589781Y-77958642D01*
X157559000Y-77803893D01*
X157559000Y-77646107D01*
X157589781Y-77491358D01*
X157650162Y-77345586D01*
X157650163Y-77345584D01*
X157737822Y-77214392D01*
X157849392Y-77102822D01*
X157980584Y-77015163D01*
X157980586Y-77015162D01*
X158126358Y-76954781D01*
X158281107Y-76924000D01*
X158438893Y-76924000D01*
X158593642Y-76954781D01*
G37*
G36*
X148433642Y-76954781D02*
G01*
X148579414Y-77015162D01*
X148579416Y-77015163D01*
X148710608Y-77102822D01*
X148822178Y-77214392D01*
X148909837Y-77345584D01*
X148909838Y-77345586D01*
X148970219Y-77491358D01*
X149001000Y-77646107D01*
X149001000Y-77803893D01*
X148970219Y-77958642D01*
X148909838Y-78104414D01*
X148909837Y-78104416D01*
X148822178Y-78235608D01*
X148710608Y-78347178D01*
X148579416Y-78434837D01*
X148579415Y-78434838D01*
X148579414Y-78434838D01*
X148433642Y-78495219D01*
X148278893Y-78526000D01*
X148121107Y-78526000D01*
X147966358Y-78495219D01*
X147820586Y-78434838D01*
X147820585Y-78434838D01*
X147820584Y-78434837D01*
X147689392Y-78347178D01*
X147577822Y-78235608D01*
X147490163Y-78104416D01*
X147490162Y-78104414D01*
X147429781Y-77958642D01*
X147399000Y-77803893D01*
X147399000Y-77646107D01*
X147429781Y-77491358D01*
X147490162Y-77345586D01*
X147490163Y-77345584D01*
X147577822Y-77214392D01*
X147689392Y-77102822D01*
X147820584Y-77015163D01*
X147820586Y-77015162D01*
X147966358Y-76954781D01*
X148121107Y-76924000D01*
X148278893Y-76924000D01*
X148433642Y-76954781D01*
G37*
G36*
X153513642Y-76954781D02*
G01*
X153659414Y-77015162D01*
X153659416Y-77015163D01*
X153790608Y-77102822D01*
X153902178Y-77214392D01*
X153989837Y-77345584D01*
X153989838Y-77345586D01*
X154050219Y-77491358D01*
X154081000Y-77646107D01*
X154081000Y-77803893D01*
X154050219Y-77958642D01*
X153989838Y-78104414D01*
X153989837Y-78104416D01*
X153902178Y-78235608D01*
X153790608Y-78347178D01*
X153659416Y-78434837D01*
X153659415Y-78434838D01*
X153659414Y-78434838D01*
X153513642Y-78495219D01*
X153358893Y-78526000D01*
X153201107Y-78526000D01*
X153046358Y-78495219D01*
X152900586Y-78434838D01*
X152900585Y-78434838D01*
X152900584Y-78434837D01*
X152769392Y-78347178D01*
X152657822Y-78235608D01*
X152570163Y-78104416D01*
X152570162Y-78104414D01*
X152509781Y-77958642D01*
X152479000Y-77803893D01*
X152479000Y-77646107D01*
X152509781Y-77491358D01*
X152570162Y-77345586D01*
X152570163Y-77345584D01*
X152657822Y-77214392D01*
X152769392Y-77102822D01*
X152900584Y-77015163D01*
X152900586Y-77015162D01*
X153046358Y-76954781D01*
X153201107Y-76924000D01*
X153358893Y-76924000D01*
X153513642Y-76954781D01*
G37*
G36*
X156053642Y-76954781D02*
G01*
X156199414Y-77015162D01*
X156199416Y-77015163D01*
X156330608Y-77102822D01*
X156442178Y-77214392D01*
X156529837Y-77345584D01*
X156529838Y-77345586D01*
X156590219Y-77491358D01*
X156621000Y-77646107D01*
X156621000Y-77803893D01*
X156590219Y-77958642D01*
X156529838Y-78104414D01*
X156529837Y-78104416D01*
X156442178Y-78235608D01*
X156330608Y-78347178D01*
X156199416Y-78434837D01*
X156199415Y-78434838D01*
X156199414Y-78434838D01*
X156053642Y-78495219D01*
X155898893Y-78526000D01*
X155741107Y-78526000D01*
X155586358Y-78495219D01*
X155440586Y-78434838D01*
X155440585Y-78434838D01*
X155440584Y-78434837D01*
X155309392Y-78347178D01*
X155197822Y-78235608D01*
X155110163Y-78104416D01*
X155110162Y-78104414D01*
X155049781Y-77958642D01*
X155019000Y-77803893D01*
X155019000Y-77646107D01*
X155049781Y-77491358D01*
X155110162Y-77345586D01*
X155110163Y-77345584D01*
X155197822Y-77214392D01*
X155309392Y-77102822D01*
X155440584Y-77015163D01*
X155440586Y-77015162D01*
X155586358Y-76954781D01*
X155741107Y-76924000D01*
X155898893Y-76924000D01*
X156053642Y-76954781D01*
G37*
G36*
X161133642Y-76954781D02*
G01*
X161279414Y-77015162D01*
X161279416Y-77015163D01*
X161410608Y-77102822D01*
X161522178Y-77214392D01*
X161609837Y-77345584D01*
X161609838Y-77345586D01*
X161670219Y-77491358D01*
X161701000Y-77646107D01*
X161701000Y-77803893D01*
X161670219Y-77958642D01*
X161609838Y-78104414D01*
X161609837Y-78104416D01*
X161522178Y-78235608D01*
X161410608Y-78347178D01*
X161279416Y-78434837D01*
X161279415Y-78434838D01*
X161279414Y-78434838D01*
X161133642Y-78495219D01*
X160978893Y-78526000D01*
X160821107Y-78526000D01*
X160666358Y-78495219D01*
X160520586Y-78434838D01*
X160520585Y-78434838D01*
X160520584Y-78434837D01*
X160389392Y-78347178D01*
X160277822Y-78235608D01*
X160190163Y-78104416D01*
X160190162Y-78104414D01*
X160129781Y-77958642D01*
X160099000Y-77803893D01*
X160099000Y-77646107D01*
X160129781Y-77491358D01*
X160190162Y-77345586D01*
X160190163Y-77345584D01*
X160277822Y-77214392D01*
X160389392Y-77102822D01*
X160520584Y-77015163D01*
X160520586Y-77015162D01*
X160666358Y-76954781D01*
X160821107Y-76924000D01*
X160978893Y-76924000D01*
X161133642Y-76954781D01*
G37*
G36*
X168753642Y-76954781D02*
G01*
X168899414Y-77015162D01*
X168899416Y-77015163D01*
X169030608Y-77102822D01*
X169142178Y-77214392D01*
X169229837Y-77345584D01*
X169229838Y-77345586D01*
X169290219Y-77491358D01*
X169321000Y-77646107D01*
X169321000Y-77803893D01*
X169290219Y-77958642D01*
X169229838Y-78104414D01*
X169229837Y-78104416D01*
X169142178Y-78235608D01*
X169030608Y-78347178D01*
X168899416Y-78434837D01*
X168899415Y-78434838D01*
X168899414Y-78434838D01*
X168753642Y-78495219D01*
X168598893Y-78526000D01*
X168441107Y-78526000D01*
X168286358Y-78495219D01*
X168140586Y-78434838D01*
X168140585Y-78434838D01*
X168140584Y-78434837D01*
X168009392Y-78347178D01*
X167897822Y-78235608D01*
X167810163Y-78104416D01*
X167810162Y-78104414D01*
X167749781Y-77958642D01*
X167719000Y-77803893D01*
X167719000Y-77646107D01*
X167749781Y-77491358D01*
X167810162Y-77345586D01*
X167810163Y-77345584D01*
X167897822Y-77214392D01*
X168009392Y-77102822D01*
X168140584Y-77015163D01*
X168140586Y-77015162D01*
X168286358Y-76954781D01*
X168441107Y-76924000D01*
X168598893Y-76924000D01*
X168753642Y-76954781D01*
G37*
G36*
X178913642Y-76954781D02*
G01*
X179059414Y-77015162D01*
X179059416Y-77015163D01*
X179190608Y-77102822D01*
X179302178Y-77214392D01*
X179389837Y-77345584D01*
X179389838Y-77345586D01*
X179450219Y-77491358D01*
X179481000Y-77646107D01*
X179481000Y-77803893D01*
X179450219Y-77958642D01*
X179389838Y-78104414D01*
X179389837Y-78104416D01*
X179302178Y-78235608D01*
X179190608Y-78347178D01*
X179059416Y-78434837D01*
X179059415Y-78434838D01*
X179059414Y-78434838D01*
X178913642Y-78495219D01*
X178758893Y-78526000D01*
X178601107Y-78526000D01*
X178446358Y-78495219D01*
X178300586Y-78434838D01*
X178300585Y-78434838D01*
X178300584Y-78434837D01*
X178169392Y-78347178D01*
X178057822Y-78235608D01*
X177970163Y-78104416D01*
X177970162Y-78104414D01*
X177909781Y-77958642D01*
X177879000Y-77803893D01*
X177879000Y-77646107D01*
X177909781Y-77491358D01*
X177970162Y-77345586D01*
X177970163Y-77345584D01*
X178057822Y-77214392D01*
X178169392Y-77102822D01*
X178300584Y-77015163D01*
X178300586Y-77015162D01*
X178446358Y-76954781D01*
X178601107Y-76924000D01*
X178758893Y-76924000D01*
X178913642Y-76954781D01*
G37*
G36*
X163673642Y-76954781D02*
G01*
X163819414Y-77015162D01*
X163819416Y-77015163D01*
X163950608Y-77102822D01*
X164062178Y-77214392D01*
X164149837Y-77345584D01*
X164149838Y-77345586D01*
X164210219Y-77491358D01*
X164241000Y-77646107D01*
X164241000Y-77803893D01*
X164210219Y-77958642D01*
X164149838Y-78104414D01*
X164149837Y-78104416D01*
X164062178Y-78235608D01*
X163950608Y-78347178D01*
X163819416Y-78434837D01*
X163819415Y-78434838D01*
X163819414Y-78434838D01*
X163673642Y-78495219D01*
X163518893Y-78526000D01*
X163361107Y-78526000D01*
X163206358Y-78495219D01*
X163060586Y-78434838D01*
X163060585Y-78434838D01*
X163060584Y-78434837D01*
X162929392Y-78347178D01*
X162817822Y-78235608D01*
X162730163Y-78104416D01*
X162730162Y-78104414D01*
X162669781Y-77958642D01*
X162639000Y-77803893D01*
X162639000Y-77646107D01*
X162669781Y-77491358D01*
X162730162Y-77345586D01*
X162730163Y-77345584D01*
X162817822Y-77214392D01*
X162929392Y-77102822D01*
X163060584Y-77015163D01*
X163060586Y-77015162D01*
X163206358Y-76954781D01*
X163361107Y-76924000D01*
X163518893Y-76924000D01*
X163673642Y-76954781D01*
G37*
G36*
X181453642Y-76954781D02*
G01*
X181599414Y-77015162D01*
X181599416Y-77015163D01*
X181730608Y-77102822D01*
X181842178Y-77214392D01*
X181929837Y-77345584D01*
X181929838Y-77345586D01*
X181990219Y-77491358D01*
X182021000Y-77646107D01*
X182021000Y-77803893D01*
X181990219Y-77958642D01*
X181929838Y-78104414D01*
X181929837Y-78104416D01*
X181842178Y-78235608D01*
X181730608Y-78347178D01*
X181599416Y-78434837D01*
X181599415Y-78434838D01*
X181599414Y-78434838D01*
X181453642Y-78495219D01*
X181298893Y-78526000D01*
X181141107Y-78526000D01*
X180986358Y-78495219D01*
X180840586Y-78434838D01*
X180840585Y-78434838D01*
X180840584Y-78434837D01*
X180709392Y-78347178D01*
X180597822Y-78235608D01*
X180510163Y-78104416D01*
X180510162Y-78104414D01*
X180449781Y-77958642D01*
X180419000Y-77803893D01*
X180419000Y-77646107D01*
X180449781Y-77491358D01*
X180510162Y-77345586D01*
X180510163Y-77345584D01*
X180597822Y-77214392D01*
X180709392Y-77102822D01*
X180840584Y-77015163D01*
X180840586Y-77015162D01*
X180986358Y-76954781D01*
X181141107Y-76924000D01*
X181298893Y-76924000D01*
X181453642Y-76954781D01*
G37*
G36*
X186533642Y-76954781D02*
G01*
X186679414Y-77015162D01*
X186679416Y-77015163D01*
X186810608Y-77102822D01*
X186922178Y-77214392D01*
X187009837Y-77345584D01*
X187009838Y-77345586D01*
X187070219Y-77491358D01*
X187101000Y-77646107D01*
X187101000Y-77803893D01*
X187070219Y-77958642D01*
X187009838Y-78104414D01*
X187009837Y-78104416D01*
X186922178Y-78235608D01*
X186810608Y-78347178D01*
X186679416Y-78434837D01*
X186679415Y-78434838D01*
X186679414Y-78434838D01*
X186533642Y-78495219D01*
X186378893Y-78526000D01*
X186221107Y-78526000D01*
X186066358Y-78495219D01*
X185920586Y-78434838D01*
X185920585Y-78434838D01*
X185920584Y-78434837D01*
X185789392Y-78347178D01*
X185677822Y-78235608D01*
X185590163Y-78104416D01*
X185590162Y-78104414D01*
X185529781Y-77958642D01*
X185499000Y-77803893D01*
X185499000Y-77646107D01*
X185529781Y-77491358D01*
X185590162Y-77345586D01*
X185590163Y-77345584D01*
X185677822Y-77214392D01*
X185789392Y-77102822D01*
X185920584Y-77015163D01*
X185920586Y-77015162D01*
X186066358Y-76954781D01*
X186221107Y-76924000D01*
X186378893Y-76924000D01*
X186533642Y-76954781D01*
G37*
G36*
X189073642Y-76954781D02*
G01*
X189219414Y-77015162D01*
X189219416Y-77015163D01*
X189350608Y-77102822D01*
X189462178Y-77214392D01*
X189549837Y-77345584D01*
X189549838Y-77345586D01*
X189610219Y-77491358D01*
X189641000Y-77646107D01*
X189641000Y-77803893D01*
X189610219Y-77958642D01*
X189549838Y-78104414D01*
X189549837Y-78104416D01*
X189462178Y-78235608D01*
X189350608Y-78347178D01*
X189219416Y-78434837D01*
X189219415Y-78434838D01*
X189219414Y-78434838D01*
X189073642Y-78495219D01*
X188918893Y-78526000D01*
X188761107Y-78526000D01*
X188606358Y-78495219D01*
X188460586Y-78434838D01*
X188460585Y-78434838D01*
X188460584Y-78434837D01*
X188329392Y-78347178D01*
X188217822Y-78235608D01*
X188130163Y-78104416D01*
X188130162Y-78104414D01*
X188069781Y-77958642D01*
X188039000Y-77803893D01*
X188039000Y-77646107D01*
X188069781Y-77491358D01*
X188130162Y-77345586D01*
X188130163Y-77345584D01*
X188217822Y-77214392D01*
X188329392Y-77102822D01*
X188460584Y-77015163D01*
X188460586Y-77015162D01*
X188606358Y-76954781D01*
X188761107Y-76924000D01*
X188918893Y-76924000D01*
X189073642Y-76954781D01*
G37*
G36*
X183993642Y-76954781D02*
G01*
X184139414Y-77015162D01*
X184139416Y-77015163D01*
X184270608Y-77102822D01*
X184382178Y-77214392D01*
X184469837Y-77345584D01*
X184469838Y-77345586D01*
X184530219Y-77491358D01*
X184561000Y-77646107D01*
X184561000Y-77803893D01*
X184530219Y-77958642D01*
X184469838Y-78104414D01*
X184469837Y-78104416D01*
X184382178Y-78235608D01*
X184270608Y-78347178D01*
X184139416Y-78434837D01*
X184139415Y-78434838D01*
X184139414Y-78434838D01*
X183993642Y-78495219D01*
X183838893Y-78526000D01*
X183681107Y-78526000D01*
X183526358Y-78495219D01*
X183380586Y-78434838D01*
X183380585Y-78434838D01*
X183380584Y-78434837D01*
X183249392Y-78347178D01*
X183137822Y-78235608D01*
X183050163Y-78104416D01*
X183050162Y-78104414D01*
X182989781Y-77958642D01*
X182959000Y-77803893D01*
X182959000Y-77646107D01*
X182989781Y-77491358D01*
X183050162Y-77345586D01*
X183050163Y-77345584D01*
X183137822Y-77214392D01*
X183249392Y-77102822D01*
X183380584Y-77015163D01*
X183380586Y-77015162D01*
X183526358Y-76954781D01*
X183681107Y-76924000D01*
X183838893Y-76924000D01*
X183993642Y-76954781D01*
G37*
G36*
X191613642Y-76954781D02*
G01*
X191759414Y-77015162D01*
X191759416Y-77015163D01*
X191890608Y-77102822D01*
X192002178Y-77214392D01*
X192089837Y-77345584D01*
X192089838Y-77345586D01*
X192150219Y-77491358D01*
X192181000Y-77646107D01*
X192181000Y-77803893D01*
X192150219Y-77958642D01*
X192089838Y-78104414D01*
X192089837Y-78104416D01*
X192002178Y-78235608D01*
X191890608Y-78347178D01*
X191759416Y-78434837D01*
X191759415Y-78434838D01*
X191759414Y-78434838D01*
X191613642Y-78495219D01*
X191458893Y-78526000D01*
X191301107Y-78526000D01*
X191146358Y-78495219D01*
X191000586Y-78434838D01*
X191000585Y-78434838D01*
X191000584Y-78434837D01*
X190869392Y-78347178D01*
X190757822Y-78235608D01*
X190670163Y-78104416D01*
X190670162Y-78104414D01*
X190609781Y-77958642D01*
X190579000Y-77803893D01*
X190579000Y-77646107D01*
X190609781Y-77491358D01*
X190670162Y-77345586D01*
X190670163Y-77345584D01*
X190757822Y-77214392D01*
X190869392Y-77102822D01*
X191000584Y-77015163D01*
X191000586Y-77015162D01*
X191146358Y-76954781D01*
X191301107Y-76924000D01*
X191458893Y-76924000D01*
X191613642Y-76954781D01*
G37*
G36*
X194153642Y-76954781D02*
G01*
X194299414Y-77015162D01*
X194299416Y-77015163D01*
X194430608Y-77102822D01*
X194542178Y-77214392D01*
X194629837Y-77345584D01*
X194629838Y-77345586D01*
X194690219Y-77491358D01*
X194721000Y-77646107D01*
X194721000Y-77803893D01*
X194690219Y-77958642D01*
X194629838Y-78104414D01*
X194629837Y-78104416D01*
X194542178Y-78235608D01*
X194430608Y-78347178D01*
X194299416Y-78434837D01*
X194299415Y-78434838D01*
X194299414Y-78434838D01*
X194153642Y-78495219D01*
X193998893Y-78526000D01*
X193841107Y-78526000D01*
X193686358Y-78495219D01*
X193540586Y-78434838D01*
X193540585Y-78434838D01*
X193540584Y-78434837D01*
X193409392Y-78347178D01*
X193297822Y-78235608D01*
X193210163Y-78104416D01*
X193210162Y-78104414D01*
X193149781Y-77958642D01*
X193119000Y-77803893D01*
X193119000Y-77646107D01*
X193149781Y-77491358D01*
X193210162Y-77345586D01*
X193210163Y-77345584D01*
X193297822Y-77214392D01*
X193409392Y-77102822D01*
X193540584Y-77015163D01*
X193540586Y-77015162D01*
X193686358Y-76954781D01*
X193841107Y-76924000D01*
X193998893Y-76924000D01*
X194153642Y-76954781D01*
G37*
G36*
X196693642Y-76954781D02*
G01*
X196839414Y-77015162D01*
X196839416Y-77015163D01*
X196970608Y-77102822D01*
X197082178Y-77214392D01*
X197169837Y-77345584D01*
X197169838Y-77345586D01*
X197230219Y-77491358D01*
X197261000Y-77646107D01*
X197261000Y-77803893D01*
X197230219Y-77958642D01*
X197169838Y-78104414D01*
X197169837Y-78104416D01*
X197082178Y-78235608D01*
X196970608Y-78347178D01*
X196839416Y-78434837D01*
X196839415Y-78434838D01*
X196839414Y-78434838D01*
X196693642Y-78495219D01*
X196538893Y-78526000D01*
X196381107Y-78526000D01*
X196226358Y-78495219D01*
X196080586Y-78434838D01*
X196080585Y-78434838D01*
X196080584Y-78434837D01*
X195949392Y-78347178D01*
X195837822Y-78235608D01*
X195750163Y-78104416D01*
X195750162Y-78104414D01*
X195689781Y-77958642D01*
X195659000Y-77803893D01*
X195659000Y-77646107D01*
X195689781Y-77491358D01*
X195750162Y-77345586D01*
X195750163Y-77345584D01*
X195837822Y-77214392D01*
X195949392Y-77102822D01*
X196080584Y-77015163D01*
X196080586Y-77015162D01*
X196226358Y-76954781D01*
X196381107Y-76924000D01*
X196538893Y-76924000D01*
X196693642Y-76954781D01*
G37*
G36*
X167483642Y-75054781D02*
G01*
X167629414Y-75115162D01*
X167629416Y-75115163D01*
X167760608Y-75202822D01*
X167872178Y-75314392D01*
X167959837Y-75445584D01*
X167959838Y-75445586D01*
X168020219Y-75591358D01*
X168051000Y-75746107D01*
X168051000Y-75903893D01*
X168020219Y-76058642D01*
X167959838Y-76204414D01*
X167959837Y-76204416D01*
X167872178Y-76335608D01*
X167760608Y-76447178D01*
X167629416Y-76534837D01*
X167629415Y-76534838D01*
X167629414Y-76534838D01*
X167483642Y-76595219D01*
X167328893Y-76626000D01*
X167171107Y-76626000D01*
X167016358Y-76595219D01*
X166870586Y-76534838D01*
X166870585Y-76534838D01*
X166870584Y-76534837D01*
X166739392Y-76447178D01*
X166627822Y-76335608D01*
X166540163Y-76204416D01*
X166540162Y-76204414D01*
X166479781Y-76058642D01*
X166449000Y-75903893D01*
X166449000Y-75746107D01*
X166479781Y-75591358D01*
X166540162Y-75445586D01*
X166540163Y-75445584D01*
X166627822Y-75314392D01*
X166739392Y-75202822D01*
X166870584Y-75115163D01*
X166870586Y-75115162D01*
X167016358Y-75054781D01*
X167171107Y-75024000D01*
X167328893Y-75024000D01*
X167483642Y-75054781D01*
G37*
G36*
X170023642Y-75054781D02*
G01*
X170169414Y-75115162D01*
X170169416Y-75115163D01*
X170300608Y-75202822D01*
X170412178Y-75314392D01*
X170499837Y-75445584D01*
X170499838Y-75445586D01*
X170560219Y-75591358D01*
X170591000Y-75746107D01*
X170591000Y-75903893D01*
X170560219Y-76058642D01*
X170499838Y-76204414D01*
X170499837Y-76204416D01*
X170412178Y-76335608D01*
X170300608Y-76447178D01*
X170169416Y-76534837D01*
X170169415Y-76534838D01*
X170169414Y-76534838D01*
X170023642Y-76595219D01*
X169868893Y-76626000D01*
X169711107Y-76626000D01*
X169556358Y-76595219D01*
X169410586Y-76534838D01*
X169410585Y-76534838D01*
X169410584Y-76534837D01*
X169279392Y-76447178D01*
X169167822Y-76335608D01*
X169080163Y-76204416D01*
X169080162Y-76204414D01*
X169019781Y-76058642D01*
X168989000Y-75903893D01*
X168989000Y-75746107D01*
X169019781Y-75591358D01*
X169080162Y-75445586D01*
X169080163Y-75445584D01*
X169167822Y-75314392D01*
X169279392Y-75202822D01*
X169410584Y-75115163D01*
X169410586Y-75115162D01*
X169556358Y-75054781D01*
X169711107Y-75024000D01*
X169868893Y-75024000D01*
X170023642Y-75054781D01*
G37*
G36*
X172563642Y-75054781D02*
G01*
X172709414Y-75115162D01*
X172709416Y-75115163D01*
X172840608Y-75202822D01*
X172952178Y-75314392D01*
X173039837Y-75445584D01*
X173039838Y-75445586D01*
X173100219Y-75591358D01*
X173131000Y-75746107D01*
X173131000Y-75903893D01*
X173100219Y-76058642D01*
X173039838Y-76204414D01*
X173039837Y-76204416D01*
X172952178Y-76335608D01*
X172840608Y-76447178D01*
X172709416Y-76534837D01*
X172709415Y-76534838D01*
X172709414Y-76534838D01*
X172563642Y-76595219D01*
X172408893Y-76626000D01*
X172251107Y-76626000D01*
X172096358Y-76595219D01*
X171950586Y-76534838D01*
X171950585Y-76534838D01*
X171950584Y-76534837D01*
X171819392Y-76447178D01*
X171707822Y-76335608D01*
X171620163Y-76204416D01*
X171620162Y-76204414D01*
X171559781Y-76058642D01*
X171529000Y-75903893D01*
X171529000Y-75746107D01*
X171559781Y-75591358D01*
X171620162Y-75445586D01*
X171620163Y-75445584D01*
X171707822Y-75314392D01*
X171819392Y-75202822D01*
X171950584Y-75115163D01*
X171950586Y-75115162D01*
X172096358Y-75054781D01*
X172251107Y-75024000D01*
X172408893Y-75024000D01*
X172563642Y-75054781D01*
G37*
G36*
X175103642Y-75054781D02*
G01*
X175249414Y-75115162D01*
X175249416Y-75115163D01*
X175380608Y-75202822D01*
X175492178Y-75314392D01*
X175579837Y-75445584D01*
X175579838Y-75445586D01*
X175640219Y-75591358D01*
X175671000Y-75746107D01*
X175671000Y-75903893D01*
X175640219Y-76058642D01*
X175579838Y-76204414D01*
X175579837Y-76204416D01*
X175492178Y-76335608D01*
X175380608Y-76447178D01*
X175249416Y-76534837D01*
X175249415Y-76534838D01*
X175249414Y-76534838D01*
X175103642Y-76595219D01*
X174948893Y-76626000D01*
X174791107Y-76626000D01*
X174636358Y-76595219D01*
X174490586Y-76534838D01*
X174490585Y-76534838D01*
X174490584Y-76534837D01*
X174359392Y-76447178D01*
X174247822Y-76335608D01*
X174160163Y-76204416D01*
X174160162Y-76204414D01*
X174099781Y-76058642D01*
X174069000Y-75903893D01*
X174069000Y-75746107D01*
X174099781Y-75591358D01*
X174160162Y-75445586D01*
X174160163Y-75445584D01*
X174247822Y-75314392D01*
X174359392Y-75202822D01*
X174490584Y-75115163D01*
X174490586Y-75115162D01*
X174636358Y-75054781D01*
X174791107Y-75024000D01*
X174948893Y-75024000D01*
X175103642Y-75054781D01*
G37*
G36*
X177643642Y-75054781D02*
G01*
X177789414Y-75115162D01*
X177789416Y-75115163D01*
X177920608Y-75202822D01*
X178032178Y-75314392D01*
X178119837Y-75445584D01*
X178119838Y-75445586D01*
X178180219Y-75591358D01*
X178211000Y-75746107D01*
X178211000Y-75903893D01*
X178180219Y-76058642D01*
X178119838Y-76204414D01*
X178119837Y-76204416D01*
X178032178Y-76335608D01*
X177920608Y-76447178D01*
X177789416Y-76534837D01*
X177789415Y-76534838D01*
X177789414Y-76534838D01*
X177643642Y-76595219D01*
X177488893Y-76626000D01*
X177331107Y-76626000D01*
X177176358Y-76595219D01*
X177030586Y-76534838D01*
X177030585Y-76534838D01*
X177030584Y-76534837D01*
X176899392Y-76447178D01*
X176787822Y-76335608D01*
X176700163Y-76204416D01*
X176700162Y-76204414D01*
X176639781Y-76058642D01*
X176609000Y-75903893D01*
X176609000Y-75746107D01*
X176639781Y-75591358D01*
X176700162Y-75445586D01*
X176700163Y-75445584D01*
X176787822Y-75314392D01*
X176899392Y-75202822D01*
X177030584Y-75115163D01*
X177030586Y-75115162D01*
X177176358Y-75054781D01*
X177331107Y-75024000D01*
X177488893Y-75024000D01*
X177643642Y-75054781D01*
G37*
G36*
X180183642Y-75054781D02*
G01*
X180329414Y-75115162D01*
X180329416Y-75115163D01*
X180460608Y-75202822D01*
X180572178Y-75314392D01*
X180659837Y-75445584D01*
X180659838Y-75445586D01*
X180720219Y-75591358D01*
X180751000Y-75746107D01*
X180751000Y-75903893D01*
X180720219Y-76058642D01*
X180659838Y-76204414D01*
X180659837Y-76204416D01*
X180572178Y-76335608D01*
X180460608Y-76447178D01*
X180329416Y-76534837D01*
X180329415Y-76534838D01*
X180329414Y-76534838D01*
X180183642Y-76595219D01*
X180028893Y-76626000D01*
X179871107Y-76626000D01*
X179716358Y-76595219D01*
X179570586Y-76534838D01*
X179570585Y-76534838D01*
X179570584Y-76534837D01*
X179439392Y-76447178D01*
X179327822Y-76335608D01*
X179240163Y-76204416D01*
X179240162Y-76204414D01*
X179179781Y-76058642D01*
X179149000Y-75903893D01*
X179149000Y-75746107D01*
X179179781Y-75591358D01*
X179240162Y-75445586D01*
X179240163Y-75445584D01*
X179327822Y-75314392D01*
X179439392Y-75202822D01*
X179570584Y-75115163D01*
X179570586Y-75115162D01*
X179716358Y-75054781D01*
X179871107Y-75024000D01*
X180028893Y-75024000D01*
X180183642Y-75054781D01*
G37*
G36*
X182723642Y-75054781D02*
G01*
X182869414Y-75115162D01*
X182869416Y-75115163D01*
X183000608Y-75202822D01*
X183112178Y-75314392D01*
X183199837Y-75445584D01*
X183199838Y-75445586D01*
X183260219Y-75591358D01*
X183291000Y-75746107D01*
X183291000Y-75903893D01*
X183260219Y-76058642D01*
X183199838Y-76204414D01*
X183199837Y-76204416D01*
X183112178Y-76335608D01*
X183000608Y-76447178D01*
X182869416Y-76534837D01*
X182869415Y-76534838D01*
X182869414Y-76534838D01*
X182723642Y-76595219D01*
X182568893Y-76626000D01*
X182411107Y-76626000D01*
X182256358Y-76595219D01*
X182110586Y-76534838D01*
X182110585Y-76534838D01*
X182110584Y-76534837D01*
X181979392Y-76447178D01*
X181867822Y-76335608D01*
X181780163Y-76204416D01*
X181780162Y-76204414D01*
X181719781Y-76058642D01*
X181689000Y-75903893D01*
X181689000Y-75746107D01*
X181719781Y-75591358D01*
X181780162Y-75445586D01*
X181780163Y-75445584D01*
X181867822Y-75314392D01*
X181979392Y-75202822D01*
X182110584Y-75115163D01*
X182110586Y-75115162D01*
X182256358Y-75054781D01*
X182411107Y-75024000D01*
X182568893Y-75024000D01*
X182723642Y-75054781D01*
G37*
G36*
X185263642Y-75054781D02*
G01*
X185409414Y-75115162D01*
X185409416Y-75115163D01*
X185540608Y-75202822D01*
X185652178Y-75314392D01*
X185739837Y-75445584D01*
X185739838Y-75445586D01*
X185800219Y-75591358D01*
X185831000Y-75746107D01*
X185831000Y-75903893D01*
X185800219Y-76058642D01*
X185739838Y-76204414D01*
X185739837Y-76204416D01*
X185652178Y-76335608D01*
X185540608Y-76447178D01*
X185409416Y-76534837D01*
X185409415Y-76534838D01*
X185409414Y-76534838D01*
X185263642Y-76595219D01*
X185108893Y-76626000D01*
X184951107Y-76626000D01*
X184796358Y-76595219D01*
X184650586Y-76534838D01*
X184650585Y-76534838D01*
X184650584Y-76534837D01*
X184519392Y-76447178D01*
X184407822Y-76335608D01*
X184320163Y-76204416D01*
X184320162Y-76204414D01*
X184259781Y-76058642D01*
X184229000Y-75903893D01*
X184229000Y-75746107D01*
X184259781Y-75591358D01*
X184320162Y-75445586D01*
X184320163Y-75445584D01*
X184407822Y-75314392D01*
X184519392Y-75202822D01*
X184650584Y-75115163D01*
X184650586Y-75115162D01*
X184796358Y-75054781D01*
X184951107Y-75024000D01*
X185108893Y-75024000D01*
X185263642Y-75054781D01*
G37*
G36*
X187803642Y-75054781D02*
G01*
X187949414Y-75115162D01*
X187949416Y-75115163D01*
X188080608Y-75202822D01*
X188192178Y-75314392D01*
X188279837Y-75445584D01*
X188279838Y-75445586D01*
X188340219Y-75591358D01*
X188371000Y-75746107D01*
X188371000Y-75903893D01*
X188340219Y-76058642D01*
X188279838Y-76204414D01*
X188279837Y-76204416D01*
X188192178Y-76335608D01*
X188080608Y-76447178D01*
X187949416Y-76534837D01*
X187949415Y-76534838D01*
X187949414Y-76534838D01*
X187803642Y-76595219D01*
X187648893Y-76626000D01*
X187491107Y-76626000D01*
X187336358Y-76595219D01*
X187190586Y-76534838D01*
X187190585Y-76534838D01*
X187190584Y-76534837D01*
X187059392Y-76447178D01*
X186947822Y-76335608D01*
X186860163Y-76204416D01*
X186860162Y-76204414D01*
X186799781Y-76058642D01*
X186769000Y-75903893D01*
X186769000Y-75746107D01*
X186799781Y-75591358D01*
X186860162Y-75445586D01*
X186860163Y-75445584D01*
X186947822Y-75314392D01*
X187059392Y-75202822D01*
X187190584Y-75115163D01*
X187190586Y-75115162D01*
X187336358Y-75054781D01*
X187491107Y-75024000D01*
X187648893Y-75024000D01*
X187803642Y-75054781D01*
G37*
G36*
X190343642Y-75054781D02*
G01*
X190489414Y-75115162D01*
X190489416Y-75115163D01*
X190620608Y-75202822D01*
X190732178Y-75314392D01*
X190819837Y-75445584D01*
X190819838Y-75445586D01*
X190880219Y-75591358D01*
X190911000Y-75746107D01*
X190911000Y-75903893D01*
X190880219Y-76058642D01*
X190819838Y-76204414D01*
X190819837Y-76204416D01*
X190732178Y-76335608D01*
X190620608Y-76447178D01*
X190489416Y-76534837D01*
X190489415Y-76534838D01*
X190489414Y-76534838D01*
X190343642Y-76595219D01*
X190188893Y-76626000D01*
X190031107Y-76626000D01*
X189876358Y-76595219D01*
X189730586Y-76534838D01*
X189730585Y-76534838D01*
X189730584Y-76534837D01*
X189599392Y-76447178D01*
X189487822Y-76335608D01*
X189400163Y-76204416D01*
X189400162Y-76204414D01*
X189339781Y-76058642D01*
X189309000Y-75903893D01*
X189309000Y-75746107D01*
X189339781Y-75591358D01*
X189400162Y-75445586D01*
X189400163Y-75445584D01*
X189487822Y-75314392D01*
X189599392Y-75202822D01*
X189730584Y-75115163D01*
X189730586Y-75115162D01*
X189876358Y-75054781D01*
X190031107Y-75024000D01*
X190188893Y-75024000D01*
X190343642Y-75054781D01*
G37*
G36*
X192883642Y-75054781D02*
G01*
X193029414Y-75115162D01*
X193029416Y-75115163D01*
X193160608Y-75202822D01*
X193272178Y-75314392D01*
X193359837Y-75445584D01*
X193359838Y-75445586D01*
X193420219Y-75591358D01*
X193451000Y-75746107D01*
X193451000Y-75903893D01*
X193420219Y-76058642D01*
X193359838Y-76204414D01*
X193359837Y-76204416D01*
X193272178Y-76335608D01*
X193160608Y-76447178D01*
X193029416Y-76534837D01*
X193029415Y-76534838D01*
X193029414Y-76534838D01*
X192883642Y-76595219D01*
X192728893Y-76626000D01*
X192571107Y-76626000D01*
X192416358Y-76595219D01*
X192270586Y-76534838D01*
X192270585Y-76534838D01*
X192270584Y-76534837D01*
X192139392Y-76447178D01*
X192027822Y-76335608D01*
X191940163Y-76204416D01*
X191940162Y-76204414D01*
X191879781Y-76058642D01*
X191849000Y-75903893D01*
X191849000Y-75746107D01*
X191879781Y-75591358D01*
X191940162Y-75445586D01*
X191940163Y-75445584D01*
X192027822Y-75314392D01*
X192139392Y-75202822D01*
X192270584Y-75115163D01*
X192270586Y-75115162D01*
X192416358Y-75054781D01*
X192571107Y-75024000D01*
X192728893Y-75024000D01*
X192883642Y-75054781D01*
G37*
G36*
X195423642Y-75054781D02*
G01*
X195569414Y-75115162D01*
X195569416Y-75115163D01*
X195700608Y-75202822D01*
X195812178Y-75314392D01*
X195899837Y-75445584D01*
X195899838Y-75445586D01*
X195960219Y-75591358D01*
X195991000Y-75746107D01*
X195991000Y-75903893D01*
X195960219Y-76058642D01*
X195899838Y-76204414D01*
X195899837Y-76204416D01*
X195812178Y-76335608D01*
X195700608Y-76447178D01*
X195569416Y-76534837D01*
X195569415Y-76534838D01*
X195569414Y-76534838D01*
X195423642Y-76595219D01*
X195268893Y-76626000D01*
X195111107Y-76626000D01*
X194956358Y-76595219D01*
X194810586Y-76534838D01*
X194810585Y-76534838D01*
X194810584Y-76534837D01*
X194679392Y-76447178D01*
X194567822Y-76335608D01*
X194480163Y-76204416D01*
X194480162Y-76204414D01*
X194419781Y-76058642D01*
X194389000Y-75903893D01*
X194389000Y-75746107D01*
X194419781Y-75591358D01*
X194480162Y-75445586D01*
X194480163Y-75445584D01*
X194567822Y-75314392D01*
X194679392Y-75202822D01*
X194810584Y-75115163D01*
X194810586Y-75115162D01*
X194956358Y-75054781D01*
X195111107Y-75024000D01*
X195268893Y-75024000D01*
X195423642Y-75054781D01*
G37*
G36*
X159863642Y-75054781D02*
G01*
X160009414Y-75115162D01*
X160009416Y-75115163D01*
X160140608Y-75202822D01*
X160252178Y-75314392D01*
X160339837Y-75445584D01*
X160339838Y-75445586D01*
X160400219Y-75591358D01*
X160431000Y-75746107D01*
X160431000Y-75903893D01*
X160400219Y-76058642D01*
X160339838Y-76204414D01*
X160339837Y-76204416D01*
X160252178Y-76335608D01*
X160140608Y-76447178D01*
X160009416Y-76534837D01*
X160009415Y-76534838D01*
X160009414Y-76534838D01*
X159863642Y-76595219D01*
X159708893Y-76626000D01*
X159551107Y-76626000D01*
X159396358Y-76595219D01*
X159250586Y-76534838D01*
X159250585Y-76534838D01*
X159250584Y-76534837D01*
X159119392Y-76447178D01*
X159007822Y-76335608D01*
X158920163Y-76204416D01*
X158920162Y-76204414D01*
X158859781Y-76058642D01*
X158829000Y-75903893D01*
X158829000Y-75746107D01*
X158859781Y-75591358D01*
X158920162Y-75445586D01*
X158920163Y-75445584D01*
X159007822Y-75314392D01*
X159119392Y-75202822D01*
X159250584Y-75115163D01*
X159250586Y-75115162D01*
X159396358Y-75054781D01*
X159551107Y-75024000D01*
X159708893Y-75024000D01*
X159863642Y-75054781D01*
G37*
G36*
X149703642Y-75054781D02*
G01*
X149849414Y-75115162D01*
X149849416Y-75115163D01*
X149980608Y-75202822D01*
X150092178Y-75314392D01*
X150179837Y-75445584D01*
X150179838Y-75445586D01*
X150240219Y-75591358D01*
X150271000Y-75746107D01*
X150271000Y-75903893D01*
X150240219Y-76058642D01*
X150179838Y-76204414D01*
X150179837Y-76204416D01*
X150092178Y-76335608D01*
X149980608Y-76447178D01*
X149849416Y-76534837D01*
X149849415Y-76534838D01*
X149849414Y-76534838D01*
X149703642Y-76595219D01*
X149548893Y-76626000D01*
X149391107Y-76626000D01*
X149236358Y-76595219D01*
X149090586Y-76534838D01*
X149090585Y-76534838D01*
X149090584Y-76534837D01*
X148959392Y-76447178D01*
X148847822Y-76335608D01*
X148760163Y-76204416D01*
X148760162Y-76204414D01*
X148699781Y-76058642D01*
X148669000Y-75903893D01*
X148669000Y-75746107D01*
X148699781Y-75591358D01*
X148760162Y-75445586D01*
X148760163Y-75445584D01*
X148847822Y-75314392D01*
X148959392Y-75202822D01*
X149090584Y-75115163D01*
X149090586Y-75115162D01*
X149236358Y-75054781D01*
X149391107Y-75024000D01*
X149548893Y-75024000D01*
X149703642Y-75054781D01*
G37*
G36*
X152243642Y-75054781D02*
G01*
X152389414Y-75115162D01*
X152389416Y-75115163D01*
X152520608Y-75202822D01*
X152632178Y-75314392D01*
X152719837Y-75445584D01*
X152719838Y-75445586D01*
X152780219Y-75591358D01*
X152811000Y-75746107D01*
X152811000Y-75903893D01*
X152780219Y-76058642D01*
X152719838Y-76204414D01*
X152719837Y-76204416D01*
X152632178Y-76335608D01*
X152520608Y-76447178D01*
X152389416Y-76534837D01*
X152389415Y-76534838D01*
X152389414Y-76534838D01*
X152243642Y-76595219D01*
X152088893Y-76626000D01*
X151931107Y-76626000D01*
X151776358Y-76595219D01*
X151630586Y-76534838D01*
X151630585Y-76534838D01*
X151630584Y-76534837D01*
X151499392Y-76447178D01*
X151387822Y-76335608D01*
X151300163Y-76204416D01*
X151300162Y-76204414D01*
X151239781Y-76058642D01*
X151209000Y-75903893D01*
X151209000Y-75746107D01*
X151239781Y-75591358D01*
X151300162Y-75445586D01*
X151300163Y-75445584D01*
X151387822Y-75314392D01*
X151499392Y-75202822D01*
X151630584Y-75115163D01*
X151630586Y-75115162D01*
X151776358Y-75054781D01*
X151931107Y-75024000D01*
X152088893Y-75024000D01*
X152243642Y-75054781D01*
G37*
G36*
X162403642Y-75054781D02*
G01*
X162549414Y-75115162D01*
X162549416Y-75115163D01*
X162680608Y-75202822D01*
X162792178Y-75314392D01*
X162879837Y-75445584D01*
X162879838Y-75445586D01*
X162940219Y-75591358D01*
X162971000Y-75746107D01*
X162971000Y-75903893D01*
X162940219Y-76058642D01*
X162879838Y-76204414D01*
X162879837Y-76204416D01*
X162792178Y-76335608D01*
X162680608Y-76447178D01*
X162549416Y-76534837D01*
X162549415Y-76534838D01*
X162549414Y-76534838D01*
X162403642Y-76595219D01*
X162248893Y-76626000D01*
X162091107Y-76626000D01*
X161936358Y-76595219D01*
X161790586Y-76534838D01*
X161790585Y-76534838D01*
X161790584Y-76534837D01*
X161659392Y-76447178D01*
X161547822Y-76335608D01*
X161460163Y-76204416D01*
X161460162Y-76204414D01*
X161399781Y-76058642D01*
X161369000Y-75903893D01*
X161369000Y-75746107D01*
X161399781Y-75591358D01*
X161460162Y-75445586D01*
X161460163Y-75445584D01*
X161547822Y-75314392D01*
X161659392Y-75202822D01*
X161790584Y-75115163D01*
X161790586Y-75115162D01*
X161936358Y-75054781D01*
X162091107Y-75024000D01*
X162248893Y-75024000D01*
X162403642Y-75054781D01*
G37*
G36*
X154783642Y-75054781D02*
G01*
X154929414Y-75115162D01*
X154929416Y-75115163D01*
X155060608Y-75202822D01*
X155172178Y-75314392D01*
X155259837Y-75445584D01*
X155259838Y-75445586D01*
X155320219Y-75591358D01*
X155351000Y-75746107D01*
X155351000Y-75903893D01*
X155320219Y-76058642D01*
X155259838Y-76204414D01*
X155259837Y-76204416D01*
X155172178Y-76335608D01*
X155060608Y-76447178D01*
X154929416Y-76534837D01*
X154929415Y-76534838D01*
X154929414Y-76534838D01*
X154783642Y-76595219D01*
X154628893Y-76626000D01*
X154471107Y-76626000D01*
X154316358Y-76595219D01*
X154170586Y-76534838D01*
X154170585Y-76534838D01*
X154170584Y-76534837D01*
X154039392Y-76447178D01*
X153927822Y-76335608D01*
X153840163Y-76204416D01*
X153840162Y-76204414D01*
X153779781Y-76058642D01*
X153749000Y-75903893D01*
X153749000Y-75746107D01*
X153779781Y-75591358D01*
X153840162Y-75445586D01*
X153840163Y-75445584D01*
X153927822Y-75314392D01*
X154039392Y-75202822D01*
X154170584Y-75115163D01*
X154170586Y-75115162D01*
X154316358Y-75054781D01*
X154471107Y-75024000D01*
X154628893Y-75024000D01*
X154783642Y-75054781D01*
G37*
G36*
X157323642Y-75054781D02*
G01*
X157469414Y-75115162D01*
X157469416Y-75115163D01*
X157600608Y-75202822D01*
X157712178Y-75314392D01*
X157799837Y-75445584D01*
X157799838Y-75445586D01*
X157860219Y-75591358D01*
X157891000Y-75746107D01*
X157891000Y-75903893D01*
X157860219Y-76058642D01*
X157799838Y-76204414D01*
X157799837Y-76204416D01*
X157712178Y-76335608D01*
X157600608Y-76447178D01*
X157469416Y-76534837D01*
X157469415Y-76534838D01*
X157469414Y-76534838D01*
X157323642Y-76595219D01*
X157168893Y-76626000D01*
X157011107Y-76626000D01*
X156856358Y-76595219D01*
X156710586Y-76534838D01*
X156710585Y-76534838D01*
X156710584Y-76534837D01*
X156579392Y-76447178D01*
X156467822Y-76335608D01*
X156380163Y-76204416D01*
X156380162Y-76204414D01*
X156319781Y-76058642D01*
X156289000Y-75903893D01*
X156289000Y-75746107D01*
X156319781Y-75591358D01*
X156380162Y-75445586D01*
X156380163Y-75445584D01*
X156467822Y-75314392D01*
X156579392Y-75202822D01*
X156710584Y-75115163D01*
X156710586Y-75115162D01*
X156856358Y-75054781D01*
X157011107Y-75024000D01*
X157168893Y-75024000D01*
X157323642Y-75054781D01*
G37*
G36*
X147731000Y-76626000D02*
G01*
X146129000Y-76626000D01*
X146129000Y-75024000D01*
X147731000Y-75024000D01*
X147731000Y-76626000D01*
G37*
G36*
X164943642Y-75054781D02*
G01*
X165089414Y-75115162D01*
X165089416Y-75115163D01*
X165220608Y-75202822D01*
X165332178Y-75314392D01*
X165419837Y-75445584D01*
X165419838Y-75445586D01*
X165480219Y-75591358D01*
X165511000Y-75746107D01*
X165511000Y-75903893D01*
X165480219Y-76058642D01*
X165419838Y-76204414D01*
X165419837Y-76204416D01*
X165332178Y-76335608D01*
X165220608Y-76447178D01*
X165089416Y-76534837D01*
X165089415Y-76534838D01*
X165089414Y-76534838D01*
X164943642Y-76595219D01*
X164788893Y-76626000D01*
X164631107Y-76626000D01*
X164476358Y-76595219D01*
X164330586Y-76534838D01*
X164330585Y-76534838D01*
X164330584Y-76534837D01*
X164199392Y-76447178D01*
X164087822Y-76335608D01*
X164000163Y-76204416D01*
X164000162Y-76204414D01*
X163939781Y-76058642D01*
X163909000Y-75903893D01*
X163909000Y-75746107D01*
X163939781Y-75591358D01*
X164000162Y-75445586D01*
X164000163Y-75445584D01*
X164087822Y-75314392D01*
X164199392Y-75202822D01*
X164330584Y-75115163D01*
X164330586Y-75115162D01*
X164476358Y-75054781D01*
X164631107Y-75024000D01*
X164788893Y-75024000D01*
X164943642Y-75054781D01*
G37*
M02*
