G04 #@! TF.GenerationSoftware,KiCad,Pcbnew,(5.1.5)-3*
G04 #@! TF.CreationDate,2020-05-22T11:52:53-04:00*
G04 #@! TF.ProjectId,uBit_carrier,75426974-5f63-4617-9272-6965722e6b69,rev?*
G04 #@! TF.SameCoordinates,Original*
G04 #@! TF.FileFunction,Legend,Top*
G04 #@! TF.FilePolarity,Positive*
%FSLAX46Y46*%
G04 Gerber Fmt 4.6, Leading zero omitted, Abs format (unit mm)*
G04 Created by KiCad (PCBNEW (5.1.5)-3) date 2020-05-22 11:52:53*
%MOMM*%
%LPD*%
G04 APERTURE LIST*
%ADD10C,0.152400*%
%ADD11C,0.120000*%
%ADD12C,0.150000*%
G04 APERTURE END LIST*
D10*
X157835600Y-106197400D02*
X161086800Y-106197400D01*
X161086800Y-102946200D02*
X157835600Y-102946200D01*
D11*
X162689321Y-107964700D02*
X163014879Y-107964700D01*
X162689321Y-106944700D02*
X163014879Y-106944700D01*
X158976279Y-99515200D02*
X158650721Y-99515200D01*
X158976279Y-100535200D02*
X158650721Y-100535200D01*
X161762221Y-100535200D02*
X162087779Y-100535200D01*
X161762221Y-99515200D02*
X162087779Y-99515200D01*
X158193521Y-107723400D02*
X158519079Y-107723400D01*
X158193521Y-106703400D02*
X158519079Y-106703400D01*
X154442700Y-103194033D02*
X154442700Y-103536567D01*
X155462700Y-103194033D02*
X155462700Y-103536567D01*
X163078700Y-103850221D02*
X163078700Y-104175779D01*
X164098700Y-103850221D02*
X164098700Y-104175779D01*
X182715000Y-100125000D02*
X182715000Y-98205000D01*
X182715000Y-98205000D02*
X196725000Y-98205000D01*
X182715000Y-111725000D02*
X182715000Y-112175000D01*
X182715000Y-112175000D02*
X186325000Y-112175000D01*
X198985000Y-99885000D02*
X198985000Y-102195000D01*
X198985000Y-111145000D02*
X198985000Y-109285000D01*
X198985000Y-111145000D02*
X198785000Y-111345000D01*
X188025000Y-112175000D02*
X192725000Y-112175000D01*
X194025000Y-112175000D02*
X195825000Y-112175000D01*
X198635000Y-109075000D02*
X198635000Y-102705000D01*
X198635000Y-109075000D02*
X198785000Y-109075000D01*
X198985000Y-109285000D02*
X198785000Y-109075000D01*
X198985000Y-99885000D02*
X198785000Y-99685000D01*
X198785000Y-99685000D02*
X198785000Y-99425000D01*
X198985000Y-102195000D02*
X198635000Y-102705000D01*
X154201400Y-107296133D02*
X154201400Y-107638667D01*
X155221400Y-107296133D02*
X155221400Y-107638667D01*
X174925000Y-102365000D02*
X176600000Y-102365000D01*
X174925000Y-102625000D02*
X174925000Y-102365000D01*
X172200000Y-102625000D02*
X174925000Y-102625000D01*
X169475000Y-102625000D02*
X169475000Y-102365000D01*
X172200000Y-102625000D02*
X169475000Y-102625000D01*
X174925000Y-97175000D02*
X174925000Y-97435000D01*
X172200000Y-97175000D02*
X174925000Y-97175000D01*
X169475000Y-97175000D02*
X169475000Y-97435000D01*
X172200000Y-97175000D02*
X169475000Y-97175000D01*
X152600000Y-105700000D02*
X152000000Y-106000000D01*
X152600000Y-106300000D02*
X152600000Y-105700000D01*
X152000000Y-106000000D02*
X152600000Y-106300000D01*
X148910000Y-103180000D02*
X148910000Y-103500000D01*
X145490000Y-103180000D02*
X148910000Y-103180000D01*
X145410000Y-103500000D02*
X145490000Y-103180000D01*
X145490000Y-103820000D02*
X145410000Y-103500000D01*
X148910000Y-103820000D02*
X145490000Y-103820000D01*
X148910000Y-103500000D02*
X148910000Y-103820000D01*
X149910000Y-104830000D02*
X149910000Y-104670000D01*
X148910000Y-105680000D02*
X148910000Y-106000000D01*
X145490000Y-105680000D02*
X148910000Y-105680000D01*
X145410000Y-106000000D02*
X145490000Y-105680000D01*
X145490000Y-106320000D02*
X145410000Y-106000000D01*
X148910000Y-106320000D02*
X145490000Y-106320000D01*
X148910000Y-106000000D02*
X148910000Y-106320000D01*
X148910000Y-107390000D02*
X148910000Y-102110000D01*
X149910000Y-102110000D02*
X149910000Y-100890000D01*
X144910000Y-102110000D02*
X149910000Y-102110000D01*
X144910000Y-100890000D02*
X144910000Y-102110000D01*
X149910000Y-107390000D02*
X149910000Y-108610000D01*
X144910000Y-107390000D02*
X149910000Y-107390000D01*
X144910000Y-108610000D02*
X144910000Y-107390000D01*
X152110000Y-102110000D02*
X149910000Y-102110000D01*
X152110000Y-100890000D02*
X152110000Y-102110000D01*
X143690000Y-100890000D02*
X152110000Y-100890000D01*
X143690000Y-108610000D02*
X143690000Y-100890000D01*
X152110000Y-108610000D02*
X143690000Y-108610000D01*
X152110000Y-107390000D02*
X152110000Y-108610000D01*
X149910000Y-107390000D02*
X152110000Y-107390000D01*
X147430000Y-73795000D02*
X146930000Y-74295000D01*
X146430000Y-73795000D02*
X147430000Y-73795000D01*
X146930000Y-74295000D02*
X146430000Y-73795000D01*
X197420000Y-82025000D02*
X200260000Y-82025000D01*
X194880000Y-82025000D02*
X195501000Y-82025000D01*
X192340000Y-82025000D02*
X192961000Y-82025000D01*
X189800000Y-82025000D02*
X190421000Y-82025000D01*
X187260000Y-82025000D02*
X187881000Y-82025000D01*
X184720000Y-82025000D02*
X185341000Y-82025000D01*
X182180000Y-82025000D02*
X182801000Y-82025000D01*
X179640000Y-82025000D02*
X180261000Y-82025000D01*
X177100000Y-82025000D02*
X177721000Y-82025000D01*
X174560000Y-82025000D02*
X175181000Y-82025000D01*
X172020000Y-82025000D02*
X172641000Y-82025000D01*
X169480000Y-82025000D02*
X170101000Y-82025000D01*
X166940000Y-82025000D02*
X167561000Y-82025000D01*
X164400000Y-82025000D02*
X165021000Y-82025000D01*
X161860000Y-82025000D02*
X162481000Y-82025000D01*
X159320000Y-82025000D02*
X159941000Y-82025000D01*
X156780000Y-82025000D02*
X157401000Y-82025000D01*
X154240000Y-82025000D02*
X154861000Y-82025000D01*
X151700000Y-82025000D02*
X152321000Y-82025000D01*
X149160000Y-82025000D02*
X149781000Y-82025000D01*
X143130000Y-82025000D02*
X147241000Y-82025000D01*
X200260000Y-74535000D02*
X143130000Y-74535000D01*
X200260000Y-96145000D02*
X200260000Y-74535000D01*
X143130000Y-96145000D02*
X200260000Y-96145000D01*
X143130000Y-74535000D02*
X143130000Y-96145000D01*
X167095900Y-104958967D02*
X167095900Y-104616433D01*
X166075900Y-104958967D02*
X166075900Y-104616433D01*
X169321267Y-103340000D02*
X168978733Y-103340000D01*
X169321267Y-104360000D02*
X168978733Y-104360000D01*
D12*
X158788195Y-101484180D02*
X158788195Y-102293704D01*
X158835814Y-102388942D01*
X158883433Y-102436561D01*
X158978671Y-102484180D01*
X159169147Y-102484180D01*
X159264385Y-102436561D01*
X159312004Y-102388942D01*
X159359623Y-102293704D01*
X159359623Y-101484180D01*
X159788195Y-101579419D02*
X159835814Y-101531800D01*
X159931052Y-101484180D01*
X160169147Y-101484180D01*
X160264385Y-101531800D01*
X160312004Y-101579419D01*
X160359623Y-101674657D01*
X160359623Y-101769895D01*
X160312004Y-101912752D01*
X159740576Y-102484180D01*
X160359623Y-102484180D01*
X162736233Y-109342180D02*
X162402900Y-108865990D01*
X162164804Y-109342180D02*
X162164804Y-108342180D01*
X162545757Y-108342180D01*
X162640995Y-108389800D01*
X162688614Y-108437419D01*
X162736233Y-108532657D01*
X162736233Y-108675514D01*
X162688614Y-108770752D01*
X162640995Y-108818371D01*
X162545757Y-108865990D01*
X162164804Y-108865990D01*
X163069566Y-108342180D02*
X163688614Y-108342180D01*
X163355280Y-108723133D01*
X163498138Y-108723133D01*
X163593376Y-108770752D01*
X163640995Y-108818371D01*
X163688614Y-108913609D01*
X163688614Y-109151704D01*
X163640995Y-109246942D01*
X163593376Y-109294561D01*
X163498138Y-109342180D01*
X163212423Y-109342180D01*
X163117185Y-109294561D01*
X163069566Y-109246942D01*
X156195733Y-100541080D02*
X155862400Y-100064890D01*
X155624304Y-100541080D02*
X155624304Y-99541080D01*
X156005257Y-99541080D01*
X156100495Y-99588700D01*
X156148114Y-99636319D01*
X156195733Y-99731557D01*
X156195733Y-99874414D01*
X156148114Y-99969652D01*
X156100495Y-100017271D01*
X156005257Y-100064890D01*
X155624304Y-100064890D01*
X156576685Y-99636319D02*
X156624304Y-99588700D01*
X156719542Y-99541080D01*
X156957638Y-99541080D01*
X157052876Y-99588700D01*
X157100495Y-99636319D01*
X157148114Y-99731557D01*
X157148114Y-99826795D01*
X157100495Y-99969652D01*
X156529066Y-100541080D01*
X157148114Y-100541080D01*
X164234833Y-100515680D02*
X163901500Y-100039490D01*
X163663404Y-100515680D02*
X163663404Y-99515680D01*
X164044357Y-99515680D01*
X164139595Y-99563300D01*
X164187214Y-99610919D01*
X164234833Y-99706157D01*
X164234833Y-99849014D01*
X164187214Y-99944252D01*
X164139595Y-99991871D01*
X164044357Y-100039490D01*
X163663404Y-100039490D01*
X165187214Y-100515680D02*
X164615785Y-100515680D01*
X164901500Y-100515680D02*
X164901500Y-99515680D01*
X164806261Y-99658538D01*
X164711023Y-99753776D01*
X164615785Y-99801395D01*
X158189633Y-106140542D02*
X158142014Y-106188161D01*
X157999157Y-106235780D01*
X157903919Y-106235780D01*
X157761061Y-106188161D01*
X157665823Y-106092923D01*
X157618204Y-105997685D01*
X157570585Y-105807209D01*
X157570585Y-105664352D01*
X157618204Y-105473876D01*
X157665823Y-105378638D01*
X157761061Y-105283400D01*
X157903919Y-105235780D01*
X157999157Y-105235780D01*
X158142014Y-105283400D01*
X158189633Y-105331019D01*
X159046776Y-105235780D02*
X158856300Y-105235780D01*
X158761061Y-105283400D01*
X158713442Y-105331019D01*
X158618204Y-105473876D01*
X158570585Y-105664352D01*
X158570585Y-106045304D01*
X158618204Y-106140542D01*
X158665823Y-106188161D01*
X158761061Y-106235780D01*
X158951538Y-106235780D01*
X159046776Y-106188161D01*
X159094395Y-106140542D01*
X159142014Y-106045304D01*
X159142014Y-105807209D01*
X159094395Y-105711971D01*
X159046776Y-105664352D01*
X158951538Y-105616733D01*
X158761061Y-105616733D01*
X158665823Y-105664352D01*
X158618204Y-105711971D01*
X158570585Y-105807209D01*
X155347942Y-100941166D02*
X155395561Y-100988785D01*
X155443180Y-101131642D01*
X155443180Y-101226880D01*
X155395561Y-101369738D01*
X155300323Y-101464976D01*
X155205085Y-101512595D01*
X155014609Y-101560214D01*
X154871752Y-101560214D01*
X154681276Y-101512595D01*
X154586038Y-101464976D01*
X154490800Y-101369738D01*
X154443180Y-101226880D01*
X154443180Y-101131642D01*
X154490800Y-100988785D01*
X154538419Y-100941166D01*
X154443180Y-100036404D02*
X154443180Y-100512595D01*
X154919371Y-100560214D01*
X154871752Y-100512595D01*
X154824133Y-100417357D01*
X154824133Y-100179261D01*
X154871752Y-100084023D01*
X154919371Y-100036404D01*
X155014609Y-99988785D01*
X155252704Y-99988785D01*
X155347942Y-100036404D01*
X155395561Y-100084023D01*
X155443180Y-100179261D01*
X155443180Y-100417357D01*
X155395561Y-100512595D01*
X155347942Y-100560214D01*
X165375842Y-104179666D02*
X165423461Y-104227285D01*
X165471080Y-104370142D01*
X165471080Y-104465380D01*
X165423461Y-104608238D01*
X165328223Y-104703476D01*
X165232985Y-104751095D01*
X165042509Y-104798714D01*
X164899652Y-104798714D01*
X164709176Y-104751095D01*
X164613938Y-104703476D01*
X164518700Y-104608238D01*
X164471080Y-104465380D01*
X164471080Y-104370142D01*
X164518700Y-104227285D01*
X164566319Y-104179666D01*
X164804414Y-103322523D02*
X165471080Y-103322523D01*
X164423461Y-103560619D02*
X165137747Y-103798714D01*
X165137747Y-103179666D01*
X180200466Y-111161580D02*
X180200466Y-111875866D01*
X180152847Y-112018723D01*
X180057609Y-112113961D01*
X179914752Y-112161580D01*
X179819514Y-112161580D01*
X180581419Y-111161580D02*
X181200466Y-111161580D01*
X180867133Y-111542533D01*
X181009990Y-111542533D01*
X181105228Y-111590152D01*
X181152847Y-111637771D01*
X181200466Y-111733009D01*
X181200466Y-111971104D01*
X181152847Y-112066342D01*
X181105228Y-112113961D01*
X181009990Y-112161580D01*
X180724276Y-112161580D01*
X180629038Y-112113961D01*
X180581419Y-112066342D01*
X153715642Y-107538566D02*
X153763261Y-107586185D01*
X153810880Y-107729042D01*
X153810880Y-107824280D01*
X153763261Y-107967138D01*
X153668023Y-108062376D01*
X153572785Y-108109995D01*
X153382309Y-108157614D01*
X153239452Y-108157614D01*
X153048976Y-108109995D01*
X152953738Y-108062376D01*
X152858500Y-107967138D01*
X152810880Y-107824280D01*
X152810880Y-107729042D01*
X152858500Y-107586185D01*
X152906119Y-107538566D01*
X152810880Y-107205233D02*
X152810880Y-106586185D01*
X153191833Y-106919519D01*
X153191833Y-106776661D01*
X153239452Y-106681423D01*
X153287071Y-106633804D01*
X153382309Y-106586185D01*
X153620404Y-106586185D01*
X153715642Y-106633804D01*
X153763261Y-106681423D01*
X153810880Y-106776661D01*
X153810880Y-107062376D01*
X153763261Y-107157614D01*
X153715642Y-107205233D01*
X171716795Y-103046280D02*
X171716795Y-103855804D01*
X171764414Y-103951042D01*
X171812033Y-103998661D01*
X171907271Y-104046280D01*
X172097747Y-104046280D01*
X172192985Y-103998661D01*
X172240604Y-103951042D01*
X172288223Y-103855804D01*
X172288223Y-103046280D01*
X173288223Y-104046280D02*
X172716795Y-104046280D01*
X173002509Y-104046280D02*
X173002509Y-103046280D01*
X172907271Y-103189138D01*
X172812033Y-103284376D01*
X172716795Y-103331995D01*
X147189866Y-109370880D02*
X147189866Y-110085166D01*
X147142247Y-110228023D01*
X147047009Y-110323261D01*
X146904152Y-110370880D01*
X146808914Y-110370880D01*
X147618438Y-109466119D02*
X147666057Y-109418500D01*
X147761295Y-109370880D01*
X147999390Y-109370880D01*
X148094628Y-109418500D01*
X148142247Y-109466119D01*
X148189866Y-109561357D01*
X148189866Y-109656595D01*
X148142247Y-109799452D01*
X147570819Y-110370880D01*
X148189866Y-110370880D01*
X171361666Y-72737380D02*
X171361666Y-73451666D01*
X171314047Y-73594523D01*
X171218809Y-73689761D01*
X171075952Y-73737380D01*
X170980714Y-73737380D01*
X172361666Y-73737380D02*
X171790238Y-73737380D01*
X172075952Y-73737380D02*
X172075952Y-72737380D01*
X171980714Y-72880238D01*
X171885476Y-72975476D01*
X171790238Y-73023095D01*
X167070042Y-107595966D02*
X167117661Y-107643585D01*
X167165280Y-107786442D01*
X167165280Y-107881680D01*
X167117661Y-108024538D01*
X167022423Y-108119776D01*
X166927185Y-108167395D01*
X166736709Y-108215014D01*
X166593852Y-108215014D01*
X166403376Y-108167395D01*
X166308138Y-108119776D01*
X166212900Y-108024538D01*
X166165280Y-107881680D01*
X166165280Y-107786442D01*
X166212900Y-107643585D01*
X166260519Y-107595966D01*
X166260519Y-107215014D02*
X166212900Y-107167395D01*
X166165280Y-107072157D01*
X166165280Y-106834061D01*
X166212900Y-106738823D01*
X166260519Y-106691204D01*
X166355757Y-106643585D01*
X166450995Y-106643585D01*
X166593852Y-106691204D01*
X167165280Y-107262633D01*
X167165280Y-106643585D01*
X169010033Y-105729042D02*
X168962414Y-105776661D01*
X168819557Y-105824280D01*
X168724319Y-105824280D01*
X168581461Y-105776661D01*
X168486223Y-105681423D01*
X168438604Y-105586185D01*
X168390985Y-105395709D01*
X168390985Y-105252852D01*
X168438604Y-105062376D01*
X168486223Y-104967138D01*
X168581461Y-104871900D01*
X168724319Y-104824280D01*
X168819557Y-104824280D01*
X168962414Y-104871900D01*
X169010033Y-104919519D01*
X169962414Y-105824280D02*
X169390985Y-105824280D01*
X169676700Y-105824280D02*
X169676700Y-104824280D01*
X169581461Y-104967138D01*
X169486223Y-105062376D01*
X169390985Y-105109995D01*
M02*
