G04 #@! TF.GenerationSoftware,KiCad,Pcbnew,(5.1.5)-3*
G04 #@! TF.CreationDate,2020-05-22T13:07:01-04:00*
G04 #@! TF.ProjectId,uBit_carrier,75426974-5f63-4617-9272-6965722e6b69,rev?*
G04 #@! TF.SameCoordinates,Original*
G04 #@! TF.FileFunction,Legend,Top*
G04 #@! TF.FilePolarity,Positive*
%FSLAX46Y46*%
G04 Gerber Fmt 4.6, Leading zero omitted, Abs format (unit mm)*
G04 Created by KiCad (PCBNEW (5.1.5)-3) date 2020-05-22 13:07:01*
%MOMM*%
%LPD*%
G04 APERTURE LIST*
%ADD10C,0.120000*%
%ADD11C,0.152400*%
%ADD12C,0.150000*%
G04 APERTURE END LIST*
D10*
X157970722Y-108342500D02*
X158487878Y-108342500D01*
X157970722Y-106922500D02*
X158487878Y-106922500D01*
X154442700Y-103202521D02*
X154442700Y-103528079D01*
X155462700Y-103202521D02*
X155462700Y-103528079D01*
X163005700Y-103665522D02*
X163005700Y-104182678D01*
X164425700Y-103665522D02*
X164425700Y-104182678D01*
X154290300Y-107317321D02*
X154290300Y-107642879D01*
X155310300Y-107317321D02*
X155310300Y-107642879D01*
X167095900Y-104950479D02*
X167095900Y-104624921D01*
X166075900Y-104950479D02*
X166075900Y-104624921D01*
X169312779Y-103340000D02*
X168987221Y-103340000D01*
X169312779Y-104360000D02*
X168987221Y-104360000D01*
D11*
X157835600Y-106197400D02*
X161086800Y-106197400D01*
X161086800Y-102946200D02*
X157835600Y-102946200D01*
D10*
X162689321Y-107964700D02*
X163014879Y-107964700D01*
X162689321Y-106944700D02*
X163014879Y-106944700D01*
X158976279Y-99515200D02*
X158650721Y-99515200D01*
X158976279Y-100535200D02*
X158650721Y-100535200D01*
X161762221Y-100535200D02*
X162087779Y-100535200D01*
X161762221Y-99515200D02*
X162087779Y-99515200D01*
X182715000Y-100125000D02*
X182715000Y-98205000D01*
X182715000Y-98205000D02*
X196725000Y-98205000D01*
X182715000Y-111725000D02*
X182715000Y-112175000D01*
X182715000Y-112175000D02*
X186325000Y-112175000D01*
X198985000Y-99885000D02*
X198985000Y-102195000D01*
X198985000Y-111145000D02*
X198985000Y-109285000D01*
X198985000Y-111145000D02*
X198785000Y-111345000D01*
X188025000Y-112175000D02*
X192725000Y-112175000D01*
X194025000Y-112175000D02*
X195825000Y-112175000D01*
X198635000Y-109075000D02*
X198635000Y-102705000D01*
X198635000Y-109075000D02*
X198785000Y-109075000D01*
X198985000Y-109285000D02*
X198785000Y-109075000D01*
X198985000Y-99885000D02*
X198785000Y-99685000D01*
X198785000Y-99685000D02*
X198785000Y-99425000D01*
X198985000Y-102195000D02*
X198635000Y-102705000D01*
X174925000Y-102365000D02*
X176600000Y-102365000D01*
X174925000Y-102625000D02*
X174925000Y-102365000D01*
X172200000Y-102625000D02*
X174925000Y-102625000D01*
X169475000Y-102625000D02*
X169475000Y-102365000D01*
X172200000Y-102625000D02*
X169475000Y-102625000D01*
X174925000Y-97175000D02*
X174925000Y-97435000D01*
X172200000Y-97175000D02*
X174925000Y-97175000D01*
X169475000Y-97175000D02*
X169475000Y-97435000D01*
X172200000Y-97175000D02*
X169475000Y-97175000D01*
X152600000Y-105700000D02*
X152000000Y-106000000D01*
X152600000Y-106300000D02*
X152600000Y-105700000D01*
X152000000Y-106000000D02*
X152600000Y-106300000D01*
X148910000Y-103180000D02*
X148910000Y-103500000D01*
X145490000Y-103180000D02*
X148910000Y-103180000D01*
X145410000Y-103500000D02*
X145490000Y-103180000D01*
X145490000Y-103820000D02*
X145410000Y-103500000D01*
X148910000Y-103820000D02*
X145490000Y-103820000D01*
X148910000Y-103500000D02*
X148910000Y-103820000D01*
X149910000Y-104830000D02*
X149910000Y-104670000D01*
X148910000Y-105680000D02*
X148910000Y-106000000D01*
X145490000Y-105680000D02*
X148910000Y-105680000D01*
X145410000Y-106000000D02*
X145490000Y-105680000D01*
X145490000Y-106320000D02*
X145410000Y-106000000D01*
X148910000Y-106320000D02*
X145490000Y-106320000D01*
X148910000Y-106000000D02*
X148910000Y-106320000D01*
X148910000Y-107390000D02*
X148910000Y-102110000D01*
X149910000Y-102110000D02*
X149910000Y-100890000D01*
X144910000Y-102110000D02*
X149910000Y-102110000D01*
X144910000Y-100890000D02*
X144910000Y-102110000D01*
X149910000Y-107390000D02*
X149910000Y-108610000D01*
X144910000Y-107390000D02*
X149910000Y-107390000D01*
X144910000Y-108610000D02*
X144910000Y-107390000D01*
X152110000Y-102110000D02*
X149910000Y-102110000D01*
X152110000Y-100890000D02*
X152110000Y-102110000D01*
X143690000Y-100890000D02*
X152110000Y-100890000D01*
X143690000Y-108610000D02*
X143690000Y-100890000D01*
X152110000Y-108610000D02*
X143690000Y-108610000D01*
X152110000Y-107390000D02*
X152110000Y-108610000D01*
X149910000Y-107390000D02*
X152110000Y-107390000D01*
X147430000Y-73795000D02*
X146930000Y-74295000D01*
X146430000Y-73795000D02*
X147430000Y-73795000D01*
X146930000Y-74295000D02*
X146430000Y-73795000D01*
X197420000Y-82025000D02*
X200260000Y-82025000D01*
X194880000Y-82025000D02*
X195501000Y-82025000D01*
X192340000Y-82025000D02*
X192961000Y-82025000D01*
X189800000Y-82025000D02*
X190421000Y-82025000D01*
X187260000Y-82025000D02*
X187881000Y-82025000D01*
X184720000Y-82025000D02*
X185341000Y-82025000D01*
X182180000Y-82025000D02*
X182801000Y-82025000D01*
X179640000Y-82025000D02*
X180261000Y-82025000D01*
X177100000Y-82025000D02*
X177721000Y-82025000D01*
X174560000Y-82025000D02*
X175181000Y-82025000D01*
X172020000Y-82025000D02*
X172641000Y-82025000D01*
X169480000Y-82025000D02*
X170101000Y-82025000D01*
X166940000Y-82025000D02*
X167561000Y-82025000D01*
X164400000Y-82025000D02*
X165021000Y-82025000D01*
X161860000Y-82025000D02*
X162481000Y-82025000D01*
X159320000Y-82025000D02*
X159941000Y-82025000D01*
X156780000Y-82025000D02*
X157401000Y-82025000D01*
X154240000Y-82025000D02*
X154861000Y-82025000D01*
X151700000Y-82025000D02*
X152321000Y-82025000D01*
X149160000Y-82025000D02*
X149781000Y-82025000D01*
X143130000Y-82025000D02*
X147241000Y-82025000D01*
X200260000Y-74535000D02*
X143130000Y-74535000D01*
X200260000Y-96145000D02*
X200260000Y-74535000D01*
X143130000Y-96145000D02*
X200260000Y-96145000D01*
X143130000Y-74535000D02*
X143130000Y-96145000D01*
D12*
X158062633Y-106339642D02*
X158015014Y-106387261D01*
X157872157Y-106434880D01*
X157776919Y-106434880D01*
X157634061Y-106387261D01*
X157538823Y-106292023D01*
X157491204Y-106196785D01*
X157443585Y-106006309D01*
X157443585Y-105863452D01*
X157491204Y-105672976D01*
X157538823Y-105577738D01*
X157634061Y-105482500D01*
X157776919Y-105434880D01*
X157872157Y-105434880D01*
X158015014Y-105482500D01*
X158062633Y-105530119D01*
X158919776Y-105434880D02*
X158729300Y-105434880D01*
X158634061Y-105482500D01*
X158586442Y-105530119D01*
X158491204Y-105672976D01*
X158443585Y-105863452D01*
X158443585Y-106244404D01*
X158491204Y-106339642D01*
X158538823Y-106387261D01*
X158634061Y-106434880D01*
X158824538Y-106434880D01*
X158919776Y-106387261D01*
X158967395Y-106339642D01*
X159015014Y-106244404D01*
X159015014Y-106006309D01*
X158967395Y-105911071D01*
X158919776Y-105863452D01*
X158824538Y-105815833D01*
X158634061Y-105815833D01*
X158538823Y-105863452D01*
X158491204Y-105911071D01*
X158443585Y-106006309D01*
X156739842Y-103531966D02*
X156787461Y-103579585D01*
X156835080Y-103722442D01*
X156835080Y-103817680D01*
X156787461Y-103960538D01*
X156692223Y-104055776D01*
X156596985Y-104103395D01*
X156406509Y-104151014D01*
X156263652Y-104151014D01*
X156073176Y-104103395D01*
X155977938Y-104055776D01*
X155882700Y-103960538D01*
X155835080Y-103817680D01*
X155835080Y-103722442D01*
X155882700Y-103579585D01*
X155930319Y-103531966D01*
X155835080Y-102627204D02*
X155835080Y-103103395D01*
X156311271Y-103151014D01*
X156263652Y-103103395D01*
X156216033Y-103008157D01*
X156216033Y-102770061D01*
X156263652Y-102674823D01*
X156311271Y-102627204D01*
X156406509Y-102579585D01*
X156644604Y-102579585D01*
X156739842Y-102627204D01*
X156787461Y-102674823D01*
X156835080Y-102770061D01*
X156835080Y-103008157D01*
X156787461Y-103103395D01*
X156739842Y-103151014D01*
X163523633Y-101957142D02*
X163476014Y-102004761D01*
X163333157Y-102052380D01*
X163237919Y-102052380D01*
X163095061Y-102004761D01*
X162999823Y-101909523D01*
X162952204Y-101814285D01*
X162904585Y-101623809D01*
X162904585Y-101480952D01*
X162952204Y-101290476D01*
X162999823Y-101195238D01*
X163095061Y-101100000D01*
X163237919Y-101052380D01*
X163333157Y-101052380D01*
X163476014Y-101100000D01*
X163523633Y-101147619D01*
X164380776Y-101385714D02*
X164380776Y-102052380D01*
X164142680Y-101004761D02*
X163904585Y-101719047D01*
X164523633Y-101719047D01*
X153773142Y-107595966D02*
X153820761Y-107643585D01*
X153868380Y-107786442D01*
X153868380Y-107881680D01*
X153820761Y-108024538D01*
X153725523Y-108119776D01*
X153630285Y-108167395D01*
X153439809Y-108215014D01*
X153296952Y-108215014D01*
X153106476Y-108167395D01*
X153011238Y-108119776D01*
X152916000Y-108024538D01*
X152868380Y-107881680D01*
X152868380Y-107786442D01*
X152916000Y-107643585D01*
X152963619Y-107595966D01*
X152868380Y-107262633D02*
X152868380Y-106643585D01*
X153249333Y-106976919D01*
X153249333Y-106834061D01*
X153296952Y-106738823D01*
X153344571Y-106691204D01*
X153439809Y-106643585D01*
X153677904Y-106643585D01*
X153773142Y-106691204D01*
X153820761Y-106738823D01*
X153868380Y-106834061D01*
X153868380Y-107119776D01*
X153820761Y-107215014D01*
X153773142Y-107262633D01*
X166993842Y-102554066D02*
X167041461Y-102601685D01*
X167089080Y-102744542D01*
X167089080Y-102839780D01*
X167041461Y-102982638D01*
X166946223Y-103077876D01*
X166850985Y-103125495D01*
X166660509Y-103173114D01*
X166517652Y-103173114D01*
X166327176Y-103125495D01*
X166231938Y-103077876D01*
X166136700Y-102982638D01*
X166089080Y-102839780D01*
X166089080Y-102744542D01*
X166136700Y-102601685D01*
X166184319Y-102554066D01*
X166184319Y-102173114D02*
X166136700Y-102125495D01*
X166089080Y-102030257D01*
X166089080Y-101792161D01*
X166136700Y-101696923D01*
X166184319Y-101649304D01*
X166279557Y-101601685D01*
X166374795Y-101601685D01*
X166517652Y-101649304D01*
X167089080Y-102220733D01*
X167089080Y-101601685D01*
X168983333Y-105637142D02*
X168935714Y-105684761D01*
X168792857Y-105732380D01*
X168697619Y-105732380D01*
X168554761Y-105684761D01*
X168459523Y-105589523D01*
X168411904Y-105494285D01*
X168364285Y-105303809D01*
X168364285Y-105160952D01*
X168411904Y-104970476D01*
X168459523Y-104875238D01*
X168554761Y-104780000D01*
X168697619Y-104732380D01*
X168792857Y-104732380D01*
X168935714Y-104780000D01*
X168983333Y-104827619D01*
X169935714Y-105732380D02*
X169364285Y-105732380D01*
X169650000Y-105732380D02*
X169650000Y-104732380D01*
X169554761Y-104875238D01*
X169459523Y-104970476D01*
X169364285Y-105018095D01*
X158788195Y-101484180D02*
X158788195Y-102293704D01*
X158835814Y-102388942D01*
X158883433Y-102436561D01*
X158978671Y-102484180D01*
X159169147Y-102484180D01*
X159264385Y-102436561D01*
X159312004Y-102388942D01*
X159359623Y-102293704D01*
X159359623Y-101484180D01*
X159788195Y-101579419D02*
X159835814Y-101531800D01*
X159931052Y-101484180D01*
X160169147Y-101484180D01*
X160264385Y-101531800D01*
X160312004Y-101579419D01*
X160359623Y-101674657D01*
X160359623Y-101769895D01*
X160312004Y-101912752D01*
X159740576Y-102484180D01*
X160359623Y-102484180D01*
X162736233Y-109342180D02*
X162402900Y-108865990D01*
X162164804Y-109342180D02*
X162164804Y-108342180D01*
X162545757Y-108342180D01*
X162640995Y-108389800D01*
X162688614Y-108437419D01*
X162736233Y-108532657D01*
X162736233Y-108675514D01*
X162688614Y-108770752D01*
X162640995Y-108818371D01*
X162545757Y-108865990D01*
X162164804Y-108865990D01*
X163069566Y-108342180D02*
X163688614Y-108342180D01*
X163355280Y-108723133D01*
X163498138Y-108723133D01*
X163593376Y-108770752D01*
X163640995Y-108818371D01*
X163688614Y-108913609D01*
X163688614Y-109151704D01*
X163640995Y-109246942D01*
X163593376Y-109294561D01*
X163498138Y-109342180D01*
X163212423Y-109342180D01*
X163117185Y-109294561D01*
X163069566Y-109246942D01*
X156195733Y-100541080D02*
X155862400Y-100064890D01*
X155624304Y-100541080D02*
X155624304Y-99541080D01*
X156005257Y-99541080D01*
X156100495Y-99588700D01*
X156148114Y-99636319D01*
X156195733Y-99731557D01*
X156195733Y-99874414D01*
X156148114Y-99969652D01*
X156100495Y-100017271D01*
X156005257Y-100064890D01*
X155624304Y-100064890D01*
X156576685Y-99636319D02*
X156624304Y-99588700D01*
X156719542Y-99541080D01*
X156957638Y-99541080D01*
X157052876Y-99588700D01*
X157100495Y-99636319D01*
X157148114Y-99731557D01*
X157148114Y-99826795D01*
X157100495Y-99969652D01*
X156529066Y-100541080D01*
X157148114Y-100541080D01*
X164234833Y-100515680D02*
X163901500Y-100039490D01*
X163663404Y-100515680D02*
X163663404Y-99515680D01*
X164044357Y-99515680D01*
X164139595Y-99563300D01*
X164187214Y-99610919D01*
X164234833Y-99706157D01*
X164234833Y-99849014D01*
X164187214Y-99944252D01*
X164139595Y-99991871D01*
X164044357Y-100039490D01*
X163663404Y-100039490D01*
X165187214Y-100515680D02*
X164615785Y-100515680D01*
X164901500Y-100515680D02*
X164901500Y-99515680D01*
X164806261Y-99658538D01*
X164711023Y-99753776D01*
X164615785Y-99801395D01*
X180200466Y-111161580D02*
X180200466Y-111875866D01*
X180152847Y-112018723D01*
X180057609Y-112113961D01*
X179914752Y-112161580D01*
X179819514Y-112161580D01*
X180581419Y-111161580D02*
X181200466Y-111161580D01*
X180867133Y-111542533D01*
X181009990Y-111542533D01*
X181105228Y-111590152D01*
X181152847Y-111637771D01*
X181200466Y-111733009D01*
X181200466Y-111971104D01*
X181152847Y-112066342D01*
X181105228Y-112113961D01*
X181009990Y-112161580D01*
X180724276Y-112161580D01*
X180629038Y-112113961D01*
X180581419Y-112066342D01*
X171716795Y-103046280D02*
X171716795Y-103855804D01*
X171764414Y-103951042D01*
X171812033Y-103998661D01*
X171907271Y-104046280D01*
X172097747Y-104046280D01*
X172192985Y-103998661D01*
X172240604Y-103951042D01*
X172288223Y-103855804D01*
X172288223Y-103046280D01*
X173288223Y-104046280D02*
X172716795Y-104046280D01*
X173002509Y-104046280D02*
X173002509Y-103046280D01*
X172907271Y-103189138D01*
X172812033Y-103284376D01*
X172716795Y-103331995D01*
X147189866Y-109370880D02*
X147189866Y-110085166D01*
X147142247Y-110228023D01*
X147047009Y-110323261D01*
X146904152Y-110370880D01*
X146808914Y-110370880D01*
X147618438Y-109466119D02*
X147666057Y-109418500D01*
X147761295Y-109370880D01*
X147999390Y-109370880D01*
X148094628Y-109418500D01*
X148142247Y-109466119D01*
X148189866Y-109561357D01*
X148189866Y-109656595D01*
X148142247Y-109799452D01*
X147570819Y-110370880D01*
X148189866Y-110370880D01*
X171361666Y-72737380D02*
X171361666Y-73451666D01*
X171314047Y-73594523D01*
X171218809Y-73689761D01*
X171075952Y-73737380D01*
X170980714Y-73737380D01*
X172361666Y-73737380D02*
X171790238Y-73737380D01*
X172075952Y-73737380D02*
X172075952Y-72737380D01*
X171980714Y-72880238D01*
X171885476Y-72975476D01*
X171790238Y-73023095D01*
M02*
