G04 #@! TF.GenerationSoftware,KiCad,Pcbnew,(5.1.5)-3*
G04 #@! TF.CreationDate,2020-05-22T11:52:53-04:00*
G04 #@! TF.ProjectId,uBit_carrier,75426974-5f63-4617-9272-6965722e6b69,rev?*
G04 #@! TF.SameCoordinates,Original*
G04 #@! TF.FileFunction,Copper,L2,Bot*
G04 #@! TF.FilePolarity,Positive*
%FSLAX46Y46*%
G04 Gerber Fmt 4.6, Leading zero omitted, Abs format (unit mm)*
G04 Created by KiCad (PCBNEW (5.1.5)-3) date 2020-05-22 11:52:53*
%MOMM*%
%LPD*%
G04 APERTURE LIST*
%ADD10O,2.000000X1.700000*%
%ADD11C,0.100000*%
%ADD12C,1.500000*%
%ADD13R,1.500000X1.500000*%
%ADD14C,0.800000*%
%ADD15C,0.250000*%
%ADD16C,0.254000*%
G04 APERTURE END LIST*
D10*
X150500000Y-103500000D03*
G04 #@! TA.AperFunction,ComponentPad*
D11*
G36*
X151274504Y-105151204D02*
G01*
X151298773Y-105154804D01*
X151322571Y-105160765D01*
X151345671Y-105169030D01*
X151367849Y-105179520D01*
X151388893Y-105192133D01*
X151408598Y-105206747D01*
X151426777Y-105223223D01*
X151443253Y-105241402D01*
X151457867Y-105261107D01*
X151470480Y-105282151D01*
X151480970Y-105304329D01*
X151489235Y-105327429D01*
X151495196Y-105351227D01*
X151498796Y-105375496D01*
X151500000Y-105400000D01*
X151500000Y-106600000D01*
X151498796Y-106624504D01*
X151495196Y-106648773D01*
X151489235Y-106672571D01*
X151480970Y-106695671D01*
X151470480Y-106717849D01*
X151457867Y-106738893D01*
X151443253Y-106758598D01*
X151426777Y-106776777D01*
X151408598Y-106793253D01*
X151388893Y-106807867D01*
X151367849Y-106820480D01*
X151345671Y-106830970D01*
X151322571Y-106839235D01*
X151298773Y-106845196D01*
X151274504Y-106848796D01*
X151250000Y-106850000D01*
X149750000Y-106850000D01*
X149725496Y-106848796D01*
X149701227Y-106845196D01*
X149677429Y-106839235D01*
X149654329Y-106830970D01*
X149632151Y-106820480D01*
X149611107Y-106807867D01*
X149591402Y-106793253D01*
X149573223Y-106776777D01*
X149556747Y-106758598D01*
X149542133Y-106738893D01*
X149529520Y-106717849D01*
X149519030Y-106695671D01*
X149510765Y-106672571D01*
X149504804Y-106648773D01*
X149501204Y-106624504D01*
X149500000Y-106600000D01*
X149500000Y-105400000D01*
X149501204Y-105375496D01*
X149504804Y-105351227D01*
X149510765Y-105327429D01*
X149519030Y-105304329D01*
X149529520Y-105282151D01*
X149542133Y-105261107D01*
X149556747Y-105241402D01*
X149573223Y-105223223D01*
X149591402Y-105206747D01*
X149611107Y-105192133D01*
X149632151Y-105179520D01*
X149654329Y-105169030D01*
X149677429Y-105160765D01*
X149701227Y-105154804D01*
X149725496Y-105151204D01*
X149750000Y-105150000D01*
X151250000Y-105150000D01*
X151274504Y-105151204D01*
G37*
G04 #@! TD.AperFunction*
D12*
X196460000Y-81525000D03*
X196460000Y-77725000D03*
X195190000Y-79625000D03*
X195190000Y-75825000D03*
X193920000Y-81525000D03*
X193920000Y-77725000D03*
X192650000Y-79625000D03*
X192650000Y-75825000D03*
X191380000Y-81525000D03*
X191380000Y-77725000D03*
X190110000Y-79625000D03*
X190110000Y-75825000D03*
X188840000Y-81525000D03*
X188840000Y-77725000D03*
X187570000Y-79625000D03*
X187570000Y-75825000D03*
X186300000Y-81525000D03*
X186300000Y-77725000D03*
X185030000Y-79625000D03*
X185030000Y-75825000D03*
X183760000Y-81525000D03*
X183760000Y-77725000D03*
X182490000Y-79625000D03*
X182490000Y-75825000D03*
X181220000Y-81525000D03*
X181220000Y-77725000D03*
X179950000Y-79625000D03*
X179950000Y-75825000D03*
X178680000Y-81525000D03*
X178680000Y-77725000D03*
X177410000Y-79625000D03*
X177410000Y-75825000D03*
X176140000Y-81525000D03*
X176140000Y-77725000D03*
X174870000Y-79625000D03*
X174870000Y-75825000D03*
X173600000Y-81525000D03*
X173600000Y-77725000D03*
X172330000Y-79625000D03*
X172330000Y-75825000D03*
X171060000Y-81525000D03*
X171060000Y-77725000D03*
X169790000Y-79625000D03*
X169790000Y-75825000D03*
X168520000Y-81525000D03*
X168520000Y-77725000D03*
X167250000Y-79625000D03*
X167250000Y-75825000D03*
X165980000Y-81525000D03*
X165980000Y-77725000D03*
X164710000Y-79625000D03*
X164710000Y-75825000D03*
X163440000Y-81525000D03*
X163440000Y-77725000D03*
X162170000Y-79625000D03*
X162170000Y-75825000D03*
X160900000Y-81525000D03*
X160900000Y-77725000D03*
X159630000Y-79625000D03*
X159630000Y-75825000D03*
X158360000Y-81525000D03*
X158360000Y-77725000D03*
X157090000Y-79625000D03*
X157090000Y-75825000D03*
X155820000Y-81525000D03*
X155820000Y-77725000D03*
X154550000Y-79625000D03*
X154550000Y-75825000D03*
X153280000Y-81525000D03*
X153280000Y-77725000D03*
X152010000Y-79625000D03*
X152010000Y-75825000D03*
X150740000Y-81525000D03*
X150740000Y-77725000D03*
X149470000Y-79625000D03*
X149470000Y-75825000D03*
X148200000Y-81525000D03*
X148200000Y-77725000D03*
X146930000Y-79625000D03*
D13*
X146930000Y-75825000D03*
D14*
X173600000Y-99000000D03*
X161518600Y-102209600D03*
X173240700Y-104444800D03*
X176364900Y-103390700D03*
X160604200Y-107353100D03*
X156718000Y-101295200D03*
X174752000Y-83515200D03*
X179959000Y-83299300D03*
X187591700Y-83604100D03*
X199237600Y-75692000D03*
X180822600Y-112052100D03*
X174600000Y-95300000D03*
X183337200Y-84277200D03*
X178244500Y-107619800D03*
X174244000Y-100520500D03*
X169700000Y-94973002D03*
X171792900Y-106514900D03*
X169975000Y-96735900D03*
X165785800Y-84188300D03*
X178396900Y-91351100D03*
D15*
X176000000Y-95300000D02*
X174600000Y-95300000D01*
X183337200Y-84277200D02*
X183337200Y-87962800D01*
X183337200Y-87962800D02*
X176000000Y-95300000D01*
X177844501Y-107156301D02*
X174244000Y-103555800D01*
X174244000Y-103555800D02*
X174244000Y-100520500D01*
X177844501Y-107219801D02*
X177844501Y-107156301D01*
X178244500Y-107619800D02*
X177844501Y-107219801D01*
X173678315Y-100520500D02*
X173657815Y-100500000D01*
X174244000Y-100520500D02*
X173678315Y-100520500D01*
X173657815Y-100500000D02*
X172200000Y-100500000D01*
X172200000Y-100500000D02*
X170700000Y-99000000D01*
X170700000Y-99000000D02*
X170700000Y-95973002D01*
X170700000Y-95973002D02*
X169700000Y-94973002D01*
X171792900Y-106514900D02*
X171792900Y-103352600D01*
X169989500Y-96750400D02*
X169975000Y-96735900D01*
X171792900Y-103352600D02*
X169989500Y-101549200D01*
X169989500Y-101549200D02*
X169989500Y-96750400D01*
X165785800Y-84188300D02*
X172948600Y-91351100D01*
X172948600Y-91351100D02*
X178396900Y-91351100D01*
D16*
G36*
X145554188Y-74950518D02*
G01*
X145541928Y-75075000D01*
X145545000Y-75539250D01*
X145703750Y-75698000D01*
X146803000Y-75698000D01*
X146803000Y-75678000D01*
X147057000Y-75678000D01*
X147057000Y-75698000D01*
X147077000Y-75698000D01*
X147077000Y-75952000D01*
X147057000Y-75952000D01*
X147057000Y-75972000D01*
X146803000Y-75972000D01*
X146803000Y-75952000D01*
X145703750Y-75952000D01*
X145545000Y-76110750D01*
X145541928Y-76575000D01*
X145554188Y-76699482D01*
X145590498Y-76819180D01*
X145649463Y-76929494D01*
X145728815Y-77026185D01*
X145825506Y-77105537D01*
X145935820Y-77164502D01*
X146055518Y-77200812D01*
X146180000Y-77213072D01*
X146644250Y-77210000D01*
X146802998Y-77051252D01*
X146802998Y-77210000D01*
X146911758Y-77210000D01*
X146888240Y-77260116D01*
X146822750Y-77524960D01*
X146810188Y-77797492D01*
X146851035Y-78067238D01*
X146913441Y-78240000D01*
X146793589Y-78240000D01*
X146526011Y-78293225D01*
X146273957Y-78397629D01*
X146047114Y-78549201D01*
X145854201Y-78742114D01*
X145702629Y-78968957D01*
X145598225Y-79221011D01*
X145545000Y-79488589D01*
X145545000Y-79761411D01*
X145598225Y-80028989D01*
X145702629Y-80281043D01*
X145854201Y-80507886D01*
X146047114Y-80700799D01*
X146273957Y-80852371D01*
X146526011Y-80956775D01*
X146793589Y-81010000D01*
X146914207Y-81010000D01*
X146868225Y-81121011D01*
X146815000Y-81388589D01*
X146815000Y-81661411D01*
X146868225Y-81928989D01*
X146972629Y-82181043D01*
X147124201Y-82407886D01*
X147317114Y-82600799D01*
X147543957Y-82752371D01*
X147796011Y-82856775D01*
X148063589Y-82910000D01*
X148336411Y-82910000D01*
X148603989Y-82856775D01*
X148856043Y-82752371D01*
X149082886Y-82600799D01*
X149275799Y-82407886D01*
X149427371Y-82181043D01*
X149470000Y-82078127D01*
X149512629Y-82181043D01*
X149664201Y-82407886D01*
X149857114Y-82600799D01*
X150083957Y-82752371D01*
X150336011Y-82856775D01*
X150603589Y-82910000D01*
X150876411Y-82910000D01*
X151143989Y-82856775D01*
X151396043Y-82752371D01*
X151622886Y-82600799D01*
X151815799Y-82407886D01*
X151967371Y-82181043D01*
X152010000Y-82078127D01*
X152052629Y-82181043D01*
X152204201Y-82407886D01*
X152397114Y-82600799D01*
X152623957Y-82752371D01*
X152876011Y-82856775D01*
X153143589Y-82910000D01*
X153416411Y-82910000D01*
X153683989Y-82856775D01*
X153936043Y-82752371D01*
X154162886Y-82600799D01*
X154355799Y-82407886D01*
X154507371Y-82181043D01*
X154550000Y-82078127D01*
X154592629Y-82181043D01*
X154744201Y-82407886D01*
X154937114Y-82600799D01*
X155163957Y-82752371D01*
X155416011Y-82856775D01*
X155683589Y-82910000D01*
X155956411Y-82910000D01*
X156223989Y-82856775D01*
X156476043Y-82752371D01*
X156702886Y-82600799D01*
X156895799Y-82407886D01*
X157047371Y-82181043D01*
X157090000Y-82078127D01*
X157132629Y-82181043D01*
X157284201Y-82407886D01*
X157477114Y-82600799D01*
X157703957Y-82752371D01*
X157956011Y-82856775D01*
X158223589Y-82910000D01*
X158496411Y-82910000D01*
X158763989Y-82856775D01*
X159016043Y-82752371D01*
X159242886Y-82600799D01*
X159435799Y-82407886D01*
X159587371Y-82181043D01*
X159630000Y-82078127D01*
X159672629Y-82181043D01*
X159824201Y-82407886D01*
X160017114Y-82600799D01*
X160243957Y-82752371D01*
X160496011Y-82856775D01*
X160763589Y-82910000D01*
X161036411Y-82910000D01*
X161303989Y-82856775D01*
X161556043Y-82752371D01*
X161782886Y-82600799D01*
X161975799Y-82407886D01*
X162127371Y-82181043D01*
X162170000Y-82078127D01*
X162212629Y-82181043D01*
X162364201Y-82407886D01*
X162557114Y-82600799D01*
X162783957Y-82752371D01*
X163036011Y-82856775D01*
X163303589Y-82910000D01*
X163576411Y-82910000D01*
X163843989Y-82856775D01*
X164096043Y-82752371D01*
X164322886Y-82600799D01*
X164515799Y-82407886D01*
X164667371Y-82181043D01*
X164710000Y-82078127D01*
X164752629Y-82181043D01*
X164904201Y-82407886D01*
X165097114Y-82600799D01*
X165323957Y-82752371D01*
X165576011Y-82856775D01*
X165843589Y-82910000D01*
X166116411Y-82910000D01*
X166383989Y-82856775D01*
X166636043Y-82752371D01*
X166862886Y-82600799D01*
X167055799Y-82407886D01*
X167207371Y-82181043D01*
X167250000Y-82078127D01*
X167292629Y-82181043D01*
X167444201Y-82407886D01*
X167637114Y-82600799D01*
X167863957Y-82752371D01*
X168116011Y-82856775D01*
X168383589Y-82910000D01*
X168656411Y-82910000D01*
X168923989Y-82856775D01*
X169176043Y-82752371D01*
X169402886Y-82600799D01*
X169595799Y-82407886D01*
X169747371Y-82181043D01*
X169790000Y-82078127D01*
X169832629Y-82181043D01*
X169984201Y-82407886D01*
X170177114Y-82600799D01*
X170403957Y-82752371D01*
X170656011Y-82856775D01*
X170923589Y-82910000D01*
X171196411Y-82910000D01*
X171463989Y-82856775D01*
X171716043Y-82752371D01*
X171942886Y-82600799D01*
X172135799Y-82407886D01*
X172287371Y-82181043D01*
X172330000Y-82078127D01*
X172372629Y-82181043D01*
X172524201Y-82407886D01*
X172717114Y-82600799D01*
X172943957Y-82752371D01*
X173196011Y-82856775D01*
X173463589Y-82910000D01*
X173736411Y-82910000D01*
X174003989Y-82856775D01*
X174256043Y-82752371D01*
X174482886Y-82600799D01*
X174675799Y-82407886D01*
X174827371Y-82181043D01*
X174870000Y-82078127D01*
X174912629Y-82181043D01*
X175064201Y-82407886D01*
X175257114Y-82600799D01*
X175483957Y-82752371D01*
X175736011Y-82856775D01*
X176003589Y-82910000D01*
X176276411Y-82910000D01*
X176543989Y-82856775D01*
X176796043Y-82752371D01*
X177022886Y-82600799D01*
X177215799Y-82407886D01*
X177367371Y-82181043D01*
X177410000Y-82078127D01*
X177452629Y-82181043D01*
X177604201Y-82407886D01*
X177797114Y-82600799D01*
X178023957Y-82752371D01*
X178276011Y-82856775D01*
X178543589Y-82910000D01*
X178816411Y-82910000D01*
X179083989Y-82856775D01*
X179336043Y-82752371D01*
X179562886Y-82600799D01*
X179755799Y-82407886D01*
X179907371Y-82181043D01*
X179950000Y-82078127D01*
X179992629Y-82181043D01*
X180144201Y-82407886D01*
X180337114Y-82600799D01*
X180563957Y-82752371D01*
X180816011Y-82856775D01*
X181083589Y-82910000D01*
X181356411Y-82910000D01*
X181623989Y-82856775D01*
X181876043Y-82752371D01*
X182102886Y-82600799D01*
X182295799Y-82407886D01*
X182447371Y-82181043D01*
X182490000Y-82078127D01*
X182532629Y-82181043D01*
X182684201Y-82407886D01*
X182877114Y-82600799D01*
X183103957Y-82752371D01*
X183356011Y-82856775D01*
X183623589Y-82910000D01*
X183896411Y-82910000D01*
X184163989Y-82856775D01*
X184416043Y-82752371D01*
X184642886Y-82600799D01*
X184835799Y-82407886D01*
X184987371Y-82181043D01*
X185030000Y-82078127D01*
X185072629Y-82181043D01*
X185224201Y-82407886D01*
X185417114Y-82600799D01*
X185643957Y-82752371D01*
X185896011Y-82856775D01*
X186163589Y-82910000D01*
X186436411Y-82910000D01*
X186703989Y-82856775D01*
X186956043Y-82752371D01*
X187182886Y-82600799D01*
X187375799Y-82407886D01*
X187527371Y-82181043D01*
X187570000Y-82078127D01*
X187612629Y-82181043D01*
X187764201Y-82407886D01*
X187957114Y-82600799D01*
X188183957Y-82752371D01*
X188436011Y-82856775D01*
X188703589Y-82910000D01*
X188976411Y-82910000D01*
X189243989Y-82856775D01*
X189496043Y-82752371D01*
X189722886Y-82600799D01*
X189915799Y-82407886D01*
X190067371Y-82181043D01*
X190110000Y-82078127D01*
X190152629Y-82181043D01*
X190304201Y-82407886D01*
X190497114Y-82600799D01*
X190723957Y-82752371D01*
X190976011Y-82856775D01*
X191243589Y-82910000D01*
X191516411Y-82910000D01*
X191783989Y-82856775D01*
X192036043Y-82752371D01*
X192262886Y-82600799D01*
X192455799Y-82407886D01*
X192607371Y-82181043D01*
X192650000Y-82078127D01*
X192692629Y-82181043D01*
X192844201Y-82407886D01*
X193037114Y-82600799D01*
X193263957Y-82752371D01*
X193516011Y-82856775D01*
X193783589Y-82910000D01*
X194056411Y-82910000D01*
X194323989Y-82856775D01*
X194576043Y-82752371D01*
X194802886Y-82600799D01*
X194995799Y-82407886D01*
X195147371Y-82181043D01*
X195190000Y-82078127D01*
X195232629Y-82181043D01*
X195384201Y-82407886D01*
X195577114Y-82600799D01*
X195803957Y-82752371D01*
X196056011Y-82856775D01*
X196323589Y-82910000D01*
X196596411Y-82910000D01*
X196863989Y-82856775D01*
X197116043Y-82752371D01*
X197342886Y-82600799D01*
X197535799Y-82407886D01*
X197687371Y-82181043D01*
X197791775Y-81928989D01*
X197845000Y-81661411D01*
X197845000Y-81388589D01*
X197791775Y-81121011D01*
X197687371Y-80868957D01*
X197535799Y-80642114D01*
X197342886Y-80449201D01*
X197116043Y-80297629D01*
X196863989Y-80193225D01*
X196596411Y-80140000D01*
X196475793Y-80140000D01*
X196521775Y-80028989D01*
X196575000Y-79761411D01*
X196575000Y-79488589D01*
X196521775Y-79221011D01*
X196475793Y-79110000D01*
X196596411Y-79110000D01*
X196863989Y-79056775D01*
X197116043Y-78952371D01*
X197342886Y-78800799D01*
X197535799Y-78607886D01*
X197687371Y-78381043D01*
X197791775Y-78128989D01*
X197845000Y-77861411D01*
X197845000Y-77588589D01*
X197791775Y-77321011D01*
X197687371Y-77068957D01*
X197535799Y-76842114D01*
X197342886Y-76649201D01*
X197116043Y-76497629D01*
X196863989Y-76393225D01*
X196596411Y-76340000D01*
X196475793Y-76340000D01*
X196521775Y-76228989D01*
X196575000Y-75961411D01*
X196575000Y-75688589D01*
X196521775Y-75421011D01*
X196417371Y-75168957D01*
X196265799Y-74942114D01*
X196183685Y-74860000D01*
X199940000Y-74860000D01*
X199940001Y-112840000D01*
X143460000Y-112840000D01*
X143460000Y-105400000D01*
X148861928Y-105400000D01*
X148861928Y-106600000D01*
X148878992Y-106773254D01*
X148929528Y-106939850D01*
X149011595Y-107093386D01*
X149122038Y-107227962D01*
X149256614Y-107338405D01*
X149410150Y-107420472D01*
X149576746Y-107471008D01*
X149750000Y-107488072D01*
X151250000Y-107488072D01*
X151423254Y-107471008D01*
X151589850Y-107420472D01*
X151743386Y-107338405D01*
X151877962Y-107227962D01*
X151988405Y-107093386D01*
X152070472Y-106939850D01*
X152121008Y-106773254D01*
X152138072Y-106600000D01*
X152138072Y-105400000D01*
X152121008Y-105226746D01*
X152070472Y-105060150D01*
X151988405Y-104906614D01*
X151877962Y-104772038D01*
X151743386Y-104661595D01*
X151641407Y-104607086D01*
X151641795Y-104606802D01*
X151838664Y-104392046D01*
X151989854Y-104143009D01*
X152089554Y-103869261D01*
X152091476Y-103856890D01*
X151970155Y-103627000D01*
X150627000Y-103627000D01*
X150627000Y-103647000D01*
X150373000Y-103647000D01*
X150373000Y-103627000D01*
X149029845Y-103627000D01*
X148908524Y-103856890D01*
X148910446Y-103869261D01*
X149010146Y-104143009D01*
X149161336Y-104392046D01*
X149358205Y-104606802D01*
X149358593Y-104607086D01*
X149256614Y-104661595D01*
X149122038Y-104772038D01*
X149011595Y-104906614D01*
X148929528Y-105060150D01*
X148878992Y-105226746D01*
X148861928Y-105400000D01*
X143460000Y-105400000D01*
X143460000Y-103143110D01*
X148908524Y-103143110D01*
X149029845Y-103373000D01*
X150373000Y-103373000D01*
X150373000Y-102172768D01*
X150627000Y-102172768D01*
X150627000Y-103373000D01*
X151970155Y-103373000D01*
X152091476Y-103143110D01*
X152089554Y-103130739D01*
X151989854Y-102856991D01*
X151838664Y-102607954D01*
X151641795Y-102393198D01*
X151406812Y-102220975D01*
X151142745Y-102097904D01*
X150859742Y-102028715D01*
X150627000Y-102172768D01*
X150373000Y-102172768D01*
X150140258Y-102028715D01*
X149857255Y-102097904D01*
X149593188Y-102220975D01*
X149358205Y-102393198D01*
X149161336Y-102607954D01*
X149010146Y-102856991D01*
X148910446Y-103130739D01*
X148908524Y-103143110D01*
X143460000Y-103143110D01*
X143460000Y-94871063D01*
X168665000Y-94871063D01*
X168665000Y-95074941D01*
X168704774Y-95274900D01*
X168782795Y-95463258D01*
X168896063Y-95632776D01*
X169040226Y-95776939D01*
X169209744Y-95890207D01*
X169313857Y-95933332D01*
X169171063Y-96076126D01*
X169057795Y-96245644D01*
X168979774Y-96434002D01*
X168940000Y-96633961D01*
X168940000Y-96837839D01*
X168979774Y-97037798D01*
X169057795Y-97226156D01*
X169171063Y-97395674D01*
X169229501Y-97454112D01*
X169229500Y-101511877D01*
X169225824Y-101549200D01*
X169229500Y-101586522D01*
X169229500Y-101586532D01*
X169240497Y-101698185D01*
X169283954Y-101841446D01*
X169354526Y-101973476D01*
X169394371Y-102022026D01*
X169449499Y-102089201D01*
X169478503Y-102113004D01*
X171032901Y-103667403D01*
X171032900Y-105811189D01*
X170988963Y-105855126D01*
X170875695Y-106024644D01*
X170797674Y-106213002D01*
X170757900Y-106412961D01*
X170757900Y-106616839D01*
X170797674Y-106816798D01*
X170875695Y-107005156D01*
X170988963Y-107174674D01*
X171133126Y-107318837D01*
X171302644Y-107432105D01*
X171491002Y-107510126D01*
X171690961Y-107549900D01*
X171894839Y-107549900D01*
X172094798Y-107510126D01*
X172283156Y-107432105D01*
X172452674Y-107318837D01*
X172596837Y-107174674D01*
X172710105Y-107005156D01*
X172788126Y-106816798D01*
X172827900Y-106616839D01*
X172827900Y-106412961D01*
X172788126Y-106213002D01*
X172710105Y-106024644D01*
X172596837Y-105855126D01*
X172552900Y-105811189D01*
X172552900Y-103389925D01*
X172556576Y-103352600D01*
X172552900Y-103315275D01*
X172552900Y-103315267D01*
X172541903Y-103203614D01*
X172498446Y-103060353D01*
X172427874Y-102928324D01*
X172332901Y-102812599D01*
X172303903Y-102788801D01*
X170749500Y-101234399D01*
X170749500Y-100124301D01*
X171636200Y-101011002D01*
X171659999Y-101040001D01*
X171775724Y-101134974D01*
X171907753Y-101205546D01*
X172051014Y-101249003D01*
X172162667Y-101260000D01*
X172162676Y-101260000D01*
X172199999Y-101263676D01*
X172237322Y-101260000D01*
X173484001Y-101260000D01*
X173484000Y-103518477D01*
X173480324Y-103555800D01*
X173484000Y-103593122D01*
X173484000Y-103593132D01*
X173494997Y-103704785D01*
X173538454Y-103848046D01*
X173609026Y-103980076D01*
X173615180Y-103987574D01*
X173703999Y-104095801D01*
X173733003Y-104119604D01*
X177154468Y-107541070D01*
X177209500Y-107644026D01*
X177209500Y-107721739D01*
X177249274Y-107921698D01*
X177327295Y-108110056D01*
X177440563Y-108279574D01*
X177584726Y-108423737D01*
X177754244Y-108537005D01*
X177942602Y-108615026D01*
X178142561Y-108654800D01*
X178346439Y-108654800D01*
X178546398Y-108615026D01*
X178734756Y-108537005D01*
X178904274Y-108423737D01*
X179048437Y-108279574D01*
X179161705Y-108110056D01*
X179239726Y-107921698D01*
X179279500Y-107721739D01*
X179279500Y-107517861D01*
X179239726Y-107317902D01*
X179161705Y-107129544D01*
X179048437Y-106960026D01*
X178904274Y-106815863D01*
X178734756Y-106702595D01*
X178546398Y-106624574D01*
X178348140Y-106585138D01*
X175004000Y-103240999D01*
X175004000Y-101224211D01*
X175047937Y-101180274D01*
X175161205Y-101010756D01*
X175239226Y-100822398D01*
X175279000Y-100622439D01*
X175279000Y-100418561D01*
X175239226Y-100218602D01*
X175161205Y-100030244D01*
X175047937Y-99860726D01*
X174903774Y-99716563D01*
X174734256Y-99603295D01*
X174545898Y-99525274D01*
X174345939Y-99485500D01*
X174142061Y-99485500D01*
X173942102Y-99525274D01*
X173753744Y-99603295D01*
X173584226Y-99716563D01*
X173560789Y-99740000D01*
X172514802Y-99740000D01*
X171460000Y-98685199D01*
X171460000Y-96010335D01*
X171463677Y-95973002D01*
X171449003Y-95824016D01*
X171405546Y-95680755D01*
X171334974Y-95548726D01*
X171263799Y-95461999D01*
X171240001Y-95433001D01*
X171211003Y-95409203D01*
X170735000Y-94933201D01*
X170735000Y-94871063D01*
X170695226Y-94671104D01*
X170617205Y-94482746D01*
X170503937Y-94313228D01*
X170359774Y-94169065D01*
X170190256Y-94055797D01*
X170001898Y-93977776D01*
X169801939Y-93938002D01*
X169598061Y-93938002D01*
X169398102Y-93977776D01*
X169209744Y-94055797D01*
X169040226Y-94169065D01*
X168896063Y-94313228D01*
X168782795Y-94482746D01*
X168704774Y-94671104D01*
X168665000Y-94871063D01*
X143460000Y-94871063D01*
X143460000Y-84086361D01*
X164750800Y-84086361D01*
X164750800Y-84290239D01*
X164790574Y-84490198D01*
X164868595Y-84678556D01*
X164981863Y-84848074D01*
X165126026Y-84992237D01*
X165295544Y-85105505D01*
X165483902Y-85183526D01*
X165683861Y-85223300D01*
X165745999Y-85223300D01*
X172384801Y-91862103D01*
X172408599Y-91891101D01*
X172437597Y-91914899D01*
X172524323Y-91986074D01*
X172656353Y-92056646D01*
X172799614Y-92100103D01*
X172911267Y-92111100D01*
X172911277Y-92111100D01*
X172948600Y-92114776D01*
X172985923Y-92111100D01*
X177693189Y-92111100D01*
X177737126Y-92155037D01*
X177906644Y-92268305D01*
X177942176Y-92283023D01*
X175685199Y-94540000D01*
X175303711Y-94540000D01*
X175259774Y-94496063D01*
X175090256Y-94382795D01*
X174901898Y-94304774D01*
X174701939Y-94265000D01*
X174498061Y-94265000D01*
X174298102Y-94304774D01*
X174109744Y-94382795D01*
X173940226Y-94496063D01*
X173796063Y-94640226D01*
X173682795Y-94809744D01*
X173604774Y-94998102D01*
X173565000Y-95198061D01*
X173565000Y-95401939D01*
X173604774Y-95601898D01*
X173682795Y-95790256D01*
X173796063Y-95959774D01*
X173940226Y-96103937D01*
X174109744Y-96217205D01*
X174298102Y-96295226D01*
X174498061Y-96335000D01*
X174701939Y-96335000D01*
X174901898Y-96295226D01*
X175090256Y-96217205D01*
X175259774Y-96103937D01*
X175303711Y-96060000D01*
X175962678Y-96060000D01*
X176000000Y-96063676D01*
X176037322Y-96060000D01*
X176037333Y-96060000D01*
X176148986Y-96049003D01*
X176292247Y-96005546D01*
X176424276Y-95934974D01*
X176540001Y-95840001D01*
X176563804Y-95810997D01*
X183848203Y-88526599D01*
X183877201Y-88502801D01*
X183972174Y-88387076D01*
X184042746Y-88255047D01*
X184086203Y-88111786D01*
X184097200Y-88000133D01*
X184097200Y-88000125D01*
X184100876Y-87962800D01*
X184097200Y-87925475D01*
X184097200Y-84980911D01*
X184141137Y-84936974D01*
X184254405Y-84767456D01*
X184332426Y-84579098D01*
X184372200Y-84379139D01*
X184372200Y-84175261D01*
X184332426Y-83975302D01*
X184254405Y-83786944D01*
X184141137Y-83617426D01*
X183996974Y-83473263D01*
X183827456Y-83359995D01*
X183639098Y-83281974D01*
X183439139Y-83242200D01*
X183235261Y-83242200D01*
X183035302Y-83281974D01*
X182846944Y-83359995D01*
X182677426Y-83473263D01*
X182533263Y-83617426D01*
X182419995Y-83786944D01*
X182341974Y-83975302D01*
X182302200Y-84175261D01*
X182302200Y-84379139D01*
X182341974Y-84579098D01*
X182419995Y-84767456D01*
X182533263Y-84936974D01*
X182577200Y-84980911D01*
X182577201Y-87647997D01*
X179328823Y-90896376D01*
X179314105Y-90860844D01*
X179200837Y-90691326D01*
X179056674Y-90547163D01*
X178887156Y-90433895D01*
X178698798Y-90355874D01*
X178498839Y-90316100D01*
X178294961Y-90316100D01*
X178095002Y-90355874D01*
X177906644Y-90433895D01*
X177737126Y-90547163D01*
X177693189Y-90591100D01*
X173263402Y-90591100D01*
X166820800Y-84148499D01*
X166820800Y-84086361D01*
X166781026Y-83886402D01*
X166703005Y-83698044D01*
X166589737Y-83528526D01*
X166445574Y-83384363D01*
X166276056Y-83271095D01*
X166087698Y-83193074D01*
X165887739Y-83153300D01*
X165683861Y-83153300D01*
X165483902Y-83193074D01*
X165295544Y-83271095D01*
X165126026Y-83384363D01*
X164981863Y-83528526D01*
X164868595Y-83698044D01*
X164790574Y-83886402D01*
X164750800Y-84086361D01*
X143460000Y-84086361D01*
X143460000Y-74860000D01*
X145581646Y-74860000D01*
X145554188Y-74950518D01*
G37*
X145554188Y-74950518D02*
X145541928Y-75075000D01*
X145545000Y-75539250D01*
X145703750Y-75698000D01*
X146803000Y-75698000D01*
X146803000Y-75678000D01*
X147057000Y-75678000D01*
X147057000Y-75698000D01*
X147077000Y-75698000D01*
X147077000Y-75952000D01*
X147057000Y-75952000D01*
X147057000Y-75972000D01*
X146803000Y-75972000D01*
X146803000Y-75952000D01*
X145703750Y-75952000D01*
X145545000Y-76110750D01*
X145541928Y-76575000D01*
X145554188Y-76699482D01*
X145590498Y-76819180D01*
X145649463Y-76929494D01*
X145728815Y-77026185D01*
X145825506Y-77105537D01*
X145935820Y-77164502D01*
X146055518Y-77200812D01*
X146180000Y-77213072D01*
X146644250Y-77210000D01*
X146802998Y-77051252D01*
X146802998Y-77210000D01*
X146911758Y-77210000D01*
X146888240Y-77260116D01*
X146822750Y-77524960D01*
X146810188Y-77797492D01*
X146851035Y-78067238D01*
X146913441Y-78240000D01*
X146793589Y-78240000D01*
X146526011Y-78293225D01*
X146273957Y-78397629D01*
X146047114Y-78549201D01*
X145854201Y-78742114D01*
X145702629Y-78968957D01*
X145598225Y-79221011D01*
X145545000Y-79488589D01*
X145545000Y-79761411D01*
X145598225Y-80028989D01*
X145702629Y-80281043D01*
X145854201Y-80507886D01*
X146047114Y-80700799D01*
X146273957Y-80852371D01*
X146526011Y-80956775D01*
X146793589Y-81010000D01*
X146914207Y-81010000D01*
X146868225Y-81121011D01*
X146815000Y-81388589D01*
X146815000Y-81661411D01*
X146868225Y-81928989D01*
X146972629Y-82181043D01*
X147124201Y-82407886D01*
X147317114Y-82600799D01*
X147543957Y-82752371D01*
X147796011Y-82856775D01*
X148063589Y-82910000D01*
X148336411Y-82910000D01*
X148603989Y-82856775D01*
X148856043Y-82752371D01*
X149082886Y-82600799D01*
X149275799Y-82407886D01*
X149427371Y-82181043D01*
X149470000Y-82078127D01*
X149512629Y-82181043D01*
X149664201Y-82407886D01*
X149857114Y-82600799D01*
X150083957Y-82752371D01*
X150336011Y-82856775D01*
X150603589Y-82910000D01*
X150876411Y-82910000D01*
X151143989Y-82856775D01*
X151396043Y-82752371D01*
X151622886Y-82600799D01*
X151815799Y-82407886D01*
X151967371Y-82181043D01*
X152010000Y-82078127D01*
X152052629Y-82181043D01*
X152204201Y-82407886D01*
X152397114Y-82600799D01*
X152623957Y-82752371D01*
X152876011Y-82856775D01*
X153143589Y-82910000D01*
X153416411Y-82910000D01*
X153683989Y-82856775D01*
X153936043Y-82752371D01*
X154162886Y-82600799D01*
X154355799Y-82407886D01*
X154507371Y-82181043D01*
X154550000Y-82078127D01*
X154592629Y-82181043D01*
X154744201Y-82407886D01*
X154937114Y-82600799D01*
X155163957Y-82752371D01*
X155416011Y-82856775D01*
X155683589Y-82910000D01*
X155956411Y-82910000D01*
X156223989Y-82856775D01*
X156476043Y-82752371D01*
X156702886Y-82600799D01*
X156895799Y-82407886D01*
X157047371Y-82181043D01*
X157090000Y-82078127D01*
X157132629Y-82181043D01*
X157284201Y-82407886D01*
X157477114Y-82600799D01*
X157703957Y-82752371D01*
X157956011Y-82856775D01*
X158223589Y-82910000D01*
X158496411Y-82910000D01*
X158763989Y-82856775D01*
X159016043Y-82752371D01*
X159242886Y-82600799D01*
X159435799Y-82407886D01*
X159587371Y-82181043D01*
X159630000Y-82078127D01*
X159672629Y-82181043D01*
X159824201Y-82407886D01*
X160017114Y-82600799D01*
X160243957Y-82752371D01*
X160496011Y-82856775D01*
X160763589Y-82910000D01*
X161036411Y-82910000D01*
X161303989Y-82856775D01*
X161556043Y-82752371D01*
X161782886Y-82600799D01*
X161975799Y-82407886D01*
X162127371Y-82181043D01*
X162170000Y-82078127D01*
X162212629Y-82181043D01*
X162364201Y-82407886D01*
X162557114Y-82600799D01*
X162783957Y-82752371D01*
X163036011Y-82856775D01*
X163303589Y-82910000D01*
X163576411Y-82910000D01*
X163843989Y-82856775D01*
X164096043Y-82752371D01*
X164322886Y-82600799D01*
X164515799Y-82407886D01*
X164667371Y-82181043D01*
X164710000Y-82078127D01*
X164752629Y-82181043D01*
X164904201Y-82407886D01*
X165097114Y-82600799D01*
X165323957Y-82752371D01*
X165576011Y-82856775D01*
X165843589Y-82910000D01*
X166116411Y-82910000D01*
X166383989Y-82856775D01*
X166636043Y-82752371D01*
X166862886Y-82600799D01*
X167055799Y-82407886D01*
X167207371Y-82181043D01*
X167250000Y-82078127D01*
X167292629Y-82181043D01*
X167444201Y-82407886D01*
X167637114Y-82600799D01*
X167863957Y-82752371D01*
X168116011Y-82856775D01*
X168383589Y-82910000D01*
X168656411Y-82910000D01*
X168923989Y-82856775D01*
X169176043Y-82752371D01*
X169402886Y-82600799D01*
X169595799Y-82407886D01*
X169747371Y-82181043D01*
X169790000Y-82078127D01*
X169832629Y-82181043D01*
X169984201Y-82407886D01*
X170177114Y-82600799D01*
X170403957Y-82752371D01*
X170656011Y-82856775D01*
X170923589Y-82910000D01*
X171196411Y-82910000D01*
X171463989Y-82856775D01*
X171716043Y-82752371D01*
X171942886Y-82600799D01*
X172135799Y-82407886D01*
X172287371Y-82181043D01*
X172330000Y-82078127D01*
X172372629Y-82181043D01*
X172524201Y-82407886D01*
X172717114Y-82600799D01*
X172943957Y-82752371D01*
X173196011Y-82856775D01*
X173463589Y-82910000D01*
X173736411Y-82910000D01*
X174003989Y-82856775D01*
X174256043Y-82752371D01*
X174482886Y-82600799D01*
X174675799Y-82407886D01*
X174827371Y-82181043D01*
X174870000Y-82078127D01*
X174912629Y-82181043D01*
X175064201Y-82407886D01*
X175257114Y-82600799D01*
X175483957Y-82752371D01*
X175736011Y-82856775D01*
X176003589Y-82910000D01*
X176276411Y-82910000D01*
X176543989Y-82856775D01*
X176796043Y-82752371D01*
X177022886Y-82600799D01*
X177215799Y-82407886D01*
X177367371Y-82181043D01*
X177410000Y-82078127D01*
X177452629Y-82181043D01*
X177604201Y-82407886D01*
X177797114Y-82600799D01*
X178023957Y-82752371D01*
X178276011Y-82856775D01*
X178543589Y-82910000D01*
X178816411Y-82910000D01*
X179083989Y-82856775D01*
X179336043Y-82752371D01*
X179562886Y-82600799D01*
X179755799Y-82407886D01*
X179907371Y-82181043D01*
X179950000Y-82078127D01*
X179992629Y-82181043D01*
X180144201Y-82407886D01*
X180337114Y-82600799D01*
X180563957Y-82752371D01*
X180816011Y-82856775D01*
X181083589Y-82910000D01*
X181356411Y-82910000D01*
X181623989Y-82856775D01*
X181876043Y-82752371D01*
X182102886Y-82600799D01*
X182295799Y-82407886D01*
X182447371Y-82181043D01*
X182490000Y-82078127D01*
X182532629Y-82181043D01*
X182684201Y-82407886D01*
X182877114Y-82600799D01*
X183103957Y-82752371D01*
X183356011Y-82856775D01*
X183623589Y-82910000D01*
X183896411Y-82910000D01*
X184163989Y-82856775D01*
X184416043Y-82752371D01*
X184642886Y-82600799D01*
X184835799Y-82407886D01*
X184987371Y-82181043D01*
X185030000Y-82078127D01*
X185072629Y-82181043D01*
X185224201Y-82407886D01*
X185417114Y-82600799D01*
X185643957Y-82752371D01*
X185896011Y-82856775D01*
X186163589Y-82910000D01*
X186436411Y-82910000D01*
X186703989Y-82856775D01*
X186956043Y-82752371D01*
X187182886Y-82600799D01*
X187375799Y-82407886D01*
X187527371Y-82181043D01*
X187570000Y-82078127D01*
X187612629Y-82181043D01*
X187764201Y-82407886D01*
X187957114Y-82600799D01*
X188183957Y-82752371D01*
X188436011Y-82856775D01*
X188703589Y-82910000D01*
X188976411Y-82910000D01*
X189243989Y-82856775D01*
X189496043Y-82752371D01*
X189722886Y-82600799D01*
X189915799Y-82407886D01*
X190067371Y-82181043D01*
X190110000Y-82078127D01*
X190152629Y-82181043D01*
X190304201Y-82407886D01*
X190497114Y-82600799D01*
X190723957Y-82752371D01*
X190976011Y-82856775D01*
X191243589Y-82910000D01*
X191516411Y-82910000D01*
X191783989Y-82856775D01*
X192036043Y-82752371D01*
X192262886Y-82600799D01*
X192455799Y-82407886D01*
X192607371Y-82181043D01*
X192650000Y-82078127D01*
X192692629Y-82181043D01*
X192844201Y-82407886D01*
X193037114Y-82600799D01*
X193263957Y-82752371D01*
X193516011Y-82856775D01*
X193783589Y-82910000D01*
X194056411Y-82910000D01*
X194323989Y-82856775D01*
X194576043Y-82752371D01*
X194802886Y-82600799D01*
X194995799Y-82407886D01*
X195147371Y-82181043D01*
X195190000Y-82078127D01*
X195232629Y-82181043D01*
X195384201Y-82407886D01*
X195577114Y-82600799D01*
X195803957Y-82752371D01*
X196056011Y-82856775D01*
X196323589Y-82910000D01*
X196596411Y-82910000D01*
X196863989Y-82856775D01*
X197116043Y-82752371D01*
X197342886Y-82600799D01*
X197535799Y-82407886D01*
X197687371Y-82181043D01*
X197791775Y-81928989D01*
X197845000Y-81661411D01*
X197845000Y-81388589D01*
X197791775Y-81121011D01*
X197687371Y-80868957D01*
X197535799Y-80642114D01*
X197342886Y-80449201D01*
X197116043Y-80297629D01*
X196863989Y-80193225D01*
X196596411Y-80140000D01*
X196475793Y-80140000D01*
X196521775Y-80028989D01*
X196575000Y-79761411D01*
X196575000Y-79488589D01*
X196521775Y-79221011D01*
X196475793Y-79110000D01*
X196596411Y-79110000D01*
X196863989Y-79056775D01*
X197116043Y-78952371D01*
X197342886Y-78800799D01*
X197535799Y-78607886D01*
X197687371Y-78381043D01*
X197791775Y-78128989D01*
X197845000Y-77861411D01*
X197845000Y-77588589D01*
X197791775Y-77321011D01*
X197687371Y-77068957D01*
X197535799Y-76842114D01*
X197342886Y-76649201D01*
X197116043Y-76497629D01*
X196863989Y-76393225D01*
X196596411Y-76340000D01*
X196475793Y-76340000D01*
X196521775Y-76228989D01*
X196575000Y-75961411D01*
X196575000Y-75688589D01*
X196521775Y-75421011D01*
X196417371Y-75168957D01*
X196265799Y-74942114D01*
X196183685Y-74860000D01*
X199940000Y-74860000D01*
X199940001Y-112840000D01*
X143460000Y-112840000D01*
X143460000Y-105400000D01*
X148861928Y-105400000D01*
X148861928Y-106600000D01*
X148878992Y-106773254D01*
X148929528Y-106939850D01*
X149011595Y-107093386D01*
X149122038Y-107227962D01*
X149256614Y-107338405D01*
X149410150Y-107420472D01*
X149576746Y-107471008D01*
X149750000Y-107488072D01*
X151250000Y-107488072D01*
X151423254Y-107471008D01*
X151589850Y-107420472D01*
X151743386Y-107338405D01*
X151877962Y-107227962D01*
X151988405Y-107093386D01*
X152070472Y-106939850D01*
X152121008Y-106773254D01*
X152138072Y-106600000D01*
X152138072Y-105400000D01*
X152121008Y-105226746D01*
X152070472Y-105060150D01*
X151988405Y-104906614D01*
X151877962Y-104772038D01*
X151743386Y-104661595D01*
X151641407Y-104607086D01*
X151641795Y-104606802D01*
X151838664Y-104392046D01*
X151989854Y-104143009D01*
X152089554Y-103869261D01*
X152091476Y-103856890D01*
X151970155Y-103627000D01*
X150627000Y-103627000D01*
X150627000Y-103647000D01*
X150373000Y-103647000D01*
X150373000Y-103627000D01*
X149029845Y-103627000D01*
X148908524Y-103856890D01*
X148910446Y-103869261D01*
X149010146Y-104143009D01*
X149161336Y-104392046D01*
X149358205Y-104606802D01*
X149358593Y-104607086D01*
X149256614Y-104661595D01*
X149122038Y-104772038D01*
X149011595Y-104906614D01*
X148929528Y-105060150D01*
X148878992Y-105226746D01*
X148861928Y-105400000D01*
X143460000Y-105400000D01*
X143460000Y-103143110D01*
X148908524Y-103143110D01*
X149029845Y-103373000D01*
X150373000Y-103373000D01*
X150373000Y-102172768D01*
X150627000Y-102172768D01*
X150627000Y-103373000D01*
X151970155Y-103373000D01*
X152091476Y-103143110D01*
X152089554Y-103130739D01*
X151989854Y-102856991D01*
X151838664Y-102607954D01*
X151641795Y-102393198D01*
X151406812Y-102220975D01*
X151142745Y-102097904D01*
X150859742Y-102028715D01*
X150627000Y-102172768D01*
X150373000Y-102172768D01*
X150140258Y-102028715D01*
X149857255Y-102097904D01*
X149593188Y-102220975D01*
X149358205Y-102393198D01*
X149161336Y-102607954D01*
X149010146Y-102856991D01*
X148910446Y-103130739D01*
X148908524Y-103143110D01*
X143460000Y-103143110D01*
X143460000Y-94871063D01*
X168665000Y-94871063D01*
X168665000Y-95074941D01*
X168704774Y-95274900D01*
X168782795Y-95463258D01*
X168896063Y-95632776D01*
X169040226Y-95776939D01*
X169209744Y-95890207D01*
X169313857Y-95933332D01*
X169171063Y-96076126D01*
X169057795Y-96245644D01*
X168979774Y-96434002D01*
X168940000Y-96633961D01*
X168940000Y-96837839D01*
X168979774Y-97037798D01*
X169057795Y-97226156D01*
X169171063Y-97395674D01*
X169229501Y-97454112D01*
X169229500Y-101511877D01*
X169225824Y-101549200D01*
X169229500Y-101586522D01*
X169229500Y-101586532D01*
X169240497Y-101698185D01*
X169283954Y-101841446D01*
X169354526Y-101973476D01*
X169394371Y-102022026D01*
X169449499Y-102089201D01*
X169478503Y-102113004D01*
X171032901Y-103667403D01*
X171032900Y-105811189D01*
X170988963Y-105855126D01*
X170875695Y-106024644D01*
X170797674Y-106213002D01*
X170757900Y-106412961D01*
X170757900Y-106616839D01*
X170797674Y-106816798D01*
X170875695Y-107005156D01*
X170988963Y-107174674D01*
X171133126Y-107318837D01*
X171302644Y-107432105D01*
X171491002Y-107510126D01*
X171690961Y-107549900D01*
X171894839Y-107549900D01*
X172094798Y-107510126D01*
X172283156Y-107432105D01*
X172452674Y-107318837D01*
X172596837Y-107174674D01*
X172710105Y-107005156D01*
X172788126Y-106816798D01*
X172827900Y-106616839D01*
X172827900Y-106412961D01*
X172788126Y-106213002D01*
X172710105Y-106024644D01*
X172596837Y-105855126D01*
X172552900Y-105811189D01*
X172552900Y-103389925D01*
X172556576Y-103352600D01*
X172552900Y-103315275D01*
X172552900Y-103315267D01*
X172541903Y-103203614D01*
X172498446Y-103060353D01*
X172427874Y-102928324D01*
X172332901Y-102812599D01*
X172303903Y-102788801D01*
X170749500Y-101234399D01*
X170749500Y-100124301D01*
X171636200Y-101011002D01*
X171659999Y-101040001D01*
X171775724Y-101134974D01*
X171907753Y-101205546D01*
X172051014Y-101249003D01*
X172162667Y-101260000D01*
X172162676Y-101260000D01*
X172199999Y-101263676D01*
X172237322Y-101260000D01*
X173484001Y-101260000D01*
X173484000Y-103518477D01*
X173480324Y-103555800D01*
X173484000Y-103593122D01*
X173484000Y-103593132D01*
X173494997Y-103704785D01*
X173538454Y-103848046D01*
X173609026Y-103980076D01*
X173615180Y-103987574D01*
X173703999Y-104095801D01*
X173733003Y-104119604D01*
X177154468Y-107541070D01*
X177209500Y-107644026D01*
X177209500Y-107721739D01*
X177249274Y-107921698D01*
X177327295Y-108110056D01*
X177440563Y-108279574D01*
X177584726Y-108423737D01*
X177754244Y-108537005D01*
X177942602Y-108615026D01*
X178142561Y-108654800D01*
X178346439Y-108654800D01*
X178546398Y-108615026D01*
X178734756Y-108537005D01*
X178904274Y-108423737D01*
X179048437Y-108279574D01*
X179161705Y-108110056D01*
X179239726Y-107921698D01*
X179279500Y-107721739D01*
X179279500Y-107517861D01*
X179239726Y-107317902D01*
X179161705Y-107129544D01*
X179048437Y-106960026D01*
X178904274Y-106815863D01*
X178734756Y-106702595D01*
X178546398Y-106624574D01*
X178348140Y-106585138D01*
X175004000Y-103240999D01*
X175004000Y-101224211D01*
X175047937Y-101180274D01*
X175161205Y-101010756D01*
X175239226Y-100822398D01*
X175279000Y-100622439D01*
X175279000Y-100418561D01*
X175239226Y-100218602D01*
X175161205Y-100030244D01*
X175047937Y-99860726D01*
X174903774Y-99716563D01*
X174734256Y-99603295D01*
X174545898Y-99525274D01*
X174345939Y-99485500D01*
X174142061Y-99485500D01*
X173942102Y-99525274D01*
X173753744Y-99603295D01*
X173584226Y-99716563D01*
X173560789Y-99740000D01*
X172514802Y-99740000D01*
X171460000Y-98685199D01*
X171460000Y-96010335D01*
X171463677Y-95973002D01*
X171449003Y-95824016D01*
X171405546Y-95680755D01*
X171334974Y-95548726D01*
X171263799Y-95461999D01*
X171240001Y-95433001D01*
X171211003Y-95409203D01*
X170735000Y-94933201D01*
X170735000Y-94871063D01*
X170695226Y-94671104D01*
X170617205Y-94482746D01*
X170503937Y-94313228D01*
X170359774Y-94169065D01*
X170190256Y-94055797D01*
X170001898Y-93977776D01*
X169801939Y-93938002D01*
X169598061Y-93938002D01*
X169398102Y-93977776D01*
X169209744Y-94055797D01*
X169040226Y-94169065D01*
X168896063Y-94313228D01*
X168782795Y-94482746D01*
X168704774Y-94671104D01*
X168665000Y-94871063D01*
X143460000Y-94871063D01*
X143460000Y-84086361D01*
X164750800Y-84086361D01*
X164750800Y-84290239D01*
X164790574Y-84490198D01*
X164868595Y-84678556D01*
X164981863Y-84848074D01*
X165126026Y-84992237D01*
X165295544Y-85105505D01*
X165483902Y-85183526D01*
X165683861Y-85223300D01*
X165745999Y-85223300D01*
X172384801Y-91862103D01*
X172408599Y-91891101D01*
X172437597Y-91914899D01*
X172524323Y-91986074D01*
X172656353Y-92056646D01*
X172799614Y-92100103D01*
X172911267Y-92111100D01*
X172911277Y-92111100D01*
X172948600Y-92114776D01*
X172985923Y-92111100D01*
X177693189Y-92111100D01*
X177737126Y-92155037D01*
X177906644Y-92268305D01*
X177942176Y-92283023D01*
X175685199Y-94540000D01*
X175303711Y-94540000D01*
X175259774Y-94496063D01*
X175090256Y-94382795D01*
X174901898Y-94304774D01*
X174701939Y-94265000D01*
X174498061Y-94265000D01*
X174298102Y-94304774D01*
X174109744Y-94382795D01*
X173940226Y-94496063D01*
X173796063Y-94640226D01*
X173682795Y-94809744D01*
X173604774Y-94998102D01*
X173565000Y-95198061D01*
X173565000Y-95401939D01*
X173604774Y-95601898D01*
X173682795Y-95790256D01*
X173796063Y-95959774D01*
X173940226Y-96103937D01*
X174109744Y-96217205D01*
X174298102Y-96295226D01*
X174498061Y-96335000D01*
X174701939Y-96335000D01*
X174901898Y-96295226D01*
X175090256Y-96217205D01*
X175259774Y-96103937D01*
X175303711Y-96060000D01*
X175962678Y-96060000D01*
X176000000Y-96063676D01*
X176037322Y-96060000D01*
X176037333Y-96060000D01*
X176148986Y-96049003D01*
X176292247Y-96005546D01*
X176424276Y-95934974D01*
X176540001Y-95840001D01*
X176563804Y-95810997D01*
X183848203Y-88526599D01*
X183877201Y-88502801D01*
X183972174Y-88387076D01*
X184042746Y-88255047D01*
X184086203Y-88111786D01*
X184097200Y-88000133D01*
X184097200Y-88000125D01*
X184100876Y-87962800D01*
X184097200Y-87925475D01*
X184097200Y-84980911D01*
X184141137Y-84936974D01*
X184254405Y-84767456D01*
X184332426Y-84579098D01*
X184372200Y-84379139D01*
X184372200Y-84175261D01*
X184332426Y-83975302D01*
X184254405Y-83786944D01*
X184141137Y-83617426D01*
X183996974Y-83473263D01*
X183827456Y-83359995D01*
X183639098Y-83281974D01*
X183439139Y-83242200D01*
X183235261Y-83242200D01*
X183035302Y-83281974D01*
X182846944Y-83359995D01*
X182677426Y-83473263D01*
X182533263Y-83617426D01*
X182419995Y-83786944D01*
X182341974Y-83975302D01*
X182302200Y-84175261D01*
X182302200Y-84379139D01*
X182341974Y-84579098D01*
X182419995Y-84767456D01*
X182533263Y-84936974D01*
X182577200Y-84980911D01*
X182577201Y-87647997D01*
X179328823Y-90896376D01*
X179314105Y-90860844D01*
X179200837Y-90691326D01*
X179056674Y-90547163D01*
X178887156Y-90433895D01*
X178698798Y-90355874D01*
X178498839Y-90316100D01*
X178294961Y-90316100D01*
X178095002Y-90355874D01*
X177906644Y-90433895D01*
X177737126Y-90547163D01*
X177693189Y-90591100D01*
X173263402Y-90591100D01*
X166820800Y-84148499D01*
X166820800Y-84086361D01*
X166781026Y-83886402D01*
X166703005Y-83698044D01*
X166589737Y-83528526D01*
X166445574Y-83384363D01*
X166276056Y-83271095D01*
X166087698Y-83193074D01*
X165887739Y-83153300D01*
X165683861Y-83153300D01*
X165483902Y-83193074D01*
X165295544Y-83271095D01*
X165126026Y-83384363D01*
X164981863Y-83528526D01*
X164868595Y-83698044D01*
X164790574Y-83886402D01*
X164750800Y-84086361D01*
X143460000Y-84086361D01*
X143460000Y-74860000D01*
X145581646Y-74860000D01*
X145554188Y-74950518D01*
G36*
X148393748Y-77710858D02*
G01*
X148379605Y-77725000D01*
X148393748Y-77739143D01*
X148214143Y-77918748D01*
X148200000Y-77904605D01*
X148185858Y-77918748D01*
X148006253Y-77739143D01*
X148020395Y-77725000D01*
X148006253Y-77710858D01*
X148185858Y-77531253D01*
X148200000Y-77545395D01*
X148214143Y-77531253D01*
X148393748Y-77710858D01*
G37*
X148393748Y-77710858D02*
X148379605Y-77725000D01*
X148393748Y-77739143D01*
X148214143Y-77918748D01*
X148200000Y-77904605D01*
X148185858Y-77918748D01*
X148006253Y-77739143D01*
X148020395Y-77725000D01*
X148006253Y-77710858D01*
X148185858Y-77531253D01*
X148200000Y-77545395D01*
X148214143Y-77531253D01*
X148393748Y-77710858D01*
G36*
X150933748Y-77710858D02*
G01*
X150919605Y-77725000D01*
X150933748Y-77739143D01*
X150754143Y-77918748D01*
X150740000Y-77904605D01*
X150725858Y-77918748D01*
X150546253Y-77739143D01*
X150560395Y-77725000D01*
X150546253Y-77710858D01*
X150725858Y-77531253D01*
X150740000Y-77545395D01*
X150754143Y-77531253D01*
X150933748Y-77710858D01*
G37*
X150933748Y-77710858D02*
X150919605Y-77725000D01*
X150933748Y-77739143D01*
X150754143Y-77918748D01*
X150740000Y-77904605D01*
X150725858Y-77918748D01*
X150546253Y-77739143D01*
X150560395Y-77725000D01*
X150546253Y-77710858D01*
X150725858Y-77531253D01*
X150740000Y-77545395D01*
X150754143Y-77531253D01*
X150933748Y-77710858D01*
G36*
X153473748Y-77710858D02*
G01*
X153459605Y-77725000D01*
X153473748Y-77739143D01*
X153294143Y-77918748D01*
X153280000Y-77904605D01*
X153265858Y-77918748D01*
X153086253Y-77739143D01*
X153100395Y-77725000D01*
X153086253Y-77710858D01*
X153265858Y-77531253D01*
X153280000Y-77545395D01*
X153294143Y-77531253D01*
X153473748Y-77710858D01*
G37*
X153473748Y-77710858D02*
X153459605Y-77725000D01*
X153473748Y-77739143D01*
X153294143Y-77918748D01*
X153280000Y-77904605D01*
X153265858Y-77918748D01*
X153086253Y-77739143D01*
X153100395Y-77725000D01*
X153086253Y-77710858D01*
X153265858Y-77531253D01*
X153280000Y-77545395D01*
X153294143Y-77531253D01*
X153473748Y-77710858D01*
G36*
X152203748Y-75810858D02*
G01*
X152189605Y-75825000D01*
X152203748Y-75839143D01*
X152024143Y-76018748D01*
X152010000Y-76004605D01*
X151995858Y-76018748D01*
X151816253Y-75839143D01*
X151830395Y-75825000D01*
X151816253Y-75810858D01*
X151995858Y-75631253D01*
X152010000Y-75645395D01*
X152024143Y-75631253D01*
X152203748Y-75810858D01*
G37*
X152203748Y-75810858D02*
X152189605Y-75825000D01*
X152203748Y-75839143D01*
X152024143Y-76018748D01*
X152010000Y-76004605D01*
X151995858Y-76018748D01*
X151816253Y-75839143D01*
X151830395Y-75825000D01*
X151816253Y-75810858D01*
X151995858Y-75631253D01*
X152010000Y-75645395D01*
X152024143Y-75631253D01*
X152203748Y-75810858D01*
G36*
X149663748Y-75810858D02*
G01*
X149649605Y-75825000D01*
X149663748Y-75839143D01*
X149484143Y-76018748D01*
X149470000Y-76004605D01*
X149455858Y-76018748D01*
X149276253Y-75839143D01*
X149290395Y-75825000D01*
X149276253Y-75810858D01*
X149455858Y-75631253D01*
X149470000Y-75645395D01*
X149484143Y-75631253D01*
X149663748Y-75810858D01*
G37*
X149663748Y-75810858D02*
X149649605Y-75825000D01*
X149663748Y-75839143D01*
X149484143Y-76018748D01*
X149470000Y-76004605D01*
X149455858Y-76018748D01*
X149276253Y-75839143D01*
X149290395Y-75825000D01*
X149276253Y-75810858D01*
X149455858Y-75631253D01*
X149470000Y-75645395D01*
X149484143Y-75631253D01*
X149663748Y-75810858D01*
M02*
