G04 #@! TF.GenerationSoftware,KiCad,Pcbnew,(5.1.5)-3*
G04 #@! TF.CreationDate,2020-05-07T17:46:45-04:00*
G04 #@! TF.ProjectId,CR2025_Nordic,43523230-3235-45f4-9e6f-726469632e6b,rev?*
G04 #@! TF.SameCoordinates,Original*
G04 #@! TF.FileFunction,Soldermask,Bot*
G04 #@! TF.FilePolarity,Negative*
%FSLAX46Y46*%
G04 Gerber Fmt 4.6, Leading zero omitted, Abs format (unit mm)*
G04 Created by KiCad (PCBNEW (5.1.5)-3) date 2020-05-07 17:46:45*
%MOMM*%
%LPD*%
G04 APERTURE LIST*
%ADD10C,0.100000*%
G04 APERTURE END LIST*
D10*
G36*
X142303028Y-101007183D02*
G01*
X142491722Y-101064423D01*
X142665615Y-101157371D01*
X142818039Y-101282461D01*
X142943129Y-101434885D01*
X143036077Y-101608778D01*
X143093317Y-101797472D01*
X143112643Y-101993700D01*
X143093317Y-102189928D01*
X143036077Y-102378622D01*
X142943129Y-102552515D01*
X142818039Y-102704939D01*
X142665615Y-102830029D01*
X142491722Y-102922977D01*
X142303028Y-102980217D01*
X142155975Y-102994700D01*
X141857625Y-102994700D01*
X141710572Y-102980217D01*
X141521878Y-102922977D01*
X141347985Y-102830029D01*
X141195561Y-102704939D01*
X141070471Y-102552515D01*
X140977523Y-102378622D01*
X140920283Y-102189928D01*
X140900957Y-101993700D01*
X140920283Y-101797472D01*
X140977523Y-101608778D01*
X141070471Y-101434885D01*
X141195561Y-101282461D01*
X141347985Y-101157371D01*
X141521878Y-101064423D01*
X141710572Y-101007183D01*
X141857625Y-100992700D01*
X142155975Y-100992700D01*
X142303028Y-101007183D01*
G37*
G36*
X127093028Y-101007183D02*
G01*
X127281722Y-101064423D01*
X127455615Y-101157371D01*
X127608039Y-101282461D01*
X127733129Y-101434885D01*
X127826077Y-101608778D01*
X127883317Y-101797472D01*
X127902643Y-101993700D01*
X127883317Y-102189928D01*
X127826077Y-102378622D01*
X127733129Y-102552515D01*
X127608039Y-102704939D01*
X127455615Y-102830029D01*
X127281722Y-102922977D01*
X127093028Y-102980217D01*
X126945975Y-102994700D01*
X126647625Y-102994700D01*
X126500572Y-102980217D01*
X126311878Y-102922977D01*
X126137985Y-102830029D01*
X125985561Y-102704939D01*
X125860471Y-102552515D01*
X125767523Y-102378622D01*
X125710283Y-102189928D01*
X125690957Y-101993700D01*
X125710283Y-101797472D01*
X125767523Y-101608778D01*
X125860471Y-101434885D01*
X125985561Y-101282461D01*
X126137985Y-101157371D01*
X126311878Y-101064423D01*
X126500572Y-101007183D01*
X126647625Y-100992700D01*
X126945975Y-100992700D01*
X127093028Y-101007183D01*
G37*
G36*
X127093028Y-98467183D02*
G01*
X127281722Y-98524423D01*
X127455615Y-98617371D01*
X127608039Y-98742461D01*
X127733129Y-98894885D01*
X127826077Y-99068778D01*
X127883317Y-99257472D01*
X127902643Y-99453700D01*
X127883317Y-99649928D01*
X127826077Y-99838622D01*
X127733129Y-100012515D01*
X127608039Y-100164939D01*
X127455615Y-100290029D01*
X127281722Y-100382977D01*
X127093028Y-100440217D01*
X126945975Y-100454700D01*
X126647625Y-100454700D01*
X126500572Y-100440217D01*
X126311878Y-100382977D01*
X126137985Y-100290029D01*
X125985561Y-100164939D01*
X125860471Y-100012515D01*
X125767523Y-99838622D01*
X125710283Y-99649928D01*
X125690957Y-99453700D01*
X125710283Y-99257472D01*
X125767523Y-99068778D01*
X125860471Y-98894885D01*
X125985561Y-98742461D01*
X126137985Y-98617371D01*
X126311878Y-98524423D01*
X126500572Y-98467183D01*
X126647625Y-98452700D01*
X126945975Y-98452700D01*
X127093028Y-98467183D01*
G37*
G36*
X142303028Y-98467183D02*
G01*
X142491722Y-98524423D01*
X142665615Y-98617371D01*
X142818039Y-98742461D01*
X142943129Y-98894885D01*
X143036077Y-99068778D01*
X143093317Y-99257472D01*
X143112643Y-99453700D01*
X143093317Y-99649928D01*
X143036077Y-99838622D01*
X142943129Y-100012515D01*
X142818039Y-100164939D01*
X142665615Y-100290029D01*
X142491722Y-100382977D01*
X142303028Y-100440217D01*
X142155975Y-100454700D01*
X141857625Y-100454700D01*
X141710572Y-100440217D01*
X141521878Y-100382977D01*
X141347985Y-100290029D01*
X141195561Y-100164939D01*
X141070471Y-100012515D01*
X140977523Y-99838622D01*
X140920283Y-99649928D01*
X140900957Y-99453700D01*
X140920283Y-99257472D01*
X140977523Y-99068778D01*
X141070471Y-98894885D01*
X141195561Y-98742461D01*
X141347985Y-98617371D01*
X141521878Y-98524423D01*
X141710572Y-98467183D01*
X141857625Y-98452700D01*
X142155975Y-98452700D01*
X142303028Y-98467183D01*
G37*
G36*
X142303028Y-95927183D02*
G01*
X142491722Y-95984423D01*
X142665615Y-96077371D01*
X142818039Y-96202461D01*
X142943129Y-96354885D01*
X143036077Y-96528778D01*
X143093317Y-96717472D01*
X143112643Y-96913700D01*
X143093317Y-97109928D01*
X143036077Y-97298622D01*
X142943129Y-97472515D01*
X142818039Y-97624939D01*
X142665615Y-97750029D01*
X142491722Y-97842977D01*
X142303028Y-97900217D01*
X142155975Y-97914700D01*
X141857625Y-97914700D01*
X141710572Y-97900217D01*
X141521878Y-97842977D01*
X141347985Y-97750029D01*
X141195561Y-97624939D01*
X141070471Y-97472515D01*
X140977523Y-97298622D01*
X140920283Y-97109928D01*
X140900957Y-96913700D01*
X140920283Y-96717472D01*
X140977523Y-96528778D01*
X141070471Y-96354885D01*
X141195561Y-96202461D01*
X141347985Y-96077371D01*
X141521878Y-95984423D01*
X141710572Y-95927183D01*
X141857625Y-95912700D01*
X142155975Y-95912700D01*
X142303028Y-95927183D01*
G37*
G36*
X127093028Y-95927183D02*
G01*
X127281722Y-95984423D01*
X127455615Y-96077371D01*
X127608039Y-96202461D01*
X127733129Y-96354885D01*
X127826077Y-96528778D01*
X127883317Y-96717472D01*
X127902643Y-96913700D01*
X127883317Y-97109928D01*
X127826077Y-97298622D01*
X127733129Y-97472515D01*
X127608039Y-97624939D01*
X127455615Y-97750029D01*
X127281722Y-97842977D01*
X127093028Y-97900217D01*
X126945975Y-97914700D01*
X126647625Y-97914700D01*
X126500572Y-97900217D01*
X126311878Y-97842977D01*
X126137985Y-97750029D01*
X125985561Y-97624939D01*
X125860471Y-97472515D01*
X125767523Y-97298622D01*
X125710283Y-97109928D01*
X125690957Y-96913700D01*
X125710283Y-96717472D01*
X125767523Y-96528778D01*
X125860471Y-96354885D01*
X125985561Y-96202461D01*
X126137985Y-96077371D01*
X126311878Y-95984423D01*
X126500572Y-95927183D01*
X126647625Y-95912700D01*
X126945975Y-95912700D01*
X127093028Y-95927183D01*
G37*
G36*
X142303028Y-93387183D02*
G01*
X142491722Y-93444423D01*
X142665615Y-93537371D01*
X142818039Y-93662461D01*
X142943129Y-93814885D01*
X143036077Y-93988778D01*
X143093317Y-94177472D01*
X143112643Y-94373700D01*
X143093317Y-94569928D01*
X143036077Y-94758622D01*
X142943129Y-94932515D01*
X142818039Y-95084939D01*
X142665615Y-95210029D01*
X142491722Y-95302977D01*
X142303028Y-95360217D01*
X142155975Y-95374700D01*
X141857625Y-95374700D01*
X141710572Y-95360217D01*
X141521878Y-95302977D01*
X141347985Y-95210029D01*
X141195561Y-95084939D01*
X141070471Y-94932515D01*
X140977523Y-94758622D01*
X140920283Y-94569928D01*
X140900957Y-94373700D01*
X140920283Y-94177472D01*
X140977523Y-93988778D01*
X141070471Y-93814885D01*
X141195561Y-93662461D01*
X141347985Y-93537371D01*
X141521878Y-93444423D01*
X141710572Y-93387183D01*
X141857625Y-93372700D01*
X142155975Y-93372700D01*
X142303028Y-93387183D01*
G37*
G36*
X127093028Y-93387183D02*
G01*
X127281722Y-93444423D01*
X127455615Y-93537371D01*
X127608039Y-93662461D01*
X127733129Y-93814885D01*
X127826077Y-93988778D01*
X127883317Y-94177472D01*
X127902643Y-94373700D01*
X127883317Y-94569928D01*
X127826077Y-94758622D01*
X127733129Y-94932515D01*
X127608039Y-95084939D01*
X127455615Y-95210029D01*
X127281722Y-95302977D01*
X127093028Y-95360217D01*
X126945975Y-95374700D01*
X126647625Y-95374700D01*
X126500572Y-95360217D01*
X126311878Y-95302977D01*
X126137985Y-95210029D01*
X125985561Y-95084939D01*
X125860471Y-94932515D01*
X125767523Y-94758622D01*
X125710283Y-94569928D01*
X125690957Y-94373700D01*
X125710283Y-94177472D01*
X125767523Y-93988778D01*
X125860471Y-93814885D01*
X125985561Y-93662461D01*
X126137985Y-93537371D01*
X126311878Y-93444423D01*
X126500572Y-93387183D01*
X126647625Y-93372700D01*
X126945975Y-93372700D01*
X127093028Y-93387183D01*
G37*
G36*
X142303028Y-90847183D02*
G01*
X142491722Y-90904423D01*
X142665615Y-90997371D01*
X142818039Y-91122461D01*
X142943129Y-91274885D01*
X143036077Y-91448778D01*
X143093317Y-91637472D01*
X143112643Y-91833700D01*
X143093317Y-92029928D01*
X143036077Y-92218622D01*
X142943129Y-92392515D01*
X142818039Y-92544939D01*
X142665615Y-92670029D01*
X142491722Y-92762977D01*
X142303028Y-92820217D01*
X142155975Y-92834700D01*
X141857625Y-92834700D01*
X141710572Y-92820217D01*
X141521878Y-92762977D01*
X141347985Y-92670029D01*
X141195561Y-92544939D01*
X141070471Y-92392515D01*
X140977523Y-92218622D01*
X140920283Y-92029928D01*
X140900957Y-91833700D01*
X140920283Y-91637472D01*
X140977523Y-91448778D01*
X141070471Y-91274885D01*
X141195561Y-91122461D01*
X141347985Y-90997371D01*
X141521878Y-90904423D01*
X141710572Y-90847183D01*
X141857625Y-90832700D01*
X142155975Y-90832700D01*
X142303028Y-90847183D01*
G37*
G36*
X127093028Y-90847183D02*
G01*
X127281722Y-90904423D01*
X127455615Y-90997371D01*
X127608039Y-91122461D01*
X127733129Y-91274885D01*
X127826077Y-91448778D01*
X127883317Y-91637472D01*
X127902643Y-91833700D01*
X127883317Y-92029928D01*
X127826077Y-92218622D01*
X127733129Y-92392515D01*
X127608039Y-92544939D01*
X127455615Y-92670029D01*
X127281722Y-92762977D01*
X127093028Y-92820217D01*
X126945975Y-92834700D01*
X126647625Y-92834700D01*
X126500572Y-92820217D01*
X126311878Y-92762977D01*
X126137985Y-92670029D01*
X125985561Y-92544939D01*
X125860471Y-92392515D01*
X125767523Y-92218622D01*
X125710283Y-92029928D01*
X125690957Y-91833700D01*
X125710283Y-91637472D01*
X125767523Y-91448778D01*
X125860471Y-91274885D01*
X125985561Y-91122461D01*
X126137985Y-90997371D01*
X126311878Y-90904423D01*
X126500572Y-90847183D01*
X126647625Y-90832700D01*
X126945975Y-90832700D01*
X127093028Y-90847183D01*
G37*
G36*
X127093028Y-88307183D02*
G01*
X127281722Y-88364423D01*
X127455615Y-88457371D01*
X127608039Y-88582461D01*
X127733129Y-88734885D01*
X127826077Y-88908778D01*
X127883317Y-89097472D01*
X127902643Y-89293700D01*
X127883317Y-89489928D01*
X127826077Y-89678622D01*
X127733129Y-89852515D01*
X127608039Y-90004939D01*
X127455615Y-90130029D01*
X127281722Y-90222977D01*
X127093028Y-90280217D01*
X126945975Y-90294700D01*
X126647625Y-90294700D01*
X126500572Y-90280217D01*
X126311878Y-90222977D01*
X126137985Y-90130029D01*
X125985561Y-90004939D01*
X125860471Y-89852515D01*
X125767523Y-89678622D01*
X125710283Y-89489928D01*
X125690957Y-89293700D01*
X125710283Y-89097472D01*
X125767523Y-88908778D01*
X125860471Y-88734885D01*
X125985561Y-88582461D01*
X126137985Y-88457371D01*
X126311878Y-88364423D01*
X126500572Y-88307183D01*
X126647625Y-88292700D01*
X126945975Y-88292700D01*
X127093028Y-88307183D01*
G37*
G36*
X142303028Y-88307183D02*
G01*
X142491722Y-88364423D01*
X142665615Y-88457371D01*
X142818039Y-88582461D01*
X142943129Y-88734885D01*
X143036077Y-88908778D01*
X143093317Y-89097472D01*
X143112643Y-89293700D01*
X143093317Y-89489928D01*
X143036077Y-89678622D01*
X142943129Y-89852515D01*
X142818039Y-90004939D01*
X142665615Y-90130029D01*
X142491722Y-90222977D01*
X142303028Y-90280217D01*
X142155975Y-90294700D01*
X141857625Y-90294700D01*
X141710572Y-90280217D01*
X141521878Y-90222977D01*
X141347985Y-90130029D01*
X141195561Y-90004939D01*
X141070471Y-89852515D01*
X140977523Y-89678622D01*
X140920283Y-89489928D01*
X140900957Y-89293700D01*
X140920283Y-89097472D01*
X140977523Y-88908778D01*
X141070471Y-88734885D01*
X141195561Y-88582461D01*
X141347985Y-88457371D01*
X141521878Y-88364423D01*
X141710572Y-88307183D01*
X141857625Y-88292700D01*
X142155975Y-88292700D01*
X142303028Y-88307183D01*
G37*
G36*
X142303028Y-85767183D02*
G01*
X142491722Y-85824423D01*
X142665615Y-85917371D01*
X142818039Y-86042461D01*
X142943129Y-86194885D01*
X143036077Y-86368778D01*
X143093317Y-86557472D01*
X143112643Y-86753700D01*
X143093317Y-86949928D01*
X143036077Y-87138622D01*
X142943129Y-87312515D01*
X142818039Y-87464939D01*
X142665615Y-87590029D01*
X142491722Y-87682977D01*
X142303028Y-87740217D01*
X142155975Y-87754700D01*
X141857625Y-87754700D01*
X141710572Y-87740217D01*
X141521878Y-87682977D01*
X141347985Y-87590029D01*
X141195561Y-87464939D01*
X141070471Y-87312515D01*
X140977523Y-87138622D01*
X140920283Y-86949928D01*
X140900957Y-86753700D01*
X140920283Y-86557472D01*
X140977523Y-86368778D01*
X141070471Y-86194885D01*
X141195561Y-86042461D01*
X141347985Y-85917371D01*
X141521878Y-85824423D01*
X141710572Y-85767183D01*
X141857625Y-85752700D01*
X142155975Y-85752700D01*
X142303028Y-85767183D01*
G37*
G36*
X127093028Y-85767183D02*
G01*
X127281722Y-85824423D01*
X127455615Y-85917371D01*
X127608039Y-86042461D01*
X127733129Y-86194885D01*
X127826077Y-86368778D01*
X127883317Y-86557472D01*
X127902643Y-86753700D01*
X127883317Y-86949928D01*
X127826077Y-87138622D01*
X127733129Y-87312515D01*
X127608039Y-87464939D01*
X127455615Y-87590029D01*
X127281722Y-87682977D01*
X127093028Y-87740217D01*
X126945975Y-87754700D01*
X126647625Y-87754700D01*
X126500572Y-87740217D01*
X126311878Y-87682977D01*
X126137985Y-87590029D01*
X125985561Y-87464939D01*
X125860471Y-87312515D01*
X125767523Y-87138622D01*
X125710283Y-86949928D01*
X125690957Y-86753700D01*
X125710283Y-86557472D01*
X125767523Y-86368778D01*
X125860471Y-86194885D01*
X125985561Y-86042461D01*
X126137985Y-85917371D01*
X126311878Y-85824423D01*
X126500572Y-85767183D01*
X126647625Y-85752700D01*
X126945975Y-85752700D01*
X127093028Y-85767183D01*
G37*
G36*
X142303028Y-83227183D02*
G01*
X142491722Y-83284423D01*
X142665615Y-83377371D01*
X142818039Y-83502461D01*
X142943129Y-83654885D01*
X143036077Y-83828778D01*
X143093317Y-84017472D01*
X143112643Y-84213700D01*
X143093317Y-84409928D01*
X143036077Y-84598622D01*
X142943129Y-84772515D01*
X142818039Y-84924939D01*
X142665615Y-85050029D01*
X142491722Y-85142977D01*
X142303028Y-85200217D01*
X142155975Y-85214700D01*
X141857625Y-85214700D01*
X141710572Y-85200217D01*
X141521878Y-85142977D01*
X141347985Y-85050029D01*
X141195561Y-84924939D01*
X141070471Y-84772515D01*
X140977523Y-84598622D01*
X140920283Y-84409928D01*
X140900957Y-84213700D01*
X140920283Y-84017472D01*
X140977523Y-83828778D01*
X141070471Y-83654885D01*
X141195561Y-83502461D01*
X141347985Y-83377371D01*
X141521878Y-83284423D01*
X141710572Y-83227183D01*
X141857625Y-83212700D01*
X142155975Y-83212700D01*
X142303028Y-83227183D01*
G37*
G36*
X127093028Y-83227183D02*
G01*
X127281722Y-83284423D01*
X127455615Y-83377371D01*
X127608039Y-83502461D01*
X127733129Y-83654885D01*
X127826077Y-83828778D01*
X127883317Y-84017472D01*
X127902643Y-84213700D01*
X127883317Y-84409928D01*
X127826077Y-84598622D01*
X127733129Y-84772515D01*
X127608039Y-84924939D01*
X127455615Y-85050029D01*
X127281722Y-85142977D01*
X127093028Y-85200217D01*
X126945975Y-85214700D01*
X126647625Y-85214700D01*
X126500572Y-85200217D01*
X126311878Y-85142977D01*
X126137985Y-85050029D01*
X125985561Y-84924939D01*
X125860471Y-84772515D01*
X125767523Y-84598622D01*
X125710283Y-84409928D01*
X125690957Y-84213700D01*
X125710283Y-84017472D01*
X125767523Y-83828778D01*
X125860471Y-83654885D01*
X125985561Y-83502461D01*
X126137985Y-83377371D01*
X126311878Y-83284423D01*
X126500572Y-83227183D01*
X126647625Y-83212700D01*
X126945975Y-83212700D01*
X127093028Y-83227183D01*
G37*
G36*
X142303028Y-80687183D02*
G01*
X142491722Y-80744423D01*
X142665615Y-80837371D01*
X142818039Y-80962461D01*
X142943129Y-81114885D01*
X143036077Y-81288778D01*
X143093317Y-81477472D01*
X143112643Y-81673700D01*
X143093317Y-81869928D01*
X143036077Y-82058622D01*
X142943129Y-82232515D01*
X142818039Y-82384939D01*
X142665615Y-82510029D01*
X142491722Y-82602977D01*
X142303028Y-82660217D01*
X142155975Y-82674700D01*
X141857625Y-82674700D01*
X141710572Y-82660217D01*
X141521878Y-82602977D01*
X141347985Y-82510029D01*
X141195561Y-82384939D01*
X141070471Y-82232515D01*
X140977523Y-82058622D01*
X140920283Y-81869928D01*
X140900957Y-81673700D01*
X140920283Y-81477472D01*
X140977523Y-81288778D01*
X141070471Y-81114885D01*
X141195561Y-80962461D01*
X141347985Y-80837371D01*
X141521878Y-80744423D01*
X141710572Y-80687183D01*
X141857625Y-80672700D01*
X142155975Y-80672700D01*
X142303028Y-80687183D01*
G37*
G36*
X127093028Y-80687183D02*
G01*
X127281722Y-80744423D01*
X127455615Y-80837371D01*
X127608039Y-80962461D01*
X127733129Y-81114885D01*
X127826077Y-81288778D01*
X127883317Y-81477472D01*
X127902643Y-81673700D01*
X127883317Y-81869928D01*
X127826077Y-82058622D01*
X127733129Y-82232515D01*
X127608039Y-82384939D01*
X127455615Y-82510029D01*
X127281722Y-82602977D01*
X127093028Y-82660217D01*
X126945975Y-82674700D01*
X126647625Y-82674700D01*
X126500572Y-82660217D01*
X126311878Y-82602977D01*
X126137985Y-82510029D01*
X125985561Y-82384939D01*
X125860471Y-82232515D01*
X125767523Y-82058622D01*
X125710283Y-81869928D01*
X125690957Y-81673700D01*
X125710283Y-81477472D01*
X125767523Y-81288778D01*
X125860471Y-81114885D01*
X125985561Y-80962461D01*
X126137985Y-80837371D01*
X126311878Y-80744423D01*
X126500572Y-80687183D01*
X126647625Y-80672700D01*
X126945975Y-80672700D01*
X127093028Y-80687183D01*
G37*
G36*
X142303028Y-78147183D02*
G01*
X142491722Y-78204423D01*
X142665615Y-78297371D01*
X142818039Y-78422461D01*
X142943129Y-78574885D01*
X143036077Y-78748778D01*
X143093317Y-78937472D01*
X143112643Y-79133700D01*
X143093317Y-79329928D01*
X143036077Y-79518622D01*
X142943129Y-79692515D01*
X142818039Y-79844939D01*
X142665615Y-79970029D01*
X142491722Y-80062977D01*
X142303028Y-80120217D01*
X142155975Y-80134700D01*
X141857625Y-80134700D01*
X141710572Y-80120217D01*
X141521878Y-80062977D01*
X141347985Y-79970029D01*
X141195561Y-79844939D01*
X141070471Y-79692515D01*
X140977523Y-79518622D01*
X140920283Y-79329928D01*
X140900957Y-79133700D01*
X140920283Y-78937472D01*
X140977523Y-78748778D01*
X141070471Y-78574885D01*
X141195561Y-78422461D01*
X141347985Y-78297371D01*
X141521878Y-78204423D01*
X141710572Y-78147183D01*
X141857625Y-78132700D01*
X142155975Y-78132700D01*
X142303028Y-78147183D01*
G37*
G36*
X127897800Y-80134700D02*
G01*
X125695800Y-80134700D01*
X125695800Y-78132700D01*
X127897800Y-78132700D01*
X127897800Y-80134700D01*
G37*
M02*
