M48
; DRILL file {KiCad (5.1.5)-3} date 2020-05-07 5:46:47 PM
; FORMAT={-:-/ absolute / metric / decimal}
; #@! TF.CreationDate,2020-05-07T17:46:47-04:00
; #@! TF.GenerationSoftware,Kicad,Pcbnew,(5.1.5)-3
; #@! TF.FileFunction,Plated,1,2,PTH
FMAT,2
METRIC
T1C0.400
T2C1.020
%
G90
G05
T1
X128.935Y-90.048
X129.438Y-91.907
X129.987Y-86.126
X130.031Y-96.014
X130.734Y-93.96
X131.496Y-97.917
X131.928Y-79.151
X132.804Y-91.53
X133.718Y-77.419
X133.904Y-98.43
X134.122Y-102.834
X134.836Y-95.37
X135.539Y-102.809
X135.646Y-101.514
X136.4Y-95.857
X137.439Y-95.423
X137.514Y-84.25
X138.918Y-92.588
X139.431Y-96.073
X140.345Y-80.32
X147.838Y-89.825
X161.061Y-90.739
T2
X126.797Y-79.134
X126.797Y-81.674
X126.797Y-84.214
X126.797Y-86.754
X126.797Y-89.294
X126.797Y-91.834
X126.797Y-94.374
X126.797Y-96.914
X126.797Y-99.454
X126.797Y-101.994
X142.007Y-79.134
X142.007Y-81.674
X142.007Y-84.214
X142.007Y-86.754
X142.007Y-89.294
X142.007Y-91.834
X142.007Y-94.374
X142.007Y-96.914
X142.007Y-99.454
X142.007Y-101.994
T0
M30
