G04 #@! TF.GenerationSoftware,KiCad,Pcbnew,(5.1.5)-3*
G04 #@! TF.CreationDate,2020-05-07T17:46:45-04:00*
G04 #@! TF.ProjectId,CR2025_Nordic,43523230-3235-45f4-9e6f-726469632e6b,rev?*
G04 #@! TF.SameCoordinates,Original*
G04 #@! TF.FileFunction,Copper,L1,Top*
G04 #@! TF.FilePolarity,Positive*
%FSLAX46Y46*%
G04 Gerber Fmt 4.6, Leading zero omitted, Abs format (unit mm)*
G04 Created by KiCad (PCBNEW (5.1.5)-3) date 2020-05-07 17:46:45*
%MOMM*%
%LPD*%
G04 APERTURE LIST*
%ADD10R,2.100000X1.900000*%
%ADD11O,2.100000X1.900000*%
%ADD12C,0.100000*%
%ADD13R,1.524000X0.558800*%
%ADD14R,0.900000X0.800000*%
%ADD15R,1.800000X1.000000*%
%ADD16R,0.599999X0.499999*%
%ADD17R,1.100000X1.100000*%
%ADD18R,0.650000X1.060000*%
%ADD19C,17.780001*%
%ADD20R,5.080000X2.540000*%
%ADD21R,1.240000X0.550000*%
%ADD22R,1.220000X0.650000*%
%ADD23C,0.800000*%
%ADD24C,0.250000*%
%ADD25C,0.500000*%
%ADD26C,0.254000*%
G04 APERTURE END LIST*
D10*
X126796800Y-79133700D03*
D11*
X142006800Y-79133700D03*
X126796800Y-81673700D03*
X142006800Y-81673700D03*
X126796800Y-84213700D03*
X142006800Y-84213700D03*
X126796800Y-86753700D03*
X142006800Y-86753700D03*
X126796800Y-89293700D03*
X142006800Y-89293700D03*
X126796800Y-91833700D03*
X142006800Y-91833700D03*
X126796800Y-94373700D03*
X142006800Y-94373700D03*
X126796800Y-96913700D03*
X142006800Y-96913700D03*
X126796800Y-99453700D03*
X142006800Y-99453700D03*
X126796800Y-101993700D03*
X142006800Y-101993700D03*
G04 #@! TA.AperFunction,SMDPad,CuDef*
D12*
G36*
X133025120Y-97655478D02*
G01*
X133000586Y-97655478D01*
X132951755Y-97650668D01*
X132903630Y-97641096D01*
X132856675Y-97626852D01*
X132811342Y-97608075D01*
X132768069Y-97584944D01*
X132727270Y-97557684D01*
X132689341Y-97526556D01*
X132654644Y-97491859D01*
X132623516Y-97453930D01*
X132596256Y-97413131D01*
X132573125Y-97369858D01*
X132554348Y-97324525D01*
X132540104Y-97277570D01*
X132530532Y-97229445D01*
X132525722Y-97180614D01*
X132525722Y-97156080D01*
X132525120Y-97156080D01*
X132525120Y-96656080D01*
X132525722Y-96656080D01*
X132525722Y-96631546D01*
X132530532Y-96582715D01*
X132540104Y-96534590D01*
X132554348Y-96487635D01*
X132573125Y-96442302D01*
X132596256Y-96399029D01*
X132623516Y-96358230D01*
X132654644Y-96320301D01*
X132689341Y-96285604D01*
X132727270Y-96254476D01*
X132768069Y-96227216D01*
X132811342Y-96204085D01*
X132856675Y-96185308D01*
X132903630Y-96171064D01*
X132951755Y-96161492D01*
X133000586Y-96156682D01*
X133025120Y-96156682D01*
X133025120Y-96156080D01*
X133525120Y-96156080D01*
X133525120Y-97656080D01*
X133025120Y-97656080D01*
X133025120Y-97655478D01*
G37*
G04 #@! TD.AperFunction*
G04 #@! TA.AperFunction,SMDPad,CuDef*
G36*
X133825120Y-96156080D02*
G01*
X134325120Y-96156080D01*
X134325120Y-96156682D01*
X134349654Y-96156682D01*
X134398485Y-96161492D01*
X134446610Y-96171064D01*
X134493565Y-96185308D01*
X134538898Y-96204085D01*
X134582171Y-96227216D01*
X134622970Y-96254476D01*
X134660899Y-96285604D01*
X134695596Y-96320301D01*
X134726724Y-96358230D01*
X134753984Y-96399029D01*
X134777115Y-96442302D01*
X134795892Y-96487635D01*
X134810136Y-96534590D01*
X134819708Y-96582715D01*
X134824518Y-96631546D01*
X134824518Y-96656080D01*
X134825120Y-96656080D01*
X134825120Y-97156080D01*
X134824518Y-97156080D01*
X134824518Y-97180614D01*
X134819708Y-97229445D01*
X134810136Y-97277570D01*
X134795892Y-97324525D01*
X134777115Y-97369858D01*
X134753984Y-97413131D01*
X134726724Y-97453930D01*
X134695596Y-97491859D01*
X134660899Y-97526556D01*
X134622970Y-97557684D01*
X134582171Y-97584944D01*
X134538898Y-97608075D01*
X134493565Y-97626852D01*
X134446610Y-97641096D01*
X134398485Y-97650668D01*
X134349654Y-97655478D01*
X134325120Y-97655478D01*
X134325120Y-97656080D01*
X133825120Y-97656080D01*
X133825120Y-96156080D01*
G37*
G04 #@! TD.AperFunction*
G04 #@! TA.AperFunction,SMDPad,CuDef*
G36*
X138153042Y-93650040D02*
G01*
X138153042Y-93625506D01*
X138157852Y-93576675D01*
X138167424Y-93528550D01*
X138181668Y-93481595D01*
X138200445Y-93436262D01*
X138223576Y-93392989D01*
X138250836Y-93352190D01*
X138281964Y-93314261D01*
X138316661Y-93279564D01*
X138354590Y-93248436D01*
X138395389Y-93221176D01*
X138438662Y-93198045D01*
X138483995Y-93179268D01*
X138530950Y-93165024D01*
X138579075Y-93155452D01*
X138627906Y-93150642D01*
X138652440Y-93150642D01*
X138652440Y-93150040D01*
X139152440Y-93150040D01*
X139152440Y-93150642D01*
X139176974Y-93150642D01*
X139225805Y-93155452D01*
X139273930Y-93165024D01*
X139320885Y-93179268D01*
X139366218Y-93198045D01*
X139409491Y-93221176D01*
X139450290Y-93248436D01*
X139488219Y-93279564D01*
X139522916Y-93314261D01*
X139554044Y-93352190D01*
X139581304Y-93392989D01*
X139604435Y-93436262D01*
X139623212Y-93481595D01*
X139637456Y-93528550D01*
X139647028Y-93576675D01*
X139651838Y-93625506D01*
X139651838Y-93650040D01*
X139652440Y-93650040D01*
X139652440Y-94150040D01*
X138152440Y-94150040D01*
X138152440Y-93650040D01*
X138153042Y-93650040D01*
G37*
G04 #@! TD.AperFunction*
G04 #@! TA.AperFunction,SMDPad,CuDef*
G36*
X139652440Y-94450040D02*
G01*
X139652440Y-94950040D01*
X139651838Y-94950040D01*
X139651838Y-94974574D01*
X139647028Y-95023405D01*
X139637456Y-95071530D01*
X139623212Y-95118485D01*
X139604435Y-95163818D01*
X139581304Y-95207091D01*
X139554044Y-95247890D01*
X139522916Y-95285819D01*
X139488219Y-95320516D01*
X139450290Y-95351644D01*
X139409491Y-95378904D01*
X139366218Y-95402035D01*
X139320885Y-95420812D01*
X139273930Y-95435056D01*
X139225805Y-95444628D01*
X139176974Y-95449438D01*
X139152440Y-95449438D01*
X139152440Y-95450040D01*
X138652440Y-95450040D01*
X138652440Y-95449438D01*
X138627906Y-95449438D01*
X138579075Y-95444628D01*
X138530950Y-95435056D01*
X138483995Y-95420812D01*
X138438662Y-95402035D01*
X138395389Y-95378904D01*
X138354590Y-95351644D01*
X138316661Y-95320516D01*
X138281964Y-95285819D01*
X138250836Y-95247890D01*
X138223576Y-95207091D01*
X138200445Y-95163818D01*
X138181668Y-95118485D01*
X138167424Y-95071530D01*
X138157852Y-95023405D01*
X138153042Y-94974574D01*
X138153042Y-94950040D01*
X138152440Y-94950040D01*
X138152440Y-94450040D01*
X139652440Y-94450040D01*
G37*
G04 #@! TD.AperFunction*
D13*
X138732260Y-87660480D03*
X138732260Y-88930480D03*
X138732260Y-90200480D03*
X138732260Y-91470480D03*
X131442460Y-91470480D03*
X131442460Y-90200480D03*
X131442460Y-88930480D03*
X131442460Y-87660480D03*
D14*
X129949700Y-84886800D03*
X131949700Y-83936800D03*
X131949700Y-85836800D03*
D15*
X129844800Y-98886960D03*
X129844800Y-101386960D03*
D16*
X138701399Y-77152500D03*
X137701401Y-77152500D03*
X132021199Y-77381100D03*
X131021201Y-77381100D03*
G04 #@! TA.AperFunction,SMDPad,CuDef*
D12*
G36*
X139567079Y-82408444D02*
G01*
X139590134Y-82411863D01*
X139612743Y-82417527D01*
X139634687Y-82425379D01*
X139655757Y-82435344D01*
X139675748Y-82447326D01*
X139694468Y-82461210D01*
X139711738Y-82476862D01*
X139727390Y-82494132D01*
X139741274Y-82512852D01*
X139753256Y-82532843D01*
X139763221Y-82553913D01*
X139771073Y-82575857D01*
X139776737Y-82598466D01*
X139780156Y-82621521D01*
X139781300Y-82644800D01*
X139781300Y-83219800D01*
X139780156Y-83243079D01*
X139776737Y-83266134D01*
X139771073Y-83288743D01*
X139763221Y-83310687D01*
X139753256Y-83331757D01*
X139741274Y-83351748D01*
X139727390Y-83370468D01*
X139711738Y-83387738D01*
X139694468Y-83403390D01*
X139675748Y-83417274D01*
X139655757Y-83429256D01*
X139634687Y-83439221D01*
X139612743Y-83447073D01*
X139590134Y-83452737D01*
X139567079Y-83456156D01*
X139543800Y-83457300D01*
X139068800Y-83457300D01*
X139045521Y-83456156D01*
X139022466Y-83452737D01*
X138999857Y-83447073D01*
X138977913Y-83439221D01*
X138956843Y-83429256D01*
X138936852Y-83417274D01*
X138918132Y-83403390D01*
X138900862Y-83387738D01*
X138885210Y-83370468D01*
X138871326Y-83351748D01*
X138859344Y-83331757D01*
X138849379Y-83310687D01*
X138841527Y-83288743D01*
X138835863Y-83266134D01*
X138832444Y-83243079D01*
X138831300Y-83219800D01*
X138831300Y-82644800D01*
X138832444Y-82621521D01*
X138835863Y-82598466D01*
X138841527Y-82575857D01*
X138849379Y-82553913D01*
X138859344Y-82532843D01*
X138871326Y-82512852D01*
X138885210Y-82494132D01*
X138900862Y-82476862D01*
X138918132Y-82461210D01*
X138936852Y-82447326D01*
X138956843Y-82435344D01*
X138977913Y-82425379D01*
X138999857Y-82417527D01*
X139022466Y-82411863D01*
X139045521Y-82408444D01*
X139068800Y-82407300D01*
X139543800Y-82407300D01*
X139567079Y-82408444D01*
G37*
G04 #@! TD.AperFunction*
G04 #@! TA.AperFunction,SMDPad,CuDef*
G36*
X139567079Y-84158444D02*
G01*
X139590134Y-84161863D01*
X139612743Y-84167527D01*
X139634687Y-84175379D01*
X139655757Y-84185344D01*
X139675748Y-84197326D01*
X139694468Y-84211210D01*
X139711738Y-84226862D01*
X139727390Y-84244132D01*
X139741274Y-84262852D01*
X139753256Y-84282843D01*
X139763221Y-84303913D01*
X139771073Y-84325857D01*
X139776737Y-84348466D01*
X139780156Y-84371521D01*
X139781300Y-84394800D01*
X139781300Y-84969800D01*
X139780156Y-84993079D01*
X139776737Y-85016134D01*
X139771073Y-85038743D01*
X139763221Y-85060687D01*
X139753256Y-85081757D01*
X139741274Y-85101748D01*
X139727390Y-85120468D01*
X139711738Y-85137738D01*
X139694468Y-85153390D01*
X139675748Y-85167274D01*
X139655757Y-85179256D01*
X139634687Y-85189221D01*
X139612743Y-85197073D01*
X139590134Y-85202737D01*
X139567079Y-85206156D01*
X139543800Y-85207300D01*
X139068800Y-85207300D01*
X139045521Y-85206156D01*
X139022466Y-85202737D01*
X138999857Y-85197073D01*
X138977913Y-85189221D01*
X138956843Y-85179256D01*
X138936852Y-85167274D01*
X138918132Y-85153390D01*
X138900862Y-85137738D01*
X138885210Y-85120468D01*
X138871326Y-85101748D01*
X138859344Y-85081757D01*
X138849379Y-85060687D01*
X138841527Y-85038743D01*
X138835863Y-85016134D01*
X138832444Y-84993079D01*
X138831300Y-84969800D01*
X138831300Y-84394800D01*
X138832444Y-84371521D01*
X138835863Y-84348466D01*
X138841527Y-84325857D01*
X138849379Y-84303913D01*
X138859344Y-84282843D01*
X138871326Y-84262852D01*
X138885210Y-84244132D01*
X138900862Y-84226862D01*
X138918132Y-84211210D01*
X138936852Y-84197326D01*
X138956843Y-84185344D01*
X138977913Y-84175379D01*
X138999857Y-84167527D01*
X139022466Y-84161863D01*
X139045521Y-84158444D01*
X139068800Y-84157300D01*
X139543800Y-84157300D01*
X139567079Y-84158444D01*
G37*
G04 #@! TD.AperFunction*
G04 #@! TA.AperFunction,SMDPad,CuDef*
G36*
X145752918Y-77764400D02*
G01*
X145752918Y-77788934D01*
X145748108Y-77837765D01*
X145738536Y-77885890D01*
X145724292Y-77932845D01*
X145705515Y-77978178D01*
X145682384Y-78021451D01*
X145655124Y-78062250D01*
X145623996Y-78100179D01*
X145589299Y-78134876D01*
X145551370Y-78166004D01*
X145510571Y-78193264D01*
X145467298Y-78216395D01*
X145421965Y-78235172D01*
X145375010Y-78249416D01*
X145326885Y-78258988D01*
X145278054Y-78263798D01*
X145253520Y-78263798D01*
X145253520Y-78264400D01*
X144753520Y-78264400D01*
X144753520Y-78263798D01*
X144728986Y-78263798D01*
X144680155Y-78258988D01*
X144632030Y-78249416D01*
X144585075Y-78235172D01*
X144539742Y-78216395D01*
X144496469Y-78193264D01*
X144455670Y-78166004D01*
X144417741Y-78134876D01*
X144383044Y-78100179D01*
X144351916Y-78062250D01*
X144324656Y-78021451D01*
X144301525Y-77978178D01*
X144282748Y-77932845D01*
X144268504Y-77885890D01*
X144258932Y-77837765D01*
X144254122Y-77788934D01*
X144254122Y-77764400D01*
X144253520Y-77764400D01*
X144253520Y-77264400D01*
X145753520Y-77264400D01*
X145753520Y-77764400D01*
X145752918Y-77764400D01*
G37*
G04 #@! TD.AperFunction*
G04 #@! TA.AperFunction,SMDPad,CuDef*
G36*
X144253520Y-76964400D02*
G01*
X144253520Y-76464400D01*
X144254122Y-76464400D01*
X144254122Y-76439866D01*
X144258932Y-76391035D01*
X144268504Y-76342910D01*
X144282748Y-76295955D01*
X144301525Y-76250622D01*
X144324656Y-76207349D01*
X144351916Y-76166550D01*
X144383044Y-76128621D01*
X144417741Y-76093924D01*
X144455670Y-76062796D01*
X144496469Y-76035536D01*
X144539742Y-76012405D01*
X144585075Y-75993628D01*
X144632030Y-75979384D01*
X144680155Y-75969812D01*
X144728986Y-75965002D01*
X144753520Y-75965002D01*
X144753520Y-75964400D01*
X145253520Y-75964400D01*
X145253520Y-75965002D01*
X145278054Y-75965002D01*
X145326885Y-75969812D01*
X145375010Y-75979384D01*
X145421965Y-75993628D01*
X145467298Y-76012405D01*
X145510571Y-76035536D01*
X145551370Y-76062796D01*
X145589299Y-76093924D01*
X145623996Y-76128621D01*
X145655124Y-76166550D01*
X145682384Y-76207349D01*
X145705515Y-76250622D01*
X145724292Y-76295955D01*
X145738536Y-76342910D01*
X145748108Y-76391035D01*
X145752918Y-76439866D01*
X145752918Y-76464400D01*
X145753520Y-76464400D01*
X145753520Y-76964400D01*
X144253520Y-76964400D01*
G37*
G04 #@! TD.AperFunction*
D17*
X136558480Y-93858080D03*
X133758480Y-93858080D03*
G04 #@! TA.AperFunction,SMDPad,CuDef*
D12*
G36*
X138218779Y-96477944D02*
G01*
X138241834Y-96481363D01*
X138264443Y-96487027D01*
X138286387Y-96494879D01*
X138307457Y-96504844D01*
X138327448Y-96516826D01*
X138346168Y-96530710D01*
X138363438Y-96546362D01*
X138379090Y-96563632D01*
X138392974Y-96582352D01*
X138404956Y-96602343D01*
X138414921Y-96623413D01*
X138422773Y-96645357D01*
X138428437Y-96667966D01*
X138431856Y-96691021D01*
X138433000Y-96714300D01*
X138433000Y-97189300D01*
X138431856Y-97212579D01*
X138428437Y-97235634D01*
X138422773Y-97258243D01*
X138414921Y-97280187D01*
X138404956Y-97301257D01*
X138392974Y-97321248D01*
X138379090Y-97339968D01*
X138363438Y-97357238D01*
X138346168Y-97372890D01*
X138327448Y-97386774D01*
X138307457Y-97398756D01*
X138286387Y-97408721D01*
X138264443Y-97416573D01*
X138241834Y-97422237D01*
X138218779Y-97425656D01*
X138195500Y-97426800D01*
X137620500Y-97426800D01*
X137597221Y-97425656D01*
X137574166Y-97422237D01*
X137551557Y-97416573D01*
X137529613Y-97408721D01*
X137508543Y-97398756D01*
X137488552Y-97386774D01*
X137469832Y-97372890D01*
X137452562Y-97357238D01*
X137436910Y-97339968D01*
X137423026Y-97321248D01*
X137411044Y-97301257D01*
X137401079Y-97280187D01*
X137393227Y-97258243D01*
X137387563Y-97235634D01*
X137384144Y-97212579D01*
X137383000Y-97189300D01*
X137383000Y-96714300D01*
X137384144Y-96691021D01*
X137387563Y-96667966D01*
X137393227Y-96645357D01*
X137401079Y-96623413D01*
X137411044Y-96602343D01*
X137423026Y-96582352D01*
X137436910Y-96563632D01*
X137452562Y-96546362D01*
X137469832Y-96530710D01*
X137488552Y-96516826D01*
X137508543Y-96504844D01*
X137529613Y-96494879D01*
X137551557Y-96487027D01*
X137574166Y-96481363D01*
X137597221Y-96477944D01*
X137620500Y-96476800D01*
X138195500Y-96476800D01*
X138218779Y-96477944D01*
G37*
G04 #@! TD.AperFunction*
G04 #@! TA.AperFunction,SMDPad,CuDef*
G36*
X136468779Y-96477944D02*
G01*
X136491834Y-96481363D01*
X136514443Y-96487027D01*
X136536387Y-96494879D01*
X136557457Y-96504844D01*
X136577448Y-96516826D01*
X136596168Y-96530710D01*
X136613438Y-96546362D01*
X136629090Y-96563632D01*
X136642974Y-96582352D01*
X136654956Y-96602343D01*
X136664921Y-96623413D01*
X136672773Y-96645357D01*
X136678437Y-96667966D01*
X136681856Y-96691021D01*
X136683000Y-96714300D01*
X136683000Y-97189300D01*
X136681856Y-97212579D01*
X136678437Y-97235634D01*
X136672773Y-97258243D01*
X136664921Y-97280187D01*
X136654956Y-97301257D01*
X136642974Y-97321248D01*
X136629090Y-97339968D01*
X136613438Y-97357238D01*
X136596168Y-97372890D01*
X136577448Y-97386774D01*
X136557457Y-97398756D01*
X136536387Y-97408721D01*
X136514443Y-97416573D01*
X136491834Y-97422237D01*
X136468779Y-97425656D01*
X136445500Y-97426800D01*
X135870500Y-97426800D01*
X135847221Y-97425656D01*
X135824166Y-97422237D01*
X135801557Y-97416573D01*
X135779613Y-97408721D01*
X135758543Y-97398756D01*
X135738552Y-97386774D01*
X135719832Y-97372890D01*
X135702562Y-97357238D01*
X135686910Y-97339968D01*
X135673026Y-97321248D01*
X135661044Y-97301257D01*
X135651079Y-97280187D01*
X135643227Y-97258243D01*
X135637563Y-97235634D01*
X135634144Y-97212579D01*
X135633000Y-97189300D01*
X135633000Y-96714300D01*
X135634144Y-96691021D01*
X135637563Y-96667966D01*
X135643227Y-96645357D01*
X135651079Y-96623413D01*
X135661044Y-96602343D01*
X135673026Y-96582352D01*
X135686910Y-96563632D01*
X135702562Y-96546362D01*
X135719832Y-96530710D01*
X135738552Y-96516826D01*
X135758543Y-96504844D01*
X135779613Y-96494879D01*
X135801557Y-96487027D01*
X135824166Y-96481363D01*
X135847221Y-96477944D01*
X135870500Y-96476800D01*
X136445500Y-96476800D01*
X136468779Y-96477944D01*
G37*
G04 #@! TD.AperFunction*
G04 #@! TA.AperFunction,SMDPad,CuDef*
G36*
X139716939Y-102052744D02*
G01*
X139739994Y-102056163D01*
X139762603Y-102061827D01*
X139784547Y-102069679D01*
X139805617Y-102079644D01*
X139825608Y-102091626D01*
X139844328Y-102105510D01*
X139861598Y-102121162D01*
X139877250Y-102138432D01*
X139891134Y-102157152D01*
X139903116Y-102177143D01*
X139913081Y-102198213D01*
X139920933Y-102220157D01*
X139926597Y-102242766D01*
X139930016Y-102265821D01*
X139931160Y-102289100D01*
X139931160Y-102864100D01*
X139930016Y-102887379D01*
X139926597Y-102910434D01*
X139920933Y-102933043D01*
X139913081Y-102954987D01*
X139903116Y-102976057D01*
X139891134Y-102996048D01*
X139877250Y-103014768D01*
X139861598Y-103032038D01*
X139844328Y-103047690D01*
X139825608Y-103061574D01*
X139805617Y-103073556D01*
X139784547Y-103083521D01*
X139762603Y-103091373D01*
X139739994Y-103097037D01*
X139716939Y-103100456D01*
X139693660Y-103101600D01*
X139218660Y-103101600D01*
X139195381Y-103100456D01*
X139172326Y-103097037D01*
X139149717Y-103091373D01*
X139127773Y-103083521D01*
X139106703Y-103073556D01*
X139086712Y-103061574D01*
X139067992Y-103047690D01*
X139050722Y-103032038D01*
X139035070Y-103014768D01*
X139021186Y-102996048D01*
X139009204Y-102976057D01*
X138999239Y-102954987D01*
X138991387Y-102933043D01*
X138985723Y-102910434D01*
X138982304Y-102887379D01*
X138981160Y-102864100D01*
X138981160Y-102289100D01*
X138982304Y-102265821D01*
X138985723Y-102242766D01*
X138991387Y-102220157D01*
X138999239Y-102198213D01*
X139009204Y-102177143D01*
X139021186Y-102157152D01*
X139035070Y-102138432D01*
X139050722Y-102121162D01*
X139067992Y-102105510D01*
X139086712Y-102091626D01*
X139106703Y-102079644D01*
X139127773Y-102069679D01*
X139149717Y-102061827D01*
X139172326Y-102056163D01*
X139195381Y-102052744D01*
X139218660Y-102051600D01*
X139693660Y-102051600D01*
X139716939Y-102052744D01*
G37*
G04 #@! TD.AperFunction*
G04 #@! TA.AperFunction,SMDPad,CuDef*
G36*
X139716939Y-100302744D02*
G01*
X139739994Y-100306163D01*
X139762603Y-100311827D01*
X139784547Y-100319679D01*
X139805617Y-100329644D01*
X139825608Y-100341626D01*
X139844328Y-100355510D01*
X139861598Y-100371162D01*
X139877250Y-100388432D01*
X139891134Y-100407152D01*
X139903116Y-100427143D01*
X139913081Y-100448213D01*
X139920933Y-100470157D01*
X139926597Y-100492766D01*
X139930016Y-100515821D01*
X139931160Y-100539100D01*
X139931160Y-101114100D01*
X139930016Y-101137379D01*
X139926597Y-101160434D01*
X139920933Y-101183043D01*
X139913081Y-101204987D01*
X139903116Y-101226057D01*
X139891134Y-101246048D01*
X139877250Y-101264768D01*
X139861598Y-101282038D01*
X139844328Y-101297690D01*
X139825608Y-101311574D01*
X139805617Y-101323556D01*
X139784547Y-101333521D01*
X139762603Y-101341373D01*
X139739994Y-101347037D01*
X139716939Y-101350456D01*
X139693660Y-101351600D01*
X139218660Y-101351600D01*
X139195381Y-101350456D01*
X139172326Y-101347037D01*
X139149717Y-101341373D01*
X139127773Y-101333521D01*
X139106703Y-101323556D01*
X139086712Y-101311574D01*
X139067992Y-101297690D01*
X139050722Y-101282038D01*
X139035070Y-101264768D01*
X139021186Y-101246048D01*
X139009204Y-101226057D01*
X138999239Y-101204987D01*
X138991387Y-101183043D01*
X138985723Y-101160434D01*
X138982304Y-101137379D01*
X138981160Y-101114100D01*
X138981160Y-100539100D01*
X138982304Y-100515821D01*
X138985723Y-100492766D01*
X138991387Y-100470157D01*
X138999239Y-100448213D01*
X139009204Y-100427143D01*
X139021186Y-100407152D01*
X139035070Y-100388432D01*
X139050722Y-100371162D01*
X139067992Y-100355510D01*
X139086712Y-100341626D01*
X139106703Y-100329644D01*
X139127773Y-100319679D01*
X139149717Y-100311827D01*
X139172326Y-100306163D01*
X139195381Y-100302744D01*
X139218660Y-100301600D01*
X139693660Y-100301600D01*
X139716939Y-100302744D01*
G37*
G04 #@! TD.AperFunction*
G04 #@! TA.AperFunction,SMDPad,CuDef*
G36*
X139716939Y-96848344D02*
G01*
X139739994Y-96851763D01*
X139762603Y-96857427D01*
X139784547Y-96865279D01*
X139805617Y-96875244D01*
X139825608Y-96887226D01*
X139844328Y-96901110D01*
X139861598Y-96916762D01*
X139877250Y-96934032D01*
X139891134Y-96952752D01*
X139903116Y-96972743D01*
X139913081Y-96993813D01*
X139920933Y-97015757D01*
X139926597Y-97038366D01*
X139930016Y-97061421D01*
X139931160Y-97084700D01*
X139931160Y-97659700D01*
X139930016Y-97682979D01*
X139926597Y-97706034D01*
X139920933Y-97728643D01*
X139913081Y-97750587D01*
X139903116Y-97771657D01*
X139891134Y-97791648D01*
X139877250Y-97810368D01*
X139861598Y-97827638D01*
X139844328Y-97843290D01*
X139825608Y-97857174D01*
X139805617Y-97869156D01*
X139784547Y-97879121D01*
X139762603Y-97886973D01*
X139739994Y-97892637D01*
X139716939Y-97896056D01*
X139693660Y-97897200D01*
X139218660Y-97897200D01*
X139195381Y-97896056D01*
X139172326Y-97892637D01*
X139149717Y-97886973D01*
X139127773Y-97879121D01*
X139106703Y-97869156D01*
X139086712Y-97857174D01*
X139067992Y-97843290D01*
X139050722Y-97827638D01*
X139035070Y-97810368D01*
X139021186Y-97791648D01*
X139009204Y-97771657D01*
X138999239Y-97750587D01*
X138991387Y-97728643D01*
X138985723Y-97706034D01*
X138982304Y-97682979D01*
X138981160Y-97659700D01*
X138981160Y-97084700D01*
X138982304Y-97061421D01*
X138985723Y-97038366D01*
X138991387Y-97015757D01*
X138999239Y-96993813D01*
X139009204Y-96972743D01*
X139021186Y-96952752D01*
X139035070Y-96934032D01*
X139050722Y-96916762D01*
X139067992Y-96901110D01*
X139086712Y-96887226D01*
X139106703Y-96875244D01*
X139127773Y-96865279D01*
X139149717Y-96857427D01*
X139172326Y-96851763D01*
X139195381Y-96848344D01*
X139218660Y-96847200D01*
X139693660Y-96847200D01*
X139716939Y-96848344D01*
G37*
G04 #@! TD.AperFunction*
G04 #@! TA.AperFunction,SMDPad,CuDef*
G36*
X139716939Y-98598344D02*
G01*
X139739994Y-98601763D01*
X139762603Y-98607427D01*
X139784547Y-98615279D01*
X139805617Y-98625244D01*
X139825608Y-98637226D01*
X139844328Y-98651110D01*
X139861598Y-98666762D01*
X139877250Y-98684032D01*
X139891134Y-98702752D01*
X139903116Y-98722743D01*
X139913081Y-98743813D01*
X139920933Y-98765757D01*
X139926597Y-98788366D01*
X139930016Y-98811421D01*
X139931160Y-98834700D01*
X139931160Y-99409700D01*
X139930016Y-99432979D01*
X139926597Y-99456034D01*
X139920933Y-99478643D01*
X139913081Y-99500587D01*
X139903116Y-99521657D01*
X139891134Y-99541648D01*
X139877250Y-99560368D01*
X139861598Y-99577638D01*
X139844328Y-99593290D01*
X139825608Y-99607174D01*
X139805617Y-99619156D01*
X139784547Y-99629121D01*
X139762603Y-99636973D01*
X139739994Y-99642637D01*
X139716939Y-99646056D01*
X139693660Y-99647200D01*
X139218660Y-99647200D01*
X139195381Y-99646056D01*
X139172326Y-99642637D01*
X139149717Y-99636973D01*
X139127773Y-99629121D01*
X139106703Y-99619156D01*
X139086712Y-99607174D01*
X139067992Y-99593290D01*
X139050722Y-99577638D01*
X139035070Y-99560368D01*
X139021186Y-99541648D01*
X139009204Y-99521657D01*
X138999239Y-99500587D01*
X138991387Y-99478643D01*
X138985723Y-99456034D01*
X138982304Y-99432979D01*
X138981160Y-99409700D01*
X138981160Y-98834700D01*
X138982304Y-98811421D01*
X138985723Y-98788366D01*
X138991387Y-98765757D01*
X138999239Y-98743813D01*
X139009204Y-98722743D01*
X139021186Y-98702752D01*
X139035070Y-98684032D01*
X139050722Y-98666762D01*
X139067992Y-98651110D01*
X139086712Y-98637226D01*
X139106703Y-98625244D01*
X139127773Y-98615279D01*
X139149717Y-98607427D01*
X139172326Y-98601763D01*
X139195381Y-98598344D01*
X139218660Y-98597200D01*
X139693660Y-98597200D01*
X139716939Y-98598344D01*
G37*
G04 #@! TD.AperFunction*
G04 #@! TA.AperFunction,SMDPad,CuDef*
G36*
X138178543Y-98709922D02*
G01*
X138193104Y-98712082D01*
X138207383Y-98715659D01*
X138221243Y-98720618D01*
X138234550Y-98726912D01*
X138247176Y-98734480D01*
X138258999Y-98743248D01*
X138269906Y-98753134D01*
X138279792Y-98764041D01*
X138288560Y-98775864D01*
X138296128Y-98788490D01*
X138302422Y-98801797D01*
X138307381Y-98815657D01*
X138310958Y-98829936D01*
X138313118Y-98844497D01*
X138313840Y-98859200D01*
X138313840Y-99159200D01*
X138313118Y-99173903D01*
X138310958Y-99188464D01*
X138307381Y-99202743D01*
X138302422Y-99216603D01*
X138296128Y-99229910D01*
X138288560Y-99242536D01*
X138279792Y-99254359D01*
X138269906Y-99265266D01*
X138258999Y-99275152D01*
X138247176Y-99283920D01*
X138234550Y-99291488D01*
X138221243Y-99297782D01*
X138207383Y-99302741D01*
X138193104Y-99306318D01*
X138178543Y-99308478D01*
X138163840Y-99309200D01*
X136513840Y-99309200D01*
X136499137Y-99308478D01*
X136484576Y-99306318D01*
X136470297Y-99302741D01*
X136456437Y-99297782D01*
X136443130Y-99291488D01*
X136430504Y-99283920D01*
X136418681Y-99275152D01*
X136407774Y-99265266D01*
X136397888Y-99254359D01*
X136389120Y-99242536D01*
X136381552Y-99229910D01*
X136375258Y-99216603D01*
X136370299Y-99202743D01*
X136366722Y-99188464D01*
X136364562Y-99173903D01*
X136363840Y-99159200D01*
X136363840Y-98859200D01*
X136364562Y-98844497D01*
X136366722Y-98829936D01*
X136370299Y-98815657D01*
X136375258Y-98801797D01*
X136381552Y-98788490D01*
X136389120Y-98775864D01*
X136397888Y-98764041D01*
X136407774Y-98753134D01*
X136418681Y-98743248D01*
X136430504Y-98734480D01*
X136443130Y-98726912D01*
X136456437Y-98720618D01*
X136470297Y-98715659D01*
X136484576Y-98712082D01*
X136499137Y-98709922D01*
X136513840Y-98709200D01*
X138163840Y-98709200D01*
X138178543Y-98709922D01*
G37*
G04 #@! TD.AperFunction*
G04 #@! TA.AperFunction,SMDPad,CuDef*
G36*
X138178543Y-99979922D02*
G01*
X138193104Y-99982082D01*
X138207383Y-99985659D01*
X138221243Y-99990618D01*
X138234550Y-99996912D01*
X138247176Y-100004480D01*
X138258999Y-100013248D01*
X138269906Y-100023134D01*
X138279792Y-100034041D01*
X138288560Y-100045864D01*
X138296128Y-100058490D01*
X138302422Y-100071797D01*
X138307381Y-100085657D01*
X138310958Y-100099936D01*
X138313118Y-100114497D01*
X138313840Y-100129200D01*
X138313840Y-100429200D01*
X138313118Y-100443903D01*
X138310958Y-100458464D01*
X138307381Y-100472743D01*
X138302422Y-100486603D01*
X138296128Y-100499910D01*
X138288560Y-100512536D01*
X138279792Y-100524359D01*
X138269906Y-100535266D01*
X138258999Y-100545152D01*
X138247176Y-100553920D01*
X138234550Y-100561488D01*
X138221243Y-100567782D01*
X138207383Y-100572741D01*
X138193104Y-100576318D01*
X138178543Y-100578478D01*
X138163840Y-100579200D01*
X136513840Y-100579200D01*
X136499137Y-100578478D01*
X136484576Y-100576318D01*
X136470297Y-100572741D01*
X136456437Y-100567782D01*
X136443130Y-100561488D01*
X136430504Y-100553920D01*
X136418681Y-100545152D01*
X136407774Y-100535266D01*
X136397888Y-100524359D01*
X136389120Y-100512536D01*
X136381552Y-100499910D01*
X136375258Y-100486603D01*
X136370299Y-100472743D01*
X136366722Y-100458464D01*
X136364562Y-100443903D01*
X136363840Y-100429200D01*
X136363840Y-100129200D01*
X136364562Y-100114497D01*
X136366722Y-100099936D01*
X136370299Y-100085657D01*
X136375258Y-100071797D01*
X136381552Y-100058490D01*
X136389120Y-100045864D01*
X136397888Y-100034041D01*
X136407774Y-100023134D01*
X136418681Y-100013248D01*
X136430504Y-100004480D01*
X136443130Y-99996912D01*
X136456437Y-99990618D01*
X136470297Y-99985659D01*
X136484576Y-99982082D01*
X136499137Y-99979922D01*
X136513840Y-99979200D01*
X138163840Y-99979200D01*
X138178543Y-99979922D01*
G37*
G04 #@! TD.AperFunction*
G04 #@! TA.AperFunction,SMDPad,CuDef*
G36*
X138178543Y-101249922D02*
G01*
X138193104Y-101252082D01*
X138207383Y-101255659D01*
X138221243Y-101260618D01*
X138234550Y-101266912D01*
X138247176Y-101274480D01*
X138258999Y-101283248D01*
X138269906Y-101293134D01*
X138279792Y-101304041D01*
X138288560Y-101315864D01*
X138296128Y-101328490D01*
X138302422Y-101341797D01*
X138307381Y-101355657D01*
X138310958Y-101369936D01*
X138313118Y-101384497D01*
X138313840Y-101399200D01*
X138313840Y-101699200D01*
X138313118Y-101713903D01*
X138310958Y-101728464D01*
X138307381Y-101742743D01*
X138302422Y-101756603D01*
X138296128Y-101769910D01*
X138288560Y-101782536D01*
X138279792Y-101794359D01*
X138269906Y-101805266D01*
X138258999Y-101815152D01*
X138247176Y-101823920D01*
X138234550Y-101831488D01*
X138221243Y-101837782D01*
X138207383Y-101842741D01*
X138193104Y-101846318D01*
X138178543Y-101848478D01*
X138163840Y-101849200D01*
X136513840Y-101849200D01*
X136499137Y-101848478D01*
X136484576Y-101846318D01*
X136470297Y-101842741D01*
X136456437Y-101837782D01*
X136443130Y-101831488D01*
X136430504Y-101823920D01*
X136418681Y-101815152D01*
X136407774Y-101805266D01*
X136397888Y-101794359D01*
X136389120Y-101782536D01*
X136381552Y-101769910D01*
X136375258Y-101756603D01*
X136370299Y-101742743D01*
X136366722Y-101728464D01*
X136364562Y-101713903D01*
X136363840Y-101699200D01*
X136363840Y-101399200D01*
X136364562Y-101384497D01*
X136366722Y-101369936D01*
X136370299Y-101355657D01*
X136375258Y-101341797D01*
X136381552Y-101328490D01*
X136389120Y-101315864D01*
X136397888Y-101304041D01*
X136407774Y-101293134D01*
X136418681Y-101283248D01*
X136430504Y-101274480D01*
X136443130Y-101266912D01*
X136456437Y-101260618D01*
X136470297Y-101255659D01*
X136484576Y-101252082D01*
X136499137Y-101249922D01*
X136513840Y-101249200D01*
X138163840Y-101249200D01*
X138178543Y-101249922D01*
G37*
G04 #@! TD.AperFunction*
G04 #@! TA.AperFunction,SMDPad,CuDef*
G36*
X138178543Y-102519922D02*
G01*
X138193104Y-102522082D01*
X138207383Y-102525659D01*
X138221243Y-102530618D01*
X138234550Y-102536912D01*
X138247176Y-102544480D01*
X138258999Y-102553248D01*
X138269906Y-102563134D01*
X138279792Y-102574041D01*
X138288560Y-102585864D01*
X138296128Y-102598490D01*
X138302422Y-102611797D01*
X138307381Y-102625657D01*
X138310958Y-102639936D01*
X138313118Y-102654497D01*
X138313840Y-102669200D01*
X138313840Y-102969200D01*
X138313118Y-102983903D01*
X138310958Y-102998464D01*
X138307381Y-103012743D01*
X138302422Y-103026603D01*
X138296128Y-103039910D01*
X138288560Y-103052536D01*
X138279792Y-103064359D01*
X138269906Y-103075266D01*
X138258999Y-103085152D01*
X138247176Y-103093920D01*
X138234550Y-103101488D01*
X138221243Y-103107782D01*
X138207383Y-103112741D01*
X138193104Y-103116318D01*
X138178543Y-103118478D01*
X138163840Y-103119200D01*
X136513840Y-103119200D01*
X136499137Y-103118478D01*
X136484576Y-103116318D01*
X136470297Y-103112741D01*
X136456437Y-103107782D01*
X136443130Y-103101488D01*
X136430504Y-103093920D01*
X136418681Y-103085152D01*
X136407774Y-103075266D01*
X136397888Y-103064359D01*
X136389120Y-103052536D01*
X136381552Y-103039910D01*
X136375258Y-103026603D01*
X136370299Y-103012743D01*
X136366722Y-102998464D01*
X136364562Y-102983903D01*
X136363840Y-102969200D01*
X136363840Y-102669200D01*
X136364562Y-102654497D01*
X136366722Y-102639936D01*
X136370299Y-102625657D01*
X136375258Y-102611797D01*
X136381552Y-102598490D01*
X136389120Y-102585864D01*
X136397888Y-102574041D01*
X136407774Y-102563134D01*
X136418681Y-102553248D01*
X136430504Y-102544480D01*
X136443130Y-102536912D01*
X136456437Y-102530618D01*
X136470297Y-102525659D01*
X136484576Y-102522082D01*
X136499137Y-102519922D01*
X136513840Y-102519200D01*
X138163840Y-102519200D01*
X138178543Y-102519922D01*
G37*
G04 #@! TD.AperFunction*
G04 #@! TA.AperFunction,SMDPad,CuDef*
G36*
X133228543Y-102519922D02*
G01*
X133243104Y-102522082D01*
X133257383Y-102525659D01*
X133271243Y-102530618D01*
X133284550Y-102536912D01*
X133297176Y-102544480D01*
X133308999Y-102553248D01*
X133319906Y-102563134D01*
X133329792Y-102574041D01*
X133338560Y-102585864D01*
X133346128Y-102598490D01*
X133352422Y-102611797D01*
X133357381Y-102625657D01*
X133360958Y-102639936D01*
X133363118Y-102654497D01*
X133363840Y-102669200D01*
X133363840Y-102969200D01*
X133363118Y-102983903D01*
X133360958Y-102998464D01*
X133357381Y-103012743D01*
X133352422Y-103026603D01*
X133346128Y-103039910D01*
X133338560Y-103052536D01*
X133329792Y-103064359D01*
X133319906Y-103075266D01*
X133308999Y-103085152D01*
X133297176Y-103093920D01*
X133284550Y-103101488D01*
X133271243Y-103107782D01*
X133257383Y-103112741D01*
X133243104Y-103116318D01*
X133228543Y-103118478D01*
X133213840Y-103119200D01*
X131563840Y-103119200D01*
X131549137Y-103118478D01*
X131534576Y-103116318D01*
X131520297Y-103112741D01*
X131506437Y-103107782D01*
X131493130Y-103101488D01*
X131480504Y-103093920D01*
X131468681Y-103085152D01*
X131457774Y-103075266D01*
X131447888Y-103064359D01*
X131439120Y-103052536D01*
X131431552Y-103039910D01*
X131425258Y-103026603D01*
X131420299Y-103012743D01*
X131416722Y-102998464D01*
X131414562Y-102983903D01*
X131413840Y-102969200D01*
X131413840Y-102669200D01*
X131414562Y-102654497D01*
X131416722Y-102639936D01*
X131420299Y-102625657D01*
X131425258Y-102611797D01*
X131431552Y-102598490D01*
X131439120Y-102585864D01*
X131447888Y-102574041D01*
X131457774Y-102563134D01*
X131468681Y-102553248D01*
X131480504Y-102544480D01*
X131493130Y-102536912D01*
X131506437Y-102530618D01*
X131520297Y-102525659D01*
X131534576Y-102522082D01*
X131549137Y-102519922D01*
X131563840Y-102519200D01*
X133213840Y-102519200D01*
X133228543Y-102519922D01*
G37*
G04 #@! TD.AperFunction*
G04 #@! TA.AperFunction,SMDPad,CuDef*
G36*
X133228543Y-101249922D02*
G01*
X133243104Y-101252082D01*
X133257383Y-101255659D01*
X133271243Y-101260618D01*
X133284550Y-101266912D01*
X133297176Y-101274480D01*
X133308999Y-101283248D01*
X133319906Y-101293134D01*
X133329792Y-101304041D01*
X133338560Y-101315864D01*
X133346128Y-101328490D01*
X133352422Y-101341797D01*
X133357381Y-101355657D01*
X133360958Y-101369936D01*
X133363118Y-101384497D01*
X133363840Y-101399200D01*
X133363840Y-101699200D01*
X133363118Y-101713903D01*
X133360958Y-101728464D01*
X133357381Y-101742743D01*
X133352422Y-101756603D01*
X133346128Y-101769910D01*
X133338560Y-101782536D01*
X133329792Y-101794359D01*
X133319906Y-101805266D01*
X133308999Y-101815152D01*
X133297176Y-101823920D01*
X133284550Y-101831488D01*
X133271243Y-101837782D01*
X133257383Y-101842741D01*
X133243104Y-101846318D01*
X133228543Y-101848478D01*
X133213840Y-101849200D01*
X131563840Y-101849200D01*
X131549137Y-101848478D01*
X131534576Y-101846318D01*
X131520297Y-101842741D01*
X131506437Y-101837782D01*
X131493130Y-101831488D01*
X131480504Y-101823920D01*
X131468681Y-101815152D01*
X131457774Y-101805266D01*
X131447888Y-101794359D01*
X131439120Y-101782536D01*
X131431552Y-101769910D01*
X131425258Y-101756603D01*
X131420299Y-101742743D01*
X131416722Y-101728464D01*
X131414562Y-101713903D01*
X131413840Y-101699200D01*
X131413840Y-101399200D01*
X131414562Y-101384497D01*
X131416722Y-101369936D01*
X131420299Y-101355657D01*
X131425258Y-101341797D01*
X131431552Y-101328490D01*
X131439120Y-101315864D01*
X131447888Y-101304041D01*
X131457774Y-101293134D01*
X131468681Y-101283248D01*
X131480504Y-101274480D01*
X131493130Y-101266912D01*
X131506437Y-101260618D01*
X131520297Y-101255659D01*
X131534576Y-101252082D01*
X131549137Y-101249922D01*
X131563840Y-101249200D01*
X133213840Y-101249200D01*
X133228543Y-101249922D01*
G37*
G04 #@! TD.AperFunction*
G04 #@! TA.AperFunction,SMDPad,CuDef*
G36*
X133228543Y-99979922D02*
G01*
X133243104Y-99982082D01*
X133257383Y-99985659D01*
X133271243Y-99990618D01*
X133284550Y-99996912D01*
X133297176Y-100004480D01*
X133308999Y-100013248D01*
X133319906Y-100023134D01*
X133329792Y-100034041D01*
X133338560Y-100045864D01*
X133346128Y-100058490D01*
X133352422Y-100071797D01*
X133357381Y-100085657D01*
X133360958Y-100099936D01*
X133363118Y-100114497D01*
X133363840Y-100129200D01*
X133363840Y-100429200D01*
X133363118Y-100443903D01*
X133360958Y-100458464D01*
X133357381Y-100472743D01*
X133352422Y-100486603D01*
X133346128Y-100499910D01*
X133338560Y-100512536D01*
X133329792Y-100524359D01*
X133319906Y-100535266D01*
X133308999Y-100545152D01*
X133297176Y-100553920D01*
X133284550Y-100561488D01*
X133271243Y-100567782D01*
X133257383Y-100572741D01*
X133243104Y-100576318D01*
X133228543Y-100578478D01*
X133213840Y-100579200D01*
X131563840Y-100579200D01*
X131549137Y-100578478D01*
X131534576Y-100576318D01*
X131520297Y-100572741D01*
X131506437Y-100567782D01*
X131493130Y-100561488D01*
X131480504Y-100553920D01*
X131468681Y-100545152D01*
X131457774Y-100535266D01*
X131447888Y-100524359D01*
X131439120Y-100512536D01*
X131431552Y-100499910D01*
X131425258Y-100486603D01*
X131420299Y-100472743D01*
X131416722Y-100458464D01*
X131414562Y-100443903D01*
X131413840Y-100429200D01*
X131413840Y-100129200D01*
X131414562Y-100114497D01*
X131416722Y-100099936D01*
X131420299Y-100085657D01*
X131425258Y-100071797D01*
X131431552Y-100058490D01*
X131439120Y-100045864D01*
X131447888Y-100034041D01*
X131457774Y-100023134D01*
X131468681Y-100013248D01*
X131480504Y-100004480D01*
X131493130Y-99996912D01*
X131506437Y-99990618D01*
X131520297Y-99985659D01*
X131534576Y-99982082D01*
X131549137Y-99979922D01*
X131563840Y-99979200D01*
X133213840Y-99979200D01*
X133228543Y-99979922D01*
G37*
G04 #@! TD.AperFunction*
G04 #@! TA.AperFunction,SMDPad,CuDef*
G36*
X133228543Y-98709922D02*
G01*
X133243104Y-98712082D01*
X133257383Y-98715659D01*
X133271243Y-98720618D01*
X133284550Y-98726912D01*
X133297176Y-98734480D01*
X133308999Y-98743248D01*
X133319906Y-98753134D01*
X133329792Y-98764041D01*
X133338560Y-98775864D01*
X133346128Y-98788490D01*
X133352422Y-98801797D01*
X133357381Y-98815657D01*
X133360958Y-98829936D01*
X133363118Y-98844497D01*
X133363840Y-98859200D01*
X133363840Y-99159200D01*
X133363118Y-99173903D01*
X133360958Y-99188464D01*
X133357381Y-99202743D01*
X133352422Y-99216603D01*
X133346128Y-99229910D01*
X133338560Y-99242536D01*
X133329792Y-99254359D01*
X133319906Y-99265266D01*
X133308999Y-99275152D01*
X133297176Y-99283920D01*
X133284550Y-99291488D01*
X133271243Y-99297782D01*
X133257383Y-99302741D01*
X133243104Y-99306318D01*
X133228543Y-99308478D01*
X133213840Y-99309200D01*
X131563840Y-99309200D01*
X131549137Y-99308478D01*
X131534576Y-99306318D01*
X131520297Y-99302741D01*
X131506437Y-99297782D01*
X131493130Y-99291488D01*
X131480504Y-99283920D01*
X131468681Y-99275152D01*
X131457774Y-99265266D01*
X131447888Y-99254359D01*
X131439120Y-99242536D01*
X131431552Y-99229910D01*
X131425258Y-99216603D01*
X131420299Y-99202743D01*
X131416722Y-99188464D01*
X131414562Y-99173903D01*
X131413840Y-99159200D01*
X131413840Y-98859200D01*
X131414562Y-98844497D01*
X131416722Y-98829936D01*
X131420299Y-98815657D01*
X131425258Y-98801797D01*
X131431552Y-98788490D01*
X131439120Y-98775864D01*
X131447888Y-98764041D01*
X131457774Y-98753134D01*
X131468681Y-98743248D01*
X131480504Y-98734480D01*
X131493130Y-98726912D01*
X131506437Y-98720618D01*
X131520297Y-98715659D01*
X131534576Y-98712082D01*
X131549137Y-98709922D01*
X131563840Y-98709200D01*
X133213840Y-98709200D01*
X133228543Y-98709922D01*
G37*
G04 #@! TD.AperFunction*
D18*
X138831360Y-78935200D03*
X137881360Y-78935200D03*
X136931360Y-78935200D03*
X136931360Y-81135200D03*
X138831360Y-81135200D03*
G04 #@! TA.AperFunction,SMDPad,CuDef*
D12*
G36*
X135495459Y-82014744D02*
G01*
X135518514Y-82018163D01*
X135541123Y-82023827D01*
X135563067Y-82031679D01*
X135584137Y-82041644D01*
X135604128Y-82053626D01*
X135622848Y-82067510D01*
X135640118Y-82083162D01*
X135655770Y-82100432D01*
X135669654Y-82119152D01*
X135681636Y-82139143D01*
X135691601Y-82160213D01*
X135699453Y-82182157D01*
X135705117Y-82204766D01*
X135708536Y-82227821D01*
X135709680Y-82251100D01*
X135709680Y-82826100D01*
X135708536Y-82849379D01*
X135705117Y-82872434D01*
X135699453Y-82895043D01*
X135691601Y-82916987D01*
X135681636Y-82938057D01*
X135669654Y-82958048D01*
X135655770Y-82976768D01*
X135640118Y-82994038D01*
X135622848Y-83009690D01*
X135604128Y-83023574D01*
X135584137Y-83035556D01*
X135563067Y-83045521D01*
X135541123Y-83053373D01*
X135518514Y-83059037D01*
X135495459Y-83062456D01*
X135472180Y-83063600D01*
X134997180Y-83063600D01*
X134973901Y-83062456D01*
X134950846Y-83059037D01*
X134928237Y-83053373D01*
X134906293Y-83045521D01*
X134885223Y-83035556D01*
X134865232Y-83023574D01*
X134846512Y-83009690D01*
X134829242Y-82994038D01*
X134813590Y-82976768D01*
X134799706Y-82958048D01*
X134787724Y-82938057D01*
X134777759Y-82916987D01*
X134769907Y-82895043D01*
X134764243Y-82872434D01*
X134760824Y-82849379D01*
X134759680Y-82826100D01*
X134759680Y-82251100D01*
X134760824Y-82227821D01*
X134764243Y-82204766D01*
X134769907Y-82182157D01*
X134777759Y-82160213D01*
X134787724Y-82139143D01*
X134799706Y-82119152D01*
X134813590Y-82100432D01*
X134829242Y-82083162D01*
X134846512Y-82067510D01*
X134865232Y-82053626D01*
X134885223Y-82041644D01*
X134906293Y-82031679D01*
X134928237Y-82023827D01*
X134950846Y-82018163D01*
X134973901Y-82014744D01*
X134997180Y-82013600D01*
X135472180Y-82013600D01*
X135495459Y-82014744D01*
G37*
G04 #@! TD.AperFunction*
G04 #@! TA.AperFunction,SMDPad,CuDef*
G36*
X135495459Y-83764744D02*
G01*
X135518514Y-83768163D01*
X135541123Y-83773827D01*
X135563067Y-83781679D01*
X135584137Y-83791644D01*
X135604128Y-83803626D01*
X135622848Y-83817510D01*
X135640118Y-83833162D01*
X135655770Y-83850432D01*
X135669654Y-83869152D01*
X135681636Y-83889143D01*
X135691601Y-83910213D01*
X135699453Y-83932157D01*
X135705117Y-83954766D01*
X135708536Y-83977821D01*
X135709680Y-84001100D01*
X135709680Y-84576100D01*
X135708536Y-84599379D01*
X135705117Y-84622434D01*
X135699453Y-84645043D01*
X135691601Y-84666987D01*
X135681636Y-84688057D01*
X135669654Y-84708048D01*
X135655770Y-84726768D01*
X135640118Y-84744038D01*
X135622848Y-84759690D01*
X135604128Y-84773574D01*
X135584137Y-84785556D01*
X135563067Y-84795521D01*
X135541123Y-84803373D01*
X135518514Y-84809037D01*
X135495459Y-84812456D01*
X135472180Y-84813600D01*
X134997180Y-84813600D01*
X134973901Y-84812456D01*
X134950846Y-84809037D01*
X134928237Y-84803373D01*
X134906293Y-84795521D01*
X134885223Y-84785556D01*
X134865232Y-84773574D01*
X134846512Y-84759690D01*
X134829242Y-84744038D01*
X134813590Y-84726768D01*
X134799706Y-84708048D01*
X134787724Y-84688057D01*
X134777759Y-84666987D01*
X134769907Y-84645043D01*
X134764243Y-84622434D01*
X134760824Y-84599379D01*
X134759680Y-84576100D01*
X134759680Y-84001100D01*
X134760824Y-83977821D01*
X134764243Y-83954766D01*
X134769907Y-83932157D01*
X134777759Y-83910213D01*
X134787724Y-83889143D01*
X134799706Y-83869152D01*
X134813590Y-83850432D01*
X134829242Y-83833162D01*
X134846512Y-83817510D01*
X134865232Y-83803626D01*
X134885223Y-83791644D01*
X134906293Y-83781679D01*
X134928237Y-83773827D01*
X134950846Y-83768163D01*
X134973901Y-83764744D01*
X134997180Y-83763600D01*
X135472180Y-83763600D01*
X135495459Y-83764744D01*
G37*
G04 #@! TD.AperFunction*
G04 #@! TA.AperFunction,SMDPad,CuDef*
G36*
X135325279Y-78395244D02*
G01*
X135348334Y-78398663D01*
X135370943Y-78404327D01*
X135392887Y-78412179D01*
X135413957Y-78422144D01*
X135433948Y-78434126D01*
X135452668Y-78448010D01*
X135469938Y-78463662D01*
X135485590Y-78480932D01*
X135499474Y-78499652D01*
X135511456Y-78519643D01*
X135521421Y-78540713D01*
X135529273Y-78562657D01*
X135534937Y-78585266D01*
X135538356Y-78608321D01*
X135539500Y-78631600D01*
X135539500Y-79206600D01*
X135538356Y-79229879D01*
X135534937Y-79252934D01*
X135529273Y-79275543D01*
X135521421Y-79297487D01*
X135511456Y-79318557D01*
X135499474Y-79338548D01*
X135485590Y-79357268D01*
X135469938Y-79374538D01*
X135452668Y-79390190D01*
X135433948Y-79404074D01*
X135413957Y-79416056D01*
X135392887Y-79426021D01*
X135370943Y-79433873D01*
X135348334Y-79439537D01*
X135325279Y-79442956D01*
X135302000Y-79444100D01*
X134827000Y-79444100D01*
X134803721Y-79442956D01*
X134780666Y-79439537D01*
X134758057Y-79433873D01*
X134736113Y-79426021D01*
X134715043Y-79416056D01*
X134695052Y-79404074D01*
X134676332Y-79390190D01*
X134659062Y-79374538D01*
X134643410Y-79357268D01*
X134629526Y-79338548D01*
X134617544Y-79318557D01*
X134607579Y-79297487D01*
X134599727Y-79275543D01*
X134594063Y-79252934D01*
X134590644Y-79229879D01*
X134589500Y-79206600D01*
X134589500Y-78631600D01*
X134590644Y-78608321D01*
X134594063Y-78585266D01*
X134599727Y-78562657D01*
X134607579Y-78540713D01*
X134617544Y-78519643D01*
X134629526Y-78499652D01*
X134643410Y-78480932D01*
X134659062Y-78463662D01*
X134676332Y-78448010D01*
X134695052Y-78434126D01*
X134715043Y-78422144D01*
X134736113Y-78412179D01*
X134758057Y-78404327D01*
X134780666Y-78398663D01*
X134803721Y-78395244D01*
X134827000Y-78394100D01*
X135302000Y-78394100D01*
X135325279Y-78395244D01*
G37*
G04 #@! TD.AperFunction*
G04 #@! TA.AperFunction,SMDPad,CuDef*
G36*
X135325279Y-80145244D02*
G01*
X135348334Y-80148663D01*
X135370943Y-80154327D01*
X135392887Y-80162179D01*
X135413957Y-80172144D01*
X135433948Y-80184126D01*
X135452668Y-80198010D01*
X135469938Y-80213662D01*
X135485590Y-80230932D01*
X135499474Y-80249652D01*
X135511456Y-80269643D01*
X135521421Y-80290713D01*
X135529273Y-80312657D01*
X135534937Y-80335266D01*
X135538356Y-80358321D01*
X135539500Y-80381600D01*
X135539500Y-80956600D01*
X135538356Y-80979879D01*
X135534937Y-81002934D01*
X135529273Y-81025543D01*
X135521421Y-81047487D01*
X135511456Y-81068557D01*
X135499474Y-81088548D01*
X135485590Y-81107268D01*
X135469938Y-81124538D01*
X135452668Y-81140190D01*
X135433948Y-81154074D01*
X135413957Y-81166056D01*
X135392887Y-81176021D01*
X135370943Y-81183873D01*
X135348334Y-81189537D01*
X135325279Y-81192956D01*
X135302000Y-81194100D01*
X134827000Y-81194100D01*
X134803721Y-81192956D01*
X134780666Y-81189537D01*
X134758057Y-81183873D01*
X134736113Y-81176021D01*
X134715043Y-81166056D01*
X134695052Y-81154074D01*
X134676332Y-81140190D01*
X134659062Y-81124538D01*
X134643410Y-81107268D01*
X134629526Y-81088548D01*
X134617544Y-81068557D01*
X134607579Y-81047487D01*
X134599727Y-81025543D01*
X134594063Y-81002934D01*
X134590644Y-80979879D01*
X134589500Y-80956600D01*
X134589500Y-80381600D01*
X134590644Y-80358321D01*
X134594063Y-80335266D01*
X134599727Y-80312657D01*
X134607579Y-80290713D01*
X134617544Y-80269643D01*
X134629526Y-80249652D01*
X134643410Y-80230932D01*
X134659062Y-80213662D01*
X134676332Y-80198010D01*
X134695052Y-80184126D01*
X134715043Y-80172144D01*
X134736113Y-80162179D01*
X134758057Y-80154327D01*
X134780666Y-80148663D01*
X134803721Y-80145244D01*
X134827000Y-80144100D01*
X135302000Y-80144100D01*
X135325279Y-80145244D01*
G37*
G04 #@! TD.AperFunction*
D19*
X154300000Y-90600000D03*
D20*
X154427000Y-102030000D03*
X154427000Y-79170000D03*
D21*
X129513240Y-95041760D03*
X129513240Y-93141760D03*
X131883240Y-93141760D03*
X131883240Y-94091760D03*
X131883240Y-95041760D03*
D22*
X133224900Y-78856800D03*
X133224900Y-79806800D03*
X133224900Y-80756800D03*
X130604900Y-80756800D03*
X130604900Y-79806800D03*
X130604900Y-78856800D03*
G04 #@! TA.AperFunction,SMDPad,CuDef*
D12*
G36*
X133946059Y-82050304D02*
G01*
X133969114Y-82053723D01*
X133991723Y-82059387D01*
X134013667Y-82067239D01*
X134034737Y-82077204D01*
X134054728Y-82089186D01*
X134073448Y-82103070D01*
X134090718Y-82118722D01*
X134106370Y-82135992D01*
X134120254Y-82154712D01*
X134132236Y-82174703D01*
X134142201Y-82195773D01*
X134150053Y-82217717D01*
X134155717Y-82240326D01*
X134159136Y-82263381D01*
X134160280Y-82286660D01*
X134160280Y-82861660D01*
X134159136Y-82884939D01*
X134155717Y-82907994D01*
X134150053Y-82930603D01*
X134142201Y-82952547D01*
X134132236Y-82973617D01*
X134120254Y-82993608D01*
X134106370Y-83012328D01*
X134090718Y-83029598D01*
X134073448Y-83045250D01*
X134054728Y-83059134D01*
X134034737Y-83071116D01*
X134013667Y-83081081D01*
X133991723Y-83088933D01*
X133969114Y-83094597D01*
X133946059Y-83098016D01*
X133922780Y-83099160D01*
X133447780Y-83099160D01*
X133424501Y-83098016D01*
X133401446Y-83094597D01*
X133378837Y-83088933D01*
X133356893Y-83081081D01*
X133335823Y-83071116D01*
X133315832Y-83059134D01*
X133297112Y-83045250D01*
X133279842Y-83029598D01*
X133264190Y-83012328D01*
X133250306Y-82993608D01*
X133238324Y-82973617D01*
X133228359Y-82952547D01*
X133220507Y-82930603D01*
X133214843Y-82907994D01*
X133211424Y-82884939D01*
X133210280Y-82861660D01*
X133210280Y-82286660D01*
X133211424Y-82263381D01*
X133214843Y-82240326D01*
X133220507Y-82217717D01*
X133228359Y-82195773D01*
X133238324Y-82174703D01*
X133250306Y-82154712D01*
X133264190Y-82135992D01*
X133279842Y-82118722D01*
X133297112Y-82103070D01*
X133315832Y-82089186D01*
X133335823Y-82077204D01*
X133356893Y-82067239D01*
X133378837Y-82059387D01*
X133401446Y-82053723D01*
X133424501Y-82050304D01*
X133447780Y-82049160D01*
X133922780Y-82049160D01*
X133946059Y-82050304D01*
G37*
G04 #@! TD.AperFunction*
G04 #@! TA.AperFunction,SMDPad,CuDef*
G36*
X133946059Y-83800304D02*
G01*
X133969114Y-83803723D01*
X133991723Y-83809387D01*
X134013667Y-83817239D01*
X134034737Y-83827204D01*
X134054728Y-83839186D01*
X134073448Y-83853070D01*
X134090718Y-83868722D01*
X134106370Y-83885992D01*
X134120254Y-83904712D01*
X134132236Y-83924703D01*
X134142201Y-83945773D01*
X134150053Y-83967717D01*
X134155717Y-83990326D01*
X134159136Y-84013381D01*
X134160280Y-84036660D01*
X134160280Y-84611660D01*
X134159136Y-84634939D01*
X134155717Y-84657994D01*
X134150053Y-84680603D01*
X134142201Y-84702547D01*
X134132236Y-84723617D01*
X134120254Y-84743608D01*
X134106370Y-84762328D01*
X134090718Y-84779598D01*
X134073448Y-84795250D01*
X134054728Y-84809134D01*
X134034737Y-84821116D01*
X134013667Y-84831081D01*
X133991723Y-84838933D01*
X133969114Y-84844597D01*
X133946059Y-84848016D01*
X133922780Y-84849160D01*
X133447780Y-84849160D01*
X133424501Y-84848016D01*
X133401446Y-84844597D01*
X133378837Y-84838933D01*
X133356893Y-84831081D01*
X133335823Y-84821116D01*
X133315832Y-84809134D01*
X133297112Y-84795250D01*
X133279842Y-84779598D01*
X133264190Y-84762328D01*
X133250306Y-84743608D01*
X133238324Y-84723617D01*
X133228359Y-84702547D01*
X133220507Y-84680603D01*
X133214843Y-84657994D01*
X133211424Y-84634939D01*
X133210280Y-84611660D01*
X133210280Y-84036660D01*
X133211424Y-84013381D01*
X133214843Y-83990326D01*
X133220507Y-83967717D01*
X133228359Y-83945773D01*
X133238324Y-83924703D01*
X133250306Y-83904712D01*
X133264190Y-83885992D01*
X133279842Y-83868722D01*
X133297112Y-83853070D01*
X133315832Y-83839186D01*
X133335823Y-83827204D01*
X133356893Y-83817239D01*
X133378837Y-83809387D01*
X133401446Y-83803723D01*
X133424501Y-83800304D01*
X133447780Y-83799160D01*
X133922780Y-83799160D01*
X133946059Y-83800304D01*
G37*
G04 #@! TD.AperFunction*
D17*
X137327000Y-82835200D03*
X137327000Y-85635200D03*
G04 #@! TA.AperFunction,SMDPad,CuDef*
D12*
G36*
X131411579Y-96457624D02*
G01*
X131434634Y-96461043D01*
X131457243Y-96466707D01*
X131479187Y-96474559D01*
X131500257Y-96484524D01*
X131520248Y-96496506D01*
X131538968Y-96510390D01*
X131556238Y-96526042D01*
X131571890Y-96543312D01*
X131585774Y-96562032D01*
X131597756Y-96582023D01*
X131607721Y-96603093D01*
X131615573Y-96625037D01*
X131621237Y-96647646D01*
X131624656Y-96670701D01*
X131625800Y-96693980D01*
X131625800Y-97168980D01*
X131624656Y-97192259D01*
X131621237Y-97215314D01*
X131615573Y-97237923D01*
X131607721Y-97259867D01*
X131597756Y-97280937D01*
X131585774Y-97300928D01*
X131571890Y-97319648D01*
X131556238Y-97336918D01*
X131538968Y-97352570D01*
X131520248Y-97366454D01*
X131500257Y-97378436D01*
X131479187Y-97388401D01*
X131457243Y-97396253D01*
X131434634Y-97401917D01*
X131411579Y-97405336D01*
X131388300Y-97406480D01*
X130813300Y-97406480D01*
X130790021Y-97405336D01*
X130766966Y-97401917D01*
X130744357Y-97396253D01*
X130722413Y-97388401D01*
X130701343Y-97378436D01*
X130681352Y-97366454D01*
X130662632Y-97352570D01*
X130645362Y-97336918D01*
X130629710Y-97319648D01*
X130615826Y-97300928D01*
X130603844Y-97280937D01*
X130593879Y-97259867D01*
X130586027Y-97237923D01*
X130580363Y-97215314D01*
X130576944Y-97192259D01*
X130575800Y-97168980D01*
X130575800Y-96693980D01*
X130576944Y-96670701D01*
X130580363Y-96647646D01*
X130586027Y-96625037D01*
X130593879Y-96603093D01*
X130603844Y-96582023D01*
X130615826Y-96562032D01*
X130629710Y-96543312D01*
X130645362Y-96526042D01*
X130662632Y-96510390D01*
X130681352Y-96496506D01*
X130701343Y-96484524D01*
X130722413Y-96474559D01*
X130744357Y-96466707D01*
X130766966Y-96461043D01*
X130790021Y-96457624D01*
X130813300Y-96456480D01*
X131388300Y-96456480D01*
X131411579Y-96457624D01*
G37*
G04 #@! TD.AperFunction*
G04 #@! TA.AperFunction,SMDPad,CuDef*
G36*
X129661579Y-96457624D02*
G01*
X129684634Y-96461043D01*
X129707243Y-96466707D01*
X129729187Y-96474559D01*
X129750257Y-96484524D01*
X129770248Y-96496506D01*
X129788968Y-96510390D01*
X129806238Y-96526042D01*
X129821890Y-96543312D01*
X129835774Y-96562032D01*
X129847756Y-96582023D01*
X129857721Y-96603093D01*
X129865573Y-96625037D01*
X129871237Y-96647646D01*
X129874656Y-96670701D01*
X129875800Y-96693980D01*
X129875800Y-97168980D01*
X129874656Y-97192259D01*
X129871237Y-97215314D01*
X129865573Y-97237923D01*
X129857721Y-97259867D01*
X129847756Y-97280937D01*
X129835774Y-97300928D01*
X129821890Y-97319648D01*
X129806238Y-97336918D01*
X129788968Y-97352570D01*
X129770248Y-97366454D01*
X129750257Y-97378436D01*
X129729187Y-97388401D01*
X129707243Y-97396253D01*
X129684634Y-97401917D01*
X129661579Y-97405336D01*
X129638300Y-97406480D01*
X129063300Y-97406480D01*
X129040021Y-97405336D01*
X129016966Y-97401917D01*
X128994357Y-97396253D01*
X128972413Y-97388401D01*
X128951343Y-97378436D01*
X128931352Y-97366454D01*
X128912632Y-97352570D01*
X128895362Y-97336918D01*
X128879710Y-97319648D01*
X128865826Y-97300928D01*
X128853844Y-97280937D01*
X128843879Y-97259867D01*
X128836027Y-97237923D01*
X128830363Y-97215314D01*
X128826944Y-97192259D01*
X128825800Y-97168980D01*
X128825800Y-96693980D01*
X128826944Y-96670701D01*
X128830363Y-96647646D01*
X128836027Y-96625037D01*
X128843879Y-96603093D01*
X128853844Y-96582023D01*
X128865826Y-96562032D01*
X128879710Y-96543312D01*
X128895362Y-96526042D01*
X128912632Y-96510390D01*
X128931352Y-96496506D01*
X128951343Y-96484524D01*
X128972413Y-96474559D01*
X128994357Y-96466707D01*
X129016966Y-96461043D01*
X129040021Y-96457624D01*
X129063300Y-96456480D01*
X129638300Y-96456480D01*
X129661579Y-96457624D01*
G37*
G04 #@! TD.AperFunction*
G04 #@! TA.AperFunction,SMDPad,CuDef*
G36*
X132186279Y-81860244D02*
G01*
X132209334Y-81863663D01*
X132231943Y-81869327D01*
X132253887Y-81877179D01*
X132274957Y-81887144D01*
X132294948Y-81899126D01*
X132313668Y-81913010D01*
X132330938Y-81928662D01*
X132346590Y-81945932D01*
X132360474Y-81964652D01*
X132372456Y-81984643D01*
X132382421Y-82005713D01*
X132390273Y-82027657D01*
X132395937Y-82050266D01*
X132399356Y-82073321D01*
X132400500Y-82096600D01*
X132400500Y-82571600D01*
X132399356Y-82594879D01*
X132395937Y-82617934D01*
X132390273Y-82640543D01*
X132382421Y-82662487D01*
X132372456Y-82683557D01*
X132360474Y-82703548D01*
X132346590Y-82722268D01*
X132330938Y-82739538D01*
X132313668Y-82755190D01*
X132294948Y-82769074D01*
X132274957Y-82781056D01*
X132253887Y-82791021D01*
X132231943Y-82798873D01*
X132209334Y-82804537D01*
X132186279Y-82807956D01*
X132163000Y-82809100D01*
X131588000Y-82809100D01*
X131564721Y-82807956D01*
X131541666Y-82804537D01*
X131519057Y-82798873D01*
X131497113Y-82791021D01*
X131476043Y-82781056D01*
X131456052Y-82769074D01*
X131437332Y-82755190D01*
X131420062Y-82739538D01*
X131404410Y-82722268D01*
X131390526Y-82703548D01*
X131378544Y-82683557D01*
X131368579Y-82662487D01*
X131360727Y-82640543D01*
X131355063Y-82617934D01*
X131351644Y-82594879D01*
X131350500Y-82571600D01*
X131350500Y-82096600D01*
X131351644Y-82073321D01*
X131355063Y-82050266D01*
X131360727Y-82027657D01*
X131368579Y-82005713D01*
X131378544Y-81984643D01*
X131390526Y-81964652D01*
X131404410Y-81945932D01*
X131420062Y-81928662D01*
X131437332Y-81913010D01*
X131456052Y-81899126D01*
X131476043Y-81887144D01*
X131497113Y-81877179D01*
X131519057Y-81869327D01*
X131541666Y-81863663D01*
X131564721Y-81860244D01*
X131588000Y-81859100D01*
X132163000Y-81859100D01*
X132186279Y-81860244D01*
G37*
G04 #@! TD.AperFunction*
G04 #@! TA.AperFunction,SMDPad,CuDef*
G36*
X130436279Y-81860244D02*
G01*
X130459334Y-81863663D01*
X130481943Y-81869327D01*
X130503887Y-81877179D01*
X130524957Y-81887144D01*
X130544948Y-81899126D01*
X130563668Y-81913010D01*
X130580938Y-81928662D01*
X130596590Y-81945932D01*
X130610474Y-81964652D01*
X130622456Y-81984643D01*
X130632421Y-82005713D01*
X130640273Y-82027657D01*
X130645937Y-82050266D01*
X130649356Y-82073321D01*
X130650500Y-82096600D01*
X130650500Y-82571600D01*
X130649356Y-82594879D01*
X130645937Y-82617934D01*
X130640273Y-82640543D01*
X130632421Y-82662487D01*
X130622456Y-82683557D01*
X130610474Y-82703548D01*
X130596590Y-82722268D01*
X130580938Y-82739538D01*
X130563668Y-82755190D01*
X130544948Y-82769074D01*
X130524957Y-82781056D01*
X130503887Y-82791021D01*
X130481943Y-82798873D01*
X130459334Y-82804537D01*
X130436279Y-82807956D01*
X130413000Y-82809100D01*
X129838000Y-82809100D01*
X129814721Y-82807956D01*
X129791666Y-82804537D01*
X129769057Y-82798873D01*
X129747113Y-82791021D01*
X129726043Y-82781056D01*
X129706052Y-82769074D01*
X129687332Y-82755190D01*
X129670062Y-82739538D01*
X129654410Y-82722268D01*
X129640526Y-82703548D01*
X129628544Y-82683557D01*
X129618579Y-82662487D01*
X129610727Y-82640543D01*
X129605063Y-82617934D01*
X129601644Y-82594879D01*
X129600500Y-82571600D01*
X129600500Y-82096600D01*
X129601644Y-82073321D01*
X129605063Y-82050266D01*
X129610727Y-82027657D01*
X129618579Y-82005713D01*
X129628544Y-81984643D01*
X129640526Y-81964652D01*
X129654410Y-81945932D01*
X129670062Y-81928662D01*
X129687332Y-81913010D01*
X129706052Y-81899126D01*
X129726043Y-81887144D01*
X129747113Y-81877179D01*
X129769057Y-81869327D01*
X129791666Y-81863663D01*
X129814721Y-81860244D01*
X129838000Y-81859100D01*
X130413000Y-81859100D01*
X130436279Y-81860244D01*
G37*
G04 #@! TD.AperFunction*
D23*
X161061400Y-90738960D03*
X147838160Y-89824560D03*
X133718300Y-77419200D03*
X137513700Y-84249900D03*
X131927600Y-79151480D03*
X134122160Y-102834440D03*
X129438400Y-91907360D03*
X131495800Y-97917000D03*
X130733800Y-93959680D03*
X133903720Y-98430080D03*
X129987040Y-86126320D03*
X137439400Y-95422720D03*
X130030607Y-96014153D03*
X138917680Y-92588080D03*
X140345160Y-80319880D03*
X139430760Y-96072960D03*
X135539480Y-102809040D03*
X135646160Y-101513640D03*
X128935480Y-90048080D03*
X132804462Y-91529881D03*
X136399993Y-95856513D03*
X134836207Y-95369687D03*
D24*
X137802001Y-79790201D02*
X137727000Y-79715200D01*
X137727000Y-79715200D02*
X137727000Y-78935200D01*
X139471999Y-79790201D02*
X137802001Y-79790201D01*
X135418399Y-79790201D02*
X135064500Y-80144100D01*
X135064500Y-80144100D02*
X135064500Y-80669100D01*
X137802001Y-79790201D02*
X135418399Y-79790201D01*
X130604900Y-79806800D02*
X130604900Y-80756800D01*
X131570700Y-81722600D02*
X130604900Y-80756800D01*
X131570700Y-82346800D02*
X131570700Y-81722600D01*
X139471999Y-82241601D02*
X139306300Y-82407300D01*
X135802000Y-84610200D02*
X135327000Y-84610200D01*
X137153400Y-84610200D02*
X135802000Y-84610200D01*
X138831300Y-82932300D02*
X137513700Y-84249900D01*
X139306300Y-82932300D02*
X138831300Y-82932300D01*
X132059299Y-77419200D02*
X132021199Y-77381100D01*
X133718300Y-77419200D02*
X132059299Y-77419200D01*
X133985000Y-77152500D02*
X133718300Y-77419200D01*
X137701401Y-77152500D02*
X133985000Y-77152500D01*
X137513700Y-84249900D02*
X137153400Y-84610200D01*
X131927600Y-79434100D02*
X130604900Y-80756800D01*
X131927600Y-79151480D02*
X131927600Y-79434100D01*
X129141020Y-103037920D02*
X128096800Y-101993700D01*
X132093920Y-103037920D02*
X129141020Y-103037920D01*
X132393920Y-102737920D02*
X132093920Y-103037920D01*
X132490440Y-102834440D02*
X132393920Y-102737920D01*
X134122160Y-102834440D02*
X132490440Y-102834440D01*
X139481361Y-82232239D02*
X139306300Y-82407300D01*
X139481361Y-79799563D02*
X139481361Y-82232239D01*
X139306300Y-82407300D02*
X139306300Y-82932300D01*
X139471999Y-79790201D02*
X139481361Y-79799563D01*
X134122160Y-102268755D02*
X134122160Y-102834440D01*
X134122160Y-100308150D02*
X134122160Y-102268755D01*
X137478510Y-96951800D02*
X134122160Y-100308150D01*
X137908000Y-96951800D02*
X137478510Y-96951800D01*
X130959860Y-91470480D02*
X131442460Y-91470480D01*
X131593680Y-94101920D02*
X130723680Y-94101920D01*
X131442460Y-91470480D02*
X129875280Y-91470480D01*
X129875280Y-91470480D02*
X129438400Y-91907360D01*
X131100800Y-96931480D02*
X131100800Y-97522000D01*
X131100800Y-97522000D02*
X131495800Y-97917000D01*
X128096800Y-101993700D02*
X126796800Y-101993700D01*
X128171810Y-101918690D02*
X128096800Y-101993700D01*
X128171810Y-98574948D02*
X128171810Y-101918690D01*
X128829758Y-97917000D02*
X128171810Y-98574948D01*
X131495800Y-97917000D02*
X128829758Y-97917000D01*
X130733800Y-93393995D02*
X130733800Y-93959680D01*
X130733800Y-92708540D02*
X130733800Y-93393995D01*
X131442460Y-91999880D02*
X130733800Y-92708540D01*
X131442460Y-91470480D02*
X131442460Y-91999880D01*
D25*
X131021201Y-76631101D02*
X131021201Y-77381100D01*
X131199802Y-76452500D02*
X131021201Y-76631101D01*
X151387000Y-79170000D02*
X148669500Y-76452500D01*
X148669500Y-76452500D02*
X131199802Y-76452500D01*
X131021201Y-78440499D02*
X130604900Y-78856800D01*
X131021201Y-77381100D02*
X131021201Y-78440499D01*
D24*
X129744900Y-78856800D02*
X130604900Y-78856800D01*
X129669899Y-78931801D02*
X129744900Y-78856800D01*
X129669899Y-81327299D02*
X129669899Y-78931801D01*
X130214400Y-81871800D02*
X129669899Y-81327299D01*
X130214400Y-82346800D02*
X130214400Y-81871800D01*
X130125500Y-84711000D02*
X129949700Y-84886800D01*
X130125500Y-82334100D02*
X130125500Y-84711000D01*
X133025120Y-96906080D02*
X133025120Y-97551480D01*
X133025120Y-97551480D02*
X133903720Y-98430080D01*
X129987040Y-84924140D02*
X129949700Y-84886800D01*
X129987040Y-86126320D02*
X129987040Y-84924140D01*
D25*
X151387000Y-79170000D02*
X154427000Y-79170000D01*
X144959999Y-85597001D02*
X151387000Y-79170000D01*
X144959999Y-95083201D02*
X144959999Y-85597001D01*
X149816799Y-99940001D02*
X144959999Y-95083201D01*
X154107001Y-99940001D02*
X149816799Y-99940001D01*
X154427000Y-100260000D02*
X154107001Y-99940001D01*
X154427000Y-102030000D02*
X154427000Y-100260000D01*
D24*
X128825800Y-96931480D02*
X129350800Y-96931480D01*
X129223680Y-93151920D02*
X129223680Y-93676920D01*
X138902440Y-94950040D02*
X137912080Y-94950040D01*
X137912080Y-94950040D02*
X137439400Y-95422720D01*
X128278679Y-94469161D02*
X128278679Y-96384359D01*
X129070920Y-93676920D02*
X128278679Y-94469161D01*
X128278679Y-96384359D02*
X128825800Y-96931480D01*
X129223680Y-93676920D02*
X129070920Y-93676920D01*
X129350800Y-96931480D02*
X129350800Y-96693960D01*
X129350800Y-96693960D02*
X130030607Y-96014153D01*
X136777000Y-78155200D02*
X136777000Y-78935200D01*
X136852001Y-78080199D02*
X136777000Y-78155200D01*
X135080600Y-78935200D02*
X135064500Y-78919100D01*
X136777000Y-78935200D02*
X135080600Y-78935200D01*
D25*
X140682599Y-79133700D02*
X138701399Y-77152500D01*
X142006800Y-79133700D02*
X140682599Y-79133700D01*
X138677000Y-77176899D02*
X138701399Y-77152500D01*
D24*
X135002200Y-78856800D02*
X135064500Y-78919100D01*
X133224900Y-78856800D02*
X135002200Y-78856800D01*
D25*
X138701399Y-78805239D02*
X138831360Y-78935200D01*
X138701399Y-77152500D02*
X138701399Y-78805239D01*
X138831360Y-78220198D02*
X138831360Y-78935200D01*
X138566361Y-77955199D02*
X138831360Y-78220198D01*
X136977001Y-77955199D02*
X138566361Y-77955199D01*
X136852001Y-78080199D02*
X136977001Y-77955199D01*
X136852001Y-78855841D02*
X136931360Y-78935200D01*
X136852001Y-78080199D02*
X136852001Y-78855841D01*
D24*
X138902440Y-93650040D02*
X138902440Y-92603320D01*
X138902440Y-92603320D02*
X138917680Y-92588080D01*
X140820620Y-80319880D02*
X142006800Y-79133700D01*
X140345160Y-80319880D02*
X140820620Y-80319880D01*
X141958100Y-81625000D02*
X142006800Y-81673700D01*
X142033100Y-81700000D02*
X142006800Y-81673700D01*
X136527000Y-85635200D02*
X137327000Y-85635200D01*
X134120800Y-85635200D02*
X136527000Y-85635200D01*
X133705600Y-85220000D02*
X134120800Y-85635200D01*
X139306300Y-85207300D02*
X139306300Y-84682300D01*
X138878400Y-85635200D02*
X139306300Y-85207300D01*
X137327000Y-85635200D02*
X138878400Y-85635200D01*
X141906800Y-81673700D02*
X142006800Y-81673700D01*
X139306300Y-84274200D02*
X141906800Y-81673700D01*
X139306300Y-84682300D02*
X139306300Y-84274200D01*
X133705600Y-85417310D02*
X133705600Y-85220000D01*
X132561109Y-86561801D02*
X133705600Y-85417310D01*
X131174699Y-86496801D02*
X131239699Y-86561801D01*
X131239699Y-86561801D02*
X132561109Y-86561801D01*
X131174699Y-85176799D02*
X131174699Y-86496801D01*
X133705600Y-85220000D02*
X133705600Y-84695000D01*
X131949700Y-84401798D02*
X131174699Y-85176799D01*
X131949700Y-83936800D02*
X131949700Y-84401798D01*
X143306800Y-81673700D02*
X142006800Y-81673700D01*
X144856200Y-80124300D02*
X143306800Y-81673700D01*
X144856200Y-77769480D02*
X144856200Y-80124300D01*
X139306300Y-87086440D02*
X138732260Y-87660480D01*
X139306300Y-84682300D02*
X139306300Y-87086440D01*
X140269271Y-88204679D02*
X140269271Y-98784089D01*
X139725072Y-87660480D02*
X140269271Y-88204679D01*
X139931160Y-99122200D02*
X139456160Y-99122200D01*
X140269271Y-98784089D02*
X139931160Y-99122200D01*
X138732260Y-87660480D02*
X139725072Y-87660480D01*
X139456160Y-99122200D02*
X139456160Y-100826600D01*
X137538200Y-99122200D02*
X137343920Y-98927920D01*
X139456160Y-99122200D02*
X137538200Y-99122200D01*
X135352000Y-82835200D02*
X135327000Y-82860200D01*
X137327000Y-82835200D02*
X135352000Y-82835200D01*
X138831360Y-81915200D02*
X138831360Y-81135200D01*
X137911360Y-82835200D02*
X138831360Y-81915200D01*
X137327000Y-82835200D02*
X137911360Y-82835200D01*
X141980500Y-94400000D02*
X142006800Y-94373700D01*
X137272800Y-102809040D02*
X137343920Y-102737920D01*
X135539480Y-102809040D02*
X137272800Y-102809040D01*
X139430760Y-97346800D02*
X139456160Y-97372200D01*
X139430760Y-96072960D02*
X139430760Y-97346800D01*
X137872480Y-101467920D02*
X137343920Y-101467920D01*
X138981160Y-102576600D02*
X137872480Y-101467920D01*
X139456160Y-102576600D02*
X138981160Y-102576600D01*
X137343920Y-101467920D02*
X135691880Y-101467920D01*
X135691880Y-101467920D02*
X135646160Y-101513640D01*
X139744260Y-90200480D02*
X138732260Y-90200480D01*
X139819261Y-90125479D02*
X139744260Y-90200480D01*
X139754261Y-88326079D02*
X139819261Y-88391079D01*
X139819261Y-88391079D02*
X139819261Y-90125479D01*
X130398451Y-89534881D02*
X136501457Y-89534881D01*
X128274681Y-87411111D02*
X130398451Y-89534881D01*
X137710259Y-88326079D02*
X139754261Y-88326079D01*
X128274680Y-84391580D02*
X128274681Y-87411111D01*
X136501457Y-89534881D02*
X137710259Y-88326079D01*
X128096800Y-84213700D02*
X128274680Y-84391580D01*
X126796800Y-84213700D02*
X128096800Y-84213700D01*
X126896800Y-89293700D02*
X126796800Y-89293700D01*
X126796800Y-89293700D02*
X128181100Y-89293700D01*
X128181100Y-89293700D02*
X128935480Y-90048080D01*
X138672859Y-91529881D02*
X138732260Y-91470480D01*
X132804462Y-91529881D02*
X138672859Y-91529881D01*
X130430460Y-88930480D02*
X131442460Y-88930480D01*
X128724690Y-87224710D02*
X130430460Y-88930480D01*
X128724690Y-82301590D02*
X128724690Y-87224710D01*
X128096800Y-81673700D02*
X128724690Y-82301590D01*
X126796800Y-81673700D02*
X128096800Y-81673700D01*
X129174699Y-80211599D02*
X129174699Y-86404719D01*
X128096800Y-79133700D02*
X129174699Y-80211599D01*
X130430460Y-87660480D02*
X131442460Y-87660480D01*
X129174699Y-86404719D02*
X130430460Y-87660480D01*
X126796800Y-79133700D02*
X128096800Y-79133700D01*
X130427640Y-90200480D02*
X130430460Y-90200480D01*
X126980860Y-86753700D02*
X130427640Y-90200480D01*
X130430460Y-90200480D02*
X131442460Y-90200480D01*
X126796800Y-86753700D02*
X126980860Y-86753700D01*
X126896800Y-91833700D02*
X126796800Y-91833700D01*
X136375259Y-90804881D02*
X138249660Y-88930480D01*
X129125619Y-90804881D02*
X136375259Y-90804881D01*
X138249660Y-88930480D02*
X138732260Y-88930480D01*
X128096800Y-91833700D02*
X129125619Y-90804881D01*
X126796800Y-91833700D02*
X128096800Y-91833700D01*
X132654898Y-79806800D02*
X132289899Y-80171799D01*
X133224900Y-79806800D02*
X132654898Y-79806800D01*
X132725510Y-85760990D02*
X132649700Y-85836800D01*
X132649700Y-85836800D02*
X131949700Y-85836800D01*
X132725510Y-81777412D02*
X132725510Y-85760990D01*
X132289899Y-81341801D02*
X132725510Y-81777412D01*
X132289899Y-80171799D02*
X132289899Y-81341801D01*
X133230600Y-82945000D02*
X133705600Y-82945000D01*
X133224900Y-82939300D02*
X133230600Y-82945000D01*
X133224900Y-80756800D02*
X133224900Y-82939300D01*
X131418920Y-100197920D02*
X132393920Y-100197920D01*
X130283840Y-100197920D02*
X131418920Y-100197920D01*
X129844800Y-100636960D02*
X130283840Y-100197920D01*
X129844800Y-101386960D02*
X129844800Y-100636960D01*
X129885760Y-98927920D02*
X129844800Y-98886960D01*
X129967040Y-99009200D02*
X129844800Y-98886960D01*
X132388840Y-99009200D02*
X129967040Y-99009200D01*
X136158000Y-96476800D02*
X136158000Y-96951800D01*
X130093680Y-95051920D02*
X130872830Y-95831070D01*
X129223680Y-95051920D02*
X130093680Y-95051920D01*
X136158000Y-96951800D02*
X136158000Y-96098506D01*
X136158000Y-96098506D02*
X136399993Y-95856513D01*
X130934214Y-95769686D02*
X130872830Y-95831070D01*
X134436208Y-95769686D02*
X130934214Y-95769686D01*
X134836207Y-95369687D02*
X134436208Y-95769686D01*
X132701800Y-93151920D02*
X133448600Y-93898720D01*
X131593680Y-93151920D02*
X132701800Y-93151920D01*
X136248600Y-94982600D02*
X136248600Y-93898720D01*
X134325120Y-96906080D02*
X136248600Y-94982600D01*
D26*
G36*
X150135421Y-79170000D02*
G01*
X144364951Y-84940471D01*
X144331183Y-84968184D01*
X144303470Y-85001952D01*
X144303467Y-85001955D01*
X144220589Y-85102942D01*
X144138411Y-85256688D01*
X144087804Y-85423511D01*
X144070718Y-85597001D01*
X144075000Y-85640480D01*
X144074999Y-95039732D01*
X144070718Y-95083201D01*
X144074999Y-95126670D01*
X144074999Y-95126677D01*
X144084157Y-95219663D01*
X144087804Y-95256691D01*
X144093312Y-95274847D01*
X144138410Y-95423513D01*
X144220588Y-95577259D01*
X144331182Y-95712018D01*
X144364955Y-95739735D01*
X149160269Y-100535050D01*
X149187982Y-100568818D01*
X149221750Y-100596531D01*
X149221752Y-100596533D01*
X149278104Y-100642780D01*
X149322740Y-100679412D01*
X149476486Y-100761590D01*
X149643309Y-100812196D01*
X149773322Y-100825001D01*
X149773332Y-100825001D01*
X149816798Y-100829282D01*
X149860264Y-100825001D01*
X151248928Y-100825001D01*
X151248928Y-103300000D01*
X151252868Y-103340000D01*
X142937872Y-103340000D01*
X142957417Y-103330105D01*
X143201792Y-103138479D01*
X143404087Y-102902860D01*
X143556528Y-102632303D01*
X143647386Y-102366288D01*
X143527384Y-102120700D01*
X142133800Y-102120700D01*
X142133800Y-102140700D01*
X141879800Y-102140700D01*
X141879800Y-102120700D01*
X141859800Y-102120700D01*
X141859800Y-101866700D01*
X141879800Y-101866700D01*
X141879800Y-101846700D01*
X142133800Y-101846700D01*
X142133800Y-101866700D01*
X143527384Y-101866700D01*
X143647386Y-101621112D01*
X143556528Y-101355097D01*
X143404087Y-101084540D01*
X143201792Y-100848921D01*
X143050104Y-100729975D01*
X143232987Y-100579887D01*
X143431056Y-100338539D01*
X143578234Y-100063188D01*
X143668866Y-99764414D01*
X143699469Y-99453700D01*
X143668866Y-99142986D01*
X143578234Y-98844212D01*
X143431056Y-98568861D01*
X143232987Y-98327513D01*
X143057750Y-98183700D01*
X143232987Y-98039887D01*
X143431056Y-97798539D01*
X143578234Y-97523188D01*
X143668866Y-97224414D01*
X143699469Y-96913700D01*
X143668866Y-96602986D01*
X143578234Y-96304212D01*
X143431056Y-96028861D01*
X143232987Y-95787513D01*
X143057750Y-95643700D01*
X143232987Y-95499887D01*
X143431056Y-95258539D01*
X143578234Y-94983188D01*
X143668866Y-94684414D01*
X143699469Y-94373700D01*
X143668866Y-94062986D01*
X143578234Y-93764212D01*
X143431056Y-93488861D01*
X143232987Y-93247513D01*
X143057750Y-93103700D01*
X143232987Y-92959887D01*
X143431056Y-92718539D01*
X143578234Y-92443188D01*
X143668866Y-92144414D01*
X143699469Y-91833700D01*
X143668866Y-91522986D01*
X143578234Y-91224212D01*
X143431056Y-90948861D01*
X143232987Y-90707513D01*
X143057750Y-90563700D01*
X143232987Y-90419887D01*
X143431056Y-90178539D01*
X143578234Y-89903188D01*
X143668866Y-89604414D01*
X143699469Y-89293700D01*
X143668866Y-88982986D01*
X143578234Y-88684212D01*
X143431056Y-88408861D01*
X143232987Y-88167513D01*
X143057750Y-88023700D01*
X143232987Y-87879887D01*
X143431056Y-87638539D01*
X143578234Y-87363188D01*
X143668866Y-87064414D01*
X143699469Y-86753700D01*
X143668866Y-86442986D01*
X143578234Y-86144212D01*
X143431056Y-85868861D01*
X143232987Y-85627513D01*
X143050104Y-85477425D01*
X143201792Y-85358479D01*
X143404087Y-85122860D01*
X143556528Y-84852303D01*
X143647386Y-84586288D01*
X143527384Y-84340700D01*
X142133800Y-84340700D01*
X142133800Y-84360700D01*
X141879800Y-84360700D01*
X141879800Y-84340700D01*
X141859800Y-84340700D01*
X141859800Y-84086700D01*
X141879800Y-84086700D01*
X141879800Y-84066700D01*
X142133800Y-84066700D01*
X142133800Y-84086700D01*
X143527384Y-84086700D01*
X143647386Y-83841112D01*
X143556528Y-83575097D01*
X143404087Y-83304540D01*
X143201792Y-83068921D01*
X143050104Y-82949975D01*
X143232987Y-82799887D01*
X143431056Y-82558539D01*
X143512926Y-82405370D01*
X143599047Y-82379246D01*
X143731076Y-82308674D01*
X143846801Y-82213701D01*
X143870603Y-82184698D01*
X145367208Y-80688095D01*
X145396201Y-80664301D01*
X145419995Y-80635308D01*
X145419999Y-80635304D01*
X145491173Y-80548577D01*
X145491742Y-80547513D01*
X145561746Y-80416547D01*
X145605203Y-80273286D01*
X145616200Y-80161633D01*
X145616200Y-80161624D01*
X145619876Y-80124301D01*
X145616200Y-80086978D01*
X145616200Y-78840454D01*
X145642839Y-78832373D01*
X145733395Y-78794864D01*
X145843712Y-78735898D01*
X145925211Y-78681442D01*
X146021902Y-78602090D01*
X146091210Y-78532782D01*
X146170562Y-78436091D01*
X146225018Y-78354592D01*
X146283984Y-78244275D01*
X146321493Y-78153719D01*
X146357802Y-78034023D01*
X146376924Y-77937890D01*
X146389184Y-77813409D01*
X146389184Y-77788850D01*
X146391592Y-77764400D01*
X146391592Y-77337500D01*
X148302922Y-77337500D01*
X150135421Y-79170000D01*
G37*
X150135421Y-79170000D02*
X144364951Y-84940471D01*
X144331183Y-84968184D01*
X144303470Y-85001952D01*
X144303467Y-85001955D01*
X144220589Y-85102942D01*
X144138411Y-85256688D01*
X144087804Y-85423511D01*
X144070718Y-85597001D01*
X144075000Y-85640480D01*
X144074999Y-95039732D01*
X144070718Y-95083201D01*
X144074999Y-95126670D01*
X144074999Y-95126677D01*
X144084157Y-95219663D01*
X144087804Y-95256691D01*
X144093312Y-95274847D01*
X144138410Y-95423513D01*
X144220588Y-95577259D01*
X144331182Y-95712018D01*
X144364955Y-95739735D01*
X149160269Y-100535050D01*
X149187982Y-100568818D01*
X149221750Y-100596531D01*
X149221752Y-100596533D01*
X149278104Y-100642780D01*
X149322740Y-100679412D01*
X149476486Y-100761590D01*
X149643309Y-100812196D01*
X149773322Y-100825001D01*
X149773332Y-100825001D01*
X149816798Y-100829282D01*
X149860264Y-100825001D01*
X151248928Y-100825001D01*
X151248928Y-103300000D01*
X151252868Y-103340000D01*
X142937872Y-103340000D01*
X142957417Y-103330105D01*
X143201792Y-103138479D01*
X143404087Y-102902860D01*
X143556528Y-102632303D01*
X143647386Y-102366288D01*
X143527384Y-102120700D01*
X142133800Y-102120700D01*
X142133800Y-102140700D01*
X141879800Y-102140700D01*
X141879800Y-102120700D01*
X141859800Y-102120700D01*
X141859800Y-101866700D01*
X141879800Y-101866700D01*
X141879800Y-101846700D01*
X142133800Y-101846700D01*
X142133800Y-101866700D01*
X143527384Y-101866700D01*
X143647386Y-101621112D01*
X143556528Y-101355097D01*
X143404087Y-101084540D01*
X143201792Y-100848921D01*
X143050104Y-100729975D01*
X143232987Y-100579887D01*
X143431056Y-100338539D01*
X143578234Y-100063188D01*
X143668866Y-99764414D01*
X143699469Y-99453700D01*
X143668866Y-99142986D01*
X143578234Y-98844212D01*
X143431056Y-98568861D01*
X143232987Y-98327513D01*
X143057750Y-98183700D01*
X143232987Y-98039887D01*
X143431056Y-97798539D01*
X143578234Y-97523188D01*
X143668866Y-97224414D01*
X143699469Y-96913700D01*
X143668866Y-96602986D01*
X143578234Y-96304212D01*
X143431056Y-96028861D01*
X143232987Y-95787513D01*
X143057750Y-95643700D01*
X143232987Y-95499887D01*
X143431056Y-95258539D01*
X143578234Y-94983188D01*
X143668866Y-94684414D01*
X143699469Y-94373700D01*
X143668866Y-94062986D01*
X143578234Y-93764212D01*
X143431056Y-93488861D01*
X143232987Y-93247513D01*
X143057750Y-93103700D01*
X143232987Y-92959887D01*
X143431056Y-92718539D01*
X143578234Y-92443188D01*
X143668866Y-92144414D01*
X143699469Y-91833700D01*
X143668866Y-91522986D01*
X143578234Y-91224212D01*
X143431056Y-90948861D01*
X143232987Y-90707513D01*
X143057750Y-90563700D01*
X143232987Y-90419887D01*
X143431056Y-90178539D01*
X143578234Y-89903188D01*
X143668866Y-89604414D01*
X143699469Y-89293700D01*
X143668866Y-88982986D01*
X143578234Y-88684212D01*
X143431056Y-88408861D01*
X143232987Y-88167513D01*
X143057750Y-88023700D01*
X143232987Y-87879887D01*
X143431056Y-87638539D01*
X143578234Y-87363188D01*
X143668866Y-87064414D01*
X143699469Y-86753700D01*
X143668866Y-86442986D01*
X143578234Y-86144212D01*
X143431056Y-85868861D01*
X143232987Y-85627513D01*
X143050104Y-85477425D01*
X143201792Y-85358479D01*
X143404087Y-85122860D01*
X143556528Y-84852303D01*
X143647386Y-84586288D01*
X143527384Y-84340700D01*
X142133800Y-84340700D01*
X142133800Y-84360700D01*
X141879800Y-84360700D01*
X141879800Y-84340700D01*
X141859800Y-84340700D01*
X141859800Y-84086700D01*
X141879800Y-84086700D01*
X141879800Y-84066700D01*
X142133800Y-84066700D01*
X142133800Y-84086700D01*
X143527384Y-84086700D01*
X143647386Y-83841112D01*
X143556528Y-83575097D01*
X143404087Y-83304540D01*
X143201792Y-83068921D01*
X143050104Y-82949975D01*
X143232987Y-82799887D01*
X143431056Y-82558539D01*
X143512926Y-82405370D01*
X143599047Y-82379246D01*
X143731076Y-82308674D01*
X143846801Y-82213701D01*
X143870603Y-82184698D01*
X145367208Y-80688095D01*
X145396201Y-80664301D01*
X145419995Y-80635308D01*
X145419999Y-80635304D01*
X145491173Y-80548577D01*
X145491742Y-80547513D01*
X145561746Y-80416547D01*
X145605203Y-80273286D01*
X145616200Y-80161633D01*
X145616200Y-80161624D01*
X145619876Y-80124301D01*
X145616200Y-80086978D01*
X145616200Y-78840454D01*
X145642839Y-78832373D01*
X145733395Y-78794864D01*
X145843712Y-78735898D01*
X145925211Y-78681442D01*
X146021902Y-78602090D01*
X146091210Y-78532782D01*
X146170562Y-78436091D01*
X146225018Y-78354592D01*
X146283984Y-78244275D01*
X146321493Y-78153719D01*
X146357802Y-78034023D01*
X146376924Y-77937890D01*
X146389184Y-77813409D01*
X146389184Y-77788850D01*
X146391592Y-77764400D01*
X146391592Y-77337500D01*
X148302922Y-77337500D01*
X150135421Y-79170000D01*
G36*
X164340001Y-103340000D02*
G01*
X157601132Y-103340000D01*
X157605072Y-103300000D01*
X157605072Y-100760000D01*
X157592812Y-100635518D01*
X157556502Y-100515820D01*
X157497537Y-100405506D01*
X157418185Y-100308815D01*
X157321494Y-100229463D01*
X157211180Y-100170498D01*
X157091482Y-100134188D01*
X156967000Y-100121928D01*
X155302683Y-100121928D01*
X155299195Y-100086510D01*
X155296556Y-100077811D01*
X155922553Y-100032551D01*
X157731576Y-99534763D01*
X159408725Y-98693616D01*
X159822503Y-98417138D01*
X160865119Y-97344724D01*
X154300000Y-90779605D01*
X154285858Y-90793748D01*
X154106253Y-90614143D01*
X154120395Y-90600000D01*
X154479605Y-90600000D01*
X161044724Y-97165119D01*
X162117138Y-96122503D01*
X163044321Y-94491342D01*
X163635465Y-92710638D01*
X163867852Y-90848824D01*
X163732551Y-88977447D01*
X163234763Y-87168424D01*
X162393616Y-85491275D01*
X162117138Y-85077497D01*
X161044724Y-84034881D01*
X154479605Y-90600000D01*
X154120395Y-90600000D01*
X154106253Y-90585858D01*
X154285858Y-90406253D01*
X154300000Y-90420395D01*
X160865119Y-83855276D01*
X159822503Y-82782862D01*
X158191342Y-81855679D01*
X156410638Y-81264535D01*
X154916753Y-81078072D01*
X156967000Y-81078072D01*
X157091482Y-81065812D01*
X157211180Y-81029502D01*
X157321494Y-80970537D01*
X157418185Y-80891185D01*
X157497537Y-80794494D01*
X157556502Y-80684180D01*
X157592812Y-80564482D01*
X157605072Y-80440000D01*
X157605072Y-77900000D01*
X157592812Y-77775518D01*
X157556502Y-77655820D01*
X157497537Y-77545506D01*
X157418185Y-77448815D01*
X157321494Y-77369463D01*
X157211180Y-77310498D01*
X157091482Y-77274188D01*
X156967000Y-77261928D01*
X151887000Y-77261928D01*
X151762518Y-77274188D01*
X151642820Y-77310498D01*
X151532506Y-77369463D01*
X151435815Y-77448815D01*
X151356463Y-77545506D01*
X151297498Y-77655820D01*
X151261188Y-77775518D01*
X151259656Y-77791077D01*
X149528578Y-76060000D01*
X164340000Y-76060000D01*
X164340001Y-103340000D01*
G37*
X164340001Y-103340000D02*
X157601132Y-103340000D01*
X157605072Y-103300000D01*
X157605072Y-100760000D01*
X157592812Y-100635518D01*
X157556502Y-100515820D01*
X157497537Y-100405506D01*
X157418185Y-100308815D01*
X157321494Y-100229463D01*
X157211180Y-100170498D01*
X157091482Y-100134188D01*
X156967000Y-100121928D01*
X155302683Y-100121928D01*
X155299195Y-100086510D01*
X155296556Y-100077811D01*
X155922553Y-100032551D01*
X157731576Y-99534763D01*
X159408725Y-98693616D01*
X159822503Y-98417138D01*
X160865119Y-97344724D01*
X154300000Y-90779605D01*
X154285858Y-90793748D01*
X154106253Y-90614143D01*
X154120395Y-90600000D01*
X154479605Y-90600000D01*
X161044724Y-97165119D01*
X162117138Y-96122503D01*
X163044321Y-94491342D01*
X163635465Y-92710638D01*
X163867852Y-90848824D01*
X163732551Y-88977447D01*
X163234763Y-87168424D01*
X162393616Y-85491275D01*
X162117138Y-85077497D01*
X161044724Y-84034881D01*
X154479605Y-90600000D01*
X154120395Y-90600000D01*
X154106253Y-90585858D01*
X154285858Y-90406253D01*
X154300000Y-90420395D01*
X160865119Y-83855276D01*
X159822503Y-82782862D01*
X158191342Y-81855679D01*
X156410638Y-81264535D01*
X154916753Y-81078072D01*
X156967000Y-81078072D01*
X157091482Y-81065812D01*
X157211180Y-81029502D01*
X157321494Y-80970537D01*
X157418185Y-80891185D01*
X157497537Y-80794494D01*
X157556502Y-80684180D01*
X157592812Y-80564482D01*
X157605072Y-80440000D01*
X157605072Y-77900000D01*
X157592812Y-77775518D01*
X157556502Y-77655820D01*
X157497537Y-77545506D01*
X157418185Y-77448815D01*
X157321494Y-77369463D01*
X157211180Y-77310498D01*
X157091482Y-77274188D01*
X156967000Y-77261928D01*
X151887000Y-77261928D01*
X151762518Y-77274188D01*
X151642820Y-77310498D01*
X151532506Y-77369463D01*
X151435815Y-77448815D01*
X151356463Y-77545506D01*
X151297498Y-77655820D01*
X151261188Y-77775518D01*
X151259656Y-77791077D01*
X149528578Y-76060000D01*
X164340000Y-76060000D01*
X164340001Y-103340000D01*
G36*
X130281790Y-76137043D02*
G01*
X130199612Y-76290789D01*
X130164358Y-76407005D01*
X130150557Y-76452500D01*
X130149006Y-76457612D01*
X130136201Y-76587625D01*
X130136201Y-76587632D01*
X130131920Y-76631101D01*
X130136201Y-76674570D01*
X130136201Y-76878500D01*
X130131700Y-76886921D01*
X130095390Y-77006619D01*
X130083130Y-77131101D01*
X130083130Y-77631099D01*
X130095390Y-77755581D01*
X130131700Y-77875279D01*
X130136201Y-77883701D01*
X130136201Y-77893728D01*
X129994900Y-77893728D01*
X129870418Y-77905988D01*
X129750720Y-77942298D01*
X129640406Y-78001263D01*
X129543715Y-78080615D01*
X129496711Y-78137889D01*
X129452653Y-78151254D01*
X129320624Y-78221826D01*
X129204899Y-78316799D01*
X129181099Y-78345799D01*
X129158895Y-78368004D01*
X129129899Y-78391800D01*
X129106101Y-78420798D01*
X129106100Y-78420799D01*
X129034925Y-78507525D01*
X128964353Y-78639555D01*
X128941694Y-78714256D01*
X128920897Y-78782815D01*
X128913690Y-78855988D01*
X128911915Y-78874013D01*
X128660603Y-78622702D01*
X128636801Y-78593699D01*
X128521076Y-78498726D01*
X128484872Y-78479374D01*
X128484872Y-78183700D01*
X128472612Y-78059218D01*
X128436302Y-77939520D01*
X128377337Y-77829206D01*
X128297985Y-77732515D01*
X128201294Y-77653163D01*
X128090980Y-77594198D01*
X127971282Y-77557888D01*
X127846800Y-77545628D01*
X125746800Y-77545628D01*
X125622318Y-77557888D01*
X125502620Y-77594198D01*
X125392306Y-77653163D01*
X125295615Y-77732515D01*
X125216263Y-77829206D01*
X125157298Y-77939520D01*
X125120988Y-78059218D01*
X125108728Y-78183700D01*
X125108728Y-80083700D01*
X125120988Y-80208182D01*
X125157298Y-80327880D01*
X125216263Y-80438194D01*
X125295615Y-80534885D01*
X125392306Y-80614237D01*
X125478183Y-80660140D01*
X125372544Y-80788861D01*
X125225366Y-81064212D01*
X125134734Y-81362986D01*
X125104131Y-81673700D01*
X125134734Y-81984414D01*
X125225366Y-82283188D01*
X125372544Y-82558539D01*
X125570613Y-82799887D01*
X125745850Y-82943700D01*
X125570613Y-83087513D01*
X125372544Y-83328861D01*
X125225366Y-83604212D01*
X125134734Y-83902986D01*
X125104131Y-84213700D01*
X125134734Y-84524414D01*
X125225366Y-84823188D01*
X125372544Y-85098539D01*
X125570613Y-85339887D01*
X125745850Y-85483700D01*
X125570613Y-85627513D01*
X125372544Y-85868861D01*
X125225366Y-86144212D01*
X125134734Y-86442986D01*
X125104131Y-86753700D01*
X125134734Y-87064414D01*
X125225366Y-87363188D01*
X125372544Y-87638539D01*
X125570613Y-87879887D01*
X125745850Y-88023700D01*
X125570613Y-88167513D01*
X125372544Y-88408861D01*
X125225366Y-88684212D01*
X125134734Y-88982986D01*
X125104131Y-89293700D01*
X125134734Y-89604414D01*
X125225366Y-89903188D01*
X125372544Y-90178539D01*
X125570613Y-90419887D01*
X125745850Y-90563700D01*
X125570613Y-90707513D01*
X125372544Y-90948861D01*
X125225366Y-91224212D01*
X125134734Y-91522986D01*
X125104131Y-91833700D01*
X125134734Y-92144414D01*
X125225366Y-92443188D01*
X125372544Y-92718539D01*
X125570613Y-92959887D01*
X125745850Y-93103700D01*
X125570613Y-93247513D01*
X125372544Y-93488861D01*
X125225366Y-93764212D01*
X125134734Y-94062986D01*
X125104131Y-94373700D01*
X125134734Y-94684414D01*
X125225366Y-94983188D01*
X125372544Y-95258539D01*
X125570613Y-95499887D01*
X125745850Y-95643700D01*
X125570613Y-95787513D01*
X125372544Y-96028861D01*
X125225366Y-96304212D01*
X125134734Y-96602986D01*
X125104131Y-96913700D01*
X125134734Y-97224414D01*
X125225366Y-97523188D01*
X125372544Y-97798539D01*
X125570613Y-98039887D01*
X125745850Y-98183700D01*
X125570613Y-98327513D01*
X125372544Y-98568861D01*
X125225366Y-98844212D01*
X125134734Y-99142986D01*
X125104131Y-99453700D01*
X125134734Y-99764414D01*
X125225366Y-100063188D01*
X125372544Y-100338539D01*
X125570613Y-100579887D01*
X125753496Y-100729975D01*
X125601808Y-100848921D01*
X125399513Y-101084540D01*
X125247072Y-101355097D01*
X125156214Y-101621112D01*
X125276216Y-101866700D01*
X126669800Y-101866700D01*
X126669800Y-101846700D01*
X126923800Y-101846700D01*
X126923800Y-101866700D01*
X126943800Y-101866700D01*
X126943800Y-102120700D01*
X126923800Y-102120700D01*
X126923800Y-102140700D01*
X126669800Y-102140700D01*
X126669800Y-102120700D01*
X125276216Y-102120700D01*
X125156214Y-102366288D01*
X125247072Y-102632303D01*
X125399513Y-102902860D01*
X125601808Y-103138479D01*
X125846183Y-103330105D01*
X125865728Y-103340000D01*
X124960000Y-103340000D01*
X124960000Y-76060000D01*
X130345018Y-76060000D01*
X130281790Y-76137043D01*
G37*
X130281790Y-76137043D02*
X130199612Y-76290789D01*
X130164358Y-76407005D01*
X130150557Y-76452500D01*
X130149006Y-76457612D01*
X130136201Y-76587625D01*
X130136201Y-76587632D01*
X130131920Y-76631101D01*
X130136201Y-76674570D01*
X130136201Y-76878500D01*
X130131700Y-76886921D01*
X130095390Y-77006619D01*
X130083130Y-77131101D01*
X130083130Y-77631099D01*
X130095390Y-77755581D01*
X130131700Y-77875279D01*
X130136201Y-77883701D01*
X130136201Y-77893728D01*
X129994900Y-77893728D01*
X129870418Y-77905988D01*
X129750720Y-77942298D01*
X129640406Y-78001263D01*
X129543715Y-78080615D01*
X129496711Y-78137889D01*
X129452653Y-78151254D01*
X129320624Y-78221826D01*
X129204899Y-78316799D01*
X129181099Y-78345799D01*
X129158895Y-78368004D01*
X129129899Y-78391800D01*
X129106101Y-78420798D01*
X129106100Y-78420799D01*
X129034925Y-78507525D01*
X128964353Y-78639555D01*
X128941694Y-78714256D01*
X128920897Y-78782815D01*
X128913690Y-78855988D01*
X128911915Y-78874013D01*
X128660603Y-78622702D01*
X128636801Y-78593699D01*
X128521076Y-78498726D01*
X128484872Y-78479374D01*
X128484872Y-78183700D01*
X128472612Y-78059218D01*
X128436302Y-77939520D01*
X128377337Y-77829206D01*
X128297985Y-77732515D01*
X128201294Y-77653163D01*
X128090980Y-77594198D01*
X127971282Y-77557888D01*
X127846800Y-77545628D01*
X125746800Y-77545628D01*
X125622318Y-77557888D01*
X125502620Y-77594198D01*
X125392306Y-77653163D01*
X125295615Y-77732515D01*
X125216263Y-77829206D01*
X125157298Y-77939520D01*
X125120988Y-78059218D01*
X125108728Y-78183700D01*
X125108728Y-80083700D01*
X125120988Y-80208182D01*
X125157298Y-80327880D01*
X125216263Y-80438194D01*
X125295615Y-80534885D01*
X125392306Y-80614237D01*
X125478183Y-80660140D01*
X125372544Y-80788861D01*
X125225366Y-81064212D01*
X125134734Y-81362986D01*
X125104131Y-81673700D01*
X125134734Y-81984414D01*
X125225366Y-82283188D01*
X125372544Y-82558539D01*
X125570613Y-82799887D01*
X125745850Y-82943700D01*
X125570613Y-83087513D01*
X125372544Y-83328861D01*
X125225366Y-83604212D01*
X125134734Y-83902986D01*
X125104131Y-84213700D01*
X125134734Y-84524414D01*
X125225366Y-84823188D01*
X125372544Y-85098539D01*
X125570613Y-85339887D01*
X125745850Y-85483700D01*
X125570613Y-85627513D01*
X125372544Y-85868861D01*
X125225366Y-86144212D01*
X125134734Y-86442986D01*
X125104131Y-86753700D01*
X125134734Y-87064414D01*
X125225366Y-87363188D01*
X125372544Y-87638539D01*
X125570613Y-87879887D01*
X125745850Y-88023700D01*
X125570613Y-88167513D01*
X125372544Y-88408861D01*
X125225366Y-88684212D01*
X125134734Y-88982986D01*
X125104131Y-89293700D01*
X125134734Y-89604414D01*
X125225366Y-89903188D01*
X125372544Y-90178539D01*
X125570613Y-90419887D01*
X125745850Y-90563700D01*
X125570613Y-90707513D01*
X125372544Y-90948861D01*
X125225366Y-91224212D01*
X125134734Y-91522986D01*
X125104131Y-91833700D01*
X125134734Y-92144414D01*
X125225366Y-92443188D01*
X125372544Y-92718539D01*
X125570613Y-92959887D01*
X125745850Y-93103700D01*
X125570613Y-93247513D01*
X125372544Y-93488861D01*
X125225366Y-93764212D01*
X125134734Y-94062986D01*
X125104131Y-94373700D01*
X125134734Y-94684414D01*
X125225366Y-94983188D01*
X125372544Y-95258539D01*
X125570613Y-95499887D01*
X125745850Y-95643700D01*
X125570613Y-95787513D01*
X125372544Y-96028861D01*
X125225366Y-96304212D01*
X125134734Y-96602986D01*
X125104131Y-96913700D01*
X125134734Y-97224414D01*
X125225366Y-97523188D01*
X125372544Y-97798539D01*
X125570613Y-98039887D01*
X125745850Y-98183700D01*
X125570613Y-98327513D01*
X125372544Y-98568861D01*
X125225366Y-98844212D01*
X125134734Y-99142986D01*
X125104131Y-99453700D01*
X125134734Y-99764414D01*
X125225366Y-100063188D01*
X125372544Y-100338539D01*
X125570613Y-100579887D01*
X125753496Y-100729975D01*
X125601808Y-100848921D01*
X125399513Y-101084540D01*
X125247072Y-101355097D01*
X125156214Y-101621112D01*
X125276216Y-101866700D01*
X126669800Y-101866700D01*
X126669800Y-101846700D01*
X126923800Y-101846700D01*
X126923800Y-101866700D01*
X126943800Y-101866700D01*
X126943800Y-102120700D01*
X126923800Y-102120700D01*
X126923800Y-102140700D01*
X126669800Y-102140700D01*
X126669800Y-102120700D01*
X125276216Y-102120700D01*
X125156214Y-102366288D01*
X125247072Y-102632303D01*
X125399513Y-102902860D01*
X125601808Y-103138479D01*
X125846183Y-103330105D01*
X125865728Y-103340000D01*
X124960000Y-103340000D01*
X124960000Y-76060000D01*
X130345018Y-76060000D01*
X130281790Y-76137043D01*
G36*
X138035000Y-96824800D02*
G01*
X138055000Y-96824800D01*
X138055000Y-97078800D01*
X138035000Y-97078800D01*
X138035000Y-97903050D01*
X138193750Y-98061800D01*
X138433000Y-98064872D01*
X138446498Y-98063543D01*
X138489494Y-98143983D01*
X138465422Y-98131116D01*
X138317585Y-98086271D01*
X138163840Y-98071128D01*
X136513840Y-98071128D01*
X136360095Y-98086271D01*
X136212258Y-98131116D01*
X136076011Y-98203942D01*
X135956589Y-98301949D01*
X135858582Y-98421371D01*
X135785756Y-98557618D01*
X135740911Y-98705455D01*
X135725768Y-98859200D01*
X135725768Y-99159200D01*
X135740911Y-99312945D01*
X135785756Y-99460782D01*
X135858582Y-99597029D01*
X135897294Y-99644200D01*
X135858582Y-99691371D01*
X135785756Y-99827618D01*
X135740911Y-99975455D01*
X135725768Y-100129200D01*
X135725768Y-100429200D01*
X135730638Y-100478640D01*
X135544221Y-100478640D01*
X135344262Y-100518414D01*
X135155904Y-100596435D01*
X134986386Y-100709703D01*
X134842223Y-100853866D01*
X134728955Y-101023384D01*
X134650934Y-101211742D01*
X134611160Y-101411701D01*
X134611160Y-101615579D01*
X134650934Y-101815538D01*
X134728955Y-102003896D01*
X134789821Y-102094988D01*
X134735543Y-102149266D01*
X134622275Y-102318784D01*
X134544254Y-102507142D01*
X134504480Y-102707101D01*
X134504480Y-102910979D01*
X134544254Y-103110938D01*
X134622275Y-103299296D01*
X134649472Y-103340000D01*
X133960434Y-103340000D01*
X133989652Y-103243682D01*
X134001912Y-103119200D01*
X133998840Y-103104950D01*
X133840090Y-102946200D01*
X132515840Y-102946200D01*
X132515840Y-102966200D01*
X132261840Y-102966200D01*
X132261840Y-102946200D01*
X130937590Y-102946200D01*
X130778840Y-103104950D01*
X130775768Y-103119200D01*
X130788028Y-103243682D01*
X130817246Y-103340000D01*
X127727872Y-103340000D01*
X127747417Y-103330105D01*
X127991792Y-103138479D01*
X128194087Y-102902860D01*
X128346528Y-102632303D01*
X128437386Y-102366288D01*
X128317385Y-102120702D01*
X128352132Y-102120702D01*
X128355298Y-102131140D01*
X128414263Y-102241454D01*
X128493615Y-102338145D01*
X128590306Y-102417497D01*
X128700620Y-102476462D01*
X128820318Y-102512772D01*
X128944800Y-102525032D01*
X130744800Y-102525032D01*
X130776355Y-102521924D01*
X130778840Y-102533450D01*
X130937590Y-102692200D01*
X132261840Y-102692200D01*
X132261840Y-102672200D01*
X132515840Y-102672200D01*
X132515840Y-102692200D01*
X133840090Y-102692200D01*
X133998840Y-102533450D01*
X134001912Y-102519200D01*
X133989652Y-102394718D01*
X133953342Y-102275020D01*
X133894377Y-102164706D01*
X133870110Y-102135136D01*
X133941924Y-102000782D01*
X133986769Y-101852945D01*
X134001912Y-101699200D01*
X134001912Y-101399200D01*
X133986769Y-101245455D01*
X133941924Y-101097618D01*
X133869098Y-100961371D01*
X133830386Y-100914200D01*
X133869098Y-100867029D01*
X133941924Y-100730782D01*
X133986769Y-100582945D01*
X134001912Y-100429200D01*
X134001912Y-100129200D01*
X133986769Y-99975455D01*
X133941924Y-99827618D01*
X133869098Y-99691371D01*
X133830386Y-99644200D01*
X133869098Y-99597029D01*
X133939627Y-99465080D01*
X134005659Y-99465080D01*
X134205618Y-99425306D01*
X134393976Y-99347285D01*
X134563494Y-99234017D01*
X134707657Y-99089854D01*
X134820925Y-98920336D01*
X134898946Y-98731978D01*
X134938720Y-98532019D01*
X134938720Y-98328141D01*
X134900410Y-98135543D01*
X134915312Y-98127578D01*
X134996811Y-98073122D01*
X135093502Y-97993770D01*
X135162810Y-97924462D01*
X135242162Y-97827771D01*
X135253775Y-97810391D01*
X135384058Y-97917312D01*
X135535433Y-97998223D01*
X135699684Y-98048048D01*
X135870500Y-98064872D01*
X136445500Y-98064872D01*
X136616316Y-98048048D01*
X136780567Y-97998223D01*
X136931942Y-97917312D01*
X136955839Y-97897701D01*
X137028506Y-97957337D01*
X137138820Y-98016302D01*
X137258518Y-98052612D01*
X137383000Y-98064872D01*
X137622250Y-98061800D01*
X137781000Y-97903050D01*
X137781000Y-97078800D01*
X137761000Y-97078800D01*
X137761000Y-96824800D01*
X137781000Y-96824800D01*
X137781000Y-96804800D01*
X138035000Y-96804800D01*
X138035000Y-96824800D01*
G37*
X138035000Y-96824800D02*
X138055000Y-96824800D01*
X138055000Y-97078800D01*
X138035000Y-97078800D01*
X138035000Y-97903050D01*
X138193750Y-98061800D01*
X138433000Y-98064872D01*
X138446498Y-98063543D01*
X138489494Y-98143983D01*
X138465422Y-98131116D01*
X138317585Y-98086271D01*
X138163840Y-98071128D01*
X136513840Y-98071128D01*
X136360095Y-98086271D01*
X136212258Y-98131116D01*
X136076011Y-98203942D01*
X135956589Y-98301949D01*
X135858582Y-98421371D01*
X135785756Y-98557618D01*
X135740911Y-98705455D01*
X135725768Y-98859200D01*
X135725768Y-99159200D01*
X135740911Y-99312945D01*
X135785756Y-99460782D01*
X135858582Y-99597029D01*
X135897294Y-99644200D01*
X135858582Y-99691371D01*
X135785756Y-99827618D01*
X135740911Y-99975455D01*
X135725768Y-100129200D01*
X135725768Y-100429200D01*
X135730638Y-100478640D01*
X135544221Y-100478640D01*
X135344262Y-100518414D01*
X135155904Y-100596435D01*
X134986386Y-100709703D01*
X134842223Y-100853866D01*
X134728955Y-101023384D01*
X134650934Y-101211742D01*
X134611160Y-101411701D01*
X134611160Y-101615579D01*
X134650934Y-101815538D01*
X134728955Y-102003896D01*
X134789821Y-102094988D01*
X134735543Y-102149266D01*
X134622275Y-102318784D01*
X134544254Y-102507142D01*
X134504480Y-102707101D01*
X134504480Y-102910979D01*
X134544254Y-103110938D01*
X134622275Y-103299296D01*
X134649472Y-103340000D01*
X133960434Y-103340000D01*
X133989652Y-103243682D01*
X134001912Y-103119200D01*
X133998840Y-103104950D01*
X133840090Y-102946200D01*
X132515840Y-102946200D01*
X132515840Y-102966200D01*
X132261840Y-102966200D01*
X132261840Y-102946200D01*
X130937590Y-102946200D01*
X130778840Y-103104950D01*
X130775768Y-103119200D01*
X130788028Y-103243682D01*
X130817246Y-103340000D01*
X127727872Y-103340000D01*
X127747417Y-103330105D01*
X127991792Y-103138479D01*
X128194087Y-102902860D01*
X128346528Y-102632303D01*
X128437386Y-102366288D01*
X128317385Y-102120702D01*
X128352132Y-102120702D01*
X128355298Y-102131140D01*
X128414263Y-102241454D01*
X128493615Y-102338145D01*
X128590306Y-102417497D01*
X128700620Y-102476462D01*
X128820318Y-102512772D01*
X128944800Y-102525032D01*
X130744800Y-102525032D01*
X130776355Y-102521924D01*
X130778840Y-102533450D01*
X130937590Y-102692200D01*
X132261840Y-102692200D01*
X132261840Y-102672200D01*
X132515840Y-102672200D01*
X132515840Y-102692200D01*
X133840090Y-102692200D01*
X133998840Y-102533450D01*
X134001912Y-102519200D01*
X133989652Y-102394718D01*
X133953342Y-102275020D01*
X133894377Y-102164706D01*
X133870110Y-102135136D01*
X133941924Y-102000782D01*
X133986769Y-101852945D01*
X134001912Y-101699200D01*
X134001912Y-101399200D01*
X133986769Y-101245455D01*
X133941924Y-101097618D01*
X133869098Y-100961371D01*
X133830386Y-100914200D01*
X133869098Y-100867029D01*
X133941924Y-100730782D01*
X133986769Y-100582945D01*
X134001912Y-100429200D01*
X134001912Y-100129200D01*
X133986769Y-99975455D01*
X133941924Y-99827618D01*
X133869098Y-99691371D01*
X133830386Y-99644200D01*
X133869098Y-99597029D01*
X133939627Y-99465080D01*
X134005659Y-99465080D01*
X134205618Y-99425306D01*
X134393976Y-99347285D01*
X134563494Y-99234017D01*
X134707657Y-99089854D01*
X134820925Y-98920336D01*
X134898946Y-98731978D01*
X134938720Y-98532019D01*
X134938720Y-98328141D01*
X134900410Y-98135543D01*
X134915312Y-98127578D01*
X134996811Y-98073122D01*
X135093502Y-97993770D01*
X135162810Y-97924462D01*
X135242162Y-97827771D01*
X135253775Y-97810391D01*
X135384058Y-97917312D01*
X135535433Y-97998223D01*
X135699684Y-98048048D01*
X135870500Y-98064872D01*
X136445500Y-98064872D01*
X136616316Y-98048048D01*
X136780567Y-97998223D01*
X136931942Y-97917312D01*
X136955839Y-97897701D01*
X137028506Y-97957337D01*
X137138820Y-98016302D01*
X137258518Y-98052612D01*
X137383000Y-98064872D01*
X137622250Y-98061800D01*
X137781000Y-97903050D01*
X137781000Y-97078800D01*
X137761000Y-97078800D01*
X137761000Y-96824800D01*
X137781000Y-96824800D01*
X137781000Y-96804800D01*
X138035000Y-96804800D01*
X138035000Y-96824800D01*
G36*
X128335288Y-97655422D02*
G01*
X128444177Y-97788103D01*
X128558865Y-97882226D01*
X128493615Y-97935775D01*
X128414263Y-98032466D01*
X128355298Y-98142780D01*
X128318988Y-98262478D01*
X128306728Y-98386960D01*
X128306728Y-98729142D01*
X128221056Y-98568861D01*
X128022987Y-98327513D01*
X127847750Y-98183700D01*
X128022987Y-98039887D01*
X128221056Y-97798539D01*
X128316421Y-97620124D01*
X128335288Y-97655422D01*
G37*
X128335288Y-97655422D02*
X128444177Y-97788103D01*
X128558865Y-97882226D01*
X128493615Y-97935775D01*
X128414263Y-98032466D01*
X128355298Y-98142780D01*
X128318988Y-98262478D01*
X128306728Y-98386960D01*
X128306728Y-98729142D01*
X128221056Y-98568861D01*
X128022987Y-98327513D01*
X127847750Y-98183700D01*
X128022987Y-98039887D01*
X128221056Y-97798539D01*
X128316421Y-97620124D01*
X128335288Y-97655422D01*
G36*
X132108078Y-97827771D02*
G01*
X132187430Y-97924462D01*
X132256738Y-97993770D01*
X132350999Y-98071128D01*
X131563840Y-98071128D01*
X131410095Y-98086271D01*
X131318886Y-98113939D01*
X131275337Y-98032466D01*
X131227802Y-97974544D01*
X131227802Y-97882732D01*
X131386550Y-98041480D01*
X131625800Y-98044552D01*
X131750282Y-98032292D01*
X131869980Y-97995982D01*
X131980294Y-97937017D01*
X132076985Y-97857665D01*
X132105134Y-97823365D01*
X132108078Y-97827771D01*
G37*
X132108078Y-97827771D02*
X132187430Y-97924462D01*
X132256738Y-97993770D01*
X132350999Y-98071128D01*
X131563840Y-98071128D01*
X131410095Y-98086271D01*
X131318886Y-98113939D01*
X131275337Y-98032466D01*
X131227802Y-97974544D01*
X131227802Y-97882732D01*
X131386550Y-98041480D01*
X131625800Y-98044552D01*
X131750282Y-98032292D01*
X131869980Y-97995982D01*
X131980294Y-97937017D01*
X132076985Y-97857665D01*
X132105134Y-97823365D01*
X132108078Y-97827771D01*
G36*
X131227800Y-96804480D02*
G01*
X131247800Y-96804480D01*
X131247800Y-97058480D01*
X131227800Y-97058480D01*
X131227800Y-97078480D01*
X130973800Y-97078480D01*
X130973800Y-97058480D01*
X130953800Y-97058480D01*
X130953800Y-96804480D01*
X130973800Y-96804480D01*
X130973800Y-96784480D01*
X131227800Y-96784480D01*
X131227800Y-96804480D01*
G37*
X131227800Y-96804480D02*
X131247800Y-96804480D01*
X131247800Y-97058480D01*
X131227800Y-97058480D01*
X131227800Y-97078480D01*
X130973800Y-97078480D01*
X130973800Y-97058480D01*
X130953800Y-97058480D01*
X130953800Y-96804480D01*
X130973800Y-96804480D01*
X130973800Y-96784480D01*
X131227800Y-96784480D01*
X131227800Y-96804480D01*
G36*
X130786990Y-93964760D02*
G01*
X130941416Y-93964760D01*
X131019060Y-94006262D01*
X131138758Y-94042572D01*
X131263240Y-94054832D01*
X132030240Y-94054832D01*
X132030240Y-94128688D01*
X131263240Y-94128688D01*
X131138758Y-94140948D01*
X131019060Y-94177258D01*
X130941416Y-94218760D01*
X130786990Y-94218760D01*
X130632092Y-94373658D01*
X130584425Y-94315575D01*
X130487734Y-94236223D01*
X130377420Y-94177258D01*
X130257722Y-94140948D01*
X130133240Y-94128688D01*
X129836092Y-94128688D01*
X129858654Y-94101196D01*
X129883436Y-94054832D01*
X130133240Y-94054832D01*
X130257722Y-94042572D01*
X130377420Y-94006262D01*
X130487734Y-93947297D01*
X130584425Y-93867945D01*
X130632092Y-93809862D01*
X130786990Y-93964760D01*
G37*
X130786990Y-93964760D02*
X130941416Y-93964760D01*
X131019060Y-94006262D01*
X131138758Y-94042572D01*
X131263240Y-94054832D01*
X132030240Y-94054832D01*
X132030240Y-94128688D01*
X131263240Y-94128688D01*
X131138758Y-94140948D01*
X131019060Y-94177258D01*
X130941416Y-94218760D01*
X130786990Y-94218760D01*
X130632092Y-94373658D01*
X130584425Y-94315575D01*
X130487734Y-94236223D01*
X130377420Y-94177258D01*
X130257722Y-94140948D01*
X130133240Y-94128688D01*
X129836092Y-94128688D01*
X129858654Y-94101196D01*
X129883436Y-94054832D01*
X130133240Y-94054832D01*
X130257722Y-94042572D01*
X130377420Y-94006262D01*
X130487734Y-93947297D01*
X130584425Y-93867945D01*
X130632092Y-93809862D01*
X130786990Y-93964760D01*
G36*
X130045460Y-91597482D02*
G01*
X130204208Y-91597482D01*
X130045460Y-91756230D01*
X130055017Y-91876202D01*
X130091679Y-91995792D01*
X130150967Y-92105933D01*
X130230604Y-92202390D01*
X130289797Y-92250678D01*
X130257722Y-92240948D01*
X130133240Y-92228688D01*
X128893240Y-92228688D01*
X128768758Y-92240948D01*
X128762435Y-92242866D01*
X129440421Y-91564881D01*
X130045460Y-91564881D01*
X130045460Y-91597482D01*
G37*
X130045460Y-91597482D02*
X130204208Y-91597482D01*
X130045460Y-91756230D01*
X130055017Y-91876202D01*
X130091679Y-91995792D01*
X130150967Y-92105933D01*
X130230604Y-92202390D01*
X130289797Y-92250678D01*
X130257722Y-92240948D01*
X130133240Y-92228688D01*
X128893240Y-92228688D01*
X128768758Y-92240948D01*
X128762435Y-92242866D01*
X129440421Y-91564881D01*
X130045460Y-91564881D01*
X130045460Y-91597482D01*
G36*
X138360399Y-83884461D02*
G01*
X138340788Y-83908358D01*
X138259877Y-84059733D01*
X138210052Y-84223984D01*
X138193228Y-84394800D01*
X138193228Y-84534209D01*
X138121180Y-84495698D01*
X138001482Y-84459388D01*
X137877000Y-84447128D01*
X136777000Y-84447128D01*
X136652518Y-84459388D01*
X136532820Y-84495698D01*
X136422506Y-84554663D01*
X136345241Y-84618072D01*
X136344680Y-84574350D01*
X136185930Y-84415600D01*
X135361680Y-84415600D01*
X135361680Y-84435600D01*
X135107680Y-84435600D01*
X135107680Y-84415600D01*
X135087680Y-84415600D01*
X135087680Y-84161600D01*
X135107680Y-84161600D01*
X135107680Y-84141600D01*
X135361680Y-84141600D01*
X135361680Y-84161600D01*
X136185930Y-84161600D01*
X136344680Y-84002850D01*
X136346598Y-83853441D01*
X136422506Y-83915737D01*
X136532820Y-83974702D01*
X136652518Y-84011012D01*
X136777000Y-84023272D01*
X137877000Y-84023272D01*
X138001482Y-84011012D01*
X138121180Y-83974702D01*
X138231494Y-83915737D01*
X138323858Y-83839936D01*
X138360399Y-83884461D01*
G37*
X138360399Y-83884461D02*
X138340788Y-83908358D01*
X138259877Y-84059733D01*
X138210052Y-84223984D01*
X138193228Y-84394800D01*
X138193228Y-84534209D01*
X138121180Y-84495698D01*
X138001482Y-84459388D01*
X137877000Y-84447128D01*
X136777000Y-84447128D01*
X136652518Y-84459388D01*
X136532820Y-84495698D01*
X136422506Y-84554663D01*
X136345241Y-84618072D01*
X136344680Y-84574350D01*
X136185930Y-84415600D01*
X135361680Y-84415600D01*
X135361680Y-84435600D01*
X135107680Y-84435600D01*
X135107680Y-84415600D01*
X135087680Y-84415600D01*
X135087680Y-84161600D01*
X135107680Y-84161600D01*
X135107680Y-84141600D01*
X135361680Y-84141600D01*
X135361680Y-84161600D01*
X136185930Y-84161600D01*
X136344680Y-84002850D01*
X136346598Y-83853441D01*
X136422506Y-83915737D01*
X136532820Y-83974702D01*
X136652518Y-84011012D01*
X136777000Y-84023272D01*
X137877000Y-84023272D01*
X138001482Y-84011012D01*
X138121180Y-83974702D01*
X138231494Y-83915737D01*
X138323858Y-83839936D01*
X138360399Y-83884461D01*
G36*
X139433300Y-82805300D02*
G01*
X139453300Y-82805300D01*
X139453300Y-83052399D01*
X139446399Y-83059300D01*
X139433300Y-83059300D01*
X139433300Y-83072399D01*
X139426399Y-83079300D01*
X139179300Y-83079300D01*
X139179300Y-83059300D01*
X139159300Y-83059300D01*
X139159300Y-82805300D01*
X139179300Y-82805300D01*
X139179300Y-82785300D01*
X139433300Y-82785300D01*
X139433300Y-82805300D01*
G37*
X139433300Y-82805300D02*
X139453300Y-82805300D01*
X139453300Y-83052399D01*
X139446399Y-83059300D01*
X139433300Y-83059300D01*
X139433300Y-83072399D01*
X139426399Y-83079300D01*
X139179300Y-83079300D01*
X139179300Y-83059300D01*
X139159300Y-83059300D01*
X139159300Y-82805300D01*
X139179300Y-82805300D01*
X139179300Y-82785300D01*
X139433300Y-82785300D01*
X139433300Y-82805300D01*
G36*
X131965510Y-82481100D02*
G01*
X131748500Y-82481100D01*
X131748500Y-82461100D01*
X131728500Y-82461100D01*
X131728500Y-82207100D01*
X131748500Y-82207100D01*
X131748500Y-82187100D01*
X131965510Y-82187100D01*
X131965510Y-82481100D01*
G37*
X131965510Y-82481100D02*
X131748500Y-82481100D01*
X131748500Y-82461100D01*
X131728500Y-82461100D01*
X131728500Y-82207100D01*
X131748500Y-82207100D01*
X131748500Y-82187100D01*
X131965510Y-82187100D01*
X131965510Y-82481100D01*
G36*
X130731900Y-80629800D02*
G01*
X130751900Y-80629800D01*
X130751900Y-80883800D01*
X130731900Y-80883800D01*
X130731900Y-80903800D01*
X130477900Y-80903800D01*
X130477900Y-80883800D01*
X130457900Y-80883800D01*
X130457900Y-80629800D01*
X130477900Y-80629800D01*
X130477900Y-80609800D01*
X130731900Y-80609800D01*
X130731900Y-80629800D01*
G37*
X130731900Y-80629800D02*
X130751900Y-80629800D01*
X130751900Y-80883800D01*
X130731900Y-80883800D01*
X130731900Y-80903800D01*
X130477900Y-80903800D01*
X130477900Y-80883800D01*
X130457900Y-80883800D01*
X130457900Y-80629800D01*
X130477900Y-80629800D01*
X130477900Y-80609800D01*
X130731900Y-80609800D01*
X130731900Y-80629800D01*
G36*
X135191500Y-80542100D02*
G01*
X135211500Y-80542100D01*
X135211500Y-80796100D01*
X135191500Y-80796100D01*
X135191500Y-80816100D01*
X134937500Y-80816100D01*
X134937500Y-80796100D01*
X134917500Y-80796100D01*
X134917500Y-80542100D01*
X134937500Y-80542100D01*
X134937500Y-80522100D01*
X135191500Y-80522100D01*
X135191500Y-80542100D01*
G37*
X135191500Y-80542100D02*
X135211500Y-80542100D01*
X135211500Y-80796100D01*
X135191500Y-80796100D01*
X135191500Y-80816100D01*
X134937500Y-80816100D01*
X134937500Y-80796100D01*
X134917500Y-80796100D01*
X134917500Y-80542100D01*
X134937500Y-80542100D01*
X134937500Y-80522100D01*
X135191500Y-80522100D01*
X135191500Y-80542100D01*
G36*
X137916858Y-79709380D02*
G01*
X137975823Y-79819694D01*
X138008360Y-79859341D01*
X138008360Y-79941450D01*
X138146213Y-80079303D01*
X138055175Y-80154015D01*
X137975823Y-80250706D01*
X137916858Y-80361020D01*
X137881360Y-80478041D01*
X137845862Y-80361020D01*
X137786897Y-80250706D01*
X137707545Y-80154015D01*
X137616507Y-80079303D01*
X137754360Y-79941450D01*
X137754360Y-79859341D01*
X137786897Y-79819694D01*
X137845862Y-79709380D01*
X137881360Y-79592359D01*
X137916858Y-79709380D01*
G37*
X137916858Y-79709380D02*
X137975823Y-79819694D01*
X138008360Y-79859341D01*
X138008360Y-79941450D01*
X138146213Y-80079303D01*
X138055175Y-80154015D01*
X137975823Y-80250706D01*
X137916858Y-80361020D01*
X137881360Y-80478041D01*
X137845862Y-80361020D01*
X137786897Y-80250706D01*
X137707545Y-80154015D01*
X137616507Y-80079303D01*
X137754360Y-79941450D01*
X137754360Y-79859341D01*
X137786897Y-79819694D01*
X137845862Y-79709380D01*
X137881360Y-79592359D01*
X137916858Y-79709380D01*
G36*
X136320467Y-77360155D02*
G01*
X136256957Y-77423665D01*
X136223184Y-77451382D01*
X136112590Y-77586141D01*
X136030412Y-77739887D01*
X136015559Y-77788850D01*
X135989528Y-77874663D01*
X135979806Y-77906710D01*
X135967001Y-78036723D01*
X135967001Y-78036730D01*
X135964218Y-78064988D01*
X135921123Y-78012477D01*
X135788442Y-77903588D01*
X135637067Y-77822677D01*
X135472816Y-77772852D01*
X135302000Y-77756028D01*
X134827000Y-77756028D01*
X134656184Y-77772852D01*
X134491933Y-77822677D01*
X134340558Y-77903588D01*
X134207877Y-78012477D01*
X134205938Y-78014840D01*
X134189394Y-78001263D01*
X134079080Y-77942298D01*
X133959382Y-77905988D01*
X133834900Y-77893728D01*
X132902310Y-77893728D01*
X132904230Y-77890348D01*
X132943604Y-77771623D01*
X132956198Y-77662849D01*
X132797448Y-77504099D01*
X132148199Y-77504099D01*
X132148199Y-78099521D01*
X132084363Y-78177306D01*
X132025398Y-78287620D01*
X131989088Y-78407318D01*
X131976828Y-78531800D01*
X131976828Y-79181800D01*
X131989088Y-79306282D01*
X131996829Y-79331800D01*
X131989088Y-79357318D01*
X131984664Y-79402233D01*
X131778902Y-79607995D01*
X131749898Y-79631798D01*
X131710506Y-79679798D01*
X131691152Y-79679798D01*
X131849900Y-79521050D01*
X131852972Y-79481800D01*
X131840712Y-79357318D01*
X131832971Y-79331800D01*
X131840712Y-79306282D01*
X131852972Y-79181800D01*
X131852972Y-78747248D01*
X131893396Y-78613989D01*
X131896795Y-78579476D01*
X131906201Y-78483976D01*
X131906201Y-78483968D01*
X131910482Y-78440499D01*
X131906201Y-78397030D01*
X131906201Y-77883700D01*
X131910702Y-77875279D01*
X131947012Y-77755581D01*
X131959272Y-77631099D01*
X131959272Y-77337500D01*
X136339060Y-77337500D01*
X136320467Y-77360155D01*
G37*
X136320467Y-77360155D02*
X136256957Y-77423665D01*
X136223184Y-77451382D01*
X136112590Y-77586141D01*
X136030412Y-77739887D01*
X136015559Y-77788850D01*
X135989528Y-77874663D01*
X135979806Y-77906710D01*
X135967001Y-78036723D01*
X135967001Y-78036730D01*
X135964218Y-78064988D01*
X135921123Y-78012477D01*
X135788442Y-77903588D01*
X135637067Y-77822677D01*
X135472816Y-77772852D01*
X135302000Y-77756028D01*
X134827000Y-77756028D01*
X134656184Y-77772852D01*
X134491933Y-77822677D01*
X134340558Y-77903588D01*
X134207877Y-78012477D01*
X134205938Y-78014840D01*
X134189394Y-78001263D01*
X134079080Y-77942298D01*
X133959382Y-77905988D01*
X133834900Y-77893728D01*
X132902310Y-77893728D01*
X132904230Y-77890348D01*
X132943604Y-77771623D01*
X132956198Y-77662849D01*
X132797448Y-77504099D01*
X132148199Y-77504099D01*
X132148199Y-78099521D01*
X132084363Y-78177306D01*
X132025398Y-78287620D01*
X131989088Y-78407318D01*
X131976828Y-78531800D01*
X131976828Y-79181800D01*
X131989088Y-79306282D01*
X131996829Y-79331800D01*
X131989088Y-79357318D01*
X131984664Y-79402233D01*
X131778902Y-79607995D01*
X131749898Y-79631798D01*
X131710506Y-79679798D01*
X131691152Y-79679798D01*
X131849900Y-79521050D01*
X131852972Y-79481800D01*
X131840712Y-79357318D01*
X131832971Y-79331800D01*
X131840712Y-79306282D01*
X131852972Y-79181800D01*
X131852972Y-78747248D01*
X131893396Y-78613989D01*
X131896795Y-78579476D01*
X131906201Y-78483976D01*
X131906201Y-78483968D01*
X131910482Y-78440499D01*
X131906201Y-78397030D01*
X131906201Y-77883700D01*
X131910702Y-77875279D01*
X131947012Y-77755581D01*
X131959272Y-77631099D01*
X131959272Y-77337500D01*
X136339060Y-77337500D01*
X136320467Y-77360155D01*
M02*
