G04 #@! TF.GenerationSoftware,KiCad,Pcbnew,(5.1.5)-3*
G04 #@! TF.CreationDate,2020-05-07T17:46:45-04:00*
G04 #@! TF.ProjectId,CR2025_Nordic,43523230-3235-45f4-9e6f-726469632e6b,rev?*
G04 #@! TF.SameCoordinates,Original*
G04 #@! TF.FileFunction,Copper,L2,Bot*
G04 #@! TF.FilePolarity,Positive*
%FSLAX46Y46*%
G04 Gerber Fmt 4.6, Leading zero omitted, Abs format (unit mm)*
G04 Created by KiCad (PCBNEW (5.1.5)-3) date 2020-05-07 17:46:45*
%MOMM*%
%LPD*%
G04 APERTURE LIST*
%ADD10R,2.100000X1.900000*%
%ADD11O,2.100000X1.900000*%
%ADD12C,0.800000*%
%ADD13C,0.250000*%
%ADD14C,0.254000*%
G04 APERTURE END LIST*
D10*
X126796800Y-79133700D03*
D11*
X142006800Y-79133700D03*
X126796800Y-81673700D03*
X142006800Y-81673700D03*
X126796800Y-84213700D03*
X142006800Y-84213700D03*
X126796800Y-86753700D03*
X142006800Y-86753700D03*
X126796800Y-89293700D03*
X142006800Y-89293700D03*
X126796800Y-91833700D03*
X142006800Y-91833700D03*
X126796800Y-94373700D03*
X142006800Y-94373700D03*
X126796800Y-96913700D03*
X142006800Y-96913700D03*
X126796800Y-99453700D03*
X142006800Y-99453700D03*
X126796800Y-101993700D03*
X142006800Y-101993700D03*
D12*
X161061400Y-90738960D03*
X147838160Y-89824560D03*
X133718300Y-77419200D03*
X137513700Y-84249900D03*
X131927600Y-79151480D03*
X134122160Y-102834440D03*
X129438400Y-91907360D03*
X131495800Y-97917000D03*
X130733800Y-93959680D03*
X133903720Y-98430080D03*
X129987040Y-86126320D03*
X137439400Y-95422720D03*
X130030607Y-96014153D03*
X138917680Y-92588080D03*
X140345160Y-80319880D03*
X139430760Y-96072960D03*
X135539480Y-102809040D03*
X135646160Y-101513640D03*
X128935480Y-90048080D03*
X132804462Y-91529881D03*
X136399993Y-95856513D03*
X134836207Y-95369687D03*
D13*
X131495800Y-97917000D02*
X131495800Y-94782640D01*
X131133799Y-94420639D02*
X131495800Y-94782640D01*
X131133799Y-94359679D02*
X131133799Y-94420639D01*
X130733800Y-93959680D02*
X131133799Y-94359679D01*
X133903720Y-98430080D02*
X133903720Y-90043000D01*
X133903720Y-90043000D02*
X129987040Y-86126320D01*
X137439400Y-95422720D02*
X137439400Y-95988405D01*
X137439400Y-95988405D02*
X134272724Y-99155081D01*
X131660879Y-99155081D02*
X134272724Y-99155081D01*
X130030607Y-97524809D02*
X131660879Y-99155081D01*
X130030607Y-96014153D02*
X130030607Y-97524809D01*
X138917680Y-92588080D02*
X140345160Y-91160600D01*
X140345160Y-91160600D02*
X140345160Y-80319880D01*
X142006800Y-94373700D02*
X141906800Y-94373700D01*
X139430760Y-95649740D02*
X139430760Y-96072960D01*
X140706800Y-94373700D02*
X139430760Y-95649740D01*
X142006800Y-94373700D02*
X140706800Y-94373700D01*
X138059160Y-102809040D02*
X135539480Y-102809040D01*
X138181080Y-97888325D02*
X138181080Y-102687120D01*
X139430760Y-96638645D02*
X138181080Y-97888325D01*
X138181080Y-102687120D02*
X138059160Y-102809040D01*
X139430760Y-96072960D02*
X139430760Y-96638645D01*
X128096800Y-94373700D02*
X126796800Y-94373700D01*
X135646160Y-101513640D02*
X134147560Y-100015040D01*
X130561080Y-100015040D02*
X128397000Y-97850960D01*
X134147560Y-100015040D02*
X130561080Y-100015040D01*
X128096800Y-94373700D02*
X128397000Y-94673900D01*
X128397000Y-94673900D02*
X128397000Y-97850960D01*
X128935480Y-90048080D02*
X130417281Y-91529881D01*
X130417281Y-91529881D02*
X132804462Y-91529881D01*
X136399993Y-95856513D02*
X135323033Y-95856513D01*
X135323033Y-95856513D02*
X134836207Y-95369687D01*
D14*
G36*
X164340001Y-103340000D02*
G01*
X142937872Y-103340000D01*
X142957417Y-103330105D01*
X143201792Y-103138479D01*
X143404087Y-102902860D01*
X143556528Y-102632303D01*
X143647386Y-102366288D01*
X143527384Y-102120700D01*
X142133800Y-102120700D01*
X142133800Y-102140700D01*
X141879800Y-102140700D01*
X141879800Y-102120700D01*
X140486216Y-102120700D01*
X140366214Y-102366288D01*
X140457072Y-102632303D01*
X140609513Y-102902860D01*
X140811808Y-103138479D01*
X141056183Y-103330105D01*
X141075728Y-103340000D01*
X138606581Y-103340000D01*
X138622964Y-103320037D01*
X138692077Y-103250924D01*
X138721081Y-103227121D01*
X138816054Y-103111396D01*
X138886626Y-102979367D01*
X138930083Y-102836106D01*
X138941080Y-102724453D01*
X138941080Y-102724442D01*
X138944756Y-102687120D01*
X138941080Y-102649797D01*
X138941080Y-98203126D01*
X139941768Y-97202440D01*
X139970761Y-97178646D01*
X139994555Y-97149653D01*
X139994559Y-97149649D01*
X140065733Y-97062922D01*
X140104623Y-96990165D01*
X140136306Y-96930892D01*
X140179747Y-96787684D01*
X140234697Y-96732734D01*
X140347965Y-96563216D01*
X140380966Y-96483546D01*
X140344734Y-96602986D01*
X140314131Y-96913700D01*
X140344734Y-97224414D01*
X140435366Y-97523188D01*
X140582544Y-97798539D01*
X140780613Y-98039887D01*
X140955850Y-98183700D01*
X140780613Y-98327513D01*
X140582544Y-98568861D01*
X140435366Y-98844212D01*
X140344734Y-99142986D01*
X140314131Y-99453700D01*
X140344734Y-99764414D01*
X140435366Y-100063188D01*
X140582544Y-100338539D01*
X140780613Y-100579887D01*
X140963496Y-100729975D01*
X140811808Y-100848921D01*
X140609513Y-101084540D01*
X140457072Y-101355097D01*
X140366214Y-101621112D01*
X140486216Y-101866700D01*
X141879800Y-101866700D01*
X141879800Y-101846700D01*
X142133800Y-101846700D01*
X142133800Y-101866700D01*
X143527384Y-101866700D01*
X143647386Y-101621112D01*
X143556528Y-101355097D01*
X143404087Y-101084540D01*
X143201792Y-100848921D01*
X143050104Y-100729975D01*
X143232987Y-100579887D01*
X143431056Y-100338539D01*
X143578234Y-100063188D01*
X143668866Y-99764414D01*
X143699469Y-99453700D01*
X143668866Y-99142986D01*
X143578234Y-98844212D01*
X143431056Y-98568861D01*
X143232987Y-98327513D01*
X143057750Y-98183700D01*
X143232987Y-98039887D01*
X143431056Y-97798539D01*
X143578234Y-97523188D01*
X143668866Y-97224414D01*
X143699469Y-96913700D01*
X143668866Y-96602986D01*
X143578234Y-96304212D01*
X143431056Y-96028861D01*
X143232987Y-95787513D01*
X143057750Y-95643700D01*
X143232987Y-95499887D01*
X143431056Y-95258539D01*
X143578234Y-94983188D01*
X143668866Y-94684414D01*
X143699469Y-94373700D01*
X143668866Y-94062986D01*
X143578234Y-93764212D01*
X143431056Y-93488861D01*
X143232987Y-93247513D01*
X143057750Y-93103700D01*
X143232987Y-92959887D01*
X143431056Y-92718539D01*
X143578234Y-92443188D01*
X143668866Y-92144414D01*
X143699469Y-91833700D01*
X143668866Y-91522986D01*
X143578234Y-91224212D01*
X143431056Y-90948861D01*
X143232987Y-90707513D01*
X143057750Y-90563700D01*
X143232987Y-90419887D01*
X143431056Y-90178539D01*
X143578234Y-89903188D01*
X143668866Y-89604414D01*
X143699469Y-89293700D01*
X143668866Y-88982986D01*
X143578234Y-88684212D01*
X143431056Y-88408861D01*
X143232987Y-88167513D01*
X143057750Y-88023700D01*
X143232987Y-87879887D01*
X143431056Y-87638539D01*
X143578234Y-87363188D01*
X143668866Y-87064414D01*
X143699469Y-86753700D01*
X143668866Y-86442986D01*
X143578234Y-86144212D01*
X143431056Y-85868861D01*
X143232987Y-85627513D01*
X143050104Y-85477425D01*
X143201792Y-85358479D01*
X143404087Y-85122860D01*
X143556528Y-84852303D01*
X143647386Y-84586288D01*
X143527384Y-84340700D01*
X142133800Y-84340700D01*
X142133800Y-84360700D01*
X141879800Y-84360700D01*
X141879800Y-84340700D01*
X141859800Y-84340700D01*
X141859800Y-84086700D01*
X141879800Y-84086700D01*
X141879800Y-84066700D01*
X142133800Y-84066700D01*
X142133800Y-84086700D01*
X143527384Y-84086700D01*
X143647386Y-83841112D01*
X143556528Y-83575097D01*
X143404087Y-83304540D01*
X143201792Y-83068921D01*
X143050104Y-82949975D01*
X143232987Y-82799887D01*
X143431056Y-82558539D01*
X143578234Y-82283188D01*
X143668866Y-81984414D01*
X143699469Y-81673700D01*
X143668866Y-81362986D01*
X143578234Y-81064212D01*
X143431056Y-80788861D01*
X143232987Y-80547513D01*
X143057750Y-80403700D01*
X143232987Y-80259887D01*
X143431056Y-80018539D01*
X143578234Y-79743188D01*
X143668866Y-79444414D01*
X143699469Y-79133700D01*
X143668866Y-78822986D01*
X143578234Y-78524212D01*
X143431056Y-78248861D01*
X143232987Y-78007513D01*
X142991639Y-77809444D01*
X142716288Y-77662266D01*
X142417514Y-77571634D01*
X142184664Y-77548700D01*
X141828936Y-77548700D01*
X141596086Y-77571634D01*
X141297312Y-77662266D01*
X141021961Y-77809444D01*
X140780613Y-78007513D01*
X140582544Y-78248861D01*
X140435366Y-78524212D01*
X140344734Y-78822986D01*
X140314131Y-79133700D01*
X140329021Y-79284880D01*
X140243221Y-79284880D01*
X140043262Y-79324654D01*
X139854904Y-79402675D01*
X139685386Y-79515943D01*
X139541223Y-79660106D01*
X139427955Y-79829624D01*
X139349934Y-80017982D01*
X139310160Y-80217941D01*
X139310160Y-80421819D01*
X139349934Y-80621778D01*
X139427955Y-80810136D01*
X139541223Y-80979654D01*
X139585161Y-81023592D01*
X139585160Y-90845798D01*
X138877879Y-91553080D01*
X138815741Y-91553080D01*
X138615782Y-91592854D01*
X138427424Y-91670875D01*
X138257906Y-91784143D01*
X138113743Y-91928306D01*
X138000475Y-92097824D01*
X137922454Y-92286182D01*
X137882680Y-92486141D01*
X137882680Y-92690019D01*
X137922454Y-92889978D01*
X138000475Y-93078336D01*
X138113743Y-93247854D01*
X138257906Y-93392017D01*
X138427424Y-93505285D01*
X138615782Y-93583306D01*
X138815741Y-93623080D01*
X139019619Y-93623080D01*
X139219578Y-93583306D01*
X139407936Y-93505285D01*
X139577454Y-93392017D01*
X139721617Y-93247854D01*
X139834885Y-93078336D01*
X139912906Y-92889978D01*
X139952680Y-92690019D01*
X139952680Y-92627881D01*
X140366010Y-92214552D01*
X140435366Y-92443188D01*
X140582544Y-92718539D01*
X140780613Y-92959887D01*
X140955850Y-93103700D01*
X140780613Y-93247513D01*
X140582544Y-93488861D01*
X140500674Y-93642030D01*
X140414553Y-93668154D01*
X140282523Y-93738726D01*
X140251469Y-93764212D01*
X140166799Y-93833699D01*
X140143001Y-93862697D01*
X138919763Y-95085936D01*
X138890759Y-95109739D01*
X138852995Y-95155755D01*
X138795786Y-95225464D01*
X138773346Y-95267446D01*
X138770986Y-95269023D01*
X138626823Y-95413186D01*
X138513555Y-95582704D01*
X138435534Y-95771062D01*
X138395760Y-95971021D01*
X138395760Y-96174899D01*
X138435534Y-96374858D01*
X138489488Y-96505114D01*
X137670082Y-97324522D01*
X137641079Y-97348324D01*
X137585951Y-97415499D01*
X137546106Y-97464049D01*
X137513629Y-97524809D01*
X137475534Y-97596079D01*
X137432077Y-97739340D01*
X137421080Y-97850993D01*
X137421080Y-97851003D01*
X137417404Y-97888325D01*
X137421080Y-97925648D01*
X137421081Y-102049040D01*
X136533201Y-102049040D01*
X136563365Y-102003896D01*
X136641386Y-101815538D01*
X136681160Y-101615579D01*
X136681160Y-101411701D01*
X136641386Y-101211742D01*
X136563365Y-101023384D01*
X136450097Y-100853866D01*
X136305934Y-100709703D01*
X136136416Y-100596435D01*
X135948058Y-100518414D01*
X135748099Y-100478640D01*
X135685962Y-100478640D01*
X134854964Y-99647642D01*
X137950403Y-96552204D01*
X137979401Y-96528406D01*
X138011199Y-96489660D01*
X138074374Y-96412682D01*
X138144946Y-96280652D01*
X138177412Y-96173624D01*
X138188387Y-96137444D01*
X138243337Y-96082494D01*
X138356605Y-95912976D01*
X138434626Y-95724618D01*
X138474400Y-95524659D01*
X138474400Y-95320781D01*
X138434626Y-95120822D01*
X138356605Y-94932464D01*
X138243337Y-94762946D01*
X138099174Y-94618783D01*
X137929656Y-94505515D01*
X137741298Y-94427494D01*
X137541339Y-94387720D01*
X137337461Y-94387720D01*
X137137502Y-94427494D01*
X136949144Y-94505515D01*
X136779626Y-94618783D01*
X136635463Y-94762946D01*
X136585256Y-94838087D01*
X136501932Y-94821513D01*
X136298054Y-94821513D01*
X136098095Y-94861287D01*
X135909737Y-94939308D01*
X135806725Y-95008138D01*
X135753412Y-94879431D01*
X135640144Y-94709913D01*
X135495981Y-94565750D01*
X135326463Y-94452482D01*
X135138105Y-94374461D01*
X134938146Y-94334687D01*
X134734268Y-94334687D01*
X134663720Y-94348720D01*
X134663720Y-90080323D01*
X134667396Y-90043000D01*
X134663720Y-90005677D01*
X134663720Y-90005667D01*
X134652723Y-89894014D01*
X134609266Y-89750753D01*
X134606823Y-89746182D01*
X134538694Y-89618723D01*
X134467519Y-89531997D01*
X134443721Y-89502999D01*
X134414723Y-89479201D01*
X131022040Y-86086519D01*
X131022040Y-86024381D01*
X130982266Y-85824422D01*
X130904245Y-85636064D01*
X130790977Y-85466546D01*
X130646814Y-85322383D01*
X130477296Y-85209115D01*
X130288938Y-85131094D01*
X130088979Y-85091320D01*
X129885101Y-85091320D01*
X129685142Y-85131094D01*
X129496784Y-85209115D01*
X129327266Y-85322383D01*
X129183103Y-85466546D01*
X129069835Y-85636064D01*
X128991814Y-85824422D01*
X128952040Y-86024381D01*
X128952040Y-86228259D01*
X128991814Y-86428218D01*
X129069835Y-86616576D01*
X129183103Y-86786094D01*
X129327266Y-86930257D01*
X129496784Y-87043525D01*
X129685142Y-87121546D01*
X129885101Y-87161320D01*
X129947239Y-87161320D01*
X133143721Y-90357803D01*
X133143721Y-90550131D01*
X133106360Y-90534655D01*
X132906401Y-90494881D01*
X132702523Y-90494881D01*
X132502564Y-90534655D01*
X132314206Y-90612676D01*
X132144688Y-90725944D01*
X132100751Y-90769881D01*
X130732083Y-90769881D01*
X129970480Y-90008279D01*
X129970480Y-89946141D01*
X129930706Y-89746182D01*
X129852685Y-89557824D01*
X129739417Y-89388306D01*
X129595254Y-89244143D01*
X129425736Y-89130875D01*
X129237378Y-89052854D01*
X129037419Y-89013080D01*
X128833541Y-89013080D01*
X128633582Y-89052854D01*
X128472326Y-89119649D01*
X128458866Y-88982986D01*
X128368234Y-88684212D01*
X128221056Y-88408861D01*
X128022987Y-88167513D01*
X127847750Y-88023700D01*
X128022987Y-87879887D01*
X128221056Y-87638539D01*
X128368234Y-87363188D01*
X128458866Y-87064414D01*
X128489469Y-86753700D01*
X128458866Y-86442986D01*
X128368234Y-86144212D01*
X128221056Y-85868861D01*
X128022987Y-85627513D01*
X127847750Y-85483700D01*
X128022987Y-85339887D01*
X128221056Y-85098539D01*
X128368234Y-84823188D01*
X128458866Y-84524414D01*
X128489469Y-84213700D01*
X128458866Y-83902986D01*
X128368234Y-83604212D01*
X128221056Y-83328861D01*
X128022987Y-83087513D01*
X127847750Y-82943700D01*
X128022987Y-82799887D01*
X128221056Y-82558539D01*
X128368234Y-82283188D01*
X128458866Y-81984414D01*
X128489469Y-81673700D01*
X128458866Y-81362986D01*
X128368234Y-81064212D01*
X128221056Y-80788861D01*
X128115417Y-80660140D01*
X128201294Y-80614237D01*
X128297985Y-80534885D01*
X128377337Y-80438194D01*
X128436302Y-80327880D01*
X128472612Y-80208182D01*
X128484872Y-80083700D01*
X128484872Y-78183700D01*
X128472612Y-78059218D01*
X128436302Y-77939520D01*
X128377337Y-77829206D01*
X128297985Y-77732515D01*
X128201294Y-77653163D01*
X128090980Y-77594198D01*
X127971282Y-77557888D01*
X127846800Y-77545628D01*
X125746800Y-77545628D01*
X125622318Y-77557888D01*
X125502620Y-77594198D01*
X125392306Y-77653163D01*
X125295615Y-77732515D01*
X125216263Y-77829206D01*
X125157298Y-77939520D01*
X125120988Y-78059218D01*
X125108728Y-78183700D01*
X125108728Y-80083700D01*
X125120988Y-80208182D01*
X125157298Y-80327880D01*
X125216263Y-80438194D01*
X125295615Y-80534885D01*
X125392306Y-80614237D01*
X125478183Y-80660140D01*
X125372544Y-80788861D01*
X125225366Y-81064212D01*
X125134734Y-81362986D01*
X125104131Y-81673700D01*
X125134734Y-81984414D01*
X125225366Y-82283188D01*
X125372544Y-82558539D01*
X125570613Y-82799887D01*
X125745850Y-82943700D01*
X125570613Y-83087513D01*
X125372544Y-83328861D01*
X125225366Y-83604212D01*
X125134734Y-83902986D01*
X125104131Y-84213700D01*
X125134734Y-84524414D01*
X125225366Y-84823188D01*
X125372544Y-85098539D01*
X125570613Y-85339887D01*
X125745850Y-85483700D01*
X125570613Y-85627513D01*
X125372544Y-85868861D01*
X125225366Y-86144212D01*
X125134734Y-86442986D01*
X125104131Y-86753700D01*
X125134734Y-87064414D01*
X125225366Y-87363188D01*
X125372544Y-87638539D01*
X125570613Y-87879887D01*
X125745850Y-88023700D01*
X125570613Y-88167513D01*
X125372544Y-88408861D01*
X125225366Y-88684212D01*
X125134734Y-88982986D01*
X125104131Y-89293700D01*
X125134734Y-89604414D01*
X125225366Y-89903188D01*
X125372544Y-90178539D01*
X125570613Y-90419887D01*
X125745850Y-90563700D01*
X125570613Y-90707513D01*
X125372544Y-90948861D01*
X125225366Y-91224212D01*
X125134734Y-91522986D01*
X125104131Y-91833700D01*
X125134734Y-92144414D01*
X125225366Y-92443188D01*
X125372544Y-92718539D01*
X125570613Y-92959887D01*
X125745850Y-93103700D01*
X125570613Y-93247513D01*
X125372544Y-93488861D01*
X125225366Y-93764212D01*
X125134734Y-94062986D01*
X125104131Y-94373700D01*
X125134734Y-94684414D01*
X125225366Y-94983188D01*
X125372544Y-95258539D01*
X125570613Y-95499887D01*
X125745850Y-95643700D01*
X125570613Y-95787513D01*
X125372544Y-96028861D01*
X125225366Y-96304212D01*
X125134734Y-96602986D01*
X125104131Y-96913700D01*
X125134734Y-97224414D01*
X125225366Y-97523188D01*
X125372544Y-97798539D01*
X125570613Y-98039887D01*
X125745850Y-98183700D01*
X125570613Y-98327513D01*
X125372544Y-98568861D01*
X125225366Y-98844212D01*
X125134734Y-99142986D01*
X125104131Y-99453700D01*
X125134734Y-99764414D01*
X125225366Y-100063188D01*
X125372544Y-100338539D01*
X125570613Y-100579887D01*
X125753496Y-100729975D01*
X125601808Y-100848921D01*
X125399513Y-101084540D01*
X125247072Y-101355097D01*
X125156214Y-101621112D01*
X125276216Y-101866700D01*
X126669800Y-101866700D01*
X126669800Y-101846700D01*
X126923800Y-101846700D01*
X126923800Y-101866700D01*
X128317384Y-101866700D01*
X128437386Y-101621112D01*
X128346528Y-101355097D01*
X128194087Y-101084540D01*
X127991792Y-100848921D01*
X127840104Y-100729975D01*
X128022987Y-100579887D01*
X128221056Y-100338539D01*
X128368234Y-100063188D01*
X128458866Y-99764414D01*
X128489469Y-99453700D01*
X128458866Y-99142986D01*
X128391218Y-98919979D01*
X129997280Y-100526042D01*
X130021079Y-100555041D01*
X130136804Y-100650014D01*
X130268833Y-100720586D01*
X130412094Y-100764043D01*
X130523747Y-100775040D01*
X130523756Y-100775040D01*
X130561079Y-100778716D01*
X130598402Y-100775040D01*
X133832759Y-100775040D01*
X134611160Y-101553442D01*
X134611160Y-101615579D01*
X134650934Y-101815538D01*
X134728955Y-102003896D01*
X134789821Y-102094988D01*
X134735543Y-102149266D01*
X134622275Y-102318784D01*
X134544254Y-102507142D01*
X134504480Y-102707101D01*
X134504480Y-102910979D01*
X134544254Y-103110938D01*
X134622275Y-103299296D01*
X134649472Y-103340000D01*
X127727872Y-103340000D01*
X127747417Y-103330105D01*
X127991792Y-103138479D01*
X128194087Y-102902860D01*
X128346528Y-102632303D01*
X128437386Y-102366288D01*
X128317384Y-102120700D01*
X126923800Y-102120700D01*
X126923800Y-102140700D01*
X126669800Y-102140700D01*
X126669800Y-102120700D01*
X125276216Y-102120700D01*
X125156214Y-102366288D01*
X125247072Y-102632303D01*
X125399513Y-102902860D01*
X125601808Y-103138479D01*
X125846183Y-103330105D01*
X125865728Y-103340000D01*
X124960000Y-103340000D01*
X124960000Y-76060000D01*
X164340000Y-76060000D01*
X164340001Y-103340000D01*
G37*
X164340001Y-103340000D02*
X142937872Y-103340000D01*
X142957417Y-103330105D01*
X143201792Y-103138479D01*
X143404087Y-102902860D01*
X143556528Y-102632303D01*
X143647386Y-102366288D01*
X143527384Y-102120700D01*
X142133800Y-102120700D01*
X142133800Y-102140700D01*
X141879800Y-102140700D01*
X141879800Y-102120700D01*
X140486216Y-102120700D01*
X140366214Y-102366288D01*
X140457072Y-102632303D01*
X140609513Y-102902860D01*
X140811808Y-103138479D01*
X141056183Y-103330105D01*
X141075728Y-103340000D01*
X138606581Y-103340000D01*
X138622964Y-103320037D01*
X138692077Y-103250924D01*
X138721081Y-103227121D01*
X138816054Y-103111396D01*
X138886626Y-102979367D01*
X138930083Y-102836106D01*
X138941080Y-102724453D01*
X138941080Y-102724442D01*
X138944756Y-102687120D01*
X138941080Y-102649797D01*
X138941080Y-98203126D01*
X139941768Y-97202440D01*
X139970761Y-97178646D01*
X139994555Y-97149653D01*
X139994559Y-97149649D01*
X140065733Y-97062922D01*
X140104623Y-96990165D01*
X140136306Y-96930892D01*
X140179747Y-96787684D01*
X140234697Y-96732734D01*
X140347965Y-96563216D01*
X140380966Y-96483546D01*
X140344734Y-96602986D01*
X140314131Y-96913700D01*
X140344734Y-97224414D01*
X140435366Y-97523188D01*
X140582544Y-97798539D01*
X140780613Y-98039887D01*
X140955850Y-98183700D01*
X140780613Y-98327513D01*
X140582544Y-98568861D01*
X140435366Y-98844212D01*
X140344734Y-99142986D01*
X140314131Y-99453700D01*
X140344734Y-99764414D01*
X140435366Y-100063188D01*
X140582544Y-100338539D01*
X140780613Y-100579887D01*
X140963496Y-100729975D01*
X140811808Y-100848921D01*
X140609513Y-101084540D01*
X140457072Y-101355097D01*
X140366214Y-101621112D01*
X140486216Y-101866700D01*
X141879800Y-101866700D01*
X141879800Y-101846700D01*
X142133800Y-101846700D01*
X142133800Y-101866700D01*
X143527384Y-101866700D01*
X143647386Y-101621112D01*
X143556528Y-101355097D01*
X143404087Y-101084540D01*
X143201792Y-100848921D01*
X143050104Y-100729975D01*
X143232987Y-100579887D01*
X143431056Y-100338539D01*
X143578234Y-100063188D01*
X143668866Y-99764414D01*
X143699469Y-99453700D01*
X143668866Y-99142986D01*
X143578234Y-98844212D01*
X143431056Y-98568861D01*
X143232987Y-98327513D01*
X143057750Y-98183700D01*
X143232987Y-98039887D01*
X143431056Y-97798539D01*
X143578234Y-97523188D01*
X143668866Y-97224414D01*
X143699469Y-96913700D01*
X143668866Y-96602986D01*
X143578234Y-96304212D01*
X143431056Y-96028861D01*
X143232987Y-95787513D01*
X143057750Y-95643700D01*
X143232987Y-95499887D01*
X143431056Y-95258539D01*
X143578234Y-94983188D01*
X143668866Y-94684414D01*
X143699469Y-94373700D01*
X143668866Y-94062986D01*
X143578234Y-93764212D01*
X143431056Y-93488861D01*
X143232987Y-93247513D01*
X143057750Y-93103700D01*
X143232987Y-92959887D01*
X143431056Y-92718539D01*
X143578234Y-92443188D01*
X143668866Y-92144414D01*
X143699469Y-91833700D01*
X143668866Y-91522986D01*
X143578234Y-91224212D01*
X143431056Y-90948861D01*
X143232987Y-90707513D01*
X143057750Y-90563700D01*
X143232987Y-90419887D01*
X143431056Y-90178539D01*
X143578234Y-89903188D01*
X143668866Y-89604414D01*
X143699469Y-89293700D01*
X143668866Y-88982986D01*
X143578234Y-88684212D01*
X143431056Y-88408861D01*
X143232987Y-88167513D01*
X143057750Y-88023700D01*
X143232987Y-87879887D01*
X143431056Y-87638539D01*
X143578234Y-87363188D01*
X143668866Y-87064414D01*
X143699469Y-86753700D01*
X143668866Y-86442986D01*
X143578234Y-86144212D01*
X143431056Y-85868861D01*
X143232987Y-85627513D01*
X143050104Y-85477425D01*
X143201792Y-85358479D01*
X143404087Y-85122860D01*
X143556528Y-84852303D01*
X143647386Y-84586288D01*
X143527384Y-84340700D01*
X142133800Y-84340700D01*
X142133800Y-84360700D01*
X141879800Y-84360700D01*
X141879800Y-84340700D01*
X141859800Y-84340700D01*
X141859800Y-84086700D01*
X141879800Y-84086700D01*
X141879800Y-84066700D01*
X142133800Y-84066700D01*
X142133800Y-84086700D01*
X143527384Y-84086700D01*
X143647386Y-83841112D01*
X143556528Y-83575097D01*
X143404087Y-83304540D01*
X143201792Y-83068921D01*
X143050104Y-82949975D01*
X143232987Y-82799887D01*
X143431056Y-82558539D01*
X143578234Y-82283188D01*
X143668866Y-81984414D01*
X143699469Y-81673700D01*
X143668866Y-81362986D01*
X143578234Y-81064212D01*
X143431056Y-80788861D01*
X143232987Y-80547513D01*
X143057750Y-80403700D01*
X143232987Y-80259887D01*
X143431056Y-80018539D01*
X143578234Y-79743188D01*
X143668866Y-79444414D01*
X143699469Y-79133700D01*
X143668866Y-78822986D01*
X143578234Y-78524212D01*
X143431056Y-78248861D01*
X143232987Y-78007513D01*
X142991639Y-77809444D01*
X142716288Y-77662266D01*
X142417514Y-77571634D01*
X142184664Y-77548700D01*
X141828936Y-77548700D01*
X141596086Y-77571634D01*
X141297312Y-77662266D01*
X141021961Y-77809444D01*
X140780613Y-78007513D01*
X140582544Y-78248861D01*
X140435366Y-78524212D01*
X140344734Y-78822986D01*
X140314131Y-79133700D01*
X140329021Y-79284880D01*
X140243221Y-79284880D01*
X140043262Y-79324654D01*
X139854904Y-79402675D01*
X139685386Y-79515943D01*
X139541223Y-79660106D01*
X139427955Y-79829624D01*
X139349934Y-80017982D01*
X139310160Y-80217941D01*
X139310160Y-80421819D01*
X139349934Y-80621778D01*
X139427955Y-80810136D01*
X139541223Y-80979654D01*
X139585161Y-81023592D01*
X139585160Y-90845798D01*
X138877879Y-91553080D01*
X138815741Y-91553080D01*
X138615782Y-91592854D01*
X138427424Y-91670875D01*
X138257906Y-91784143D01*
X138113743Y-91928306D01*
X138000475Y-92097824D01*
X137922454Y-92286182D01*
X137882680Y-92486141D01*
X137882680Y-92690019D01*
X137922454Y-92889978D01*
X138000475Y-93078336D01*
X138113743Y-93247854D01*
X138257906Y-93392017D01*
X138427424Y-93505285D01*
X138615782Y-93583306D01*
X138815741Y-93623080D01*
X139019619Y-93623080D01*
X139219578Y-93583306D01*
X139407936Y-93505285D01*
X139577454Y-93392017D01*
X139721617Y-93247854D01*
X139834885Y-93078336D01*
X139912906Y-92889978D01*
X139952680Y-92690019D01*
X139952680Y-92627881D01*
X140366010Y-92214552D01*
X140435366Y-92443188D01*
X140582544Y-92718539D01*
X140780613Y-92959887D01*
X140955850Y-93103700D01*
X140780613Y-93247513D01*
X140582544Y-93488861D01*
X140500674Y-93642030D01*
X140414553Y-93668154D01*
X140282523Y-93738726D01*
X140251469Y-93764212D01*
X140166799Y-93833699D01*
X140143001Y-93862697D01*
X138919763Y-95085936D01*
X138890759Y-95109739D01*
X138852995Y-95155755D01*
X138795786Y-95225464D01*
X138773346Y-95267446D01*
X138770986Y-95269023D01*
X138626823Y-95413186D01*
X138513555Y-95582704D01*
X138435534Y-95771062D01*
X138395760Y-95971021D01*
X138395760Y-96174899D01*
X138435534Y-96374858D01*
X138489488Y-96505114D01*
X137670082Y-97324522D01*
X137641079Y-97348324D01*
X137585951Y-97415499D01*
X137546106Y-97464049D01*
X137513629Y-97524809D01*
X137475534Y-97596079D01*
X137432077Y-97739340D01*
X137421080Y-97850993D01*
X137421080Y-97851003D01*
X137417404Y-97888325D01*
X137421080Y-97925648D01*
X137421081Y-102049040D01*
X136533201Y-102049040D01*
X136563365Y-102003896D01*
X136641386Y-101815538D01*
X136681160Y-101615579D01*
X136681160Y-101411701D01*
X136641386Y-101211742D01*
X136563365Y-101023384D01*
X136450097Y-100853866D01*
X136305934Y-100709703D01*
X136136416Y-100596435D01*
X135948058Y-100518414D01*
X135748099Y-100478640D01*
X135685962Y-100478640D01*
X134854964Y-99647642D01*
X137950403Y-96552204D01*
X137979401Y-96528406D01*
X138011199Y-96489660D01*
X138074374Y-96412682D01*
X138144946Y-96280652D01*
X138177412Y-96173624D01*
X138188387Y-96137444D01*
X138243337Y-96082494D01*
X138356605Y-95912976D01*
X138434626Y-95724618D01*
X138474400Y-95524659D01*
X138474400Y-95320781D01*
X138434626Y-95120822D01*
X138356605Y-94932464D01*
X138243337Y-94762946D01*
X138099174Y-94618783D01*
X137929656Y-94505515D01*
X137741298Y-94427494D01*
X137541339Y-94387720D01*
X137337461Y-94387720D01*
X137137502Y-94427494D01*
X136949144Y-94505515D01*
X136779626Y-94618783D01*
X136635463Y-94762946D01*
X136585256Y-94838087D01*
X136501932Y-94821513D01*
X136298054Y-94821513D01*
X136098095Y-94861287D01*
X135909737Y-94939308D01*
X135806725Y-95008138D01*
X135753412Y-94879431D01*
X135640144Y-94709913D01*
X135495981Y-94565750D01*
X135326463Y-94452482D01*
X135138105Y-94374461D01*
X134938146Y-94334687D01*
X134734268Y-94334687D01*
X134663720Y-94348720D01*
X134663720Y-90080323D01*
X134667396Y-90043000D01*
X134663720Y-90005677D01*
X134663720Y-90005667D01*
X134652723Y-89894014D01*
X134609266Y-89750753D01*
X134606823Y-89746182D01*
X134538694Y-89618723D01*
X134467519Y-89531997D01*
X134443721Y-89502999D01*
X134414723Y-89479201D01*
X131022040Y-86086519D01*
X131022040Y-86024381D01*
X130982266Y-85824422D01*
X130904245Y-85636064D01*
X130790977Y-85466546D01*
X130646814Y-85322383D01*
X130477296Y-85209115D01*
X130288938Y-85131094D01*
X130088979Y-85091320D01*
X129885101Y-85091320D01*
X129685142Y-85131094D01*
X129496784Y-85209115D01*
X129327266Y-85322383D01*
X129183103Y-85466546D01*
X129069835Y-85636064D01*
X128991814Y-85824422D01*
X128952040Y-86024381D01*
X128952040Y-86228259D01*
X128991814Y-86428218D01*
X129069835Y-86616576D01*
X129183103Y-86786094D01*
X129327266Y-86930257D01*
X129496784Y-87043525D01*
X129685142Y-87121546D01*
X129885101Y-87161320D01*
X129947239Y-87161320D01*
X133143721Y-90357803D01*
X133143721Y-90550131D01*
X133106360Y-90534655D01*
X132906401Y-90494881D01*
X132702523Y-90494881D01*
X132502564Y-90534655D01*
X132314206Y-90612676D01*
X132144688Y-90725944D01*
X132100751Y-90769881D01*
X130732083Y-90769881D01*
X129970480Y-90008279D01*
X129970480Y-89946141D01*
X129930706Y-89746182D01*
X129852685Y-89557824D01*
X129739417Y-89388306D01*
X129595254Y-89244143D01*
X129425736Y-89130875D01*
X129237378Y-89052854D01*
X129037419Y-89013080D01*
X128833541Y-89013080D01*
X128633582Y-89052854D01*
X128472326Y-89119649D01*
X128458866Y-88982986D01*
X128368234Y-88684212D01*
X128221056Y-88408861D01*
X128022987Y-88167513D01*
X127847750Y-88023700D01*
X128022987Y-87879887D01*
X128221056Y-87638539D01*
X128368234Y-87363188D01*
X128458866Y-87064414D01*
X128489469Y-86753700D01*
X128458866Y-86442986D01*
X128368234Y-86144212D01*
X128221056Y-85868861D01*
X128022987Y-85627513D01*
X127847750Y-85483700D01*
X128022987Y-85339887D01*
X128221056Y-85098539D01*
X128368234Y-84823188D01*
X128458866Y-84524414D01*
X128489469Y-84213700D01*
X128458866Y-83902986D01*
X128368234Y-83604212D01*
X128221056Y-83328861D01*
X128022987Y-83087513D01*
X127847750Y-82943700D01*
X128022987Y-82799887D01*
X128221056Y-82558539D01*
X128368234Y-82283188D01*
X128458866Y-81984414D01*
X128489469Y-81673700D01*
X128458866Y-81362986D01*
X128368234Y-81064212D01*
X128221056Y-80788861D01*
X128115417Y-80660140D01*
X128201294Y-80614237D01*
X128297985Y-80534885D01*
X128377337Y-80438194D01*
X128436302Y-80327880D01*
X128472612Y-80208182D01*
X128484872Y-80083700D01*
X128484872Y-78183700D01*
X128472612Y-78059218D01*
X128436302Y-77939520D01*
X128377337Y-77829206D01*
X128297985Y-77732515D01*
X128201294Y-77653163D01*
X128090980Y-77594198D01*
X127971282Y-77557888D01*
X127846800Y-77545628D01*
X125746800Y-77545628D01*
X125622318Y-77557888D01*
X125502620Y-77594198D01*
X125392306Y-77653163D01*
X125295615Y-77732515D01*
X125216263Y-77829206D01*
X125157298Y-77939520D01*
X125120988Y-78059218D01*
X125108728Y-78183700D01*
X125108728Y-80083700D01*
X125120988Y-80208182D01*
X125157298Y-80327880D01*
X125216263Y-80438194D01*
X125295615Y-80534885D01*
X125392306Y-80614237D01*
X125478183Y-80660140D01*
X125372544Y-80788861D01*
X125225366Y-81064212D01*
X125134734Y-81362986D01*
X125104131Y-81673700D01*
X125134734Y-81984414D01*
X125225366Y-82283188D01*
X125372544Y-82558539D01*
X125570613Y-82799887D01*
X125745850Y-82943700D01*
X125570613Y-83087513D01*
X125372544Y-83328861D01*
X125225366Y-83604212D01*
X125134734Y-83902986D01*
X125104131Y-84213700D01*
X125134734Y-84524414D01*
X125225366Y-84823188D01*
X125372544Y-85098539D01*
X125570613Y-85339887D01*
X125745850Y-85483700D01*
X125570613Y-85627513D01*
X125372544Y-85868861D01*
X125225366Y-86144212D01*
X125134734Y-86442986D01*
X125104131Y-86753700D01*
X125134734Y-87064414D01*
X125225366Y-87363188D01*
X125372544Y-87638539D01*
X125570613Y-87879887D01*
X125745850Y-88023700D01*
X125570613Y-88167513D01*
X125372544Y-88408861D01*
X125225366Y-88684212D01*
X125134734Y-88982986D01*
X125104131Y-89293700D01*
X125134734Y-89604414D01*
X125225366Y-89903188D01*
X125372544Y-90178539D01*
X125570613Y-90419887D01*
X125745850Y-90563700D01*
X125570613Y-90707513D01*
X125372544Y-90948861D01*
X125225366Y-91224212D01*
X125134734Y-91522986D01*
X125104131Y-91833700D01*
X125134734Y-92144414D01*
X125225366Y-92443188D01*
X125372544Y-92718539D01*
X125570613Y-92959887D01*
X125745850Y-93103700D01*
X125570613Y-93247513D01*
X125372544Y-93488861D01*
X125225366Y-93764212D01*
X125134734Y-94062986D01*
X125104131Y-94373700D01*
X125134734Y-94684414D01*
X125225366Y-94983188D01*
X125372544Y-95258539D01*
X125570613Y-95499887D01*
X125745850Y-95643700D01*
X125570613Y-95787513D01*
X125372544Y-96028861D01*
X125225366Y-96304212D01*
X125134734Y-96602986D01*
X125104131Y-96913700D01*
X125134734Y-97224414D01*
X125225366Y-97523188D01*
X125372544Y-97798539D01*
X125570613Y-98039887D01*
X125745850Y-98183700D01*
X125570613Y-98327513D01*
X125372544Y-98568861D01*
X125225366Y-98844212D01*
X125134734Y-99142986D01*
X125104131Y-99453700D01*
X125134734Y-99764414D01*
X125225366Y-100063188D01*
X125372544Y-100338539D01*
X125570613Y-100579887D01*
X125753496Y-100729975D01*
X125601808Y-100848921D01*
X125399513Y-101084540D01*
X125247072Y-101355097D01*
X125156214Y-101621112D01*
X125276216Y-101866700D01*
X126669800Y-101866700D01*
X126669800Y-101846700D01*
X126923800Y-101846700D01*
X126923800Y-101866700D01*
X128317384Y-101866700D01*
X128437386Y-101621112D01*
X128346528Y-101355097D01*
X128194087Y-101084540D01*
X127991792Y-100848921D01*
X127840104Y-100729975D01*
X128022987Y-100579887D01*
X128221056Y-100338539D01*
X128368234Y-100063188D01*
X128458866Y-99764414D01*
X128489469Y-99453700D01*
X128458866Y-99142986D01*
X128391218Y-98919979D01*
X129997280Y-100526042D01*
X130021079Y-100555041D01*
X130136804Y-100650014D01*
X130268833Y-100720586D01*
X130412094Y-100764043D01*
X130523747Y-100775040D01*
X130523756Y-100775040D01*
X130561079Y-100778716D01*
X130598402Y-100775040D01*
X133832759Y-100775040D01*
X134611160Y-101553442D01*
X134611160Y-101615579D01*
X134650934Y-101815538D01*
X134728955Y-102003896D01*
X134789821Y-102094988D01*
X134735543Y-102149266D01*
X134622275Y-102318784D01*
X134544254Y-102507142D01*
X134504480Y-102707101D01*
X134504480Y-102910979D01*
X134544254Y-103110938D01*
X134622275Y-103299296D01*
X134649472Y-103340000D01*
X127727872Y-103340000D01*
X127747417Y-103330105D01*
X127991792Y-103138479D01*
X128194087Y-102902860D01*
X128346528Y-102632303D01*
X128437386Y-102366288D01*
X128317384Y-102120700D01*
X126923800Y-102120700D01*
X126923800Y-102140700D01*
X126669800Y-102140700D01*
X126669800Y-102120700D01*
X125276216Y-102120700D01*
X125156214Y-102366288D01*
X125247072Y-102632303D01*
X125399513Y-102902860D01*
X125601808Y-103138479D01*
X125846183Y-103330105D01*
X125865728Y-103340000D01*
X124960000Y-103340000D01*
X124960000Y-76060000D01*
X164340000Y-76060000D01*
X164340001Y-103340000D01*
G36*
X128018275Y-90538336D02*
G01*
X128131543Y-90707854D01*
X128275706Y-90852017D01*
X128445224Y-90965285D01*
X128633582Y-91043306D01*
X128833541Y-91083080D01*
X128895679Y-91083080D01*
X129853482Y-92040884D01*
X129877280Y-92069882D01*
X129906278Y-92093680D01*
X129993004Y-92164855D01*
X130125034Y-92235427D01*
X130268295Y-92278884D01*
X130379948Y-92289881D01*
X130379957Y-92289881D01*
X130417280Y-92293557D01*
X130454603Y-92289881D01*
X132100751Y-92289881D01*
X132144688Y-92333818D01*
X132314206Y-92447086D01*
X132502564Y-92525107D01*
X132702523Y-92564881D01*
X132906401Y-92564881D01*
X133106360Y-92525107D01*
X133143721Y-92509632D01*
X133143720Y-97726369D01*
X133099783Y-97770306D01*
X132986515Y-97939824D01*
X132908494Y-98128182D01*
X132868720Y-98328141D01*
X132868720Y-98395081D01*
X131975681Y-98395081D01*
X130790607Y-97210008D01*
X130790607Y-96717864D01*
X130834544Y-96673927D01*
X130947812Y-96504409D01*
X131025833Y-96316051D01*
X131065607Y-96116092D01*
X131065607Y-95912214D01*
X131025833Y-95712255D01*
X130947812Y-95523897D01*
X130834544Y-95354379D01*
X130690381Y-95210216D01*
X130520863Y-95096948D01*
X130332505Y-95018927D01*
X130132546Y-94979153D01*
X129928668Y-94979153D01*
X129728709Y-95018927D01*
X129540351Y-95096948D01*
X129370833Y-95210216D01*
X129226670Y-95354379D01*
X129157000Y-95458648D01*
X129157000Y-94711223D01*
X129160676Y-94673900D01*
X129157000Y-94636577D01*
X129157000Y-94636567D01*
X129146003Y-94524914D01*
X129102546Y-94381653D01*
X129031974Y-94249624D01*
X128937001Y-94133899D01*
X128907998Y-94110097D01*
X128660604Y-93862703D01*
X128636801Y-93833699D01*
X128521076Y-93738726D01*
X128389047Y-93668154D01*
X128302926Y-93642030D01*
X128221056Y-93488861D01*
X128022987Y-93247513D01*
X127847750Y-93103700D01*
X128022987Y-92959887D01*
X128221056Y-92718539D01*
X128368234Y-92443188D01*
X128458866Y-92144414D01*
X128489469Y-91833700D01*
X128458866Y-91522986D01*
X128368234Y-91224212D01*
X128221056Y-90948861D01*
X128022987Y-90707513D01*
X127847750Y-90563700D01*
X127982854Y-90452823D01*
X128018275Y-90538336D01*
G37*
X128018275Y-90538336D02*
X128131543Y-90707854D01*
X128275706Y-90852017D01*
X128445224Y-90965285D01*
X128633582Y-91043306D01*
X128833541Y-91083080D01*
X128895679Y-91083080D01*
X129853482Y-92040884D01*
X129877280Y-92069882D01*
X129906278Y-92093680D01*
X129993004Y-92164855D01*
X130125034Y-92235427D01*
X130268295Y-92278884D01*
X130379948Y-92289881D01*
X130379957Y-92289881D01*
X130417280Y-92293557D01*
X130454603Y-92289881D01*
X132100751Y-92289881D01*
X132144688Y-92333818D01*
X132314206Y-92447086D01*
X132502564Y-92525107D01*
X132702523Y-92564881D01*
X132906401Y-92564881D01*
X133106360Y-92525107D01*
X133143721Y-92509632D01*
X133143720Y-97726369D01*
X133099783Y-97770306D01*
X132986515Y-97939824D01*
X132908494Y-98128182D01*
X132868720Y-98328141D01*
X132868720Y-98395081D01*
X131975681Y-98395081D01*
X130790607Y-97210008D01*
X130790607Y-96717864D01*
X130834544Y-96673927D01*
X130947812Y-96504409D01*
X131025833Y-96316051D01*
X131065607Y-96116092D01*
X131065607Y-95912214D01*
X131025833Y-95712255D01*
X130947812Y-95523897D01*
X130834544Y-95354379D01*
X130690381Y-95210216D01*
X130520863Y-95096948D01*
X130332505Y-95018927D01*
X130132546Y-94979153D01*
X129928668Y-94979153D01*
X129728709Y-95018927D01*
X129540351Y-95096948D01*
X129370833Y-95210216D01*
X129226670Y-95354379D01*
X129157000Y-95458648D01*
X129157000Y-94711223D01*
X129160676Y-94673900D01*
X129157000Y-94636577D01*
X129157000Y-94636567D01*
X129146003Y-94524914D01*
X129102546Y-94381653D01*
X129031974Y-94249624D01*
X128937001Y-94133899D01*
X128907998Y-94110097D01*
X128660604Y-93862703D01*
X128636801Y-93833699D01*
X128521076Y-93738726D01*
X128389047Y-93668154D01*
X128302926Y-93642030D01*
X128221056Y-93488861D01*
X128022987Y-93247513D01*
X127847750Y-93103700D01*
X128022987Y-92959887D01*
X128221056Y-92718539D01*
X128368234Y-92443188D01*
X128458866Y-92144414D01*
X128489469Y-91833700D01*
X128458866Y-91522986D01*
X128368234Y-91224212D01*
X128221056Y-90948861D01*
X128022987Y-90707513D01*
X127847750Y-90563700D01*
X127982854Y-90452823D01*
X128018275Y-90538336D01*
M02*
