G04 #@! TF.GenerationSoftware,KiCad,Pcbnew,(5.1.5)-3*
G04 #@! TF.CreationDate,2020-05-07T17:46:45-04:00*
G04 #@! TF.ProjectId,CR2025_Nordic,43523230-3235-45f4-9e6f-726469632e6b,rev?*
G04 #@! TF.SameCoordinates,Original*
G04 #@! TF.FileFunction,Soldermask,Top*
G04 #@! TF.FilePolarity,Negative*
%FSLAX46Y46*%
G04 Gerber Fmt 4.6, Leading zero omitted, Abs format (unit mm)*
G04 Created by KiCad (PCBNEW (5.1.5)-3) date 2020-05-07 17:46:45*
%MOMM*%
%LPD*%
G04 APERTURE LIST*
%ADD10C,0.100000*%
G04 APERTURE END LIST*
D10*
G36*
X157018000Y-103351000D02*
G01*
X151836000Y-103351000D01*
X151836000Y-100709000D01*
X157018000Y-100709000D01*
X157018000Y-103351000D01*
G37*
G36*
X138273768Y-102470964D02*
G01*
X138294849Y-102477360D01*
X138314285Y-102487748D01*
X138331316Y-102501724D01*
X138345292Y-102518755D01*
X138355680Y-102538191D01*
X138362076Y-102559272D01*
X138364840Y-102587340D01*
X138364840Y-103051060D01*
X138362076Y-103079128D01*
X138355680Y-103100209D01*
X138345292Y-103119645D01*
X138331316Y-103136676D01*
X138314285Y-103150652D01*
X138294849Y-103161040D01*
X138273768Y-103167436D01*
X138245700Y-103170200D01*
X136431980Y-103170200D01*
X136403912Y-103167436D01*
X136382831Y-103161040D01*
X136363395Y-103150652D01*
X136346364Y-103136676D01*
X136332388Y-103119645D01*
X136322000Y-103100209D01*
X136315604Y-103079128D01*
X136312840Y-103051060D01*
X136312840Y-102587340D01*
X136315604Y-102559272D01*
X136322000Y-102538191D01*
X136332388Y-102518755D01*
X136346364Y-102501724D01*
X136363395Y-102487748D01*
X136382831Y-102477360D01*
X136403912Y-102470964D01*
X136431980Y-102468200D01*
X138245700Y-102468200D01*
X138273768Y-102470964D01*
G37*
G36*
X133323768Y-102470964D02*
G01*
X133344849Y-102477360D01*
X133364285Y-102487748D01*
X133381316Y-102501724D01*
X133395292Y-102518755D01*
X133405680Y-102538191D01*
X133412076Y-102559272D01*
X133414840Y-102587340D01*
X133414840Y-103051060D01*
X133412076Y-103079128D01*
X133405680Y-103100209D01*
X133395292Y-103119645D01*
X133381316Y-103136676D01*
X133364285Y-103150652D01*
X133344849Y-103161040D01*
X133323768Y-103167436D01*
X133295700Y-103170200D01*
X131481980Y-103170200D01*
X131453912Y-103167436D01*
X131432831Y-103161040D01*
X131413395Y-103150652D01*
X131396364Y-103136676D01*
X131382388Y-103119645D01*
X131372000Y-103100209D01*
X131365604Y-103079128D01*
X131362840Y-103051060D01*
X131362840Y-102587340D01*
X131365604Y-102559272D01*
X131372000Y-102538191D01*
X131382388Y-102518755D01*
X131396364Y-102501724D01*
X131413395Y-102487748D01*
X131432831Y-102477360D01*
X131453912Y-102470964D01*
X131481980Y-102468200D01*
X133295700Y-102468200D01*
X133323768Y-102470964D01*
G37*
G36*
X139820659Y-102005045D02*
G01*
X139858155Y-102016420D01*
X139892714Y-102034892D01*
X139923007Y-102059753D01*
X139947868Y-102090046D01*
X139966340Y-102124605D01*
X139977715Y-102162101D01*
X139982160Y-102207238D01*
X139982160Y-102945962D01*
X139977715Y-102991099D01*
X139966340Y-103028595D01*
X139947868Y-103063154D01*
X139923007Y-103093447D01*
X139892714Y-103118308D01*
X139858155Y-103136780D01*
X139820659Y-103148155D01*
X139775522Y-103152600D01*
X139136798Y-103152600D01*
X139091661Y-103148155D01*
X139054165Y-103136780D01*
X139019606Y-103118308D01*
X138989313Y-103093447D01*
X138964452Y-103063154D01*
X138945980Y-103028595D01*
X138934605Y-102991099D01*
X138930160Y-102945962D01*
X138930160Y-102207238D01*
X138934605Y-102162101D01*
X138945980Y-102124605D01*
X138964452Y-102090046D01*
X138989313Y-102059753D01*
X139019606Y-102034892D01*
X139054165Y-102016420D01*
X139091661Y-102005045D01*
X139136798Y-102000600D01*
X139775522Y-102000600D01*
X139820659Y-102005045D01*
G37*
G36*
X127093028Y-101007183D02*
G01*
X127281722Y-101064423D01*
X127455615Y-101157371D01*
X127608039Y-101282461D01*
X127733129Y-101434885D01*
X127826077Y-101608778D01*
X127883317Y-101797472D01*
X127902643Y-101993700D01*
X127883317Y-102189928D01*
X127826077Y-102378622D01*
X127733129Y-102552515D01*
X127608039Y-102704939D01*
X127455615Y-102830029D01*
X127281722Y-102922977D01*
X127093028Y-102980217D01*
X126945975Y-102994700D01*
X126647625Y-102994700D01*
X126500572Y-102980217D01*
X126311878Y-102922977D01*
X126137985Y-102830029D01*
X125985561Y-102704939D01*
X125860471Y-102552515D01*
X125767523Y-102378622D01*
X125710283Y-102189928D01*
X125690957Y-101993700D01*
X125710283Y-101797472D01*
X125767523Y-101608778D01*
X125860471Y-101434885D01*
X125985561Y-101282461D01*
X126137985Y-101157371D01*
X126311878Y-101064423D01*
X126500572Y-101007183D01*
X126647625Y-100992700D01*
X126945975Y-100992700D01*
X127093028Y-101007183D01*
G37*
G36*
X142303028Y-101007183D02*
G01*
X142491722Y-101064423D01*
X142665615Y-101157371D01*
X142818039Y-101282461D01*
X142943129Y-101434885D01*
X143036077Y-101608778D01*
X143093317Y-101797472D01*
X143112643Y-101993700D01*
X143093317Y-102189928D01*
X143036077Y-102378622D01*
X142943129Y-102552515D01*
X142818039Y-102704939D01*
X142665615Y-102830029D01*
X142491722Y-102922977D01*
X142303028Y-102980217D01*
X142155975Y-102994700D01*
X141857625Y-102994700D01*
X141710572Y-102980217D01*
X141521878Y-102922977D01*
X141347985Y-102830029D01*
X141195561Y-102704939D01*
X141070471Y-102552515D01*
X140977523Y-102378622D01*
X140920283Y-102189928D01*
X140900957Y-101993700D01*
X140920283Y-101797472D01*
X140977523Y-101608778D01*
X141070471Y-101434885D01*
X141195561Y-101282461D01*
X141347985Y-101157371D01*
X141521878Y-101064423D01*
X141710572Y-101007183D01*
X141857625Y-100992700D01*
X142155975Y-100992700D01*
X142303028Y-101007183D01*
G37*
G36*
X130795800Y-101937960D02*
G01*
X128893800Y-101937960D01*
X128893800Y-100835960D01*
X130795800Y-100835960D01*
X130795800Y-101937960D01*
G37*
G36*
X138273768Y-101200964D02*
G01*
X138294849Y-101207360D01*
X138314285Y-101217748D01*
X138331316Y-101231724D01*
X138345292Y-101248755D01*
X138355680Y-101268191D01*
X138362076Y-101289272D01*
X138364840Y-101317340D01*
X138364840Y-101781060D01*
X138362076Y-101809128D01*
X138355680Y-101830209D01*
X138345292Y-101849645D01*
X138331316Y-101866676D01*
X138314285Y-101880652D01*
X138294849Y-101891040D01*
X138273768Y-101897436D01*
X138245700Y-101900200D01*
X136431980Y-101900200D01*
X136403912Y-101897436D01*
X136382831Y-101891040D01*
X136363395Y-101880652D01*
X136346364Y-101866676D01*
X136332388Y-101849645D01*
X136322000Y-101830209D01*
X136315604Y-101809128D01*
X136312840Y-101781060D01*
X136312840Y-101317340D01*
X136315604Y-101289272D01*
X136322000Y-101268191D01*
X136332388Y-101248755D01*
X136346364Y-101231724D01*
X136363395Y-101217748D01*
X136382831Y-101207360D01*
X136403912Y-101200964D01*
X136431980Y-101198200D01*
X138245700Y-101198200D01*
X138273768Y-101200964D01*
G37*
G36*
X133323768Y-101200964D02*
G01*
X133344849Y-101207360D01*
X133364285Y-101217748D01*
X133381316Y-101231724D01*
X133395292Y-101248755D01*
X133405680Y-101268191D01*
X133412076Y-101289272D01*
X133414840Y-101317340D01*
X133414840Y-101781060D01*
X133412076Y-101809128D01*
X133405680Y-101830209D01*
X133395292Y-101849645D01*
X133381316Y-101866676D01*
X133364285Y-101880652D01*
X133344849Y-101891040D01*
X133323768Y-101897436D01*
X133295700Y-101900200D01*
X131481980Y-101900200D01*
X131453912Y-101897436D01*
X131432831Y-101891040D01*
X131413395Y-101880652D01*
X131396364Y-101866676D01*
X131382388Y-101849645D01*
X131372000Y-101830209D01*
X131365604Y-101809128D01*
X131362840Y-101781060D01*
X131362840Y-101317340D01*
X131365604Y-101289272D01*
X131372000Y-101268191D01*
X131382388Y-101248755D01*
X131396364Y-101231724D01*
X131413395Y-101217748D01*
X131432831Y-101207360D01*
X131453912Y-101200964D01*
X131481980Y-101198200D01*
X133295700Y-101198200D01*
X133323768Y-101200964D01*
G37*
G36*
X139820659Y-100255045D02*
G01*
X139858155Y-100266420D01*
X139892714Y-100284892D01*
X139923007Y-100309753D01*
X139947868Y-100340046D01*
X139966340Y-100374605D01*
X139977715Y-100412101D01*
X139982160Y-100457238D01*
X139982160Y-101195962D01*
X139977715Y-101241099D01*
X139966340Y-101278595D01*
X139947868Y-101313154D01*
X139923007Y-101343447D01*
X139892714Y-101368308D01*
X139858155Y-101386780D01*
X139820659Y-101398155D01*
X139775522Y-101402600D01*
X139136798Y-101402600D01*
X139091661Y-101398155D01*
X139054165Y-101386780D01*
X139019606Y-101368308D01*
X138989313Y-101343447D01*
X138964452Y-101313154D01*
X138945980Y-101278595D01*
X138934605Y-101241099D01*
X138930160Y-101195962D01*
X138930160Y-100457238D01*
X138934605Y-100412101D01*
X138945980Y-100374605D01*
X138964452Y-100340046D01*
X138989313Y-100309753D01*
X139019606Y-100284892D01*
X139054165Y-100266420D01*
X139091661Y-100255045D01*
X139136798Y-100250600D01*
X139775522Y-100250600D01*
X139820659Y-100255045D01*
G37*
G36*
X138273768Y-99930964D02*
G01*
X138294849Y-99937360D01*
X138314285Y-99947748D01*
X138331316Y-99961724D01*
X138345292Y-99978755D01*
X138355680Y-99998191D01*
X138362076Y-100019272D01*
X138364840Y-100047340D01*
X138364840Y-100511060D01*
X138362076Y-100539128D01*
X138355680Y-100560209D01*
X138345292Y-100579645D01*
X138331316Y-100596676D01*
X138314285Y-100610652D01*
X138294849Y-100621040D01*
X138273768Y-100627436D01*
X138245700Y-100630200D01*
X136431980Y-100630200D01*
X136403912Y-100627436D01*
X136382831Y-100621040D01*
X136363395Y-100610652D01*
X136346364Y-100596676D01*
X136332388Y-100579645D01*
X136322000Y-100560209D01*
X136315604Y-100539128D01*
X136312840Y-100511060D01*
X136312840Y-100047340D01*
X136315604Y-100019272D01*
X136322000Y-99998191D01*
X136332388Y-99978755D01*
X136346364Y-99961724D01*
X136363395Y-99947748D01*
X136382831Y-99937360D01*
X136403912Y-99930964D01*
X136431980Y-99928200D01*
X138245700Y-99928200D01*
X138273768Y-99930964D01*
G37*
G36*
X133323768Y-99930964D02*
G01*
X133344849Y-99937360D01*
X133364285Y-99947748D01*
X133381316Y-99961724D01*
X133395292Y-99978755D01*
X133405680Y-99998191D01*
X133412076Y-100019272D01*
X133414840Y-100047340D01*
X133414840Y-100511060D01*
X133412076Y-100539128D01*
X133405680Y-100560209D01*
X133395292Y-100579645D01*
X133381316Y-100596676D01*
X133364285Y-100610652D01*
X133344849Y-100621040D01*
X133323768Y-100627436D01*
X133295700Y-100630200D01*
X131481980Y-100630200D01*
X131453912Y-100627436D01*
X131432831Y-100621040D01*
X131413395Y-100610652D01*
X131396364Y-100596676D01*
X131382388Y-100579645D01*
X131372000Y-100560209D01*
X131365604Y-100539128D01*
X131362840Y-100511060D01*
X131362840Y-100047340D01*
X131365604Y-100019272D01*
X131372000Y-99998191D01*
X131382388Y-99978755D01*
X131396364Y-99961724D01*
X131413395Y-99947748D01*
X131432831Y-99937360D01*
X131453912Y-99930964D01*
X131481980Y-99928200D01*
X133295700Y-99928200D01*
X133323768Y-99930964D01*
G37*
G36*
X127093028Y-98467183D02*
G01*
X127281722Y-98524423D01*
X127455615Y-98617371D01*
X127608039Y-98742461D01*
X127733129Y-98894885D01*
X127826077Y-99068778D01*
X127883317Y-99257472D01*
X127902643Y-99453700D01*
X127883317Y-99649928D01*
X127826077Y-99838622D01*
X127733129Y-100012515D01*
X127608039Y-100164939D01*
X127455615Y-100290029D01*
X127281722Y-100382977D01*
X127093028Y-100440217D01*
X126945975Y-100454700D01*
X126647625Y-100454700D01*
X126500572Y-100440217D01*
X126311878Y-100382977D01*
X126137985Y-100290029D01*
X125985561Y-100164939D01*
X125860471Y-100012515D01*
X125767523Y-99838622D01*
X125710283Y-99649928D01*
X125690957Y-99453700D01*
X125710283Y-99257472D01*
X125767523Y-99068778D01*
X125860471Y-98894885D01*
X125985561Y-98742461D01*
X126137985Y-98617371D01*
X126311878Y-98524423D01*
X126500572Y-98467183D01*
X126647625Y-98452700D01*
X126945975Y-98452700D01*
X127093028Y-98467183D01*
G37*
G36*
X142303028Y-98467183D02*
G01*
X142491722Y-98524423D01*
X142665615Y-98617371D01*
X142818039Y-98742461D01*
X142943129Y-98894885D01*
X143036077Y-99068778D01*
X143093317Y-99257472D01*
X143112643Y-99453700D01*
X143093317Y-99649928D01*
X143036077Y-99838622D01*
X142943129Y-100012515D01*
X142818039Y-100164939D01*
X142665615Y-100290029D01*
X142491722Y-100382977D01*
X142303028Y-100440217D01*
X142155975Y-100454700D01*
X141857625Y-100454700D01*
X141710572Y-100440217D01*
X141521878Y-100382977D01*
X141347985Y-100290029D01*
X141195561Y-100164939D01*
X141070471Y-100012515D01*
X140977523Y-99838622D01*
X140920283Y-99649928D01*
X140900957Y-99453700D01*
X140920283Y-99257472D01*
X140977523Y-99068778D01*
X141070471Y-98894885D01*
X141195561Y-98742461D01*
X141347985Y-98617371D01*
X141521878Y-98524423D01*
X141710572Y-98467183D01*
X141857625Y-98452700D01*
X142155975Y-98452700D01*
X142303028Y-98467183D01*
G37*
G36*
X139820659Y-98550645D02*
G01*
X139858155Y-98562020D01*
X139892714Y-98580492D01*
X139923007Y-98605353D01*
X139947868Y-98635646D01*
X139966340Y-98670205D01*
X139977715Y-98707701D01*
X139982160Y-98752838D01*
X139982160Y-99491562D01*
X139977715Y-99536699D01*
X139966340Y-99574195D01*
X139947868Y-99608754D01*
X139923007Y-99639047D01*
X139892714Y-99663908D01*
X139858155Y-99682380D01*
X139820659Y-99693755D01*
X139775522Y-99698200D01*
X139136798Y-99698200D01*
X139091661Y-99693755D01*
X139054165Y-99682380D01*
X139019606Y-99663908D01*
X138989313Y-99639047D01*
X138964452Y-99608754D01*
X138945980Y-99574195D01*
X138934605Y-99536699D01*
X138930160Y-99491562D01*
X138930160Y-98752838D01*
X138934605Y-98707701D01*
X138945980Y-98670205D01*
X138964452Y-98635646D01*
X138989313Y-98605353D01*
X139019606Y-98580492D01*
X139054165Y-98562020D01*
X139091661Y-98550645D01*
X139136798Y-98546200D01*
X139775522Y-98546200D01*
X139820659Y-98550645D01*
G37*
G36*
X155395800Y-81701803D02*
G01*
X156907994Y-82002597D01*
X158535152Y-82676588D01*
X159999555Y-83655072D01*
X161244928Y-84900445D01*
X162223412Y-86364848D01*
X162897403Y-87992006D01*
X163241000Y-89719388D01*
X163241000Y-91480612D01*
X162897403Y-93207994D01*
X162223412Y-94835152D01*
X161244928Y-96299555D01*
X159999555Y-97544928D01*
X158535152Y-98523412D01*
X156907994Y-99197403D01*
X155454557Y-99486509D01*
X155180613Y-99541000D01*
X153419387Y-99541000D01*
X153145443Y-99486509D01*
X151692006Y-99197403D01*
X150064848Y-98523412D01*
X148600445Y-97544928D01*
X147355072Y-96299555D01*
X146376588Y-94835152D01*
X145702597Y-93207994D01*
X145359000Y-91480612D01*
X145359000Y-89719388D01*
X145702597Y-87992006D01*
X146376588Y-86364848D01*
X147355072Y-84900445D01*
X148600445Y-83655072D01*
X150064848Y-82676588D01*
X151692006Y-82002597D01*
X153204200Y-81701803D01*
X153419387Y-81659000D01*
X155180613Y-81659000D01*
X155395800Y-81701803D01*
G37*
G36*
X130795800Y-99437960D02*
G01*
X128893800Y-99437960D01*
X128893800Y-98335960D01*
X130795800Y-98335960D01*
X130795800Y-99437960D01*
G37*
G36*
X138273768Y-98660964D02*
G01*
X138294849Y-98667360D01*
X138314285Y-98677748D01*
X138331316Y-98691724D01*
X138345292Y-98708755D01*
X138355680Y-98728191D01*
X138362076Y-98749272D01*
X138364840Y-98777340D01*
X138364840Y-99241060D01*
X138362076Y-99269128D01*
X138355680Y-99290209D01*
X138345292Y-99309645D01*
X138331316Y-99326676D01*
X138314285Y-99340652D01*
X138294849Y-99351040D01*
X138273768Y-99357436D01*
X138245700Y-99360200D01*
X136431980Y-99360200D01*
X136403912Y-99357436D01*
X136382831Y-99351040D01*
X136363395Y-99340652D01*
X136346364Y-99326676D01*
X136332388Y-99309645D01*
X136322000Y-99290209D01*
X136315604Y-99269128D01*
X136312840Y-99241060D01*
X136312840Y-98777340D01*
X136315604Y-98749272D01*
X136322000Y-98728191D01*
X136332388Y-98708755D01*
X136346364Y-98691724D01*
X136363395Y-98677748D01*
X136382831Y-98667360D01*
X136403912Y-98660964D01*
X136431980Y-98658200D01*
X138245700Y-98658200D01*
X138273768Y-98660964D01*
G37*
G36*
X133323768Y-98660964D02*
G01*
X133344849Y-98667360D01*
X133364285Y-98677748D01*
X133381316Y-98691724D01*
X133395292Y-98708755D01*
X133405680Y-98728191D01*
X133412076Y-98749272D01*
X133414840Y-98777340D01*
X133414840Y-99241060D01*
X133412076Y-99269128D01*
X133405680Y-99290209D01*
X133395292Y-99309645D01*
X133381316Y-99326676D01*
X133364285Y-99340652D01*
X133344849Y-99351040D01*
X133323768Y-99357436D01*
X133295700Y-99360200D01*
X131481980Y-99360200D01*
X131453912Y-99357436D01*
X131432831Y-99351040D01*
X131413395Y-99340652D01*
X131396364Y-99326676D01*
X131382388Y-99309645D01*
X131372000Y-99290209D01*
X131365604Y-99269128D01*
X131362840Y-99241060D01*
X131362840Y-98777340D01*
X131365604Y-98749272D01*
X131372000Y-98728191D01*
X131382388Y-98708755D01*
X131396364Y-98691724D01*
X131413395Y-98677748D01*
X131432831Y-98667360D01*
X131453912Y-98660964D01*
X131481980Y-98658200D01*
X133295700Y-98658200D01*
X133323768Y-98660964D01*
G37*
G36*
X139820659Y-96800645D02*
G01*
X139858155Y-96812020D01*
X139892714Y-96830492D01*
X139923007Y-96855353D01*
X139947868Y-96885646D01*
X139966340Y-96920205D01*
X139977715Y-96957701D01*
X139982160Y-97002838D01*
X139982160Y-97741562D01*
X139977715Y-97786699D01*
X139966340Y-97824195D01*
X139947868Y-97858754D01*
X139923007Y-97889047D01*
X139892714Y-97913908D01*
X139858155Y-97932380D01*
X139820659Y-97943755D01*
X139775522Y-97948200D01*
X139136798Y-97948200D01*
X139091661Y-97943755D01*
X139054165Y-97932380D01*
X139019606Y-97913908D01*
X138989313Y-97889047D01*
X138964452Y-97858754D01*
X138945980Y-97824195D01*
X138934605Y-97786699D01*
X138930160Y-97741562D01*
X138930160Y-97002838D01*
X138934605Y-96957701D01*
X138945980Y-96920205D01*
X138964452Y-96885646D01*
X138989313Y-96855353D01*
X139019606Y-96830492D01*
X139054165Y-96812020D01*
X139091661Y-96800645D01*
X139136798Y-96796200D01*
X139775522Y-96796200D01*
X139820659Y-96800645D01*
G37*
G36*
X142303028Y-95927183D02*
G01*
X142491722Y-95984423D01*
X142665615Y-96077371D01*
X142818039Y-96202461D01*
X142943129Y-96354885D01*
X143036077Y-96528778D01*
X143036078Y-96528781D01*
X143040296Y-96542685D01*
X143093317Y-96717472D01*
X143112643Y-96913700D01*
X143093317Y-97109928D01*
X143036077Y-97298622D01*
X142943129Y-97472515D01*
X142818039Y-97624939D01*
X142665615Y-97750029D01*
X142491722Y-97842977D01*
X142303028Y-97900217D01*
X142155975Y-97914700D01*
X141857625Y-97914700D01*
X141710572Y-97900217D01*
X141521878Y-97842977D01*
X141347985Y-97750029D01*
X141195561Y-97624939D01*
X141070471Y-97472515D01*
X140977523Y-97298622D01*
X140920283Y-97109928D01*
X140900957Y-96913700D01*
X140920283Y-96717472D01*
X140973304Y-96542685D01*
X140977522Y-96528781D01*
X140977523Y-96528778D01*
X141070471Y-96354885D01*
X141195561Y-96202461D01*
X141347985Y-96077371D01*
X141521878Y-95984423D01*
X141710572Y-95927183D01*
X141857625Y-95912700D01*
X142155975Y-95912700D01*
X142303028Y-95927183D01*
G37*
G36*
X127093028Y-95927183D02*
G01*
X127281722Y-95984423D01*
X127455615Y-96077371D01*
X127608039Y-96202461D01*
X127733129Y-96354885D01*
X127826077Y-96528778D01*
X127826078Y-96528781D01*
X127830296Y-96542685D01*
X127883317Y-96717472D01*
X127902643Y-96913700D01*
X127883317Y-97109928D01*
X127826077Y-97298622D01*
X127733129Y-97472515D01*
X127608039Y-97624939D01*
X127455615Y-97750029D01*
X127281722Y-97842977D01*
X127093028Y-97900217D01*
X126945975Y-97914700D01*
X126647625Y-97914700D01*
X126500572Y-97900217D01*
X126311878Y-97842977D01*
X126137985Y-97750029D01*
X125985561Y-97624939D01*
X125860471Y-97472515D01*
X125767523Y-97298622D01*
X125710283Y-97109928D01*
X125690957Y-96913700D01*
X125710283Y-96717472D01*
X125763304Y-96542685D01*
X125767522Y-96528781D01*
X125767523Y-96528778D01*
X125860471Y-96354885D01*
X125985561Y-96202461D01*
X126137985Y-96077371D01*
X126311878Y-95984423D01*
X126500572Y-95927183D01*
X126647625Y-95912700D01*
X126945975Y-95912700D01*
X127093028Y-95927183D01*
G37*
G36*
X133535119Y-96105817D02*
G01*
X133544728Y-96108732D01*
X133553592Y-96113470D01*
X133561357Y-96119843D01*
X133571568Y-96132286D01*
X133578498Y-96142655D01*
X133595825Y-96159982D01*
X133616200Y-96173595D01*
X133638840Y-96182971D01*
X133662873Y-96187751D01*
X133687377Y-96187750D01*
X133711410Y-96182968D01*
X133734049Y-96173590D01*
X133754422Y-96159975D01*
X133771749Y-96142648D01*
X133778678Y-96132278D01*
X133788883Y-96119843D01*
X133796648Y-96113470D01*
X133805512Y-96108732D01*
X133815121Y-96105817D01*
X133831260Y-96104228D01*
X134318981Y-96104228D01*
X134337319Y-96106034D01*
X134349570Y-96106636D01*
X134367989Y-96106636D01*
X134390269Y-96108830D01*
X134474353Y-96125556D01*
X134495780Y-96132056D01*
X134574978Y-96164860D01*
X134580423Y-96167771D01*
X134580429Y-96167773D01*
X134589289Y-96172509D01*
X134589293Y-96172512D01*
X134594734Y-96175420D01*
X134666019Y-96223051D01*
X134683324Y-96237252D01*
X134743948Y-96297876D01*
X134758149Y-96315181D01*
X134805780Y-96386466D01*
X134808688Y-96391907D01*
X134808691Y-96391911D01*
X134813427Y-96400771D01*
X134813429Y-96400777D01*
X134816340Y-96406222D01*
X134849144Y-96485420D01*
X134855644Y-96506847D01*
X134872370Y-96590931D01*
X134874564Y-96613211D01*
X134874564Y-96631630D01*
X134875166Y-96643881D01*
X134876972Y-96662219D01*
X134876972Y-97149942D01*
X134875166Y-97168279D01*
X134874564Y-97180530D01*
X134874564Y-97198949D01*
X134872370Y-97221229D01*
X134855644Y-97305313D01*
X134849144Y-97326740D01*
X134816340Y-97405938D01*
X134813429Y-97411383D01*
X134813427Y-97411389D01*
X134808691Y-97420249D01*
X134808688Y-97420253D01*
X134805780Y-97425694D01*
X134758149Y-97496979D01*
X134743948Y-97514284D01*
X134683324Y-97574908D01*
X134666019Y-97589109D01*
X134594734Y-97636740D01*
X134589293Y-97639648D01*
X134589289Y-97639651D01*
X134580429Y-97644387D01*
X134580423Y-97644389D01*
X134574978Y-97647300D01*
X134495780Y-97680104D01*
X134474353Y-97686604D01*
X134390269Y-97703330D01*
X134367989Y-97705524D01*
X134349570Y-97705524D01*
X134337319Y-97706126D01*
X134318982Y-97707932D01*
X133831260Y-97707932D01*
X133815121Y-97706343D01*
X133805512Y-97703428D01*
X133796648Y-97698690D01*
X133788883Y-97692317D01*
X133778672Y-97679874D01*
X133771742Y-97669505D01*
X133754415Y-97652178D01*
X133734040Y-97638565D01*
X133711400Y-97629189D01*
X133687367Y-97624409D01*
X133662863Y-97624410D01*
X133638830Y-97629192D01*
X133616191Y-97638570D01*
X133595818Y-97652185D01*
X133578491Y-97669512D01*
X133571562Y-97679882D01*
X133561357Y-97692317D01*
X133553592Y-97698690D01*
X133544728Y-97703428D01*
X133535119Y-97706343D01*
X133518980Y-97707932D01*
X133031258Y-97707932D01*
X133012921Y-97706126D01*
X133000670Y-97705524D01*
X132982251Y-97705524D01*
X132959971Y-97703330D01*
X132875887Y-97686604D01*
X132854460Y-97680104D01*
X132775262Y-97647300D01*
X132769817Y-97644389D01*
X132769811Y-97644387D01*
X132760951Y-97639651D01*
X132760947Y-97639648D01*
X132755506Y-97636740D01*
X132684221Y-97589109D01*
X132666916Y-97574908D01*
X132606292Y-97514284D01*
X132592091Y-97496979D01*
X132544460Y-97425694D01*
X132541552Y-97420253D01*
X132541549Y-97420249D01*
X132536813Y-97411389D01*
X132536811Y-97411383D01*
X132533900Y-97405938D01*
X132501096Y-97326740D01*
X132494596Y-97305313D01*
X132477870Y-97221229D01*
X132475676Y-97198949D01*
X132475676Y-97180530D01*
X132475074Y-97168279D01*
X132473268Y-97149942D01*
X132473268Y-96662219D01*
X132475074Y-96643881D01*
X132475676Y-96631630D01*
X132475676Y-96613211D01*
X132477870Y-96590931D01*
X132494596Y-96506847D01*
X132501096Y-96485420D01*
X132533900Y-96406222D01*
X132536811Y-96400777D01*
X132536813Y-96400771D01*
X132541549Y-96391911D01*
X132541552Y-96391907D01*
X132544460Y-96386466D01*
X132592091Y-96315181D01*
X132606292Y-96297876D01*
X132666916Y-96237252D01*
X132684221Y-96223051D01*
X132755506Y-96175420D01*
X132760947Y-96172512D01*
X132760951Y-96172509D01*
X132769811Y-96167773D01*
X132769817Y-96167771D01*
X132775262Y-96164860D01*
X132854460Y-96132056D01*
X132875887Y-96125556D01*
X132959971Y-96108830D01*
X132982251Y-96106636D01*
X133000670Y-96106636D01*
X133012921Y-96106034D01*
X133031259Y-96104228D01*
X133518980Y-96104228D01*
X133535119Y-96105817D01*
G37*
G36*
X138322499Y-96430245D02*
G01*
X138359995Y-96441620D01*
X138394554Y-96460092D01*
X138424847Y-96484953D01*
X138449708Y-96515246D01*
X138468180Y-96549805D01*
X138479555Y-96587301D01*
X138484000Y-96632438D01*
X138484000Y-97271162D01*
X138479555Y-97316299D01*
X138468180Y-97353795D01*
X138449708Y-97388354D01*
X138424847Y-97418647D01*
X138394554Y-97443508D01*
X138359995Y-97461980D01*
X138322499Y-97473355D01*
X138277362Y-97477800D01*
X137538638Y-97477800D01*
X137493501Y-97473355D01*
X137456005Y-97461980D01*
X137421446Y-97443508D01*
X137391153Y-97418647D01*
X137366292Y-97388354D01*
X137347820Y-97353795D01*
X137336445Y-97316299D01*
X137332000Y-97271162D01*
X137332000Y-96632438D01*
X137336445Y-96587301D01*
X137347820Y-96549805D01*
X137366292Y-96515246D01*
X137391153Y-96484953D01*
X137421446Y-96460092D01*
X137456005Y-96441620D01*
X137493501Y-96430245D01*
X137538638Y-96425800D01*
X138277362Y-96425800D01*
X138322499Y-96430245D01*
G37*
G36*
X136572499Y-96430245D02*
G01*
X136609995Y-96441620D01*
X136644554Y-96460092D01*
X136674847Y-96484953D01*
X136699708Y-96515246D01*
X136718180Y-96549805D01*
X136729555Y-96587301D01*
X136734000Y-96632438D01*
X136734000Y-97271162D01*
X136729555Y-97316299D01*
X136718180Y-97353795D01*
X136699708Y-97388354D01*
X136674847Y-97418647D01*
X136644554Y-97443508D01*
X136609995Y-97461980D01*
X136572499Y-97473355D01*
X136527362Y-97477800D01*
X135788638Y-97477800D01*
X135743501Y-97473355D01*
X135706005Y-97461980D01*
X135671446Y-97443508D01*
X135641153Y-97418647D01*
X135616292Y-97388354D01*
X135597820Y-97353795D01*
X135586445Y-97316299D01*
X135582000Y-97271162D01*
X135582000Y-96632438D01*
X135586445Y-96587301D01*
X135597820Y-96549805D01*
X135616292Y-96515246D01*
X135641153Y-96484953D01*
X135671446Y-96460092D01*
X135706005Y-96441620D01*
X135743501Y-96430245D01*
X135788638Y-96425800D01*
X136527362Y-96425800D01*
X136572499Y-96430245D01*
G37*
G36*
X131515299Y-96409925D02*
G01*
X131552795Y-96421300D01*
X131587354Y-96439772D01*
X131617647Y-96464633D01*
X131642508Y-96494926D01*
X131660980Y-96529485D01*
X131672355Y-96566981D01*
X131676800Y-96612118D01*
X131676800Y-97250842D01*
X131672355Y-97295979D01*
X131660980Y-97333475D01*
X131642508Y-97368034D01*
X131617647Y-97398327D01*
X131587354Y-97423188D01*
X131552795Y-97441660D01*
X131515299Y-97453035D01*
X131470162Y-97457480D01*
X130731438Y-97457480D01*
X130686301Y-97453035D01*
X130648805Y-97441660D01*
X130614246Y-97423188D01*
X130583953Y-97398327D01*
X130559092Y-97368034D01*
X130540620Y-97333475D01*
X130529245Y-97295979D01*
X130524800Y-97250842D01*
X130524800Y-96612118D01*
X130529245Y-96566981D01*
X130540620Y-96529485D01*
X130559092Y-96494926D01*
X130583953Y-96464633D01*
X130614246Y-96439772D01*
X130648805Y-96421300D01*
X130686301Y-96409925D01*
X130731438Y-96405480D01*
X131470162Y-96405480D01*
X131515299Y-96409925D01*
G37*
G36*
X129765299Y-96409925D02*
G01*
X129802795Y-96421300D01*
X129837354Y-96439772D01*
X129867647Y-96464633D01*
X129892508Y-96494926D01*
X129910980Y-96529485D01*
X129922355Y-96566981D01*
X129926800Y-96612118D01*
X129926800Y-97250842D01*
X129922355Y-97295979D01*
X129910980Y-97333475D01*
X129892508Y-97368034D01*
X129867647Y-97398327D01*
X129837354Y-97423188D01*
X129802795Y-97441660D01*
X129765299Y-97453035D01*
X129720162Y-97457480D01*
X128981438Y-97457480D01*
X128936301Y-97453035D01*
X128898805Y-97441660D01*
X128864246Y-97423188D01*
X128833953Y-97398327D01*
X128809092Y-97368034D01*
X128790620Y-97333475D01*
X128779245Y-97295979D01*
X128774800Y-97250842D01*
X128774800Y-96612118D01*
X128779245Y-96566981D01*
X128790620Y-96529485D01*
X128809092Y-96494926D01*
X128833953Y-96464633D01*
X128864246Y-96439772D01*
X128898805Y-96421300D01*
X128936301Y-96409925D01*
X128981438Y-96405480D01*
X129720162Y-96405480D01*
X129765299Y-96409925D01*
G37*
G36*
X139164639Y-93099994D02*
G01*
X139176890Y-93100596D01*
X139195309Y-93100596D01*
X139217589Y-93102790D01*
X139301673Y-93119516D01*
X139323100Y-93126016D01*
X139402298Y-93158820D01*
X139407743Y-93161731D01*
X139407749Y-93161733D01*
X139416609Y-93166469D01*
X139416613Y-93166472D01*
X139422054Y-93169380D01*
X139493339Y-93217011D01*
X139510644Y-93231212D01*
X139571268Y-93291836D01*
X139585469Y-93309141D01*
X139633100Y-93380426D01*
X139636008Y-93385867D01*
X139636011Y-93385871D01*
X139640747Y-93394731D01*
X139640749Y-93394737D01*
X139643660Y-93400182D01*
X139676464Y-93479380D01*
X139682964Y-93500807D01*
X139699690Y-93584891D01*
X139701884Y-93607171D01*
X139701884Y-93625590D01*
X139702486Y-93637841D01*
X139704292Y-93656179D01*
X139704292Y-94143900D01*
X139702703Y-94160039D01*
X139699788Y-94169648D01*
X139695050Y-94178512D01*
X139688677Y-94186277D01*
X139676234Y-94196488D01*
X139665865Y-94203418D01*
X139648538Y-94220745D01*
X139634925Y-94241120D01*
X139625549Y-94263760D01*
X139620769Y-94287793D01*
X139620770Y-94312297D01*
X139625552Y-94336330D01*
X139634930Y-94358969D01*
X139648545Y-94379342D01*
X139665872Y-94396669D01*
X139676242Y-94403598D01*
X139688677Y-94413803D01*
X139695050Y-94421568D01*
X139699788Y-94430432D01*
X139702703Y-94440041D01*
X139704292Y-94456180D01*
X139704292Y-94943902D01*
X139702486Y-94962239D01*
X139701884Y-94974490D01*
X139701884Y-94992909D01*
X139699690Y-95015189D01*
X139682964Y-95099273D01*
X139676464Y-95120700D01*
X139643660Y-95199898D01*
X139640749Y-95205343D01*
X139640747Y-95205349D01*
X139636011Y-95214209D01*
X139636008Y-95214213D01*
X139633100Y-95219654D01*
X139585469Y-95290939D01*
X139571268Y-95308244D01*
X139510644Y-95368868D01*
X139493339Y-95383069D01*
X139422054Y-95430700D01*
X139416613Y-95433608D01*
X139416609Y-95433611D01*
X139407749Y-95438347D01*
X139407743Y-95438349D01*
X139402298Y-95441260D01*
X139323100Y-95474064D01*
X139301673Y-95480564D01*
X139217589Y-95497290D01*
X139195309Y-95499484D01*
X139176890Y-95499484D01*
X139164639Y-95500086D01*
X139146302Y-95501892D01*
X138658578Y-95501892D01*
X138640241Y-95500086D01*
X138627990Y-95499484D01*
X138609571Y-95499484D01*
X138587291Y-95497290D01*
X138503207Y-95480564D01*
X138481780Y-95474064D01*
X138402582Y-95441260D01*
X138397137Y-95438349D01*
X138397131Y-95438347D01*
X138388271Y-95433611D01*
X138388267Y-95433608D01*
X138382826Y-95430700D01*
X138311541Y-95383069D01*
X138294236Y-95368868D01*
X138233612Y-95308244D01*
X138219411Y-95290939D01*
X138171780Y-95219654D01*
X138168872Y-95214213D01*
X138168869Y-95214209D01*
X138164133Y-95205349D01*
X138164131Y-95205343D01*
X138161220Y-95199898D01*
X138128416Y-95120700D01*
X138121916Y-95099273D01*
X138105190Y-95015189D01*
X138102996Y-94992909D01*
X138102996Y-94974490D01*
X138102394Y-94962239D01*
X138100588Y-94943902D01*
X138100588Y-94456180D01*
X138102177Y-94440041D01*
X138105092Y-94430432D01*
X138109830Y-94421568D01*
X138116203Y-94413803D01*
X138128646Y-94403592D01*
X138139015Y-94396662D01*
X138156342Y-94379335D01*
X138169955Y-94358960D01*
X138179331Y-94336320D01*
X138184111Y-94312287D01*
X138184110Y-94287783D01*
X138179328Y-94263750D01*
X138169950Y-94241111D01*
X138156335Y-94220738D01*
X138139008Y-94203411D01*
X138128638Y-94196482D01*
X138116203Y-94186277D01*
X138109830Y-94178512D01*
X138105092Y-94169648D01*
X138102177Y-94160039D01*
X138100588Y-94143900D01*
X138100588Y-93656179D01*
X138102394Y-93637841D01*
X138102996Y-93625590D01*
X138102996Y-93607171D01*
X138105190Y-93584891D01*
X138121916Y-93500807D01*
X138128416Y-93479380D01*
X138161220Y-93400182D01*
X138164131Y-93394737D01*
X138164133Y-93394731D01*
X138168869Y-93385871D01*
X138168872Y-93385867D01*
X138171780Y-93380426D01*
X138219411Y-93309141D01*
X138233612Y-93291836D01*
X138294236Y-93231212D01*
X138311541Y-93217011D01*
X138382826Y-93169380D01*
X138388267Y-93166472D01*
X138388271Y-93166469D01*
X138397131Y-93161733D01*
X138397137Y-93161731D01*
X138402582Y-93158820D01*
X138481780Y-93126016D01*
X138503207Y-93119516D01*
X138587291Y-93102790D01*
X138609571Y-93100596D01*
X138627990Y-93100596D01*
X138640241Y-93099994D01*
X138658579Y-93098188D01*
X139146301Y-93098188D01*
X139164639Y-93099994D01*
G37*
G36*
X142303028Y-93387183D02*
G01*
X142491722Y-93444423D01*
X142665615Y-93537371D01*
X142818039Y-93662461D01*
X142943129Y-93814885D01*
X143036077Y-93988778D01*
X143093317Y-94177472D01*
X143112643Y-94373700D01*
X143093317Y-94569928D01*
X143036077Y-94758622D01*
X142943129Y-94932515D01*
X142818039Y-95084939D01*
X142665615Y-95210029D01*
X142491722Y-95302977D01*
X142303028Y-95360217D01*
X142155975Y-95374700D01*
X141857625Y-95374700D01*
X141710572Y-95360217D01*
X141521878Y-95302977D01*
X141347985Y-95210029D01*
X141195561Y-95084939D01*
X141070471Y-94932515D01*
X140977523Y-94758622D01*
X140920283Y-94569928D01*
X140900957Y-94373700D01*
X140920283Y-94177472D01*
X140977523Y-93988778D01*
X141070471Y-93814885D01*
X141195561Y-93662461D01*
X141347985Y-93537371D01*
X141521878Y-93444423D01*
X141710572Y-93387183D01*
X141857625Y-93372700D01*
X142155975Y-93372700D01*
X142303028Y-93387183D01*
G37*
G36*
X127093028Y-93387183D02*
G01*
X127281722Y-93444423D01*
X127455615Y-93537371D01*
X127608039Y-93662461D01*
X127733129Y-93814885D01*
X127826077Y-93988778D01*
X127883317Y-94177472D01*
X127902643Y-94373700D01*
X127883317Y-94569928D01*
X127826077Y-94758622D01*
X127733129Y-94932515D01*
X127608039Y-95084939D01*
X127455615Y-95210029D01*
X127281722Y-95302977D01*
X127093028Y-95360217D01*
X126945975Y-95374700D01*
X126647625Y-95374700D01*
X126500572Y-95360217D01*
X126311878Y-95302977D01*
X126137985Y-95210029D01*
X125985561Y-95084939D01*
X125860471Y-94932515D01*
X125767523Y-94758622D01*
X125710283Y-94569928D01*
X125690957Y-94373700D01*
X125710283Y-94177472D01*
X125767523Y-93988778D01*
X125860471Y-93814885D01*
X125985561Y-93662461D01*
X126137985Y-93537371D01*
X126311878Y-93444423D01*
X126500572Y-93387183D01*
X126647625Y-93372700D01*
X126945975Y-93372700D01*
X127093028Y-93387183D01*
G37*
G36*
X132554240Y-95367760D02*
G01*
X131212240Y-95367760D01*
X131212240Y-94715760D01*
X132554240Y-94715760D01*
X132554240Y-95367760D01*
G37*
G36*
X130184240Y-95367760D02*
G01*
X128842240Y-95367760D01*
X128842240Y-94715760D01*
X130184240Y-94715760D01*
X130184240Y-95367760D01*
G37*
G36*
X134359480Y-94459080D02*
G01*
X133157480Y-94459080D01*
X133157480Y-93257080D01*
X134359480Y-93257080D01*
X134359480Y-94459080D01*
G37*
G36*
X137159480Y-94459080D02*
G01*
X135957480Y-94459080D01*
X135957480Y-93257080D01*
X137159480Y-93257080D01*
X137159480Y-94459080D01*
G37*
G36*
X132554240Y-94417760D02*
G01*
X131212240Y-94417760D01*
X131212240Y-93765760D01*
X132554240Y-93765760D01*
X132554240Y-94417760D01*
G37*
G36*
X130184240Y-93467760D02*
G01*
X128842240Y-93467760D01*
X128842240Y-92815760D01*
X130184240Y-92815760D01*
X130184240Y-93467760D01*
G37*
G36*
X132554240Y-93467760D02*
G01*
X131212240Y-93467760D01*
X131212240Y-92815760D01*
X132554240Y-92815760D01*
X132554240Y-93467760D01*
G37*
G36*
X127093028Y-90847183D02*
G01*
X127281722Y-90904423D01*
X127455615Y-90997371D01*
X127608039Y-91122461D01*
X127733129Y-91274885D01*
X127826077Y-91448778D01*
X127883317Y-91637472D01*
X127902643Y-91833700D01*
X127883317Y-92029928D01*
X127826077Y-92218622D01*
X127733129Y-92392515D01*
X127608039Y-92544939D01*
X127455615Y-92670029D01*
X127281722Y-92762977D01*
X127093028Y-92820217D01*
X126945975Y-92834700D01*
X126647625Y-92834700D01*
X126500572Y-92820217D01*
X126311878Y-92762977D01*
X126137985Y-92670029D01*
X125985561Y-92544939D01*
X125860471Y-92392515D01*
X125767523Y-92218622D01*
X125710283Y-92029928D01*
X125690957Y-91833700D01*
X125710283Y-91637472D01*
X125767523Y-91448778D01*
X125860471Y-91274885D01*
X125985561Y-91122461D01*
X126137985Y-90997371D01*
X126311878Y-90904423D01*
X126500572Y-90847183D01*
X126647625Y-90832700D01*
X126945975Y-90832700D01*
X127093028Y-90847183D01*
G37*
G36*
X142303028Y-90847183D02*
G01*
X142491722Y-90904423D01*
X142665615Y-90997371D01*
X142818039Y-91122461D01*
X142943129Y-91274885D01*
X143036077Y-91448778D01*
X143093317Y-91637472D01*
X143112643Y-91833700D01*
X143093317Y-92029928D01*
X143036077Y-92218622D01*
X142943129Y-92392515D01*
X142818039Y-92544939D01*
X142665615Y-92670029D01*
X142491722Y-92762977D01*
X142303028Y-92820217D01*
X142155975Y-92834700D01*
X141857625Y-92834700D01*
X141710572Y-92820217D01*
X141521878Y-92762977D01*
X141347985Y-92670029D01*
X141195561Y-92544939D01*
X141070471Y-92392515D01*
X140977523Y-92218622D01*
X140920283Y-92029928D01*
X140900957Y-91833700D01*
X140920283Y-91637472D01*
X140977523Y-91448778D01*
X141070471Y-91274885D01*
X141195561Y-91122461D01*
X141347985Y-90997371D01*
X141521878Y-90904423D01*
X141710572Y-90847183D01*
X141857625Y-90832700D01*
X142155975Y-90832700D01*
X142303028Y-90847183D01*
G37*
G36*
X139545260Y-91800880D02*
G01*
X137919260Y-91800880D01*
X137919260Y-91140080D01*
X139545260Y-91140080D01*
X139545260Y-91800880D01*
G37*
G36*
X132255460Y-91800880D02*
G01*
X130629460Y-91800880D01*
X130629460Y-91140080D01*
X132255460Y-91140080D01*
X132255460Y-91800880D01*
G37*
G36*
X132255460Y-90530880D02*
G01*
X130629460Y-90530880D01*
X130629460Y-89870080D01*
X132255460Y-89870080D01*
X132255460Y-90530880D01*
G37*
G36*
X139545260Y-90530880D02*
G01*
X137919260Y-90530880D01*
X137919260Y-89870080D01*
X139545260Y-89870080D01*
X139545260Y-90530880D01*
G37*
G36*
X127093028Y-88307183D02*
G01*
X127281722Y-88364423D01*
X127455615Y-88457371D01*
X127608039Y-88582461D01*
X127733129Y-88734885D01*
X127826077Y-88908778D01*
X127883317Y-89097472D01*
X127902643Y-89293700D01*
X127883317Y-89489928D01*
X127826077Y-89678622D01*
X127733129Y-89852515D01*
X127608039Y-90004939D01*
X127455615Y-90130029D01*
X127281722Y-90222977D01*
X127093028Y-90280217D01*
X126945975Y-90294700D01*
X126647625Y-90294700D01*
X126500572Y-90280217D01*
X126311878Y-90222977D01*
X126137985Y-90130029D01*
X125985561Y-90004939D01*
X125860471Y-89852515D01*
X125767523Y-89678622D01*
X125710283Y-89489928D01*
X125690957Y-89293700D01*
X125710283Y-89097472D01*
X125767523Y-88908778D01*
X125860471Y-88734885D01*
X125985561Y-88582461D01*
X126137985Y-88457371D01*
X126311878Y-88364423D01*
X126500572Y-88307183D01*
X126647625Y-88292700D01*
X126945975Y-88292700D01*
X127093028Y-88307183D01*
G37*
G36*
X142303028Y-88307183D02*
G01*
X142491722Y-88364423D01*
X142665615Y-88457371D01*
X142818039Y-88582461D01*
X142943129Y-88734885D01*
X143036077Y-88908778D01*
X143093317Y-89097472D01*
X143112643Y-89293700D01*
X143093317Y-89489928D01*
X143036077Y-89678622D01*
X142943129Y-89852515D01*
X142818039Y-90004939D01*
X142665615Y-90130029D01*
X142491722Y-90222977D01*
X142303028Y-90280217D01*
X142155975Y-90294700D01*
X141857625Y-90294700D01*
X141710572Y-90280217D01*
X141521878Y-90222977D01*
X141347985Y-90130029D01*
X141195561Y-90004939D01*
X141070471Y-89852515D01*
X140977523Y-89678622D01*
X140920283Y-89489928D01*
X140900957Y-89293700D01*
X140920283Y-89097472D01*
X140977523Y-88908778D01*
X141070471Y-88734885D01*
X141195561Y-88582461D01*
X141347985Y-88457371D01*
X141521878Y-88364423D01*
X141710572Y-88307183D01*
X141857625Y-88292700D01*
X142155975Y-88292700D01*
X142303028Y-88307183D01*
G37*
G36*
X139545260Y-89260880D02*
G01*
X137919260Y-89260880D01*
X137919260Y-88600080D01*
X139545260Y-88600080D01*
X139545260Y-89260880D01*
G37*
G36*
X132255460Y-89260880D02*
G01*
X130629460Y-89260880D01*
X130629460Y-88600080D01*
X132255460Y-88600080D01*
X132255460Y-89260880D01*
G37*
G36*
X132255460Y-87990880D02*
G01*
X130629460Y-87990880D01*
X130629460Y-87330080D01*
X132255460Y-87330080D01*
X132255460Y-87990880D01*
G37*
G36*
X139545260Y-87990880D02*
G01*
X137919260Y-87990880D01*
X137919260Y-87330080D01*
X139545260Y-87330080D01*
X139545260Y-87990880D01*
G37*
G36*
X142303028Y-85767183D02*
G01*
X142491722Y-85824423D01*
X142665615Y-85917371D01*
X142818039Y-86042461D01*
X142943129Y-86194885D01*
X143036077Y-86368778D01*
X143093317Y-86557472D01*
X143112643Y-86753700D01*
X143093317Y-86949928D01*
X143036077Y-87138622D01*
X142943129Y-87312515D01*
X142818039Y-87464939D01*
X142665615Y-87590029D01*
X142491722Y-87682977D01*
X142303028Y-87740217D01*
X142155975Y-87754700D01*
X141857625Y-87754700D01*
X141710572Y-87740217D01*
X141521878Y-87682977D01*
X141347985Y-87590029D01*
X141195561Y-87464939D01*
X141070471Y-87312515D01*
X140977523Y-87138622D01*
X140920283Y-86949928D01*
X140900957Y-86753700D01*
X140920283Y-86557472D01*
X140977523Y-86368778D01*
X141070471Y-86194885D01*
X141195561Y-86042461D01*
X141347985Y-85917371D01*
X141521878Y-85824423D01*
X141710572Y-85767183D01*
X141857625Y-85752700D01*
X142155975Y-85752700D01*
X142303028Y-85767183D01*
G37*
G36*
X127093028Y-85767183D02*
G01*
X127281722Y-85824423D01*
X127455615Y-85917371D01*
X127608039Y-86042461D01*
X127733129Y-86194885D01*
X127826077Y-86368778D01*
X127883317Y-86557472D01*
X127902643Y-86753700D01*
X127883317Y-86949928D01*
X127826077Y-87138622D01*
X127733129Y-87312515D01*
X127608039Y-87464939D01*
X127455615Y-87590029D01*
X127281722Y-87682977D01*
X127093028Y-87740217D01*
X126945975Y-87754700D01*
X126647625Y-87754700D01*
X126500572Y-87740217D01*
X126311878Y-87682977D01*
X126137985Y-87590029D01*
X125985561Y-87464939D01*
X125860471Y-87312515D01*
X125767523Y-87138622D01*
X125710283Y-86949928D01*
X125690957Y-86753700D01*
X125710283Y-86557472D01*
X125767523Y-86368778D01*
X125860471Y-86194885D01*
X125985561Y-86042461D01*
X126137985Y-85917371D01*
X126311878Y-85824423D01*
X126500572Y-85767183D01*
X126647625Y-85752700D01*
X126945975Y-85752700D01*
X127093028Y-85767183D01*
G37*
G36*
X132450700Y-86287800D02*
G01*
X131448700Y-86287800D01*
X131448700Y-85385800D01*
X132450700Y-85385800D01*
X132450700Y-86287800D01*
G37*
G36*
X137928000Y-86236200D02*
G01*
X136726000Y-86236200D01*
X136726000Y-85034200D01*
X137928000Y-85034200D01*
X137928000Y-86236200D01*
G37*
G36*
X130450700Y-85337800D02*
G01*
X129448700Y-85337800D01*
X129448700Y-84435800D01*
X130450700Y-84435800D01*
X130450700Y-85337800D01*
G37*
G36*
X139670799Y-84110745D02*
G01*
X139708295Y-84122120D01*
X139742854Y-84140592D01*
X139773147Y-84165453D01*
X139798008Y-84195746D01*
X139816480Y-84230305D01*
X139827855Y-84267801D01*
X139832300Y-84312938D01*
X139832300Y-85051662D01*
X139827855Y-85096799D01*
X139816480Y-85134295D01*
X139798008Y-85168854D01*
X139773147Y-85199147D01*
X139742854Y-85224008D01*
X139708295Y-85242480D01*
X139670799Y-85253855D01*
X139625662Y-85258300D01*
X138986938Y-85258300D01*
X138941801Y-85253855D01*
X138904305Y-85242480D01*
X138869746Y-85224008D01*
X138839453Y-85199147D01*
X138814592Y-85168854D01*
X138796120Y-85134295D01*
X138784745Y-85096799D01*
X138780300Y-85051662D01*
X138780300Y-84312938D01*
X138784745Y-84267801D01*
X138796120Y-84230305D01*
X138814592Y-84195746D01*
X138839453Y-84165453D01*
X138869746Y-84140592D01*
X138904305Y-84122120D01*
X138941801Y-84110745D01*
X138986938Y-84106300D01*
X139625662Y-84106300D01*
X139670799Y-84110745D01*
G37*
G36*
X142303028Y-83227183D02*
G01*
X142491722Y-83284423D01*
X142665615Y-83377371D01*
X142818039Y-83502461D01*
X142943129Y-83654885D01*
X143036077Y-83828778D01*
X143036078Y-83828781D01*
X143038451Y-83836605D01*
X143093317Y-84017472D01*
X143112643Y-84213700D01*
X143093317Y-84409928D01*
X143036077Y-84598622D01*
X142943129Y-84772515D01*
X142818039Y-84924939D01*
X142665615Y-85050029D01*
X142491722Y-85142977D01*
X142303028Y-85200217D01*
X142155975Y-85214700D01*
X141857625Y-85214700D01*
X141710572Y-85200217D01*
X141521878Y-85142977D01*
X141347985Y-85050029D01*
X141195561Y-84924939D01*
X141070471Y-84772515D01*
X140977523Y-84598622D01*
X140920283Y-84409928D01*
X140900957Y-84213700D01*
X140920283Y-84017472D01*
X140975149Y-83836605D01*
X140977522Y-83828781D01*
X140977523Y-83828778D01*
X141070471Y-83654885D01*
X141195561Y-83502461D01*
X141347985Y-83377371D01*
X141521878Y-83284423D01*
X141710572Y-83227183D01*
X141857625Y-83212700D01*
X142155975Y-83212700D01*
X142303028Y-83227183D01*
G37*
G36*
X127093028Y-83227183D02*
G01*
X127281722Y-83284423D01*
X127455615Y-83377371D01*
X127608039Y-83502461D01*
X127733129Y-83654885D01*
X127826077Y-83828778D01*
X127826078Y-83828781D01*
X127828451Y-83836605D01*
X127883317Y-84017472D01*
X127902643Y-84213700D01*
X127883317Y-84409928D01*
X127826077Y-84598622D01*
X127733129Y-84772515D01*
X127608039Y-84924939D01*
X127455615Y-85050029D01*
X127281722Y-85142977D01*
X127093028Y-85200217D01*
X126945975Y-85214700D01*
X126647625Y-85214700D01*
X126500572Y-85200217D01*
X126311878Y-85142977D01*
X126137985Y-85050029D01*
X125985561Y-84924939D01*
X125860471Y-84772515D01*
X125767523Y-84598622D01*
X125710283Y-84409928D01*
X125690957Y-84213700D01*
X125710283Y-84017472D01*
X125765149Y-83836605D01*
X125767522Y-83828781D01*
X125767523Y-83828778D01*
X125860471Y-83654885D01*
X125985561Y-83502461D01*
X126137985Y-83377371D01*
X126311878Y-83284423D01*
X126500572Y-83227183D01*
X126647625Y-83212700D01*
X126945975Y-83212700D01*
X127093028Y-83227183D01*
G37*
G36*
X134049779Y-83752605D02*
G01*
X134087275Y-83763980D01*
X134121834Y-83782452D01*
X134152127Y-83807313D01*
X134176988Y-83837606D01*
X134195460Y-83872165D01*
X134206835Y-83909661D01*
X134211280Y-83954798D01*
X134211280Y-84693522D01*
X134206835Y-84738659D01*
X134195460Y-84776155D01*
X134176988Y-84810714D01*
X134152127Y-84841007D01*
X134121834Y-84865868D01*
X134087275Y-84884340D01*
X134049779Y-84895715D01*
X134004642Y-84900160D01*
X133365918Y-84900160D01*
X133320781Y-84895715D01*
X133283285Y-84884340D01*
X133248726Y-84865868D01*
X133218433Y-84841007D01*
X133193572Y-84810714D01*
X133175100Y-84776155D01*
X133163725Y-84738659D01*
X133159280Y-84693522D01*
X133159280Y-83954798D01*
X133163725Y-83909661D01*
X133175100Y-83872165D01*
X133193572Y-83837606D01*
X133218433Y-83807313D01*
X133248726Y-83782452D01*
X133283285Y-83763980D01*
X133320781Y-83752605D01*
X133365918Y-83748160D01*
X134004642Y-83748160D01*
X134049779Y-83752605D01*
G37*
G36*
X135599179Y-83717045D02*
G01*
X135636675Y-83728420D01*
X135671234Y-83746892D01*
X135701527Y-83771753D01*
X135726388Y-83802046D01*
X135744860Y-83836605D01*
X135756235Y-83874101D01*
X135760680Y-83919238D01*
X135760680Y-84657962D01*
X135756235Y-84703099D01*
X135744860Y-84740595D01*
X135726388Y-84775154D01*
X135701527Y-84805447D01*
X135671234Y-84830308D01*
X135636675Y-84848780D01*
X135599179Y-84860155D01*
X135554042Y-84864600D01*
X134915318Y-84864600D01*
X134870181Y-84860155D01*
X134832685Y-84848780D01*
X134798126Y-84830308D01*
X134767833Y-84805447D01*
X134742972Y-84775154D01*
X134724500Y-84740595D01*
X134713125Y-84703099D01*
X134708680Y-84657962D01*
X134708680Y-83919238D01*
X134713125Y-83874101D01*
X134724500Y-83836605D01*
X134742972Y-83802046D01*
X134767833Y-83771753D01*
X134798126Y-83746892D01*
X134832685Y-83728420D01*
X134870181Y-83717045D01*
X134915318Y-83712600D01*
X135554042Y-83712600D01*
X135599179Y-83717045D01*
G37*
G36*
X132450700Y-84387800D02*
G01*
X131448700Y-84387800D01*
X131448700Y-83485800D01*
X132450700Y-83485800D01*
X132450700Y-84387800D01*
G37*
G36*
X139670799Y-82360745D02*
G01*
X139708295Y-82372120D01*
X139742854Y-82390592D01*
X139773147Y-82415453D01*
X139798008Y-82445746D01*
X139816480Y-82480305D01*
X139827855Y-82517801D01*
X139832300Y-82562938D01*
X139832300Y-83301662D01*
X139827855Y-83346799D01*
X139816480Y-83384295D01*
X139798008Y-83418854D01*
X139773147Y-83449147D01*
X139742854Y-83474008D01*
X139708295Y-83492480D01*
X139670799Y-83503855D01*
X139625662Y-83508300D01*
X138986938Y-83508300D01*
X138941801Y-83503855D01*
X138904305Y-83492480D01*
X138869746Y-83474008D01*
X138839453Y-83449147D01*
X138814592Y-83418854D01*
X138796120Y-83384295D01*
X138784745Y-83346799D01*
X138780300Y-83301662D01*
X138780300Y-82562938D01*
X138784745Y-82517801D01*
X138796120Y-82480305D01*
X138814592Y-82445746D01*
X138839453Y-82415453D01*
X138869746Y-82390592D01*
X138904305Y-82372120D01*
X138941801Y-82360745D01*
X138986938Y-82356300D01*
X139625662Y-82356300D01*
X139670799Y-82360745D01*
G37*
G36*
X137928000Y-83436200D02*
G01*
X136726000Y-83436200D01*
X136726000Y-82234200D01*
X137928000Y-82234200D01*
X137928000Y-83436200D01*
G37*
G36*
X134049779Y-82002605D02*
G01*
X134087275Y-82013980D01*
X134121834Y-82032452D01*
X134152127Y-82057313D01*
X134176988Y-82087606D01*
X134195460Y-82122165D01*
X134206835Y-82159661D01*
X134211280Y-82204798D01*
X134211280Y-82943522D01*
X134206835Y-82988659D01*
X134195460Y-83026155D01*
X134176988Y-83060714D01*
X134152127Y-83091007D01*
X134121834Y-83115868D01*
X134087275Y-83134340D01*
X134049779Y-83145715D01*
X134004642Y-83150160D01*
X133365918Y-83150160D01*
X133320781Y-83145715D01*
X133283285Y-83134340D01*
X133248726Y-83115868D01*
X133218433Y-83091007D01*
X133193572Y-83060714D01*
X133175100Y-83026155D01*
X133163725Y-82988659D01*
X133159280Y-82943522D01*
X133159280Y-82204798D01*
X133163725Y-82159661D01*
X133175100Y-82122165D01*
X133193572Y-82087606D01*
X133218433Y-82057313D01*
X133248726Y-82032452D01*
X133283285Y-82013980D01*
X133320781Y-82002605D01*
X133365918Y-81998160D01*
X134004642Y-81998160D01*
X134049779Y-82002605D01*
G37*
G36*
X135599179Y-81967045D02*
G01*
X135636675Y-81978420D01*
X135671234Y-81996892D01*
X135701527Y-82021753D01*
X135726388Y-82052046D01*
X135744860Y-82086605D01*
X135756235Y-82124101D01*
X135760680Y-82169238D01*
X135760680Y-82907962D01*
X135756235Y-82953099D01*
X135744860Y-82990595D01*
X135726388Y-83025154D01*
X135701527Y-83055447D01*
X135671234Y-83080308D01*
X135636675Y-83098780D01*
X135599179Y-83110155D01*
X135554042Y-83114600D01*
X134915318Y-83114600D01*
X134870181Y-83110155D01*
X134832685Y-83098780D01*
X134798126Y-83080308D01*
X134767833Y-83055447D01*
X134742972Y-83025154D01*
X134724500Y-82990595D01*
X134713125Y-82953099D01*
X134708680Y-82907962D01*
X134708680Y-82169238D01*
X134713125Y-82124101D01*
X134724500Y-82086605D01*
X134742972Y-82052046D01*
X134767833Y-82021753D01*
X134798126Y-81996892D01*
X134832685Y-81978420D01*
X134870181Y-81967045D01*
X134915318Y-81962600D01*
X135554042Y-81962600D01*
X135599179Y-81967045D01*
G37*
G36*
X132289999Y-81812545D02*
G01*
X132327495Y-81823920D01*
X132362054Y-81842392D01*
X132392347Y-81867253D01*
X132417208Y-81897546D01*
X132435680Y-81932105D01*
X132447055Y-81969601D01*
X132451500Y-82014738D01*
X132451500Y-82653462D01*
X132447055Y-82698599D01*
X132435680Y-82736095D01*
X132417208Y-82770654D01*
X132392347Y-82800947D01*
X132362054Y-82825808D01*
X132327495Y-82844280D01*
X132289999Y-82855655D01*
X132244862Y-82860100D01*
X131506138Y-82860100D01*
X131461001Y-82855655D01*
X131423505Y-82844280D01*
X131388946Y-82825808D01*
X131358653Y-82800947D01*
X131333792Y-82770654D01*
X131315320Y-82736095D01*
X131303945Y-82698599D01*
X131299500Y-82653462D01*
X131299500Y-82014738D01*
X131303945Y-81969601D01*
X131315320Y-81932105D01*
X131333792Y-81897546D01*
X131358653Y-81867253D01*
X131388946Y-81842392D01*
X131423505Y-81823920D01*
X131461001Y-81812545D01*
X131506138Y-81808100D01*
X132244862Y-81808100D01*
X132289999Y-81812545D01*
G37*
G36*
X130539999Y-81812545D02*
G01*
X130577495Y-81823920D01*
X130612054Y-81842392D01*
X130642347Y-81867253D01*
X130667208Y-81897546D01*
X130685680Y-81932105D01*
X130697055Y-81969601D01*
X130701500Y-82014738D01*
X130701500Y-82653462D01*
X130697055Y-82698599D01*
X130685680Y-82736095D01*
X130667208Y-82770654D01*
X130642347Y-82800947D01*
X130612054Y-82825808D01*
X130577495Y-82844280D01*
X130539999Y-82855655D01*
X130494862Y-82860100D01*
X129756138Y-82860100D01*
X129711001Y-82855655D01*
X129673505Y-82844280D01*
X129638946Y-82825808D01*
X129608653Y-82800947D01*
X129583792Y-82770654D01*
X129565320Y-82736095D01*
X129553945Y-82698599D01*
X129549500Y-82653462D01*
X129549500Y-82014738D01*
X129553945Y-81969601D01*
X129565320Y-81932105D01*
X129583792Y-81897546D01*
X129608653Y-81867253D01*
X129638946Y-81842392D01*
X129673505Y-81823920D01*
X129711001Y-81812545D01*
X129756138Y-81808100D01*
X130494862Y-81808100D01*
X130539999Y-81812545D01*
G37*
G36*
X142303028Y-80687183D02*
G01*
X142491722Y-80744423D01*
X142665615Y-80837371D01*
X142818039Y-80962461D01*
X142943129Y-81114885D01*
X143036077Y-81288778D01*
X143093317Y-81477472D01*
X143112643Y-81673700D01*
X143093317Y-81869928D01*
X143036077Y-82058622D01*
X142943129Y-82232515D01*
X142818039Y-82384939D01*
X142665615Y-82510029D01*
X142491722Y-82602977D01*
X142303028Y-82660217D01*
X142155975Y-82674700D01*
X141857625Y-82674700D01*
X141710572Y-82660217D01*
X141521878Y-82602977D01*
X141347985Y-82510029D01*
X141195561Y-82384939D01*
X141070471Y-82232515D01*
X140977523Y-82058622D01*
X140920283Y-81869928D01*
X140900957Y-81673700D01*
X140920283Y-81477472D01*
X140977523Y-81288778D01*
X141070471Y-81114885D01*
X141195561Y-80962461D01*
X141347985Y-80837371D01*
X141521878Y-80744423D01*
X141710572Y-80687183D01*
X141857625Y-80672700D01*
X142155975Y-80672700D01*
X142303028Y-80687183D01*
G37*
G36*
X127093028Y-80687183D02*
G01*
X127281722Y-80744423D01*
X127455615Y-80837371D01*
X127608039Y-80962461D01*
X127733129Y-81114885D01*
X127826077Y-81288778D01*
X127883317Y-81477472D01*
X127902643Y-81673700D01*
X127883317Y-81869928D01*
X127826077Y-82058622D01*
X127733129Y-82232515D01*
X127608039Y-82384939D01*
X127455615Y-82510029D01*
X127281722Y-82602977D01*
X127093028Y-82660217D01*
X126945975Y-82674700D01*
X126647625Y-82674700D01*
X126500572Y-82660217D01*
X126311878Y-82602977D01*
X126137985Y-82510029D01*
X125985561Y-82384939D01*
X125860471Y-82232515D01*
X125767523Y-82058622D01*
X125710283Y-81869928D01*
X125690957Y-81673700D01*
X125710283Y-81477472D01*
X125767523Y-81288778D01*
X125860471Y-81114885D01*
X125985561Y-80962461D01*
X126137985Y-80837371D01*
X126311878Y-80744423D01*
X126500572Y-80687183D01*
X126647625Y-80672700D01*
X126945975Y-80672700D01*
X127093028Y-80687183D01*
G37*
G36*
X139207360Y-81716200D02*
G01*
X138455360Y-81716200D01*
X138455360Y-80554200D01*
X139207360Y-80554200D01*
X139207360Y-81716200D01*
G37*
G36*
X137307360Y-81716200D02*
G01*
X136555360Y-81716200D01*
X136555360Y-80554200D01*
X137307360Y-80554200D01*
X137307360Y-81716200D01*
G37*
G36*
X135428999Y-80097545D02*
G01*
X135466495Y-80108920D01*
X135501054Y-80127392D01*
X135531347Y-80152253D01*
X135556208Y-80182546D01*
X135574680Y-80217105D01*
X135586055Y-80254601D01*
X135590500Y-80299738D01*
X135590500Y-81038462D01*
X135586055Y-81083599D01*
X135574680Y-81121095D01*
X135556208Y-81155654D01*
X135531347Y-81185947D01*
X135501054Y-81210808D01*
X135466495Y-81229280D01*
X135428999Y-81240655D01*
X135383862Y-81245100D01*
X134745138Y-81245100D01*
X134700001Y-81240655D01*
X134662505Y-81229280D01*
X134627946Y-81210808D01*
X134597653Y-81185947D01*
X134572792Y-81155654D01*
X134554320Y-81121095D01*
X134542945Y-81083599D01*
X134538500Y-81038462D01*
X134538500Y-80299738D01*
X134542945Y-80254601D01*
X134554320Y-80217105D01*
X134572792Y-80182546D01*
X134597653Y-80152253D01*
X134627946Y-80127392D01*
X134662505Y-80108920D01*
X134700001Y-80097545D01*
X134745138Y-80093100D01*
X135383862Y-80093100D01*
X135428999Y-80097545D01*
G37*
G36*
X133885900Y-81132800D02*
G01*
X132563900Y-81132800D01*
X132563900Y-78480800D01*
X133885900Y-78480800D01*
X133885900Y-81132800D01*
G37*
G36*
X131265900Y-81132800D02*
G01*
X129943900Y-81132800D01*
X129943900Y-78480800D01*
X131265900Y-78480800D01*
X131265900Y-81132800D01*
G37*
G36*
X157018000Y-80491000D02*
G01*
X151836000Y-80491000D01*
X151836000Y-77849000D01*
X157018000Y-77849000D01*
X157018000Y-80491000D01*
G37*
G36*
X127897800Y-80134700D02*
G01*
X125695800Y-80134700D01*
X125695800Y-78132700D01*
X127897800Y-78132700D01*
X127897800Y-80134700D01*
G37*
G36*
X142303028Y-78147183D02*
G01*
X142491722Y-78204423D01*
X142665615Y-78297371D01*
X142818039Y-78422461D01*
X142943129Y-78574885D01*
X143036077Y-78748778D01*
X143093317Y-78937472D01*
X143112643Y-79133700D01*
X143093317Y-79329928D01*
X143036077Y-79518622D01*
X142943129Y-79692515D01*
X142818039Y-79844939D01*
X142665615Y-79970029D01*
X142491722Y-80062977D01*
X142303028Y-80120217D01*
X142155975Y-80134700D01*
X141857625Y-80134700D01*
X141710572Y-80120217D01*
X141521878Y-80062977D01*
X141347985Y-79970029D01*
X141195561Y-79844939D01*
X141070471Y-79692515D01*
X140977523Y-79518622D01*
X140920283Y-79329928D01*
X140900957Y-79133700D01*
X140920283Y-78937472D01*
X140977523Y-78748778D01*
X141070471Y-78574885D01*
X141195561Y-78422461D01*
X141347985Y-78297371D01*
X141521878Y-78204423D01*
X141710572Y-78147183D01*
X141857625Y-78132700D01*
X142155975Y-78132700D01*
X142303028Y-78147183D01*
G37*
G36*
X139207360Y-79516200D02*
G01*
X136555360Y-79516200D01*
X136555360Y-78354200D01*
X139207360Y-78354200D01*
X139207360Y-79516200D01*
G37*
G36*
X135428999Y-78347545D02*
G01*
X135466495Y-78358920D01*
X135501054Y-78377392D01*
X135531347Y-78402253D01*
X135556208Y-78432546D01*
X135574680Y-78467105D01*
X135586055Y-78504601D01*
X135590500Y-78549738D01*
X135590500Y-79288462D01*
X135586055Y-79333599D01*
X135574680Y-79371095D01*
X135556208Y-79405654D01*
X135531347Y-79435947D01*
X135501054Y-79460808D01*
X135466495Y-79479280D01*
X135428999Y-79490655D01*
X135383862Y-79495100D01*
X134745138Y-79495100D01*
X134700001Y-79490655D01*
X134662505Y-79479280D01*
X134627946Y-79460808D01*
X134597653Y-79435947D01*
X134572792Y-79405654D01*
X134554320Y-79371095D01*
X134542945Y-79333599D01*
X134538500Y-79288462D01*
X134538500Y-78549738D01*
X134542945Y-78504601D01*
X134554320Y-78467105D01*
X134572792Y-78432546D01*
X134597653Y-78402253D01*
X134627946Y-78377392D01*
X134662505Y-78358920D01*
X134700001Y-78347545D01*
X134745138Y-78343100D01*
X135383862Y-78343100D01*
X135428999Y-78347545D01*
G37*
G36*
X145265719Y-75914354D02*
G01*
X145277970Y-75914956D01*
X145296389Y-75914956D01*
X145318669Y-75917150D01*
X145402753Y-75933876D01*
X145424180Y-75940376D01*
X145503378Y-75973180D01*
X145508823Y-75976091D01*
X145508829Y-75976093D01*
X145517689Y-75980829D01*
X145517693Y-75980832D01*
X145523134Y-75983740D01*
X145594419Y-76031371D01*
X145611724Y-76045572D01*
X145672348Y-76106196D01*
X145686549Y-76123501D01*
X145734180Y-76194786D01*
X145737088Y-76200227D01*
X145737091Y-76200231D01*
X145741827Y-76209091D01*
X145741829Y-76209097D01*
X145744740Y-76214542D01*
X145777544Y-76293740D01*
X145784044Y-76315167D01*
X145800770Y-76399251D01*
X145802964Y-76421531D01*
X145802964Y-76439950D01*
X145803566Y-76452201D01*
X145805372Y-76470539D01*
X145805372Y-76958260D01*
X145803783Y-76974399D01*
X145800868Y-76984008D01*
X145796130Y-76992872D01*
X145789757Y-77000637D01*
X145777314Y-77010848D01*
X145766945Y-77017778D01*
X145749618Y-77035105D01*
X145736005Y-77055480D01*
X145726629Y-77078120D01*
X145721849Y-77102153D01*
X145721850Y-77126657D01*
X145726632Y-77150690D01*
X145736010Y-77173329D01*
X145749625Y-77193702D01*
X145766952Y-77211029D01*
X145777322Y-77217958D01*
X145789757Y-77228163D01*
X145796130Y-77235928D01*
X145800868Y-77244792D01*
X145803783Y-77254401D01*
X145805372Y-77270540D01*
X145805372Y-77758262D01*
X145803566Y-77776599D01*
X145802964Y-77788850D01*
X145802964Y-77807269D01*
X145800770Y-77829549D01*
X145784044Y-77913633D01*
X145777544Y-77935060D01*
X145744740Y-78014258D01*
X145741829Y-78019703D01*
X145741827Y-78019709D01*
X145737091Y-78028569D01*
X145737088Y-78028573D01*
X145734180Y-78034014D01*
X145686549Y-78105299D01*
X145672348Y-78122604D01*
X145611724Y-78183228D01*
X145594419Y-78197429D01*
X145523134Y-78245060D01*
X145517693Y-78247968D01*
X145517689Y-78247971D01*
X145508829Y-78252707D01*
X145508823Y-78252709D01*
X145503378Y-78255620D01*
X145424180Y-78288424D01*
X145402753Y-78294924D01*
X145318669Y-78311650D01*
X145296389Y-78313844D01*
X145277970Y-78313844D01*
X145265719Y-78314446D01*
X145247382Y-78316252D01*
X144759658Y-78316252D01*
X144741321Y-78314446D01*
X144729070Y-78313844D01*
X144710651Y-78313844D01*
X144688371Y-78311650D01*
X144604287Y-78294924D01*
X144582860Y-78288424D01*
X144503662Y-78255620D01*
X144498217Y-78252709D01*
X144498211Y-78252707D01*
X144489351Y-78247971D01*
X144489347Y-78247968D01*
X144483906Y-78245060D01*
X144412621Y-78197429D01*
X144395316Y-78183228D01*
X144334692Y-78122604D01*
X144320491Y-78105299D01*
X144272860Y-78034014D01*
X144269952Y-78028573D01*
X144269949Y-78028569D01*
X144265213Y-78019709D01*
X144265211Y-78019703D01*
X144262300Y-78014258D01*
X144229496Y-77935060D01*
X144222996Y-77913633D01*
X144206270Y-77829549D01*
X144204076Y-77807269D01*
X144204076Y-77788850D01*
X144203474Y-77776599D01*
X144201668Y-77758262D01*
X144201668Y-77270540D01*
X144203257Y-77254401D01*
X144206172Y-77244792D01*
X144210910Y-77235928D01*
X144217283Y-77228163D01*
X144229726Y-77217952D01*
X144240095Y-77211022D01*
X144257422Y-77193695D01*
X144271035Y-77173320D01*
X144280411Y-77150680D01*
X144285191Y-77126647D01*
X144285190Y-77102143D01*
X144280408Y-77078110D01*
X144271030Y-77055471D01*
X144257415Y-77035098D01*
X144240088Y-77017771D01*
X144229718Y-77010842D01*
X144217283Y-77000637D01*
X144210910Y-76992872D01*
X144206172Y-76984008D01*
X144203257Y-76974399D01*
X144201668Y-76958260D01*
X144201668Y-76470539D01*
X144203474Y-76452201D01*
X144204076Y-76439950D01*
X144204076Y-76421531D01*
X144206270Y-76399251D01*
X144222996Y-76315167D01*
X144229496Y-76293740D01*
X144262300Y-76214542D01*
X144265211Y-76209097D01*
X144265213Y-76209091D01*
X144269949Y-76200231D01*
X144269952Y-76200227D01*
X144272860Y-76194786D01*
X144320491Y-76123501D01*
X144334692Y-76106196D01*
X144395316Y-76045572D01*
X144412621Y-76031371D01*
X144483906Y-75983740D01*
X144489347Y-75980832D01*
X144489351Y-75980829D01*
X144498211Y-75976093D01*
X144498217Y-75976091D01*
X144503662Y-75973180D01*
X144582860Y-75940376D01*
X144604287Y-75933876D01*
X144688371Y-75917150D01*
X144710651Y-75914956D01*
X144729070Y-75914956D01*
X144741321Y-75914354D01*
X144759659Y-75912548D01*
X145247381Y-75912548D01*
X145265719Y-75914354D01*
G37*
G36*
X132372198Y-77682099D02*
G01*
X131670200Y-77682099D01*
X131670200Y-77080101D01*
X132372198Y-77080101D01*
X132372198Y-77682099D01*
G37*
G36*
X131372200Y-77682099D02*
G01*
X130670202Y-77682099D01*
X130670202Y-77080101D01*
X131372200Y-77080101D01*
X131372200Y-77682099D01*
G37*
G36*
X139052398Y-77453499D02*
G01*
X138350400Y-77453499D01*
X138350400Y-76851501D01*
X139052398Y-76851501D01*
X139052398Y-77453499D01*
G37*
G36*
X138052400Y-77453499D02*
G01*
X137350402Y-77453499D01*
X137350402Y-76851501D01*
X138052400Y-76851501D01*
X138052400Y-77453499D01*
G37*
M02*
