M48
; DRILL file {KiCad (5.1.5)-3} date 2020-06-09 10:15:58 AM
; FORMAT={-:-/ absolute / metric / decimal}
; #@! TF.CreationDate,2020-06-09T10:15:58-04:00
; #@! TF.GenerationSoftware,Kicad,Pcbnew,(5.1.5)-3
; #@! TF.FileFunction,Plated,1,2,PTH
FMAT,2
METRIC
T1C0.400
T2C1.020
%
G90
G05
T1
X137.274Y-83.553
X162.192Y-91.237
T2
X127.097Y-79.134
X127.097Y-81.674
X127.097Y-84.214
X127.097Y-86.754
X127.097Y-89.294
X127.097Y-91.834
X127.097Y-94.374
X127.097Y-96.914
X127.097Y-99.454
X127.097Y-101.994
X141.707Y-79.134
X141.707Y-81.674
X141.707Y-84.214
X141.707Y-86.754
X141.707Y-89.294
X141.707Y-91.834
X141.707Y-94.374
X141.707Y-96.914
X141.707Y-99.454
X141.707Y-101.994
T0
M30
