G04 #@! TF.GenerationSoftware,KiCad,Pcbnew,(5.1.5)-3*
G04 #@! TF.CreationDate,2020-05-22T13:07:01-04:00*
G04 #@! TF.ProjectId,uBit_carrier,75426974-5f63-4617-9272-6965722e6b69,rev?*
G04 #@! TF.SameCoordinates,Original*
G04 #@! TF.FileFunction,Paste,Top*
G04 #@! TF.FilePolarity,Positive*
%FSLAX46Y46*%
G04 Gerber Fmt 4.6, Leading zero omitted, Abs format (unit mm)*
G04 Created by KiCad (PCBNEW (5.1.5)-3) date 2020-05-22 13:07:01*
%MOMM*%
%LPD*%
G04 APERTURE LIST*
%ADD10C,0.100000*%
%ADD11R,1.524000X0.457200*%
%ADD12R,1.900000X1.300000*%
%ADD13R,2.800000X1.000000*%
%ADD14R,0.800000X1.000000*%
%ADD15R,1.200000X1.000000*%
%ADD16R,1.200000X0.700000*%
G04 APERTURE END LIST*
D10*
G36*
X159434442Y-106933674D02*
G01*
X159458103Y-106937184D01*
X159481307Y-106942996D01*
X159503829Y-106951054D01*
X159525453Y-106961282D01*
X159545970Y-106973579D01*
X159565183Y-106987829D01*
X159582907Y-107003893D01*
X159598971Y-107021617D01*
X159613221Y-107040830D01*
X159625518Y-107061347D01*
X159635746Y-107082971D01*
X159643804Y-107105493D01*
X159649616Y-107128697D01*
X159653126Y-107152358D01*
X159654300Y-107176250D01*
X159654300Y-108088750D01*
X159653126Y-108112642D01*
X159649616Y-108136303D01*
X159643804Y-108159507D01*
X159635746Y-108182029D01*
X159625518Y-108203653D01*
X159613221Y-108224170D01*
X159598971Y-108243383D01*
X159582907Y-108261107D01*
X159565183Y-108277171D01*
X159545970Y-108291421D01*
X159525453Y-108303718D01*
X159503829Y-108313946D01*
X159481307Y-108322004D01*
X159458103Y-108327816D01*
X159434442Y-108331326D01*
X159410550Y-108332500D01*
X158923050Y-108332500D01*
X158899158Y-108331326D01*
X158875497Y-108327816D01*
X158852293Y-108322004D01*
X158829771Y-108313946D01*
X158808147Y-108303718D01*
X158787630Y-108291421D01*
X158768417Y-108277171D01*
X158750693Y-108261107D01*
X158734629Y-108243383D01*
X158720379Y-108224170D01*
X158708082Y-108203653D01*
X158697854Y-108182029D01*
X158689796Y-108159507D01*
X158683984Y-108136303D01*
X158680474Y-108112642D01*
X158679300Y-108088750D01*
X158679300Y-107176250D01*
X158680474Y-107152358D01*
X158683984Y-107128697D01*
X158689796Y-107105493D01*
X158697854Y-107082971D01*
X158708082Y-107061347D01*
X158720379Y-107040830D01*
X158734629Y-107021617D01*
X158750693Y-107003893D01*
X158768417Y-106987829D01*
X158787630Y-106973579D01*
X158808147Y-106961282D01*
X158829771Y-106951054D01*
X158852293Y-106942996D01*
X158875497Y-106937184D01*
X158899158Y-106933674D01*
X158923050Y-106932500D01*
X159410550Y-106932500D01*
X159434442Y-106933674D01*
G37*
G36*
X157559442Y-106933674D02*
G01*
X157583103Y-106937184D01*
X157606307Y-106942996D01*
X157628829Y-106951054D01*
X157650453Y-106961282D01*
X157670970Y-106973579D01*
X157690183Y-106987829D01*
X157707907Y-107003893D01*
X157723971Y-107021617D01*
X157738221Y-107040830D01*
X157750518Y-107061347D01*
X157760746Y-107082971D01*
X157768804Y-107105493D01*
X157774616Y-107128697D01*
X157778126Y-107152358D01*
X157779300Y-107176250D01*
X157779300Y-108088750D01*
X157778126Y-108112642D01*
X157774616Y-108136303D01*
X157768804Y-108159507D01*
X157760746Y-108182029D01*
X157750518Y-108203653D01*
X157738221Y-108224170D01*
X157723971Y-108243383D01*
X157707907Y-108261107D01*
X157690183Y-108277171D01*
X157670970Y-108291421D01*
X157650453Y-108303718D01*
X157628829Y-108313946D01*
X157606307Y-108322004D01*
X157583103Y-108327816D01*
X157559442Y-108331326D01*
X157535550Y-108332500D01*
X157048050Y-108332500D01*
X157024158Y-108331326D01*
X157000497Y-108327816D01*
X156977293Y-108322004D01*
X156954771Y-108313946D01*
X156933147Y-108303718D01*
X156912630Y-108291421D01*
X156893417Y-108277171D01*
X156875693Y-108261107D01*
X156859629Y-108243383D01*
X156845379Y-108224170D01*
X156833082Y-108203653D01*
X156822854Y-108182029D01*
X156814796Y-108159507D01*
X156808984Y-108136303D01*
X156805474Y-108112642D01*
X156804300Y-108088750D01*
X156804300Y-107176250D01*
X156805474Y-107152358D01*
X156808984Y-107128697D01*
X156814796Y-107105493D01*
X156822854Y-107082971D01*
X156833082Y-107061347D01*
X156845379Y-107040830D01*
X156859629Y-107021617D01*
X156875693Y-107003893D01*
X156893417Y-106987829D01*
X156912630Y-106973579D01*
X156933147Y-106961282D01*
X156954771Y-106951054D01*
X156977293Y-106942996D01*
X157000497Y-106937184D01*
X157024158Y-106933674D01*
X157048050Y-106932500D01*
X157535550Y-106932500D01*
X157559442Y-106933674D01*
G37*
G36*
X155230391Y-103716353D02*
G01*
X155251626Y-103719503D01*
X155272450Y-103724719D01*
X155292662Y-103731951D01*
X155312068Y-103741130D01*
X155330481Y-103752166D01*
X155347724Y-103764954D01*
X155363630Y-103779370D01*
X155378046Y-103795276D01*
X155390834Y-103812519D01*
X155401870Y-103830932D01*
X155411049Y-103850338D01*
X155418281Y-103870550D01*
X155423497Y-103891374D01*
X155426647Y-103912609D01*
X155427700Y-103934050D01*
X155427700Y-104371550D01*
X155426647Y-104392991D01*
X155423497Y-104414226D01*
X155418281Y-104435050D01*
X155411049Y-104455262D01*
X155401870Y-104474668D01*
X155390834Y-104493081D01*
X155378046Y-104510324D01*
X155363630Y-104526230D01*
X155347724Y-104540646D01*
X155330481Y-104553434D01*
X155312068Y-104564470D01*
X155292662Y-104573649D01*
X155272450Y-104580881D01*
X155251626Y-104586097D01*
X155230391Y-104589247D01*
X155208950Y-104590300D01*
X154696450Y-104590300D01*
X154675009Y-104589247D01*
X154653774Y-104586097D01*
X154632950Y-104580881D01*
X154612738Y-104573649D01*
X154593332Y-104564470D01*
X154574919Y-104553434D01*
X154557676Y-104540646D01*
X154541770Y-104526230D01*
X154527354Y-104510324D01*
X154514566Y-104493081D01*
X154503530Y-104474668D01*
X154494351Y-104455262D01*
X154487119Y-104435050D01*
X154481903Y-104414226D01*
X154478753Y-104392991D01*
X154477700Y-104371550D01*
X154477700Y-103934050D01*
X154478753Y-103912609D01*
X154481903Y-103891374D01*
X154487119Y-103870550D01*
X154494351Y-103850338D01*
X154503530Y-103830932D01*
X154514566Y-103812519D01*
X154527354Y-103795276D01*
X154541770Y-103779370D01*
X154557676Y-103764954D01*
X154574919Y-103752166D01*
X154593332Y-103741130D01*
X154612738Y-103731951D01*
X154632950Y-103724719D01*
X154653774Y-103719503D01*
X154675009Y-103716353D01*
X154696450Y-103715300D01*
X155208950Y-103715300D01*
X155230391Y-103716353D01*
G37*
G36*
X155230391Y-102141353D02*
G01*
X155251626Y-102144503D01*
X155272450Y-102149719D01*
X155292662Y-102156951D01*
X155312068Y-102166130D01*
X155330481Y-102177166D01*
X155347724Y-102189954D01*
X155363630Y-102204370D01*
X155378046Y-102220276D01*
X155390834Y-102237519D01*
X155401870Y-102255932D01*
X155411049Y-102275338D01*
X155418281Y-102295550D01*
X155423497Y-102316374D01*
X155426647Y-102337609D01*
X155427700Y-102359050D01*
X155427700Y-102796550D01*
X155426647Y-102817991D01*
X155423497Y-102839226D01*
X155418281Y-102860050D01*
X155411049Y-102880262D01*
X155401870Y-102899668D01*
X155390834Y-102918081D01*
X155378046Y-102935324D01*
X155363630Y-102951230D01*
X155347724Y-102965646D01*
X155330481Y-102978434D01*
X155312068Y-102989470D01*
X155292662Y-102998649D01*
X155272450Y-103005881D01*
X155251626Y-103011097D01*
X155230391Y-103014247D01*
X155208950Y-103015300D01*
X154696450Y-103015300D01*
X154675009Y-103014247D01*
X154653774Y-103011097D01*
X154632950Y-103005881D01*
X154612738Y-102998649D01*
X154593332Y-102989470D01*
X154574919Y-102978434D01*
X154557676Y-102965646D01*
X154541770Y-102951230D01*
X154527354Y-102935324D01*
X154514566Y-102918081D01*
X154503530Y-102899668D01*
X154494351Y-102880262D01*
X154487119Y-102860050D01*
X154481903Y-102839226D01*
X154478753Y-102817991D01*
X154477700Y-102796550D01*
X154477700Y-102359050D01*
X154478753Y-102337609D01*
X154481903Y-102316374D01*
X154487119Y-102295550D01*
X154494351Y-102275338D01*
X154503530Y-102255932D01*
X154514566Y-102237519D01*
X154527354Y-102220276D01*
X154541770Y-102204370D01*
X154557676Y-102189954D01*
X154574919Y-102177166D01*
X154593332Y-102166130D01*
X154612738Y-102156951D01*
X154632950Y-102149719D01*
X154653774Y-102144503D01*
X154675009Y-102141353D01*
X154696450Y-102140300D01*
X155208950Y-102140300D01*
X155230391Y-102141353D01*
G37*
G36*
X164195842Y-104375274D02*
G01*
X164219503Y-104378784D01*
X164242707Y-104384596D01*
X164265229Y-104392654D01*
X164286853Y-104402882D01*
X164307370Y-104415179D01*
X164326583Y-104429429D01*
X164344307Y-104445493D01*
X164360371Y-104463217D01*
X164374621Y-104482430D01*
X164386918Y-104502947D01*
X164397146Y-104524571D01*
X164405204Y-104547093D01*
X164411016Y-104570297D01*
X164414526Y-104593958D01*
X164415700Y-104617850D01*
X164415700Y-105105350D01*
X164414526Y-105129242D01*
X164411016Y-105152903D01*
X164405204Y-105176107D01*
X164397146Y-105198629D01*
X164386918Y-105220253D01*
X164374621Y-105240770D01*
X164360371Y-105259983D01*
X164344307Y-105277707D01*
X164326583Y-105293771D01*
X164307370Y-105308021D01*
X164286853Y-105320318D01*
X164265229Y-105330546D01*
X164242707Y-105338604D01*
X164219503Y-105344416D01*
X164195842Y-105347926D01*
X164171950Y-105349100D01*
X163259450Y-105349100D01*
X163235558Y-105347926D01*
X163211897Y-105344416D01*
X163188693Y-105338604D01*
X163166171Y-105330546D01*
X163144547Y-105320318D01*
X163124030Y-105308021D01*
X163104817Y-105293771D01*
X163087093Y-105277707D01*
X163071029Y-105259983D01*
X163056779Y-105240770D01*
X163044482Y-105220253D01*
X163034254Y-105198629D01*
X163026196Y-105176107D01*
X163020384Y-105152903D01*
X163016874Y-105129242D01*
X163015700Y-105105350D01*
X163015700Y-104617850D01*
X163016874Y-104593958D01*
X163020384Y-104570297D01*
X163026196Y-104547093D01*
X163034254Y-104524571D01*
X163044482Y-104502947D01*
X163056779Y-104482430D01*
X163071029Y-104463217D01*
X163087093Y-104445493D01*
X163104817Y-104429429D01*
X163124030Y-104415179D01*
X163144547Y-104402882D01*
X163166171Y-104392654D01*
X163188693Y-104384596D01*
X163211897Y-104378784D01*
X163235558Y-104375274D01*
X163259450Y-104374100D01*
X164171950Y-104374100D01*
X164195842Y-104375274D01*
G37*
G36*
X164195842Y-102500274D02*
G01*
X164219503Y-102503784D01*
X164242707Y-102509596D01*
X164265229Y-102517654D01*
X164286853Y-102527882D01*
X164307370Y-102540179D01*
X164326583Y-102554429D01*
X164344307Y-102570493D01*
X164360371Y-102588217D01*
X164374621Y-102607430D01*
X164386918Y-102627947D01*
X164397146Y-102649571D01*
X164405204Y-102672093D01*
X164411016Y-102695297D01*
X164414526Y-102718958D01*
X164415700Y-102742850D01*
X164415700Y-103230350D01*
X164414526Y-103254242D01*
X164411016Y-103277903D01*
X164405204Y-103301107D01*
X164397146Y-103323629D01*
X164386918Y-103345253D01*
X164374621Y-103365770D01*
X164360371Y-103384983D01*
X164344307Y-103402707D01*
X164326583Y-103418771D01*
X164307370Y-103433021D01*
X164286853Y-103445318D01*
X164265229Y-103455546D01*
X164242707Y-103463604D01*
X164219503Y-103469416D01*
X164195842Y-103472926D01*
X164171950Y-103474100D01*
X163259450Y-103474100D01*
X163235558Y-103472926D01*
X163211897Y-103469416D01*
X163188693Y-103463604D01*
X163166171Y-103455546D01*
X163144547Y-103445318D01*
X163124030Y-103433021D01*
X163104817Y-103418771D01*
X163087093Y-103402707D01*
X163071029Y-103384983D01*
X163056779Y-103365770D01*
X163044482Y-103345253D01*
X163034254Y-103323629D01*
X163026196Y-103301107D01*
X163020384Y-103277903D01*
X163016874Y-103254242D01*
X163015700Y-103230350D01*
X163015700Y-102742850D01*
X163016874Y-102718958D01*
X163020384Y-102695297D01*
X163026196Y-102672093D01*
X163034254Y-102649571D01*
X163044482Y-102627947D01*
X163056779Y-102607430D01*
X163071029Y-102588217D01*
X163087093Y-102570493D01*
X163104817Y-102554429D01*
X163124030Y-102540179D01*
X163144547Y-102527882D01*
X163166171Y-102517654D01*
X163188693Y-102509596D01*
X163211897Y-102503784D01*
X163235558Y-102500274D01*
X163259450Y-102499100D01*
X164171950Y-102499100D01*
X164195842Y-102500274D01*
G37*
G36*
X155077991Y-107831153D02*
G01*
X155099226Y-107834303D01*
X155120050Y-107839519D01*
X155140262Y-107846751D01*
X155159668Y-107855930D01*
X155178081Y-107866966D01*
X155195324Y-107879754D01*
X155211230Y-107894170D01*
X155225646Y-107910076D01*
X155238434Y-107927319D01*
X155249470Y-107945732D01*
X155258649Y-107965138D01*
X155265881Y-107985350D01*
X155271097Y-108006174D01*
X155274247Y-108027409D01*
X155275300Y-108048850D01*
X155275300Y-108486350D01*
X155274247Y-108507791D01*
X155271097Y-108529026D01*
X155265881Y-108549850D01*
X155258649Y-108570062D01*
X155249470Y-108589468D01*
X155238434Y-108607881D01*
X155225646Y-108625124D01*
X155211230Y-108641030D01*
X155195324Y-108655446D01*
X155178081Y-108668234D01*
X155159668Y-108679270D01*
X155140262Y-108688449D01*
X155120050Y-108695681D01*
X155099226Y-108700897D01*
X155077991Y-108704047D01*
X155056550Y-108705100D01*
X154544050Y-108705100D01*
X154522609Y-108704047D01*
X154501374Y-108700897D01*
X154480550Y-108695681D01*
X154460338Y-108688449D01*
X154440932Y-108679270D01*
X154422519Y-108668234D01*
X154405276Y-108655446D01*
X154389370Y-108641030D01*
X154374954Y-108625124D01*
X154362166Y-108607881D01*
X154351130Y-108589468D01*
X154341951Y-108570062D01*
X154334719Y-108549850D01*
X154329503Y-108529026D01*
X154326353Y-108507791D01*
X154325300Y-108486350D01*
X154325300Y-108048850D01*
X154326353Y-108027409D01*
X154329503Y-108006174D01*
X154334719Y-107985350D01*
X154341951Y-107965138D01*
X154351130Y-107945732D01*
X154362166Y-107927319D01*
X154374954Y-107910076D01*
X154389370Y-107894170D01*
X154405276Y-107879754D01*
X154422519Y-107866966D01*
X154440932Y-107855930D01*
X154460338Y-107846751D01*
X154480550Y-107839519D01*
X154501374Y-107834303D01*
X154522609Y-107831153D01*
X154544050Y-107830100D01*
X155056550Y-107830100D01*
X155077991Y-107831153D01*
G37*
G36*
X155077991Y-106256153D02*
G01*
X155099226Y-106259303D01*
X155120050Y-106264519D01*
X155140262Y-106271751D01*
X155159668Y-106280930D01*
X155178081Y-106291966D01*
X155195324Y-106304754D01*
X155211230Y-106319170D01*
X155225646Y-106335076D01*
X155238434Y-106352319D01*
X155249470Y-106370732D01*
X155258649Y-106390138D01*
X155265881Y-106410350D01*
X155271097Y-106431174D01*
X155274247Y-106452409D01*
X155275300Y-106473850D01*
X155275300Y-106911350D01*
X155274247Y-106932791D01*
X155271097Y-106954026D01*
X155265881Y-106974850D01*
X155258649Y-106995062D01*
X155249470Y-107014468D01*
X155238434Y-107032881D01*
X155225646Y-107050124D01*
X155211230Y-107066030D01*
X155195324Y-107080446D01*
X155178081Y-107093234D01*
X155159668Y-107104270D01*
X155140262Y-107113449D01*
X155120050Y-107120681D01*
X155099226Y-107125897D01*
X155077991Y-107129047D01*
X155056550Y-107130100D01*
X154544050Y-107130100D01*
X154522609Y-107129047D01*
X154501374Y-107125897D01*
X154480550Y-107120681D01*
X154460338Y-107113449D01*
X154440932Y-107104270D01*
X154422519Y-107093234D01*
X154405276Y-107080446D01*
X154389370Y-107066030D01*
X154374954Y-107050124D01*
X154362166Y-107032881D01*
X154351130Y-107014468D01*
X154341951Y-106995062D01*
X154334719Y-106974850D01*
X154329503Y-106954026D01*
X154326353Y-106932791D01*
X154325300Y-106911350D01*
X154325300Y-106473850D01*
X154326353Y-106452409D01*
X154329503Y-106431174D01*
X154334719Y-106410350D01*
X154341951Y-106390138D01*
X154351130Y-106370732D01*
X154362166Y-106352319D01*
X154374954Y-106335076D01*
X154389370Y-106319170D01*
X154405276Y-106304754D01*
X154422519Y-106291966D01*
X154440932Y-106280930D01*
X154460338Y-106271751D01*
X154480550Y-106264519D01*
X154501374Y-106259303D01*
X154522609Y-106256153D01*
X154544050Y-106255100D01*
X155056550Y-106255100D01*
X155077991Y-106256153D01*
G37*
G36*
X166863591Y-103563753D02*
G01*
X166884826Y-103566903D01*
X166905650Y-103572119D01*
X166925862Y-103579351D01*
X166945268Y-103588530D01*
X166963681Y-103599566D01*
X166980924Y-103612354D01*
X166996830Y-103626770D01*
X167011246Y-103642676D01*
X167024034Y-103659919D01*
X167035070Y-103678332D01*
X167044249Y-103697738D01*
X167051481Y-103717950D01*
X167056697Y-103738774D01*
X167059847Y-103760009D01*
X167060900Y-103781450D01*
X167060900Y-104218950D01*
X167059847Y-104240391D01*
X167056697Y-104261626D01*
X167051481Y-104282450D01*
X167044249Y-104302662D01*
X167035070Y-104322068D01*
X167024034Y-104340481D01*
X167011246Y-104357724D01*
X166996830Y-104373630D01*
X166980924Y-104388046D01*
X166963681Y-104400834D01*
X166945268Y-104411870D01*
X166925862Y-104421049D01*
X166905650Y-104428281D01*
X166884826Y-104433497D01*
X166863591Y-104436647D01*
X166842150Y-104437700D01*
X166329650Y-104437700D01*
X166308209Y-104436647D01*
X166286974Y-104433497D01*
X166266150Y-104428281D01*
X166245938Y-104421049D01*
X166226532Y-104411870D01*
X166208119Y-104400834D01*
X166190876Y-104388046D01*
X166174970Y-104373630D01*
X166160554Y-104357724D01*
X166147766Y-104340481D01*
X166136730Y-104322068D01*
X166127551Y-104302662D01*
X166120319Y-104282450D01*
X166115103Y-104261626D01*
X166111953Y-104240391D01*
X166110900Y-104218950D01*
X166110900Y-103781450D01*
X166111953Y-103760009D01*
X166115103Y-103738774D01*
X166120319Y-103717950D01*
X166127551Y-103697738D01*
X166136730Y-103678332D01*
X166147766Y-103659919D01*
X166160554Y-103642676D01*
X166174970Y-103626770D01*
X166190876Y-103612354D01*
X166208119Y-103599566D01*
X166226532Y-103588530D01*
X166245938Y-103579351D01*
X166266150Y-103572119D01*
X166286974Y-103566903D01*
X166308209Y-103563753D01*
X166329650Y-103562700D01*
X166842150Y-103562700D01*
X166863591Y-103563753D01*
G37*
G36*
X166863591Y-105138753D02*
G01*
X166884826Y-105141903D01*
X166905650Y-105147119D01*
X166925862Y-105154351D01*
X166945268Y-105163530D01*
X166963681Y-105174566D01*
X166980924Y-105187354D01*
X166996830Y-105201770D01*
X167011246Y-105217676D01*
X167024034Y-105234919D01*
X167035070Y-105253332D01*
X167044249Y-105272738D01*
X167051481Y-105292950D01*
X167056697Y-105313774D01*
X167059847Y-105335009D01*
X167060900Y-105356450D01*
X167060900Y-105793950D01*
X167059847Y-105815391D01*
X167056697Y-105836626D01*
X167051481Y-105857450D01*
X167044249Y-105877662D01*
X167035070Y-105897068D01*
X167024034Y-105915481D01*
X167011246Y-105932724D01*
X166996830Y-105948630D01*
X166980924Y-105963046D01*
X166963681Y-105975834D01*
X166945268Y-105986870D01*
X166925862Y-105996049D01*
X166905650Y-106003281D01*
X166884826Y-106008497D01*
X166863591Y-106011647D01*
X166842150Y-106012700D01*
X166329650Y-106012700D01*
X166308209Y-106011647D01*
X166286974Y-106008497D01*
X166266150Y-106003281D01*
X166245938Y-105996049D01*
X166226532Y-105986870D01*
X166208119Y-105975834D01*
X166190876Y-105963046D01*
X166174970Y-105948630D01*
X166160554Y-105932724D01*
X166147766Y-105915481D01*
X166136730Y-105897068D01*
X166127551Y-105877662D01*
X166120319Y-105857450D01*
X166115103Y-105836626D01*
X166111953Y-105815391D01*
X166110900Y-105793950D01*
X166110900Y-105356450D01*
X166111953Y-105335009D01*
X166115103Y-105313774D01*
X166120319Y-105292950D01*
X166127551Y-105272738D01*
X166136730Y-105253332D01*
X166147766Y-105234919D01*
X166160554Y-105217676D01*
X166174970Y-105201770D01*
X166190876Y-105187354D01*
X166208119Y-105174566D01*
X166226532Y-105163530D01*
X166245938Y-105154351D01*
X166266150Y-105147119D01*
X166286974Y-105141903D01*
X166308209Y-105138753D01*
X166329650Y-105137700D01*
X166842150Y-105137700D01*
X166863591Y-105138753D01*
G37*
G36*
X168602691Y-103376053D02*
G01*
X168623926Y-103379203D01*
X168644750Y-103384419D01*
X168664962Y-103391651D01*
X168684368Y-103400830D01*
X168702781Y-103411866D01*
X168720024Y-103424654D01*
X168735930Y-103439070D01*
X168750346Y-103454976D01*
X168763134Y-103472219D01*
X168774170Y-103490632D01*
X168783349Y-103510038D01*
X168790581Y-103530250D01*
X168795797Y-103551074D01*
X168798947Y-103572309D01*
X168800000Y-103593750D01*
X168800000Y-104106250D01*
X168798947Y-104127691D01*
X168795797Y-104148926D01*
X168790581Y-104169750D01*
X168783349Y-104189962D01*
X168774170Y-104209368D01*
X168763134Y-104227781D01*
X168750346Y-104245024D01*
X168735930Y-104260930D01*
X168720024Y-104275346D01*
X168702781Y-104288134D01*
X168684368Y-104299170D01*
X168664962Y-104308349D01*
X168644750Y-104315581D01*
X168623926Y-104320797D01*
X168602691Y-104323947D01*
X168581250Y-104325000D01*
X168143750Y-104325000D01*
X168122309Y-104323947D01*
X168101074Y-104320797D01*
X168080250Y-104315581D01*
X168060038Y-104308349D01*
X168040632Y-104299170D01*
X168022219Y-104288134D01*
X168004976Y-104275346D01*
X167989070Y-104260930D01*
X167974654Y-104245024D01*
X167961866Y-104227781D01*
X167950830Y-104209368D01*
X167941651Y-104189962D01*
X167934419Y-104169750D01*
X167929203Y-104148926D01*
X167926053Y-104127691D01*
X167925000Y-104106250D01*
X167925000Y-103593750D01*
X167926053Y-103572309D01*
X167929203Y-103551074D01*
X167934419Y-103530250D01*
X167941651Y-103510038D01*
X167950830Y-103490632D01*
X167961866Y-103472219D01*
X167974654Y-103454976D01*
X167989070Y-103439070D01*
X168004976Y-103424654D01*
X168022219Y-103411866D01*
X168040632Y-103400830D01*
X168060038Y-103391651D01*
X168080250Y-103384419D01*
X168101074Y-103379203D01*
X168122309Y-103376053D01*
X168143750Y-103375000D01*
X168581250Y-103375000D01*
X168602691Y-103376053D01*
G37*
G36*
X170177691Y-103376053D02*
G01*
X170198926Y-103379203D01*
X170219750Y-103384419D01*
X170239962Y-103391651D01*
X170259368Y-103400830D01*
X170277781Y-103411866D01*
X170295024Y-103424654D01*
X170310930Y-103439070D01*
X170325346Y-103454976D01*
X170338134Y-103472219D01*
X170349170Y-103490632D01*
X170358349Y-103510038D01*
X170365581Y-103530250D01*
X170370797Y-103551074D01*
X170373947Y-103572309D01*
X170375000Y-103593750D01*
X170375000Y-104106250D01*
X170373947Y-104127691D01*
X170370797Y-104148926D01*
X170365581Y-104169750D01*
X170358349Y-104189962D01*
X170349170Y-104209368D01*
X170338134Y-104227781D01*
X170325346Y-104245024D01*
X170310930Y-104260930D01*
X170295024Y-104275346D01*
X170277781Y-104288134D01*
X170259368Y-104299170D01*
X170239962Y-104308349D01*
X170219750Y-104315581D01*
X170198926Y-104320797D01*
X170177691Y-104323947D01*
X170156250Y-104325000D01*
X169718750Y-104325000D01*
X169697309Y-104323947D01*
X169676074Y-104320797D01*
X169655250Y-104315581D01*
X169635038Y-104308349D01*
X169615632Y-104299170D01*
X169597219Y-104288134D01*
X169579976Y-104275346D01*
X169564070Y-104260930D01*
X169549654Y-104245024D01*
X169536866Y-104227781D01*
X169525830Y-104209368D01*
X169516651Y-104189962D01*
X169509419Y-104169750D01*
X169504203Y-104148926D01*
X169501053Y-104127691D01*
X169500000Y-104106250D01*
X169500000Y-103593750D01*
X169501053Y-103572309D01*
X169504203Y-103551074D01*
X169509419Y-103530250D01*
X169516651Y-103510038D01*
X169525830Y-103490632D01*
X169536866Y-103472219D01*
X169549654Y-103454976D01*
X169564070Y-103439070D01*
X169579976Y-103424654D01*
X169597219Y-103411866D01*
X169615632Y-103400830D01*
X169635038Y-103391651D01*
X169655250Y-103384419D01*
X169676074Y-103379203D01*
X169697309Y-103376053D01*
X169718750Y-103375000D01*
X170156250Y-103375000D01*
X170177691Y-103376053D01*
G37*
D11*
X157416500Y-105546799D03*
X157416500Y-104896801D03*
X157416500Y-104246799D03*
X157416500Y-103596801D03*
X161505900Y-103596801D03*
X161505900Y-104246799D03*
X161505900Y-104896801D03*
X161505900Y-105546799D03*
D10*
G36*
X163879791Y-106980753D02*
G01*
X163901026Y-106983903D01*
X163921850Y-106989119D01*
X163942062Y-106996351D01*
X163961468Y-107005530D01*
X163979881Y-107016566D01*
X163997124Y-107029354D01*
X164013030Y-107043770D01*
X164027446Y-107059676D01*
X164040234Y-107076919D01*
X164051270Y-107095332D01*
X164060449Y-107114738D01*
X164067681Y-107134950D01*
X164072897Y-107155774D01*
X164076047Y-107177009D01*
X164077100Y-107198450D01*
X164077100Y-107710950D01*
X164076047Y-107732391D01*
X164072897Y-107753626D01*
X164067681Y-107774450D01*
X164060449Y-107794662D01*
X164051270Y-107814068D01*
X164040234Y-107832481D01*
X164027446Y-107849724D01*
X164013030Y-107865630D01*
X163997124Y-107880046D01*
X163979881Y-107892834D01*
X163961468Y-107903870D01*
X163942062Y-107913049D01*
X163921850Y-107920281D01*
X163901026Y-107925497D01*
X163879791Y-107928647D01*
X163858350Y-107929700D01*
X163420850Y-107929700D01*
X163399409Y-107928647D01*
X163378174Y-107925497D01*
X163357350Y-107920281D01*
X163337138Y-107913049D01*
X163317732Y-107903870D01*
X163299319Y-107892834D01*
X163282076Y-107880046D01*
X163266170Y-107865630D01*
X163251754Y-107849724D01*
X163238966Y-107832481D01*
X163227930Y-107814068D01*
X163218751Y-107794662D01*
X163211519Y-107774450D01*
X163206303Y-107753626D01*
X163203153Y-107732391D01*
X163202100Y-107710950D01*
X163202100Y-107198450D01*
X163203153Y-107177009D01*
X163206303Y-107155774D01*
X163211519Y-107134950D01*
X163218751Y-107114738D01*
X163227930Y-107095332D01*
X163238966Y-107076919D01*
X163251754Y-107059676D01*
X163266170Y-107043770D01*
X163282076Y-107029354D01*
X163299319Y-107016566D01*
X163317732Y-107005530D01*
X163337138Y-106996351D01*
X163357350Y-106989119D01*
X163378174Y-106983903D01*
X163399409Y-106980753D01*
X163420850Y-106979700D01*
X163858350Y-106979700D01*
X163879791Y-106980753D01*
G37*
G36*
X162304791Y-106980753D02*
G01*
X162326026Y-106983903D01*
X162346850Y-106989119D01*
X162367062Y-106996351D01*
X162386468Y-107005530D01*
X162404881Y-107016566D01*
X162422124Y-107029354D01*
X162438030Y-107043770D01*
X162452446Y-107059676D01*
X162465234Y-107076919D01*
X162476270Y-107095332D01*
X162485449Y-107114738D01*
X162492681Y-107134950D01*
X162497897Y-107155774D01*
X162501047Y-107177009D01*
X162502100Y-107198450D01*
X162502100Y-107710950D01*
X162501047Y-107732391D01*
X162497897Y-107753626D01*
X162492681Y-107774450D01*
X162485449Y-107794662D01*
X162476270Y-107814068D01*
X162465234Y-107832481D01*
X162452446Y-107849724D01*
X162438030Y-107865630D01*
X162422124Y-107880046D01*
X162404881Y-107892834D01*
X162386468Y-107903870D01*
X162367062Y-107913049D01*
X162346850Y-107920281D01*
X162326026Y-107925497D01*
X162304791Y-107928647D01*
X162283350Y-107929700D01*
X161845850Y-107929700D01*
X161824409Y-107928647D01*
X161803174Y-107925497D01*
X161782350Y-107920281D01*
X161762138Y-107913049D01*
X161742732Y-107903870D01*
X161724319Y-107892834D01*
X161707076Y-107880046D01*
X161691170Y-107865630D01*
X161676754Y-107849724D01*
X161663966Y-107832481D01*
X161652930Y-107814068D01*
X161643751Y-107794662D01*
X161636519Y-107774450D01*
X161631303Y-107753626D01*
X161628153Y-107732391D01*
X161627100Y-107710950D01*
X161627100Y-107198450D01*
X161628153Y-107177009D01*
X161631303Y-107155774D01*
X161636519Y-107134950D01*
X161643751Y-107114738D01*
X161652930Y-107095332D01*
X161663966Y-107076919D01*
X161676754Y-107059676D01*
X161691170Y-107043770D01*
X161707076Y-107029354D01*
X161724319Y-107016566D01*
X161742732Y-107005530D01*
X161762138Y-106996351D01*
X161782350Y-106989119D01*
X161803174Y-106983903D01*
X161824409Y-106980753D01*
X161845850Y-106979700D01*
X162283350Y-106979700D01*
X162304791Y-106980753D01*
G37*
G36*
X158266191Y-99551253D02*
G01*
X158287426Y-99554403D01*
X158308250Y-99559619D01*
X158328462Y-99566851D01*
X158347868Y-99576030D01*
X158366281Y-99587066D01*
X158383524Y-99599854D01*
X158399430Y-99614270D01*
X158413846Y-99630176D01*
X158426634Y-99647419D01*
X158437670Y-99665832D01*
X158446849Y-99685238D01*
X158454081Y-99705450D01*
X158459297Y-99726274D01*
X158462447Y-99747509D01*
X158463500Y-99768950D01*
X158463500Y-100281450D01*
X158462447Y-100302891D01*
X158459297Y-100324126D01*
X158454081Y-100344950D01*
X158446849Y-100365162D01*
X158437670Y-100384568D01*
X158426634Y-100402981D01*
X158413846Y-100420224D01*
X158399430Y-100436130D01*
X158383524Y-100450546D01*
X158366281Y-100463334D01*
X158347868Y-100474370D01*
X158328462Y-100483549D01*
X158308250Y-100490781D01*
X158287426Y-100495997D01*
X158266191Y-100499147D01*
X158244750Y-100500200D01*
X157807250Y-100500200D01*
X157785809Y-100499147D01*
X157764574Y-100495997D01*
X157743750Y-100490781D01*
X157723538Y-100483549D01*
X157704132Y-100474370D01*
X157685719Y-100463334D01*
X157668476Y-100450546D01*
X157652570Y-100436130D01*
X157638154Y-100420224D01*
X157625366Y-100402981D01*
X157614330Y-100384568D01*
X157605151Y-100365162D01*
X157597919Y-100344950D01*
X157592703Y-100324126D01*
X157589553Y-100302891D01*
X157588500Y-100281450D01*
X157588500Y-99768950D01*
X157589553Y-99747509D01*
X157592703Y-99726274D01*
X157597919Y-99705450D01*
X157605151Y-99685238D01*
X157614330Y-99665832D01*
X157625366Y-99647419D01*
X157638154Y-99630176D01*
X157652570Y-99614270D01*
X157668476Y-99599854D01*
X157685719Y-99587066D01*
X157704132Y-99576030D01*
X157723538Y-99566851D01*
X157743750Y-99559619D01*
X157764574Y-99554403D01*
X157785809Y-99551253D01*
X157807250Y-99550200D01*
X158244750Y-99550200D01*
X158266191Y-99551253D01*
G37*
G36*
X159841191Y-99551253D02*
G01*
X159862426Y-99554403D01*
X159883250Y-99559619D01*
X159903462Y-99566851D01*
X159922868Y-99576030D01*
X159941281Y-99587066D01*
X159958524Y-99599854D01*
X159974430Y-99614270D01*
X159988846Y-99630176D01*
X160001634Y-99647419D01*
X160012670Y-99665832D01*
X160021849Y-99685238D01*
X160029081Y-99705450D01*
X160034297Y-99726274D01*
X160037447Y-99747509D01*
X160038500Y-99768950D01*
X160038500Y-100281450D01*
X160037447Y-100302891D01*
X160034297Y-100324126D01*
X160029081Y-100344950D01*
X160021849Y-100365162D01*
X160012670Y-100384568D01*
X160001634Y-100402981D01*
X159988846Y-100420224D01*
X159974430Y-100436130D01*
X159958524Y-100450546D01*
X159941281Y-100463334D01*
X159922868Y-100474370D01*
X159903462Y-100483549D01*
X159883250Y-100490781D01*
X159862426Y-100495997D01*
X159841191Y-100499147D01*
X159819750Y-100500200D01*
X159382250Y-100500200D01*
X159360809Y-100499147D01*
X159339574Y-100495997D01*
X159318750Y-100490781D01*
X159298538Y-100483549D01*
X159279132Y-100474370D01*
X159260719Y-100463334D01*
X159243476Y-100450546D01*
X159227570Y-100436130D01*
X159213154Y-100420224D01*
X159200366Y-100402981D01*
X159189330Y-100384568D01*
X159180151Y-100365162D01*
X159172919Y-100344950D01*
X159167703Y-100324126D01*
X159164553Y-100302891D01*
X159163500Y-100281450D01*
X159163500Y-99768950D01*
X159164553Y-99747509D01*
X159167703Y-99726274D01*
X159172919Y-99705450D01*
X159180151Y-99685238D01*
X159189330Y-99665832D01*
X159200366Y-99647419D01*
X159213154Y-99630176D01*
X159227570Y-99614270D01*
X159243476Y-99599854D01*
X159260719Y-99587066D01*
X159279132Y-99576030D01*
X159298538Y-99566851D01*
X159318750Y-99559619D01*
X159339574Y-99554403D01*
X159360809Y-99551253D01*
X159382250Y-99550200D01*
X159819750Y-99550200D01*
X159841191Y-99551253D01*
G37*
G36*
X162952691Y-99551253D02*
G01*
X162973926Y-99554403D01*
X162994750Y-99559619D01*
X163014962Y-99566851D01*
X163034368Y-99576030D01*
X163052781Y-99587066D01*
X163070024Y-99599854D01*
X163085930Y-99614270D01*
X163100346Y-99630176D01*
X163113134Y-99647419D01*
X163124170Y-99665832D01*
X163133349Y-99685238D01*
X163140581Y-99705450D01*
X163145797Y-99726274D01*
X163148947Y-99747509D01*
X163150000Y-99768950D01*
X163150000Y-100281450D01*
X163148947Y-100302891D01*
X163145797Y-100324126D01*
X163140581Y-100344950D01*
X163133349Y-100365162D01*
X163124170Y-100384568D01*
X163113134Y-100402981D01*
X163100346Y-100420224D01*
X163085930Y-100436130D01*
X163070024Y-100450546D01*
X163052781Y-100463334D01*
X163034368Y-100474370D01*
X163014962Y-100483549D01*
X162994750Y-100490781D01*
X162973926Y-100495997D01*
X162952691Y-100499147D01*
X162931250Y-100500200D01*
X162493750Y-100500200D01*
X162472309Y-100499147D01*
X162451074Y-100495997D01*
X162430250Y-100490781D01*
X162410038Y-100483549D01*
X162390632Y-100474370D01*
X162372219Y-100463334D01*
X162354976Y-100450546D01*
X162339070Y-100436130D01*
X162324654Y-100420224D01*
X162311866Y-100402981D01*
X162300830Y-100384568D01*
X162291651Y-100365162D01*
X162284419Y-100344950D01*
X162279203Y-100324126D01*
X162276053Y-100302891D01*
X162275000Y-100281450D01*
X162275000Y-99768950D01*
X162276053Y-99747509D01*
X162279203Y-99726274D01*
X162284419Y-99705450D01*
X162291651Y-99685238D01*
X162300830Y-99665832D01*
X162311866Y-99647419D01*
X162324654Y-99630176D01*
X162339070Y-99614270D01*
X162354976Y-99599854D01*
X162372219Y-99587066D01*
X162390632Y-99576030D01*
X162410038Y-99566851D01*
X162430250Y-99559619D01*
X162451074Y-99554403D01*
X162472309Y-99551253D01*
X162493750Y-99550200D01*
X162931250Y-99550200D01*
X162952691Y-99551253D01*
G37*
G36*
X161377691Y-99551253D02*
G01*
X161398926Y-99554403D01*
X161419750Y-99559619D01*
X161439962Y-99566851D01*
X161459368Y-99576030D01*
X161477781Y-99587066D01*
X161495024Y-99599854D01*
X161510930Y-99614270D01*
X161525346Y-99630176D01*
X161538134Y-99647419D01*
X161549170Y-99665832D01*
X161558349Y-99685238D01*
X161565581Y-99705450D01*
X161570797Y-99726274D01*
X161573947Y-99747509D01*
X161575000Y-99768950D01*
X161575000Y-100281450D01*
X161573947Y-100302891D01*
X161570797Y-100324126D01*
X161565581Y-100344950D01*
X161558349Y-100365162D01*
X161549170Y-100384568D01*
X161538134Y-100402981D01*
X161525346Y-100420224D01*
X161510930Y-100436130D01*
X161495024Y-100450546D01*
X161477781Y-100463334D01*
X161459368Y-100474370D01*
X161439962Y-100483549D01*
X161419750Y-100490781D01*
X161398926Y-100495997D01*
X161377691Y-100499147D01*
X161356250Y-100500200D01*
X160918750Y-100500200D01*
X160897309Y-100499147D01*
X160876074Y-100495997D01*
X160855250Y-100490781D01*
X160835038Y-100483549D01*
X160815632Y-100474370D01*
X160797219Y-100463334D01*
X160779976Y-100450546D01*
X160764070Y-100436130D01*
X160749654Y-100420224D01*
X160736866Y-100402981D01*
X160725830Y-100384568D01*
X160716651Y-100365162D01*
X160709419Y-100344950D01*
X160704203Y-100324126D01*
X160701053Y-100302891D01*
X160700000Y-100281450D01*
X160700000Y-99768950D01*
X160701053Y-99747509D01*
X160704203Y-99726274D01*
X160709419Y-99705450D01*
X160716651Y-99685238D01*
X160725830Y-99665832D01*
X160736866Y-99647419D01*
X160749654Y-99630176D01*
X160764070Y-99614270D01*
X160779976Y-99599854D01*
X160797219Y-99587066D01*
X160815632Y-99576030D01*
X160835038Y-99566851D01*
X160855250Y-99559619D01*
X160876074Y-99554403D01*
X160897309Y-99551253D01*
X160918750Y-99550200D01*
X161356250Y-99550200D01*
X161377691Y-99551253D01*
G37*
D12*
X197975000Y-98525000D03*
D13*
X197525000Y-112025000D03*
D14*
X193375000Y-112025000D03*
D15*
X187175000Y-112025000D03*
X182875000Y-100875000D03*
D16*
X182875000Y-109025000D03*
X182875000Y-107925000D03*
X182875000Y-106825000D03*
X182875000Y-105725000D03*
X182875000Y-104625000D03*
X182875000Y-103525000D03*
X182875000Y-102425000D03*
X182875000Y-110125000D03*
X182875000Y-111075000D03*
D10*
G36*
X169264703Y-101505722D02*
G01*
X169279264Y-101507882D01*
X169293543Y-101511459D01*
X169307403Y-101516418D01*
X169320710Y-101522712D01*
X169333336Y-101530280D01*
X169345159Y-101539048D01*
X169356066Y-101548934D01*
X169365952Y-101559841D01*
X169374720Y-101571664D01*
X169382288Y-101584290D01*
X169388582Y-101597597D01*
X169393541Y-101611457D01*
X169397118Y-101625736D01*
X169399278Y-101640297D01*
X169400000Y-101655000D01*
X169400000Y-101955000D01*
X169399278Y-101969703D01*
X169397118Y-101984264D01*
X169393541Y-101998543D01*
X169388582Y-102012403D01*
X169382288Y-102025710D01*
X169374720Y-102038336D01*
X169365952Y-102050159D01*
X169356066Y-102061066D01*
X169345159Y-102070952D01*
X169333336Y-102079720D01*
X169320710Y-102087288D01*
X169307403Y-102093582D01*
X169293543Y-102098541D01*
X169279264Y-102102118D01*
X169264703Y-102104278D01*
X169250000Y-102105000D01*
X167950000Y-102105000D01*
X167935297Y-102104278D01*
X167920736Y-102102118D01*
X167906457Y-102098541D01*
X167892597Y-102093582D01*
X167879290Y-102087288D01*
X167866664Y-102079720D01*
X167854841Y-102070952D01*
X167843934Y-102061066D01*
X167834048Y-102050159D01*
X167825280Y-102038336D01*
X167817712Y-102025710D01*
X167811418Y-102012403D01*
X167806459Y-101998543D01*
X167802882Y-101984264D01*
X167800722Y-101969703D01*
X167800000Y-101955000D01*
X167800000Y-101655000D01*
X167800722Y-101640297D01*
X167802882Y-101625736D01*
X167806459Y-101611457D01*
X167811418Y-101597597D01*
X167817712Y-101584290D01*
X167825280Y-101571664D01*
X167834048Y-101559841D01*
X167843934Y-101548934D01*
X167854841Y-101539048D01*
X167866664Y-101530280D01*
X167879290Y-101522712D01*
X167892597Y-101516418D01*
X167906457Y-101511459D01*
X167920736Y-101507882D01*
X167935297Y-101505722D01*
X167950000Y-101505000D01*
X169250000Y-101505000D01*
X169264703Y-101505722D01*
G37*
G36*
X169264703Y-100235722D02*
G01*
X169279264Y-100237882D01*
X169293543Y-100241459D01*
X169307403Y-100246418D01*
X169320710Y-100252712D01*
X169333336Y-100260280D01*
X169345159Y-100269048D01*
X169356066Y-100278934D01*
X169365952Y-100289841D01*
X169374720Y-100301664D01*
X169382288Y-100314290D01*
X169388582Y-100327597D01*
X169393541Y-100341457D01*
X169397118Y-100355736D01*
X169399278Y-100370297D01*
X169400000Y-100385000D01*
X169400000Y-100685000D01*
X169399278Y-100699703D01*
X169397118Y-100714264D01*
X169393541Y-100728543D01*
X169388582Y-100742403D01*
X169382288Y-100755710D01*
X169374720Y-100768336D01*
X169365952Y-100780159D01*
X169356066Y-100791066D01*
X169345159Y-100800952D01*
X169333336Y-100809720D01*
X169320710Y-100817288D01*
X169307403Y-100823582D01*
X169293543Y-100828541D01*
X169279264Y-100832118D01*
X169264703Y-100834278D01*
X169250000Y-100835000D01*
X167950000Y-100835000D01*
X167935297Y-100834278D01*
X167920736Y-100832118D01*
X167906457Y-100828541D01*
X167892597Y-100823582D01*
X167879290Y-100817288D01*
X167866664Y-100809720D01*
X167854841Y-100800952D01*
X167843934Y-100791066D01*
X167834048Y-100780159D01*
X167825280Y-100768336D01*
X167817712Y-100755710D01*
X167811418Y-100742403D01*
X167806459Y-100728543D01*
X167802882Y-100714264D01*
X167800722Y-100699703D01*
X167800000Y-100685000D01*
X167800000Y-100385000D01*
X167800722Y-100370297D01*
X167802882Y-100355736D01*
X167806459Y-100341457D01*
X167811418Y-100327597D01*
X167817712Y-100314290D01*
X167825280Y-100301664D01*
X167834048Y-100289841D01*
X167843934Y-100278934D01*
X167854841Y-100269048D01*
X167866664Y-100260280D01*
X167879290Y-100252712D01*
X167892597Y-100246418D01*
X167906457Y-100241459D01*
X167920736Y-100237882D01*
X167935297Y-100235722D01*
X167950000Y-100235000D01*
X169250000Y-100235000D01*
X169264703Y-100235722D01*
G37*
G36*
X169264703Y-98965722D02*
G01*
X169279264Y-98967882D01*
X169293543Y-98971459D01*
X169307403Y-98976418D01*
X169320710Y-98982712D01*
X169333336Y-98990280D01*
X169345159Y-98999048D01*
X169356066Y-99008934D01*
X169365952Y-99019841D01*
X169374720Y-99031664D01*
X169382288Y-99044290D01*
X169388582Y-99057597D01*
X169393541Y-99071457D01*
X169397118Y-99085736D01*
X169399278Y-99100297D01*
X169400000Y-99115000D01*
X169400000Y-99415000D01*
X169399278Y-99429703D01*
X169397118Y-99444264D01*
X169393541Y-99458543D01*
X169388582Y-99472403D01*
X169382288Y-99485710D01*
X169374720Y-99498336D01*
X169365952Y-99510159D01*
X169356066Y-99521066D01*
X169345159Y-99530952D01*
X169333336Y-99539720D01*
X169320710Y-99547288D01*
X169307403Y-99553582D01*
X169293543Y-99558541D01*
X169279264Y-99562118D01*
X169264703Y-99564278D01*
X169250000Y-99565000D01*
X167950000Y-99565000D01*
X167935297Y-99564278D01*
X167920736Y-99562118D01*
X167906457Y-99558541D01*
X167892597Y-99553582D01*
X167879290Y-99547288D01*
X167866664Y-99539720D01*
X167854841Y-99530952D01*
X167843934Y-99521066D01*
X167834048Y-99510159D01*
X167825280Y-99498336D01*
X167817712Y-99485710D01*
X167811418Y-99472403D01*
X167806459Y-99458543D01*
X167802882Y-99444264D01*
X167800722Y-99429703D01*
X167800000Y-99415000D01*
X167800000Y-99115000D01*
X167800722Y-99100297D01*
X167802882Y-99085736D01*
X167806459Y-99071457D01*
X167811418Y-99057597D01*
X167817712Y-99044290D01*
X167825280Y-99031664D01*
X167834048Y-99019841D01*
X167843934Y-99008934D01*
X167854841Y-98999048D01*
X167866664Y-98990280D01*
X167879290Y-98982712D01*
X167892597Y-98976418D01*
X167906457Y-98971459D01*
X167920736Y-98967882D01*
X167935297Y-98965722D01*
X167950000Y-98965000D01*
X169250000Y-98965000D01*
X169264703Y-98965722D01*
G37*
G36*
X169264703Y-97695722D02*
G01*
X169279264Y-97697882D01*
X169293543Y-97701459D01*
X169307403Y-97706418D01*
X169320710Y-97712712D01*
X169333336Y-97720280D01*
X169345159Y-97729048D01*
X169356066Y-97738934D01*
X169365952Y-97749841D01*
X169374720Y-97761664D01*
X169382288Y-97774290D01*
X169388582Y-97787597D01*
X169393541Y-97801457D01*
X169397118Y-97815736D01*
X169399278Y-97830297D01*
X169400000Y-97845000D01*
X169400000Y-98145000D01*
X169399278Y-98159703D01*
X169397118Y-98174264D01*
X169393541Y-98188543D01*
X169388582Y-98202403D01*
X169382288Y-98215710D01*
X169374720Y-98228336D01*
X169365952Y-98240159D01*
X169356066Y-98251066D01*
X169345159Y-98260952D01*
X169333336Y-98269720D01*
X169320710Y-98277288D01*
X169307403Y-98283582D01*
X169293543Y-98288541D01*
X169279264Y-98292118D01*
X169264703Y-98294278D01*
X169250000Y-98295000D01*
X167950000Y-98295000D01*
X167935297Y-98294278D01*
X167920736Y-98292118D01*
X167906457Y-98288541D01*
X167892597Y-98283582D01*
X167879290Y-98277288D01*
X167866664Y-98269720D01*
X167854841Y-98260952D01*
X167843934Y-98251066D01*
X167834048Y-98240159D01*
X167825280Y-98228336D01*
X167817712Y-98215710D01*
X167811418Y-98202403D01*
X167806459Y-98188543D01*
X167802882Y-98174264D01*
X167800722Y-98159703D01*
X167800000Y-98145000D01*
X167800000Y-97845000D01*
X167800722Y-97830297D01*
X167802882Y-97815736D01*
X167806459Y-97801457D01*
X167811418Y-97787597D01*
X167817712Y-97774290D01*
X167825280Y-97761664D01*
X167834048Y-97749841D01*
X167843934Y-97738934D01*
X167854841Y-97729048D01*
X167866664Y-97720280D01*
X167879290Y-97712712D01*
X167892597Y-97706418D01*
X167906457Y-97701459D01*
X167920736Y-97697882D01*
X167935297Y-97695722D01*
X167950000Y-97695000D01*
X169250000Y-97695000D01*
X169264703Y-97695722D01*
G37*
G36*
X176464703Y-97695722D02*
G01*
X176479264Y-97697882D01*
X176493543Y-97701459D01*
X176507403Y-97706418D01*
X176520710Y-97712712D01*
X176533336Y-97720280D01*
X176545159Y-97729048D01*
X176556066Y-97738934D01*
X176565952Y-97749841D01*
X176574720Y-97761664D01*
X176582288Y-97774290D01*
X176588582Y-97787597D01*
X176593541Y-97801457D01*
X176597118Y-97815736D01*
X176599278Y-97830297D01*
X176600000Y-97845000D01*
X176600000Y-98145000D01*
X176599278Y-98159703D01*
X176597118Y-98174264D01*
X176593541Y-98188543D01*
X176588582Y-98202403D01*
X176582288Y-98215710D01*
X176574720Y-98228336D01*
X176565952Y-98240159D01*
X176556066Y-98251066D01*
X176545159Y-98260952D01*
X176533336Y-98269720D01*
X176520710Y-98277288D01*
X176507403Y-98283582D01*
X176493543Y-98288541D01*
X176479264Y-98292118D01*
X176464703Y-98294278D01*
X176450000Y-98295000D01*
X175150000Y-98295000D01*
X175135297Y-98294278D01*
X175120736Y-98292118D01*
X175106457Y-98288541D01*
X175092597Y-98283582D01*
X175079290Y-98277288D01*
X175066664Y-98269720D01*
X175054841Y-98260952D01*
X175043934Y-98251066D01*
X175034048Y-98240159D01*
X175025280Y-98228336D01*
X175017712Y-98215710D01*
X175011418Y-98202403D01*
X175006459Y-98188543D01*
X175002882Y-98174264D01*
X175000722Y-98159703D01*
X175000000Y-98145000D01*
X175000000Y-97845000D01*
X175000722Y-97830297D01*
X175002882Y-97815736D01*
X175006459Y-97801457D01*
X175011418Y-97787597D01*
X175017712Y-97774290D01*
X175025280Y-97761664D01*
X175034048Y-97749841D01*
X175043934Y-97738934D01*
X175054841Y-97729048D01*
X175066664Y-97720280D01*
X175079290Y-97712712D01*
X175092597Y-97706418D01*
X175106457Y-97701459D01*
X175120736Y-97697882D01*
X175135297Y-97695722D01*
X175150000Y-97695000D01*
X176450000Y-97695000D01*
X176464703Y-97695722D01*
G37*
G36*
X176464703Y-98965722D02*
G01*
X176479264Y-98967882D01*
X176493543Y-98971459D01*
X176507403Y-98976418D01*
X176520710Y-98982712D01*
X176533336Y-98990280D01*
X176545159Y-98999048D01*
X176556066Y-99008934D01*
X176565952Y-99019841D01*
X176574720Y-99031664D01*
X176582288Y-99044290D01*
X176588582Y-99057597D01*
X176593541Y-99071457D01*
X176597118Y-99085736D01*
X176599278Y-99100297D01*
X176600000Y-99115000D01*
X176600000Y-99415000D01*
X176599278Y-99429703D01*
X176597118Y-99444264D01*
X176593541Y-99458543D01*
X176588582Y-99472403D01*
X176582288Y-99485710D01*
X176574720Y-99498336D01*
X176565952Y-99510159D01*
X176556066Y-99521066D01*
X176545159Y-99530952D01*
X176533336Y-99539720D01*
X176520710Y-99547288D01*
X176507403Y-99553582D01*
X176493543Y-99558541D01*
X176479264Y-99562118D01*
X176464703Y-99564278D01*
X176450000Y-99565000D01*
X175150000Y-99565000D01*
X175135297Y-99564278D01*
X175120736Y-99562118D01*
X175106457Y-99558541D01*
X175092597Y-99553582D01*
X175079290Y-99547288D01*
X175066664Y-99539720D01*
X175054841Y-99530952D01*
X175043934Y-99521066D01*
X175034048Y-99510159D01*
X175025280Y-99498336D01*
X175017712Y-99485710D01*
X175011418Y-99472403D01*
X175006459Y-99458543D01*
X175002882Y-99444264D01*
X175000722Y-99429703D01*
X175000000Y-99415000D01*
X175000000Y-99115000D01*
X175000722Y-99100297D01*
X175002882Y-99085736D01*
X175006459Y-99071457D01*
X175011418Y-99057597D01*
X175017712Y-99044290D01*
X175025280Y-99031664D01*
X175034048Y-99019841D01*
X175043934Y-99008934D01*
X175054841Y-98999048D01*
X175066664Y-98990280D01*
X175079290Y-98982712D01*
X175092597Y-98976418D01*
X175106457Y-98971459D01*
X175120736Y-98967882D01*
X175135297Y-98965722D01*
X175150000Y-98965000D01*
X176450000Y-98965000D01*
X176464703Y-98965722D01*
G37*
G36*
X176464703Y-100235722D02*
G01*
X176479264Y-100237882D01*
X176493543Y-100241459D01*
X176507403Y-100246418D01*
X176520710Y-100252712D01*
X176533336Y-100260280D01*
X176545159Y-100269048D01*
X176556066Y-100278934D01*
X176565952Y-100289841D01*
X176574720Y-100301664D01*
X176582288Y-100314290D01*
X176588582Y-100327597D01*
X176593541Y-100341457D01*
X176597118Y-100355736D01*
X176599278Y-100370297D01*
X176600000Y-100385000D01*
X176600000Y-100685000D01*
X176599278Y-100699703D01*
X176597118Y-100714264D01*
X176593541Y-100728543D01*
X176588582Y-100742403D01*
X176582288Y-100755710D01*
X176574720Y-100768336D01*
X176565952Y-100780159D01*
X176556066Y-100791066D01*
X176545159Y-100800952D01*
X176533336Y-100809720D01*
X176520710Y-100817288D01*
X176507403Y-100823582D01*
X176493543Y-100828541D01*
X176479264Y-100832118D01*
X176464703Y-100834278D01*
X176450000Y-100835000D01*
X175150000Y-100835000D01*
X175135297Y-100834278D01*
X175120736Y-100832118D01*
X175106457Y-100828541D01*
X175092597Y-100823582D01*
X175079290Y-100817288D01*
X175066664Y-100809720D01*
X175054841Y-100800952D01*
X175043934Y-100791066D01*
X175034048Y-100780159D01*
X175025280Y-100768336D01*
X175017712Y-100755710D01*
X175011418Y-100742403D01*
X175006459Y-100728543D01*
X175002882Y-100714264D01*
X175000722Y-100699703D01*
X175000000Y-100685000D01*
X175000000Y-100385000D01*
X175000722Y-100370297D01*
X175002882Y-100355736D01*
X175006459Y-100341457D01*
X175011418Y-100327597D01*
X175017712Y-100314290D01*
X175025280Y-100301664D01*
X175034048Y-100289841D01*
X175043934Y-100278934D01*
X175054841Y-100269048D01*
X175066664Y-100260280D01*
X175079290Y-100252712D01*
X175092597Y-100246418D01*
X175106457Y-100241459D01*
X175120736Y-100237882D01*
X175135297Y-100235722D01*
X175150000Y-100235000D01*
X176450000Y-100235000D01*
X176464703Y-100235722D01*
G37*
G36*
X176464703Y-101505722D02*
G01*
X176479264Y-101507882D01*
X176493543Y-101511459D01*
X176507403Y-101516418D01*
X176520710Y-101522712D01*
X176533336Y-101530280D01*
X176545159Y-101539048D01*
X176556066Y-101548934D01*
X176565952Y-101559841D01*
X176574720Y-101571664D01*
X176582288Y-101584290D01*
X176588582Y-101597597D01*
X176593541Y-101611457D01*
X176597118Y-101625736D01*
X176599278Y-101640297D01*
X176600000Y-101655000D01*
X176600000Y-101955000D01*
X176599278Y-101969703D01*
X176597118Y-101984264D01*
X176593541Y-101998543D01*
X176588582Y-102012403D01*
X176582288Y-102025710D01*
X176574720Y-102038336D01*
X176565952Y-102050159D01*
X176556066Y-102061066D01*
X176545159Y-102070952D01*
X176533336Y-102079720D01*
X176520710Y-102087288D01*
X176507403Y-102093582D01*
X176493543Y-102098541D01*
X176479264Y-102102118D01*
X176464703Y-102104278D01*
X176450000Y-102105000D01*
X175150000Y-102105000D01*
X175135297Y-102104278D01*
X175120736Y-102102118D01*
X175106457Y-102098541D01*
X175092597Y-102093582D01*
X175079290Y-102087288D01*
X175066664Y-102079720D01*
X175054841Y-102070952D01*
X175043934Y-102061066D01*
X175034048Y-102050159D01*
X175025280Y-102038336D01*
X175017712Y-102025710D01*
X175011418Y-102012403D01*
X175006459Y-101998543D01*
X175002882Y-101984264D01*
X175000722Y-101969703D01*
X175000000Y-101955000D01*
X175000000Y-101655000D01*
X175000722Y-101640297D01*
X175002882Y-101625736D01*
X175006459Y-101611457D01*
X175011418Y-101597597D01*
X175017712Y-101584290D01*
X175025280Y-101571664D01*
X175034048Y-101559841D01*
X175043934Y-101548934D01*
X175054841Y-101539048D01*
X175066664Y-101530280D01*
X175079290Y-101522712D01*
X175092597Y-101516418D01*
X175106457Y-101511459D01*
X175120736Y-101507882D01*
X175135297Y-101505722D01*
X175150000Y-101505000D01*
X176450000Y-101505000D01*
X176464703Y-101505722D01*
G37*
M02*
