M48
; DRILL file {KiCad (5.1.5)-3} date 2020-05-22 1:07:07 PM
; FORMAT={-:-/ absolute / metric / decimal}
; #@! TF.CreationDate,2020-05-22T13:07:07-04:00
; #@! TF.GenerationSoftware,Kicad,Pcbnew,(5.1.5)-3
; #@! TF.FileFunction,Plated,1,2,PTH
FMAT,2
METRIC
T1C0.400
T2C1.000
%
G90
G05
T1
X156.007Y-106.985
X156.718Y-101.295
X160.604Y-107.353
X161.519Y-102.21
X166.103Y-92.405
X169.7Y-94.973
X169.975Y-96.736
X171.793Y-106.515
X172.86Y-94.92
X173.241Y-104.445
X174.041Y-84.087
X174.219Y-99.2
X174.244Y-97.98
X174.244Y-100.52
X174.6Y-95.3
X176.365Y-103.391
X178.244Y-107.62
X178.714Y-92.875
X180.683Y-84.15
X180.823Y-112.052
X186.398Y-83.833
X199.238Y-75.692
T2
X150.5Y-103.5
X150.5Y-106.0
X146.93Y-75.825
X146.93Y-79.625
X148.2Y-77.725
X148.2Y-81.525
X149.47Y-75.825
X149.47Y-79.625
X150.74Y-77.725
X150.74Y-81.525
X152.01Y-75.825
X152.01Y-79.625
X153.28Y-77.725
X153.28Y-81.525
X154.55Y-75.825
X154.55Y-79.625
X155.82Y-77.725
X155.82Y-81.525
X157.09Y-75.825
X157.09Y-79.625
X158.36Y-77.725
X158.36Y-81.525
X159.63Y-75.825
X159.63Y-79.625
X160.9Y-77.725
X160.9Y-81.525
X162.17Y-75.825
X162.17Y-79.625
X163.44Y-77.725
X163.44Y-81.525
X164.71Y-75.825
X164.71Y-79.625
X165.98Y-77.725
X165.98Y-81.525
X167.25Y-75.825
X167.25Y-79.625
X168.52Y-77.725
X168.52Y-81.525
X169.79Y-75.825
X169.79Y-79.625
X171.06Y-77.725
X171.06Y-81.525
X172.33Y-75.825
X172.33Y-79.625
X173.6Y-77.725
X173.6Y-81.525
X174.87Y-75.825
X174.87Y-79.625
X176.14Y-77.725
X176.14Y-81.525
X177.41Y-75.825
X177.41Y-79.625
X178.68Y-77.725
X178.68Y-81.525
X179.95Y-75.825
X179.95Y-79.625
X181.22Y-77.725
X181.22Y-81.525
X182.49Y-75.825
X182.49Y-79.625
X183.76Y-77.725
X183.76Y-81.525
X185.03Y-75.825
X185.03Y-79.625
X186.3Y-77.725
X186.3Y-81.525
X187.57Y-75.825
X187.57Y-79.625
X188.84Y-77.725
X188.84Y-81.525
X190.11Y-75.825
X190.11Y-79.625
X191.38Y-77.725
X191.38Y-81.525
X192.65Y-75.825
X192.65Y-79.625
X193.92Y-77.725
X193.92Y-81.525
X195.19Y-75.825
X195.19Y-79.625
X196.46Y-77.725
X196.46Y-81.525
T0
M30
