G04 #@! TF.GenerationSoftware,KiCad,Pcbnew,(5.1.5)-3*
G04 #@! TF.CreationDate,2020-05-22T13:07:01-04:00*
G04 #@! TF.ProjectId,uBit_carrier,75426974-5f63-4617-9272-6965722e6b69,rev?*
G04 #@! TF.SameCoordinates,Original*
G04 #@! TF.FileFunction,Copper,L1,Top*
G04 #@! TF.FilePolarity,Positive*
%FSLAX46Y46*%
G04 Gerber Fmt 4.6, Leading zero omitted, Abs format (unit mm)*
G04 Created by KiCad (PCBNEW (5.1.5)-3) date 2020-05-22 13:07:01*
%MOMM*%
%LPD*%
G04 APERTURE LIST*
%ADD10C,0.100000*%
%ADD11R,1.524000X0.457200*%
%ADD12R,1.900000X1.300000*%
%ADD13R,2.800000X1.000000*%
%ADD14R,0.800000X1.000000*%
%ADD15R,1.200000X1.000000*%
%ADD16R,1.200000X0.700000*%
%ADD17O,2.000000X1.700000*%
%ADD18C,1.500000*%
%ADD19R,1.500000X1.500000*%
%ADD20C,0.800000*%
%ADD21C,0.250000*%
%ADD22C,0.500000*%
%ADD23C,0.254000*%
G04 APERTURE END LIST*
G04 #@! TA.AperFunction,SMDPad,CuDef*
D10*
G36*
X159434442Y-106933674D02*
G01*
X159458103Y-106937184D01*
X159481307Y-106942996D01*
X159503829Y-106951054D01*
X159525453Y-106961282D01*
X159545970Y-106973579D01*
X159565183Y-106987829D01*
X159582907Y-107003893D01*
X159598971Y-107021617D01*
X159613221Y-107040830D01*
X159625518Y-107061347D01*
X159635746Y-107082971D01*
X159643804Y-107105493D01*
X159649616Y-107128697D01*
X159653126Y-107152358D01*
X159654300Y-107176250D01*
X159654300Y-108088750D01*
X159653126Y-108112642D01*
X159649616Y-108136303D01*
X159643804Y-108159507D01*
X159635746Y-108182029D01*
X159625518Y-108203653D01*
X159613221Y-108224170D01*
X159598971Y-108243383D01*
X159582907Y-108261107D01*
X159565183Y-108277171D01*
X159545970Y-108291421D01*
X159525453Y-108303718D01*
X159503829Y-108313946D01*
X159481307Y-108322004D01*
X159458103Y-108327816D01*
X159434442Y-108331326D01*
X159410550Y-108332500D01*
X158923050Y-108332500D01*
X158899158Y-108331326D01*
X158875497Y-108327816D01*
X158852293Y-108322004D01*
X158829771Y-108313946D01*
X158808147Y-108303718D01*
X158787630Y-108291421D01*
X158768417Y-108277171D01*
X158750693Y-108261107D01*
X158734629Y-108243383D01*
X158720379Y-108224170D01*
X158708082Y-108203653D01*
X158697854Y-108182029D01*
X158689796Y-108159507D01*
X158683984Y-108136303D01*
X158680474Y-108112642D01*
X158679300Y-108088750D01*
X158679300Y-107176250D01*
X158680474Y-107152358D01*
X158683984Y-107128697D01*
X158689796Y-107105493D01*
X158697854Y-107082971D01*
X158708082Y-107061347D01*
X158720379Y-107040830D01*
X158734629Y-107021617D01*
X158750693Y-107003893D01*
X158768417Y-106987829D01*
X158787630Y-106973579D01*
X158808147Y-106961282D01*
X158829771Y-106951054D01*
X158852293Y-106942996D01*
X158875497Y-106937184D01*
X158899158Y-106933674D01*
X158923050Y-106932500D01*
X159410550Y-106932500D01*
X159434442Y-106933674D01*
G37*
G04 #@! TD.AperFunction*
G04 #@! TA.AperFunction,SMDPad,CuDef*
G36*
X157559442Y-106933674D02*
G01*
X157583103Y-106937184D01*
X157606307Y-106942996D01*
X157628829Y-106951054D01*
X157650453Y-106961282D01*
X157670970Y-106973579D01*
X157690183Y-106987829D01*
X157707907Y-107003893D01*
X157723971Y-107021617D01*
X157738221Y-107040830D01*
X157750518Y-107061347D01*
X157760746Y-107082971D01*
X157768804Y-107105493D01*
X157774616Y-107128697D01*
X157778126Y-107152358D01*
X157779300Y-107176250D01*
X157779300Y-108088750D01*
X157778126Y-108112642D01*
X157774616Y-108136303D01*
X157768804Y-108159507D01*
X157760746Y-108182029D01*
X157750518Y-108203653D01*
X157738221Y-108224170D01*
X157723971Y-108243383D01*
X157707907Y-108261107D01*
X157690183Y-108277171D01*
X157670970Y-108291421D01*
X157650453Y-108303718D01*
X157628829Y-108313946D01*
X157606307Y-108322004D01*
X157583103Y-108327816D01*
X157559442Y-108331326D01*
X157535550Y-108332500D01*
X157048050Y-108332500D01*
X157024158Y-108331326D01*
X157000497Y-108327816D01*
X156977293Y-108322004D01*
X156954771Y-108313946D01*
X156933147Y-108303718D01*
X156912630Y-108291421D01*
X156893417Y-108277171D01*
X156875693Y-108261107D01*
X156859629Y-108243383D01*
X156845379Y-108224170D01*
X156833082Y-108203653D01*
X156822854Y-108182029D01*
X156814796Y-108159507D01*
X156808984Y-108136303D01*
X156805474Y-108112642D01*
X156804300Y-108088750D01*
X156804300Y-107176250D01*
X156805474Y-107152358D01*
X156808984Y-107128697D01*
X156814796Y-107105493D01*
X156822854Y-107082971D01*
X156833082Y-107061347D01*
X156845379Y-107040830D01*
X156859629Y-107021617D01*
X156875693Y-107003893D01*
X156893417Y-106987829D01*
X156912630Y-106973579D01*
X156933147Y-106961282D01*
X156954771Y-106951054D01*
X156977293Y-106942996D01*
X157000497Y-106937184D01*
X157024158Y-106933674D01*
X157048050Y-106932500D01*
X157535550Y-106932500D01*
X157559442Y-106933674D01*
G37*
G04 #@! TD.AperFunction*
G04 #@! TA.AperFunction,SMDPad,CuDef*
G36*
X155230391Y-103716353D02*
G01*
X155251626Y-103719503D01*
X155272450Y-103724719D01*
X155292662Y-103731951D01*
X155312068Y-103741130D01*
X155330481Y-103752166D01*
X155347724Y-103764954D01*
X155363630Y-103779370D01*
X155378046Y-103795276D01*
X155390834Y-103812519D01*
X155401870Y-103830932D01*
X155411049Y-103850338D01*
X155418281Y-103870550D01*
X155423497Y-103891374D01*
X155426647Y-103912609D01*
X155427700Y-103934050D01*
X155427700Y-104371550D01*
X155426647Y-104392991D01*
X155423497Y-104414226D01*
X155418281Y-104435050D01*
X155411049Y-104455262D01*
X155401870Y-104474668D01*
X155390834Y-104493081D01*
X155378046Y-104510324D01*
X155363630Y-104526230D01*
X155347724Y-104540646D01*
X155330481Y-104553434D01*
X155312068Y-104564470D01*
X155292662Y-104573649D01*
X155272450Y-104580881D01*
X155251626Y-104586097D01*
X155230391Y-104589247D01*
X155208950Y-104590300D01*
X154696450Y-104590300D01*
X154675009Y-104589247D01*
X154653774Y-104586097D01*
X154632950Y-104580881D01*
X154612738Y-104573649D01*
X154593332Y-104564470D01*
X154574919Y-104553434D01*
X154557676Y-104540646D01*
X154541770Y-104526230D01*
X154527354Y-104510324D01*
X154514566Y-104493081D01*
X154503530Y-104474668D01*
X154494351Y-104455262D01*
X154487119Y-104435050D01*
X154481903Y-104414226D01*
X154478753Y-104392991D01*
X154477700Y-104371550D01*
X154477700Y-103934050D01*
X154478753Y-103912609D01*
X154481903Y-103891374D01*
X154487119Y-103870550D01*
X154494351Y-103850338D01*
X154503530Y-103830932D01*
X154514566Y-103812519D01*
X154527354Y-103795276D01*
X154541770Y-103779370D01*
X154557676Y-103764954D01*
X154574919Y-103752166D01*
X154593332Y-103741130D01*
X154612738Y-103731951D01*
X154632950Y-103724719D01*
X154653774Y-103719503D01*
X154675009Y-103716353D01*
X154696450Y-103715300D01*
X155208950Y-103715300D01*
X155230391Y-103716353D01*
G37*
G04 #@! TD.AperFunction*
G04 #@! TA.AperFunction,SMDPad,CuDef*
G36*
X155230391Y-102141353D02*
G01*
X155251626Y-102144503D01*
X155272450Y-102149719D01*
X155292662Y-102156951D01*
X155312068Y-102166130D01*
X155330481Y-102177166D01*
X155347724Y-102189954D01*
X155363630Y-102204370D01*
X155378046Y-102220276D01*
X155390834Y-102237519D01*
X155401870Y-102255932D01*
X155411049Y-102275338D01*
X155418281Y-102295550D01*
X155423497Y-102316374D01*
X155426647Y-102337609D01*
X155427700Y-102359050D01*
X155427700Y-102796550D01*
X155426647Y-102817991D01*
X155423497Y-102839226D01*
X155418281Y-102860050D01*
X155411049Y-102880262D01*
X155401870Y-102899668D01*
X155390834Y-102918081D01*
X155378046Y-102935324D01*
X155363630Y-102951230D01*
X155347724Y-102965646D01*
X155330481Y-102978434D01*
X155312068Y-102989470D01*
X155292662Y-102998649D01*
X155272450Y-103005881D01*
X155251626Y-103011097D01*
X155230391Y-103014247D01*
X155208950Y-103015300D01*
X154696450Y-103015300D01*
X154675009Y-103014247D01*
X154653774Y-103011097D01*
X154632950Y-103005881D01*
X154612738Y-102998649D01*
X154593332Y-102989470D01*
X154574919Y-102978434D01*
X154557676Y-102965646D01*
X154541770Y-102951230D01*
X154527354Y-102935324D01*
X154514566Y-102918081D01*
X154503530Y-102899668D01*
X154494351Y-102880262D01*
X154487119Y-102860050D01*
X154481903Y-102839226D01*
X154478753Y-102817991D01*
X154477700Y-102796550D01*
X154477700Y-102359050D01*
X154478753Y-102337609D01*
X154481903Y-102316374D01*
X154487119Y-102295550D01*
X154494351Y-102275338D01*
X154503530Y-102255932D01*
X154514566Y-102237519D01*
X154527354Y-102220276D01*
X154541770Y-102204370D01*
X154557676Y-102189954D01*
X154574919Y-102177166D01*
X154593332Y-102166130D01*
X154612738Y-102156951D01*
X154632950Y-102149719D01*
X154653774Y-102144503D01*
X154675009Y-102141353D01*
X154696450Y-102140300D01*
X155208950Y-102140300D01*
X155230391Y-102141353D01*
G37*
G04 #@! TD.AperFunction*
G04 #@! TA.AperFunction,SMDPad,CuDef*
G36*
X164195842Y-104375274D02*
G01*
X164219503Y-104378784D01*
X164242707Y-104384596D01*
X164265229Y-104392654D01*
X164286853Y-104402882D01*
X164307370Y-104415179D01*
X164326583Y-104429429D01*
X164344307Y-104445493D01*
X164360371Y-104463217D01*
X164374621Y-104482430D01*
X164386918Y-104502947D01*
X164397146Y-104524571D01*
X164405204Y-104547093D01*
X164411016Y-104570297D01*
X164414526Y-104593958D01*
X164415700Y-104617850D01*
X164415700Y-105105350D01*
X164414526Y-105129242D01*
X164411016Y-105152903D01*
X164405204Y-105176107D01*
X164397146Y-105198629D01*
X164386918Y-105220253D01*
X164374621Y-105240770D01*
X164360371Y-105259983D01*
X164344307Y-105277707D01*
X164326583Y-105293771D01*
X164307370Y-105308021D01*
X164286853Y-105320318D01*
X164265229Y-105330546D01*
X164242707Y-105338604D01*
X164219503Y-105344416D01*
X164195842Y-105347926D01*
X164171950Y-105349100D01*
X163259450Y-105349100D01*
X163235558Y-105347926D01*
X163211897Y-105344416D01*
X163188693Y-105338604D01*
X163166171Y-105330546D01*
X163144547Y-105320318D01*
X163124030Y-105308021D01*
X163104817Y-105293771D01*
X163087093Y-105277707D01*
X163071029Y-105259983D01*
X163056779Y-105240770D01*
X163044482Y-105220253D01*
X163034254Y-105198629D01*
X163026196Y-105176107D01*
X163020384Y-105152903D01*
X163016874Y-105129242D01*
X163015700Y-105105350D01*
X163015700Y-104617850D01*
X163016874Y-104593958D01*
X163020384Y-104570297D01*
X163026196Y-104547093D01*
X163034254Y-104524571D01*
X163044482Y-104502947D01*
X163056779Y-104482430D01*
X163071029Y-104463217D01*
X163087093Y-104445493D01*
X163104817Y-104429429D01*
X163124030Y-104415179D01*
X163144547Y-104402882D01*
X163166171Y-104392654D01*
X163188693Y-104384596D01*
X163211897Y-104378784D01*
X163235558Y-104375274D01*
X163259450Y-104374100D01*
X164171950Y-104374100D01*
X164195842Y-104375274D01*
G37*
G04 #@! TD.AperFunction*
G04 #@! TA.AperFunction,SMDPad,CuDef*
G36*
X164195842Y-102500274D02*
G01*
X164219503Y-102503784D01*
X164242707Y-102509596D01*
X164265229Y-102517654D01*
X164286853Y-102527882D01*
X164307370Y-102540179D01*
X164326583Y-102554429D01*
X164344307Y-102570493D01*
X164360371Y-102588217D01*
X164374621Y-102607430D01*
X164386918Y-102627947D01*
X164397146Y-102649571D01*
X164405204Y-102672093D01*
X164411016Y-102695297D01*
X164414526Y-102718958D01*
X164415700Y-102742850D01*
X164415700Y-103230350D01*
X164414526Y-103254242D01*
X164411016Y-103277903D01*
X164405204Y-103301107D01*
X164397146Y-103323629D01*
X164386918Y-103345253D01*
X164374621Y-103365770D01*
X164360371Y-103384983D01*
X164344307Y-103402707D01*
X164326583Y-103418771D01*
X164307370Y-103433021D01*
X164286853Y-103445318D01*
X164265229Y-103455546D01*
X164242707Y-103463604D01*
X164219503Y-103469416D01*
X164195842Y-103472926D01*
X164171950Y-103474100D01*
X163259450Y-103474100D01*
X163235558Y-103472926D01*
X163211897Y-103469416D01*
X163188693Y-103463604D01*
X163166171Y-103455546D01*
X163144547Y-103445318D01*
X163124030Y-103433021D01*
X163104817Y-103418771D01*
X163087093Y-103402707D01*
X163071029Y-103384983D01*
X163056779Y-103365770D01*
X163044482Y-103345253D01*
X163034254Y-103323629D01*
X163026196Y-103301107D01*
X163020384Y-103277903D01*
X163016874Y-103254242D01*
X163015700Y-103230350D01*
X163015700Y-102742850D01*
X163016874Y-102718958D01*
X163020384Y-102695297D01*
X163026196Y-102672093D01*
X163034254Y-102649571D01*
X163044482Y-102627947D01*
X163056779Y-102607430D01*
X163071029Y-102588217D01*
X163087093Y-102570493D01*
X163104817Y-102554429D01*
X163124030Y-102540179D01*
X163144547Y-102527882D01*
X163166171Y-102517654D01*
X163188693Y-102509596D01*
X163211897Y-102503784D01*
X163235558Y-102500274D01*
X163259450Y-102499100D01*
X164171950Y-102499100D01*
X164195842Y-102500274D01*
G37*
G04 #@! TD.AperFunction*
G04 #@! TA.AperFunction,SMDPad,CuDef*
G36*
X155077991Y-107831153D02*
G01*
X155099226Y-107834303D01*
X155120050Y-107839519D01*
X155140262Y-107846751D01*
X155159668Y-107855930D01*
X155178081Y-107866966D01*
X155195324Y-107879754D01*
X155211230Y-107894170D01*
X155225646Y-107910076D01*
X155238434Y-107927319D01*
X155249470Y-107945732D01*
X155258649Y-107965138D01*
X155265881Y-107985350D01*
X155271097Y-108006174D01*
X155274247Y-108027409D01*
X155275300Y-108048850D01*
X155275300Y-108486350D01*
X155274247Y-108507791D01*
X155271097Y-108529026D01*
X155265881Y-108549850D01*
X155258649Y-108570062D01*
X155249470Y-108589468D01*
X155238434Y-108607881D01*
X155225646Y-108625124D01*
X155211230Y-108641030D01*
X155195324Y-108655446D01*
X155178081Y-108668234D01*
X155159668Y-108679270D01*
X155140262Y-108688449D01*
X155120050Y-108695681D01*
X155099226Y-108700897D01*
X155077991Y-108704047D01*
X155056550Y-108705100D01*
X154544050Y-108705100D01*
X154522609Y-108704047D01*
X154501374Y-108700897D01*
X154480550Y-108695681D01*
X154460338Y-108688449D01*
X154440932Y-108679270D01*
X154422519Y-108668234D01*
X154405276Y-108655446D01*
X154389370Y-108641030D01*
X154374954Y-108625124D01*
X154362166Y-108607881D01*
X154351130Y-108589468D01*
X154341951Y-108570062D01*
X154334719Y-108549850D01*
X154329503Y-108529026D01*
X154326353Y-108507791D01*
X154325300Y-108486350D01*
X154325300Y-108048850D01*
X154326353Y-108027409D01*
X154329503Y-108006174D01*
X154334719Y-107985350D01*
X154341951Y-107965138D01*
X154351130Y-107945732D01*
X154362166Y-107927319D01*
X154374954Y-107910076D01*
X154389370Y-107894170D01*
X154405276Y-107879754D01*
X154422519Y-107866966D01*
X154440932Y-107855930D01*
X154460338Y-107846751D01*
X154480550Y-107839519D01*
X154501374Y-107834303D01*
X154522609Y-107831153D01*
X154544050Y-107830100D01*
X155056550Y-107830100D01*
X155077991Y-107831153D01*
G37*
G04 #@! TD.AperFunction*
G04 #@! TA.AperFunction,SMDPad,CuDef*
G36*
X155077991Y-106256153D02*
G01*
X155099226Y-106259303D01*
X155120050Y-106264519D01*
X155140262Y-106271751D01*
X155159668Y-106280930D01*
X155178081Y-106291966D01*
X155195324Y-106304754D01*
X155211230Y-106319170D01*
X155225646Y-106335076D01*
X155238434Y-106352319D01*
X155249470Y-106370732D01*
X155258649Y-106390138D01*
X155265881Y-106410350D01*
X155271097Y-106431174D01*
X155274247Y-106452409D01*
X155275300Y-106473850D01*
X155275300Y-106911350D01*
X155274247Y-106932791D01*
X155271097Y-106954026D01*
X155265881Y-106974850D01*
X155258649Y-106995062D01*
X155249470Y-107014468D01*
X155238434Y-107032881D01*
X155225646Y-107050124D01*
X155211230Y-107066030D01*
X155195324Y-107080446D01*
X155178081Y-107093234D01*
X155159668Y-107104270D01*
X155140262Y-107113449D01*
X155120050Y-107120681D01*
X155099226Y-107125897D01*
X155077991Y-107129047D01*
X155056550Y-107130100D01*
X154544050Y-107130100D01*
X154522609Y-107129047D01*
X154501374Y-107125897D01*
X154480550Y-107120681D01*
X154460338Y-107113449D01*
X154440932Y-107104270D01*
X154422519Y-107093234D01*
X154405276Y-107080446D01*
X154389370Y-107066030D01*
X154374954Y-107050124D01*
X154362166Y-107032881D01*
X154351130Y-107014468D01*
X154341951Y-106995062D01*
X154334719Y-106974850D01*
X154329503Y-106954026D01*
X154326353Y-106932791D01*
X154325300Y-106911350D01*
X154325300Y-106473850D01*
X154326353Y-106452409D01*
X154329503Y-106431174D01*
X154334719Y-106410350D01*
X154341951Y-106390138D01*
X154351130Y-106370732D01*
X154362166Y-106352319D01*
X154374954Y-106335076D01*
X154389370Y-106319170D01*
X154405276Y-106304754D01*
X154422519Y-106291966D01*
X154440932Y-106280930D01*
X154460338Y-106271751D01*
X154480550Y-106264519D01*
X154501374Y-106259303D01*
X154522609Y-106256153D01*
X154544050Y-106255100D01*
X155056550Y-106255100D01*
X155077991Y-106256153D01*
G37*
G04 #@! TD.AperFunction*
G04 #@! TA.AperFunction,SMDPad,CuDef*
G36*
X166863591Y-103563753D02*
G01*
X166884826Y-103566903D01*
X166905650Y-103572119D01*
X166925862Y-103579351D01*
X166945268Y-103588530D01*
X166963681Y-103599566D01*
X166980924Y-103612354D01*
X166996830Y-103626770D01*
X167011246Y-103642676D01*
X167024034Y-103659919D01*
X167035070Y-103678332D01*
X167044249Y-103697738D01*
X167051481Y-103717950D01*
X167056697Y-103738774D01*
X167059847Y-103760009D01*
X167060900Y-103781450D01*
X167060900Y-104218950D01*
X167059847Y-104240391D01*
X167056697Y-104261626D01*
X167051481Y-104282450D01*
X167044249Y-104302662D01*
X167035070Y-104322068D01*
X167024034Y-104340481D01*
X167011246Y-104357724D01*
X166996830Y-104373630D01*
X166980924Y-104388046D01*
X166963681Y-104400834D01*
X166945268Y-104411870D01*
X166925862Y-104421049D01*
X166905650Y-104428281D01*
X166884826Y-104433497D01*
X166863591Y-104436647D01*
X166842150Y-104437700D01*
X166329650Y-104437700D01*
X166308209Y-104436647D01*
X166286974Y-104433497D01*
X166266150Y-104428281D01*
X166245938Y-104421049D01*
X166226532Y-104411870D01*
X166208119Y-104400834D01*
X166190876Y-104388046D01*
X166174970Y-104373630D01*
X166160554Y-104357724D01*
X166147766Y-104340481D01*
X166136730Y-104322068D01*
X166127551Y-104302662D01*
X166120319Y-104282450D01*
X166115103Y-104261626D01*
X166111953Y-104240391D01*
X166110900Y-104218950D01*
X166110900Y-103781450D01*
X166111953Y-103760009D01*
X166115103Y-103738774D01*
X166120319Y-103717950D01*
X166127551Y-103697738D01*
X166136730Y-103678332D01*
X166147766Y-103659919D01*
X166160554Y-103642676D01*
X166174970Y-103626770D01*
X166190876Y-103612354D01*
X166208119Y-103599566D01*
X166226532Y-103588530D01*
X166245938Y-103579351D01*
X166266150Y-103572119D01*
X166286974Y-103566903D01*
X166308209Y-103563753D01*
X166329650Y-103562700D01*
X166842150Y-103562700D01*
X166863591Y-103563753D01*
G37*
G04 #@! TD.AperFunction*
G04 #@! TA.AperFunction,SMDPad,CuDef*
G36*
X166863591Y-105138753D02*
G01*
X166884826Y-105141903D01*
X166905650Y-105147119D01*
X166925862Y-105154351D01*
X166945268Y-105163530D01*
X166963681Y-105174566D01*
X166980924Y-105187354D01*
X166996830Y-105201770D01*
X167011246Y-105217676D01*
X167024034Y-105234919D01*
X167035070Y-105253332D01*
X167044249Y-105272738D01*
X167051481Y-105292950D01*
X167056697Y-105313774D01*
X167059847Y-105335009D01*
X167060900Y-105356450D01*
X167060900Y-105793950D01*
X167059847Y-105815391D01*
X167056697Y-105836626D01*
X167051481Y-105857450D01*
X167044249Y-105877662D01*
X167035070Y-105897068D01*
X167024034Y-105915481D01*
X167011246Y-105932724D01*
X166996830Y-105948630D01*
X166980924Y-105963046D01*
X166963681Y-105975834D01*
X166945268Y-105986870D01*
X166925862Y-105996049D01*
X166905650Y-106003281D01*
X166884826Y-106008497D01*
X166863591Y-106011647D01*
X166842150Y-106012700D01*
X166329650Y-106012700D01*
X166308209Y-106011647D01*
X166286974Y-106008497D01*
X166266150Y-106003281D01*
X166245938Y-105996049D01*
X166226532Y-105986870D01*
X166208119Y-105975834D01*
X166190876Y-105963046D01*
X166174970Y-105948630D01*
X166160554Y-105932724D01*
X166147766Y-105915481D01*
X166136730Y-105897068D01*
X166127551Y-105877662D01*
X166120319Y-105857450D01*
X166115103Y-105836626D01*
X166111953Y-105815391D01*
X166110900Y-105793950D01*
X166110900Y-105356450D01*
X166111953Y-105335009D01*
X166115103Y-105313774D01*
X166120319Y-105292950D01*
X166127551Y-105272738D01*
X166136730Y-105253332D01*
X166147766Y-105234919D01*
X166160554Y-105217676D01*
X166174970Y-105201770D01*
X166190876Y-105187354D01*
X166208119Y-105174566D01*
X166226532Y-105163530D01*
X166245938Y-105154351D01*
X166266150Y-105147119D01*
X166286974Y-105141903D01*
X166308209Y-105138753D01*
X166329650Y-105137700D01*
X166842150Y-105137700D01*
X166863591Y-105138753D01*
G37*
G04 #@! TD.AperFunction*
G04 #@! TA.AperFunction,SMDPad,CuDef*
G36*
X168602691Y-103376053D02*
G01*
X168623926Y-103379203D01*
X168644750Y-103384419D01*
X168664962Y-103391651D01*
X168684368Y-103400830D01*
X168702781Y-103411866D01*
X168720024Y-103424654D01*
X168735930Y-103439070D01*
X168750346Y-103454976D01*
X168763134Y-103472219D01*
X168774170Y-103490632D01*
X168783349Y-103510038D01*
X168790581Y-103530250D01*
X168795797Y-103551074D01*
X168798947Y-103572309D01*
X168800000Y-103593750D01*
X168800000Y-104106250D01*
X168798947Y-104127691D01*
X168795797Y-104148926D01*
X168790581Y-104169750D01*
X168783349Y-104189962D01*
X168774170Y-104209368D01*
X168763134Y-104227781D01*
X168750346Y-104245024D01*
X168735930Y-104260930D01*
X168720024Y-104275346D01*
X168702781Y-104288134D01*
X168684368Y-104299170D01*
X168664962Y-104308349D01*
X168644750Y-104315581D01*
X168623926Y-104320797D01*
X168602691Y-104323947D01*
X168581250Y-104325000D01*
X168143750Y-104325000D01*
X168122309Y-104323947D01*
X168101074Y-104320797D01*
X168080250Y-104315581D01*
X168060038Y-104308349D01*
X168040632Y-104299170D01*
X168022219Y-104288134D01*
X168004976Y-104275346D01*
X167989070Y-104260930D01*
X167974654Y-104245024D01*
X167961866Y-104227781D01*
X167950830Y-104209368D01*
X167941651Y-104189962D01*
X167934419Y-104169750D01*
X167929203Y-104148926D01*
X167926053Y-104127691D01*
X167925000Y-104106250D01*
X167925000Y-103593750D01*
X167926053Y-103572309D01*
X167929203Y-103551074D01*
X167934419Y-103530250D01*
X167941651Y-103510038D01*
X167950830Y-103490632D01*
X167961866Y-103472219D01*
X167974654Y-103454976D01*
X167989070Y-103439070D01*
X168004976Y-103424654D01*
X168022219Y-103411866D01*
X168040632Y-103400830D01*
X168060038Y-103391651D01*
X168080250Y-103384419D01*
X168101074Y-103379203D01*
X168122309Y-103376053D01*
X168143750Y-103375000D01*
X168581250Y-103375000D01*
X168602691Y-103376053D01*
G37*
G04 #@! TD.AperFunction*
G04 #@! TA.AperFunction,SMDPad,CuDef*
G36*
X170177691Y-103376053D02*
G01*
X170198926Y-103379203D01*
X170219750Y-103384419D01*
X170239962Y-103391651D01*
X170259368Y-103400830D01*
X170277781Y-103411866D01*
X170295024Y-103424654D01*
X170310930Y-103439070D01*
X170325346Y-103454976D01*
X170338134Y-103472219D01*
X170349170Y-103490632D01*
X170358349Y-103510038D01*
X170365581Y-103530250D01*
X170370797Y-103551074D01*
X170373947Y-103572309D01*
X170375000Y-103593750D01*
X170375000Y-104106250D01*
X170373947Y-104127691D01*
X170370797Y-104148926D01*
X170365581Y-104169750D01*
X170358349Y-104189962D01*
X170349170Y-104209368D01*
X170338134Y-104227781D01*
X170325346Y-104245024D01*
X170310930Y-104260930D01*
X170295024Y-104275346D01*
X170277781Y-104288134D01*
X170259368Y-104299170D01*
X170239962Y-104308349D01*
X170219750Y-104315581D01*
X170198926Y-104320797D01*
X170177691Y-104323947D01*
X170156250Y-104325000D01*
X169718750Y-104325000D01*
X169697309Y-104323947D01*
X169676074Y-104320797D01*
X169655250Y-104315581D01*
X169635038Y-104308349D01*
X169615632Y-104299170D01*
X169597219Y-104288134D01*
X169579976Y-104275346D01*
X169564070Y-104260930D01*
X169549654Y-104245024D01*
X169536866Y-104227781D01*
X169525830Y-104209368D01*
X169516651Y-104189962D01*
X169509419Y-104169750D01*
X169504203Y-104148926D01*
X169501053Y-104127691D01*
X169500000Y-104106250D01*
X169500000Y-103593750D01*
X169501053Y-103572309D01*
X169504203Y-103551074D01*
X169509419Y-103530250D01*
X169516651Y-103510038D01*
X169525830Y-103490632D01*
X169536866Y-103472219D01*
X169549654Y-103454976D01*
X169564070Y-103439070D01*
X169579976Y-103424654D01*
X169597219Y-103411866D01*
X169615632Y-103400830D01*
X169635038Y-103391651D01*
X169655250Y-103384419D01*
X169676074Y-103379203D01*
X169697309Y-103376053D01*
X169718750Y-103375000D01*
X170156250Y-103375000D01*
X170177691Y-103376053D01*
G37*
G04 #@! TD.AperFunction*
D11*
X157416500Y-105546799D03*
X157416500Y-104896801D03*
X157416500Y-104246799D03*
X157416500Y-103596801D03*
X161505900Y-103596801D03*
X161505900Y-104246799D03*
X161505900Y-104896801D03*
X161505900Y-105546799D03*
G04 #@! TA.AperFunction,SMDPad,CuDef*
D10*
G36*
X163879791Y-106980753D02*
G01*
X163901026Y-106983903D01*
X163921850Y-106989119D01*
X163942062Y-106996351D01*
X163961468Y-107005530D01*
X163979881Y-107016566D01*
X163997124Y-107029354D01*
X164013030Y-107043770D01*
X164027446Y-107059676D01*
X164040234Y-107076919D01*
X164051270Y-107095332D01*
X164060449Y-107114738D01*
X164067681Y-107134950D01*
X164072897Y-107155774D01*
X164076047Y-107177009D01*
X164077100Y-107198450D01*
X164077100Y-107710950D01*
X164076047Y-107732391D01*
X164072897Y-107753626D01*
X164067681Y-107774450D01*
X164060449Y-107794662D01*
X164051270Y-107814068D01*
X164040234Y-107832481D01*
X164027446Y-107849724D01*
X164013030Y-107865630D01*
X163997124Y-107880046D01*
X163979881Y-107892834D01*
X163961468Y-107903870D01*
X163942062Y-107913049D01*
X163921850Y-107920281D01*
X163901026Y-107925497D01*
X163879791Y-107928647D01*
X163858350Y-107929700D01*
X163420850Y-107929700D01*
X163399409Y-107928647D01*
X163378174Y-107925497D01*
X163357350Y-107920281D01*
X163337138Y-107913049D01*
X163317732Y-107903870D01*
X163299319Y-107892834D01*
X163282076Y-107880046D01*
X163266170Y-107865630D01*
X163251754Y-107849724D01*
X163238966Y-107832481D01*
X163227930Y-107814068D01*
X163218751Y-107794662D01*
X163211519Y-107774450D01*
X163206303Y-107753626D01*
X163203153Y-107732391D01*
X163202100Y-107710950D01*
X163202100Y-107198450D01*
X163203153Y-107177009D01*
X163206303Y-107155774D01*
X163211519Y-107134950D01*
X163218751Y-107114738D01*
X163227930Y-107095332D01*
X163238966Y-107076919D01*
X163251754Y-107059676D01*
X163266170Y-107043770D01*
X163282076Y-107029354D01*
X163299319Y-107016566D01*
X163317732Y-107005530D01*
X163337138Y-106996351D01*
X163357350Y-106989119D01*
X163378174Y-106983903D01*
X163399409Y-106980753D01*
X163420850Y-106979700D01*
X163858350Y-106979700D01*
X163879791Y-106980753D01*
G37*
G04 #@! TD.AperFunction*
G04 #@! TA.AperFunction,SMDPad,CuDef*
G36*
X162304791Y-106980753D02*
G01*
X162326026Y-106983903D01*
X162346850Y-106989119D01*
X162367062Y-106996351D01*
X162386468Y-107005530D01*
X162404881Y-107016566D01*
X162422124Y-107029354D01*
X162438030Y-107043770D01*
X162452446Y-107059676D01*
X162465234Y-107076919D01*
X162476270Y-107095332D01*
X162485449Y-107114738D01*
X162492681Y-107134950D01*
X162497897Y-107155774D01*
X162501047Y-107177009D01*
X162502100Y-107198450D01*
X162502100Y-107710950D01*
X162501047Y-107732391D01*
X162497897Y-107753626D01*
X162492681Y-107774450D01*
X162485449Y-107794662D01*
X162476270Y-107814068D01*
X162465234Y-107832481D01*
X162452446Y-107849724D01*
X162438030Y-107865630D01*
X162422124Y-107880046D01*
X162404881Y-107892834D01*
X162386468Y-107903870D01*
X162367062Y-107913049D01*
X162346850Y-107920281D01*
X162326026Y-107925497D01*
X162304791Y-107928647D01*
X162283350Y-107929700D01*
X161845850Y-107929700D01*
X161824409Y-107928647D01*
X161803174Y-107925497D01*
X161782350Y-107920281D01*
X161762138Y-107913049D01*
X161742732Y-107903870D01*
X161724319Y-107892834D01*
X161707076Y-107880046D01*
X161691170Y-107865630D01*
X161676754Y-107849724D01*
X161663966Y-107832481D01*
X161652930Y-107814068D01*
X161643751Y-107794662D01*
X161636519Y-107774450D01*
X161631303Y-107753626D01*
X161628153Y-107732391D01*
X161627100Y-107710950D01*
X161627100Y-107198450D01*
X161628153Y-107177009D01*
X161631303Y-107155774D01*
X161636519Y-107134950D01*
X161643751Y-107114738D01*
X161652930Y-107095332D01*
X161663966Y-107076919D01*
X161676754Y-107059676D01*
X161691170Y-107043770D01*
X161707076Y-107029354D01*
X161724319Y-107016566D01*
X161742732Y-107005530D01*
X161762138Y-106996351D01*
X161782350Y-106989119D01*
X161803174Y-106983903D01*
X161824409Y-106980753D01*
X161845850Y-106979700D01*
X162283350Y-106979700D01*
X162304791Y-106980753D01*
G37*
G04 #@! TD.AperFunction*
G04 #@! TA.AperFunction,SMDPad,CuDef*
G36*
X158266191Y-99551253D02*
G01*
X158287426Y-99554403D01*
X158308250Y-99559619D01*
X158328462Y-99566851D01*
X158347868Y-99576030D01*
X158366281Y-99587066D01*
X158383524Y-99599854D01*
X158399430Y-99614270D01*
X158413846Y-99630176D01*
X158426634Y-99647419D01*
X158437670Y-99665832D01*
X158446849Y-99685238D01*
X158454081Y-99705450D01*
X158459297Y-99726274D01*
X158462447Y-99747509D01*
X158463500Y-99768950D01*
X158463500Y-100281450D01*
X158462447Y-100302891D01*
X158459297Y-100324126D01*
X158454081Y-100344950D01*
X158446849Y-100365162D01*
X158437670Y-100384568D01*
X158426634Y-100402981D01*
X158413846Y-100420224D01*
X158399430Y-100436130D01*
X158383524Y-100450546D01*
X158366281Y-100463334D01*
X158347868Y-100474370D01*
X158328462Y-100483549D01*
X158308250Y-100490781D01*
X158287426Y-100495997D01*
X158266191Y-100499147D01*
X158244750Y-100500200D01*
X157807250Y-100500200D01*
X157785809Y-100499147D01*
X157764574Y-100495997D01*
X157743750Y-100490781D01*
X157723538Y-100483549D01*
X157704132Y-100474370D01*
X157685719Y-100463334D01*
X157668476Y-100450546D01*
X157652570Y-100436130D01*
X157638154Y-100420224D01*
X157625366Y-100402981D01*
X157614330Y-100384568D01*
X157605151Y-100365162D01*
X157597919Y-100344950D01*
X157592703Y-100324126D01*
X157589553Y-100302891D01*
X157588500Y-100281450D01*
X157588500Y-99768950D01*
X157589553Y-99747509D01*
X157592703Y-99726274D01*
X157597919Y-99705450D01*
X157605151Y-99685238D01*
X157614330Y-99665832D01*
X157625366Y-99647419D01*
X157638154Y-99630176D01*
X157652570Y-99614270D01*
X157668476Y-99599854D01*
X157685719Y-99587066D01*
X157704132Y-99576030D01*
X157723538Y-99566851D01*
X157743750Y-99559619D01*
X157764574Y-99554403D01*
X157785809Y-99551253D01*
X157807250Y-99550200D01*
X158244750Y-99550200D01*
X158266191Y-99551253D01*
G37*
G04 #@! TD.AperFunction*
G04 #@! TA.AperFunction,SMDPad,CuDef*
G36*
X159841191Y-99551253D02*
G01*
X159862426Y-99554403D01*
X159883250Y-99559619D01*
X159903462Y-99566851D01*
X159922868Y-99576030D01*
X159941281Y-99587066D01*
X159958524Y-99599854D01*
X159974430Y-99614270D01*
X159988846Y-99630176D01*
X160001634Y-99647419D01*
X160012670Y-99665832D01*
X160021849Y-99685238D01*
X160029081Y-99705450D01*
X160034297Y-99726274D01*
X160037447Y-99747509D01*
X160038500Y-99768950D01*
X160038500Y-100281450D01*
X160037447Y-100302891D01*
X160034297Y-100324126D01*
X160029081Y-100344950D01*
X160021849Y-100365162D01*
X160012670Y-100384568D01*
X160001634Y-100402981D01*
X159988846Y-100420224D01*
X159974430Y-100436130D01*
X159958524Y-100450546D01*
X159941281Y-100463334D01*
X159922868Y-100474370D01*
X159903462Y-100483549D01*
X159883250Y-100490781D01*
X159862426Y-100495997D01*
X159841191Y-100499147D01*
X159819750Y-100500200D01*
X159382250Y-100500200D01*
X159360809Y-100499147D01*
X159339574Y-100495997D01*
X159318750Y-100490781D01*
X159298538Y-100483549D01*
X159279132Y-100474370D01*
X159260719Y-100463334D01*
X159243476Y-100450546D01*
X159227570Y-100436130D01*
X159213154Y-100420224D01*
X159200366Y-100402981D01*
X159189330Y-100384568D01*
X159180151Y-100365162D01*
X159172919Y-100344950D01*
X159167703Y-100324126D01*
X159164553Y-100302891D01*
X159163500Y-100281450D01*
X159163500Y-99768950D01*
X159164553Y-99747509D01*
X159167703Y-99726274D01*
X159172919Y-99705450D01*
X159180151Y-99685238D01*
X159189330Y-99665832D01*
X159200366Y-99647419D01*
X159213154Y-99630176D01*
X159227570Y-99614270D01*
X159243476Y-99599854D01*
X159260719Y-99587066D01*
X159279132Y-99576030D01*
X159298538Y-99566851D01*
X159318750Y-99559619D01*
X159339574Y-99554403D01*
X159360809Y-99551253D01*
X159382250Y-99550200D01*
X159819750Y-99550200D01*
X159841191Y-99551253D01*
G37*
G04 #@! TD.AperFunction*
G04 #@! TA.AperFunction,SMDPad,CuDef*
G36*
X162952691Y-99551253D02*
G01*
X162973926Y-99554403D01*
X162994750Y-99559619D01*
X163014962Y-99566851D01*
X163034368Y-99576030D01*
X163052781Y-99587066D01*
X163070024Y-99599854D01*
X163085930Y-99614270D01*
X163100346Y-99630176D01*
X163113134Y-99647419D01*
X163124170Y-99665832D01*
X163133349Y-99685238D01*
X163140581Y-99705450D01*
X163145797Y-99726274D01*
X163148947Y-99747509D01*
X163150000Y-99768950D01*
X163150000Y-100281450D01*
X163148947Y-100302891D01*
X163145797Y-100324126D01*
X163140581Y-100344950D01*
X163133349Y-100365162D01*
X163124170Y-100384568D01*
X163113134Y-100402981D01*
X163100346Y-100420224D01*
X163085930Y-100436130D01*
X163070024Y-100450546D01*
X163052781Y-100463334D01*
X163034368Y-100474370D01*
X163014962Y-100483549D01*
X162994750Y-100490781D01*
X162973926Y-100495997D01*
X162952691Y-100499147D01*
X162931250Y-100500200D01*
X162493750Y-100500200D01*
X162472309Y-100499147D01*
X162451074Y-100495997D01*
X162430250Y-100490781D01*
X162410038Y-100483549D01*
X162390632Y-100474370D01*
X162372219Y-100463334D01*
X162354976Y-100450546D01*
X162339070Y-100436130D01*
X162324654Y-100420224D01*
X162311866Y-100402981D01*
X162300830Y-100384568D01*
X162291651Y-100365162D01*
X162284419Y-100344950D01*
X162279203Y-100324126D01*
X162276053Y-100302891D01*
X162275000Y-100281450D01*
X162275000Y-99768950D01*
X162276053Y-99747509D01*
X162279203Y-99726274D01*
X162284419Y-99705450D01*
X162291651Y-99685238D01*
X162300830Y-99665832D01*
X162311866Y-99647419D01*
X162324654Y-99630176D01*
X162339070Y-99614270D01*
X162354976Y-99599854D01*
X162372219Y-99587066D01*
X162390632Y-99576030D01*
X162410038Y-99566851D01*
X162430250Y-99559619D01*
X162451074Y-99554403D01*
X162472309Y-99551253D01*
X162493750Y-99550200D01*
X162931250Y-99550200D01*
X162952691Y-99551253D01*
G37*
G04 #@! TD.AperFunction*
G04 #@! TA.AperFunction,SMDPad,CuDef*
G36*
X161377691Y-99551253D02*
G01*
X161398926Y-99554403D01*
X161419750Y-99559619D01*
X161439962Y-99566851D01*
X161459368Y-99576030D01*
X161477781Y-99587066D01*
X161495024Y-99599854D01*
X161510930Y-99614270D01*
X161525346Y-99630176D01*
X161538134Y-99647419D01*
X161549170Y-99665832D01*
X161558349Y-99685238D01*
X161565581Y-99705450D01*
X161570797Y-99726274D01*
X161573947Y-99747509D01*
X161575000Y-99768950D01*
X161575000Y-100281450D01*
X161573947Y-100302891D01*
X161570797Y-100324126D01*
X161565581Y-100344950D01*
X161558349Y-100365162D01*
X161549170Y-100384568D01*
X161538134Y-100402981D01*
X161525346Y-100420224D01*
X161510930Y-100436130D01*
X161495024Y-100450546D01*
X161477781Y-100463334D01*
X161459368Y-100474370D01*
X161439962Y-100483549D01*
X161419750Y-100490781D01*
X161398926Y-100495997D01*
X161377691Y-100499147D01*
X161356250Y-100500200D01*
X160918750Y-100500200D01*
X160897309Y-100499147D01*
X160876074Y-100495997D01*
X160855250Y-100490781D01*
X160835038Y-100483549D01*
X160815632Y-100474370D01*
X160797219Y-100463334D01*
X160779976Y-100450546D01*
X160764070Y-100436130D01*
X160749654Y-100420224D01*
X160736866Y-100402981D01*
X160725830Y-100384568D01*
X160716651Y-100365162D01*
X160709419Y-100344950D01*
X160704203Y-100324126D01*
X160701053Y-100302891D01*
X160700000Y-100281450D01*
X160700000Y-99768950D01*
X160701053Y-99747509D01*
X160704203Y-99726274D01*
X160709419Y-99705450D01*
X160716651Y-99685238D01*
X160725830Y-99665832D01*
X160736866Y-99647419D01*
X160749654Y-99630176D01*
X160764070Y-99614270D01*
X160779976Y-99599854D01*
X160797219Y-99587066D01*
X160815632Y-99576030D01*
X160835038Y-99566851D01*
X160855250Y-99559619D01*
X160876074Y-99554403D01*
X160897309Y-99551253D01*
X160918750Y-99550200D01*
X161356250Y-99550200D01*
X161377691Y-99551253D01*
G37*
G04 #@! TD.AperFunction*
D12*
X197975000Y-98525000D03*
D13*
X197525000Y-112025000D03*
D14*
X193375000Y-112025000D03*
D15*
X187175000Y-112025000D03*
X182875000Y-100875000D03*
D16*
X182875000Y-109025000D03*
X182875000Y-107925000D03*
X182875000Y-106825000D03*
X182875000Y-105725000D03*
X182875000Y-104625000D03*
X182875000Y-103525000D03*
X182875000Y-102425000D03*
X182875000Y-110125000D03*
X182875000Y-111075000D03*
G04 #@! TA.AperFunction,SMDPad,CuDef*
D10*
G36*
X169264703Y-101505722D02*
G01*
X169279264Y-101507882D01*
X169293543Y-101511459D01*
X169307403Y-101516418D01*
X169320710Y-101522712D01*
X169333336Y-101530280D01*
X169345159Y-101539048D01*
X169356066Y-101548934D01*
X169365952Y-101559841D01*
X169374720Y-101571664D01*
X169382288Y-101584290D01*
X169388582Y-101597597D01*
X169393541Y-101611457D01*
X169397118Y-101625736D01*
X169399278Y-101640297D01*
X169400000Y-101655000D01*
X169400000Y-101955000D01*
X169399278Y-101969703D01*
X169397118Y-101984264D01*
X169393541Y-101998543D01*
X169388582Y-102012403D01*
X169382288Y-102025710D01*
X169374720Y-102038336D01*
X169365952Y-102050159D01*
X169356066Y-102061066D01*
X169345159Y-102070952D01*
X169333336Y-102079720D01*
X169320710Y-102087288D01*
X169307403Y-102093582D01*
X169293543Y-102098541D01*
X169279264Y-102102118D01*
X169264703Y-102104278D01*
X169250000Y-102105000D01*
X167950000Y-102105000D01*
X167935297Y-102104278D01*
X167920736Y-102102118D01*
X167906457Y-102098541D01*
X167892597Y-102093582D01*
X167879290Y-102087288D01*
X167866664Y-102079720D01*
X167854841Y-102070952D01*
X167843934Y-102061066D01*
X167834048Y-102050159D01*
X167825280Y-102038336D01*
X167817712Y-102025710D01*
X167811418Y-102012403D01*
X167806459Y-101998543D01*
X167802882Y-101984264D01*
X167800722Y-101969703D01*
X167800000Y-101955000D01*
X167800000Y-101655000D01*
X167800722Y-101640297D01*
X167802882Y-101625736D01*
X167806459Y-101611457D01*
X167811418Y-101597597D01*
X167817712Y-101584290D01*
X167825280Y-101571664D01*
X167834048Y-101559841D01*
X167843934Y-101548934D01*
X167854841Y-101539048D01*
X167866664Y-101530280D01*
X167879290Y-101522712D01*
X167892597Y-101516418D01*
X167906457Y-101511459D01*
X167920736Y-101507882D01*
X167935297Y-101505722D01*
X167950000Y-101505000D01*
X169250000Y-101505000D01*
X169264703Y-101505722D01*
G37*
G04 #@! TD.AperFunction*
G04 #@! TA.AperFunction,SMDPad,CuDef*
G36*
X169264703Y-100235722D02*
G01*
X169279264Y-100237882D01*
X169293543Y-100241459D01*
X169307403Y-100246418D01*
X169320710Y-100252712D01*
X169333336Y-100260280D01*
X169345159Y-100269048D01*
X169356066Y-100278934D01*
X169365952Y-100289841D01*
X169374720Y-100301664D01*
X169382288Y-100314290D01*
X169388582Y-100327597D01*
X169393541Y-100341457D01*
X169397118Y-100355736D01*
X169399278Y-100370297D01*
X169400000Y-100385000D01*
X169400000Y-100685000D01*
X169399278Y-100699703D01*
X169397118Y-100714264D01*
X169393541Y-100728543D01*
X169388582Y-100742403D01*
X169382288Y-100755710D01*
X169374720Y-100768336D01*
X169365952Y-100780159D01*
X169356066Y-100791066D01*
X169345159Y-100800952D01*
X169333336Y-100809720D01*
X169320710Y-100817288D01*
X169307403Y-100823582D01*
X169293543Y-100828541D01*
X169279264Y-100832118D01*
X169264703Y-100834278D01*
X169250000Y-100835000D01*
X167950000Y-100835000D01*
X167935297Y-100834278D01*
X167920736Y-100832118D01*
X167906457Y-100828541D01*
X167892597Y-100823582D01*
X167879290Y-100817288D01*
X167866664Y-100809720D01*
X167854841Y-100800952D01*
X167843934Y-100791066D01*
X167834048Y-100780159D01*
X167825280Y-100768336D01*
X167817712Y-100755710D01*
X167811418Y-100742403D01*
X167806459Y-100728543D01*
X167802882Y-100714264D01*
X167800722Y-100699703D01*
X167800000Y-100685000D01*
X167800000Y-100385000D01*
X167800722Y-100370297D01*
X167802882Y-100355736D01*
X167806459Y-100341457D01*
X167811418Y-100327597D01*
X167817712Y-100314290D01*
X167825280Y-100301664D01*
X167834048Y-100289841D01*
X167843934Y-100278934D01*
X167854841Y-100269048D01*
X167866664Y-100260280D01*
X167879290Y-100252712D01*
X167892597Y-100246418D01*
X167906457Y-100241459D01*
X167920736Y-100237882D01*
X167935297Y-100235722D01*
X167950000Y-100235000D01*
X169250000Y-100235000D01*
X169264703Y-100235722D01*
G37*
G04 #@! TD.AperFunction*
G04 #@! TA.AperFunction,SMDPad,CuDef*
G36*
X169264703Y-98965722D02*
G01*
X169279264Y-98967882D01*
X169293543Y-98971459D01*
X169307403Y-98976418D01*
X169320710Y-98982712D01*
X169333336Y-98990280D01*
X169345159Y-98999048D01*
X169356066Y-99008934D01*
X169365952Y-99019841D01*
X169374720Y-99031664D01*
X169382288Y-99044290D01*
X169388582Y-99057597D01*
X169393541Y-99071457D01*
X169397118Y-99085736D01*
X169399278Y-99100297D01*
X169400000Y-99115000D01*
X169400000Y-99415000D01*
X169399278Y-99429703D01*
X169397118Y-99444264D01*
X169393541Y-99458543D01*
X169388582Y-99472403D01*
X169382288Y-99485710D01*
X169374720Y-99498336D01*
X169365952Y-99510159D01*
X169356066Y-99521066D01*
X169345159Y-99530952D01*
X169333336Y-99539720D01*
X169320710Y-99547288D01*
X169307403Y-99553582D01*
X169293543Y-99558541D01*
X169279264Y-99562118D01*
X169264703Y-99564278D01*
X169250000Y-99565000D01*
X167950000Y-99565000D01*
X167935297Y-99564278D01*
X167920736Y-99562118D01*
X167906457Y-99558541D01*
X167892597Y-99553582D01*
X167879290Y-99547288D01*
X167866664Y-99539720D01*
X167854841Y-99530952D01*
X167843934Y-99521066D01*
X167834048Y-99510159D01*
X167825280Y-99498336D01*
X167817712Y-99485710D01*
X167811418Y-99472403D01*
X167806459Y-99458543D01*
X167802882Y-99444264D01*
X167800722Y-99429703D01*
X167800000Y-99415000D01*
X167800000Y-99115000D01*
X167800722Y-99100297D01*
X167802882Y-99085736D01*
X167806459Y-99071457D01*
X167811418Y-99057597D01*
X167817712Y-99044290D01*
X167825280Y-99031664D01*
X167834048Y-99019841D01*
X167843934Y-99008934D01*
X167854841Y-98999048D01*
X167866664Y-98990280D01*
X167879290Y-98982712D01*
X167892597Y-98976418D01*
X167906457Y-98971459D01*
X167920736Y-98967882D01*
X167935297Y-98965722D01*
X167950000Y-98965000D01*
X169250000Y-98965000D01*
X169264703Y-98965722D01*
G37*
G04 #@! TD.AperFunction*
G04 #@! TA.AperFunction,SMDPad,CuDef*
G36*
X169264703Y-97695722D02*
G01*
X169279264Y-97697882D01*
X169293543Y-97701459D01*
X169307403Y-97706418D01*
X169320710Y-97712712D01*
X169333336Y-97720280D01*
X169345159Y-97729048D01*
X169356066Y-97738934D01*
X169365952Y-97749841D01*
X169374720Y-97761664D01*
X169382288Y-97774290D01*
X169388582Y-97787597D01*
X169393541Y-97801457D01*
X169397118Y-97815736D01*
X169399278Y-97830297D01*
X169400000Y-97845000D01*
X169400000Y-98145000D01*
X169399278Y-98159703D01*
X169397118Y-98174264D01*
X169393541Y-98188543D01*
X169388582Y-98202403D01*
X169382288Y-98215710D01*
X169374720Y-98228336D01*
X169365952Y-98240159D01*
X169356066Y-98251066D01*
X169345159Y-98260952D01*
X169333336Y-98269720D01*
X169320710Y-98277288D01*
X169307403Y-98283582D01*
X169293543Y-98288541D01*
X169279264Y-98292118D01*
X169264703Y-98294278D01*
X169250000Y-98295000D01*
X167950000Y-98295000D01*
X167935297Y-98294278D01*
X167920736Y-98292118D01*
X167906457Y-98288541D01*
X167892597Y-98283582D01*
X167879290Y-98277288D01*
X167866664Y-98269720D01*
X167854841Y-98260952D01*
X167843934Y-98251066D01*
X167834048Y-98240159D01*
X167825280Y-98228336D01*
X167817712Y-98215710D01*
X167811418Y-98202403D01*
X167806459Y-98188543D01*
X167802882Y-98174264D01*
X167800722Y-98159703D01*
X167800000Y-98145000D01*
X167800000Y-97845000D01*
X167800722Y-97830297D01*
X167802882Y-97815736D01*
X167806459Y-97801457D01*
X167811418Y-97787597D01*
X167817712Y-97774290D01*
X167825280Y-97761664D01*
X167834048Y-97749841D01*
X167843934Y-97738934D01*
X167854841Y-97729048D01*
X167866664Y-97720280D01*
X167879290Y-97712712D01*
X167892597Y-97706418D01*
X167906457Y-97701459D01*
X167920736Y-97697882D01*
X167935297Y-97695722D01*
X167950000Y-97695000D01*
X169250000Y-97695000D01*
X169264703Y-97695722D01*
G37*
G04 #@! TD.AperFunction*
G04 #@! TA.AperFunction,SMDPad,CuDef*
G36*
X176464703Y-97695722D02*
G01*
X176479264Y-97697882D01*
X176493543Y-97701459D01*
X176507403Y-97706418D01*
X176520710Y-97712712D01*
X176533336Y-97720280D01*
X176545159Y-97729048D01*
X176556066Y-97738934D01*
X176565952Y-97749841D01*
X176574720Y-97761664D01*
X176582288Y-97774290D01*
X176588582Y-97787597D01*
X176593541Y-97801457D01*
X176597118Y-97815736D01*
X176599278Y-97830297D01*
X176600000Y-97845000D01*
X176600000Y-98145000D01*
X176599278Y-98159703D01*
X176597118Y-98174264D01*
X176593541Y-98188543D01*
X176588582Y-98202403D01*
X176582288Y-98215710D01*
X176574720Y-98228336D01*
X176565952Y-98240159D01*
X176556066Y-98251066D01*
X176545159Y-98260952D01*
X176533336Y-98269720D01*
X176520710Y-98277288D01*
X176507403Y-98283582D01*
X176493543Y-98288541D01*
X176479264Y-98292118D01*
X176464703Y-98294278D01*
X176450000Y-98295000D01*
X175150000Y-98295000D01*
X175135297Y-98294278D01*
X175120736Y-98292118D01*
X175106457Y-98288541D01*
X175092597Y-98283582D01*
X175079290Y-98277288D01*
X175066664Y-98269720D01*
X175054841Y-98260952D01*
X175043934Y-98251066D01*
X175034048Y-98240159D01*
X175025280Y-98228336D01*
X175017712Y-98215710D01*
X175011418Y-98202403D01*
X175006459Y-98188543D01*
X175002882Y-98174264D01*
X175000722Y-98159703D01*
X175000000Y-98145000D01*
X175000000Y-97845000D01*
X175000722Y-97830297D01*
X175002882Y-97815736D01*
X175006459Y-97801457D01*
X175011418Y-97787597D01*
X175017712Y-97774290D01*
X175025280Y-97761664D01*
X175034048Y-97749841D01*
X175043934Y-97738934D01*
X175054841Y-97729048D01*
X175066664Y-97720280D01*
X175079290Y-97712712D01*
X175092597Y-97706418D01*
X175106457Y-97701459D01*
X175120736Y-97697882D01*
X175135297Y-97695722D01*
X175150000Y-97695000D01*
X176450000Y-97695000D01*
X176464703Y-97695722D01*
G37*
G04 #@! TD.AperFunction*
G04 #@! TA.AperFunction,SMDPad,CuDef*
G36*
X176464703Y-98965722D02*
G01*
X176479264Y-98967882D01*
X176493543Y-98971459D01*
X176507403Y-98976418D01*
X176520710Y-98982712D01*
X176533336Y-98990280D01*
X176545159Y-98999048D01*
X176556066Y-99008934D01*
X176565952Y-99019841D01*
X176574720Y-99031664D01*
X176582288Y-99044290D01*
X176588582Y-99057597D01*
X176593541Y-99071457D01*
X176597118Y-99085736D01*
X176599278Y-99100297D01*
X176600000Y-99115000D01*
X176600000Y-99415000D01*
X176599278Y-99429703D01*
X176597118Y-99444264D01*
X176593541Y-99458543D01*
X176588582Y-99472403D01*
X176582288Y-99485710D01*
X176574720Y-99498336D01*
X176565952Y-99510159D01*
X176556066Y-99521066D01*
X176545159Y-99530952D01*
X176533336Y-99539720D01*
X176520710Y-99547288D01*
X176507403Y-99553582D01*
X176493543Y-99558541D01*
X176479264Y-99562118D01*
X176464703Y-99564278D01*
X176450000Y-99565000D01*
X175150000Y-99565000D01*
X175135297Y-99564278D01*
X175120736Y-99562118D01*
X175106457Y-99558541D01*
X175092597Y-99553582D01*
X175079290Y-99547288D01*
X175066664Y-99539720D01*
X175054841Y-99530952D01*
X175043934Y-99521066D01*
X175034048Y-99510159D01*
X175025280Y-99498336D01*
X175017712Y-99485710D01*
X175011418Y-99472403D01*
X175006459Y-99458543D01*
X175002882Y-99444264D01*
X175000722Y-99429703D01*
X175000000Y-99415000D01*
X175000000Y-99115000D01*
X175000722Y-99100297D01*
X175002882Y-99085736D01*
X175006459Y-99071457D01*
X175011418Y-99057597D01*
X175017712Y-99044290D01*
X175025280Y-99031664D01*
X175034048Y-99019841D01*
X175043934Y-99008934D01*
X175054841Y-98999048D01*
X175066664Y-98990280D01*
X175079290Y-98982712D01*
X175092597Y-98976418D01*
X175106457Y-98971459D01*
X175120736Y-98967882D01*
X175135297Y-98965722D01*
X175150000Y-98965000D01*
X176450000Y-98965000D01*
X176464703Y-98965722D01*
G37*
G04 #@! TD.AperFunction*
G04 #@! TA.AperFunction,SMDPad,CuDef*
G36*
X176464703Y-100235722D02*
G01*
X176479264Y-100237882D01*
X176493543Y-100241459D01*
X176507403Y-100246418D01*
X176520710Y-100252712D01*
X176533336Y-100260280D01*
X176545159Y-100269048D01*
X176556066Y-100278934D01*
X176565952Y-100289841D01*
X176574720Y-100301664D01*
X176582288Y-100314290D01*
X176588582Y-100327597D01*
X176593541Y-100341457D01*
X176597118Y-100355736D01*
X176599278Y-100370297D01*
X176600000Y-100385000D01*
X176600000Y-100685000D01*
X176599278Y-100699703D01*
X176597118Y-100714264D01*
X176593541Y-100728543D01*
X176588582Y-100742403D01*
X176582288Y-100755710D01*
X176574720Y-100768336D01*
X176565952Y-100780159D01*
X176556066Y-100791066D01*
X176545159Y-100800952D01*
X176533336Y-100809720D01*
X176520710Y-100817288D01*
X176507403Y-100823582D01*
X176493543Y-100828541D01*
X176479264Y-100832118D01*
X176464703Y-100834278D01*
X176450000Y-100835000D01*
X175150000Y-100835000D01*
X175135297Y-100834278D01*
X175120736Y-100832118D01*
X175106457Y-100828541D01*
X175092597Y-100823582D01*
X175079290Y-100817288D01*
X175066664Y-100809720D01*
X175054841Y-100800952D01*
X175043934Y-100791066D01*
X175034048Y-100780159D01*
X175025280Y-100768336D01*
X175017712Y-100755710D01*
X175011418Y-100742403D01*
X175006459Y-100728543D01*
X175002882Y-100714264D01*
X175000722Y-100699703D01*
X175000000Y-100685000D01*
X175000000Y-100385000D01*
X175000722Y-100370297D01*
X175002882Y-100355736D01*
X175006459Y-100341457D01*
X175011418Y-100327597D01*
X175017712Y-100314290D01*
X175025280Y-100301664D01*
X175034048Y-100289841D01*
X175043934Y-100278934D01*
X175054841Y-100269048D01*
X175066664Y-100260280D01*
X175079290Y-100252712D01*
X175092597Y-100246418D01*
X175106457Y-100241459D01*
X175120736Y-100237882D01*
X175135297Y-100235722D01*
X175150000Y-100235000D01*
X176450000Y-100235000D01*
X176464703Y-100235722D01*
G37*
G04 #@! TD.AperFunction*
G04 #@! TA.AperFunction,SMDPad,CuDef*
G36*
X176464703Y-101505722D02*
G01*
X176479264Y-101507882D01*
X176493543Y-101511459D01*
X176507403Y-101516418D01*
X176520710Y-101522712D01*
X176533336Y-101530280D01*
X176545159Y-101539048D01*
X176556066Y-101548934D01*
X176565952Y-101559841D01*
X176574720Y-101571664D01*
X176582288Y-101584290D01*
X176588582Y-101597597D01*
X176593541Y-101611457D01*
X176597118Y-101625736D01*
X176599278Y-101640297D01*
X176600000Y-101655000D01*
X176600000Y-101955000D01*
X176599278Y-101969703D01*
X176597118Y-101984264D01*
X176593541Y-101998543D01*
X176588582Y-102012403D01*
X176582288Y-102025710D01*
X176574720Y-102038336D01*
X176565952Y-102050159D01*
X176556066Y-102061066D01*
X176545159Y-102070952D01*
X176533336Y-102079720D01*
X176520710Y-102087288D01*
X176507403Y-102093582D01*
X176493543Y-102098541D01*
X176479264Y-102102118D01*
X176464703Y-102104278D01*
X176450000Y-102105000D01*
X175150000Y-102105000D01*
X175135297Y-102104278D01*
X175120736Y-102102118D01*
X175106457Y-102098541D01*
X175092597Y-102093582D01*
X175079290Y-102087288D01*
X175066664Y-102079720D01*
X175054841Y-102070952D01*
X175043934Y-102061066D01*
X175034048Y-102050159D01*
X175025280Y-102038336D01*
X175017712Y-102025710D01*
X175011418Y-102012403D01*
X175006459Y-101998543D01*
X175002882Y-101984264D01*
X175000722Y-101969703D01*
X175000000Y-101955000D01*
X175000000Y-101655000D01*
X175000722Y-101640297D01*
X175002882Y-101625736D01*
X175006459Y-101611457D01*
X175011418Y-101597597D01*
X175017712Y-101584290D01*
X175025280Y-101571664D01*
X175034048Y-101559841D01*
X175043934Y-101548934D01*
X175054841Y-101539048D01*
X175066664Y-101530280D01*
X175079290Y-101522712D01*
X175092597Y-101516418D01*
X175106457Y-101511459D01*
X175120736Y-101507882D01*
X175135297Y-101505722D01*
X175150000Y-101505000D01*
X176450000Y-101505000D01*
X176464703Y-101505722D01*
G37*
G04 #@! TD.AperFunction*
D17*
X150500000Y-103500000D03*
G04 #@! TA.AperFunction,ComponentPad*
D10*
G36*
X151274504Y-105151204D02*
G01*
X151298773Y-105154804D01*
X151322571Y-105160765D01*
X151345671Y-105169030D01*
X151367849Y-105179520D01*
X151388893Y-105192133D01*
X151408598Y-105206747D01*
X151426777Y-105223223D01*
X151443253Y-105241402D01*
X151457867Y-105261107D01*
X151470480Y-105282151D01*
X151480970Y-105304329D01*
X151489235Y-105327429D01*
X151495196Y-105351227D01*
X151498796Y-105375496D01*
X151500000Y-105400000D01*
X151500000Y-106600000D01*
X151498796Y-106624504D01*
X151495196Y-106648773D01*
X151489235Y-106672571D01*
X151480970Y-106695671D01*
X151470480Y-106717849D01*
X151457867Y-106738893D01*
X151443253Y-106758598D01*
X151426777Y-106776777D01*
X151408598Y-106793253D01*
X151388893Y-106807867D01*
X151367849Y-106820480D01*
X151345671Y-106830970D01*
X151322571Y-106839235D01*
X151298773Y-106845196D01*
X151274504Y-106848796D01*
X151250000Y-106850000D01*
X149750000Y-106850000D01*
X149725496Y-106848796D01*
X149701227Y-106845196D01*
X149677429Y-106839235D01*
X149654329Y-106830970D01*
X149632151Y-106820480D01*
X149611107Y-106807867D01*
X149591402Y-106793253D01*
X149573223Y-106776777D01*
X149556747Y-106758598D01*
X149542133Y-106738893D01*
X149529520Y-106717849D01*
X149519030Y-106695671D01*
X149510765Y-106672571D01*
X149504804Y-106648773D01*
X149501204Y-106624504D01*
X149500000Y-106600000D01*
X149500000Y-105400000D01*
X149501204Y-105375496D01*
X149504804Y-105351227D01*
X149510765Y-105327429D01*
X149519030Y-105304329D01*
X149529520Y-105282151D01*
X149542133Y-105261107D01*
X149556747Y-105241402D01*
X149573223Y-105223223D01*
X149591402Y-105206747D01*
X149611107Y-105192133D01*
X149632151Y-105179520D01*
X149654329Y-105169030D01*
X149677429Y-105160765D01*
X149701227Y-105154804D01*
X149725496Y-105151204D01*
X149750000Y-105150000D01*
X151250000Y-105150000D01*
X151274504Y-105151204D01*
G37*
G04 #@! TD.AperFunction*
D18*
X196460000Y-81525000D03*
X196460000Y-77725000D03*
X195190000Y-79625000D03*
X195190000Y-75825000D03*
X193920000Y-81525000D03*
X193920000Y-77725000D03*
X192650000Y-79625000D03*
X192650000Y-75825000D03*
X191380000Y-81525000D03*
X191380000Y-77725000D03*
X190110000Y-79625000D03*
X190110000Y-75825000D03*
X188840000Y-81525000D03*
X188840000Y-77725000D03*
X187570000Y-79625000D03*
X187570000Y-75825000D03*
X186300000Y-81525000D03*
X186300000Y-77725000D03*
X185030000Y-79625000D03*
X185030000Y-75825000D03*
X183760000Y-81525000D03*
X183760000Y-77725000D03*
X182490000Y-79625000D03*
X182490000Y-75825000D03*
X181220000Y-81525000D03*
X181220000Y-77725000D03*
X179950000Y-79625000D03*
X179950000Y-75825000D03*
X178680000Y-81525000D03*
X178680000Y-77725000D03*
X177410000Y-79625000D03*
X177410000Y-75825000D03*
X176140000Y-81525000D03*
X176140000Y-77725000D03*
X174870000Y-79625000D03*
X174870000Y-75825000D03*
X173600000Y-81525000D03*
X173600000Y-77725000D03*
X172330000Y-79625000D03*
X172330000Y-75825000D03*
X171060000Y-81525000D03*
X171060000Y-77725000D03*
X169790000Y-79625000D03*
X169790000Y-75825000D03*
X168520000Y-81525000D03*
X168520000Y-77725000D03*
X167250000Y-79625000D03*
X167250000Y-75825000D03*
X165980000Y-81525000D03*
X165980000Y-77725000D03*
X164710000Y-79625000D03*
X164710000Y-75825000D03*
X163440000Y-81525000D03*
X163440000Y-77725000D03*
X162170000Y-79625000D03*
X162170000Y-75825000D03*
X160900000Y-81525000D03*
X160900000Y-77725000D03*
X159630000Y-79625000D03*
X159630000Y-75825000D03*
X158360000Y-81525000D03*
X158360000Y-77725000D03*
X157090000Y-79625000D03*
X157090000Y-75825000D03*
X155820000Y-81525000D03*
X155820000Y-77725000D03*
X154550000Y-79625000D03*
X154550000Y-75825000D03*
X153280000Y-81525000D03*
X153280000Y-77725000D03*
X152010000Y-79625000D03*
X152010000Y-75825000D03*
X150740000Y-81525000D03*
X150740000Y-77725000D03*
X149470000Y-79625000D03*
X149470000Y-75825000D03*
X148200000Y-81525000D03*
X148200000Y-77725000D03*
X146930000Y-79625000D03*
D19*
X146930000Y-75825000D03*
D20*
X161518600Y-102209600D03*
X173240700Y-104444800D03*
X176364900Y-103390700D03*
X160604200Y-107353100D03*
X156718000Y-101295200D03*
X199237600Y-75692000D03*
X180822600Y-112052100D03*
X174244000Y-97980500D03*
X156006800Y-106984800D03*
X174040800Y-84086700D03*
X180682900Y-84150200D03*
X172859700Y-94919800D03*
X186397900Y-83832700D03*
X174600000Y-95300000D03*
X178714400Y-92875100D03*
X178244500Y-107619800D03*
X174244000Y-100520500D03*
X169700000Y-94973002D03*
X174218600Y-99199700D03*
X166103300Y-92405200D03*
X171792900Y-106514900D03*
X169975000Y-96735900D03*
D21*
X147930000Y-75825000D02*
X152010000Y-75825000D01*
X153280000Y-77725000D02*
X148200000Y-77725000D01*
X149470000Y-76455000D02*
X150740000Y-77725000D01*
X149470000Y-75825000D02*
X149470000Y-76455000D01*
X152010000Y-76455000D02*
X153280000Y-77725000D01*
X152010000Y-75825000D02*
X152010000Y-76455000D01*
X148200000Y-76664340D02*
X148200000Y-77725000D01*
X147930000Y-75825000D02*
X148200000Y-76095000D01*
X148200000Y-76095000D02*
X148200000Y-76664340D01*
X146930000Y-75825000D02*
X147930000Y-75825000D01*
X148200000Y-79933998D02*
X149400000Y-81133998D01*
X148200000Y-77725000D02*
X148200000Y-79933998D01*
X149400000Y-81133998D02*
X149400000Y-83300000D01*
X161505900Y-103596801D02*
X161505900Y-102222300D01*
X161505900Y-102222300D02*
X161518600Y-102209600D01*
X158026000Y-100500200D02*
X158026000Y-100025200D01*
X159335401Y-101809601D02*
X158026000Y-100500200D01*
X161118601Y-101809601D02*
X159335401Y-101809601D01*
X161518600Y-102209600D02*
X161118601Y-101809601D01*
X175800000Y-97995000D02*
X174258500Y-97995000D01*
X174258500Y-97995000D02*
X174244000Y-97980500D01*
X191380000Y-77095000D02*
X192650000Y-75825000D01*
X191380000Y-77725000D02*
X191380000Y-77095000D01*
X193920000Y-77095000D02*
X192650000Y-75825000D01*
X193920000Y-77095000D02*
X195190000Y-75825000D01*
X193920000Y-77725000D02*
X193920000Y-77095000D01*
X181220000Y-77095000D02*
X182490000Y-75825000D01*
X181220000Y-77725000D02*
X181220000Y-77095000D01*
X182490000Y-76455000D02*
X183760000Y-77725000D01*
X182490000Y-75825000D02*
X182490000Y-76455000D01*
X185030000Y-76455000D02*
X183760000Y-77725000D01*
X185030000Y-75825000D02*
X185030000Y-76455000D01*
X174600000Y-95335000D02*
X174600000Y-95300000D01*
X168600000Y-100535000D02*
X169400000Y-100535000D01*
X169400000Y-100535000D02*
X174600000Y-95335000D01*
X178485001Y-79108999D02*
X178485001Y-80128997D01*
X179125001Y-76649999D02*
X178163999Y-76649999D01*
X179950000Y-75825000D02*
X179125001Y-76649999D01*
X177604999Y-77208999D02*
X177604999Y-78228997D01*
X178485001Y-80128997D02*
X177604999Y-81008999D01*
X178163999Y-76649999D02*
X177604999Y-77208999D01*
X177604999Y-81008999D02*
X177604999Y-82748699D01*
X177604999Y-78228997D02*
X178485001Y-79108999D01*
X177604999Y-82748699D02*
X178739800Y-83883500D01*
X178739800Y-83883500D02*
X178739800Y-92849700D01*
X178739800Y-92849700D02*
X178714400Y-92875100D01*
X169790000Y-76455000D02*
X171060000Y-77725000D01*
X169790000Y-75825000D02*
X169790000Y-76455000D01*
X172330000Y-76455000D02*
X171060000Y-77725000D01*
X172330000Y-76455000D02*
X173600000Y-77725000D01*
X172330000Y-75825000D02*
X172330000Y-76455000D01*
X175800000Y-100535000D02*
X175000000Y-100535000D01*
X175800000Y-100535000D02*
X174258500Y-100535000D01*
X174258500Y-100535000D02*
X174244000Y-100520500D01*
X179649700Y-109025000D02*
X178244500Y-107619800D01*
X182875000Y-109025000D02*
X179649700Y-109025000D01*
X169700000Y-81126002D02*
X169700000Y-82800000D01*
X168500000Y-79926002D02*
X169700000Y-81126002D01*
X168500000Y-79296002D02*
X168500000Y-79926002D01*
X167250000Y-75825000D02*
X167250000Y-78046002D01*
X167250000Y-78046002D02*
X168500000Y-79296002D01*
X169700000Y-82800000D02*
X169700000Y-94973002D01*
X165980000Y-79933998D02*
X165980000Y-77725000D01*
X167055001Y-81008999D02*
X165980000Y-79933998D01*
X168600000Y-97695000D02*
X167055001Y-96150001D01*
X167055001Y-96150001D02*
X167055001Y-81008999D01*
X168600000Y-97995000D02*
X168600000Y-97695000D01*
X167773222Y-101179990D02*
X172109490Y-101179990D01*
X168600000Y-97995000D02*
X168300000Y-98295000D01*
X168300000Y-98295000D02*
X168098232Y-98295000D01*
X168098232Y-98295000D02*
X167474990Y-98918242D01*
X167474990Y-100881758D02*
X167773222Y-101179990D01*
X167474990Y-98918242D02*
X167474990Y-100881758D01*
X175554500Y-104625000D02*
X182875000Y-104625000D01*
X172109490Y-101179990D02*
X175554500Y-104625000D01*
X164710000Y-78033998D02*
X163634999Y-79108999D01*
X164710000Y-75825000D02*
X164710000Y-78033998D01*
X163634999Y-80141001D02*
X164710000Y-81216002D01*
X163634999Y-79108999D02*
X163634999Y-80141001D01*
X164710000Y-81216002D02*
X164710000Y-83112500D01*
X175800000Y-99265000D02*
X174283900Y-99265000D01*
X174283900Y-99265000D02*
X174218600Y-99199700D01*
X166103300Y-92405200D02*
X166103300Y-84505800D01*
X166103300Y-84505800D02*
X164710000Y-83112500D01*
X157090000Y-76455000D02*
X158360000Y-77725000D01*
X157090000Y-75825000D02*
X157090000Y-76455000D01*
X158360000Y-77095000D02*
X159630000Y-75825000D01*
X158360000Y-77725000D02*
X158360000Y-77095000D01*
X159630000Y-76455000D02*
X160900000Y-77725000D01*
X159630000Y-75825000D02*
X159630000Y-76455000D01*
X162170000Y-76455000D02*
X160900000Y-77725000D01*
X162170000Y-76455000D02*
X163440000Y-77725000D01*
X162170000Y-75825000D02*
X162170000Y-76455000D01*
X160900000Y-79933998D02*
X159700000Y-81133998D01*
X160900000Y-77725000D02*
X160900000Y-79933998D01*
X159700000Y-81133998D02*
X159700000Y-83600000D01*
X168600000Y-103525000D02*
X168275000Y-103850000D01*
X168600000Y-101805000D02*
X168600000Y-103525000D01*
X168545000Y-101860000D02*
X168600000Y-101805000D01*
X166648600Y-103850000D02*
X166585900Y-103912700D01*
X168275000Y-103850000D02*
X166648600Y-103850000D01*
D22*
X165698100Y-104800500D02*
X166585900Y-103912700D01*
X163588700Y-104800500D02*
X165698100Y-104800500D01*
X163588700Y-107403800D02*
X163639600Y-107454700D01*
X163588700Y-104800500D02*
X163588700Y-107403800D01*
D21*
X163492399Y-104896801D02*
X163588700Y-104800500D01*
X161505900Y-104896801D02*
X163492399Y-104896801D01*
X163150000Y-100025200D02*
X162712500Y-100025200D01*
D22*
X164513710Y-88413710D02*
X163284700Y-87184700D01*
X163588700Y-104800500D02*
X164063700Y-104800500D01*
D21*
X163284700Y-87184700D02*
X159700000Y-83600000D01*
X163360000Y-87260000D02*
X163284700Y-87184700D01*
X168275000Y-104325000D02*
X168275000Y-103850000D01*
X181964000Y-105664000D02*
X169672000Y-105664000D01*
X182025000Y-105725000D02*
X181964000Y-105664000D01*
X182875000Y-105725000D02*
X182025000Y-105725000D01*
X169675000Y-105725000D02*
X169672000Y-105664000D01*
X169672000Y-105664000D02*
X168275000Y-104325000D01*
D22*
X164865710Y-88765710D02*
X164513710Y-88413710D01*
X163715700Y-104861600D02*
X164865710Y-103711590D01*
D21*
X162712500Y-100025200D02*
X164858700Y-100025200D01*
X164858700Y-100025200D02*
X164871400Y-100012500D01*
D22*
X164865710Y-103711590D02*
X164871400Y-100012500D01*
X164871400Y-100012500D02*
X164865710Y-88765710D01*
D21*
X182875000Y-106825000D02*
X172103000Y-106825000D01*
X172103000Y-106825000D02*
X171792900Y-106514900D01*
X169400000Y-99265000D02*
X168600000Y-99265000D01*
X169975000Y-98690000D02*
X169400000Y-99265000D01*
X169975000Y-96735900D02*
X169975000Y-98690000D01*
X169975000Y-96735900D02*
X169975000Y-95836000D01*
X168520000Y-77725000D02*
X169269999Y-78474999D01*
X169269999Y-78474999D02*
X170231001Y-78474999D01*
X171000000Y-79886002D02*
X172213998Y-81100000D01*
X171000000Y-79243998D02*
X171000000Y-79886002D01*
X172200000Y-81100000D02*
X172213998Y-82686002D01*
X172213998Y-81100000D02*
X172200000Y-81100000D01*
X170231001Y-78474999D02*
X171000000Y-79243998D01*
X172186600Y-93624400D02*
X172200000Y-81100000D01*
X169975000Y-95836000D02*
X172186600Y-93624400D01*
X154959199Y-104246799D02*
X154952700Y-104240300D01*
X157416500Y-104246799D02*
X154959199Y-104246799D01*
X157416500Y-103118201D02*
X156788599Y-102490300D01*
X155427700Y-102490300D02*
X154952700Y-102490300D01*
X156788599Y-102490300D02*
X155427700Y-102490300D01*
X157416500Y-103596801D02*
X157416500Y-103118201D01*
X183800001Y-103449999D02*
X183725000Y-103525000D01*
X183800001Y-100114999D02*
X183800001Y-103449999D01*
X183725000Y-103525000D02*
X182875000Y-103525000D01*
X181025001Y-79738999D02*
X182684999Y-81398997D01*
X181025001Y-79108999D02*
X181025001Y-79738999D01*
X180391001Y-78474999D02*
X181025001Y-79108999D01*
X182684999Y-98999997D02*
X183800001Y-100114999D01*
X179429999Y-78474999D02*
X180391001Y-78474999D01*
X182684999Y-81398997D02*
X182684999Y-98999997D01*
X178680000Y-77725000D02*
X179429999Y-78474999D01*
X189034999Y-79498997D02*
X189034999Y-80141001D01*
X187764999Y-78228997D02*
X189034999Y-79498997D01*
X178485001Y-74749999D02*
X185506699Y-74749999D01*
X189034999Y-80141001D02*
X190304999Y-81411001D01*
X185506699Y-74749999D02*
X186494999Y-75738299D01*
X177410000Y-75825000D02*
X178485001Y-74749999D01*
X187764999Y-77611001D02*
X187764999Y-78228997D01*
X186494999Y-75738299D02*
X186494999Y-76341001D01*
X186494999Y-76341001D02*
X187764999Y-77611001D01*
X199250001Y-112785001D02*
X199250001Y-105993901D01*
X199185001Y-112850001D02*
X199250001Y-112785001D01*
X194850001Y-112850001D02*
X199185001Y-112850001D01*
X193375000Y-112025000D02*
X194025000Y-112025000D01*
X194025000Y-112025000D02*
X194850001Y-112850001D01*
X199250001Y-105993901D02*
X190284100Y-97028000D01*
X190284100Y-97028000D02*
X190284100Y-94983300D01*
X190304999Y-81411001D02*
X190284100Y-94983300D01*
X190284100Y-94983300D02*
X190304999Y-95207399D01*
X174870000Y-76885660D02*
X174870000Y-75825000D01*
X174870000Y-78046002D02*
X174870000Y-76885660D01*
X175945001Y-79121003D02*
X174870000Y-78046002D01*
X175064999Y-82041001D02*
X175064999Y-81030501D01*
X175064999Y-81030501D02*
X175958500Y-80137000D01*
X176600000Y-101805000D02*
X176925010Y-101479990D01*
X175623999Y-82600001D02*
X175064999Y-82041001D01*
X175958500Y-80137000D02*
X175945001Y-79121003D01*
X175800000Y-101805000D02*
X176600000Y-101805000D01*
X175945001Y-80141001D02*
X175958500Y-80137000D01*
X175623999Y-82647299D02*
X176834800Y-83858100D01*
X175623999Y-82600001D02*
X175623999Y-82647299D01*
X176925010Y-101479990D02*
X177031010Y-101479990D01*
X177031010Y-101479990D02*
X177431700Y-101079300D01*
X177431700Y-101079300D02*
X177431700Y-94615000D01*
X176834800Y-94018100D02*
X176834800Y-83858100D01*
X177431700Y-94615000D02*
X176834800Y-94018100D01*
X161137500Y-100025200D02*
X159601000Y-100025200D01*
X153908399Y-105546799D02*
X157416500Y-105546799D01*
X153543000Y-105181400D02*
X153908399Y-105546799D01*
X159601000Y-100025200D02*
X159269994Y-100025200D01*
X156897300Y-99225190D02*
X153543000Y-102579490D01*
X159269994Y-100025200D02*
X158469984Y-99225190D01*
X158469984Y-99225190D02*
X156897300Y-99225190D01*
X153543000Y-102579490D02*
X153543000Y-105181400D01*
X158428500Y-104896801D02*
X157416500Y-104896801D01*
X160493900Y-104246799D02*
X159843898Y-104896801D01*
X161505900Y-104246799D02*
X160493900Y-104246799D01*
D22*
X159143800Y-107688400D02*
X159143800Y-107213400D01*
X150500000Y-106000000D02*
X151500000Y-106000000D01*
D21*
X159843898Y-104896801D02*
X159143700Y-104902000D01*
X159143700Y-104902000D02*
X158428500Y-104896801D01*
D22*
X152532700Y-106000000D02*
X154800300Y-108267600D01*
X150500000Y-106000000D02*
X152532700Y-106000000D01*
X158681273Y-108118027D02*
X159166800Y-107632500D01*
X155790210Y-108782510D02*
X158016790Y-108782510D01*
X155275300Y-108267600D02*
X155790210Y-108782510D01*
X158016790Y-108782510D02*
X158681273Y-108118027D01*
X154800300Y-108267600D02*
X155275300Y-108267600D01*
X159143700Y-106909400D02*
X159143700Y-104902000D01*
X159166800Y-106932500D02*
X159143700Y-106909400D01*
X159166800Y-107632500D02*
X159166800Y-106932500D01*
D21*
X161505900Y-106896000D02*
X162064600Y-107454700D01*
X161505900Y-105546799D02*
X161505900Y-106896000D01*
D23*
G36*
X145554188Y-74950518D02*
G01*
X145541928Y-75075000D01*
X145545000Y-75539250D01*
X145703750Y-75698000D01*
X146803000Y-75698000D01*
X146803000Y-75678000D01*
X147057000Y-75678000D01*
X147057000Y-75698000D01*
X147077000Y-75698000D01*
X147077000Y-75952000D01*
X147057000Y-75952000D01*
X147057000Y-75972000D01*
X146803000Y-75972000D01*
X146803000Y-75952000D01*
X145703750Y-75952000D01*
X145545000Y-76110750D01*
X145541928Y-76575000D01*
X145554188Y-76699482D01*
X145590498Y-76819180D01*
X145649463Y-76929494D01*
X145728815Y-77026185D01*
X145825506Y-77105537D01*
X145935820Y-77164502D01*
X146055518Y-77200812D01*
X146180000Y-77213072D01*
X146644250Y-77210000D01*
X146802998Y-77051252D01*
X146802998Y-77210000D01*
X146911758Y-77210000D01*
X146888240Y-77260116D01*
X146822750Y-77524960D01*
X146810188Y-77797492D01*
X146851035Y-78067238D01*
X146913441Y-78240000D01*
X146793589Y-78240000D01*
X146526011Y-78293225D01*
X146273957Y-78397629D01*
X146047114Y-78549201D01*
X145854201Y-78742114D01*
X145702629Y-78968957D01*
X145598225Y-79221011D01*
X145545000Y-79488589D01*
X145545000Y-79761411D01*
X145598225Y-80028989D01*
X145702629Y-80281043D01*
X145854201Y-80507886D01*
X146047114Y-80700799D01*
X146273957Y-80852371D01*
X146526011Y-80956775D01*
X146793589Y-81010000D01*
X146914207Y-81010000D01*
X146868225Y-81121011D01*
X146815000Y-81388589D01*
X146815000Y-81661411D01*
X146868225Y-81928989D01*
X146972629Y-82181043D01*
X147124201Y-82407886D01*
X147317114Y-82600799D01*
X147543957Y-82752371D01*
X147796011Y-82856775D01*
X148063589Y-82910000D01*
X148336411Y-82910000D01*
X148603989Y-82856775D01*
X148856043Y-82752371D01*
X149082886Y-82600799D01*
X149275799Y-82407886D01*
X149427371Y-82181043D01*
X149470000Y-82078127D01*
X149512629Y-82181043D01*
X149664201Y-82407886D01*
X149857114Y-82600799D01*
X150083957Y-82752371D01*
X150336011Y-82856775D01*
X150603589Y-82910000D01*
X150876411Y-82910000D01*
X151143989Y-82856775D01*
X151396043Y-82752371D01*
X151622886Y-82600799D01*
X151815799Y-82407886D01*
X151967371Y-82181043D01*
X152010000Y-82078127D01*
X152052629Y-82181043D01*
X152204201Y-82407886D01*
X152397114Y-82600799D01*
X152623957Y-82752371D01*
X152876011Y-82856775D01*
X153143589Y-82910000D01*
X153416411Y-82910000D01*
X153683989Y-82856775D01*
X153936043Y-82752371D01*
X154162886Y-82600799D01*
X154355799Y-82407886D01*
X154507371Y-82181043D01*
X154550000Y-82078127D01*
X154592629Y-82181043D01*
X154744201Y-82407886D01*
X154937114Y-82600799D01*
X155163957Y-82752371D01*
X155416011Y-82856775D01*
X155683589Y-82910000D01*
X155956411Y-82910000D01*
X156223989Y-82856775D01*
X156476043Y-82752371D01*
X156702886Y-82600799D01*
X156895799Y-82407886D01*
X157047371Y-82181043D01*
X157090000Y-82078127D01*
X157132629Y-82181043D01*
X157284201Y-82407886D01*
X157477114Y-82600799D01*
X157703957Y-82752371D01*
X157956011Y-82856775D01*
X158223589Y-82910000D01*
X158496411Y-82910000D01*
X158763989Y-82856775D01*
X158940001Y-82783869D01*
X158940001Y-83562668D01*
X158936324Y-83600000D01*
X158940001Y-83637333D01*
X158950998Y-83748986D01*
X158964180Y-83792442D01*
X158994454Y-83892246D01*
X159065026Y-84024276D01*
X159112009Y-84081524D01*
X159160000Y-84140001D01*
X159188998Y-84163799D01*
X162425184Y-87399986D01*
X162463112Y-87525013D01*
X162545290Y-87678759D01*
X162628168Y-87779746D01*
X163918663Y-89070242D01*
X163918669Y-89070247D01*
X163980896Y-89132474D01*
X163986023Y-99265200D01*
X163620918Y-99265200D01*
X163537115Y-99163085D01*
X163407275Y-99056529D01*
X163259142Y-98977350D01*
X163098408Y-98928592D01*
X162931250Y-98912128D01*
X162493750Y-98912128D01*
X162326592Y-98928592D01*
X162165858Y-98977350D01*
X162017725Y-99056529D01*
X161925000Y-99132626D01*
X161832275Y-99056529D01*
X161684142Y-98977350D01*
X161523408Y-98928592D01*
X161356250Y-98912128D01*
X160918750Y-98912128D01*
X160751592Y-98928592D01*
X160590858Y-98977350D01*
X160442725Y-99056529D01*
X160369250Y-99116828D01*
X160295775Y-99056529D01*
X160147642Y-98977350D01*
X159986908Y-98928592D01*
X159819750Y-98912128D01*
X159382250Y-98912128D01*
X159245220Y-98925625D01*
X159033787Y-98714192D01*
X159009985Y-98685189D01*
X158894260Y-98590216D01*
X158762231Y-98519644D01*
X158618970Y-98476187D01*
X158507317Y-98465190D01*
X158507306Y-98465190D01*
X158469984Y-98461514D01*
X158432662Y-98465190D01*
X156934633Y-98465190D01*
X156897300Y-98461513D01*
X156859967Y-98465190D01*
X156748314Y-98476187D01*
X156605053Y-98519644D01*
X156473024Y-98590216D01*
X156357299Y-98685189D01*
X156333501Y-98714187D01*
X153032003Y-102015686D01*
X153002999Y-102039489D01*
X152947871Y-102106664D01*
X152908026Y-102155214D01*
X152868439Y-102229276D01*
X152837454Y-102287244D01*
X152793997Y-102430505D01*
X152783000Y-102542158D01*
X152783000Y-102542168D01*
X152779324Y-102579490D01*
X152783000Y-102616813D01*
X152783001Y-105144068D01*
X152782328Y-105150902D01*
X152706190Y-105127805D01*
X152576177Y-105115000D01*
X152576169Y-105115000D01*
X152532700Y-105110719D01*
X152489231Y-105115000D01*
X152087110Y-105115000D01*
X152070472Y-105060150D01*
X151988405Y-104906614D01*
X151877962Y-104772038D01*
X151743386Y-104661595D01*
X151641407Y-104607086D01*
X151641795Y-104606802D01*
X151838664Y-104392046D01*
X151989854Y-104143009D01*
X152089554Y-103869261D01*
X152091476Y-103856890D01*
X151970155Y-103627000D01*
X150627000Y-103627000D01*
X150627000Y-103647000D01*
X150373000Y-103647000D01*
X150373000Y-103627000D01*
X149029845Y-103627000D01*
X148908524Y-103856890D01*
X148910446Y-103869261D01*
X149010146Y-104143009D01*
X149161336Y-104392046D01*
X149358205Y-104606802D01*
X149358593Y-104607086D01*
X149256614Y-104661595D01*
X149122038Y-104772038D01*
X149011595Y-104906614D01*
X148929528Y-105060150D01*
X148878992Y-105226746D01*
X148861928Y-105400000D01*
X148861928Y-106600000D01*
X148878992Y-106773254D01*
X148929528Y-106939850D01*
X149011595Y-107093386D01*
X149122038Y-107227962D01*
X149256614Y-107338405D01*
X149410150Y-107420472D01*
X149576746Y-107471008D01*
X149750000Y-107488072D01*
X151250000Y-107488072D01*
X151423254Y-107471008D01*
X151589850Y-107420472D01*
X151743386Y-107338405D01*
X151877962Y-107227962D01*
X151988405Y-107093386D01*
X152070472Y-106939850D01*
X152087110Y-106885000D01*
X152166122Y-106885000D01*
X153687228Y-108406107D01*
X153687228Y-108486350D01*
X153703692Y-108653508D01*
X153752450Y-108814242D01*
X153831629Y-108962375D01*
X153938185Y-109092215D01*
X154068025Y-109198771D01*
X154216158Y-109277950D01*
X154376892Y-109326708D01*
X154544050Y-109343172D01*
X155056550Y-109343172D01*
X155095461Y-109339339D01*
X155133676Y-109377554D01*
X155161393Y-109411327D01*
X155296151Y-109521921D01*
X155449897Y-109604099D01*
X155616720Y-109654705D01*
X155746733Y-109667510D01*
X155746741Y-109667510D01*
X155790210Y-109671791D01*
X155833679Y-109667510D01*
X157973321Y-109667510D01*
X158016790Y-109671791D01*
X158060259Y-109667510D01*
X158060267Y-109667510D01*
X158190280Y-109654705D01*
X158357103Y-109604099D01*
X158510849Y-109521921D01*
X158645607Y-109411327D01*
X158673324Y-109377554D01*
X159080307Y-108970572D01*
X159410550Y-108970572D01*
X159582585Y-108953628D01*
X159748009Y-108903447D01*
X159900464Y-108821958D01*
X160034092Y-108712292D01*
X160143758Y-108578664D01*
X160225247Y-108426209D01*
X160275428Y-108260785D01*
X160292372Y-108088750D01*
X160292372Y-107176250D01*
X160275428Y-107004215D01*
X160225247Y-106838791D01*
X160143758Y-106686336D01*
X160034092Y-106552708D01*
X160028700Y-106548283D01*
X160028700Y-105635252D01*
X160067226Y-105623252D01*
X160105828Y-105611543D01*
X160105828Y-105775399D01*
X160118088Y-105899881D01*
X160154398Y-106019579D01*
X160213363Y-106129893D01*
X160292715Y-106226584D01*
X160389406Y-106305936D01*
X160499720Y-106364901D01*
X160619418Y-106401211D01*
X160743900Y-106413471D01*
X160745901Y-106413471D01*
X160745901Y-106858668D01*
X160742224Y-106896000D01*
X160745901Y-106933333D01*
X160756898Y-107044986D01*
X160762510Y-107063487D01*
X160800354Y-107188246D01*
X160870926Y-107320276D01*
X160939193Y-107403459D01*
X160965900Y-107436001D01*
X160989028Y-107454982D01*
X160989028Y-107710950D01*
X161005492Y-107878108D01*
X161054250Y-108038842D01*
X161133429Y-108186975D01*
X161239985Y-108316815D01*
X161369825Y-108423371D01*
X161517958Y-108502550D01*
X161678692Y-108551308D01*
X161845850Y-108567772D01*
X162283350Y-108567772D01*
X162450508Y-108551308D01*
X162611242Y-108502550D01*
X162759375Y-108423371D01*
X162852100Y-108347274D01*
X162944825Y-108423371D01*
X163092958Y-108502550D01*
X163253692Y-108551308D01*
X163420850Y-108567772D01*
X163858350Y-108567772D01*
X164025508Y-108551308D01*
X164186242Y-108502550D01*
X164334375Y-108423371D01*
X164464215Y-108316815D01*
X164570771Y-108186975D01*
X164649950Y-108038842D01*
X164698708Y-107878108D01*
X164715172Y-107710950D01*
X164715172Y-107198450D01*
X164698708Y-107031292D01*
X164649950Y-106870558D01*
X164570771Y-106722425D01*
X164473700Y-106604143D01*
X164473700Y-105930879D01*
X164509409Y-105920047D01*
X164661864Y-105838558D01*
X164795492Y-105728892D01*
X164831103Y-105685500D01*
X165475900Y-105685500D01*
X165475900Y-105702202D01*
X165634648Y-105702202D01*
X165475900Y-105860950D01*
X165472828Y-106012700D01*
X165485088Y-106137182D01*
X165521398Y-106256880D01*
X165580363Y-106367194D01*
X165659715Y-106463885D01*
X165756406Y-106543237D01*
X165866720Y-106602202D01*
X165986418Y-106638512D01*
X166110900Y-106650772D01*
X166300150Y-106647700D01*
X166458900Y-106488950D01*
X166458900Y-105702200D01*
X166712900Y-105702200D01*
X166712900Y-106488950D01*
X166871650Y-106647700D01*
X167060900Y-106650772D01*
X167185382Y-106638512D01*
X167305080Y-106602202D01*
X167415394Y-106543237D01*
X167512085Y-106463885D01*
X167591437Y-106367194D01*
X167650402Y-106256880D01*
X167686712Y-106137182D01*
X167698972Y-106012700D01*
X167695900Y-105860950D01*
X167537150Y-105702200D01*
X166712900Y-105702200D01*
X166458900Y-105702200D01*
X166438900Y-105702200D01*
X166438900Y-105448200D01*
X166458900Y-105448200D01*
X166458900Y-105428200D01*
X166712900Y-105428200D01*
X166712900Y-105448200D01*
X167537150Y-105448200D01*
X167695900Y-105289450D01*
X167698972Y-105137700D01*
X167686712Y-105013218D01*
X167650402Y-104893520D01*
X167591437Y-104783206D01*
X167536800Y-104716630D01*
X167539450Y-104713400D01*
X167667725Y-104818671D01*
X167719836Y-104846525D01*
X167734999Y-104865001D01*
X167770238Y-104893921D01*
X168993644Y-106066535D01*
X169061634Y-106179954D01*
X169162177Y-106290874D01*
X169282427Y-106380048D01*
X169417763Y-106444050D01*
X169562986Y-106480417D01*
X169712512Y-106487755D01*
X169860597Y-106465780D01*
X169977348Y-106424000D01*
X170757900Y-106424000D01*
X170757900Y-106616839D01*
X170797674Y-106816798D01*
X170875695Y-107005156D01*
X170988963Y-107174674D01*
X171133126Y-107318837D01*
X171302644Y-107432105D01*
X171491002Y-107510126D01*
X171690961Y-107549900D01*
X171874556Y-107549900D01*
X171954014Y-107574003D01*
X172027949Y-107581285D01*
X172103000Y-107588677D01*
X172140333Y-107585000D01*
X177209500Y-107585000D01*
X177209500Y-107721739D01*
X177249274Y-107921698D01*
X177327295Y-108110056D01*
X177440563Y-108279574D01*
X177584726Y-108423737D01*
X177754244Y-108537005D01*
X177942602Y-108615026D01*
X178142561Y-108654800D01*
X178204699Y-108654800D01*
X179085901Y-109536003D01*
X179109699Y-109565001D01*
X179138697Y-109588799D01*
X179225423Y-109659974D01*
X179355485Y-109729494D01*
X179357453Y-109730546D01*
X179500714Y-109774003D01*
X179612367Y-109785000D01*
X179612377Y-109785000D01*
X179649700Y-109788676D01*
X179687023Y-109785000D01*
X181636928Y-109785000D01*
X181636928Y-110475000D01*
X181649188Y-110599482D01*
X181649345Y-110600000D01*
X181649188Y-110600518D01*
X181636928Y-110725000D01*
X181636928Y-111425000D01*
X181649188Y-111549482D01*
X181685498Y-111669180D01*
X181744463Y-111779494D01*
X181823815Y-111876185D01*
X181920506Y-111955537D01*
X182030820Y-112014502D01*
X182150518Y-112050812D01*
X182275000Y-112063072D01*
X183475000Y-112063072D01*
X183599482Y-112050812D01*
X183719180Y-112014502D01*
X183829494Y-111955537D01*
X183926185Y-111876185D01*
X184005537Y-111779494D01*
X184064502Y-111669180D01*
X184100812Y-111549482D01*
X184103223Y-111525000D01*
X185936928Y-111525000D01*
X185940000Y-111739250D01*
X186098750Y-111898000D01*
X187048000Y-111898000D01*
X187048000Y-111048750D01*
X187302000Y-111048750D01*
X187302000Y-111898000D01*
X188251250Y-111898000D01*
X188410000Y-111739250D01*
X188413072Y-111525000D01*
X188400812Y-111400518D01*
X188364502Y-111280820D01*
X188305537Y-111170506D01*
X188226185Y-111073815D01*
X188129494Y-110994463D01*
X188019180Y-110935498D01*
X187899482Y-110899188D01*
X187775000Y-110886928D01*
X187460750Y-110890000D01*
X187302000Y-111048750D01*
X187048000Y-111048750D01*
X186889250Y-110890000D01*
X186575000Y-110886928D01*
X186450518Y-110899188D01*
X186330820Y-110935498D01*
X186220506Y-110994463D01*
X186123815Y-111073815D01*
X186044463Y-111170506D01*
X185985498Y-111280820D01*
X185949188Y-111400518D01*
X185936928Y-111525000D01*
X184103223Y-111525000D01*
X184113072Y-111425000D01*
X184113072Y-110725000D01*
X184100812Y-110600518D01*
X184100655Y-110600000D01*
X184100812Y-110599482D01*
X184113072Y-110475000D01*
X184113072Y-109775000D01*
X184100812Y-109650518D01*
X184077904Y-109575000D01*
X184100812Y-109499482D01*
X184113072Y-109375000D01*
X184113072Y-108675000D01*
X184100812Y-108550518D01*
X184077904Y-108475000D01*
X184100812Y-108399482D01*
X184113072Y-108275000D01*
X184110000Y-108210750D01*
X183951250Y-108052000D01*
X183608752Y-108052000D01*
X183599482Y-108049188D01*
X183475000Y-108036928D01*
X182275000Y-108036928D01*
X182150518Y-108049188D01*
X182141248Y-108052000D01*
X181798750Y-108052000D01*
X181640000Y-108210750D01*
X181637406Y-108265000D01*
X179964502Y-108265000D01*
X179284501Y-107585000D01*
X181637406Y-107585000D01*
X181640000Y-107639250D01*
X181798750Y-107798000D01*
X182141248Y-107798000D01*
X182150518Y-107800812D01*
X182275000Y-107813072D01*
X183475000Y-107813072D01*
X183599482Y-107800812D01*
X183608752Y-107798000D01*
X183951250Y-107798000D01*
X184110000Y-107639250D01*
X184113072Y-107575000D01*
X184100812Y-107450518D01*
X184077904Y-107375000D01*
X184100812Y-107299482D01*
X184113072Y-107175000D01*
X184113072Y-106475000D01*
X184100812Y-106350518D01*
X184077904Y-106275000D01*
X184100812Y-106199482D01*
X184113072Y-106075000D01*
X184113072Y-105375000D01*
X184100812Y-105250518D01*
X184077904Y-105175000D01*
X184100812Y-105099482D01*
X184113072Y-104975000D01*
X184113072Y-104275000D01*
X184104120Y-104184110D01*
X184149276Y-104159974D01*
X184265001Y-104065001D01*
X184288802Y-104036000D01*
X184311002Y-104013800D01*
X184340002Y-103990000D01*
X184434975Y-103874275D01*
X184505547Y-103742246D01*
X184549004Y-103598985D01*
X184560001Y-103487332D01*
X184560001Y-103487322D01*
X184563677Y-103450000D01*
X184560001Y-103412677D01*
X184560001Y-100152322D01*
X184563677Y-100114999D01*
X184560001Y-100077676D01*
X184560001Y-100077666D01*
X184549004Y-99966013D01*
X184505547Y-99822752D01*
X184474780Y-99765191D01*
X184434975Y-99690722D01*
X184363800Y-99603996D01*
X184340002Y-99574998D01*
X184311005Y-99551201D01*
X183444999Y-98685196D01*
X183444999Y-82874476D01*
X183623589Y-82910000D01*
X183896411Y-82910000D01*
X184163989Y-82856775D01*
X184416043Y-82752371D01*
X184642886Y-82600799D01*
X184835799Y-82407886D01*
X184987371Y-82181043D01*
X185030000Y-82078127D01*
X185072629Y-82181043D01*
X185224201Y-82407886D01*
X185417114Y-82600799D01*
X185643957Y-82752371D01*
X185896011Y-82856775D01*
X186163589Y-82910000D01*
X186436411Y-82910000D01*
X186703989Y-82856775D01*
X186956043Y-82752371D01*
X187182886Y-82600799D01*
X187375799Y-82407886D01*
X187527371Y-82181043D01*
X187570000Y-82078127D01*
X187612629Y-82181043D01*
X187764201Y-82407886D01*
X187957114Y-82600799D01*
X188183957Y-82752371D01*
X188436011Y-82856775D01*
X188703589Y-82910000D01*
X188976411Y-82910000D01*
X189243989Y-82856775D01*
X189496043Y-82752371D01*
X189542982Y-82721008D01*
X189524158Y-94945388D01*
X189524101Y-94945967D01*
X189524101Y-94981232D01*
X189523917Y-95016698D01*
X189524046Y-95018083D01*
X189524044Y-95019462D01*
X189524101Y-95020050D01*
X189524100Y-96990677D01*
X189520424Y-97028000D01*
X189524100Y-97065322D01*
X189524100Y-97065332D01*
X189535097Y-97176985D01*
X189569214Y-97289454D01*
X189578554Y-97320246D01*
X189649126Y-97452276D01*
X189675903Y-97484903D01*
X189744099Y-97568001D01*
X189773103Y-97591804D01*
X198490002Y-106308704D01*
X198490001Y-110888127D01*
X197810750Y-110890000D01*
X197652000Y-111048750D01*
X197652000Y-111898000D01*
X197672000Y-111898000D01*
X197672000Y-112090001D01*
X195164803Y-112090001D01*
X194599802Y-111525000D01*
X195486928Y-111525000D01*
X195490000Y-111739250D01*
X195648750Y-111898000D01*
X197398000Y-111898000D01*
X197398000Y-111048750D01*
X197239250Y-110890000D01*
X196125000Y-110886928D01*
X196000518Y-110899188D01*
X195880820Y-110935498D01*
X195770506Y-110994463D01*
X195673815Y-111073815D01*
X195594463Y-111170506D01*
X195535498Y-111280820D01*
X195499188Y-111400518D01*
X195486928Y-111525000D01*
X194599802Y-111525000D01*
X194588803Y-111514002D01*
X194565001Y-111484999D01*
X194449276Y-111390026D01*
X194387634Y-111357077D01*
X194364502Y-111280820D01*
X194305537Y-111170506D01*
X194226185Y-111073815D01*
X194129494Y-110994463D01*
X194019180Y-110935498D01*
X193899482Y-110899188D01*
X193775000Y-110886928D01*
X192975000Y-110886928D01*
X192850518Y-110899188D01*
X192730820Y-110935498D01*
X192620506Y-110994463D01*
X192523815Y-111073815D01*
X192444463Y-111170506D01*
X192385498Y-111280820D01*
X192349188Y-111400518D01*
X192336928Y-111525000D01*
X192336928Y-112525000D01*
X192349188Y-112649482D01*
X192385498Y-112769180D01*
X192423353Y-112840000D01*
X188326647Y-112840000D01*
X188364502Y-112769180D01*
X188400812Y-112649482D01*
X188413072Y-112525000D01*
X188410000Y-112310750D01*
X188251250Y-112152000D01*
X187302000Y-112152000D01*
X187302000Y-112172000D01*
X187048000Y-112172000D01*
X187048000Y-112152000D01*
X186098750Y-112152000D01*
X185940000Y-112310750D01*
X185936928Y-112525000D01*
X185949188Y-112649482D01*
X185985498Y-112769180D01*
X186023353Y-112840000D01*
X143460000Y-112840000D01*
X143460000Y-103143110D01*
X148908524Y-103143110D01*
X149029845Y-103373000D01*
X150373000Y-103373000D01*
X150373000Y-102172768D01*
X150627000Y-102172768D01*
X150627000Y-103373000D01*
X151970155Y-103373000D01*
X152091476Y-103143110D01*
X152089554Y-103130739D01*
X151989854Y-102856991D01*
X151838664Y-102607954D01*
X151641795Y-102393198D01*
X151406812Y-102220975D01*
X151142745Y-102097904D01*
X150859742Y-102028715D01*
X150627000Y-102172768D01*
X150373000Y-102172768D01*
X150140258Y-102028715D01*
X149857255Y-102097904D01*
X149593188Y-102220975D01*
X149358205Y-102393198D01*
X149161336Y-102607954D01*
X149010146Y-102856991D01*
X148910446Y-103130739D01*
X148908524Y-103143110D01*
X143460000Y-103143110D01*
X143460000Y-74860000D01*
X145581646Y-74860000D01*
X145554188Y-74950518D01*
G37*
X145554188Y-74950518D02*
X145541928Y-75075000D01*
X145545000Y-75539250D01*
X145703750Y-75698000D01*
X146803000Y-75698000D01*
X146803000Y-75678000D01*
X147057000Y-75678000D01*
X147057000Y-75698000D01*
X147077000Y-75698000D01*
X147077000Y-75952000D01*
X147057000Y-75952000D01*
X147057000Y-75972000D01*
X146803000Y-75972000D01*
X146803000Y-75952000D01*
X145703750Y-75952000D01*
X145545000Y-76110750D01*
X145541928Y-76575000D01*
X145554188Y-76699482D01*
X145590498Y-76819180D01*
X145649463Y-76929494D01*
X145728815Y-77026185D01*
X145825506Y-77105537D01*
X145935820Y-77164502D01*
X146055518Y-77200812D01*
X146180000Y-77213072D01*
X146644250Y-77210000D01*
X146802998Y-77051252D01*
X146802998Y-77210000D01*
X146911758Y-77210000D01*
X146888240Y-77260116D01*
X146822750Y-77524960D01*
X146810188Y-77797492D01*
X146851035Y-78067238D01*
X146913441Y-78240000D01*
X146793589Y-78240000D01*
X146526011Y-78293225D01*
X146273957Y-78397629D01*
X146047114Y-78549201D01*
X145854201Y-78742114D01*
X145702629Y-78968957D01*
X145598225Y-79221011D01*
X145545000Y-79488589D01*
X145545000Y-79761411D01*
X145598225Y-80028989D01*
X145702629Y-80281043D01*
X145854201Y-80507886D01*
X146047114Y-80700799D01*
X146273957Y-80852371D01*
X146526011Y-80956775D01*
X146793589Y-81010000D01*
X146914207Y-81010000D01*
X146868225Y-81121011D01*
X146815000Y-81388589D01*
X146815000Y-81661411D01*
X146868225Y-81928989D01*
X146972629Y-82181043D01*
X147124201Y-82407886D01*
X147317114Y-82600799D01*
X147543957Y-82752371D01*
X147796011Y-82856775D01*
X148063589Y-82910000D01*
X148336411Y-82910000D01*
X148603989Y-82856775D01*
X148856043Y-82752371D01*
X149082886Y-82600799D01*
X149275799Y-82407886D01*
X149427371Y-82181043D01*
X149470000Y-82078127D01*
X149512629Y-82181043D01*
X149664201Y-82407886D01*
X149857114Y-82600799D01*
X150083957Y-82752371D01*
X150336011Y-82856775D01*
X150603589Y-82910000D01*
X150876411Y-82910000D01*
X151143989Y-82856775D01*
X151396043Y-82752371D01*
X151622886Y-82600799D01*
X151815799Y-82407886D01*
X151967371Y-82181043D01*
X152010000Y-82078127D01*
X152052629Y-82181043D01*
X152204201Y-82407886D01*
X152397114Y-82600799D01*
X152623957Y-82752371D01*
X152876011Y-82856775D01*
X153143589Y-82910000D01*
X153416411Y-82910000D01*
X153683989Y-82856775D01*
X153936043Y-82752371D01*
X154162886Y-82600799D01*
X154355799Y-82407886D01*
X154507371Y-82181043D01*
X154550000Y-82078127D01*
X154592629Y-82181043D01*
X154744201Y-82407886D01*
X154937114Y-82600799D01*
X155163957Y-82752371D01*
X155416011Y-82856775D01*
X155683589Y-82910000D01*
X155956411Y-82910000D01*
X156223989Y-82856775D01*
X156476043Y-82752371D01*
X156702886Y-82600799D01*
X156895799Y-82407886D01*
X157047371Y-82181043D01*
X157090000Y-82078127D01*
X157132629Y-82181043D01*
X157284201Y-82407886D01*
X157477114Y-82600799D01*
X157703957Y-82752371D01*
X157956011Y-82856775D01*
X158223589Y-82910000D01*
X158496411Y-82910000D01*
X158763989Y-82856775D01*
X158940001Y-82783869D01*
X158940001Y-83562668D01*
X158936324Y-83600000D01*
X158940001Y-83637333D01*
X158950998Y-83748986D01*
X158964180Y-83792442D01*
X158994454Y-83892246D01*
X159065026Y-84024276D01*
X159112009Y-84081524D01*
X159160000Y-84140001D01*
X159188998Y-84163799D01*
X162425184Y-87399986D01*
X162463112Y-87525013D01*
X162545290Y-87678759D01*
X162628168Y-87779746D01*
X163918663Y-89070242D01*
X163918669Y-89070247D01*
X163980896Y-89132474D01*
X163986023Y-99265200D01*
X163620918Y-99265200D01*
X163537115Y-99163085D01*
X163407275Y-99056529D01*
X163259142Y-98977350D01*
X163098408Y-98928592D01*
X162931250Y-98912128D01*
X162493750Y-98912128D01*
X162326592Y-98928592D01*
X162165858Y-98977350D01*
X162017725Y-99056529D01*
X161925000Y-99132626D01*
X161832275Y-99056529D01*
X161684142Y-98977350D01*
X161523408Y-98928592D01*
X161356250Y-98912128D01*
X160918750Y-98912128D01*
X160751592Y-98928592D01*
X160590858Y-98977350D01*
X160442725Y-99056529D01*
X160369250Y-99116828D01*
X160295775Y-99056529D01*
X160147642Y-98977350D01*
X159986908Y-98928592D01*
X159819750Y-98912128D01*
X159382250Y-98912128D01*
X159245220Y-98925625D01*
X159033787Y-98714192D01*
X159009985Y-98685189D01*
X158894260Y-98590216D01*
X158762231Y-98519644D01*
X158618970Y-98476187D01*
X158507317Y-98465190D01*
X158507306Y-98465190D01*
X158469984Y-98461514D01*
X158432662Y-98465190D01*
X156934633Y-98465190D01*
X156897300Y-98461513D01*
X156859967Y-98465190D01*
X156748314Y-98476187D01*
X156605053Y-98519644D01*
X156473024Y-98590216D01*
X156357299Y-98685189D01*
X156333501Y-98714187D01*
X153032003Y-102015686D01*
X153002999Y-102039489D01*
X152947871Y-102106664D01*
X152908026Y-102155214D01*
X152868439Y-102229276D01*
X152837454Y-102287244D01*
X152793997Y-102430505D01*
X152783000Y-102542158D01*
X152783000Y-102542168D01*
X152779324Y-102579490D01*
X152783000Y-102616813D01*
X152783001Y-105144068D01*
X152782328Y-105150902D01*
X152706190Y-105127805D01*
X152576177Y-105115000D01*
X152576169Y-105115000D01*
X152532700Y-105110719D01*
X152489231Y-105115000D01*
X152087110Y-105115000D01*
X152070472Y-105060150D01*
X151988405Y-104906614D01*
X151877962Y-104772038D01*
X151743386Y-104661595D01*
X151641407Y-104607086D01*
X151641795Y-104606802D01*
X151838664Y-104392046D01*
X151989854Y-104143009D01*
X152089554Y-103869261D01*
X152091476Y-103856890D01*
X151970155Y-103627000D01*
X150627000Y-103627000D01*
X150627000Y-103647000D01*
X150373000Y-103647000D01*
X150373000Y-103627000D01*
X149029845Y-103627000D01*
X148908524Y-103856890D01*
X148910446Y-103869261D01*
X149010146Y-104143009D01*
X149161336Y-104392046D01*
X149358205Y-104606802D01*
X149358593Y-104607086D01*
X149256614Y-104661595D01*
X149122038Y-104772038D01*
X149011595Y-104906614D01*
X148929528Y-105060150D01*
X148878992Y-105226746D01*
X148861928Y-105400000D01*
X148861928Y-106600000D01*
X148878992Y-106773254D01*
X148929528Y-106939850D01*
X149011595Y-107093386D01*
X149122038Y-107227962D01*
X149256614Y-107338405D01*
X149410150Y-107420472D01*
X149576746Y-107471008D01*
X149750000Y-107488072D01*
X151250000Y-107488072D01*
X151423254Y-107471008D01*
X151589850Y-107420472D01*
X151743386Y-107338405D01*
X151877962Y-107227962D01*
X151988405Y-107093386D01*
X152070472Y-106939850D01*
X152087110Y-106885000D01*
X152166122Y-106885000D01*
X153687228Y-108406107D01*
X153687228Y-108486350D01*
X153703692Y-108653508D01*
X153752450Y-108814242D01*
X153831629Y-108962375D01*
X153938185Y-109092215D01*
X154068025Y-109198771D01*
X154216158Y-109277950D01*
X154376892Y-109326708D01*
X154544050Y-109343172D01*
X155056550Y-109343172D01*
X155095461Y-109339339D01*
X155133676Y-109377554D01*
X155161393Y-109411327D01*
X155296151Y-109521921D01*
X155449897Y-109604099D01*
X155616720Y-109654705D01*
X155746733Y-109667510D01*
X155746741Y-109667510D01*
X155790210Y-109671791D01*
X155833679Y-109667510D01*
X157973321Y-109667510D01*
X158016790Y-109671791D01*
X158060259Y-109667510D01*
X158060267Y-109667510D01*
X158190280Y-109654705D01*
X158357103Y-109604099D01*
X158510849Y-109521921D01*
X158645607Y-109411327D01*
X158673324Y-109377554D01*
X159080307Y-108970572D01*
X159410550Y-108970572D01*
X159582585Y-108953628D01*
X159748009Y-108903447D01*
X159900464Y-108821958D01*
X160034092Y-108712292D01*
X160143758Y-108578664D01*
X160225247Y-108426209D01*
X160275428Y-108260785D01*
X160292372Y-108088750D01*
X160292372Y-107176250D01*
X160275428Y-107004215D01*
X160225247Y-106838791D01*
X160143758Y-106686336D01*
X160034092Y-106552708D01*
X160028700Y-106548283D01*
X160028700Y-105635252D01*
X160067226Y-105623252D01*
X160105828Y-105611543D01*
X160105828Y-105775399D01*
X160118088Y-105899881D01*
X160154398Y-106019579D01*
X160213363Y-106129893D01*
X160292715Y-106226584D01*
X160389406Y-106305936D01*
X160499720Y-106364901D01*
X160619418Y-106401211D01*
X160743900Y-106413471D01*
X160745901Y-106413471D01*
X160745901Y-106858668D01*
X160742224Y-106896000D01*
X160745901Y-106933333D01*
X160756898Y-107044986D01*
X160762510Y-107063487D01*
X160800354Y-107188246D01*
X160870926Y-107320276D01*
X160939193Y-107403459D01*
X160965900Y-107436001D01*
X160989028Y-107454982D01*
X160989028Y-107710950D01*
X161005492Y-107878108D01*
X161054250Y-108038842D01*
X161133429Y-108186975D01*
X161239985Y-108316815D01*
X161369825Y-108423371D01*
X161517958Y-108502550D01*
X161678692Y-108551308D01*
X161845850Y-108567772D01*
X162283350Y-108567772D01*
X162450508Y-108551308D01*
X162611242Y-108502550D01*
X162759375Y-108423371D01*
X162852100Y-108347274D01*
X162944825Y-108423371D01*
X163092958Y-108502550D01*
X163253692Y-108551308D01*
X163420850Y-108567772D01*
X163858350Y-108567772D01*
X164025508Y-108551308D01*
X164186242Y-108502550D01*
X164334375Y-108423371D01*
X164464215Y-108316815D01*
X164570771Y-108186975D01*
X164649950Y-108038842D01*
X164698708Y-107878108D01*
X164715172Y-107710950D01*
X164715172Y-107198450D01*
X164698708Y-107031292D01*
X164649950Y-106870558D01*
X164570771Y-106722425D01*
X164473700Y-106604143D01*
X164473700Y-105930879D01*
X164509409Y-105920047D01*
X164661864Y-105838558D01*
X164795492Y-105728892D01*
X164831103Y-105685500D01*
X165475900Y-105685500D01*
X165475900Y-105702202D01*
X165634648Y-105702202D01*
X165475900Y-105860950D01*
X165472828Y-106012700D01*
X165485088Y-106137182D01*
X165521398Y-106256880D01*
X165580363Y-106367194D01*
X165659715Y-106463885D01*
X165756406Y-106543237D01*
X165866720Y-106602202D01*
X165986418Y-106638512D01*
X166110900Y-106650772D01*
X166300150Y-106647700D01*
X166458900Y-106488950D01*
X166458900Y-105702200D01*
X166712900Y-105702200D01*
X166712900Y-106488950D01*
X166871650Y-106647700D01*
X167060900Y-106650772D01*
X167185382Y-106638512D01*
X167305080Y-106602202D01*
X167415394Y-106543237D01*
X167512085Y-106463885D01*
X167591437Y-106367194D01*
X167650402Y-106256880D01*
X167686712Y-106137182D01*
X167698972Y-106012700D01*
X167695900Y-105860950D01*
X167537150Y-105702200D01*
X166712900Y-105702200D01*
X166458900Y-105702200D01*
X166438900Y-105702200D01*
X166438900Y-105448200D01*
X166458900Y-105448200D01*
X166458900Y-105428200D01*
X166712900Y-105428200D01*
X166712900Y-105448200D01*
X167537150Y-105448200D01*
X167695900Y-105289450D01*
X167698972Y-105137700D01*
X167686712Y-105013218D01*
X167650402Y-104893520D01*
X167591437Y-104783206D01*
X167536800Y-104716630D01*
X167539450Y-104713400D01*
X167667725Y-104818671D01*
X167719836Y-104846525D01*
X167734999Y-104865001D01*
X167770238Y-104893921D01*
X168993644Y-106066535D01*
X169061634Y-106179954D01*
X169162177Y-106290874D01*
X169282427Y-106380048D01*
X169417763Y-106444050D01*
X169562986Y-106480417D01*
X169712512Y-106487755D01*
X169860597Y-106465780D01*
X169977348Y-106424000D01*
X170757900Y-106424000D01*
X170757900Y-106616839D01*
X170797674Y-106816798D01*
X170875695Y-107005156D01*
X170988963Y-107174674D01*
X171133126Y-107318837D01*
X171302644Y-107432105D01*
X171491002Y-107510126D01*
X171690961Y-107549900D01*
X171874556Y-107549900D01*
X171954014Y-107574003D01*
X172027949Y-107581285D01*
X172103000Y-107588677D01*
X172140333Y-107585000D01*
X177209500Y-107585000D01*
X177209500Y-107721739D01*
X177249274Y-107921698D01*
X177327295Y-108110056D01*
X177440563Y-108279574D01*
X177584726Y-108423737D01*
X177754244Y-108537005D01*
X177942602Y-108615026D01*
X178142561Y-108654800D01*
X178204699Y-108654800D01*
X179085901Y-109536003D01*
X179109699Y-109565001D01*
X179138697Y-109588799D01*
X179225423Y-109659974D01*
X179355485Y-109729494D01*
X179357453Y-109730546D01*
X179500714Y-109774003D01*
X179612367Y-109785000D01*
X179612377Y-109785000D01*
X179649700Y-109788676D01*
X179687023Y-109785000D01*
X181636928Y-109785000D01*
X181636928Y-110475000D01*
X181649188Y-110599482D01*
X181649345Y-110600000D01*
X181649188Y-110600518D01*
X181636928Y-110725000D01*
X181636928Y-111425000D01*
X181649188Y-111549482D01*
X181685498Y-111669180D01*
X181744463Y-111779494D01*
X181823815Y-111876185D01*
X181920506Y-111955537D01*
X182030820Y-112014502D01*
X182150518Y-112050812D01*
X182275000Y-112063072D01*
X183475000Y-112063072D01*
X183599482Y-112050812D01*
X183719180Y-112014502D01*
X183829494Y-111955537D01*
X183926185Y-111876185D01*
X184005537Y-111779494D01*
X184064502Y-111669180D01*
X184100812Y-111549482D01*
X184103223Y-111525000D01*
X185936928Y-111525000D01*
X185940000Y-111739250D01*
X186098750Y-111898000D01*
X187048000Y-111898000D01*
X187048000Y-111048750D01*
X187302000Y-111048750D01*
X187302000Y-111898000D01*
X188251250Y-111898000D01*
X188410000Y-111739250D01*
X188413072Y-111525000D01*
X188400812Y-111400518D01*
X188364502Y-111280820D01*
X188305537Y-111170506D01*
X188226185Y-111073815D01*
X188129494Y-110994463D01*
X188019180Y-110935498D01*
X187899482Y-110899188D01*
X187775000Y-110886928D01*
X187460750Y-110890000D01*
X187302000Y-111048750D01*
X187048000Y-111048750D01*
X186889250Y-110890000D01*
X186575000Y-110886928D01*
X186450518Y-110899188D01*
X186330820Y-110935498D01*
X186220506Y-110994463D01*
X186123815Y-111073815D01*
X186044463Y-111170506D01*
X185985498Y-111280820D01*
X185949188Y-111400518D01*
X185936928Y-111525000D01*
X184103223Y-111525000D01*
X184113072Y-111425000D01*
X184113072Y-110725000D01*
X184100812Y-110600518D01*
X184100655Y-110600000D01*
X184100812Y-110599482D01*
X184113072Y-110475000D01*
X184113072Y-109775000D01*
X184100812Y-109650518D01*
X184077904Y-109575000D01*
X184100812Y-109499482D01*
X184113072Y-109375000D01*
X184113072Y-108675000D01*
X184100812Y-108550518D01*
X184077904Y-108475000D01*
X184100812Y-108399482D01*
X184113072Y-108275000D01*
X184110000Y-108210750D01*
X183951250Y-108052000D01*
X183608752Y-108052000D01*
X183599482Y-108049188D01*
X183475000Y-108036928D01*
X182275000Y-108036928D01*
X182150518Y-108049188D01*
X182141248Y-108052000D01*
X181798750Y-108052000D01*
X181640000Y-108210750D01*
X181637406Y-108265000D01*
X179964502Y-108265000D01*
X179284501Y-107585000D01*
X181637406Y-107585000D01*
X181640000Y-107639250D01*
X181798750Y-107798000D01*
X182141248Y-107798000D01*
X182150518Y-107800812D01*
X182275000Y-107813072D01*
X183475000Y-107813072D01*
X183599482Y-107800812D01*
X183608752Y-107798000D01*
X183951250Y-107798000D01*
X184110000Y-107639250D01*
X184113072Y-107575000D01*
X184100812Y-107450518D01*
X184077904Y-107375000D01*
X184100812Y-107299482D01*
X184113072Y-107175000D01*
X184113072Y-106475000D01*
X184100812Y-106350518D01*
X184077904Y-106275000D01*
X184100812Y-106199482D01*
X184113072Y-106075000D01*
X184113072Y-105375000D01*
X184100812Y-105250518D01*
X184077904Y-105175000D01*
X184100812Y-105099482D01*
X184113072Y-104975000D01*
X184113072Y-104275000D01*
X184104120Y-104184110D01*
X184149276Y-104159974D01*
X184265001Y-104065001D01*
X184288802Y-104036000D01*
X184311002Y-104013800D01*
X184340002Y-103990000D01*
X184434975Y-103874275D01*
X184505547Y-103742246D01*
X184549004Y-103598985D01*
X184560001Y-103487332D01*
X184560001Y-103487322D01*
X184563677Y-103450000D01*
X184560001Y-103412677D01*
X184560001Y-100152322D01*
X184563677Y-100114999D01*
X184560001Y-100077676D01*
X184560001Y-100077666D01*
X184549004Y-99966013D01*
X184505547Y-99822752D01*
X184474780Y-99765191D01*
X184434975Y-99690722D01*
X184363800Y-99603996D01*
X184340002Y-99574998D01*
X184311005Y-99551201D01*
X183444999Y-98685196D01*
X183444999Y-82874476D01*
X183623589Y-82910000D01*
X183896411Y-82910000D01*
X184163989Y-82856775D01*
X184416043Y-82752371D01*
X184642886Y-82600799D01*
X184835799Y-82407886D01*
X184987371Y-82181043D01*
X185030000Y-82078127D01*
X185072629Y-82181043D01*
X185224201Y-82407886D01*
X185417114Y-82600799D01*
X185643957Y-82752371D01*
X185896011Y-82856775D01*
X186163589Y-82910000D01*
X186436411Y-82910000D01*
X186703989Y-82856775D01*
X186956043Y-82752371D01*
X187182886Y-82600799D01*
X187375799Y-82407886D01*
X187527371Y-82181043D01*
X187570000Y-82078127D01*
X187612629Y-82181043D01*
X187764201Y-82407886D01*
X187957114Y-82600799D01*
X188183957Y-82752371D01*
X188436011Y-82856775D01*
X188703589Y-82910000D01*
X188976411Y-82910000D01*
X189243989Y-82856775D01*
X189496043Y-82752371D01*
X189542982Y-82721008D01*
X189524158Y-94945388D01*
X189524101Y-94945967D01*
X189524101Y-94981232D01*
X189523917Y-95016698D01*
X189524046Y-95018083D01*
X189524044Y-95019462D01*
X189524101Y-95020050D01*
X189524100Y-96990677D01*
X189520424Y-97028000D01*
X189524100Y-97065322D01*
X189524100Y-97065332D01*
X189535097Y-97176985D01*
X189569214Y-97289454D01*
X189578554Y-97320246D01*
X189649126Y-97452276D01*
X189675903Y-97484903D01*
X189744099Y-97568001D01*
X189773103Y-97591804D01*
X198490002Y-106308704D01*
X198490001Y-110888127D01*
X197810750Y-110890000D01*
X197652000Y-111048750D01*
X197652000Y-111898000D01*
X197672000Y-111898000D01*
X197672000Y-112090001D01*
X195164803Y-112090001D01*
X194599802Y-111525000D01*
X195486928Y-111525000D01*
X195490000Y-111739250D01*
X195648750Y-111898000D01*
X197398000Y-111898000D01*
X197398000Y-111048750D01*
X197239250Y-110890000D01*
X196125000Y-110886928D01*
X196000518Y-110899188D01*
X195880820Y-110935498D01*
X195770506Y-110994463D01*
X195673815Y-111073815D01*
X195594463Y-111170506D01*
X195535498Y-111280820D01*
X195499188Y-111400518D01*
X195486928Y-111525000D01*
X194599802Y-111525000D01*
X194588803Y-111514002D01*
X194565001Y-111484999D01*
X194449276Y-111390026D01*
X194387634Y-111357077D01*
X194364502Y-111280820D01*
X194305537Y-111170506D01*
X194226185Y-111073815D01*
X194129494Y-110994463D01*
X194019180Y-110935498D01*
X193899482Y-110899188D01*
X193775000Y-110886928D01*
X192975000Y-110886928D01*
X192850518Y-110899188D01*
X192730820Y-110935498D01*
X192620506Y-110994463D01*
X192523815Y-111073815D01*
X192444463Y-111170506D01*
X192385498Y-111280820D01*
X192349188Y-111400518D01*
X192336928Y-111525000D01*
X192336928Y-112525000D01*
X192349188Y-112649482D01*
X192385498Y-112769180D01*
X192423353Y-112840000D01*
X188326647Y-112840000D01*
X188364502Y-112769180D01*
X188400812Y-112649482D01*
X188413072Y-112525000D01*
X188410000Y-112310750D01*
X188251250Y-112152000D01*
X187302000Y-112152000D01*
X187302000Y-112172000D01*
X187048000Y-112172000D01*
X187048000Y-112152000D01*
X186098750Y-112152000D01*
X185940000Y-112310750D01*
X185936928Y-112525000D01*
X185949188Y-112649482D01*
X185985498Y-112769180D01*
X186023353Y-112840000D01*
X143460000Y-112840000D01*
X143460000Y-103143110D01*
X148908524Y-103143110D01*
X149029845Y-103373000D01*
X150373000Y-103373000D01*
X150373000Y-102172768D01*
X150627000Y-102172768D01*
X150627000Y-103373000D01*
X151970155Y-103373000D01*
X152091476Y-103143110D01*
X152089554Y-103130739D01*
X151989854Y-102856991D01*
X151838664Y-102607954D01*
X151641795Y-102393198D01*
X151406812Y-102220975D01*
X151142745Y-102097904D01*
X150859742Y-102028715D01*
X150627000Y-102172768D01*
X150373000Y-102172768D01*
X150140258Y-102028715D01*
X149857255Y-102097904D01*
X149593188Y-102220975D01*
X149358205Y-102393198D01*
X149161336Y-102607954D01*
X149010146Y-102856991D01*
X148910446Y-103130739D01*
X148908524Y-103143110D01*
X143460000Y-103143110D01*
X143460000Y-74860000D01*
X145581646Y-74860000D01*
X145554188Y-74950518D01*
G36*
X156410320Y-106364901D02*
G01*
X156479744Y-106385961D01*
X156449806Y-106401963D01*
X156353115Y-106481315D01*
X156273763Y-106578006D01*
X156214798Y-106688320D01*
X156178488Y-106808018D01*
X156166228Y-106932500D01*
X156169300Y-107346750D01*
X156328050Y-107505500D01*
X157164800Y-107505500D01*
X157164800Y-107485500D01*
X157418800Y-107485500D01*
X157418800Y-107505500D01*
X157438800Y-107505500D01*
X157438800Y-107759500D01*
X157418800Y-107759500D01*
X157418800Y-107779500D01*
X157164800Y-107779500D01*
X157164800Y-107759500D01*
X156328050Y-107759500D01*
X156190040Y-107897510D01*
X156156788Y-107897510D01*
X155931834Y-107672556D01*
X155904117Y-107638783D01*
X155769778Y-107528533D01*
X155805837Y-107484594D01*
X155864802Y-107374280D01*
X155901112Y-107254582D01*
X155913372Y-107130100D01*
X155910300Y-106978350D01*
X155751550Y-106819600D01*
X154927300Y-106819600D01*
X154927300Y-106839600D01*
X154673300Y-106839600D01*
X154673300Y-106819600D01*
X154653300Y-106819600D01*
X154653300Y-106565600D01*
X154673300Y-106565600D01*
X154673300Y-106545600D01*
X154927300Y-106545600D01*
X154927300Y-106565600D01*
X155751550Y-106565600D01*
X155910300Y-106406850D01*
X155912325Y-106306799D01*
X156301621Y-106306799D01*
X156410320Y-106364901D01*
G37*
X156410320Y-106364901D02*
X156479744Y-106385961D01*
X156449806Y-106401963D01*
X156353115Y-106481315D01*
X156273763Y-106578006D01*
X156214798Y-106688320D01*
X156178488Y-106808018D01*
X156166228Y-106932500D01*
X156169300Y-107346750D01*
X156328050Y-107505500D01*
X157164800Y-107505500D01*
X157164800Y-107485500D01*
X157418800Y-107485500D01*
X157418800Y-107505500D01*
X157438800Y-107505500D01*
X157438800Y-107759500D01*
X157418800Y-107759500D01*
X157418800Y-107779500D01*
X157164800Y-107779500D01*
X157164800Y-107759500D01*
X156328050Y-107759500D01*
X156190040Y-107897510D01*
X156156788Y-107897510D01*
X155931834Y-107672556D01*
X155904117Y-107638783D01*
X155769778Y-107528533D01*
X155805837Y-107484594D01*
X155864802Y-107374280D01*
X155901112Y-107254582D01*
X155913372Y-107130100D01*
X155910300Y-106978350D01*
X155751550Y-106819600D01*
X154927300Y-106819600D01*
X154927300Y-106839600D01*
X154673300Y-106839600D01*
X154673300Y-106819600D01*
X154653300Y-106819600D01*
X154653300Y-106565600D01*
X154673300Y-106565600D01*
X154673300Y-106545600D01*
X154927300Y-106545600D01*
X154927300Y-106565600D01*
X155751550Y-106565600D01*
X155910300Y-106406850D01*
X155912325Y-106306799D01*
X156301621Y-106306799D01*
X156410320Y-106364901D01*
G36*
X199940001Y-105672570D02*
G01*
X199884975Y-105569625D01*
X199790002Y-105453900D01*
X199761004Y-105430102D01*
X193505902Y-99175000D01*
X196386928Y-99175000D01*
X196399188Y-99299482D01*
X196435498Y-99419180D01*
X196494463Y-99529494D01*
X196573815Y-99626185D01*
X196670506Y-99705537D01*
X196780820Y-99764502D01*
X196900518Y-99800812D01*
X197025000Y-99813072D01*
X197689250Y-99810000D01*
X197848000Y-99651250D01*
X197848000Y-98652000D01*
X198102000Y-98652000D01*
X198102000Y-99651250D01*
X198260750Y-99810000D01*
X198925000Y-99813072D01*
X199049482Y-99800812D01*
X199169180Y-99764502D01*
X199279494Y-99705537D01*
X199376185Y-99626185D01*
X199455537Y-99529494D01*
X199514502Y-99419180D01*
X199550812Y-99299482D01*
X199563072Y-99175000D01*
X199560000Y-98810750D01*
X199401250Y-98652000D01*
X198102000Y-98652000D01*
X197848000Y-98652000D01*
X196548750Y-98652000D01*
X196390000Y-98810750D01*
X196386928Y-99175000D01*
X193505902Y-99175000D01*
X192205902Y-97875000D01*
X196386928Y-97875000D01*
X196390000Y-98239250D01*
X196548750Y-98398000D01*
X197848000Y-98398000D01*
X197848000Y-97398750D01*
X198102000Y-97398750D01*
X198102000Y-98398000D01*
X199401250Y-98398000D01*
X199560000Y-98239250D01*
X199563072Y-97875000D01*
X199550812Y-97750518D01*
X199514502Y-97630820D01*
X199455537Y-97520506D01*
X199376185Y-97423815D01*
X199279494Y-97344463D01*
X199169180Y-97285498D01*
X199049482Y-97249188D01*
X198925000Y-97236928D01*
X198260750Y-97240000D01*
X198102000Y-97398750D01*
X197848000Y-97398750D01*
X197689250Y-97240000D01*
X197025000Y-97236928D01*
X196900518Y-97249188D01*
X196780820Y-97285498D01*
X196670506Y-97344463D01*
X196573815Y-97423815D01*
X196494463Y-97520506D01*
X196435498Y-97630820D01*
X196399188Y-97750518D01*
X196386928Y-97875000D01*
X192205902Y-97875000D01*
X191044100Y-96713199D01*
X191044100Y-95386532D01*
X191064600Y-95286192D01*
X191065182Y-95174000D01*
X191044154Y-94948524D01*
X191062747Y-82874028D01*
X191243589Y-82910000D01*
X191516411Y-82910000D01*
X191783989Y-82856775D01*
X192036043Y-82752371D01*
X192262886Y-82600799D01*
X192455799Y-82407886D01*
X192607371Y-82181043D01*
X192650000Y-82078127D01*
X192692629Y-82181043D01*
X192844201Y-82407886D01*
X193037114Y-82600799D01*
X193263957Y-82752371D01*
X193516011Y-82856775D01*
X193783589Y-82910000D01*
X194056411Y-82910000D01*
X194323989Y-82856775D01*
X194576043Y-82752371D01*
X194802886Y-82600799D01*
X194995799Y-82407886D01*
X195147371Y-82181043D01*
X195190000Y-82078127D01*
X195232629Y-82181043D01*
X195384201Y-82407886D01*
X195577114Y-82600799D01*
X195803957Y-82752371D01*
X196056011Y-82856775D01*
X196323589Y-82910000D01*
X196596411Y-82910000D01*
X196863989Y-82856775D01*
X197116043Y-82752371D01*
X197342886Y-82600799D01*
X197535799Y-82407886D01*
X197687371Y-82181043D01*
X197791775Y-81928989D01*
X197845000Y-81661411D01*
X197845000Y-81388589D01*
X197791775Y-81121011D01*
X197687371Y-80868957D01*
X197535799Y-80642114D01*
X197342886Y-80449201D01*
X197116043Y-80297629D01*
X196863989Y-80193225D01*
X196596411Y-80140000D01*
X196475793Y-80140000D01*
X196521775Y-80028989D01*
X196575000Y-79761411D01*
X196575000Y-79488589D01*
X196521775Y-79221011D01*
X196475793Y-79110000D01*
X196596411Y-79110000D01*
X196863989Y-79056775D01*
X197116043Y-78952371D01*
X197342886Y-78800799D01*
X197535799Y-78607886D01*
X197687371Y-78381043D01*
X197791775Y-78128989D01*
X197845000Y-77861411D01*
X197845000Y-77588589D01*
X197791775Y-77321011D01*
X197687371Y-77068957D01*
X197535799Y-76842114D01*
X197342886Y-76649201D01*
X197116043Y-76497629D01*
X196863989Y-76393225D01*
X196596411Y-76340000D01*
X196475793Y-76340000D01*
X196521775Y-76228989D01*
X196575000Y-75961411D01*
X196575000Y-75688589D01*
X196521775Y-75421011D01*
X196417371Y-75168957D01*
X196265799Y-74942114D01*
X196183685Y-74860000D01*
X199940000Y-74860000D01*
X199940001Y-105672570D01*
G37*
X199940001Y-105672570D02*
X199884975Y-105569625D01*
X199790002Y-105453900D01*
X199761004Y-105430102D01*
X193505902Y-99175000D01*
X196386928Y-99175000D01*
X196399188Y-99299482D01*
X196435498Y-99419180D01*
X196494463Y-99529494D01*
X196573815Y-99626185D01*
X196670506Y-99705537D01*
X196780820Y-99764502D01*
X196900518Y-99800812D01*
X197025000Y-99813072D01*
X197689250Y-99810000D01*
X197848000Y-99651250D01*
X197848000Y-98652000D01*
X198102000Y-98652000D01*
X198102000Y-99651250D01*
X198260750Y-99810000D01*
X198925000Y-99813072D01*
X199049482Y-99800812D01*
X199169180Y-99764502D01*
X199279494Y-99705537D01*
X199376185Y-99626185D01*
X199455537Y-99529494D01*
X199514502Y-99419180D01*
X199550812Y-99299482D01*
X199563072Y-99175000D01*
X199560000Y-98810750D01*
X199401250Y-98652000D01*
X198102000Y-98652000D01*
X197848000Y-98652000D01*
X196548750Y-98652000D01*
X196390000Y-98810750D01*
X196386928Y-99175000D01*
X193505902Y-99175000D01*
X192205902Y-97875000D01*
X196386928Y-97875000D01*
X196390000Y-98239250D01*
X196548750Y-98398000D01*
X197848000Y-98398000D01*
X197848000Y-97398750D01*
X198102000Y-97398750D01*
X198102000Y-98398000D01*
X199401250Y-98398000D01*
X199560000Y-98239250D01*
X199563072Y-97875000D01*
X199550812Y-97750518D01*
X199514502Y-97630820D01*
X199455537Y-97520506D01*
X199376185Y-97423815D01*
X199279494Y-97344463D01*
X199169180Y-97285498D01*
X199049482Y-97249188D01*
X198925000Y-97236928D01*
X198260750Y-97240000D01*
X198102000Y-97398750D01*
X197848000Y-97398750D01*
X197689250Y-97240000D01*
X197025000Y-97236928D01*
X196900518Y-97249188D01*
X196780820Y-97285498D01*
X196670506Y-97344463D01*
X196573815Y-97423815D01*
X196494463Y-97520506D01*
X196435498Y-97630820D01*
X196399188Y-97750518D01*
X196386928Y-97875000D01*
X192205902Y-97875000D01*
X191044100Y-96713199D01*
X191044100Y-95386532D01*
X191064600Y-95286192D01*
X191065182Y-95174000D01*
X191044154Y-94948524D01*
X191062747Y-82874028D01*
X191243589Y-82910000D01*
X191516411Y-82910000D01*
X191783989Y-82856775D01*
X192036043Y-82752371D01*
X192262886Y-82600799D01*
X192455799Y-82407886D01*
X192607371Y-82181043D01*
X192650000Y-82078127D01*
X192692629Y-82181043D01*
X192844201Y-82407886D01*
X193037114Y-82600799D01*
X193263957Y-82752371D01*
X193516011Y-82856775D01*
X193783589Y-82910000D01*
X194056411Y-82910000D01*
X194323989Y-82856775D01*
X194576043Y-82752371D01*
X194802886Y-82600799D01*
X194995799Y-82407886D01*
X195147371Y-82181043D01*
X195190000Y-82078127D01*
X195232629Y-82181043D01*
X195384201Y-82407886D01*
X195577114Y-82600799D01*
X195803957Y-82752371D01*
X196056011Y-82856775D01*
X196323589Y-82910000D01*
X196596411Y-82910000D01*
X196863989Y-82856775D01*
X197116043Y-82752371D01*
X197342886Y-82600799D01*
X197535799Y-82407886D01*
X197687371Y-82181043D01*
X197791775Y-81928989D01*
X197845000Y-81661411D01*
X197845000Y-81388589D01*
X197791775Y-81121011D01*
X197687371Y-80868957D01*
X197535799Y-80642114D01*
X197342886Y-80449201D01*
X197116043Y-80297629D01*
X196863989Y-80193225D01*
X196596411Y-80140000D01*
X196475793Y-80140000D01*
X196521775Y-80028989D01*
X196575000Y-79761411D01*
X196575000Y-79488589D01*
X196521775Y-79221011D01*
X196475793Y-79110000D01*
X196596411Y-79110000D01*
X196863989Y-79056775D01*
X197116043Y-78952371D01*
X197342886Y-78800799D01*
X197535799Y-78607886D01*
X197687371Y-78381043D01*
X197791775Y-78128989D01*
X197845000Y-77861411D01*
X197845000Y-77588589D01*
X197791775Y-77321011D01*
X197687371Y-77068957D01*
X197535799Y-76842114D01*
X197342886Y-76649201D01*
X197116043Y-76497629D01*
X196863989Y-76393225D01*
X196596411Y-76340000D01*
X196475793Y-76340000D01*
X196521775Y-76228989D01*
X196575000Y-75961411D01*
X196575000Y-75688589D01*
X196521775Y-75421011D01*
X196417371Y-75168957D01*
X196265799Y-74942114D01*
X196183685Y-74860000D01*
X199940000Y-74860000D01*
X199940001Y-105672570D01*
G36*
X174758698Y-104904000D02*
G01*
X170638828Y-104904000D01*
X170729494Y-104855537D01*
X170826185Y-104776185D01*
X170905537Y-104679494D01*
X170964502Y-104569180D01*
X171000812Y-104449482D01*
X171013072Y-104325000D01*
X171010000Y-104135750D01*
X170851250Y-103977000D01*
X170064500Y-103977000D01*
X170064500Y-103997000D01*
X169810500Y-103997000D01*
X169810500Y-103977000D01*
X169790500Y-103977000D01*
X169790500Y-103723000D01*
X169810500Y-103723000D01*
X169810500Y-102898750D01*
X170064500Y-102898750D01*
X170064500Y-103723000D01*
X170851250Y-103723000D01*
X171010000Y-103564250D01*
X171013072Y-103375000D01*
X171000812Y-103250518D01*
X170964502Y-103130820D01*
X170905537Y-103020506D01*
X170826185Y-102923815D01*
X170729494Y-102844463D01*
X170619180Y-102785498D01*
X170499482Y-102749188D01*
X170375000Y-102736928D01*
X170223250Y-102740000D01*
X170064500Y-102898750D01*
X169810500Y-102898750D01*
X169651750Y-102740000D01*
X169500000Y-102736928D01*
X169375518Y-102749188D01*
X169360000Y-102753895D01*
X169360000Y-102732238D01*
X169403745Y-102727929D01*
X169551582Y-102683084D01*
X169687829Y-102610258D01*
X169807251Y-102512251D01*
X169905258Y-102392829D01*
X169978084Y-102256582D01*
X170022929Y-102108745D01*
X170038072Y-101955000D01*
X170038072Y-101939990D01*
X171794689Y-101939990D01*
X174758698Y-104904000D01*
G37*
X174758698Y-104904000D02*
X170638828Y-104904000D01*
X170729494Y-104855537D01*
X170826185Y-104776185D01*
X170905537Y-104679494D01*
X170964502Y-104569180D01*
X171000812Y-104449482D01*
X171013072Y-104325000D01*
X171010000Y-104135750D01*
X170851250Y-103977000D01*
X170064500Y-103977000D01*
X170064500Y-103997000D01*
X169810500Y-103997000D01*
X169810500Y-103977000D01*
X169790500Y-103977000D01*
X169790500Y-103723000D01*
X169810500Y-103723000D01*
X169810500Y-102898750D01*
X170064500Y-102898750D01*
X170064500Y-103723000D01*
X170851250Y-103723000D01*
X171010000Y-103564250D01*
X171013072Y-103375000D01*
X171000812Y-103250518D01*
X170964502Y-103130820D01*
X170905537Y-103020506D01*
X170826185Y-102923815D01*
X170729494Y-102844463D01*
X170619180Y-102785498D01*
X170499482Y-102749188D01*
X170375000Y-102736928D01*
X170223250Y-102740000D01*
X170064500Y-102898750D01*
X169810500Y-102898750D01*
X169651750Y-102740000D01*
X169500000Y-102736928D01*
X169375518Y-102749188D01*
X169360000Y-102753895D01*
X169360000Y-102732238D01*
X169403745Y-102727929D01*
X169551582Y-102683084D01*
X169687829Y-102610258D01*
X169807251Y-102512251D01*
X169905258Y-102392829D01*
X169978084Y-102256582D01*
X170022929Y-102108745D01*
X170038072Y-101955000D01*
X170038072Y-101939990D01*
X171794689Y-101939990D01*
X174758698Y-104904000D01*
G36*
X158173000Y-100003007D02*
G01*
X158173000Y-100152200D01*
X158153000Y-100152200D01*
X158153000Y-100976450D01*
X158311750Y-101135200D01*
X158463500Y-101138272D01*
X158587982Y-101126012D01*
X158707680Y-101089702D01*
X158817994Y-101030737D01*
X158884570Y-100976100D01*
X158906225Y-100993871D01*
X159054358Y-101073050D01*
X159215092Y-101121808D01*
X159382250Y-101138272D01*
X159819750Y-101138272D01*
X159986908Y-101121808D01*
X160147642Y-101073050D01*
X160295775Y-100993871D01*
X160369250Y-100933572D01*
X160442725Y-100993871D01*
X160590858Y-101073050D01*
X160751592Y-101121808D01*
X160918750Y-101138272D01*
X161356250Y-101138272D01*
X161523408Y-101121808D01*
X161684142Y-101073050D01*
X161832275Y-100993871D01*
X161925000Y-100917774D01*
X162017725Y-100993871D01*
X162165858Y-101073050D01*
X162326592Y-101121808D01*
X162493750Y-101138272D01*
X162931250Y-101138272D01*
X163098408Y-101121808D01*
X163259142Y-101073050D01*
X163407275Y-100993871D01*
X163537115Y-100887315D01*
X163620918Y-100785200D01*
X163985211Y-100785200D01*
X163983524Y-101882026D01*
X163842700Y-102022850D01*
X163842700Y-102859600D01*
X163862700Y-102859600D01*
X163862700Y-103113600D01*
X163842700Y-103113600D01*
X163842700Y-103133600D01*
X163588700Y-103133600D01*
X163588700Y-103113600D01*
X163568700Y-103113600D01*
X163568700Y-102859600D01*
X163588700Y-102859600D01*
X163588700Y-102022850D01*
X163429950Y-101864100D01*
X163015700Y-101861028D01*
X162891218Y-101873288D01*
X162771520Y-101909598D01*
X162661206Y-101968563D01*
X162564515Y-102047915D01*
X162485163Y-102144606D01*
X162426198Y-102254920D01*
X162389888Y-102374618D01*
X162377628Y-102499100D01*
X162380700Y-102700850D01*
X162435522Y-102755672D01*
X162383166Y-102740627D01*
X162258518Y-102730198D01*
X161791650Y-102733201D01*
X161632900Y-102891951D01*
X161632900Y-103380127D01*
X161378900Y-103380127D01*
X161378900Y-102891951D01*
X161220150Y-102733201D01*
X160753282Y-102730198D01*
X160628634Y-102740627D01*
X160508415Y-102775173D01*
X160397246Y-102832508D01*
X160299398Y-102910430D01*
X160218632Y-103005944D01*
X160158053Y-103115380D01*
X160119986Y-103234531D01*
X160108900Y-103336451D01*
X160242248Y-103469799D01*
X160108900Y-103469799D01*
X160108900Y-103590831D01*
X160069624Y-103611825D01*
X159953899Y-103706798D01*
X159930100Y-103735797D01*
X159550141Y-104115757D01*
X159484013Y-104080411D01*
X159317190Y-104029805D01*
X159143700Y-104012718D01*
X158970211Y-104029805D01*
X158816572Y-104076412D01*
X158816572Y-104018199D01*
X158807078Y-103921800D01*
X158816572Y-103825401D01*
X158816572Y-103368201D01*
X158804312Y-103243719D01*
X158768002Y-103124021D01*
X158709037Y-103013707D01*
X158629685Y-102917016D01*
X158532994Y-102837664D01*
X158422680Y-102778699D01*
X158302982Y-102742389D01*
X158178500Y-102730129D01*
X158070826Y-102730129D01*
X158051474Y-102693924D01*
X157980299Y-102607198D01*
X157956501Y-102578200D01*
X157927502Y-102554401D01*
X157352402Y-101979302D01*
X157328600Y-101950299D01*
X157212875Y-101855326D01*
X157080846Y-101784754D01*
X156937585Y-101741297D01*
X156825932Y-101730300D01*
X156825921Y-101730300D01*
X156788599Y-101726624D01*
X156751277Y-101730300D01*
X155786929Y-101730300D01*
X155684975Y-101646629D01*
X155597447Y-101599844D01*
X157045090Y-100152202D01*
X157112248Y-100152202D01*
X156953500Y-100310950D01*
X156950428Y-100500200D01*
X156962688Y-100624682D01*
X156998998Y-100744380D01*
X157057963Y-100854694D01*
X157137315Y-100951385D01*
X157234006Y-101030737D01*
X157344320Y-101089702D01*
X157464018Y-101126012D01*
X157588500Y-101138272D01*
X157740250Y-101135200D01*
X157899000Y-100976450D01*
X157899000Y-100152200D01*
X157879000Y-100152200D01*
X157879000Y-99985190D01*
X158155183Y-99985190D01*
X158173000Y-100003007D01*
G37*
X158173000Y-100003007D02*
X158173000Y-100152200D01*
X158153000Y-100152200D01*
X158153000Y-100976450D01*
X158311750Y-101135200D01*
X158463500Y-101138272D01*
X158587982Y-101126012D01*
X158707680Y-101089702D01*
X158817994Y-101030737D01*
X158884570Y-100976100D01*
X158906225Y-100993871D01*
X159054358Y-101073050D01*
X159215092Y-101121808D01*
X159382250Y-101138272D01*
X159819750Y-101138272D01*
X159986908Y-101121808D01*
X160147642Y-101073050D01*
X160295775Y-100993871D01*
X160369250Y-100933572D01*
X160442725Y-100993871D01*
X160590858Y-101073050D01*
X160751592Y-101121808D01*
X160918750Y-101138272D01*
X161356250Y-101138272D01*
X161523408Y-101121808D01*
X161684142Y-101073050D01*
X161832275Y-100993871D01*
X161925000Y-100917774D01*
X162017725Y-100993871D01*
X162165858Y-101073050D01*
X162326592Y-101121808D01*
X162493750Y-101138272D01*
X162931250Y-101138272D01*
X163098408Y-101121808D01*
X163259142Y-101073050D01*
X163407275Y-100993871D01*
X163537115Y-100887315D01*
X163620918Y-100785200D01*
X163985211Y-100785200D01*
X163983524Y-101882026D01*
X163842700Y-102022850D01*
X163842700Y-102859600D01*
X163862700Y-102859600D01*
X163862700Y-103113600D01*
X163842700Y-103113600D01*
X163842700Y-103133600D01*
X163588700Y-103133600D01*
X163588700Y-103113600D01*
X163568700Y-103113600D01*
X163568700Y-102859600D01*
X163588700Y-102859600D01*
X163588700Y-102022850D01*
X163429950Y-101864100D01*
X163015700Y-101861028D01*
X162891218Y-101873288D01*
X162771520Y-101909598D01*
X162661206Y-101968563D01*
X162564515Y-102047915D01*
X162485163Y-102144606D01*
X162426198Y-102254920D01*
X162389888Y-102374618D01*
X162377628Y-102499100D01*
X162380700Y-102700850D01*
X162435522Y-102755672D01*
X162383166Y-102740627D01*
X162258518Y-102730198D01*
X161791650Y-102733201D01*
X161632900Y-102891951D01*
X161632900Y-103380127D01*
X161378900Y-103380127D01*
X161378900Y-102891951D01*
X161220150Y-102733201D01*
X160753282Y-102730198D01*
X160628634Y-102740627D01*
X160508415Y-102775173D01*
X160397246Y-102832508D01*
X160299398Y-102910430D01*
X160218632Y-103005944D01*
X160158053Y-103115380D01*
X160119986Y-103234531D01*
X160108900Y-103336451D01*
X160242248Y-103469799D01*
X160108900Y-103469799D01*
X160108900Y-103590831D01*
X160069624Y-103611825D01*
X159953899Y-103706798D01*
X159930100Y-103735797D01*
X159550141Y-104115757D01*
X159484013Y-104080411D01*
X159317190Y-104029805D01*
X159143700Y-104012718D01*
X158970211Y-104029805D01*
X158816572Y-104076412D01*
X158816572Y-104018199D01*
X158807078Y-103921800D01*
X158816572Y-103825401D01*
X158816572Y-103368201D01*
X158804312Y-103243719D01*
X158768002Y-103124021D01*
X158709037Y-103013707D01*
X158629685Y-102917016D01*
X158532994Y-102837664D01*
X158422680Y-102778699D01*
X158302982Y-102742389D01*
X158178500Y-102730129D01*
X158070826Y-102730129D01*
X158051474Y-102693924D01*
X157980299Y-102607198D01*
X157956501Y-102578200D01*
X157927502Y-102554401D01*
X157352402Y-101979302D01*
X157328600Y-101950299D01*
X157212875Y-101855326D01*
X157080846Y-101784754D01*
X156937585Y-101741297D01*
X156825932Y-101730300D01*
X156825921Y-101730300D01*
X156788599Y-101726624D01*
X156751277Y-101730300D01*
X155786929Y-101730300D01*
X155684975Y-101646629D01*
X155597447Y-101599844D01*
X157045090Y-100152202D01*
X157112248Y-100152202D01*
X156953500Y-100310950D01*
X156950428Y-100500200D01*
X156962688Y-100624682D01*
X156998998Y-100744380D01*
X157057963Y-100854694D01*
X157137315Y-100951385D01*
X157234006Y-101030737D01*
X157344320Y-101089702D01*
X157464018Y-101126012D01*
X157588500Y-101138272D01*
X157740250Y-101135200D01*
X157899000Y-100976450D01*
X157899000Y-100152200D01*
X157879000Y-100152200D01*
X157879000Y-99985190D01*
X158155183Y-99985190D01*
X158173000Y-100003007D01*
G36*
X179992629Y-82181043D02*
G01*
X180144201Y-82407886D01*
X180337114Y-82600799D01*
X180563957Y-82752371D01*
X180816011Y-82856775D01*
X181083589Y-82910000D01*
X181356411Y-82910000D01*
X181623989Y-82856775D01*
X181876043Y-82752371D01*
X181924999Y-82719660D01*
X181925000Y-98962664D01*
X181921323Y-98999997D01*
X181935997Y-99148982D01*
X181979453Y-99292243D01*
X182050025Y-99424273D01*
X182113485Y-99501598D01*
X182144999Y-99539998D01*
X182173997Y-99563796D01*
X182347841Y-99737640D01*
X182275000Y-99736928D01*
X182150518Y-99749188D01*
X182030820Y-99785498D01*
X181920506Y-99844463D01*
X181823815Y-99923815D01*
X181744463Y-100020506D01*
X181685498Y-100130820D01*
X181649188Y-100250518D01*
X181636928Y-100375000D01*
X181640000Y-100589250D01*
X181798750Y-100748000D01*
X182748000Y-100748000D01*
X182748000Y-100728000D01*
X183002000Y-100728000D01*
X183002000Y-100748000D01*
X183022000Y-100748000D01*
X183022000Y-101002000D01*
X183002000Y-101002000D01*
X183002000Y-101022000D01*
X182748000Y-101022000D01*
X182748000Y-101002000D01*
X181798750Y-101002000D01*
X181640000Y-101160750D01*
X181636928Y-101375000D01*
X181649188Y-101499482D01*
X181685498Y-101619180D01*
X181742061Y-101725000D01*
X181685498Y-101830820D01*
X181649188Y-101950518D01*
X181636928Y-102075000D01*
X181636928Y-102775000D01*
X181649188Y-102899482D01*
X181672096Y-102975000D01*
X181649188Y-103050518D01*
X181636928Y-103175000D01*
X181636928Y-103865000D01*
X175869302Y-103865000D01*
X172673294Y-100668993D01*
X172649491Y-100639989D01*
X172533766Y-100545016D01*
X172401737Y-100474444D01*
X172258476Y-100430987D01*
X172146823Y-100419990D01*
X172146812Y-100419990D01*
X172109490Y-100416314D01*
X172072168Y-100419990D01*
X170589811Y-100419990D01*
X173314801Y-97695000D01*
X174361928Y-97695000D01*
X174365000Y-97709250D01*
X174523750Y-97868000D01*
X175673000Y-97868000D01*
X175673000Y-97218750D01*
X175514250Y-97060000D01*
X175000000Y-97056928D01*
X174875518Y-97069188D01*
X174755820Y-97105498D01*
X174645506Y-97164463D01*
X174548815Y-97243815D01*
X174469463Y-97340506D01*
X174410498Y-97450820D01*
X174374188Y-97570518D01*
X174361928Y-97695000D01*
X173314801Y-97695000D01*
X174674802Y-96335000D01*
X174701939Y-96335000D01*
X174901898Y-96295226D01*
X175090256Y-96217205D01*
X175259774Y-96103937D01*
X175403937Y-95959774D01*
X175517205Y-95790256D01*
X175595226Y-95601898D01*
X175635000Y-95401939D01*
X175635000Y-95198061D01*
X175595226Y-94998102D01*
X175517205Y-94809744D01*
X175403937Y-94640226D01*
X175259774Y-94496063D01*
X175090256Y-94382795D01*
X174901898Y-94304774D01*
X174701939Y-94265000D01*
X174498061Y-94265000D01*
X174298102Y-94304774D01*
X174109744Y-94382795D01*
X173940226Y-94496063D01*
X173796063Y-94640226D01*
X173682795Y-94809744D01*
X173604774Y-94998102D01*
X173565000Y-95198061D01*
X173565000Y-95295198D01*
X170735000Y-98125199D01*
X170735000Y-97439611D01*
X170778937Y-97395674D01*
X170892205Y-97226156D01*
X170970226Y-97037798D01*
X171010000Y-96837839D01*
X171010000Y-96633961D01*
X170970226Y-96434002D01*
X170892205Y-96245644D01*
X170791249Y-96094552D01*
X172697321Y-94188481D01*
X172726022Y-94164978D01*
X172750104Y-94135698D01*
X172750399Y-94135403D01*
X172774300Y-94106279D01*
X172821119Y-94049355D01*
X172821311Y-94048996D01*
X172821574Y-94048676D01*
X172857068Y-93982272D01*
X172891832Y-93917401D01*
X172891950Y-93917014D01*
X172892146Y-93916647D01*
X172913936Y-93844813D01*
X172935443Y-93774187D01*
X172935484Y-93773780D01*
X172935603Y-93773386D01*
X172942898Y-93699318D01*
X172946559Y-93662546D01*
X172946559Y-93662137D01*
X172950276Y-93624400D01*
X172946639Y-93587474D01*
X172958128Y-82849336D01*
X172964286Y-82828372D01*
X172970124Y-82763210D01*
X173196011Y-82856775D01*
X173463589Y-82910000D01*
X173736411Y-82910000D01*
X174003989Y-82856775D01*
X174256043Y-82752371D01*
X174482886Y-82600799D01*
X174514939Y-82568746D01*
X174524998Y-82581002D01*
X174554001Y-82604804D01*
X174952571Y-83003376D01*
X174989025Y-83071575D01*
X175083998Y-83187300D01*
X175113000Y-83211101D01*
X176074801Y-84172903D01*
X176074800Y-93980778D01*
X176071124Y-94018100D01*
X176074800Y-94055422D01*
X176074800Y-94055432D01*
X176085797Y-94167085D01*
X176127564Y-94304774D01*
X176129254Y-94310346D01*
X176199826Y-94442376D01*
X176232957Y-94482746D01*
X176294799Y-94558101D01*
X176323802Y-94581903D01*
X176671701Y-94929803D01*
X176671701Y-97063990D01*
X176600000Y-97056928D01*
X176085750Y-97060000D01*
X175927000Y-97218750D01*
X175927000Y-97868000D01*
X175947000Y-97868000D01*
X175947000Y-98122000D01*
X175927000Y-98122000D01*
X175927000Y-98142000D01*
X175673000Y-98142000D01*
X175673000Y-98122000D01*
X174523750Y-98122000D01*
X174454420Y-98191330D01*
X174320539Y-98164700D01*
X174116661Y-98164700D01*
X173916702Y-98204474D01*
X173728344Y-98282495D01*
X173558826Y-98395763D01*
X173414663Y-98539926D01*
X173301395Y-98709444D01*
X173223374Y-98897802D01*
X173183600Y-99097761D01*
X173183600Y-99301639D01*
X173223374Y-99501598D01*
X173301395Y-99689956D01*
X173414663Y-99859474D01*
X173430391Y-99875202D01*
X173326795Y-100030244D01*
X173248774Y-100218602D01*
X173209000Y-100418561D01*
X173209000Y-100622439D01*
X173248774Y-100822398D01*
X173326795Y-101010756D01*
X173440063Y-101180274D01*
X173584226Y-101324437D01*
X173753744Y-101437705D01*
X173942102Y-101515726D01*
X174142061Y-101555500D01*
X174345939Y-101555500D01*
X174372244Y-101550268D01*
X174361928Y-101655000D01*
X174361928Y-101955000D01*
X174377071Y-102108745D01*
X174421916Y-102256582D01*
X174494742Y-102392829D01*
X174592749Y-102512251D01*
X174712171Y-102610258D01*
X174848418Y-102683084D01*
X174996255Y-102727929D01*
X175150000Y-102743072D01*
X176450000Y-102743072D01*
X176603745Y-102727929D01*
X176751582Y-102683084D01*
X176887829Y-102610258D01*
X177007251Y-102512251D01*
X177105258Y-102392829D01*
X177123650Y-102358420D01*
X177140001Y-102345001D01*
X177163804Y-102315997D01*
X177281641Y-102198160D01*
X177323257Y-102185536D01*
X177455286Y-102114964D01*
X177571011Y-102019991D01*
X177594814Y-101990987D01*
X177942698Y-101643103D01*
X177971701Y-101619301D01*
X178066674Y-101503576D01*
X178137246Y-101371547D01*
X178180703Y-101228286D01*
X178191700Y-101116633D01*
X178191700Y-101116624D01*
X178195376Y-101079301D01*
X178191700Y-101041978D01*
X178191700Y-94652322D01*
X178195376Y-94614999D01*
X178191700Y-94577676D01*
X178191700Y-94577667D01*
X178180703Y-94466014D01*
X178137246Y-94322753D01*
X178100318Y-94253666D01*
X178066674Y-94190723D01*
X177995499Y-94103997D01*
X177971701Y-94074999D01*
X177942702Y-94051200D01*
X177594800Y-93703299D01*
X177594800Y-83895422D01*
X177598476Y-83858099D01*
X177594800Y-83820776D01*
X177594800Y-83820767D01*
X177593984Y-83812486D01*
X177979800Y-84198302D01*
X177979801Y-92145988D01*
X177910463Y-92215326D01*
X177797195Y-92384844D01*
X177719174Y-92573202D01*
X177679400Y-92773161D01*
X177679400Y-92977039D01*
X177719174Y-93176998D01*
X177797195Y-93365356D01*
X177910463Y-93534874D01*
X178054626Y-93679037D01*
X178224144Y-93792305D01*
X178412502Y-93870326D01*
X178612461Y-93910100D01*
X178816339Y-93910100D01*
X179016298Y-93870326D01*
X179204656Y-93792305D01*
X179374174Y-93679037D01*
X179518337Y-93534874D01*
X179631605Y-93365356D01*
X179709626Y-93176998D01*
X179749400Y-92977039D01*
X179749400Y-92773161D01*
X179709626Y-92573202D01*
X179631605Y-92384844D01*
X179518337Y-92215326D01*
X179499800Y-92196789D01*
X179499800Y-83920823D01*
X179503476Y-83883500D01*
X179499800Y-83846177D01*
X179499800Y-83846167D01*
X179488803Y-83734514D01*
X179445346Y-83591253D01*
X179399534Y-83505546D01*
X179374774Y-83459223D01*
X179303599Y-83372497D01*
X179279801Y-83343499D01*
X179250804Y-83319702D01*
X178837005Y-82905904D01*
X179083989Y-82856775D01*
X179336043Y-82752371D01*
X179562886Y-82600799D01*
X179755799Y-82407886D01*
X179907371Y-82181043D01*
X179950000Y-82078127D01*
X179992629Y-82181043D01*
G37*
X179992629Y-82181043D02*
X180144201Y-82407886D01*
X180337114Y-82600799D01*
X180563957Y-82752371D01*
X180816011Y-82856775D01*
X181083589Y-82910000D01*
X181356411Y-82910000D01*
X181623989Y-82856775D01*
X181876043Y-82752371D01*
X181924999Y-82719660D01*
X181925000Y-98962664D01*
X181921323Y-98999997D01*
X181935997Y-99148982D01*
X181979453Y-99292243D01*
X182050025Y-99424273D01*
X182113485Y-99501598D01*
X182144999Y-99539998D01*
X182173997Y-99563796D01*
X182347841Y-99737640D01*
X182275000Y-99736928D01*
X182150518Y-99749188D01*
X182030820Y-99785498D01*
X181920506Y-99844463D01*
X181823815Y-99923815D01*
X181744463Y-100020506D01*
X181685498Y-100130820D01*
X181649188Y-100250518D01*
X181636928Y-100375000D01*
X181640000Y-100589250D01*
X181798750Y-100748000D01*
X182748000Y-100748000D01*
X182748000Y-100728000D01*
X183002000Y-100728000D01*
X183002000Y-100748000D01*
X183022000Y-100748000D01*
X183022000Y-101002000D01*
X183002000Y-101002000D01*
X183002000Y-101022000D01*
X182748000Y-101022000D01*
X182748000Y-101002000D01*
X181798750Y-101002000D01*
X181640000Y-101160750D01*
X181636928Y-101375000D01*
X181649188Y-101499482D01*
X181685498Y-101619180D01*
X181742061Y-101725000D01*
X181685498Y-101830820D01*
X181649188Y-101950518D01*
X181636928Y-102075000D01*
X181636928Y-102775000D01*
X181649188Y-102899482D01*
X181672096Y-102975000D01*
X181649188Y-103050518D01*
X181636928Y-103175000D01*
X181636928Y-103865000D01*
X175869302Y-103865000D01*
X172673294Y-100668993D01*
X172649491Y-100639989D01*
X172533766Y-100545016D01*
X172401737Y-100474444D01*
X172258476Y-100430987D01*
X172146823Y-100419990D01*
X172146812Y-100419990D01*
X172109490Y-100416314D01*
X172072168Y-100419990D01*
X170589811Y-100419990D01*
X173314801Y-97695000D01*
X174361928Y-97695000D01*
X174365000Y-97709250D01*
X174523750Y-97868000D01*
X175673000Y-97868000D01*
X175673000Y-97218750D01*
X175514250Y-97060000D01*
X175000000Y-97056928D01*
X174875518Y-97069188D01*
X174755820Y-97105498D01*
X174645506Y-97164463D01*
X174548815Y-97243815D01*
X174469463Y-97340506D01*
X174410498Y-97450820D01*
X174374188Y-97570518D01*
X174361928Y-97695000D01*
X173314801Y-97695000D01*
X174674802Y-96335000D01*
X174701939Y-96335000D01*
X174901898Y-96295226D01*
X175090256Y-96217205D01*
X175259774Y-96103937D01*
X175403937Y-95959774D01*
X175517205Y-95790256D01*
X175595226Y-95601898D01*
X175635000Y-95401939D01*
X175635000Y-95198061D01*
X175595226Y-94998102D01*
X175517205Y-94809744D01*
X175403937Y-94640226D01*
X175259774Y-94496063D01*
X175090256Y-94382795D01*
X174901898Y-94304774D01*
X174701939Y-94265000D01*
X174498061Y-94265000D01*
X174298102Y-94304774D01*
X174109744Y-94382795D01*
X173940226Y-94496063D01*
X173796063Y-94640226D01*
X173682795Y-94809744D01*
X173604774Y-94998102D01*
X173565000Y-95198061D01*
X173565000Y-95295198D01*
X170735000Y-98125199D01*
X170735000Y-97439611D01*
X170778937Y-97395674D01*
X170892205Y-97226156D01*
X170970226Y-97037798D01*
X171010000Y-96837839D01*
X171010000Y-96633961D01*
X170970226Y-96434002D01*
X170892205Y-96245644D01*
X170791249Y-96094552D01*
X172697321Y-94188481D01*
X172726022Y-94164978D01*
X172750104Y-94135698D01*
X172750399Y-94135403D01*
X172774300Y-94106279D01*
X172821119Y-94049355D01*
X172821311Y-94048996D01*
X172821574Y-94048676D01*
X172857068Y-93982272D01*
X172891832Y-93917401D01*
X172891950Y-93917014D01*
X172892146Y-93916647D01*
X172913936Y-93844813D01*
X172935443Y-93774187D01*
X172935484Y-93773780D01*
X172935603Y-93773386D01*
X172942898Y-93699318D01*
X172946559Y-93662546D01*
X172946559Y-93662137D01*
X172950276Y-93624400D01*
X172946639Y-93587474D01*
X172958128Y-82849336D01*
X172964286Y-82828372D01*
X172970124Y-82763210D01*
X173196011Y-82856775D01*
X173463589Y-82910000D01*
X173736411Y-82910000D01*
X174003989Y-82856775D01*
X174256043Y-82752371D01*
X174482886Y-82600799D01*
X174514939Y-82568746D01*
X174524998Y-82581002D01*
X174554001Y-82604804D01*
X174952571Y-83003376D01*
X174989025Y-83071575D01*
X175083998Y-83187300D01*
X175113000Y-83211101D01*
X176074801Y-84172903D01*
X176074800Y-93980778D01*
X176071124Y-94018100D01*
X176074800Y-94055422D01*
X176074800Y-94055432D01*
X176085797Y-94167085D01*
X176127564Y-94304774D01*
X176129254Y-94310346D01*
X176199826Y-94442376D01*
X176232957Y-94482746D01*
X176294799Y-94558101D01*
X176323802Y-94581903D01*
X176671701Y-94929803D01*
X176671701Y-97063990D01*
X176600000Y-97056928D01*
X176085750Y-97060000D01*
X175927000Y-97218750D01*
X175927000Y-97868000D01*
X175947000Y-97868000D01*
X175947000Y-98122000D01*
X175927000Y-98122000D01*
X175927000Y-98142000D01*
X175673000Y-98142000D01*
X175673000Y-98122000D01*
X174523750Y-98122000D01*
X174454420Y-98191330D01*
X174320539Y-98164700D01*
X174116661Y-98164700D01*
X173916702Y-98204474D01*
X173728344Y-98282495D01*
X173558826Y-98395763D01*
X173414663Y-98539926D01*
X173301395Y-98709444D01*
X173223374Y-98897802D01*
X173183600Y-99097761D01*
X173183600Y-99301639D01*
X173223374Y-99501598D01*
X173301395Y-99689956D01*
X173414663Y-99859474D01*
X173430391Y-99875202D01*
X173326795Y-100030244D01*
X173248774Y-100218602D01*
X173209000Y-100418561D01*
X173209000Y-100622439D01*
X173248774Y-100822398D01*
X173326795Y-101010756D01*
X173440063Y-101180274D01*
X173584226Y-101324437D01*
X173753744Y-101437705D01*
X173942102Y-101515726D01*
X174142061Y-101555500D01*
X174345939Y-101555500D01*
X174372244Y-101550268D01*
X174361928Y-101655000D01*
X174361928Y-101955000D01*
X174377071Y-102108745D01*
X174421916Y-102256582D01*
X174494742Y-102392829D01*
X174592749Y-102512251D01*
X174712171Y-102610258D01*
X174848418Y-102683084D01*
X174996255Y-102727929D01*
X175150000Y-102743072D01*
X176450000Y-102743072D01*
X176603745Y-102727929D01*
X176751582Y-102683084D01*
X176887829Y-102610258D01*
X177007251Y-102512251D01*
X177105258Y-102392829D01*
X177123650Y-102358420D01*
X177140001Y-102345001D01*
X177163804Y-102315997D01*
X177281641Y-102198160D01*
X177323257Y-102185536D01*
X177455286Y-102114964D01*
X177571011Y-102019991D01*
X177594814Y-101990987D01*
X177942698Y-101643103D01*
X177971701Y-101619301D01*
X178066674Y-101503576D01*
X178137246Y-101371547D01*
X178180703Y-101228286D01*
X178191700Y-101116633D01*
X178191700Y-101116624D01*
X178195376Y-101079301D01*
X178191700Y-101041978D01*
X178191700Y-94652322D01*
X178195376Y-94614999D01*
X178191700Y-94577676D01*
X178191700Y-94577667D01*
X178180703Y-94466014D01*
X178137246Y-94322753D01*
X178100318Y-94253666D01*
X178066674Y-94190723D01*
X177995499Y-94103997D01*
X177971701Y-94074999D01*
X177942702Y-94051200D01*
X177594800Y-93703299D01*
X177594800Y-83895422D01*
X177598476Y-83858099D01*
X177594800Y-83820776D01*
X177594800Y-83820767D01*
X177593984Y-83812486D01*
X177979800Y-84198302D01*
X177979801Y-92145988D01*
X177910463Y-92215326D01*
X177797195Y-92384844D01*
X177719174Y-92573202D01*
X177679400Y-92773161D01*
X177679400Y-92977039D01*
X177719174Y-93176998D01*
X177797195Y-93365356D01*
X177910463Y-93534874D01*
X178054626Y-93679037D01*
X178224144Y-93792305D01*
X178412502Y-93870326D01*
X178612461Y-93910100D01*
X178816339Y-93910100D01*
X179016298Y-93870326D01*
X179204656Y-93792305D01*
X179374174Y-93679037D01*
X179518337Y-93534874D01*
X179631605Y-93365356D01*
X179709626Y-93176998D01*
X179749400Y-92977039D01*
X179749400Y-92773161D01*
X179709626Y-92573202D01*
X179631605Y-92384844D01*
X179518337Y-92215326D01*
X179499800Y-92196789D01*
X179499800Y-83920823D01*
X179503476Y-83883500D01*
X179499800Y-83846177D01*
X179499800Y-83846167D01*
X179488803Y-83734514D01*
X179445346Y-83591253D01*
X179399534Y-83505546D01*
X179374774Y-83459223D01*
X179303599Y-83372497D01*
X179279801Y-83343499D01*
X179250804Y-83319702D01*
X178837005Y-82905904D01*
X179083989Y-82856775D01*
X179336043Y-82752371D01*
X179562886Y-82600799D01*
X179755799Y-82407886D01*
X179907371Y-82181043D01*
X179950000Y-82078127D01*
X179992629Y-82181043D01*
G36*
X150933748Y-77710858D02*
G01*
X150919605Y-77725000D01*
X150933748Y-77739143D01*
X150754143Y-77918748D01*
X150740000Y-77904605D01*
X150725858Y-77918748D01*
X150546253Y-77739143D01*
X150560395Y-77725000D01*
X150546253Y-77710858D01*
X150725858Y-77531253D01*
X150740000Y-77545395D01*
X150754143Y-77531253D01*
X150933748Y-77710858D01*
G37*
X150933748Y-77710858D02*
X150919605Y-77725000D01*
X150933748Y-77739143D01*
X150754143Y-77918748D01*
X150740000Y-77904605D01*
X150725858Y-77918748D01*
X150546253Y-77739143D01*
X150560395Y-77725000D01*
X150546253Y-77710858D01*
X150725858Y-77531253D01*
X150740000Y-77545395D01*
X150754143Y-77531253D01*
X150933748Y-77710858D01*
G36*
X153473748Y-77710858D02*
G01*
X153459605Y-77725000D01*
X153473748Y-77739143D01*
X153294143Y-77918748D01*
X153280000Y-77904605D01*
X153265858Y-77918748D01*
X153086253Y-77739143D01*
X153100395Y-77725000D01*
X153086253Y-77710858D01*
X153265858Y-77531253D01*
X153280000Y-77545395D01*
X153294143Y-77531253D01*
X153473748Y-77710858D01*
G37*
X153473748Y-77710858D02*
X153459605Y-77725000D01*
X153473748Y-77739143D01*
X153294143Y-77918748D01*
X153280000Y-77904605D01*
X153265858Y-77918748D01*
X153086253Y-77739143D01*
X153100395Y-77725000D01*
X153086253Y-77710858D01*
X153265858Y-77531253D01*
X153280000Y-77545395D01*
X153294143Y-77531253D01*
X153473748Y-77710858D01*
G36*
X148393748Y-77710858D02*
G01*
X148379605Y-77725000D01*
X148393748Y-77739143D01*
X148214143Y-77918748D01*
X148200000Y-77904605D01*
X148185858Y-77918748D01*
X148006253Y-77739143D01*
X148020395Y-77725000D01*
X148006253Y-77710858D01*
X148185858Y-77531253D01*
X148200000Y-77545395D01*
X148214143Y-77531253D01*
X148393748Y-77710858D01*
G37*
X148393748Y-77710858D02*
X148379605Y-77725000D01*
X148393748Y-77739143D01*
X148214143Y-77918748D01*
X148200000Y-77904605D01*
X148185858Y-77918748D01*
X148006253Y-77739143D01*
X148020395Y-77725000D01*
X148006253Y-77710858D01*
X148185858Y-77531253D01*
X148200000Y-77545395D01*
X148214143Y-77531253D01*
X148393748Y-77710858D01*
G36*
X149663748Y-75810858D02*
G01*
X149649605Y-75825000D01*
X149663748Y-75839143D01*
X149484143Y-76018748D01*
X149470000Y-76004605D01*
X149455858Y-76018748D01*
X149276253Y-75839143D01*
X149290395Y-75825000D01*
X149276253Y-75810858D01*
X149455858Y-75631253D01*
X149470000Y-75645395D01*
X149484143Y-75631253D01*
X149663748Y-75810858D01*
G37*
X149663748Y-75810858D02*
X149649605Y-75825000D01*
X149663748Y-75839143D01*
X149484143Y-76018748D01*
X149470000Y-76004605D01*
X149455858Y-76018748D01*
X149276253Y-75839143D01*
X149290395Y-75825000D01*
X149276253Y-75810858D01*
X149455858Y-75631253D01*
X149470000Y-75645395D01*
X149484143Y-75631253D01*
X149663748Y-75810858D01*
G36*
X152203748Y-75810858D02*
G01*
X152189605Y-75825000D01*
X152203748Y-75839143D01*
X152024143Y-76018748D01*
X152010000Y-76004605D01*
X151995858Y-76018748D01*
X151816253Y-75839143D01*
X151830395Y-75825000D01*
X151816253Y-75810858D01*
X151995858Y-75631253D01*
X152010000Y-75645395D01*
X152024143Y-75631253D01*
X152203748Y-75810858D01*
G37*
X152203748Y-75810858D02*
X152189605Y-75825000D01*
X152203748Y-75839143D01*
X152024143Y-76018748D01*
X152010000Y-76004605D01*
X151995858Y-76018748D01*
X151816253Y-75839143D01*
X151830395Y-75825000D01*
X151816253Y-75810858D01*
X151995858Y-75631253D01*
X152010000Y-75645395D01*
X152024143Y-75631253D01*
X152203748Y-75810858D01*
M02*
